<?xml version="1.0" encoding="utf-8"?>
<!-- Generator: Adobe Illustrator 13.0.1, SVG Export Plug-In . SVG Version: 6.00 Build 14948)  -->
<!DOCTYPE svg PUBLIC "-//W3C//DTD SVG 1.0//EN" "http://www.w3.org/TR/2001/REC-SVG-20010904/DTD/svg10.dtd">
<svg version="1.0" id="loose" xmlns="http://www.w3.org/2000/svg" xmlns:xlink="http://www.w3.org/1999/xlink" x="0px" y="0px"
	 width="126.325px" height="128.667px" viewBox="0 0 126.325 128.667" enable-background="new 0 0 126.325 128.667"
	 xml:space="preserve">
<path fill-rule="evenodd" clip-rule="evenodd" fill="#615445" d="M79.009,19.12c0.782,0.238,1.45,0.475,2.042,0.46
	c1.013-0.024,1.729-0.6,2.489-1.818c1.203-2.719,1.297-3.124,1.793-3.052c0.495-0.072,0.542-0.309-0.094-0.596
	c-0.638-0.286-0.433-0.215-0.975-0.381c-0.497-0.167-0.378,0.286-0.261,0.381c0.119,0.096,0.095,0.453,0.095,0.453
	s-0.356,0.71-0.635,1.316c-0.191,0.413-0.363,0.842-0.679,1.308c-0.21,0.328-0.404,0.706-0.604,0.967
	c-0.542,0.708-1.139,1.005-2.275,0.535c-1.273-0.645-0.991-1.646-0.708-3.005c0.495-1.717,0.919-2.789,1.416-2.789
	c0.566-0.072,0.66-0.215-0.331-0.646c-1.84-0.786-1.911-0.714-1.769-0.212c0.141,0.357-0.071,0.643-0.071,0.643
	s-0.07,0.592-0.251,1.246c-0.132,0.48-0.324,0.995-0.504,1.329C77.332,16.833,77.096,18.406,79.009,19.12z M68.153,69.333
	c0.756,0.573,0.896,0.193,1.133-0.236c0.094-0.382,0.33-0.477,0.614-0.431c0.282,0.049,0.613,0.144,0.613,0.667
	c0,0.527,0.472,0.671,0.802,0.671c0.332,0,0.189-0.194,0.096-0.621c-0.096-0.43-0.237-1.097-0.378-2.241
	c-0.142-0.859-0.425-1.05-0.897-1.097c-0.471-0.048-0.471-0.048-0.755,0.619c-0.377,0.525-0.708,1.671-0.708,1.671
	C68.39,68.666,68.153,69.333,68.153,69.333z M69.805,67.285c0.377-0.621,0.52,0.047,0.52,0.047v0.621
	C69.522,68.142,69.71,67.905,69.805,67.285z M63.504,16.212c1.3,0.071,2.053,0.334,0.778-0.81l0.143-3.076
	c0,0,0.141-0.834,0.708-0.047c0.991,1.287,2.548,3.265,2.548,3.265s0.192,0.211,0.448,0.49c0.537,0.584,1.354,1.305,1.275-0.131
	c0.283-3.934,0.518-4.936,0.518-4.936s0.12-0.405,0.543-0.405c0.425,0,0.614-0.477-0.661-0.548c-1.345-0.144-1.298-0.047-0.59,0.738
	c-0.141,2.219-0.259,3.077-0.259,3.077s0.142,1.001-0.566,0.214c-0.861-1.151-1.627-2.018-2.107-2.662
	c-0.98-1.315-1.15-1.702-1.15-1.702s-0.378-0.357-1.157-0.357c-0.779,0-1.298,0.096-0.165,1.003c0.071,1.501-0.33,4.863-0.33,4.863
	S62.186,16.141,63.504,16.212z M41.012,15.294c0.212,0,0.283-0.167,0.377-0.392c0.142-0.286,0.236-0.537,0.767-0.906
	c0.342-0.239,0.876-0.455,1.172,0.262c0,0,0.578,1.536,1.027,2.812c0.296,0.842,0.53,1.611,0.53,1.611s-0.778,1.204,0.354,0.632
	c1.109-0.358,2.537-0.859,1.169-1.194c-0.425-0.427-0.393-0.631-0.405-0.714c-0.367-1.098-1.417-4.041-1.417-4.041
	s-0.105-0.287,0.365-0.443c0.521-0.19,0.815-0.392,1.665,0.05c0.178,0.082,0.626,0.177,0.437-0.383
	c-0.213-0.406-0.411-0.619-0.752-0.786c-0.486-0.055-0.64,0.19-0.805,0.239c-0.567,0.166-2.538,0.845-2.538,0.845
	c-1.31,0.478-2.062,0.799-2.062,0.799s-0.168,0.572-0.157,0.869C40.752,15.021,40.799,15.294,41.012,15.294z M65.888,63.135
	c0.614,0,0.566-0.095,0.897-0.668c0.33-0.333,0.378-0.046,0.661,0.335c0.142,0.381,0.284,0.476,0.849,0.476
	c0.52,0,0-0.905-0.331-1.621c-0.283-0.333,0.142-0.81,0.142-0.81s0.236-0.334,0.52-0.62c0.284-0.286,0.236-0.334-0.235-0.525
	c-0.52-0.191-0.614,0.24-0.614,0.24l-0.259,0.382c-0.189,0.524-0.543-0.335-0.638-0.622c-0.094-0.287-0.519-0.287-0.849-0.287
	c-0.331,0-0.237,0.382,0.377,1.385c0.284,0.333,0.143,0.477-0.708,1.667C65.274,63.041,65.699,63.135,65.888,63.135z M48.116,11.767
	c0.189,0.072,0.438,0.536,0.438,0.536c0.004,0.037,0.181,0.713,0.363,1.541c0.231,1.05,0.488,2.343,0.581,2.881
	c0.058,0.334-0.048,0.49-0.048,0.49c-0.082,0.167-0.295,0.238-0.271,0.478c0.024,0.237,0.413,0.19,0.413,0.19
	s0.094-0.024,0.661-0.178c0.283-0.18,2.477-0.61,3.469-0.823c0.792-0.036,0.72-0.429,0.72-0.429s0-0.215-0.011-0.632
	c-0.249-0.847-0.567-0.013-0.862,0.298c-0.236,0.237-0.885,0.333-1.747,0.511c-0.767,0.216-0.837-0.262-0.837-0.262
	s-0.19-0.667-0.342-1.585c-0.119-0.798,0.342-0.893,0.342-0.893s0.342-0.107,0.802-0.167c0.459-0.06,0.625,0.071,0.767,0.203
	c0.141,0.131,0.271,0.144,0.401,0.036c0.189-0.215,0.012-0.478-0.094-1.109c-0.131-0.727-0.483-0.239-0.661,0.07
	c-0.2,0.347-0.672,0.347-1.357,0.43c-0.484,0-0.532-0.262-0.532-0.262s-0.2-0.322-0.283-1.372c-0.047-0.595,0.603-0.631,0.603-0.631
	s0.813-0.167,1.238-0.213c0.425-0.048,0.791,0,0.957,0.13c0.165,0.131,0.189,0.226,0.412,0.262c0.319,0.024,0.189-0.333,0.13-0.584
	c-0.13-0.606-0.53-0.488-0.955-0.404c-1.475,0.167-3.671,0.704-4.414,0.942C47.574,11.444,47.904,11.669,48.116,11.767z
	 M69.049,72.96c-0.377-0.051-0.424,0.046-0.659,0.475c-0.284,0.764-0.472,1.333-0.803,0.858c-0.567-1.24-0.472-1.287-0.472-1.287
	s-0.188-0.335-0.565-0.286c-0.378,0.046-0.473,0-0.378,0.477c0,0,0.896,2.24,0.896,2.67c0.237,0.429,0.424,0.382,0.662,0.429
	c0.235,0.049,0.565,0,0.661-0.477c0.849-2.051,0.99-2.525,0.99-2.525S69.427,73.006,69.049,72.96z M85.096,19.979l-0.567,0.857
	c0,0-1.651-0.022-0.023,0.764c0.637,0.645,1.369,0.597,0.802-0.262l0.189-0.502l1.297-2.359c0,0,0.637-1.144,0.708,0.287
	c0.354,1.717,0.92,4.363,1.133,4.792c0.212,0.428,0.566,1.072,1.132,0.286c0.206-0.345,0.352-0.676,0.535-0.992
	c0.682-1.174,1.27-2.14,1.686-2.801c0.402-0.64,0.729-0.999,0.729-0.999c0.685-0.096,1.297-0.286,0.236-0.788
	c-1.062-0.644-1.298-0.786-0.992,0.215c-0.637,1.265-1.652,2.933-1.652,2.933s-0.589,0.573-0.66-0.287
	c-0.566-3.146-0.944-4.721-0.944-4.721s0.024-0.505-0.849-1.024c-1.086-0.645-1.417-0.311-0.803,0.476
	C86.984,16.712,85.096,19.979,85.096,19.979z M35.974,19.395c1.002,0.359,1.523,0.17,2.121-0.006
	c0.477-0.127,0.941-0.265,1.352-0.41c0.447-0.028,0.782,0.129,0.998,0.313c0.331,0.285,0.381,0.7,0.123,1.118
	c-0.943,1.311-2.396,0.977-2.396,0.977c-1.628-0.571-1.356-0.119-0.86,0.597c0.482,0.703,1.121,0.357,1.121,0.357
	s0.437-0.204,2.064-0.991c0.85-0.464,0.975-0.881,1.118-1.274c0.2-0.477,0.075-0.984,0.075-1.145c0,0-0.051-0.084-0.192-0.394
	c-0.673-1.538-2.16-1.192-2.632-1.073c-0.66,0.167-1.369,0.311-2.395,0.381c-0.72-0.106-0.543-0.821-0.366-1.121
	c0.424-0.524,0.743-0.631,1.322-0.87c0.801-0.274,1.062-0.095,1.38,0.049c0.319,0.143,0.449,0.273,0.671,0.202
	c0.26-0.286,0.096-0.501-0.282-1.12c-0.354-0.512-0.837,0-0.837,0s-0.072,0.094-0.39,0.226c-0.755,0.083-1.391,0.441-1.664,0.56
	c-1.263,0.56-1.463,1.371-1.451,1.896C34.77,18.751,35.583,19.241,35.974,19.395z M73.344,71.1c0.944,0.189,1.275-0.194,1.463-0.764
	c0.189-1.004-0.708-1.431-1.085-1.907c0-0.524,0.283-0.381,0.85-0.095c0.52-0.192,0.377-0.526,0.095-0.813
	c-1.228-0.81-1.747-0.048-1.841,0.431c0,0.953,0.332,1.144,0.944,1.764c0.472,0.713-0.52,0.523-0.52,0.523
	c-0.189-0.38-0.425-0.431-0.708-0.19C72.259,70.526,72.589,70.716,73.344,71.1z M92.974,23.551c-0.614,0.82-1.341,1.603-1.341,1.603
	c-1.368,0.286-0.377,0.691,1.038,1.549c0.378,0.453,0.496-0.572,0.496-0.572s0.951-1.336,1.806-2.554
	c0.366-0.521,0.678-1.019,0.95-1.382c0.544-0.728,0.783-0.594,0.783-0.594c0.636-0.358,0.212-0.619-1.132-1.406
	c-0.921-1.001-0.662,0.642-0.662,0.642S93.882,22.341,92.974,23.551z M56.743,118.94c-0.388-0.537-0.495-1.431-0.601-1.682
	c-0.167-0.561-0.378-1.278-0.528-1.905c-0.138-0.576-0.218-1.074-0.285-1.313c-0.178-0.43-0.425-0.575-0.922-0.575
	c-0.636-0.14-0.884-0.179-0.636,0.358c-0.035,0.323-0.224,0.788-0.224,0.788c-0.743,1.324-1.793,2.826-1.793,2.826
	s-0.354,0.357-0.708,0.394c-0.354,0.035-0.496,0.393-0.141,0.428c0.99,0.215,1.097,0.204,1.097,0.204s0.99,0.272,0.142-0.632
	l0.565-0.896c0,0,0.071-0.07,0.39-0.07c0.318,0,1.133,0.106,1.133,0.106s0.637,0.179,0.672,0.643c0.177,0.645,0.531,0.859,0,1.182
	c-0.142,0.107-0.248,0.32,0.282,0.358c0.532,0.034,1.665,0.214,1.665,0.214S57.168,119.296,56.743,118.94z M54.337,116.473
	c-0.318,0-0.921-0.181-0.921-0.181s-0.106-0.144,0-0.429c0.354-0.645,0.638-1.288,0.921-0.645
	C54.62,116.292,54.656,116.473,54.337,116.473z M70.607,73.626c-0.142,0.857,0,1,0.803,1.954c0.424,0.715-0.378,0.527-0.378,0.527
	c-0.377-0.051-0.52-0.384-0.803-0.098c-0.282,0.523,0.189,0.716,0.898,1.002c0.519,0.095,0.943,0.285,1.275-0.479
	c0.329-1.238-0.26-1.43-0.591-1.812c-0.189-0.334-0.165-0.618,0.212-0.429c0.379,0.19,0.425,0.144,0.614-0.144
	c0.188-0.286,0.094-0.428-0.378-0.668C71.41,73.053,70.749,73.386,70.607,73.626z M54.854,10.325c0.213,0,0.544,0.262,0.637,0.619
	c0,0.356,0.401,3.027,0.449,3.862c0.047,0.62-0.025,1.001-0.189,1.24c-0.519,0.333-0.118,0.405,0.213,0.405
	c0.33,0,0.826-0.096,1.581-0.192c0.542-0.095,0.118-0.356-0.236-0.644c0,0-0.141-0.573-0.141-1.645
	c0.165-0.81,0.956-0.453,1.227-0.154c0.271,0.297,1.275,1.657,1.794,2.098c0.212,0.214,0.956,0.204,1.486,0.214
	c0.13,0,0.484,0,0.484-0.19c0-0.191-0.142-0.204-0.662-0.465c-0.944-0.644-1.25-1.252-1.604-1.776
	c-0.308-0.514,0.165-0.704,0.589-0.93c0.944-0.632,0.968-1.443,0.968-1.681c-0.484-1.979-2.206-1.693-3.292-1.657
	c-0.684,0.048-2.243,0.298-2.832,0.369c-0.378,0.013-0.566,0.024-0.602,0.262C54.689,10.299,54.854,10.325,54.854,10.325z
	 M57.451,10.181c1.298-0.143,2.313-0.477,2.525,1.001c0,0.429,0.024,1-1.204,1.598c-1.297,0.094-1.439,0.094-1.439,0.094
	s-0.307-0.023-0.283-0.405c-0.07-1.025-0.142-1.43-0.142-1.43l-0.048-0.072C56.86,10.967,56.601,10.251,57.451,10.181z
	 M33.382,106.922c0.743-2.108-1.167-3.54-1.167-3.54c-0.64-0.39-1.221-0.502-1.735-0.498c-1.137,0.008-1.946,0.709-2.336,1.176
	c-0.991,1.896,0.035,3.221,0.566,3.756c0.354,0.431,1.097,0.655,1.982,0.87C32.285,108.83,33.028,107.637,33.382,106.922z
	 M32.533,104.991c-0.178,1.073-0.283,1.68-1.628,2.788c-0.566,0.218-1.203,0.504-1.734-0.104c-0.496-0.646-0.743-1.43,0.248-3.004
	c0.354-0.498,1.086-1.124,1.809-1.176c0.216-0.018,0.431,0.038,0.633,0.138C31.859,103.632,32.71,103.991,32.533,104.991z
	 M20.675,94.012c0.29-0.295,0.462-0.589,0.603-0.876c0.583-1.188,0.1-2.297-0.214-2.988c-1.592-2.61-4.141-1.108-4.141-1.108
	c-2.159,2.004-0.886,3.934-0.39,4.723C18.268,95.408,20.038,94.512,20.675,94.012z M16.71,93.295c0,0-0.744-1.179,0.248-2.324
	c0.566-0.715,2.513-2.147,3.681-0.608c0.318,0.574,0.213,1.717-0.53,2.397C19.365,93.438,18.126,94.297,16.71,93.295z
	 M59.788,115.612c-0.283-0.106-0.637-0.319-0.672-0.608c0-0.356,0.389-0.678,0.956-0.678c0.672,0,1.239,0.25,1.663,0.75
	c0.391,0.502,0.567,0.108,0.602-0.535c0-0.608-0.319-0.68-0.531-0.43c0,0-0.531-0.144-1.593-0.25
	c-0.892-0.045-1.399,0.29-1.684,0.652c-0.178,0.23-0.284,0.469-0.298,0.634c0,1.326,0.708,1.683,1.628,2.04
	c1.274,0.393,1.416,0.572,1.557,1.037c0.142,0.465-0.213,0.716-1.027,0.893c-0.779,0-1.734-0.821-1.734-0.821
	c-0.672-0.607-0.566,0-0.531,0.788c0,0.463,0.177,0.321,0.389,0.321c0.212,0,0.425-0.072,0.425-0.072s0.035,0,0.602-0.036
	c0.142,0.072,0.495,0.288,1.026,0.357c1.664-0.144,1.664-0.93,1.876-1.571C62.76,116.33,60.389,115.936,59.788,115.612z
	 M12.038,60.502c1.688-0.287,2.187-1.254,2.399-1.611c0.343-0.502,0.453-0.896,0.492-1.716c0.165-1.504-0.411-2.399-1.19-2.967
	c-0.414-0.302-0.886-0.547-1.342-0.666c-0.526-0.136-1.037-0.078-1.42-0.1c-1.342,0.144-2.17,0.941-2.581,1.706
	c-0.413,0.767-0.405,1.502-0.405,1.502C7.708,59.69,10.269,60.716,12.038,60.502z M8.748,56.161c0,0,0.071-0.846,1.11-1.037
	c0.578-0.144,1.085-0.178,1.935-0.024c0.744,0.179,2.419,0.633,2.49,2.076c-0.036,0.619,0.07,0.964-0.874,1.502
	c-0.448,0.262-0.578,0.322-1.616,0.322c-1.133-0.084-1.759-0.228-2.301-0.691C8.961,57.663,8.407,57.246,8.748,56.161z
	 M14.284,69.133c0.044-0.369-0.084-0.929-0.028-1.229c0.212-0.442-0.401-0.62-0.543-0.19c-0.142,0.428-0.732,0.416-0.732,0.416
	s-0.023-0.013-2.147-0.082c-1.133,0,0-0.859,0-0.859s0.604-0.533,1.289-1.146c0.748-0.67,1.591-1.44,1.85-1.774
	c0.125-0.127,0.258-0.256,0.316-0.392c0.105-0.246,0.061-0.514,0.061-0.836c0-0.165-0.004-0.315-0.074-0.396
	c-0.144-0.167-0.397-0.152-0.397-0.152s-0.645-0.02-2.724-0.138c-0.233-0.014-0.484-0.008-0.755-0.029
	c-0.515-0.038-1.099-0.108-1.76-0.143c0,0-0.106-0.037-0.33-0.334c-0.292-0.414-0.505-0.372-0.598-0.136
	c-0.044,0.111-0.046,0.27-0.061,0.446c-0.029,0.36-0.037,0.794-0.037,1.048c0,0.645,0.46,0.49,0.46,0.49s0.041-0.007,0.21-0.159
	c0.083-0.078,0.216-0.189,0.356-0.354c0,0,0.379-0.012,1.95,0.027c0.349,0.009,0.759,0.032,1.236,0.044
	c0.638,0,0.283,0.644,0.283,0.644s-1.578,1.41-2.81,2.547c-0.789,0.73-1.437,1.375-1.437,1.375c0,0.002,0.005,0.065,0.071,1.513
	c0.075,0.541,0.289,0.571,0.438,0.473c0.127-0.085,0.198-0.27,0.198-0.27l0.425-0.439l4.602-0.014
	C14.053,69.716,14.236,69.536,14.284,69.133z M22.657,94.619c0.122-0.081,0.268-0.114,0.416-0.071
	c0.244,0.071,0.493,0.308,0.646,0.573c0.248,0.428,0.601,0.967,0.46,1.608c-0.142,0.644,0.283,0.396,0.283,0.396
	s0.036,0,0.637-0.431c0.354-0.215-0.354-0.717-0.354-0.717s0,0-0.319-0.75c-1.026-1.823-2.194-1.144-2.689-0.823
	c-0.885,0.608-0.638,1.932-0.284,2.54c0.319,0.966,0.284,1.216,0.036,1.608c-0.354,0.468-0.992,0.107-1.274-0.284
	c-0.637-0.931-0.354-2.397-0.354-2.397c-0.212-0.5-0.672,0-1.132,0.571c-0.39,0.396,0.07,0.502,0.07,0.502s0.106,0.037,0.39,0.285
	c0,0,0.248,1.217,0.956,1.934c0.778,0.75,2.053,0.642,2.478,0.177c0.814-1.287,0.318-2.323,0.035-3.147
	C22.409,95.408,22.338,94.833,22.657,94.619z M65.227,66.332c0.566,0,0.331,0.665,0.331,0.665l-0.142,1.956
	c-0.046,0.477,0.283,0.38,0.708,0.38s0.33-0.331,0.33-0.331s0.048-0.764,0.141-2.146c0.095-0.429,0.662-0.406,0.992-0.452
	c0.331-0.05,0.307-0.025,0.4-0.312c0.095-0.287-0.07-0.334-0.73-0.523c-0.85-0.121-2.101-0.072-2.384-0.072
	s-0.472,0.096-0.472,0.334C64.401,66.066,64.661,66.377,65.227,66.332z M28.604,102.06c0,0.392,0.389,0.177,0.389,0.177
	s0.036-0.035,0.284-0.856c0.106-0.358,0.035-0.358-0.319-0.681c0,0-0.58-0.494-1.276-1.29c-0.364-0.415-0.682-0.911-1.131-1.462
	c-0.284-0.397-0.566-0.182-1.417,0.033c-0.778,0.179,0.248,0.465,0.248,0.465l0.532-0.034c0,0,0,0,0.601,0.68
	c0.071,0.144,0.166,0.144,0.06,0.463c-0.05,0.126-1.265,1.37-1.986,2.098c-0.303,0.3-0.551,0.513-0.551,0.513
	c-1.168-0.104-0.542,0.394-0.542,0.394s0.224,0.431,1.144,1.181c0.389,0.286,0.425,0.144,0.425-0.464c0,0,0.177-0.252,0.744-0.895
	c0.707-0.86,1.592-1.539,1.982-1.752C28.462,100.593,28.674,101.2,28.604,102.06z M39.222,113.074
	c-0.778,0.037-0.566,0.967-0.566,0.967l-0.035,0.213c0,0-0.531,0.287-0.424,0.5c0.105,0.218,0.531,0.179,1.097,0
	c0.424-0.25,0.638-0.428,0.673-0.893C40.001,113.074,39.506,113.111,39.222,113.074z M16.427,35.538c0,0,0.4,0.172,0.872,0.49
	c0.49,0.33,1.135,0.777,1.725,1.178c0.847,0.575,1.58,1.085,1.58,1.085s0.276,0.238,0.276,0.37c0,0.13-0.048,0.678,0.366,0.394
	c0.471-0.704,1.127-1.766,1.127-1.766c0.071-0.357-0.566-0.072-0.566-0.072c-0.779-0.142-1.841-1.216-1.841-1.216
	s-0.271-0.226,0.083-0.87c0.354-0.643,0.92-1.288,0.92-1.288s0.152-0.309,0.524-0.296c0.125,0.004,0.229,0.076,0.408,0.166
	c0.359,0.181,0.671,0.46,0.968,0.728c0.291,0.262,0.571,0.514,0.507,0.655c-0.135,0.953,0.312,0.262,0.413,0.118
	c1.132-1.429,1.167-1.429,1.167-1.429s0.248-0.526-0.601-0.167c-0.149-0.109-0.391-0.239-0.683-0.46
	c-0.577-0.435-1.352-1.08-1.992-1.624c-0.745-0.637-1.361-1.207-1.361-1.207c-0.07-0.083-0.102-0.263-0.102-0.5
	c0.024-0.429-0.439-0.288-0.535-0.192c-0.708,0.788-1.947,1.979-0.531,1.837c0.099,0.044,0.2,0.049,0.287,0.109
	c1.106,0.779,1.506,1.364,1.248,1.559c-0.067,0.274-0.491,0.705-0.682,0.972c-0.42,0.583-0.604,0.889-0.604,0.889
	s-0.365,0.428-0.849,0.023c-0.096-0.049-0.185-0.096-0.269-0.141c-1.014-0.555-1.064-0.886-1.064-0.886
	c-0.06-0.667-0.543-0.357-0.614-0.071C15.896,35.144,15.082,35.896,16.427,35.538z M10.02,50.772c0,0,0.194,0,0.507,0.062
	c0.563,0.113,1.509,0.349,2.407,0.588c1.029,0.273,2.052,0.494,2.501,0.888c0.213,1.001,0.425,0.287,0.708-1.144
	c0.496-1.288-0.496-0.43-0.496-0.43s-0.566,0.024-1.699-0.477c-0.779-0.5,0-1.132,0.424-1.276c0.191-0.064,0.475-0.152,0.798-0.25
	c0.395-0.12,0.851-0.287,1.279-0.405c0.637-0.144,0.885-0.524,1.251-1.668c0.313-0.815-0.051-0.684-0.3-0.479
	c-0.145,0.121-0.196,0.264-0.196,0.264c-0.496,0.501-0.85,0.633-2.195,0.93c-0.696,0.227-0.732,0.286-0.874-0.429
	c-0.025-0.453-0.164-0.783-0.292-1.025c-0.235-0.447-0.619-0.599-1.124-0.691c-1.699,0-2.071,1.167-2.207,1.573
	c-0.118,0.352-0.315,0.86-0.633,1.702c-0.237,0.628-0.404,1.384-0.677,2.208C9.088,51.787,10.02,50.772,10.02,50.772z
	 M10.516,48.435c0.538-1.302,0.509-2.026,1.653-2.026c0.388,0.08,0.696,0.299,0.926,0.645c0.188,0.286,0.335,0.657,0.335,1.108
	c-0.283,1.572-0.543,1.789-0.991,1.645c-0.99-0.215-1.675-0.442-1.675-0.442S10.221,49.294,10.516,48.435z M28.992,21.314
	c0,0,0.221,0.051,0.253,0.183c0.112,0.437,0.432,1.497,0.673,2.601c0.338,1.551,0.549,3.131,0.549,3.131
	c-0.333,0.612-0.096,0.735,0.267,0.55c0.202-0.102,0.394-0.291,0.665-0.563c0.073-0.072,0.167-0.127,0.211-0.187
	c0.25-0.333,0.006-0.494-0.293-0.373c-0.248,0.024-0.354-0.167-0.495-0.739c-0.142-0.571,0.117-0.882,0.117-0.882
	s0.566-0.382,1.771-1.526c0.17-0.073,0.307-0.143,0.453-0.129c0.28,0.03,0.547,0.279,1.198,0.748
	c-0.154,0.854,0.092,0.849,0.664,0.396c0.349-0.275,0.895-0.716,1.413-1.23c0.212-0.395-0.252-0.356-0.488-0.345
	c-0.236,0.011-0.338-0.107-0.338-0.107s-0.685-0.347-1.609-0.882c-0.907-0.525-2.044-1.233-2.992-1.836
	c-0.264-0.166-0.473-0.315-0.65-0.361c-0.202-0.055-0.327,0.002-0.477,0.073c-0.285,0.139-0.569,0.429-0.997,0.789
	C28.25,21.196,28.992,21.314,28.992,21.314z M30.586,21.732c0.755,0.525,1.322,0.799,1.322,0.799s0.566,0.405,0.235,0.692
	c-1.085,1.001-1.085,1.001-1.085,1.001s-0.472,0.286-0.661-0.287c-0.188-1.145-0.377-2.002-0.377-2.002S29.878,21.303,30.586,21.732
	z M21.258,28.541c0.484-0.024,0.602,0.036,0.602,0.036l1.452,1.286c0.661,0.573,1.995,1.931,1.995,1.931s0.165,0.156,0.118,0.419
	c-0.047,0.333-0.153,0.537,0,0.631c0.153,0.096,0.271,0.119,0.472-0.119c0.755-0.871,2.667-2.969,2.667-2.969l0.944-0.929
	c0,0,0.083-0.37-0.177-0.716c-0.307-0.405-0.448-0.621-0.743-0.537c-0.118,0.06-0.154,0.132-0.094,0.656
	c-0.036,0.561-0.024,0.728-0.225,0.966c-0.366,0.488-1.25,1.394-1.25,1.394s-0.295,0.288-0.59,0.107
	c-0.542-0.417-1.357-1.31-1.357-1.31s-0.225-0.286,0.142-0.668c0.448-0.5,0.613-0.667,0.613-0.667s0.095-0.108,0.402-0.095
	c0.307,0.013,0.625-0.013,0.46-0.31c-0.213-0.333-0.26-0.548-0.908-0.799c-0.166-0.023-0.342-0.011-0.284,0.37
	c0.012,0.287,0,0.394-0.13,0.489c-0.213,0.191-0.685,0.643-0.685,0.643s-0.377,0.263-0.614,0.121
	c-0.542-0.395-0.861-0.562-1.038-0.931c-0.153-0.333-0.071-0.632,0.071-0.81c0.306-0.381,1.038-1.359,1.487-1.491
	c0.213-0.058,0.484-0.154,1.228-0.035c0.271-0.012,0.531-0.154,0.271-0.441c-0.401-0.262-0.779-0.667-1.145-0.536
	c-0.237,0.046-0.295,0.072-0.52,0.262c-0.449,0.382-2.195,2.217-2.195,2.217c-0.249,0.31-0.555,0.847-1.109,1.275
	C20.975,28.123,20.786,28.541,21.258,28.541z M50.514,113.932c0.142-0.321,0.106-0.396,0.602-0.679
	c0.531-0.286-0.142-0.502-0.708-0.61c-0.566-0.106-0.779,0.072-0.779,0.072s-0.778,0.786-1.983,2.073
	c-0.778,0.789-0.955-0.104-0.955-0.104s-0.248-1.11-0.567-2.612c0-0.787-0.388-0.931-1.345-1.396
	c-0.849-0.248-0.53,0.25-0.353,0.394c0.177,0.146,0.177,0.252,0.141,0.68c-0.035,0.537-1.203,3.326-1.203,3.326
	c-0.07,0.286-0.319,0.321-0.319,0.321c-0.814-0.035-0.318,0.396-0.318,0.396s0.213,0.071,1.027,0.394
	c0.46,0.321,0.637-0.431,0.177-0.465c0,0,0.248-0.933,0.708-2.256c0.46-0.464,0.495-0.427,0.602,0.18
	c0.071,0.407,0.177,0.814,0.292,1.543c0.055,0.358,0.122,0.798,0.205,1.356c0.353,0.606,0.459,0.463,0.708,0.215
	c0.248-0.215,1.451-1.504,2.407-2.398c0.424-0.283,0.353,0.18,0.353,0.18s-0.035,0.035-0.53,1.86l-0.319,0.714
	c-0.531,0.216-0.212,0.465-0.212,0.465s0.39,0.145,1.309,0.357c0.531,0.109,0.39-0.142,0.071-0.499c0,0,0.053-0.31,0.179-0.75
	C49.948,115.822,50.373,114.454,50.514,113.932z M13.112,43.143c-0.234-0.198-0.226-0.586-0.125-0.979
	c0.083-0.321,0.313-0.643,0.409-0.868c0.083-0.141,0.145-0.203,0.145-0.203s0.103-0.179,0.622-0.012c0,0,0.656,0.357,1.426,0.803
	c1.085,0.63,2.502,1.497,2.502,1.497c0.319,1.097,0.59,0.346,0.59,0.346s0.248-0.645,0.744-1.574
	c0.436-0.596,0.059-0.834-0.366-0.477c-0.377,0.202-0.649,0.047-0.649,0.047s-0.962-0.592-1.909-1.15
	c-0.717-0.421-1.427-0.79-1.701-1.066c-0.448-0.179-0.279-0.477-0.279-0.477s0.023-0.047,0.271-0.512
	c0.213-0.383,0.461-0.513,0.615-0.621c0.118-0.107,0.189-0.071,0.519-0.096c0.318,0,0.496-0.166,0.52-0.273
	c0.023-0.143-0.028-0.156-0.37-0.346c-1.191-0.525-1.344,0.178-1.344,0.178c-0.307,0.241-0.631,0.88-1.071,1.662
	c-0.472,0.843-0.992,1.849-1.395,2.702c-0.496,1.003-0.365,1.145,0.059,1.717C13.029,43.942,13.324,43.501,13.112,43.143z
	 M39.966,108.711c0,0,0,0-0.602-0.429c-0.78-0.538-0.531,0.177-0.531,0.177l0.141,0.467c0,0,0,0-0.85,1.644
	c-0.46,0.752-0.813-0.213-0.813-0.213s0-0.109-0.425-2.004c-0.354-1.467-0.425-1.717-1.168-2.181
	c-0.92-0.502-0.496,0.248-0.496,0.248s0,0-0.071,0.608l-1.958,3.066c-1.063,0-0.52,0.368-0.52,0.368s0,0.069,0.85,0.606
	c0.46,0.323,0.283-0.215,0.176-0.642c0,0,0.567-0.896,1.168-2.041c0.142-0.391,0.602-0.465,0.708,0
	c0.106,0.468,0.53,2.754,0.955,4.293c0.531,1.002,0.885,0.358,1.417-0.356c0,0,0.956-1.86,1.416-2.756c0,0,0.177-0.215,0.424-0.394
	C40.284,108.889,39.966,108.711,39.966,108.711z M16.498,86.929c0-0.216-0.035-0.285,0.283-0.179
	c0.531,0.25,0.849,0.108,1.168-0.037c0.637-1.069,0.212-1.75,0-2.143c0,0-0.389-0.683-0.885-1.752
	c-0.248-0.931-0.531-0.574-0.531-0.36c0,0.215-0.069,0.252-0.353,0.465c-0.673,0.396-3.398,1.467-3.398,1.467h-0.425
	c-0.603-0.463-0.46,0-0.249,0.752c0.212,0.502,0.744,1.537,1.487,2.969c0.602,0.856,1.592,0.713,1.982,0.606
	C16.533,88.252,16.498,87.29,16.498,86.929z M15.224,87.359c-0.744,0.215-1.168,0.25-1.77-0.608c-0.389-0.678-0.424-0.819-0.071-1
	c0,0,0.485-0.211,0.916-0.413c0.238-0.11,0.458-0.267,0.571-0.267c0.318,0,0.602-0.107,0.814,0.68
	C15.967,86.573,15.755,87.109,15.224,87.359z M16.037,84.571l0.851-0.324c0,0,0.53-0.176,0.637,0.537
	c0.105,0.606,0.141,0.86-0.213,1.037c-0.354,0.18-0.92,0.215-1.204-0.25C15.755,85.036,15.79,84.821,16.037,84.571z M79.397,115.292
	c0,0,0.037-0.252-0.211,0.571c-0.638,1.216-1.559,0.716-2.019,0.357c-1.415-1.002-1.133-2.647-0.637-3.541
	c0.531-0.752,1.699-0.179,2.23,0.144c0.459,0.287,0.459-0.181,0.459-0.181l-0.354-1.071c-0.424-0.356-0.743,0.319-0.743,0.319
	s-0.142,0-0.921,0c-0.602-0.069-0.956,0-1.344,0.358c-1.027,0.824-1.169,2.254-0.708,3.614c0.532,1.395,2.124,1.61,2.938,1.431
	c1.345-0.215,1.451-0.965,1.875-1.789C79.716,114.361,79.397,115.292,79.397,115.292z M86.688,113.217
	c-0.424,0-0.495-0.322-0.495-0.322s-0.6-0.874-1.063-1.839c-0.298-0.624-0.455-1.285-0.636-1.775
	c0.177-0.678-0.283-0.465-1.133,0.039c-0.637,0.319-0.354,0.571-0.106,0.606l0.142,0.144c0,0,0.07,0.071,0.46,0.928
	c0.318,0.681,0.106,0.718,0.106,0.718s-0.071,0-1.239,0.5c-0.532,0.321-0.638,0.034-0.638,0.034s-0.282-0.428-0.601-1.252
	c0.248-1.286-0.354-0.606-1.274-0.25c-0.708,0.25-0.355,0.433-0.142,0.468c0.212,0.034,0.354,0.178,0.354,0.178l1.38,3.683
	l-0.036,0.321c-0.39,0.431-0.106,0.644,0.283,0.467c0.248-0.18,0.532-0.252,1.31-0.536c0.459-0.216,0.284-0.608-0.106-0.644
	c-0.283-0.037-0.318-0.252-0.318-0.252s-0.249-0.465-0.497-1.071c-0.142-0.466,0.248-0.609,0.248-0.609s0.284-0.143,1.097-0.573
	c0.638-0.179,0.638-0.069,1.027,0.431c0.212,0.358,0.602,0.645,0.495,1.323c-0.106,0.68,0.425,0.356,0.425,0.356s0,0,0.814-0.465
	C86.972,113.537,86.937,113.326,86.688,113.217z M89.98,106.245c0.531-0.896-0.282-0.468-0.282-0.468s-0.071-0.034-0.745,0.468
	c-0.566,0.354-0.247,0.465,0.213,0.569c0.532,0.181,0.921,1.323,1.629,2.36c0.425,0.608,0.178,1.573-0.071,1.823
	c-0.744,0.611-1.026,0.431-1.806-0.213c-0.955-1.217-1.557-2.754-1.557-2.754c0.39-1.18-0.248-0.678-1.061-0.071
	c-1.169,0.287-0.708,0.644-0.531,0.68c0.177,0.035,0.247,0.107,0.672,0.607c0.318,0.358,0.744,1.467,1.205,2.182
	c0.091,0.101,0.182,0.151,0.272,0.229c0.954,0.813,1.833,0.48,2.771,0.021c1.522-0.965,0.85-2.182,0.531-2.932
	C91.113,108.531,90.371,107.245,89.98,106.245z M94.513,105.456c0,0-0.603,0-1.629,0.071c-0.85,0-0.85-0.393-0.708-0.856
	c0.283-0.823,1.168-0.752,2.125-0.646c0.531,0.035,0.248-0.358-0.107-0.715c-0.46-0.644-0.637-0.215-0.708,0.037
	c0,0-0.071,0.104-0.708,0.319c-0.503,0.031-0.824,0.19-1.072,0.384c-0.625,0.486-0.616,1.314-0.592,1.799
	c0.107,0.384,0.24,0.589,0.397,0.744c0.313,0.304,0.713,0.293,1.16,0.293c0.355,0,1.274-0.144,2.477-0.216
	c0.993,0.431,0.709,0.683,0.213,1.326c-0.814,0.571-1.381,0.534-1.381,0.534s-0.282-0.144-0.602-0.178
	c-0.424-0.356-0.495,0.215-0.495,0.215s0,0,0.531,0.821c0.319,0.394,0.566,0.216,0.814-0.215c0,0,0.107-0.035,1.133-0.571
	c1.026-0.537,1.204-1.394,1.239-1.822C96.6,105.456,95.433,105.312,94.513,105.456z M101.415,102.415
	c-0.532-0.5-0.779-0.856-0.637,0c0,0.468,0.036,0.681,0.036,0.681c-1.027,1-1.275,1.146-1.275,1.146s-0.212,0.321-0.389,0.034
	c-0.078-0.077-0.175-0.146-0.242-0.215c-0.76-0.754-0.856-0.965-0.856-0.965s-0.248-0.323,0.142-0.715s0.425-0.429,0.779-0.392
	c0.283-0.074,0.318-0.146,0-0.469c-0.531-0.498-0.743-0.679-0.814-0.105c-0.106,0.322-0.602,0.646-0.602,0.646
	c-0.177,0.177-0.46,0.07-0.743-0.182c-0.283-0.248-0.567-0.535-0.036-1.179c0.637-0.646,1.026-1.108,1.593-0.858
	c0.459,0.142,0.743,0.177,0.354-0.321c-0.426-0.5-0.532-0.679-0.957-0.468c-0.743,0.646-2.442,2.399-2.442,2.399
	s-0.277,0.169-0.444,0.354c-0.2,0.223-0.234,0.468,0.692,0.468c0,0,2.053,2.073,2.371,2.823c0.212,0.287,0.177,0.539,0.177,0.539
	c0,0.428,0.212,0.571,0.708,0.071c0.956-0.967,2.407-2.291,2.655-2.647C101.768,102.702,101.768,102.702,101.415,102.415z
	 M98.995,93.08c9.417-12.871,9.417-22.743,9.628-26.105c0.637-15.378-6.583-26.107-8.283-28.683
	c-8.867-12.667-20.495-17.227-28.699-18.908c-5.881-1.206-9.978-0.929-9.978-0.929c-6.232,0.132-11.636,1.52-16.177,3.343
	c-3.501,1.404-6.488,3.028-8.947,4.704c-4.818,3.289-7.553,6.532-8.172,7.355c-6.234,7.16-9.168,14.439-10.548,20.249
	c-1.253,5.276-1.274,9.341-1.274,11.011c0.496,17.095,10.266,28.61,11.894,30.47c2.709,2.892,5.432,5.287,8.102,7.211
	c12.125,8.744,23.154,8.504,26.752,8.618c2.507-0.124,4.872-0.343,7.097-0.76C89.523,107.068,98.298,93.979,98.995,93.08z
	 M36.886,102.237c-4.176-3.074-12.743-9.368-17.911-24.819c-1.062-4.221-4.46-12.447,1.628-30.328
	c1.487-3.291,4.779-11.945,15.822-19.813c1.487-0.857,11.575-8.727,26.725-8.226c0,0,21.45-0.465,34.547,16.846
	c1.1,1.24,9.017,9.92,10.137,25.964c0.105,1.519,0.081,3.104,0.057,4.754c-0.072,3.649-0.285,14.094-10.76,27.754
	c-3.257,3.579-10.903,12.912-28.318,15.845C64.07,110.785,51.186,112.465,36.886,102.237z M93.203,88.967
	c-1.133,0.287-0.921,1.252-0.708,1.61c0.212,0.25,0.035,0.394,0.035,0.466c0,0.229-0.259,0.286-0.295,0.821
	c0.036,1.108,0.472,1.252,0.896,1.252c0.424,0,0.495-0.108,0.814-0.5c0.745-1.287-0.036-2.075-0.036-2.075
	C94.228,89.469,93.769,88.754,93.203,88.967z M93.309,89.469c0.212,0,0.707,0.75-0.07,1c0,0-0.426-0.034-0.426-0.392
	C92.813,89.719,93.096,89.469,93.309,89.469z M93.203,92.545c-0.249-0.035-0.567-0.179-0.532-0.716
	c0.036-0.536,0.532-0.715,0.532-0.715s0.601-0.035,0.565,0.606C93.626,92.402,93.45,92.582,93.203,92.545z M99.587,87.88
	c4.908-8.124,6.042-16.475,6.43-20.549c0.045-1.865,0.08-3.629-0.027-5.292c-0.358-5.598-1.56-10.069-2.939-13.587
	c-1.933-4.931-4.215-7.99-5.353-9.662c-13.805-19.026-35.396-18.06-35.396-18.06c-7.246,0.163-13.221,1.819-18.076,4.098
	C34.185,29.54,28.93,36.871,27.117,39.186c-6.142,9.183-7.737,17.518-8.036,23.387c-0.217,4.279,0.199,7.229,0.318,8.194
	c3.045,16.593,10.478,23.103,14.018,26.678c2.383,1.99,4.751,3.721,7.053,5.101c2.647,1.586,5.208,2.738,7.605,3.647
	c2.3,0.874,4.45,1.527,6.381,1.953c5.072,1.118,8.639,0.813,9.473,0.781c19.043-1.504,28.21-12.017,30.547-14.379
	C96.527,92.398,98.207,90.166,99.587,87.88z M96.447,90.983c-0.284,0.287-0.449,0.047-0.401-0.333
	c0.046-0.384,0.235-3.386,0.472-4.482c0.235-1.192-0.237-2.194-0.897-2.671l-0.095-0.238c0,0,1.133-0.764,1.322-0.525
	c0.66,1.096,2.384,4.006,2.384,4.006C98.807,87.741,96.588,90.696,96.447,90.983z M97.414,81.601
	c-1.168,0.752-2.831,1.646-4.919,1.789c-0.39,0.072-0.567,0.213-0.354-0.25c0.496-0.967,0.531-1.36,1.133-1.717
	c0.777-0.683,3.575-1.897,4.069-2.146c0.85-0.397,0.814-0.789,0.177-0.539c-1.097,0.539-1.558,0.681-1.734,0.718
	c-0.955,0.284-1.238,0.319-2.017,0.856l-0.248,0.036c0,0,0.719-1.024,0.035-1.753c-0.212-0.322,0.213-0.357,0.567-0.714
	c0.708-0.465,1.31-1.215,6.408-1.754c0.53-0.071,0.671-0.032,0.99-0.143c0.319-0.107,0.532-0.035,0.354,0.252
	C101.485,77.059,101.025,78.846,97.414,81.601z M84.529,88.824c-0.176-0.282-0.283-0.321,0.071-0.678
	c0.602-0.5,3.045-2.719,3.434-3.039c0.389-0.323,0.283-0.646-0.212-0.396c-0.708,0.679-1.099,0.75-1.487,1.289
	c-1.062,0.787-2.654,1.965-3.08,1.965c0,0-0.318,0.252-0.318-0.248c0.105-1.073,0.176-1.323,0.388-1.645
	c0.213-0.322,0.319-0.574,0.92-0.574c1.062-0.285,3.681-1.037,5.38-3.254c0.496-1,0.884-1.717,0.991-2.004
	c0.106-0.284,0-0.356,0.391-0.536c0.46-0.214,1.062-0.498,1.486-0.606c0.423-0.107,0.991-0.179,0.601,0.893
	c-0.566,1.218-1.735,4.08-2.973,5.688c-1.274,1.752-2.195,3.05-4.248,3.98c-0.956,0.358-1.097,0.455-1.097,0.06
	C84.778,89.326,84.883,88.896,84.529,88.824z M79.291,94.32c-0.943,0.858-1.557,1.051-1.982,1.435
	c-0.375,0.378-0.684,0.691-0.989,0.961c-0.272,0.236-0.542,0.419-0.852,0.803c-0.661,0.81-1.793,1.717-1.793,1.717
	s-0.896,0.713-0.614-0.479c0.567-1.766,0.661-2.384,1.275-3.147c0.99-1.146,1.793-2.622,5.097-4.386
	c2.878-1.527,3.87-2.004,3.87-2.004s1.038-0.333,0.708,0.57c-0.33,0.906-0.85,3.197-2.69,5.819
	c-0.777,1.037-1.362,1.809-1.845,2.315c-0.807,0.85-1.328,1.082-1.978,1.498c-1.368,0.574-2.218,0.669-2.596,0.192
	c-0.141-0.429,0.567-1.192,1.417-2.146c1.415-1.238,2.783-2.434,3.208-2.909C79.952,94.083,79.905,93.892,79.291,94.32z
	 M70.042,97.993c-0.993,1.335-2.573,3.101-2.903,3.195c-0.331,0.332-0.59,0.597-0.59,0.597s-0.709,0.355-0.615-0.502
	c0.615-1.62,0.897-3.195,1.841-4.148c0.991-1.097,2.549-2.051,3.917-3.768c0,0,0.613-0.523,0.896-0.907
	c0.283-0.38,0.755-0.188,0.755,0.384c0.048,1.384,0.189,1.813-0.047,2.955c-0.472,1.907-0.283,3.458-3.02,5.557
	c-2.03,1.287-2.266,1.312-2.69,1.312c-0.424,0-0.613,0.047,0.188-0.858c1.322-1.766,2.077-2.528,2.218-2.908
	c0.235-0.718,0.472-1.002,0.472-1.002S70.749,97.229,70.042,97.993z M64.07,94.906c-0.089,1.418-0.167,3.645-0.263,5.184
	c-0.053,0.866-0.161,1.516-0.161,1.685c-0.035,0.428-0.177,0.321-0.354,0.391c-0.177,0.072-1.594,0.072-2.302-0.034
	c-0.636-0.07-0.636-0.106-0.636-0.5c-0.249-1.218-0.59-4.223-0.661-5.653c-0.178-2.252-0.531-4.362-0.426-5.256
	c-0.247-2.147-0.53-6.15-0.53-6.581c0-0.428,0.2-0.453,0.483-0.417c0.284,0.033,0.59,0.105,0.59,0.431
	c0,0.535,0.401,8.5,0.471,9.142c0.072,1.503,0.319,4.723,0.319,5.15c0,0.431,0.249,0.931,0.284,0.214
	c-0.035-1.431-0.46-14.161-0.46-14.447c0-0.285,0-0.5,0.283-0.5c0.283,0,0.638,0.071,0.638,0.5c0,1.108,0.353,15.308,0.353,15.7
	c0,1,0.024,1,0.024,1s0.189,0.931,0.331,0c0.106-1.643-0.106-8.044-0.106-8.044s-0.071-8.335,0-8.693s0.142-0.5,0.531-0.429
	c0.39,0.07,0.638,0.037,0.603,0.572c-0.035,0.536-0.249,13.629-0.249,13.949c-0.035,0.752,0.249,1.252,0.354,0.178
	c0.068-0.658,0.115-3.227,0.193-5.697c0.083-2.624,0.173-5.14,0.173-5.14l0.094-3.323c0,0-0.035-0.502,0.248-0.502
	c0.283,0,0.673-0.108,0.673,0.392c0,0.315-0.013,1.532-0.091,3.042C64.319,90.177,64.047,94.266,64.07,94.906z M50.655,84.473
	c0.46-0.106,2.927-0.513,5.333-0.727c0.355,0.037,0.391-0.034,0.391,0.214c-0.036,1.11,0.047,1.563-0.378,1.563
	c-0.78,0.285-5.227,1.037-5.581,1.25c0,0-0.531,0.051-0.39-0.523c0.212-1.108,0.283-1.467,0.283-1.467S50.267,84.545,50.655,84.473z
	 M50.998,83.563c-1.707,0.238-3.405,0.4-4.98,0.794c-1.06,0.183-2.003,0.407-2.856,0.561c-3.136,0.569-5.051,0.796-7.055,0.01
	c-1.316-0.725-2.781-1.62-3.075-4.043c-0.053-0.441-0.022-0.936,0.007-1.488c0.189-0.953,1.747-4.101,2.407-5.866
	c0.243-1.087,0.561-2.518,0.992-3.984c0.493-1.685,1.098-3.416,1.274-4.741c0.33-2.622,0.897-5.103,0.944-7.82
	c0.188-1.908,0.188-4.578,3.541-4.77c0.487,0.038,1.295,0.113,2.017,0.563c1.167,0.728,2.374,2.56,1.805,3.634
	c0,0-0.849,3.529-1.273,4.864c-0.472,2.048-1.369,5.865-1.369,9.537c-0.237,2.147-0.377,4.864,0.095,8.058
	c0.046,0.813,0.094,1.766-0.284,2.053c-0.896,1-1.227,1.81-4.012,1.858c-1.321-0.049-3.351-0.429-3.729-3.242
	c0.189-0.715,0.661-1.573,0.992-1.907c0.755-0.335,1.651-0.479,2.455-0.479c0.802,0,2.549,0.287,2.501,1.097
	c-0.047,0.813-0.047,1.718-0.567,1.433c-0.991-0.717-2.549-1.48-4.389-0.574c-0.377,0.287-0.331,1.146,0.094,1.431
	c0.287,0.201,0.975,0.73,2.074,0.762c0.278,0.01,0.592-0.021,0.93-0.076c0.522-0.085,1.104-0.267,1.716-0.732
	c0.566-0.43,0.708-0.477,0.944-0.284c0.235,0.188,0.754,0.475,0.613-0.576c-0.03-1.052-0.28-2.124-1.49-2.786
	c-0.65-0.355-1.579-0.61-2.9-0.646c-1.84,0-2.784,0.333-4.058,2.002c-0.425,0.86-0.85,1.526-0.708,2.384
	c0.142,0.86,0.471,1.575,0.943,0.622c0,0,0.472-1.192,0.566-0.24c0.236,0.955,0.803,3.148,3.965,3.052c1.273-0.093,2.926,0,4.106-2
	c0.66-1.097,0.944-1.48,0.707-3.29c-0.235-2.004-0.329-2.958,0.332-7.964c0.188-3.435,0.661-7.059,0.944-8.393
	c0.377-1.957,0.944-4.627,0.944-4.627s0.142-0.571,0.566-0.524c0.424,0.048,4.53-0.285,6.749-0.858
	c2.785-0.525,6.419-1.335,9.439-1.335c2.359,0.049,4.104-0.477,13.073,2.385c1.84,0.429,2.548,0.333,2.595,0.906
	c0.141,1.622,1.085,7.917,0.85,14.447c-0.236,3.816-0.378,4.437-0.52,5.392c-0.142,1.19-0.802,2.811,1.558,4.384
	c1.228,0.622,1.415,0.717,1.038,0.955c-0.991,0.764-1.18,1.287-2.312,1.24c-1.133-0.097-3.54-0.573-4.72-0.666
	c-1.982-0.384-7.314-1.504-11.751-1.456C60.154,82.648,55.539,82.927,50.998,83.563z M44.001,85.892
	c-0.355,1.502-0.425,1.717-0.425,1.717s-0.212,0.644-0.496,0.215c-0.424-1.467-0.566-1.717-0.566-1.932l1.274-0.248
	C43.789,85.644,44.037,85.607,44.001,85.892z M42.302,87.931c-0.036,0.106-0.071,0.106-0.283,0.106
	c-0.212,0-1.592,0.108-1.592,0.108c-0.496-0.931-0.92-1.789-0.496-1.681c0,0,1.062-0.215,1.486-0.321
	c0.425-0.108,0.495,0.106,0.637,0.394S42.302,87.502,42.302,87.931z M39.47,88.146c-0.424,0.144-1.699,0.071-1.912,0.071
	c-0.212,0-0.283-0.144-0.39-0.394c-0.459-0.895-1.167-1.932-0.105-1.573c0,0,0.778,0.25,1.592,0.25c0.284,0,0.319-0.106,0.46,0.213
	C39.257,87.038,39.717,88,39.47,88.146z M32.71,71.408c-0.319,1.183-0.731,3.256-0.768,4.471c-0.035,1.754-0.153,2.11-0.437,2.076
	c-0.283-0.037-0.744-1.467-0.955-2.11c-0.178-0.966-0.885-2.683,0.849-6.33c0.108-0.211,0.161-0.402,0.256-0.583
	c0.813-1.511,1.299-1.955,2.788-3.459c0,0,0.389-0.25,0.389,0.215c-0.071,1.787-0.166,7.26-0.201,8.012
	c-0.071,0.785-0.201,0.821-0.271,1.069c-0.354,1.039-1.132,2.541-1.38,3.006c-0.248,0.822-0.484,0.74-0.555,0.488
	c-0.177-0.821-0.011-3.455,0.166-4.636c0.353-2.182,0.329-1.896,0.329-1.896S33.134,70.766,32.71,71.408z M31.223,59.821
	c-0.142,0.822-0.225,1.967-0.543,2.682c-0.425,1.074-0.354,1.432-1.204,2.862c0,0-0.496,0.751-0.849,0.107
	c-0.319-0.643-0.319-0.822-0.177-3.219c0.248-1.718,0.413-2.754,1.227-4.65c0.744-1.574,1.11-2.468,1.287-3.255
	c0.282-0.894,0.472-1.394,0.86-0.429c0.143,0.965,0.295,1.931,0.472,2.432c0.389,1.646,1.098,3.935,0.425,6.008
	c-0.354,1.682-0.791,3.052-1.995,4.126c-0.46,0.322-0.578,0.404-0.719-0.168c0.248-0.75,1.215-3.779,1.287-4.78
	C31.33,60.072,31.364,59.284,31.223,59.821z M26.232,67.009c0.245,0.473,0.749,1.374,1.179,2.252
	c0.318,0.645,0.586,1.278,0.827,1.717c0.637,1.075,0.519,1.11,0.519,1.11s0.059,0.441-0.295,0.333
	c-0.354-0.106-0.838-0.047-1.687-1.12c-0.885-1.217-1.133-1.43-1.628-2.323c-0.849-1.646-1.817-3.471-2.773-6.188
	c-0.389-1.395-0.566-1.896,1.239-0.752c1.664,0.847,4.589,2.826,5.829,6.582c0.424,1.18,0.46,1.895,0.46,2.502
	c-0.106,1.182-0.083,1.362-0.437,0.893c-0.814-1.393-1.922-3.718-2.737-4.683C26.232,66.403,26.02,66.58,26.232,67.009z
	 M25.571,57.64c0.213,1.859,0.52,3.97,0.732,4.755c0,0,0,0.538-0.389,0.215c-0.78-0.823-1.735-2.181-2.159-5.758
	c-0.249-2.075-0.249-3.147,1.131-6.794c0.318-1.039,0.461-1.359,0.567-1.717c0.106-0.358,0.566-0.608,0.671,0.286
	c0.107,0.93,0.46,1.754,0.957,2.896c0.442,1.373,1.131,3.018,1.359,4.834c0.045,0.361,0.051,0.729,0.055,1.104
	c-0.049,0.903-0.081,1.606-0.137,2.166c-0.102,1.014-0.231,1.555-0.323,1.946c-0.248,0.786-0.389,1.037-0.672,0.751
	c-0.566-1.322-0.991-2.682-1.133-3.826c-0.283-2.216-0.39-2.504-0.46-3.183c-0.071-0.68-0.177-0.966-0.248-0.537
	c-0.023,0.141-0.068,0.256-0.056,0.609C25.491,56.108,25.643,57.255,25.571,57.64z M34.657,64.829c0,0-0.532,0.142-0.318-0.179
	c0.212-0.824,0.672-1.825,1.203-2.111c0.814-1.037,1.723-2.288,2.006-2.467c0.283-0.18,0.259,0.106,0.259,0.537
	c-0.176,1.93-0.637,5.4-1.734,8.691c-0.531,1.679-0.636,1.931-0.779,1.431c-0.211-1.539-0.035-3.721,0.248-5.329
	C35.577,64.829,35.4,64.506,34.657,64.829z M57.44,32.091c0.282,0.478,0.378,0.62-0.237,0.62c-0.613,0-1.321-0.523-1.51-1.763
	c-0.188-1.24,0.331-1.909,0.662-2.624c0,0,0.331-0.237,0.331,0.096C56.685,28.754,56.59,30.566,57.44,32.091z M65.085,27.991
	c0-0.429,0.331-1.288,0.331-1.288s0.283-0.321,0.33,0.013c0.284,1.049,0.331,1.323,0.661,1.895c0.331,0.667,0.472,1.479,0.143,2.29
	c-0.378,0.857-0.956,1.585-1.617,1.204c-0.331-0.287-0.507-0.44-0.083-1.441C65.133,29.326,65.085,28.42,65.085,27.991z
	 M67.163,30.9c0.472-1.002,0.613-1.525,0.613-1.764c0,0,0.33-0.62,0.519,0.38c0.189,1.146,0.142,2.099-0.189,2.528
	c-0.614,0.573-1.227,1.003-1.556,0.477C66.313,32.044,66.737,31.664,67.163,30.9z M63.811,28.563c0,0-0.661-1.191-1.085-1.667
	c-0.566-0.574-0.566-0.716-0.802-1.097c-0.236-0.383-0.284-0.287-0.284,0.238c0.02,0.291,0.047,0.583,0,0.86
	c-0.067,0.398-0.238,0.764-0.377,1.045c-0.235,0.478-0.779,1.766-0.26,3.481c0.083,0.394-0.259,0.716-0.636,0.287
	c-0.52-0.811-1.133-1.621-0.236-4.053c0.33-0.955,0.802-2.767-0.566-4.292c0,0-0.093-0.076-0.117-0.155
	c-0.036-0.118,0.022-0.245,0.306-0.131c0.169,0.037,0.571,0.184,1.076,0.469c1.462,0.826,3.785,2.627,3.785,4.824
	C64.661,28.85,64.519,29.612,63.811,28.563z M64,31.33c-0.283,0.619-1.392,1.215-1.982,0.761c-0.755-0.905-1.038-1.668-0.661-3.432
	c0.377-1.001,0.566-1.526,0.566-1.859c0,0,0.189-0.478,0.378,0C62.772,27.609,64.662,29.708,64,31.33z M59.658,27.467
	c-0.378,1.096-0.755,1.859-0.33,3.957c-0.048,0.954-0.236,1.097-1.227,0.716c-0.397-0.443-0.492-0.894-0.523-1.342
	c-0.044-0.615,0.113-1.226,0.523-1.805c0.472-0.859,0.85-2.337,0.235-3.386c0,0,0.095-0.524,0.473-0.095
	C59.28,25.941,59.941,26.846,59.658,27.467z M61.923,33.285c3.611-0.12,6.277,0.06,7.315,0.203c1.039,0.144,1.204,0.13,1.204,0.606
	c0,0.477,0.07,0.739-0.685,0.692c-1.025-0.035-8.626-0.034-12.873-0.04c-1.611-0.002-2.738-0.021-2.842-0.008
	c-0.426,0.047-0.779-0.12-0.826-0.501c0,0-0.071-0.597,0.684-0.692C54.843,33.356,58.525,33.188,61.923,33.285z M55.269,35.525
	c0,0,4.401-0.047,8.129-0.047c2.547,0,4.779,0.047,5.086,0.047c0.283,0.049,0.33,0.691-0.378,0.691c-1.038,0-1.486,0.024-1.581,0.31
	c-0.235,0.669-0.814,1.789,0.555,2.027c0.424,0.144,0.625,0.547,0.06,0.739c-0.911,0-4.579,0.039-7.235,0.068
	c-1.613,0.017-2.88,0.015-2.984,0.039c-0.4,0.095-0.66-0.584-0.094-0.774c0.614-0.287,1.203-0.191,0.731-1.336
	c-0.377-1.288-0.448-1.144-1.675-1.144C55.221,36.049,55.127,36.145,55.269,35.525z M67.54,37.385
	c-0.048,0.333-0.094,0.667-0.566,0.715c0,0-0.283,0-0.283-0.524c0-0.525,0.283-0.429,0.614-0.574
	C67.568,36.89,67.587,37.051,67.54,37.385z M56.354,37.814c0,0-0.189-0.812,0.283-0.812s0.614,0.334,0.614,0.667
	C57.251,38.005,56.778,38.625,56.354,37.814z M56.732,39.687c1.603,0,9.155-0.013,9.863-0.013c0.3,0,0.582-0.006,0.751,0.109
	c0.186,0.128,0.235,0.39,0.022,0.623c-0.052,0.058-0.121,0.06-0.206,0.126c-0.85,0.334-3.399,0.25-5.003,0.298
	c-1.982,0.047-4.72-0.036-5.427-0.084C56.732,40.747,55.693,40.4,56.732,39.687z M57.676,41.308
	c1.275,0.096,8.165,0.036,8.542,0.036c0.377,0,0.826,0.394,0.094,0.81c-0.4,0.064-1.806,0.161-3.387,0.191
	c-1.956,0.04-4.236,0.006-5.285-0.048C57.641,42.296,56.496,41.308,57.676,41.308z M58.195,43.154c0.283,0,6.277-0.142,7.032-0.142
	c0.755,0,1.038,0,1.038,0.428c0,0.43-0.282,10.349-0.282,10.635c0,0.286-0.52,0.857-0.708,0.189
	c-0.094-1.381,0.235-8.201,0.235-8.963c0-0.764,0.048-1.384-0.802-1.431c-0.566,0-0.896,0.19-0.849,0.905
	c0.094,1.146-0.047,4.102,0,5.437c0.047,2.146-0.112,3.672-0.095,3.958c0.024,0.381-0.506,0.846-0.896,0
	c0.142-2.719,0.188-8.869,0.188-9.395c0-0.524-0.341-0.775-0.943-0.928c-0.473,0.046-0.945,0.309-0.945,0.787
	c0.095,1.334,0.307,9.465,0.307,9.704c0,0.238-0.447,0.501-0.825,0.071c0-2.765-0.142-8.728-0.189-9.394
	c-0.047-0.667-0.235-0.979-0.991-0.979c-0.507,0.036-0.731,0.025-0.731,0.739c0,0.667,0.171,3.475,0.284,5.869
	c0.082,1.725,0.128,3.234,0.128,3.573c0.236,0.81-0.59,0.906-0.767,0.333l-0.519-11.063C57.865,43.488,57.912,43.154,58.195,43.154z
	 M64.472,44.92c0,0,0.708,0.047,0.708,0.619c-0.095,3.434-0.236,8.059-0.236,8.584c0,0.524-0.567,0.524-0.802,0.19
	c-0.094-2.479,0.141-9.011,0.141-9.011S64.236,44.92,64.472,44.92z M62.772,45.825c-0.141,2.194-0.235,7.678-0.235,8.155
	c0,0.478-0.201,0.87-0.768,0.394c-0.039-1.601-0.111-6.871-0.125-8.523c-0.003-0.317,0.019-0.501,0.019-0.501
	s0.071-0.478,0.402-0.478C62.065,44.872,62.82,44.682,62.772,45.825z M60.366,54.409c0,0.286-0.472,0.476-0.802,0.19
	c-0.142-2.289-0.448-9.346-0.448-9.346s0.07-0.286,0.4-0.333c0.331-0.048,0.425,0.285,0.472,0.715
	C60.035,46.064,60.366,54.123,60.366,54.409z M89.391,78.394c0.472,1.146,0.425,2.624-0.708,3.816
	c-0.849,1.154-2.547,2.288-6.042,2.479c-0.093-1.192-0.045-1.289-0.045-1.289c1.462-0.047,4.766,0.24,5.332-3.146
	c0.048-0.622,0.142-0.812,0.708-0.286c0.235,0.191,0.66,0.286,0.424-0.859c-0.33-1.286-1.321-3.48-4.484-3.385
	c-1.084,0-2.855,0.048-4.082,1.813c-0.519,0.713-0.755,1.669-0.708,2.431c0.142,0.479,0.307,1.097,1.251-0.142
	c0.189-0.431,0.448-0.098,0.448,0.189s-0.024,1.502,0.968,0.5c0.943,0,2.17,0.285,3.115,0.049c0.944-0.238,1.392-0.882,1.297-1.456
	c-0.094-0.571-0.117-0.977-1.627-0.977c-0.992,0.19-1.369,0.236-1.841,0.809c-0.66,0.717-1.557,1.646-1.557,1.122
	c-0.141-1.905-0.188-2.002,0.377-2.431c0.567-0.43,1.039-0.788,2.549-0.932c1.511-0.142,2.29-0.118,2.667,1.742
	c0.188,0.856,0.448,1.766-0.967,2.717c-1.133,1.073-2.596,0.979-3.305,0.86c-1.416,0.047-4.012,0.093-3.964-2.388
	c0.047-1.475,0.708-3.05,0.755-4.195c0.188-1.858,0.377-7.389,0.188-9.201c-0.377-4.054-1.039-8.394-1.604-9.873
	c0,0-0.094-1.145,0.85-2.384c0.802-0.857,1.51-1.479,2.973-1.479s3.398,0.81,3.398,1.957c0,1.524,0.094,7.676,1.228,16.068
	C87.551,73.386,87.88,75.008,89.391,78.394z M87.751,67.939c0.46,0.824,0.672,0.967,0.602,1.431
	c-0.106,0.895-0.177,1.504-0.389,1.504c0,0-0.425-1.359-0.46-1.933C87.433,67.939,87.398,67.332,87.751,67.939z M89.521,65.115
	c0.814-0.145,0.92,0.213,1.522,1.216c1.31,2.716,1.805,3.861,2.018,5.722c0.317,4.004-1.098,5.901-1.628,6.723
	c-0.39,0.463-0.779,0.144-0.779,0.144s-0.177-0.396-0.283-0.965c-0.035-0.287-0.071-0.537,0.212-1.039
	c0.249-0.248,0.178-0.748,0.213-1.858c0.354-0.537,0.213-2.789,0.178-3.969c0-1.039-0.249,0-0.249,0
	c-0.177,2.932-0.424,3.538-0.744,5.079c-0.07,0.392-0.247,0.392-0.495,0c-0.141-0.717-0.849-1.827-0.992-2.469
	c-0.141-0.287-0.141-0.358-0.106-1.324c0.106-1.753,0.708-4.398,0.921-5.4C89.309,66.152,89.274,65.257,89.521,65.115z
	 M98.688,70.584c-0.318,0.321-1.416,1.358-1.982,1.684c-0.708,0.464-1.946,1.287-2.691,2.072c0,0-0.425,0.215-0.425-0.214
	c0.036-0.75-0.141-1.573,0.674-2.862c0.813-1,1.663-1.895,3.893-3.036c1.982-1.254,3.222-1.934,3.682-2.398
	c0.461-0.465,0.743-0.752,0.92-0.25c0.176,0.5,0.212,0.68,0.071,1.357c-0.283,1.075-0.886,4.471-4.177,7.831
	c-1.062,0.896-2.3,1.576-4.388,2.147c-0.674,0-1.062-0.037-0.532-0.93c0.78-1.035,1.275-1.824,2.725-2.609
	c0.956-0.682,2.054-1.969,2.302-2.503C99.185,70.443,98.9,70.122,98.688,70.584z M101.944,63.254
	c-0.565,1.396-1.451,2.933-2.689,3.827c-1.132,0.68-1.345,0.931-1.735,0.607c-0.389-0.321-0.012-0.571,0.272-0.965
	c0.46-0.68,1.734-2.182,2.371-4.078c0.424-1.108,0.719-1.394,0.153-0.965c-0.459,0.537-0.744,1.108-1.062,1.538
	c-0.425,0.752-1.38,2.682-2.088,3.147c0,0-0.142,0.538-0.39-0.034c-0.106-0.752-0.248-1.897,0.036-3.113
	c0.283-0.895,0.743-1.859,2.229-3.219c1.558-1.466,2.867-2.718,3.186-3.111c0.319-0.394,0.708-0.751,0.708,0.036
	C102.936,58.033,103.078,60.536,101.944,63.254z M98.938,58.855c-0.39,0.715-0.922,1.431-1.347,1.288
	c-0.424-0.143-0.283-0.787-0.248-1.322c0.177-0.86,0.603-1.396,0.532-2.326c-0.071-1.931-0.177-2.826-0.284-3.291
	c-0.141-0.572-0.318-0.393-0.318-0.107c0.035,1.001-0.035,3.361-0.283,4.648c-0.39,1.753-0.425,1.932-0.603,2.075
	c-0.177,0.143-0.354,0.215-0.602-0.179c-0.459-1.037-0.885-1.932-0.638-4.184c0.249-1.252,0.178-2.718,0.673-3.791
	c0.424-1.467,0.992-2.648,2.018-4.256c0,0,0.284-0.537,0.637,0.106c0.249,0.501,0.177,0.752,0.213,1.039
	c0.036,0.286,0.212,1.965,0.566,3.361C99.609,53.777,99.928,56.172,98.938,58.855z M96.163,63.23c0,3.863-0.188,4.197-0.565,4.96
	c-0.567,1.142-0.92,1.858-1.298,1.431c-0.236-0.907-0.119-1.336-0.072-2.052c0.142-1.525-0.105-2.766-0.2-3.672
	c-0.283-2.05-0.342-2.241-0.342-2.241s-0.165-0.81-0.213,0.144c0.142,1.813,0.389,5.055,0.295,5.914
	c-0.095,0.667-0.413,1.191-0.413,1.191s-0.236,0.667-0.661,0c-0.896-1.717-1.582-2.766-1.582-4.006c0-2.003,0.755-7.105,0.803-7.868
	c0.047-1.24,0.166-1.359,0.401-1.55c0.236-0.19,0.731,0.071,1.156,0.787C94.275,57.555,96.116,59.987,96.163,63.23z M78.772,88.958
	c-0.518,0.858-2.005,3.553-2.005,3.553s-0.166,0.189-0.778,0.62c-0.897,0.713-1.039,0.333-0.851-0.477
	c0-0.477,0.331-1.051,0.614-2.244c1.462-2.764,2.596-3.671,3.634-4.624c0.991-0.525,1.18-0.858,2.123-1.622
	c0.519-0.523,0.519-0.335,0.566,0.382c0.141,1.812-0.52,3.339-0.992,4.91c-0.188,0.384-0.896,1.004-2.265,1.671
	c-0.92,0.764-0.495-0.24-0.495-0.24s0.495-1.047,1.062-2.287C79.574,87.693,79.434,87.908,78.772,88.958z M72.495,86.5
	c-1.769-0.333-4.766-1.097-5.286-1.097c0,0-0.377-0.19-0.472-0.715c-0.095-0.525-0.331-1.002,0.236-1.002
	c0.566,0,2.973,0.333,4.956,0.858c0.565,0.191,0.519,0.144,0.613,0.479C72.637,85.357,72.967,86.549,72.495,86.5z M64.566,92.08
	c0.048-0.522,0.188-4.815,0.283-5.672c0.094-0.527,0.236-0.527,0.802-0.527s5.333,0.477,6.324,1.192
	c2.312,0.717,3.445,1.097,3.681,1.145c0.236,0.049,0.755,0,0.424,0.572c-0.424,1.097-1.581,3.434-1.722,4.484
	c-0.188,1-0.26,1.286-0.59,0.426c-0.141-2.097-0.047-2.955-0.802-2.191c-1.038,0.905-1.935,1.955-1.935,1.955
	s-0.425,0.236-0.803,0.047c0,0-4.389-0.811-5.238-0.856C64.661,92.51,64.519,92.603,64.566,92.08z M69.782,94.632
	c-0.377,0.43-0.733,0.785-1.062,0.977c-0.33,0.189-0.472,0-0.472-0.238s-0.142-1.097-0.095-1.431l1.369,0.334
	C69.522,94.274,70.064,94.297,69.782,94.632z M91.656,85.547c0.425,0,0.756,0.189,1.132,0.097c0.189,0.189,0.237,0.189,0.237,0.429
	c0,0.238,0.094,1-0.048,1.191c-0.378,0.333-1.038,0.667-1.038,0.667s-0.378,0.143-0.378-0.19c-0.236-1.573-0.331-1.81-0.331-1.81
	S91.231,85.547,91.656,85.547z M92.789,84.88c0,0-0.755,0.095-0.283-0.523c0.472-0.337,0.708-0.479,1.322-0.573
	c0.614-0.097,1.32-0.097,1.369,0.523c0.047,0.62,0.236,1.146-0.141,1.526c-1.086,0.905-1.322,1.192-1.322,0.574
	c-0.142-1.337,0-1.671-0.472-1.576L92.789,84.88z M104.776,72.014c-0.318,1.541-0.884,4.545-1.77,6.797
	c-0.354,0.788-0.212,0.788-0.672,0.396c-0.778-0.896-0.992-0.933-0.673-1.252c0.354-0.789,0.743-1.61,0.813-1.897
	c0.072-0.285-0.036-0.606-0.318-0.535c-0.708,0.106-1.239,0.5-2.655,0.322c-0.318-0.394-0.565-0.358-0.283-0.752
	c0.389-0.5,2.337-2.933,3.256-5.506c0.177-0.254,0.248-0.217,0.46,0.035c0.213,0.25,1.806,1.895,1.806,1.895
	S104.918,71.66,104.776,72.014z M103.739,53.681c0.388,0.322,0.424,0.537,0.565,0.895c0.142,0.751,0.967,4.672,1.002,7.891
	c0.036,0.501,0.036,0.43-0.247,0.323c-1.132-0.858-1.912-1.538-1.912-1.538c0.284-2.897,0.248-4.041,0.248-4.471
	c0-0.429-0.213-1.216-0.921-0.679c-0.884,0.93-2.336,2.36-2.336,2.36s-0.46,0.108-0.389-0.323c0.185-1.302,0.53-3.652,0.05-5.723
	c-0.074-0.317-0.144-0.629-0.263-0.929c0,0,0-0.464,0.32-0.178C100.246,51.596,103.35,53.36,103.739,53.681z M24.45,45.443
	c0.851-1.858,1.557-3.051,1.557-3.051s0.331-0.478,0.662-0.572c0.15-0.044,3.514-1.507,7.119-3.004
	c4.271-1.774,8.879-3.624,8.879-3.624l10.101-3.861c0,0,1.557-0.62,0.141-0.382c-2.029,0.572-17.887,5.053-18.642,5.101
	c-2.124,0.526-3.303,1.098-3.823,1.049c-0.519-0.047-0.283-0.19-0.047-0.619c0.567-0.716,3.303-3.481,3.303-3.481
	s0.331-0.333,0.567-0.333c1.179-0.191,18.405-3.433,19.16-3.433c0.804-0.049,0.708-0.264-0.141-0.264s-13.734,0.025-13.734,0.025
	s-1.085-0.048,0.284-0.763c1.793-1.001,4.342-2.337,4.342-2.337c3.397,0.429,9.203,1.146,9.864,1.289
	c0.661,0.141,0.896,0.141,0.047-0.286c-1.557-0.477-6.324-2.099-6.324-2.099s-0.425-0.286,0.189-0.477
	c1.18-0.477,2.407-0.907,2.407-0.907s0.331-0.189,1.18,0.096c0.85,0.286,3.635,1.478,3.635,1.478s0.825,0.525,0.448-0.047
	c0,0-1.959-1.574-2.242-1.574c-0.331-0.237-0.331-0.668,0.142-0.619c0.613-0.143,1.273-0.335,1.273-0.335s0.567-0.141,1.134,0.383
	c0.565,0.524,1.84,2.098,0.943,0.286c-0.331-0.857-0.566-1.048,0.236-1.048c1.133-0.095,4.436-0.383,4.436-0.383
	s0.756-0.047,0.803,0.288c0.047,0.334,0.142,0.667,0.424-0.096c0.189-0.143,0.189-0.048,0.52-0.048c0.33,0,1.18,0.048,1.18,0.048
	s0.472,0.096,0.425,0.524c-0.236,0.62-0.283,0.906,0.283,0.382c0.66-0.669,0.754-0.81,1.274-0.81s2.03,0.237,2.03,0.237
	s0.661,0.048,0.236,0.287c-0.802,0.571-1.617,1.097-1.617,1.097s-0.979,0.762,0.484,0.094c1.699-0.667,2.642-1.144,2.642-1.144
	s0.143,0,0.567,0c0.661,0.096,1.462,0.286,1.462,0.286s0.661,0.144,0.189,0.381c-0.944,0.477-2.219,1.192-3.776,1.765
	c-0.802,0.239-1.085,0.763,0.377,0.239c1.511-0.429,4.201-1.288,4.957-1.574c0.614-0.144,0.708-0.047,1.274,0.046
	c0.567,0.096,1.417,0.287,1.84,0.574c0.425,0.286,0.52,0.333,0,0.428c-0.36,0.067-3.159,0.779-4.96,1.229
	c-0.791,0.197-1.389,0.287-1.504,0.343c-1.181,0.144-1.7,0.574,0.566,0.193c2.548-0.334,8.967-0.764,8.967-0.764
	s0.613-0.096,0.991,0.19c0.614,0.287,2.69,1.431,2.69,1.431s0.377,0.333-0.188,0.333c-1.369,0-12.177,0.143-12.177,0.143
	s-1.604,0.144,0.472,0.286c2.69,0.238,14.867,1.478,14.867,1.478s0.755,0.096,1.038,0.334c0.283,0.239,1.7,1.382,1.7,1.382
	s0.519,0.382-0.095,0.382c-2.406-0.191-16.518-2.003-16.518-2.003s-3.163-0.476-0.378,0.191c2.312,0.489,11.973,2.641,16.995,3.798
	c1.844,0.426,3.063,0.78,3.063,0.78s0.331-0.047,0.661,0.333c0.33,0.381,2.029,2.193,2.029,2.193s0.401,0.393-0.118,0.393
	c-2.926-0.619-22.441-5.637-22.441-5.637s-2.077-0.431-0.424,0.189c1.651,0.62,25.438,8.966,25.438,8.966s0.565-0.049,0.849,0.476
	c0.189,0.344,0.653,1.078,1.057,1.833c0.604,1.132,1.161,2.314,1.161,2.314s0.378,0.478-0.094,0.43
	c-0.29-0.118-1.271-0.423-2.698-1.025c-6.703-2.829-23.2-9.926-23.59-9.847c-1.227-0.62-1.935-0.907-0.896-0.097
	c1.368,0.858,22.842,13.997,22.842,13.997s0.095,0.142,0,0.381c-0.424,0.668-1.51,3.743-1.51,4.793
	c-0.047,0.286,0.048,0.667-0.425,0.286c-1.699-1.384-19.539-15.498-20.246-16.118c-0.803-0.525-1.417-0.858-0.897-0.047
	c0.661,0.858,17.887,19.169,17.887,19.169s0.284,0.333,0.284,0.907c-0.047,0.858-0.802,4.578-0.708,5.722c0,0.81,0,0.81-0.425,0.428
	c-2.029-2.479-3.493-4.53-3.775-4.816c-0.283-0.334-0.283-0.857-0.283-1.669c0-1.525,0-3.195-0.047-3.624
	c-0.047-0.429-0.461-2.479-4.908-2.336c0,0-0.658-0.708-1.677-1.974c-1.962-2.433-5.264-6.67-7.81-10.09
	c-0.66-0.907-0.992-0.717-0.567,0.046c0.851,1.24,7.788,12.877,7.788,12.877s0.284,0.475,0.047,0.57
	c-0.33,0.431-1.415,1.621-1.038,3.148c0,0.573,0.047,0.906-0.377,0.143c-0.594-1.231-2.532-4.862-4.14-7.861
	c-0.945-1.763-1.73-3.305-2.184-4.013c-1.463-3.004-1.368-2.861-1.368-2.861c-0.332-0.667-0.662-0.906-0.426,0
	c0.519,1.574,5.333,13.875,5.333,13.875s0.283,0.717-0.142,0.717c-2.218-0.621-2.926-0.858-2.926-0.858s-0.52-0.096-0.567-0.62
	c-0.802-3.196-2.643-9.728-2.737-10.205c-0.093-0.477-0.472-0.764-0.424-0.096s1.322,9.062,1.322,9.062s0.425,1.287-0.377,1.239
	c-1.51-0.429-2.407-0.525-2.407-0.525s-0.378,0.047-0.378-0.524c0-2.766,0.33-11.206,0.33-11.206c0.566-0.429,0.52-0.907,0.52-1.288
	s0.094-0.667,0.377-0.667s0.613-0.764,0.142-1.432c0.236-0.714,0.236-1-0.046-1.191c0.235-0.907,0.471-1.479,0.849-1.575
	c0.283-0.094,0.472-0.047,0.613-0.667c0.141-0.619,0.237-0.81,0.708-0.81c0.473,0,1.05,0.191,1.05-0.857
	c0-0.525,0.13-1.18-1.616-1.276c-0.802-0.096-0.944-0.155-0.566-1.014c0.169-1.192,0.42-2.415-0.754-3.859
	c-0.141-0.172-0.29-0.349-0.473-0.527c0.094,1.097,0.071,2.098-0.306,1.574c-0.567-1.05-1.134-1.43-1.134-2.717
	c0.095-0.908,0.307-1.29-0.165-0.908c-0.471,0.573-0.85,1.431-1.037,1.431c-0.8-1.292-2.031-2.734-3.549-3.605
	c-0.724-0.416-1.512-0.72-2.352-0.782c-0.377-0.046-0.472,0.239-0.047,0.574c0.614,0.571,1.947,1.87,1.18,2.919
	c-0.943-0.763-1.557-1.298-2.454-1.298c0,0-0.425-0.048,0.048,0.285c0.472,0.334,1.132,1.526,0.424,3.243
	c-0.519,0.764-0.66,1.239-0.85,0.429c-0.188-0.811-0.094-0.953,0.095-1.287c0.189-0.334-0.095-0.43-0.472-0.096
	c-0.519,0.477-2.053,2.383-1.439,4.481c0.189,0.572,0.166,1.157-0.496,1.157c-0.896,0-2.17-0.011-2.077,1.18
	c0.189,0.524,0.141,1.003,1.133,1.003c0.472,0.046,0.756,0.189,0.802,0.522c0.047,0.43,0.188,0.812,0.661,0.858
	c0.472,0.381,0.661,1.145,0.661,1.766c-0.141,0.381-0.095,0.667,0.047,0.858c-0.188,0.524-0.425,1.621,0.33,1.907
	c0.378,0.237,0.237,0.572,0.237,0.572s0,0.523,0.613,1.003c0.189,0.333,0.189,0.572,0.189,1c0,0.429,0.566,10.73,0.566,10.73
	s0.142,0.427-0.095,0.523c-0.282,0.144-2.737,0.764-3.302,0.524c0-2.956,0.85-10.013,1.037-11.015
	c0.095-0.429,0.095-1.335-0.33-0.524c-0.52,1.859-2.737,10.396-2.737,11.015c-0.236,0.857-0.283,1.192-0.991,1.335
	c-2.077,0.286-3.729,0.573-3.729,0.573s-0.377,0-0.188-0.62c1.085-2.337,5.191-12.828,6.041-14.592
	c0.377-0.62-0.023-0.62-0.307-0.047c-0.234,0.502-2.251,4.092-4.055,7.194c-0.751,1.292-1.435,2.497-1.955,3.362
	c-0.485,0.807-0.832,1.317-0.832,1.317s-0.213,0.858-0.732,0.239c-0.896-1.145-1.793-1.861-2.17-1.861
	c-0.235,0-0.177-0.144,0.295-0.811c0.755-0.954,7.114-9.966,7.964-11.491c0.518-0.763,0.518-1.002-0.237-0.382
	c-0.438,0.528-3.297,3.904-5.645,6.519c-1.691,1.884-3.097,3.304-3.097,3.304l-2.844,3.101c-0.756,0.764-1.865,1.717-1.959,2.337
	c-1.038,1.19-3.681,4.148-4.295,5.005c-0.566,0.62-0.613,0.382-0.613-0.191c-0.284-1.717-0.897-3.813-0.897-4.244
	c0-0.429,0-0.452,0.331-0.763c0.695-0.744,2.917-2.821,5.335-5.147c2.993-2.879,6.289-6.088,7.359-7.01
	c2.455-2.147,4.626-4.245,5.192-4.771c0.567-0.523,0.992-1.048-0.566-0.047c-1.888,1.479-5.286,4.006-5.664,4.292
	c-1.274,0.907-10.43,7.736-10.43,7.736s-0.537,0.454-1.272,0.977c-1.604,1.137-4.155,2.875-4.155,2.875s-0.377,0.382-0.472-0.046
	c-0.755-2.242-1.086-3.052-1.086-3.052s-0.094-0.287,0.331-0.573c0.477-0.345,8.058-4.921,13.056-8.122
	c1.928-1.233,3.471-2.233,4.076-2.75c2.879-2.004,5.757-3.816,6.419-4.244c0.66-0.43,1.037-1.05,0.33-0.667
	c-1.322,0.524-14.678,7.045-14.678,7.045c-1.888,0.905-9.438,4.542-11.28,5.065C24.498,46.159,24.12,46.351,24.45,45.443z
	 M20.297,58.415c0.331-1.859,0.897-4.483,1.039-4.96c0.142-0.477,0.142-0.524,0.661-0.81c0.519-0.286,1.227-0.764,1.227-0.764
	s0.613-0.381,0.424,0.145c-0.283,0.572-0.85,3.337-0.566,4.625c0,0.477-0.142,0.477-0.378,0.667
	c-0.236,0.191-1.982,1.478-1.982,1.478S20.203,59.13,20.297,58.415z M22.114,72.982c-0.189,0.24-0.968,0.858-0.968,0.858
	s-0.401,0.215-0.401-0.311c-0.283-1.571-0.849-4.054-0.896-5.815c-0.094-0.621-0.047-0.955-0.047-0.955s-0.071-0.215,0.495-0.834
	c0.944-0.955,1.322-1.335,1.652-1.67c0.331-0.333,0.331-0.214,0.661,0.311c0.283,0.762,1.936,4.197,2.124,4.673
	s0.33,0.856-0.284,0.713c-0.754-0.331-0.684-0.236-2.053-1.715c-0.33-0.43-0.802-0.096-0.802,0.715c0,0.953-0.283,1.287,0.52,3.434
	C22.303,72.815,22.303,72.746,22.114,72.982z M22.09,68.906c0,0,0-0.395,0.496,0.106c0.496,0.502,0.92,1.109,2.124,1.466
	c1.346,1.146,2.939,2.432,3.54,2.898c0.673,0.857,1.664,1.968,2.123,4.041c0.249,1.106,0.39,1.967-0.106,1.608
	c-1.38-1.646-2.583-3.469-2.867-3.54c-0.212-0.644-1.062-1.287-1.45-1.646c-0.39-0.358-0.591-0.574-0.414-0.035l3.009,4.221
	c0,0,0.459,0.475,0.141,0.653c-0.991-0.07-2.064-0.225-2.771-0.94c-0.957-0.93-2.018-1.358-3.541-6.259
	C21.949,69.622,22.09,68.906,22.09,68.906z M28.651,84.711c-0.071,0.252-0.331,0.679-0.295,1.502
	c0.035,0.754,0.141,0.646-0.071,0.931c-0.425,0.537-0.814,0.93-0.886,1.254c-0.212,0.248-0.317,0.319-0.495,0.033
	c-1.027-1.572-2.195-3.254-3.646-6.651c0,0,0-0.285,0.211-0.535c0.708-1.11,0.708-1.11,0.708-1.11s0.071-0.358,0.53-0.071
	c0.496,0.286,1.664,1.071,2.797,2.969C28.639,84.39,28.722,84.461,28.651,84.711z M28.592,83.462
	c-0.566-0.789-2.089-2.611-3.081-3.472c-1.026-0.965-1.155-1.252-0.66-1.43c0.672,0,2.796-0.322,6.69,1.647
	c0.495,0.356,0.884,0.606,0.884,1c0.07,0.502,0.708,1.895,1.132,2.608c0.284,0.54,0.78,1.038,1.239,1.36
	c0.46,0.321,0.672,0.43,0.743,0.967c0.071,0.535,0.142,0.929,0.142,1.321c0,0.396,0,0.572-0.213,0.572
	c-0.212,0-0.106,0.18-0.672-0.429s-0.991-1.358-1.026-1.788c-0.142-0.75-0.106-1.966-2.053-2.574
	c-0.779-0.536-0.59-0.764-1.404-1.227c-0.638-0.467-0.72-0.323-0.295,0.179c0.496,0.5,0.967,0.762,0.578,1.014
	c0,0-0.613,0.259-0.932,0.439C29.276,83.829,28.982,83.96,28.592,83.462z M30.621,85.249c0.141,0.965,0.213,1.431,0.213,1.431
	s0.07,0.43-0.142,0.288c-0.743-0.502-0.708-0.61-0.814-0.932c-0.425-1.431-0.672-1.574-0.106-1.931
	c0.566-0.358,0.92-0.536,1.452-0.43c0.53,0.108,0.601,0.213,0.601,0.5c0,0.286,0.071,0.382-0.176,0.416
	c-0.249,0.037-0.779,0.169-0.779,0.169S30.408,84.821,30.621,85.249z M31.33,85.272l0.99-0.287c0.319-0.428,0.649-0.558,0.685,0.086
	c0.284,1.108,0.554,2.182,0.59,2.467c0.035,0.286,0,0.286-0.283,0.286c-1.416-0.358-1.663-0.393-1.699-0.823
	C31.364,86.107,31.223,85.703,31.33,85.272z M30.444,92.654c-0.495-1.146-1.074-3.328-1.64-6.331c0,0,0.248-0.287,0.425,0.071
	c0.176,0.356,1.71,2.301,7.905,2.335c5.558-0.106,7.716-0.13,12.459-1.31c4.955-1.108,7.527-1.551,8.589-1.586
	c0.177,0,0.201,0.035,0.272,0.285c0.07,0.25,0.46,5.14,0.565,5.783c0.107,0.644-0.011,0.773-0.223,0.773
	c-1.487,0.215-4.391,0.823-5.912,0.86c-1.912,0.5-4.531,1.143-8.92,1.358c-1.051,0.05-2.083,0.151-3.083,0.153
	c-3.177,0.007-6.029-0.273-8.102-0.739C31.117,93.666,30.657,93.404,30.444,92.654z M52.92,96.264
	c0.203,0.38,0.699,1.116,1.164,1.886c0.59,0.977,1.156,2.006,1.315,2.406C56,101.487,56.46,102.165,56,102.06
	c-1.027-0.502-1.699-0.932-1.982-0.932c-0.673-0.572-1.558-1.574-2.23-3.004c-0.638-0.822-1.416-2.862-1.416-2.862
	s-0.319-0.25,0.496-0.356c1.203-0.25,1.664-0.322,2.23-0.466c0.565-0.143,0.637-0.036,0.885,0.179
	c0.283,0.25,1.698,1.469,2.407,2.506c0.813,1.178,1.31,2.788,1.486,4.327c0.036,0.75-0.354,1-0.85,0.572
	c-0.566-1.111-2.088-3.793-2.831-4.616c-1.027-1.25-1.027-1.25-1.027-1.25S52.744,95.906,52.92,96.264z M54.325,94.13l1.227-0.238
	c0,0,0.378-0.144,0.378,0.335c0,0.477-0.095,1.19-0.095,1.19s-0.047,0.191-0.472-0.047C54.419,94.417,54.231,94.56,54.325,94.13z
	 M41.099,97.052c-0.459,0.896-0.85,2.502-1.097,3.147c-0.354,0.642-0.319,0.894-0.637,0.57c-1.664-1.179-3.504-2.254-6.654-5.437
	c0,0-0.284-0.356,0.211-0.213c0.496,0.142,2.903,0.669,6.69,0.713c0.743,0.183,0.992,0.183,1.168,0.502
	C41.134,96.623,41.346,96.8,41.099,97.052z M41.771,96.335c0,0-0.531-0.358,0.177-0.394c0.708-0.036,5.558-0.416,5.77-0.453
	c0.425-0.179,1.203-0.333,1.557-0.081c0.637,0.713,1.946,1.895,1.981,3.645c0,0.359-0.211,0.789-1.203,0
	c-0.991-0.856-2.796-2.323-3.434-2.643c-0.637-0.322-0.459,0.104-0.071,0.391c0.531,0.537,2.584,2.576,2.832,2.935
	c0.248,0.356,0.177,0.535-0.283,0.498c-1.097-0.179-2.266,0.073-4.814-1.717c-0.98-0.687-1.579-1.24-1.943-1.572
	C41.758,96.416,41.771,96.335,41.771,96.335z M51.753,106.184c-0.956-0.18-4.33-0.62-6.384-3.268
	c-1.627-1.645-1.77-1.967-2.053-2.646c0,0-0.023-0.75,0.578-0.5c0.815,0.248,1.486,0.798,7.859,1.263
	c1.345,0.107,1.947,0.287,4.849,1.896c0.461,0.431,0.778,0.931,0.212,0.931c-1.734,0.215-1.557,0.368-5.168-0.023
	c-1.133-0.071-1.557-0.345-1.911-0.384c-0.921-0.285-1.31-0.429-1.31-0.429s-0.637,0,0,0.429c1.203,0.431,3.221,1.313,6.619,1.349
	c1.204-0.108,1.947,0.225,1.451,0.655C56,105.886,54.16,106.184,51.753,106.184z M59.398,106.304
	c-0.483,0.207-1.539,0.727-2.268,1.006c-0.392,0.151-0.67,0.209-0.67,0.209s-0.118,0.368-0.508-0.166
	c-0.389-0.539-0.2-0.801,0.295-0.907c0.672-0.213,2.018-0.657,2.761-1.155c0.496-0.144,0.625-0.229,0.625,0.165
	S59.682,106.233,59.398,106.304z M63.54,107.422c-0.46,0.429-0.85,0.644-1.558,0.644c-0.708,0-1.593-0.287-1.84-1.396
	c-0.036-0.894,0.036-1.646,0.566-1.821h2.408c0,0,0.354-0.074,0.531,0.392C63.823,105.708,64.212,106.386,63.54,107.422z
	 M59.859,103.991c0,0-0.354-0.072-0.354-0.431c0-0.356-0.106-0.752,0.354-0.752h3.646c0.708,0,1.345,0,1.239,0.608
	c-0.106,0.608-0.212,0.608-0.708,0.608C63.54,104.025,59.859,103.991,59.859,103.991z M68.224,107.041
	c-0.177,0.431-0.189,0.466-0.472,0.454c-0.543-0.023-2.301-1.146-2.654-1.108c0,0-0.708-0.25-0.708-0.716
	c-0.213-0.502-0.142-0.786,0.425-0.573c0.637,0.215,3.233,1.37,3.233,1.37S68.401,106.613,68.224,107.041z M75.941,105.384
	c-1.794,0.477-3.163,0.763-4.957,0.526c-1.227-0.24-1.65-0.479-0.755-0.957c1.04-0.189,3.21-0.333,5.192-1.667
	c0.66-0.335,0.802-0.764,0-0.384c-1.322,0.431-2.407,0.907-6.796,1.384c0,0-0.566-0.191,0.047-1.05
	c1.039-0.856,4.012-2.62,6.183-2.62c1.039-0.095,1.18-0.334,1.699-0.287c0.52,0.049,3.917-0.144,5.192-0.144
	c1.345-0.168,1.393-0.213,1.085,0.523C82.312,101.665,81.982,102.857,75.941,105.384z M89.155,98.231
	c-1.416,1.097-4.909,3.626-5.427,3.815c-0.708,0.431-1.04,0.238-0.755-0.571c0.566-1.192,1.132-2.48-0.143-1.86
	c0,0-0.614,0.189-0.661-0.192c-0.424-1.384-0.566-1.668-0.566-1.668s-0.048-0.382,0.566-0.236c0.614,0.144,3.54,0.38,5.994-0.431
	c0.567-0.144,0.755-0.144,0.803,0.142C88.966,97.229,89.485,98.039,89.155,98.231z M88.116,96.396
	c-1.273,0.284-3.775,0.548-6.276,0.404c-0.424-0.143-0.424-0.379,0-0.953c0.661-0.907,2.124-3.388,2.454-4.817
	c0,0,0.094-0.285,0.425-0.334c0.377-0.046,5.05-0.189,9.628-3.575c1.038-0.666,1.321-1.097,1.321-0.523
	c-0.094,2.289-0.331,5.006-0.66,5.482C94.535,92.89,93.543,95.012,88.116,96.396z M74.938,117.402
	c-0.566-0.144-0.743-0.607-0.743-0.607c-1.133-1.467-2.513-3.258-2.513-3.258s-0.248-0.426-0.885-0.142
	c-0.672,0.179-0.885,0.179-0.249,1.002c-0.047,0.291-0.063,0.559-0.112,0.801c-0.244,1.191-0.524,1.81-0.524,1.81l-0.496,1.574
	c-0.319,0.251-0.602,0.679,0.141,0.573c1.203-0.215,1.451-0.289,0.814-0.646c0,0,0-0.07-0.212-0.285l0.176-0.75
	c0,0,0.107-0.395,0.602-0.502c1.204-0.213,1.204-0.213,1.204-0.213s0.318-0.071,0.531,0.248c0.424,0.502,0.672,0.859,0.53,1.075
	c-0.247,0.213-0.353,0.606,0.284,0.392c0.343-0.134,0.634-0.274,0.872-0.358c0.524-0.183,0.791-0.215,0.791-0.215
	S75.646,117.688,74.938,117.402z M71.858,116.292l-0.92,0.252c-0.353,0-0.177-0.215,0-1.147c0.249-0.426,0.284-0.285,0.885,0.358
	C72.106,116.221,71.858,116.292,71.858,116.292z M104.754,98.768c0.054,0.021-0.049,0.036-0.049,0.036
	S104.725,98.789,104.754,98.768c-0.029-0.01-0.1-0.023-0.261-0.037c0,0-1.912-1.537-3.044-2.683
	c-0.496-0.856,0.566-1.036,1.273-1.108c0.638-0.106,0.212-0.393-0.283-0.571c-0.46-0.179-0.531-0.142-0.883,0.144
	c-0.284,0.213-1.205,1.43-2.089,2.575c-0.637,0.787-0.602,0.75-0.248,1.572c0.495,0.575,0.389,0.217,0.46-0.572
	c0-0.394,0.106-0.465,0.425-0.858c0.141-0.248,0.177-0.356,0.531-0.177c2.23,1.859,2.937,2.86,2.937,2.86
	c-0.035,0.574,0.072,0.822,0.39,0.574c0,0,0.072-0.074,1.239-1.506C105.35,98.384,104.904,98.662,104.754,98.768z M90.228,90.578
	c-0.424,0-0.954,0.394-0.954,1c0,0.61,0.141,0.789,0.566,1.039c0.212,0.181,0.531,0.106,0.531,0.106c0.141,0.25,0,0.644-0.248,1.467
	c-0.212,0.535,0.105,0.429,0.318,0.322c0.212-0.108,0.177,0,0.39-0.537c0.142-0.428,0.318-1.43,0.389-2.254
	C91.326,90.687,90.653,90.578,90.228,90.578z M90.547,92.08c-0.212,0.144-0.779,0.181-0.779-0.393c0-0.357,0.142-0.572,0.39-0.572
	C90.158,91.115,91.043,90.865,90.547,92.08z M66.229,116.005c-0.813-0.356-1.345-0.713-1.345-0.713s-0.459-0.789,0.425-0.896
	c0.85-0.071,1.593,0.179,1.77,0.502c0.213,0.177,0.567,0.072,0.495-0.467c-0.071-0.537-0.282-0.608-0.495-0.465
	c-0.992,0-1.912,0-1.912,0s-1.168-0.072-1.38,1.36c0,0.5,0.389,1.432,1.734,1.752c1.38,0.43,1.522,0.572,1.522,1.074
	c0,0.499-0.815,0.93-1.628,0.75c-0.991-0.43-1.204-0.608-1.204-0.608s-0.424-0.5-0.46,0.25c-0.035,0.751-0.035,1.252,0.673,0.823
	c0.282-0.108,0.814,0.036,1.168,0.036c0.919,0.249,2.441-0.179,2.477-1.646C68.105,116.33,66.974,116.364,66.229,116.005z
	 M108.67,93.008c-0.389,0.039-0.601-0.068-0.885-0.285c-1.593-1.036-2.336-1.465-2.336-1.465c-0.283-0.25-0.849-0.537,0.141-1.215
	c0.319-0.324,0.921-0.431,0.921-0.431c0.213-0.178,0.248-0.287-0.142-0.465c-0.495-0.181-0.743-0.431-0.92-0.072
	c-0.566,0.929-2.372,3.722-2.372,3.722s-0.354,0.211-0.071,0.641c0.283,0.431,0.673,1.037,0.743,0.144c-0.035-0.608,0-0.642,0-0.642
	s0.354-1.002,0.603-0.86l2.938,1.968c0,0,0.317,0.286,0.317,0.571c0,0.287,0.319,0.43,0.426,0.071
	c0.814-1.395,0.92-1.538,0.92-1.538S109.166,92.617,108.67,93.008z M103.787,39.77c0.613,0.714,0.66,0.333,0.613-0.096
	c-0.095-0.286,0.283-0.428,0.283-0.428s0.755-0.62,1.557-0.716c0.615,0.047,0.615,0.667,0.425,1.193
	c-0.142,0.237-0.33,0.762-1.038,2.098c-0.425,0.715-0.072,1.384,0.354,2.241c0.424,0.667,0.424,0.333,0.424-0.381
	c-0.141-0.906,0.685-1.956,1.062-2.623c0.141-0.382,0.472-0.237,1.228,0.333c1.085,0.43,1.227,0.191,1.84-0.333
	c0.944-0.715,0.661-1.907,0.661-1.907s-1.18-2.574-1.841-3.814c-0.518-1.146-0.825-0.929-0.873-0.024
	c0.048,0.286-4.649,2.838-4.649,2.838C102.559,37.623,102.936,38.196,103.787,39.77z M107.325,37.814l1.416-0.858
	c0,0,0.566-0.43,0.991,0.333c0.662,1.431,1.274,2.195,0.142,2.814c-0.708,0.287-1.557,0.287-2.218-0.764
	C107.042,38.387,106.9,38.148,107.325,37.814z M99.396,32.449c-0.614-0.19-0.802,0.119-0.614,0.692
	c0.614,0.477,1.369,1.621,2.785,3.577c0.614,0.618,1.275,0.238,1.652,0.047c0.378-0.19,0.189-0.572-0.284-0.572
	c-0.471,0-0.708-0.048-0.708-0.048c-0.896-0.667-1.284-1.704-1.415-1.956c-0.331-0.523,0.235-0.858,0.235-0.858
	s0.802-0.667,1.227-0.904c0.331-0.239,0.473-0.143,0.898,0.19c0.472,0.668,0.566,0.81,0.566,0.81s-0.331,1.098,0.377,0.572
	l0.66-0.476c0.566-0.429,0.189-0.573-0.283-0.476c-0.331,0-0.661-0.43-1.039-1.05c-0.141-0.382,0.425-0.859,0.897-1.24
	c0.472-0.286,0.66-0.094,0.66-0.094s0,0,1.18,1.525c0.331,0.477,0.472,0.573,0.377,1.288c-0.188,0.859,0.237,0.523,0.755,0
	c0.378-0.525,0.047-0.858,0.047-0.858s-2.218-3.052-3.068-4.101c-0.565-0.525-0.944,0.81-0.944,0.81s0,0-1.793,1.478L99.396,32.449z
	 M100.742,20.909C84.459,6.032,62.348,6.556,62.348,6.556c-13.019,0.443-22.782,4.33-29.443,8.173
	c-6.232,3.595-9.749,7.142-10.673,8.041C8.357,36.145,6.233,49.879,5.171,55.028c-1.25,7.577-0.887,13.913,0.044,18.811
	c0.417,2.197,1.035,4.101,1.524,5.699c0.646,2.106,1.197,3.678,1.546,4.675c0.673,1.829,1.398,3.503,2.098,5.038
	c2.049,4.502,4.146,7.825,6.151,10.445c2.931,3.829,5.52,6.126,7.255,7.691c15.574,14.163,32.918,14.879,37.308,15.166
	c4.542-0.021,8.523-0.331,11.988-0.962c3.071-0.558,5.738-1.395,8.03-2.163c4.871-1.637,8.052-3.388,9.857-4.457
	c3.184-1.768,5.917-3.73,8.381-5.775c4.608-3.825,8.101-7.938,10.618-11.589c3.828-5.552,5.566-10.035,5.919-10.819
	c6.867-15.882,4.177-30.542,3.397-34.047C115.537,33.714,102.795,22.769,100.742,20.909z M119.573,61.967
	c0,5.192,0.661,10.879-3.251,21.59c-0.778,2.13-1.805,4.459-2.979,7.021c-2.336,4.147-10.053,19.099-29.237,27.037
	c-3.611,1.218-9.486,4.364-24,4.221c-3.256-0.214-16.777-0.285-32.281-11.803c-3.044-2.217-14.3-10.941-19.822-28.538
	C6.284,75.615,2.95,66.241,7.084,49.7c0.292-1.168,0.656-2.372,1.025-3.611c0.188-0.569,0.857-2.601,2.142-5.476
	c3.087-6.907,10.115-18.683,25.361-26.713c2.549-1.215,11.115-6.436,26.973-6.652c0,0,25.415-1.431,43.82,20.386
	C108.175,29.78,118.582,42.082,119.573,61.967z M101.851,26.607c-0.094,0.238-0.377,0.43-0.377,0.43
	c-1.841,0.905-3.115,1.335-3.115,1.335s-0.613,0.19-0.472-0.43c0.661-2.288,1.133-3.671,1.133-3.671l0.283-0.286
	c0.472,0.047,0.613-0.381,0.094-0.62c-1.274-1.095-1.369-1.144-1.369-1.144s-0.566-0.334-0.472,0.333c0.094,0.476,0,0.573,0,0.573
	l-1.51,5.102c-0.378,0.858-0.52,1.145-0.142,1.573c0.425,0.43,0.897,0.31,1.51-0.023c1.747-0.765,4.72-2.122,4.72-2.122
	c0.708,0,1.511,0,0.896-0.62C102.322,26.321,101.992,25.845,101.851,26.607z M51.304,70.24c0.378-1.192,0.566-2.145,0.802-3.146
	c0.142-0.285,0-0.479-0.471-0.43c-0.472,0.096-0.424,0.24-0.52,0.621c-0.094,0.381-0.189,1.097-0.189,1.097
	c-0.471,0.761-0.565,0.141-0.565,0.141s-0.472-0.761-0.66-1.144c-0.189-0.382-0.377-0.382-0.708-0.144
	c-0.331,0.239-0.188,0.62-0.188,0.62s0.52,0.954,1.463,2.623C50.502,70.957,51.021,70.716,51.304,70.24z M116.812,61.657
	l-0.189,0.454c0,0-0.332,0.298-1.937,1.431c-0.402,0.285-0.885,0.576-1.461,0.977h-1.983c-0.755-0.905-0.755,0.048-0.755,0.048
	s0,0.238,0.048,1.955c0,0.857,0.378,0.668,0.614,0.334c0.236-0.334,0.471-0.334,0.471-0.334s0.189-0.047,1.369-0.047
	c0.519,0,0.897,0.334,0.897,0.334l2.595,2.383c0.236,1.431,0.779,0.525,0.779,0.525s0.153-0.669,0.119-1.335
	c-0.025-0.454-0.189-0.526-0.567-0.286c-0.283,0.047-1.321-0.954-2.03-1.669c-0.519-0.478,0.142-1.003,0.142-1.003
	s0.943-0.714,1.746-1.335c0.85,0.145,0.662-0.333,0.662-0.333s0.028-0.398,0.015-0.905c-0.009-0.316-0.063-0.672-0.063-1.002
	C117.283,60.989,116.812,61.657,116.812,61.657z M112.276,86.136c-0.08-0.126-0.206-0.223-0.526-0.423
	c-0.38-0.223-0.748-0.364-1.123-0.376c-0.291-0.009-0.586,0.051-0.895,0.27c-0.637,0.358-1.628,1.466-2.194,1.322
	c-0.46-0.179-0.813-0.392-0.106-1.179c0.425-0.537,0.92-0.896,1.416-0.896c0.602-0.144,0.99-0.178,0.248-0.643
	c-0.743-0.466-1.026-0.609-0.885,0.178c-0.318,0.287-0.603,0.502-0.603,0.502s-1.663,1.215-1.061,2.789
	c0.249,0.43,0.637,0.893,1.522,0.608c0.531-0.216,0.92-0.466,1.38-0.896c0,0,0.303-0.207,0.685-0.441
	c0.379-0.239,0.838-0.504,1.155-0.344c0.247,0.216,0.743,1.037-0.035,1.75c-0.672,0.537-1.203,0.608-1.203,0.608
	c-0.602-0.034-0.974,0.287-0.372,0.646s1.08,0.787,1.15,0.072c0.035-0.502,0.39-0.752,0.637-0.861c0.602-0.498,1.097-1,0.956-2.11
	C112.387,86.414,112.355,86.26,112.276,86.136z M109.921,52.573l-0.472-0.072c-0.685-0.857-0.708,0.239-0.708,0.239
	s0.236,0.333,0.52,1.858c0.047,0.573,0.52,0.478,0.614,0c0.094-0.476,0.613-0.452,0.613-0.452s2.88-0.929,4.154-1.263
	c0.283-0.097,0.66-0.383,1.038-0.047c0.52,0.57,0.613,0.047,0.566-0.43c-0.047-0.477-0.047-0.62-0.52-1.813
	c-0.472-1.191-0.52-0.166-0.802,0.167c-0.168,0.097-1.45,0.628-2.714,1.034C110.988,52.187,109.921,52.573,109.921,52.573z
	 M115.207,54.361c-0.661,0.047-0.542,0.429-0.094,0.548c0.519,0.096,0.897,0.357,0.944,1.169c0.047,0.81-0.52,0.761-0.52,0.761
	l-4.625,0.812c-0.426-0.048-0.378-0.382-0.378-0.382c-0.755-0.668-0.661,0.239-0.661,0.239s0.141,0.715,0.331,2.05
	c0,0.905,0.424,0.619,0.66,0.095c0-0.285,0.567-0.478,0.567-0.478s3.021-0.475,4.153-0.667c0.473,0,0.708-0.095,0.851,0.477
	c0.094,0.573-0.047,0.667-0.613,1.383c-0.377,0.717,0.141,0.667,1.085,0.381c0.235-0.094,0.331-0.19,0.331-0.572
	s-0.378-3.623-0.708-5.436C116.435,53.979,116.057,54.17,115.207,54.361z M110.251,47.924c0.095,0.81-0.542,1.191-0.967,1.191
	s-0.967-0.429-1.25-1.191c-0.189-1.05-0.189-1.336,0.283-2.29c0.66-0.739-0.189-0.715-0.189-0.715l-0.708,0.333
	c-0.519,0.428-0.377,0.763-0.282,1.335c0.188,0.382,0.141,1.478,0.755,2.527c1.038,1.527,2.359,1.217,3.162,0.668
	c1.18-0.668,0.803-2.67,0.755-3.768c-0.047-1.001,0.425-1.334,0.614-1.43c0.756-0.047,1.274,0.954,1.416,1.859
	c0.141,0.573-0.047,1.145-0.378,1.574c-0.661,0.667-0.118,0.955,0.85,0.429c0.614-0.095,0.283-0.619,0.047-1.001
	c0,0,0.118-1.217-0.378-2.336c-0.241-1.086-0.759-1.422-1.255-1.568c-0.375-0.113-0.739-0.149-0.962-0.149
	C109.78,44.013,110.015,46.112,110.251,47.924z M122.191,49.45c-4.671-18.313-17.415-29.828-19.184-31.331
	C84.176,1.954,62.938,3.171,62.938,3.171C39.435,3.026,24.002,16.367,21.666,18.442C9.476,29.747,4.692,42.223,2.68,50.876
	c-1.261,5.418-1.549,9.28-1.686,10.519c-1.132,14.449,4.744,26.895,7.93,32.974c6.937,12.732,18.547,20.603,19.892,21.603
	c8.958,5.407,16.529,7.906,22.165,9.127c5.323,1.15,8.92,1.173,10.33,1.173c5.381-0.019,10.067-0.461,14.065-1.261
	c4.826-0.965,8.649-2.403,11.477-3.611c3.522-1.502,5.502-2.778,5.961-3.067c19.751-11.839,26.052-29.542,26.902-31.544
	c0.861-2.289,1.669-4.518,2.237-6.677c0.86-3.272,1.347-6.389,1.659-9.3C124.686,60.809,123.099,53.162,122.191,49.45z
	 M121.414,74.699c-0.32,1.414-0.544,3.031-1.027,4.821c-1.766,6.541-5.25,15.41-13.698,25.294
	c-2.366,2.333-10.252,11.577-25.55,16.507c-3.918,1.264-8.322,2.31-13.244,2.804c-1.699,0.072-20.035,2.505-38.157-9.942
	c-4.885-3.36-17.273-12.304-22.937-28.538c-1.275-3.291-7.009-16.453-2.691-33.907c0.85-3.503,3.548-16.736,16.361-29.754
	c2.266-2.218,15.566-16.309,40.769-17.168c0,0,17.77-1.501,34.264,9.872c3.397,2.217,13.451,8.297,21.876,25.75
	C118.086,41.938,124.599,56.03,121.414,74.699z M62.49,62.802c0.33,0,0.378-0.049,0.708-0.906c0,0,0.614-1.384,0.944-2.242
	c0.141-0.285,0.141-0.382-0.378-0.478c-0.519-0.094-0.613,0.334-0.613,0.334s-0.189,0.334-0.519,1.289
	c-0.472,0.667-0.614-0.049-0.614-0.049l-0.566-1.287c0-0.287-0.047-0.287-0.613-0.238c-0.566,0.047-0.331,0.477-0.331,0.477
	s0.377,1.049,1.18,2.766C61.83,62.753,62.16,62.802,62.49,62.802z M60.885,74.768c-0.236-0.38-0.236-0.38-0.095-0.713
	c0.189-0.287,0.142-0.429,0.095-0.81c-0.377-1.002-1.18-0.716-1.935-0.716c-0.756,0-0.756,0.19-0.756,0.523s0.189,2.911,0.189,2.911
	s-0.048,0.236,0.472,0.236c0.52,0,0.331-0.382,0.331-0.382s0.047-0.095,0-0.811c0.33-0.668,0.614-0.286,1.416,0.764
	c0.237,0.336,0.472,0.336,0.708,0.144c0.235-0.191,0.047-0.382,0.047-0.382S61.262,75.295,60.885,74.768z M59.705,73.958
	c-0.236,0-0.613-0.142-0.613-0.142v-0.62c0,0,0.236-0.095,0.519-0.095c0.284,0,0.567,0.095,0.567,0.38
	C60.177,73.768,59.941,73.958,59.705,73.958z M62.772,69.191c0.52,0,0.472-0.571,0.472-0.571s-0.047-1.765-0.047-2.623
	c0.095-0.811-0.519-0.621-0.519-0.621c-0.802,0-0.519,0.525-0.519,0.525s0.047,0.381-0.047,2.528
	C62.112,69.191,62.584,69.142,62.772,69.191z M60.354,38.625c1.204,0,1.108-1.014,1.108-1.835c0-0.609-0.684-0.597-0.684-0.597
	l-1.664,0.013c-0.531,0.035-0.472,0.726-0.189,1.512C59.316,38.612,59.646,38.554,60.354,38.625z M60.083,36.884
	c0.377,0,1.05,0.072,1.003,0.548s-0.33,0.799-1.038,0.799c0,0-0.874-0.274-0.874-0.752S59.941,36.884,60.083,36.884z M62.655,37.79
	c0.105,0.574,0.638,0.775,1.522,0.883c0.744,0,0.874-0.632,1.05-1.598c0.106-0.751-0.413-0.775-0.413-0.775l-1.098-0.059
	c-1.345,0-1.097,0.478-1.097,0.478S62.549,37.217,62.655,37.79z M63.575,37.002c0,0,1.605-0.284,1.229,0.667
	c-0.426,0.574-0.756,0.668-1.086,0.574C63.387,38.148,62.207,37.67,63.575,37.002z M63.104,73.817c0,0.382,0.047,2.05,0.047,2.05
	s0.236,0.19,0.472,0.19s0.519,0.051,0.472-0.238c-0.047-0.285,0-1.479-0.047-1.955c-0.048-0.478,0.33-0.478,0.707-0.478
	c0.378,0,0.378-0.046,0.473-0.426c0.094-0.525-0.473-0.431-0.473-0.431s-1.604-0.046-2.17-0.046c-0.567,0-0.802,0.139-0.802,0.38
	c0,0.238,0.188,0.522,0.708,0.571C63.009,73.34,63.104,73.435,63.104,73.817z M53.9,73.053c-0.473-0.093-0.566,0-1.038,1.527
	c-0.283,0.953-0.661,0.046-0.661,0.046l-0.518-0.715c-0.095-0.333-0.143-0.43-0.614-0.189c-0.473,0.236-0.236,0.523-0.236,0.523
	s0.519,0.812,1.368,2.242c0.189,0.428,0.283,0.333,0.755,0.333c0.472,0,0.567-0.477,0.567-0.856c0,0,0.235-0.907,0.566-2.196
	C54.183,73.386,54.136,73.15,53.9,73.053z M56.496,69.24c0-0.669-0.613-0.477-1.227-0.382c0,0-0.565,0.189-0.565-0.144
	s0.188-0.523,0.518-0.523c0.332,0,0.567-0.336,0.567-0.383c0-0.334-0.378-0.334-0.567-0.334c-0.188,0-0.424,0.144-0.424-0.239
	c0-0.571,0.709-0.476,1.086-0.476c0.378,0,0.472-0.238,0.472-0.523c0-0.287-0.283-0.335-0.566-0.335
	c-0.283,0-1.085,0.096-1.557,0.19c-0.473,0.096-0.567,0.335-0.567,0.621c0,0.284,0.095,2.67,0.095,2.67
	c-0.095,0.57,0.473,0.523,0.473,0.523s0.472,0,1.51-0.144C56.354,69.669,56.496,69.573,56.496,69.24z M56.637,73.626
	c-0.094-0.812-0.142-0.955-0.661-0.955c-0.518,0-0.424,0.289-0.424,0.715c0,0.431,0.141,2.766,0.141,2.766
	c0.048,0.192,0.189,0.144,0.755,0.144c0.567,0,0.284-0.571,0.284-0.571S56.732,74.437,56.637,73.626z M59.139,62.515
	c0-0.572-0.283-0.478-1.417-0.333c-0.329,0-0.329-0.431-0.329-0.431s-0.048-1.335-0.048-1.907c0-0.573-0.567-0.334-0.567-0.334
	c-0.377,0-0.471,0.191-0.471,0.525c0,0.333,0,1.479,0.141,2.767c0,0.476,0.33,0.333,0.615,0.333c0.282,0,1.084-0.191,1.604-0.191
	C59.186,62.944,59.139,62.85,59.139,62.515z M58.902,69.001c0,0-0.047-0.096,0-0.953c0.048-0.813,0.425-0.287,1.322,0.904
	c0.188,0.43,0.425,0.144,0.755,0.095c0.331-0.428-0.189-0.666-0.52-1.239c0-0.238-0.425-0.381-0.141-0.523
	c0.283-0.144,0.331-0.477,0.331-0.764c0-1.146-1.417-1.098-1.983-1.098c-0.566,0-0.801,0.095-0.801,0.573
	c0,0.478,0.093,3.1,0.093,3.1C58.761,69.809,58.902,69.001,58.902,69.001z M59.139,66.091c0.519,0,0.519,0.096,0.519,0.43
	s-0.33,0.287-0.755,0.287C58.902,66.808,58.62,66.091,59.139,66.091z M88.175,92.688c0.39-1.253-0.495-1.323-0.495-1.323
	c-0.248-0.178-0.495-0.213-0.744-0.071c-0.672,0.428-0.691,1.304-0.46,1.538c0.106,0.108,0.071,0.32,0.036,0.535
	c-0.248,0.215-0.259,0.465-0.259,1.002c0,0.965,0.896,1.073,1.145,1.073c0.248,0,0.636-0.144,0.813-0.286
	c0.602-0.466,0.354-1.394,0.07-1.824C88.282,93.332,87.999,93.08,88.175,92.688z M87.326,91.758c0.319,0,0.425,0.217,0.425,0.465
	c0,0.25,0.036,0.394-0.425,0.574c0,0-0.46,0.071-0.46-0.431S87.008,91.758,87.326,91.758z M87.433,94.869
	c-0.248,0-0.567-0.144-0.637-0.713c-0.036-0.394,0.141-0.574,0.425-0.646c0,0,0.79-0.285,0.755,0.752
	C87.94,94.762,87.68,94.869,87.433,94.869z M42.231,93.737c0.778-0.248,0.578-1.62,0.507-3.05c0-0.859-0.33-0.907-0.33-0.907
	c-0.39,0.142-0.224,0.477-0.224,0.477s0.07,0.608,0.07,1.752c0.07,0.43,0.07,0.965-0.212,1.252
	c-0.531,0.358-0.684,0.215-1.003-0.213c-0.318-0.431-0.318-1.646-0.282-2.47c0.07-0.645-0.189-0.618-0.366-0.618
	c-0.177,0-0.119,0.118-0.189,0.403c-0.07,0.287,0,1.612,0.142,2.754C40.697,94.156,41.736,94.167,42.231,93.737z M37.63,93.952
	c0.991,0,1.144-1.048,1.251-1.977c0.105-2.075-1.394-2.089-1.394-2.089c-0.92,0.178-1.179,1.051-1.214,1.907
	C36.273,93.51,36.921,93.88,37.63,93.952z M37.523,90.339c0,0,0.803-0.083,0.803,1.636c0,0.822-0.272,1.488-0.732,1.488
	c-0.459,0-0.79-0.632-0.79-1.347S36.886,90.591,37.523,90.339z M84.707,91.615c-0.319,0-0.235,0.25-0.235,0.25s0,2.11-0.035,3.327
	c0,0.394,0.165,0.394,0.413,0.429c0.247,0.037,0.211-0.5,0.211-0.5s0.036-1.896,0.036-3.004
	C85.273,91.473,84.707,91.615,84.707,91.615z M44.567,93.808c0.284-0.071,0.189-0.356,0.189-0.356s-0.106-1.934-0.106-2.219
	s0.294-0.035,0.294-0.035s0.685,1.108,1.535,2.22c0.318,0.282,0.401-0.086,0.401-0.444c0-0.356-0.201-2.788-0.201-3.073
	c0-0.287-0.023-0.444-0.271-0.444c-0.248,0-0.189,0.051-0.189,0.334c0,0.288,0.071,1.002,0.106,2.004
	c0.047,0.597-0.307,0.215-0.307,0.215s-0.92-1.264-1.344-1.979c-0.319-0.465-0.602-0.285-0.637-0.07
	c-0.035,0.216,0.105,1.669,0.177,3.564C44.213,93.952,44.567,93.808,44.567,93.808z M33.843,93.593
	c0.211,0.037,0.164-0.012,0.164-0.368s-0.082-0.896-0.082-1.25c0-0.36,0.377-0.347,0.377-0.347s0.248,0,0.496,0
	c0.248,0,0.188-0.014,0.188-0.155c0-0.321-0.401-0.264-0.896-0.3c-0.354,0-0.236-0.523-0.236-0.917c0-0.396,0.377-0.273,0.377-0.273
	s0,0.104,0.886,0.104c0.495,0,0.176-0.343-0.071-0.38c-0.248-0.036-0.814-0.18-1.239-0.215c-0.425-0.037-0.472,0.014-0.472,0.44
	c0,0.43,0.211,3.398,0.211,3.398S33.63,93.558,33.843,93.593z M48.921,93.202c0.354,0,0.862-0.262,1.038-0.479
	c0.567-0.535,0.637-1.178,0.672-1.752c0.072-1.432-0.826-1.729-1.356-1.943c-0.956-0.25-0.932,0.298-0.932,0.298
	s0,2.361,0.035,3.397C48.378,93.152,48.638,93.202,48.921,93.202z M48.756,89.756c0.036-0.321,0.201-0.455,0.555-0.24
	c0.354,0.215,0.943,0.74,0.908,1.527c-0.106,0.786-0.685,1.788-1.357,1.358C48.862,92.402,48.721,90.078,48.756,89.756z
	 M65.911,91.545c0.213,0.032,0.284-0.216,0.284-0.216s0.142-0.393,0.317-0.895c0.178-0.357,0.497-0.216,0.921-0.144
	c0.425,0.071,0.389,0.536,0.389,1.11c0,0.356,0.13,0.428,0.378,0.428s0.248,0,0.248-0.321s-0.295-2.862-0.436-3.647
	c-0.212-0.571-0.827-0.571-0.967-0.18c-0.425,0.788-0.991,2.538-1.346,3.362C65.522,91.402,65.699,91.508,65.911,91.545z
	 M66.974,89.219c0.248-0.717,0.319-0.93,0.319-0.93s0.247-0.324,0.282,0.069c0.072,0.681,0.284,1.541-0.424,1.326
	C67.15,89.685,66.761,89.719,66.974,89.219z M70.69,92.188c1.31-0.18,1.522-1.001,1.664-1.61c0.212-2.036-0.92-2.395-1.452-2.577
	c-0.283-0.177-0.424,0.146-0.424,0.146s-0.531,2.289-0.779,3.684C69.627,92.26,69.982,92.223,70.69,92.188z M70.372,91.115
	c0.176-0.573,0.425-2.004,0.425-2.254c0,0,0.106-0.358,0.495-0.248c0.39,0.104,0.85,0.927,0.602,1.644
	c-0.248,0.896-0.39,1.465-1.309,1.431C70.299,91.615,70.299,91.508,70.372,91.115z M55.292,91.65c0,0.467,0.248,0.358,1.062,0.071
	c1.274-0.764,1.346-1.788,1.31-2.396c-0.106-1.536-1.097-1.765-1.876-1.729C55.01,87.561,55.175,88,55.175,88
	S55.329,91.008,55.292,91.65z M55.728,88.266c0,0,0.06-0.273,0.556-0.203c0.354,0.141,0.861,0.406,0.896,1.372
	c0.035,0.498-0.294,1.191-0.79,1.548c-0.496,0.322-0.59,0.24-0.59-0.046C55.693,89.076,55.728,88.266,55.728,88.266z M52.06,92.402
	c0,0.396,0.401,0.12,1.428-0.096c0.637-0.069,0.613-0.227,0.578-0.441c-0.035-0.215-0.153-0.155-0.437-0.155
	c-0.283,0-0.53,0.181-1.026,0.287c-0.249,0-0.201-0.773-0.201-1.132s0.413-0.419,0.874-0.455c0.248,0,0.33-0.01,0.33-0.295
	c0-0.287-0.33-0.193-0.897-0.085c-0.46,0.034-0.377-0.24-0.377-0.24s-0.036-0.39-0.036-0.75c0-0.356,0.236-0.38,1.085-0.561
	c0.425,0,0.614,0.063,0.614-0.296c0-0.359-0.401-0.155-0.401-0.155s-0.602,0.106-1.345,0.248c-0.53,0.037-0.471,0.548-0.471,0.548
	S51.917,90.792,52.06,92.402z"/>
</svg>
