<svg id="Layer_1" data-name="Layer 1" xmlns="http://www.w3.org/2000/svg" viewBox="0 0 1024.18 1024.21"><defs><style>.cls-1{fill:#fefefe;}.cls-2{fill:#3798fd;}.cls-3{fill:#3caffd;}.cls-4{fill:#3691fe;}.cls-5{fill:#40bdfd;}.cls-6{fill:#399efe;}.cls-7{fill:#40bffd;}.cls-8{fill:#48dffc;}.cls-9{fill:#47defc;}.cls-10{fill:#44cffa;}.cls-11{fill:#4efafb;}.cls-12{fill:#43ccfc;}.cls-13{fill:#4cf0fb;}.cls-14{fill:#4cf0f9;}.cls-15{fill:#43cbfc;}.cls-16{fill:#3caefa;}.cls-17{fill:#45d5f9;}.cls-18{fill:#3cacfa;}.cls-19{fill:#42c5f9;}.cls-20{fill:#46d9f8;}.cls-21{fill:#47ddf8;}.cls-22{fill:#42c7fa;}.cls-23{fill:#4ae7f9;}.cls-24{fill:#40bffa;}.cls-25{fill:#3eb5fa;}.cls-26{fill:#3dacf9;}.cls-27{fill:#4bebf5;}.cls-28{fill:#48c5e0;}.cls-29{fill:#68f1fb;}.cls-30{fill:#4ad4d6;}.cls-31{fill:#b0fdfd;}.cls-32{fill:#47d9f8;}.cls-33{fill:#76dfe1;}.cls-34{fill:#33869d;}.cls-35{fill:#86f6f6;}.cls-36{fill:#dcf6fd;}.cls-37{fill:#b2edfd;}</style></defs><title>logo</title><path class="cls-1" d="M638,1036q-178.07,0-356.12.14c-4.56,0-5-1.34-5-5.25.15-36.3.09-72.59.09-108.89,2.65-.54,3.86,1.6,5.33,3,8.3,8.18,16.42,16.57,24.78,24.69,29.63,28.76,61.59,54.51,97.35,75.35a44.89,44.89,0,0,0,16.75,6.17c5.62.76,9.75-1.15,12.82-5.74a24.48,24.48,0,0,0,3.85-10.21c1.66-11.07,5.94-21,11.95-30.46,9.63-15.1,18.16-30.83,21.66-48.58,5-25.48,2.92-50.37-7.93-74.25-9-19.73-21.19-37.76-30.26-57.45-8.51-18.5-14.61-37.57-14.56-58.16a85,85,0,0,1,2.07-18.33c1-4.59,1.09-8.89-1.49-13a4.14,4.14,0,0,1,2-4.72c4.66-3.2,6.72-8.08,8.75-13.06,4.2-10.35,6.43-21.37,10.9-31.62,2.67-6.12,5.64-12.07,11-16.41,6.95-2.94,13.21-6.7,17.15-13.53,2.91-5.07,3.72-10.49,3.6-16.2a56.25,56.25,0,0,1,.28-10.38c4.23-8.69,10.24-16.25,15.89-24,9.91-13.52,16.94-28,18-45a4.5,4.5,0,0,1,.81-2.31c1.22-1.09,2.75-1,4.24-1.16,6.18-.43,10.93-3.57,12-9.51,2.92-16.46,12.49-29.56,20.81-43.31,7.84-12.94,15.47-26,22.55-39.38a149.87,149.87,0,0,0,9.45-23.06c.78-2.35,1.29-4.84,2.95-6.82,3.77-2.69,8.11-4.39,11.75-7.37,9-7.38,12.37-17.3,13.26-28.38a27.19,27.19,0,0,1,1.46-7.76C612.48,358,620.8,346,627.78,333.18a130.31,130.31,0,0,0,9.38-20.24c1.25-7.41,5.59-12.62,11-17.63,10.83-10,18.77-22,22-36.64,1.51-4.44,1.8-9.12,2.38-13.71.38-3,1.43-5,4.41-5.85,7.62-2.14,11.27-7.62,12.89-15,1-4.68,1.36-10.62,5.87-12.73,6.78-3.17,7.79-8.37,9-14.68,1.44-7.33,6.51-13.38,9.2-20.38,1.23-3.22,1.79-6.79,4.08-9.58,14.55-14.06,23.58-31.5,30.57-50.17,2.33-6.21,4.63-12.44,6.62-18.78,4.79-8.87,11.65-16.2,17.9-24,8.32-10.32,15.54-21.19,20.06-33.74a29.89,29.89,0,0,1,7.22-10.7c7.3-7.42,16-8.5,24.46-3.21,8.92,5.55,12.58,15.14,9.32,24.54-1,3-2.17,6.1-4.34,8.39a43.38,43.38,0,0,0-12.07,28.8c-8.43,18.3-18.44,35.78-27.84,53.58-10.6,20.06-20.2,40.47-26.35,62.38-.54,1.92-.87,3.92-2.22,5.5-5.62,3.8-8.21,9.45-9.55,15.82s-4,11.62-9.81,14.95c-1.68,1-2.39,2.71-3,4.47-12.24,34.61-28,67.65-44.57,100.34-4.66,9.2-9.69,18.26-9.74,29-19.47,32.14-34.65,66.41-50.2,100.52-7.18,15.76-14.77,31.34-22.24,47-13,27.2-25.83,54.51-34.11,83.65-.36,1.29-.75,2.56-1.06,3.86-2.53,10.57,0,16.29,9.63,21.43A157.22,157.22,0,0,0,601.27,637c8.24,3.34,16.52.69,22.67-6.76,9.18-11.14,16-23.77,22.66-36.44,12.74-24.18,23.87-49.14,34.77-74.19,5.94-13.66,14.28-26,21.6-38.86,7.17-12.61,14.29-25.24,18-39.4.7-1.58.73-3.31,1.18-4.95a5.47,5.47,0,0,1,.67-1.32c11.58-7.88,15.88-19.95,19-32.76,3.51-14.26,12.54-25.51,20.67-37.25,6.25-9,12.31-18.19,14.58-29.22,2-11.49,2.71-13,9.49-23.17,9.67-14.49,16.47-30.42,23.33-46.34,13.54-31.38,28.4-62.1,46.22-91.32,5.58-9.13,7.82-19.41,10.47-29.55,1.1-4.19,2.17-8.38,3.51-12.5a70.08,70.08,0,0,1,6.11-9.68c9.4-13.49,18.74-27,26.59-41.5,8.83-16.28,22.65-16.35,36.29-6.47,2.5,6.41,1,13.05,1.12,19.6a11.29,11.29,0,0,1-1.56,4.16A389.55,389.55,0,0,0,905.78,171a13.53,13.53,0,0,1-1,2.25c-12.25,20.3-22,41.86-31.43,63.52-10.61,24.26-21.44,48.41-32.13,72.63a33,33,0,0,1-9.07,12.4c-2.48,2-2.81,4.74-2.82,7.65,0,4.5-.21,9-2.68,13-11.22,6.41-16.12,17-18.54,28.91-3.13,15.45-9,29.54-18.75,42a108.52,108.52,0,0,0-5.92,9.26,53.73,53.73,0,0,0-8.72,31.22,8.85,8.85,0,0,1-2.07,3.95c-8.49,9.14-12.77,20.58-17.41,31.8-12.4,30-25.42,59.77-38.47,89.5-6,13.57-12.73,26.76-19,40.17-3,6.48-6.05,13-9.18,19.42-7.74,15.89-4.67,26.24,10.63,35.18a47.82,47.82,0,0,0,11.55,4.64c11,3,19.61-.74,26.36-9.45,7.07-9.11,12.77-19.1,18.14-29.27,14.25-27,25.62-55.28,37.12-83.5a28.18,28.18,0,0,1,2-4.57,4.83,4.83,0,0,1,.91-1.18c12.65-10.48,19.68-24.75,27.3-38.89,13.37-24.8,22.87-51.37,35.89-76.3a62.67,62.67,0,0,1,4.36-7.86c6.1-8.47,9.92-17.9,12.93-27.87,5.82-19.28,16.42-36.33,26.21-53.72,8.75-15.54,17-31.27,22.42-48.36,2.32-7.4,6.84-13.67,10.72-20.25,2.87-4.88,5.77-9.73,8.56-14.66,3.82-6.75,5.72-14.14,6.77-21.77,6.34-8.73,13.47-16.84,18.94-26.25,8.57-14.75,14.27-30.71,20.43-46.5,4.47-11.44,7.63-23.39,13.39-34.34a61.45,61.45,0,0,1,11.71-16c8.64-8.3,19.07-10.17,30.29-5.21,3,4.25,4.67,9.14,6.46,14-.34,3.7.11,7.46-.77,11.12-7.29,12.82-14.28,25.75-18.56,40-2,6.83-2.42,14.05-5.13,20.69-2.54,4.16-6.5,7.08-9.52,10.85-11.39,14.21-17.83,30.64-22.15,48.07a15.74,15.74,0,0,1-.87,2.86c-16,20.46-26,43.82-33.2,68.51a9.87,9.87,0,0,1-1.06,2.78c-8.15,3.3-9.4,10.1-9,17.75a13.66,13.66,0,0,1-.4,4.41c-12.81,23.87-22.49,49.26-35.36,73.1a260.59,260.59,0,0,0-16.74,39.41c-13.51,29.3-26.77,58.72-40.16,88.08-7.93,17.4-15.51,35-23.93,52.15-10.48,14.83-16.59,31.83-23.74,48.29-3.38,7.79-6.72,15.59-10.49,23.19-8.74,17.66-7.06,28.27,6.89,42.25,2.15,2.3,4.32,4.59,6.65,6.71,5.93,5.42,11.94,5.81,18.47,1a99.83,99.83,0,0,0,8-6.74,216.08,216.08,0,0,0,31.43-43.47c10.74-19.8,18.7-40.71,26-61.9,1.69-4.87,3.27-9.77,5.21-14.54,1-2.19,2.44-4.18,3.2-6.5,15.93-25.46,29-52.46,42-79.45,7.3-15.14,15.87-29.73,21.78-45.47,6.37-17,15.61-32.32,24.93-47.68,5.33-8.8,8.27-18.44,10.74-28.29,5.41-1.1,7.07-4.69,7.75-9.9,2-15.7,9.21-29.42,17.46-42.65,9.69-15.53,20.32-30.48,28.5-46.93a121.41,121.41,0,0,0,5.19-12.44c6-16.51,15.66-31.2,23.52-46.79,5.12-10.17,9.59-20.5,11-31.94a14.28,14.28,0,0,1,3.81-7.39,57.51,57.51,0,0,0,17.26-35c.88-8.38,10-13.06,18-9.68,4.61,1.94,9.83,3.08,12.77,7.84,1.15,9,.28,18.14.51,27.21,0,1.81-.16,3.63.43,5.39a16.06,16.06,0,0,1,.06,6.9c-3.51,7.34-8.19,14-11.92,21.28-11,21.27-19.32,43.39-22.28,67.31a692.08,692.08,0,0,0-38.41,84.27,401.59,401.59,0,0,0-16.49,54.33c-.69,3.18-.9,6.67-3.78,9-4.94.59-6.71,3.57-7.34,8.34-1.47,11.13-6,21.34-10.58,31.49-4.67,10.44-8.61,21.17-12.81,31.8-3.68,1.44-5.49,4.16-6.68,8-2.39,7.65-6.57,14.55-10.21,21.65s-4.86,14.76-4.94,22.65c-.11,4.17-2.73,7-5.45,9.62s-4.72,5.92-4.53,10a5.51,5.51,0,0,1-.21,1.39c-.71,1.75-1.25,3.56-1.9,5.34-12.37,29.14-24.81,58.25-36.69,87.6-10,24.72-19.32,49.68-28.3,74.78-.73,2.05-1.66,4-2.5,6-13.57,31-27.51,61.75-39.76,93.27-5.12,13.19-10,26.44-17.58,38.56-13.49,21.49-32,37.24-54.33,48.76-23.58,12.14-48.8,19.47-74.51,25.33-8.06.51-16.13.89-23.89,3.51a22.76,22.76,0,0,0-9.66,5.75c-7.24,4.73-15.4,7.75-22.8,12.23-17.49,10.59-31.36,24.49-40.76,42.73C641.57,1027.45,640.82,1032.19,638,1036Z" transform="translate(-276.91 -11.93)"/><path class="cls-2" d="M638,1036c2.78-13.07,9.94-23.79,18.36-33.76,13.43-15.89,31.14-25.64,49.65-34.19,3.67-2.31,7.77-1.76,11.58-1.08,9,1.62,16.82.61,22-8,.25-.39.8-.58,1.22-.83,12.12-3.39,24.35-6.43,36.34-10.22,22.78-7.22,44.4-16.86,63.3-31.93,21.84-17.42,34.79-40.58,44.37-66.3,12.24-32.85,26.62-64.83,41.21-96.71a3.25,3.25,0,0,1,4.23-1.64c5.26,1.53,10.7,2.74,14.58,7.13.77.87,1.64,1.66,2.48,2.46,2.63,2.52,5.36,4.71,9.25,2.5a10.24,10.24,0,0,0,4.65-10.3,27.24,27.24,0,0,0-5-11.32c-1.66-2.21-3.14-4.57-.71-7.14s4.88-1.53,7.25,0c8.38,5.39,16.52,10.77,23.25,18.57,13.51,15.66,31,25.92,50.1,33.65,21.37,8.65,43.8,13.78,65.84,20.23,20,5.84,40.48,9.7,60,17.22a128.51,128.51,0,0,1,26.75,14.4c11.28,7.79,23.4,13.51,37.57,12.87,6-.26,11.87-1.6,17.79-2.45,6.15-.89,12.3-1,18.25,1.19,5.72,2.12,7.79,5.15,8,11.27a26.34,26.34,0,0,1-2.2,12.16,32.8,32.8,0,0,0-3.21,11.48c-.49,7.86,4.43,12.32,12.15,11,10.48-1.74,10.47-1.74,7.37,8.34a9.8,9.8,0,0,0-.23,1c-4.76,10.21-11.55,19.09-19,27.33-16.38,18-34.31,34.38-52.58,50.38-7.48,6.55-16.83,10.63-25.19,16.07-17.3,11.26-35.22,21.57-51.56,34.27-1.19.93-2.63,1.43-3.82,2.34Z" transform="translate(-276.91 -11.93)"/><path class="cls-3" d="M1283,906.07c-.09-2.41,1-4.51,1.8-6.68.34-.89,1.29-1.87.57-2.75-.85-1-2.13-.59-3.25-.2-.47.16-.94.33-1.42.45-5.11,1.35-10.34,2.39-14.36-2.16-4.38-5-3.19-10.77-1.48-16.4,1.34-4.42,4.07-8.36,4.15-13.21.18-10.69-3.52-14.47-14.33-15.18-7.57-.5-14.91,1-22.19,2.32-14,2.43-26.63-.9-37.92-8.42-16.45-10.94-33.68-19.83-52.8-24.92Q1112,811,1082.29,803c-20.67-5.59-41.32-11.35-60.48-21.17-15.32-7.86-29.18-17.7-40-31.43-5.69-7.22-14.27-10.71-21.63-15.77-1.71-1.17-3.14-.36-4.33,1.06s-.82,2.71.33,4c3,3.26,4.66,7.15,6,11.32a11,11,0,0,1-1,9.53c-3.69,6.4-9.15,7.45-14.11,1.93a32,32,0,0,0-16.37-9.75c-1.74-.46-3.18-.71-4.7.28,9.75-27.17,19.52-54.33,30.58-81q17.36-41.85,34.9-83.64c.63-1.51,1.51-2.93,2.27-4.39,1.25-1.46,1.37-3.38,2.12-5.05l-.06.06a3.86,3.86,0,0,1,3.2-2.09,19.93,19.93,0,0,1,3-.19c24.64.13,16.94.69,38.22-11,6.57-3.61,13.37-7,21.32-4.82,6.51,1.78,10.75,6.5,14.44,11.7a10.2,10.2,0,0,0,6.8,4.36,240.92,240.92,0,0,1,45.38,15.23c19.67,8.62,38.9,18.23,58.9,26.1a245.71,245.71,0,0,0,25.6,8.45c17.88,4.87,33.74,14.15,49.86,22.79A205.56,205.56,0,0,0,1296,663.8c1.73.56,3.59.85,5,2.2V892c-3,7-8.6,11.14-15.18,14.27A2.4,2.4,0,0,1,1283,906.07Z" transform="translate(-276.91 -11.93)"/><path class="cls-4" d="M420.07,715a8.73,8.73,0,0,1,2.78,9c-7.29,30.75.66,59,14.62,86,7.77,15.07,16.58,29.61,24.12,44.79,21.33,43,17.86,84.69-7.21,125.1-5.69,9.17-11.78,18.17-14,29-.69,3.41-1.2,6.87-2.19,10.19-3.75,12.51-10.55,16.07-23.08,12.27-6.92-2.1-12.91-6-19-9.78-34.19-21-65-46.33-93.55-74.41Q289.78,934.64,277,922V626c4.68.39,7.61,3.79,10.81,6.53a65.59,65.59,0,0,1,13.83,17c5.34,9,9.86,10.91,19.86,8.19,11.46-3.13,22.79-.93,34.18.3,7.26.79,14.5,1.9,21.89.92a42,42,0,0,0,14.71-4.52,18.5,18.5,0,0,1,7-2.57c4.92-.47,8.18,1.74,7.91,6.6-.84,15.62,4.39,29.87,9.37,44.19C418,706.68,418.56,711,420.07,715Z" transform="translate(-276.91 -11.93)"/><path class="cls-3" d="M580.07,415.11c-7,24.29-20,45.61-32.89,67-4.9,8.13-9.74,16.29-14.79,24.32-3.2,5.06-4.27,10.74-5.62,16.39-2.76,11.52-7.15,15.12-18.61,15.54-2.3-2.25-1.27-5-1-7.53.64-6.07-1.54-8-7.53-6.59-4.05.94-7.82,2.79-12,3.52-9.55,1.67-15.87-1.8-19.24-10.82-4.93-13.16-16.55-19.55-30.67-18.15-16.29,1.62-31.65-2.68-46.41-9.39-12.51-5.69-23.76-13.42-34.49-21.87-22.24-17.54-47.75-27.43-75.23-32.91-1.61-.32-3.34-.35-4.63-1.61V250c1.8-1.35,3.52-.29,5.21.23a40.44,40.44,0,0,1,20.14,14.12c9.11,11.63,21.72,17,35.74,17.07A102.52,102.52,0,0,1,393,297.34c26.35,16.34,55.24,26.24,84.51,35.42,15.41,4.84,30.88,9.49,44.52,18.62a82,82,0,0,1,17.09,16c3.47,4.14,7.19,7.79,12.33,9.85,4.86,1.94,9.12,1.06,13.05-2.14,1.42-1.16,2.64-2.54,4-3.79,4.87-4.56,10.37-5.71,16.57-3,.61.26,1.23.51,1.83.79,10.83,5.08,10.27,4.08,7.21,15.09-1.58,5-4.7,9.12-7.43,13.46C583.24,403,581.86,409.11,580.07,415.11Z" transform="translate(-276.91 -11.93)"/><path class="cls-5" d="M593,384a2.1,2.1,0,0,0,0-.5c-.64-3.45,5-7.26,0-10.25-11.43-6.82-17.49-6.86-23.68-1.06-2.75,2.58-4.89,5.87-9,6.84-9.67,2.27-16.13-3.13-21.26-9.75-10.82-13.94-25-22.69-41.27-28.42-23-8.09-46.64-14.47-69.26-23.8a269.41,269.41,0,0,1-34.58-17.7c-17.12-10.16-35.15-16.53-55.55-16.62-14.66-.06-27.78-5.49-37.22-17.88-6.05-7.94-14.39-12.69-24.16-14.85V147c8.22.28,13.25-4.83,17.89-10.6,2.17-2.69,3.93-5.73,6.63-8,1.68-1.4,3.48-2.55,5.85-2,8.53,5.48,16.69,11.44,25.64,16.33a302.38,302.38,0,0,0,34.51,15.71c36.28,14.28,71.48,30.92,106.52,48,29.07,14.14,58.9,26.51,90.29,34.71,5.8,1.51,11.64,2.9,17.54,3.92,14.77,2.55,16.25,18.06,10.76,26.81-.8,1.27-1.74,2.44-2.63,3.65-1.84,2.5-3.41,5.09-1.36,8.2,2.17,3.28,5.09,5.24,9.23,4.71a24,24,0,0,0,8.39-3.09c6.78-3.66,14-4.88,21.67-4.74,12.79.23,16.47,10.65,13.6,20.7-1.12,3.91-2.19,7.9-3.48,11.79-1.84,7.65-5.69,14.41-9.54,21.13-7.06,12.33-14.3,24.56-21.46,36.83-.76,2-2.14,3.33-4.42,3.18-3.74-.25-5.27,1.75-6,5.15C596.2,381.34,595.87,383.8,593,384Z" transform="translate(-276.91 -11.93)"/><path class="cls-6" d="M277,433c13.53,1.08,26.18,5.6,38.89,9.92,20.18,6.85,36.63,19.9,53.58,32.1,9.74,7,20.07,13,31.42,16.82,12.56,4.22,25.3,7.53,38.9,5.3,11.72-1.92,25.84,6.59,29.18,17.65,3.85,12.72,12.81,13.86,23.51,10.45,2.83-.91,5.64-2,8.52-2.7,5.21-1.35,8.94,2.09,7.74,7.42a28.31,28.31,0,0,0-.58,8.39c-.36,18.64-8.45,34.21-19.17,48.8-5.22,7.1-10.07,14.47-15.09,21.72-.48.86-.67,2-1.38,2.62-9.73,9.11-13,21.62-17.65,33.42-.73,1.85-1.29,3.76-2.8,5.17-8.73,9.67-12.29,21.78-16.12,33.79q-2.86,9-6.34,17.72c-1.66,4.19-3.84,8.15-8.32,10.08-1.64.71-1.51,2-1.22,3.31-.6-.54-1.56-1-1.73-1.65-3.71-13.77-9.75-26.86-12-41-.59-3.74-.31-7.63-.33-11.46-.05-8-3.41-10.07-10.72-6.46-5.67,2.8-11.3,5.08-17.78,6-7,.95-13.89.07-20.63-.74-13.49-1.63-26.79-4-40.12.92-3.91,1.45-12-2.36-14.39-7A72,72,0,0,0,277,626Z" transform="translate(-276.91 -11.93)"/><path class="cls-7" d="M1301,666c-8.34-1.07-15.89-4.55-23.52-7.78-10.73-4.55-20.79-10.38-31-16-13.75-7.56-28.4-12.82-43.45-17.15-18.58-5.34-36-13.78-53.42-21.87-21-9.72-42-19.36-64.59-24.48-5.25-1.19-8.66-2.91-11.64-7.5a20.89,20.89,0,0,0-12-9.26c-7.43-2-13.65,1.36-19.84,4.37-4.43,2.15-8.43,5.17-12.71,7.67a27.74,27.74,0,0,1-14.66,4.09c-6.09,0-12.3-1.17-18.32.85-1.37-4.41.66-7.74,3.53-10.69,2.67-2.74,5.37-5.42,6.51-9.23-.35-1.91.9-3.09,2-4.3,10.67-11.56,15.77-25.53,17.82-40.85.37-2.77.48-5.65,2.19-8.07,3.84-15,11.1-28.65,16.77-42.92,2.82-7.1,5.33-14.35,6.12-21.92.56-5.35,2.91-7.38,7.93-7.1,2.81-1.23,3.92,1,5.14,2.68,3.86,5.41,3.82,11.54,3.09,17.77-.59,5-1.59,9.88-1.61,14.89a11.67,11.67,0,0,0,1.13,5.89c2.9-4.15,4.83-8.5,7.19-12.57a77.46,77.46,0,0,1,7-10.3c4.39-5.31,9.23-7,15.56-4.59,15.18,5.78,31,9,46.77,12.55,14.09,3.17,27.33,8.27,39.29,16.67a124.52,124.52,0,0,0,51,20.88c11.78,2,22.13,6.39,31,14.79,8.08,7.63,18.19,12.2,28.93,15.18,2.71.75,5.58,1.18,7.73,3.27Z" transform="translate(-276.91 -11.93)"/><path class="cls-8" d="M756.08,98.17C748.87,122,740,145,722.67,163.71c-1.12,1.2-2.44,2.21-3.67,3.3-1.43-2.43.7-4,1.44-5.92.89-2.23,1.8-4.46,0-6.58s-4.32-2.3-6.89-1.81-4.82,2.19-7,3.77c-5.35,4-10.61,8.08-17,10.32a48,48,0,0,1-29.46.75,16.58,16.58,0,0,1-10-7.83c-2.6-4.38-1.49-8.41,2.86-11.08,2.27-1.4,4.85-2.27,6.86-4.07,1.59-1.42,3.64-2.76,2.83-5.35a6.75,6.75,0,0,0-5-4.45c-3.34-.92-6.6-.13-9.85.65a130,130,0,0,1-26.09,4c-19.93.71-35.44-7.45-47.84-22.46-6-7.25-13-11.58-23-11.94-17.8-.63-34.22-6.72-49.56-15.6C485.07,80,469.24,69.83,452.56,61c-11-5.8-16.45-15.75-17.63-27.95-.9-9.29,7.27-18.56,17.27-20,1.95-.28,3.95-.27,5.8-1.07H670a11.68,11.68,0,0,1,2,2.24c4.25,7.92,11.52,11,19.85,11.33,13.21.46,24.55,5.44,35,13,9.45,6.81,18.16,14.61,27.83,21.13a18.27,18.27,0,0,1,1.9,1.62c9.24,8.46,9.73,13,2.24,23-2.38,3.21-4.43,6.27-2.42,10.46A3.91,3.91,0,0,1,756.08,98.17Z" transform="translate(-276.91 -11.93)"/><path class="cls-9" d="M1116.74,286.92c3.55-32.35,17-60.87,34.08-88,4.67-2.24,9.47-1.73,14,0,5.56,2.08,6.26,6.16,2.17,10.4-1.74,1.8-3.91,3.11-5.66,4.9-5,5.07-5.14,10.14-.38,15.34a57.62,57.62,0,0,1,7.52,10.56c2.7,4.75,6.83,6.64,11.8,5.19,28.46-8.3,53.43,1,77.54,15,5,2.92,10,6.08,15,9,6.17,3.51,12.69,5.76,20,5.49,2.75-.1,5.71-.74,8.18,1.29V438c-5.21.66-9.19-2.38-13.25-4.74a42.84,42.84,0,0,1-12.6-11.21c-2.09-2.74-4.61-4.89-8.05-5.51-24.22-4.38-46.85-13.76-69.6-22.63a452.91,452.91,0,0,0-51.85-16.18c-5.1-1.31-10.34-2.39-14.71-5.66,1.26-1.63-.16-2.78-.77-4.07a11.3,11.3,0,0,1-1.45-4.57c-.32.95.42,2.38-1.18,2.79-3.06-2.39-1.78-5.45-1-8.2a100.45,100.45,0,0,1,6.81-17.62,64.64,64.64,0,0,0,3-6.31c1.79-4.81.74-6.7-4.44-7.55-2.78-.45-5.59-.76-8.36-1.3-7.13-1.37-9-5.92-5-11.81.66-.95,1.4-1.85,2.07-2.8,6.08-8.65,5.58-14.19-1.95-21.46A7.54,7.54,0,0,1,1116.74,286.92Z" transform="translate(-276.91 -11.93)"/><path class="cls-10" d="M458,12c-1.19,1.34-2.92,1.54-4.49,1.91-18.41,4.35-20.7,17.57-13.57,32.42,3.36,7,9.05,11.71,16,15.16,15.77,7.86,30.36,17.78,45.64,26.49,13.64,7.77,27.95,13.71,43.87,15.09,8.65.75,17.75.59,24.52,7.52,4.17,4.27,8,8.87,12.27,13.06,9.53,9.39,21.2,13.76,34.48,14.39,11.43.54,22.4-1.71,33.36-4.51,4.86-1.24,9.63-1.28,13.16,3.26,1.87,2.39,2.25,4.45-.28,6.93s-5.61,4.08-8.71,5.69c-4.84,2.51-5.63,6.64-2.26,11,4.37,5.66,10.62,6.91,17.19,7.6,14.75,1.54,26.88-4.17,37.78-13.43,2.31-2,4.85-3.47,8-3.59,6.93-.28,9.8,4,7,10.31-.88,2-2.76,3.39-2.9,5.7-3.22,10-8.49,19.05-12.75,28.57a2.54,2.54,0,0,0-.17.46c-1.15,6.75-.89,14-10,16.36-2.87.73-3.34,5.11-4.11,8.16-.88,3.54-1.58,7.12-3.12,10.46-1.66,3.59-4,7.15-7.84,7.85-6.47,1.18-7.79,5.21-7.94,10.71a22.94,22.94,0,0,1-2,9.63c-1.8-1.64-1.08-3.66-.86-5.61.51-4.46,1.61-8.86,1.61-13.37,0-2.34-.12-5-2.59-6.06-2.78-1.16-4.14,1.35-5.53,3.17-6.65,8.72-8.69,8.57-13.54-1.06-13.86-27.5-34-48.33-63.3-59.32a138.88,138.88,0,0,0-48.45-8.54c-28.74-.14-54.37-8.58-76.68-26.76-10.84-8.82-20.94-18.55-32.61-26.36-8.89-5.94-18.57-9.94-29.22-10.7a46.15,46.15,0,0,0-27.67,7.05c-6.63,4.09-12.55,4.41-19.11.43a32.64,32.64,0,0,0-16-5.08c-9.61-.29-16.81,4.22-22.79,11.36-2.41,2.89-3.75,6.73-7.32,8.64-5.66.87-7.72,5.86-10.72,9.63a45.52,45.52,0,0,1-10,9.54c-3,2.05-6,2.53-9.32.83V132c2.05-3.86,5.1-7,8.06-10.08,20.71-21.36,41.7-42.44,65.92-60A333.45,333.45,0,0,1,391.53,36.6c1.57-.83,3.18-2.08,5-.38,1.41,3.19.65,6.55.79,9.84.35,8.41,4.76,11.18,12.62,8a26.49,26.49,0,0,0,10.26-7.67,90.33,90.33,0,0,1,7.34-8.24c-7.37-1.37-15-.89-21.88-4.47-.4-3.8,1.78-6.62,3.94-9.24C414.25,18.74,419.89,14.31,427,12Z" transform="translate(-276.91 -11.93)"/><path class="cls-11" d="M939.4,96c-.08-5.28-.17-10.57-.21-15.86,0-1.82.12-3.65-1.26-5.12a83.37,83.37,0,0,0-4.69-43.64c-1.39-3.53-3.38-4.95-7-5-5.31,0-10.69.64-15.91-.92-6.73-2-9.11-7.16-6.31-13.48h217c23.26,7.49,43.59,20.39,63,34.8s37.71,30.53,55.89,46.64c14.27,12.66,26.74,26.83,38.29,41.88,1.53,2,4.44,4,2.38,7.29-4.69,1.75-9.27,0-13.8-.66-23.75-3.41-45.85-11.26-65.73-25a54.94,54.94,0,0,0-19.4-8.91c-8.74-1.93-16.54-.12-23.18,6a102.36,102.36,0,0,0-9.56,10.19c-5.16,6.27-11.87,9-20,7.73-6.85-1.05-10.91-5.2-12.27-12-1.67-8.27-.82-16.61-.93-24.92a22.07,22.07,0,0,0-4.11-12.6c-1.69-2.43-3.28-3.34-4.95.13-5.86,12.19-16.51,17.76-29,20.72-7.31,1.73-14.77,2.5-22.18,3.6-2.21.33-4.35.31-5.92-1.68-1.22-2.58-1.31-5.49-2.49-8.1-2.86-6.32-7.26-8.64-14.09-7.25a153.71,153.71,0,0,0-16.32,4.72c-7.52,2.42-14.66,2.93-20.8-3.57-2.57-2.72-5.49-1.37-7.17,1.28-4.06,6.42-6.86,13.32-5.9,21.2.13,1,.36,2,.43,3,.25,3.31-.2,6.36-3.24,8.39s-5.46.35-8-1c-10.12-5.33-13.22-14.93-8.26-25.35,1.43-3,3-5.93,5-9.38-4,.85-7.2,2.58-10.44,4.09-4.52,2.12-9,4.42-14.26,4C942.41,97.18,940.67,97.43,939.4,96Z" transform="translate(-276.91 -11.93)"/><path class="cls-12" d="M1116.74,286.92c8.12,3.31,11.77,12.44,7.76,19.95-1.54,2.89-3.69,5.46-5.53,8.2-2.72,4.07-1.26,7.92,3.42,8.81a80.61,80.61,0,0,0,8.32,1.1c8.08.64,9.91,3.57,6.27,10.94a143.92,143.92,0,0,0-9.24,22.46c-.78,2.6-1.36,5.1.1,7.62,1.6.18,2,1.63,2.71,2.66.43.74,1.06,1.44.45,2.38,3.57,2.57,7.84,3.78,11.91,4.65,32.32,6.93,62.42,20.36,93.34,31.38A205.64,205.64,0,0,0,1266.5,415c3.23.62,6.32,1.72,8.17,4.35,6.61,9.37,15.77,15,26.33,18.69v93c-15.39-3.12-29.3-9.2-40.77-20.25-7.38-7.11-16.73-10-26.48-11.59-20.89-3.47-39.47-12.16-56.76-24.11-10.81-7.48-23.24-11.16-35.9-14-14.86-3.32-29.83-6.17-44-11.9-6.93-2.78-11.54-1-16.07,4.78-5.93,7.61-9.69,16.5-15,25.07-3.46-8.35-1.4-16.28-.35-24.15.89-6.76.92-13.24-3.59-19a4.48,4.48,0,0,0-3.24-2c2.94-3.9,2.77-8.75,3.87-13.18,10.29-41.43,26.7-80.48,45.93-118.44C1111.17,297.09,1114,292,1116.74,286.92Z" transform="translate(-276.91 -11.93)"/><path class="cls-13" d="M1050,105c3.23,2.34,6.53.32,9.66-.1,10-1.33,20-2.34,29.37-6.83,8-3.86,14-9.52,17.19-17.79,1.59-4.17,3-2.88,4.89-.63,3.61,4.29,5.88,9,6,14.86.12,8-.8,15.92.75,23.88,2.05,10.52,9.18,15,19.6,12,4.87-1.41,8.42-4.31,11.57-8.19,5.13-6.33,10.45-12.62,18.7-15.1,10-3,19.24-.11,27.6,5,14.52,8.78,28.71,18.06,45.27,22.73,13.25,3.73,26.59,6.93,40.46,7.26a42,42,0,0,1,20,18V276c-17.3,2.73-30.55-6.53-44.26-14.73-13.32-8-27.33-14.71-42.83-17-10.28-1.5-20.75-1.33-30.9,1.83-8.11,2.52-11.59,1-16.15-6.28-2-3.22-4-6.52-6.72-9.26-5.69-5.65-5.62-11.68.15-17.32,1.89-1.85,4.15-3.32,6-5.16,3.64-3.53,3.06-6.08-1.68-8.07-4.49-1.88-9.23-.67-13.84-1.11l.06-6.87c-1.07-2.87.45-4.77,2.52-6.35a22.89,22.89,0,0,0,5.44-5.71c4.28-6.59,3.5-11.4-2.74-16.34-2.18-1.73-4.84-2.93-6.16-5.6-3.38-1.72-6.69-3.59-10.16-5.12-9.18-4.05-15.71-1.11-18.7,8.26-6.85-10.88-17.85-16.31-28.74-21.88-6.53-3.34-14-4.1-20.61-7.09-1.41-2-.79-4.46-1.17-6.69-.77-4.53-2.94-5.59-6.87-3.28-2.27,1.33-4.23,3.12-6.53,4.41s-4.6,1.8-6.62-.57q-2.82-6.46-5.63-12.91C1044.91,109.4,1048.3,107.72,1050,105Z" transform="translate(-276.91 -11.93)"/><path class="cls-14" d="M904,12c-1.37,11.34,5.21,12.88,13.29,13,1.83,0,3.66,0,5.49,0,12.89-.12,9.49-.22,12.94,9.79,2.42,7,5,14.06,4.89,21.62-.05,5.76-.45,11.52-.79,17.28-.05.9-1,1.19-1.89,1.34-2.56-1.16-5.1-2.4-7.7-3.48-10.31-4.29-18.82-1.62-24.65,8.46C895,98.34,883,115.75,871.13,133.23c-6-5.9-12.78-8-20.92-5-3.05,1.15-4.29-.63-4.44-3.49a16.45,16.45,0,0,1,.6-4.94A57.12,57.12,0,0,0,847.61,104c-.23-7.25-3.23-11.52-10.11-13.77A50.79,50.79,0,0,0,816.93,88c-.13-11.38,4.35-20.66,11.63-29.38,10.72-12.84,5.64-29-9.81-33.87-6.36-2-11.43.36-16,4.28a24.8,24.8,0,0,0-7.63,10.37c-6.05,17.18-17.26,31-28.58,44.79-3.68,4.49-7,9.32-10.43,14-.11-.82.07-1.87-.37-2.43-3.09-4-1.75-7.5,1-10.81,10.13-12.22,7.06-16.46-4.46-25.35Q739.46,49.71,726.53,40c-10.43-7.84-21.84-12.79-35.23-13.16C681.31,26.58,671.8,21,670,12Z" transform="translate(-276.91 -11.93)"/><path class="cls-1" d="M1301,160a125.53,125.53,0,0,0-20-18c-10.43-16.4-23.52-30.59-37.67-43.73-16.56-15.39-33.81-30-51.59-44-20.47-16.1-42.18-30.14-66.51-39.79A10,10,0,0,1,1121,12q88.11,0,176.23-.07c3.06,0,3.86.61,3.85,3.79Q1300.9,87.86,1301,160Z" transform="translate(-276.91 -11.93)"/><path class="cls-1" d="M1283,906.07c7.68-2.53,13-8,18-14.07q0,70.25.08,140.5c0,3-.6,3.59-3.58,3.58q-82.76-.16-165.5-.08c5.12-6,11.84-10,18.3-14.3,17.19-11.33,34.22-23,52.1-33.17,11.12-6.33,19.45-15.43,28.59-23.73,15.88-14.41,31.89-28.8,44.29-46.54C1278,914.32,1280.45,910.14,1283,906.07Z" transform="translate(-276.91 -11.93)"/><path class="cls-1" d="M396,35.82c-21,10.22-40.12,23.34-58.22,38-19.94,16.12-38.1,34.13-55.36,53.05-1.67,1.83-3.58,3.44-5.37,5.15,0-38.76.05-77.52-.09-116.28,0-3.19.81-3.8,3.86-3.79q73.11.15,146.23.07c-3.28,2.22-6.64,4.33-9.82,6.69A32.85,32.85,0,0,0,406,33C403,35.09,399.06,34,396,35.82Z" transform="translate(-276.91 -11.93)"/><path class="cls-15" d="M307,127c4.65-8.68,10.62-16.22,20-19.89,7-2.73,14.27-1.82,21.22,1a24.13,24.13,0,0,1,4.45,2.25c6.7,4.53,12.58,3.82,19.76-.3,18.18-10.43,36.57-8.6,54.22,2.1,12.4,7.52,22.81,17.59,33.88,26.82,15.95,13.31,33.83,22.68,54.58,26a158.6,158.6,0,0,0,22.73,2.08c25.64.43,50.13,5.67,71.88,19.93,14.92,9.78,26.72,22.81,35.81,38.19,2.78,4.71,5.19,9.66,7.78,14.49,2,3.68,3.91,3.94,6.67.69,1.5-1.76,2.56-3.88,4-5.74s3.06-3,5.55-2.57,2.48,2.48,3,4.11c2,6-.61,11.75-1.07,17.62a44.46,44.46,0,0,0-.38,5.42c-2.25,12.72-9.27,22.9-17.39,32.47a26.73,26.73,0,0,1-2.76,2.87c-5.88,5.1-11.51,10.35-12.89,18.56-.16-6.36,3.56-12,3.07-18.55-.59-8.07-4.68-12.26-12.89-12.63a41.86,41.86,0,0,0-23,5.39,18,18,0,0,1-9,2.7c-4.61,0-7.23-2.88-9.44-6.36s-.32-6.24,1.78-8.56a19.45,19.45,0,0,0,5.46-15.4c-.49-6.42-3.92-11.27-10.46-12.72-12.62-2.79-25.15-5.89-37.5-9.76a466.73,466.73,0,0,1-49.72-19c-39.61-17.57-77.76-38.3-118.32-53.85-16.24-6.23-32.48-12.7-47.66-21.48C322.23,138.09,314.15,133.26,307,127Z" transform="translate(-276.91 -11.93)"/><path class="cls-16" d="M722,441c-2.12,11.66-7.17,22.26-13.34,32.1-18.13,28.89-31.76,60-46,90.84-10.58,23-21.53,45.86-37,66.12-8,10.5-17.06,12.3-29,6.43-3.74-1.83-7.62-3.39-11.27-5.37-9.65-5.27-12.31-11.27-9.62-22A297,297,0,0,1,594.26,558c24.13-52.7,48.24-105.4,73.93-157.37a205,205,0,0,1,15.52-26.75c1.62-1,3-.27,4,.89,7.34,8.34,15.83,15.72,20,26.54,2.43,6.24,2.51,12.72,3.23,19.11.75,6.7,3.47,11.33,10.09,13.35,1.05.32,2.33.69,2.07,2.31V436C721.63,437.42,723.25,439.52,722,441Z" transform="translate(-276.91 -11.93)"/><path class="cls-17" d="M826,342c2-4.5,1.86-9.33,2.07-14.1.1-2.37.2-4.7,2.26-6.32,7-5.46,10.29-13.27,13.72-21.06,16.38-37.25,31.82-74.92,50.23-111.25,2.85-5.61,5.63-11.3,9.5-16.32,2-2,2.93-.6,3.34,1.26,2.79,12.68,12.31,18,23.48,21.28,5.37,1.6,10.44,3.47,14,8.05a15.64,15.64,0,0,1,3.5,9.2,45,45,0,0,0,1.71,12.3c.94,2.91-.19,5.48-2.43,7.67-3.36,3.27-3.27,3.32,1,5.63,1.21.64,3.11.76,2.7,2.93.08,8.46-2.95,16.08-7.19,23.07a299.51,299.51,0,0,0-25.53,51.84c-6.24,16.88-16.5,31.93-25.14,47.7-8.26,15.11-15.77,30.47-19.83,47.32a13.8,13.8,0,0,1-1.83,4.62c-15.79,22.6-24.66,48.65-36.54,73.2-6.67,13.79-13.92,27.29-20.82,41-4.55,9-12.11,15.36-19.15,22.19a2.13,2.13,0,0,1-.43-2.7c3.74-8.05,5.81-16.7,9.06-24.93,8.93-19.35,18.71-38.29,28.25-57.34q16.66-33.27,32.86-66.79c.43-.9.89-1.79,1.25-2.72,3.35-8.7,3.91-10.9-5.49-12.7a10.72,10.72,0,0,1-2.75-1.18c-5.63-2.94-6.55-6.87-2.19-11.58,4.09-4.42,8.06-8.77,10.55-14.4a67.6,67.6,0,0,0,4.9-14.11c.79-2.43.35-5,.58-7.42.4-4.18,2-5.54,6.15-5.31.82.05,1.64.26,2.46.35,5.22.58,7.77-1,8.08-4.9.36-4.51-4.35-9.94-8.61-9.92s-6.52,3.28-6.1,8.41c.55,6.64.26,7.12-4.85,8.08-14.19-1.61-27.87-.92-39.7,8.5C828.24,342.25,827.22,342.85,826,342Z" transform="translate(-276.91 -11.93)"/><path class="cls-18" d="M805,525q-4.93,13.59-9.85,27.18c-15.25,37.79-29.87,75.88-52,110.45-.18.28-.35.56-.52.85-13.6,23-32.45,21.44-52,5.78-7.89-6.33-10-15-6-24.28,5-11.78,10.48-23.38,16.07-34.9,21-43.3,39.19-87.84,58.13-132.05,2.9-6.77,6.19-13.23,11.12-18.79a45.59,45.59,0,0,0,3.56-5.35c2.41-3.11,4.17-6.71,7-9.51.84-.82,1.79-1.71,3.05-1.36s1.55,1.72,1.57,2.85c.26,13.85,7.64,25,14.07,36.38,5.66,10,8.42,20.26,3.73,31.45a4.74,4.74,0,0,0,1.17,5.88C805.82,521.12,806,523,805,525Z" transform="translate(-276.91 -11.93)"/><path class="cls-19" d="M723.13,436.08c-5-2-10.63-3.5-12.28-9.6a43.07,43.07,0,0,1-1.75-11.17c0-11.09-5-20-11.63-28.24-3.33-4.1-7.77-7.23-10.71-11.73a3.8,3.8,0,0,0-3-1.46c-.61-8.88,3.09-16.51,6.93-24.1,14.86-29.37,29.27-58.95,41.27-89.63q2.18-5.58,4.13-11.23c1.7-4.85,3.13-9.53,8.43-12.24,3.4-1.75,4.47-5.93,5.6-9.67,1.67-5.49,2.13-11.58,6.95-15.69,1.11-1,2-2.28,3.64-2.43,7.77-8.73,16-10.29,26.77-5.14a126.58,126.58,0,0,1,13.89,7.88c4.16,2.68,4.15,4.34-.13,6.65-5.13,2.77-10.6,4.82-15.9,7.23-6.22,2.82-12.49,5.57-17.76,10.06-5,4.23-4.69,13.71.42,17.72,1.79,1.4,2.4-.09,2.92-1.24,1.37-3,2.59-6.14,4.2-9.06,3.8-6.9,8.51-8.59,15.83-5.84,11.82,4.45,16.28,12.92,12,27-2,6.66-6.68,11.85-10.89,17.21-4.32,5.51-8.69,11-11.46,17.49-2.32,5.44-3.62,10.88-2.49,17,1.24,6.68.64,13.52,0,20.28-1.58,10.94-7.47,19.94-13.73,28.5-10.91,14.92-20.37,30.34-24.46,48.7C737.66,423.1,731.46,430.5,723.13,436.08Z" transform="translate(-276.91 -11.93)"/><path class="cls-20" d="M1100.07,203.14c-.54,11.25-5,21.3-10,31.05-9.67,18.71-20,37-27.85,56.7C1055,309,1042.83,324.53,1032.56,341c-9.28,14.93-17,30.47-18.61,48.41-.42,4.82-4.74,3.69-7.65,4.69-11.17-.55-19.16-12.24-15.55-23.69,3.2-10.15,2.24-19.35-4.06-27.88-3.17-4.28-7.22-7.78-11.1-11.42-1.09-1-2.43-1.77-3.17-3.13-1.19-5,1.19-9.44,2.76-13.91,3.31-9.4,8.06-18.2,12-27.33a78.73,78.73,0,0,0,6.58-26.93c5-23.68,14.52-45,32.48-61.83,2.6-1.11,3.09,1.2,3.9,2.6,1.74,3,3.09,6.26,5.26,9,3.76,4.8,9.3,5.5,13.92,1.5a64.65,64.65,0,0,0,10.37-11.4c5.61-7.88,12.86-12.89,23.12-12,6.45.54,11.65,3.53,16.12,8C1101.13,197.91,1100.76,200.51,1100.07,203.14Z" transform="translate(-276.91 -11.93)"/><path class="cls-21" d="M778,336.07a166.15,166.15,0,0,0-1.74-23.75c-1.21-8.59,3.4-16.11,8.05-23,4.51-6.73,9.67-13,14.45-19.58,4.16-5.7,4.93-12.28,4.09-19-.89-7.08-12.94-15.23-19.76-13.55a9.64,9.64,0,0,0-6.55,5.7c-1.74,3.77-3.48,7.54-5.18,11.33-1.22,2.74-2.34,3.25-4.36.44-5-6.91-6.36-14.21-2.55-18.23A34.51,34.51,0,0,1,775,229c8-3.69,16-7.33,24-11,1.61-.74,3.13-1.67,4.87-2.61-19.53-13.49-28-18.43-43.23-6.47a309.08,309.08,0,0,1,25.21-62.3Q801.41,117.3,816.93,88c1.11-.62,1.69-2.18,3.29-2,7.64,1,15.56.73,22.48,5.1a12.67,12.67,0,0,1,6.23,10.68c.28,6.45.28,12.9-1.4,19.27-1.54,5.84-.9,6.39,4.65,5.05,8.75-2.11,16.16.67,19,7.11-4.34,19.18-10.13,37.56-20.71,54.64-17.37,28-30.46,58.39-43.36,88.72a297.17,297.17,0,0,1-17,33.3c-1.09,1.87-2.35,3.64-3.62,5.39a42.33,42.33,0,0,0-7.68,19A8.17,8.17,0,0,1,778,336.07Z" transform="translate(-276.91 -11.93)"/><path class="cls-22" d="M973,328c11.4,8.3,21.35,17.55,20.92,33.24a31.4,31.4,0,0,1-1.47,7.74c-3.29,11.35-1.77,15.66,8.16,22.1,1.8,1.16,3.78,2.05,5.67,3.07-1.27,13.7-8,25.21-14.92,36.59S978.8,454,973.13,466.05c-18.89,40.14-37.23,80.6-59.66,119-2,3.43-4.28,6.72-6.43,10.07-1.75-1.73-.84-3.73-.54-5.65,2.29-15,8.47-28.67,15-42.18,4.83-10,10-20,14.92-29.94a51.77,51.77,0,0,0,4.77-12.58c1.52-7.42-3-13.64-10.45-14.51-2-.23-3.93-.73-5.92-.89-8.81-.7-14.8-5.36-18.59-13.16a61.18,61.18,0,0,1-3.05-7.37c-.95-2.86-2.62-3.75-5.39-2.85,4.2-11.9,8-23.94,14.19-35.06,13.32-24,23.09-49.78,36-74,.55-1,1.2-2,1.8-3,.65-6.25,5.26-8.41,10.38-10,2.51-.78,5.11-1.32,7.27-3,3-2.25,4.64-5.07,4-8.94C971.48,330.51,971.7,329,973,328Z" transform="translate(-276.91 -11.93)"/><path class="cls-23" d="M951.17,241.26c-1.88-2.34-5.32-1.64-7.34-3.86-1.56-1.72-2.16-2.85.42-4.05,5.14-2.41,6-6.24,3.42-11.09-1.08-2-.64-4.24-.65-6.38-.06-9.95-3.95-15.35-13.71-18.2-7.71-2.24-15.1-4.79-21-10.72a21.64,21.64,0,0,1-6.27-12.15c-.25-1.62-.38-2.6-2.28-1.87,8.37-24.34,18.42-47.92,31.39-70.2,1.33-2.28,2.8-4.49,4.2-6.73,7.45,1,14.07-1.39,20.42-4.93,3.48-1.94,7.3-2.92,11.8-4.4-2.6,4.86-4.78,9-7,13.13a16.84,16.84,0,0,0-1.67,6.15c-1.37,10.81,6,15.34,12.82,18.34,3.2,1.41,6.08-1.09,6.24-5.31.18-4.73-1.72-9.32-.13-14.25a61.7,61.7,0,0,1,5.52-13.24c2.67-4.4,6.71-4.34,10.35-.45,3.93,4.22,8.95,4.83,14.23,3.42,5.91-1.57,11.72-3.59,17.64-5.16,12.7-3.36,20.13,2.4,20.41,15.69.47,4.07-3.89,5.14-5.09,8.19-19.65-6.31-29.23,3-37.05,15-7.58,11.58-11.11,24.88-15.89,37.65-8.06,21.52-15.82,43.2-29.78,61.87C958.7,232.36,954.85,236.75,951.17,241.26Z" transform="translate(-276.91 -11.93)"/><path class="cls-24" d="M805,525c-.11-1.28.52-3-.84-3.69-4.58-2.44-3.67-5.66-2-9.51,4.16-9.73,1.43-18.79-3.32-27.5-4.29-7.85-8.88-15.53-12.22-23.88-2.13-5.34-2.51-10.86-2.7-16.92-5,2.3-5.48,8.58-10.35,10.39C772.4,440.4,777.78,429,784.69,418a41,41,0,0,1,2.46-3.75c10.49-13.3,16.83-28.33,20.19-44.94,2.32-11.44,7.08-21.88,18.68-27.29,10.9-9.39,23.85-11.73,37.71-11,1.83.1,3.64,0,5.27,1,5.15,3,2.13,8,3,12a48.49,48.49,0,0,1-11.8,25.31c-2.55,2.9-7.24,5.12-5.83,9.69,1.3,4.2,6.14,4.71,9.89,5.83,6.13,1.82,6.77,2.65,4.7,8.74-3.65,10.75-9.37,20.58-14.28,30.74-13.76,28.49-28.19,56.65-42.3,85C809.79,514.46,807.45,519.75,805,525Z" transform="translate(-276.91 -11.93)"/><path class="cls-25" d="M897.76,466c1.61-.53,1.55-2.49,2.87-3.4,2.62,2.1,3.73,5.13,4.57,8.05,3.76,13,13.08,17.86,25.72,18.41,8.11.35,13.46,7.92,11.61,15.93a50.94,50.94,0,0,1-3.88,10.71c-7.23,14.94-14.71,29.77-21.79,44.78A107.67,107.67,0,0,0,907,595.09c.23,2.62-1.59,4.23-3,6-9.18.81-17.73,4.29-26.61,6.36-2.34.55-2.26,2-1,3.73,2,2.84,4.57,5.28,6.59,8.13,5.77,8.12,4.05,15.5-4.71,20.35-10.16,5.62-17.11,4.31-24.45-4.86-5.82-7.28-10.49-15.36-15.44-23.24-1.34-2.13-2.64-4.22-4.75-5.68q31.19-68.48,62.37-137C896.52,467.92,897.19,467,897.76,466Z" transform="translate(-276.91 -11.93)"/><path class="cls-26" d="M833.68,605.93c3.77-1.4,4.07,2.25,5.14,4,5,8,10,16.06,15.55,23.7,7.06,9.69,16.43,10.91,25.91,3.55,6.52-5,6.65-11.73.38-19-2.17-2.51-4.32-5-6.49-7.54-1.65-1.93-1.41-3.18,1.19-3.88,9-2.41,17.91-4.89,26.87-7.32,1.43-.38,1.63.69,1.83,1.7-14.08,43-29.26,85.42-61.33,119.15-.57.6-1.2,1.15-1.8,1.72-4.14,2.29-8.72,1.89-13,1.44-7-.73-14.16.09-21-2.28-14.12-12.88-16.33-24.82-8.42-42,8.34-18.15,16.23-36.51,24.44-54.72A83.81,83.81,0,0,1,833.68,605.93Z" transform="translate(-276.91 -11.93)"/><path class="cls-27" d="M1100.07,203.14c-.26-6.8-7.48-13.23-15.52-14.16-10-1.16-17.68,2.76-23.21,10.66A84.4,84.4,0,0,1,1050.5,212c-5.24,5.07-11.93,4.18-16.4-1.58-3-3.89-3.5-9.35-7.85-12.35,2.68-11.77,4.89-23.69,9.9-34.8,3.95-8.75,8-17.46,13.75-25.25,1.17-1.92,3-1.74,4.84-1.5,6.35.83,12.17-.41,17.26-4.47,18.47,2.7,33.73,11.77,47.59,23.74,1.94,1.68,1.1,3.62,1.49,5.46-1,13.45-7,24.63-16.08,34.26C1102.84,197.75,1100.6,199.86,1100.07,203.14Z" transform="translate(-276.91 -11.93)"/><path class="cls-28" d="M973,328a6.87,6.87,0,0,1-1,4c-5.28,2.59-9.63,2.17-12.15-1.19,6.82-25.8,16.85-50.05,33.92-70.95,3,4.19.22,8.36-.49,12.3-2.28,12.55-9.06,23.44-13.88,35.06C976.61,313.93,973.47,320.55,973,328Z" transform="translate(-276.91 -11.93)"/><path class="cls-29" d="M593,384a9.18,9.18,0,0,0,2.81-6.61c.22-3.93,2.31-4.62,5.51-4.38,2.17.16,4.26,0,5.74-1.92q-1,6.89-2,13.77c-2.2,15.15-10.92,24.92-25,30.26-1.1-7.9,3.23-14,6.81-20.32C588.94,391.2,591.3,387.78,593,384Z" transform="translate(-276.91 -11.93)"/><path class="cls-30" d="M1027.93,505.83c-1.4,19.07-6.31,36.76-20.15,50.92-.69.7-1.25,1.53-1.87,2.3-1.42-7.29.26-14.13,3.12-20.76,4.28-9.9,10.56-18.91,13.06-29.62C1022.79,505.7,1025.92,506.68,1027.93,505.83Z" transform="translate(-276.91 -11.93)"/><path class="cls-31" d="M452.07,650.08c4.67-14,8.39-28.55,19.54-39.36a29.36,29.36,0,0,1,2.29-1.85c-.21,9,1.68,18.29-3.18,26.79A29,29,0,0,1,452.07,650.08Z" transform="translate(-276.91 -11.93)"/><path class="cls-11" d="M1072,132c-1.86,5.67-7.12,4.93-11.4,6-3.54.86-7.13-1.24-10.7,0q.31-5.94.64-11.87c4,2.13,6.54-.89,9.33-2.67s5.32-5.48,9-3.69,3.23,6.13,3.15,9.78C1072,130.35,1072,131.18,1072,132Z" transform="translate(-276.91 -11.93)"/><path class="cls-32" d="M959.85,330.8c3.84,2.55,8.12.56,12.15,1.19,1.61,4.53-.22,8.54-5.29,11.08a27.84,27.84,0,0,1-5.63,1.9c-5.12,1.31-9.42,3.61-11.29,9,.13-3.43.45-6.87.37-10.3C950,336.73,953.39,332.65,959.85,330.8Z" transform="translate(-276.91 -11.93)"/><path class="cls-33" d="M1149.94,158.06c3,2.09,6.28,3.83,8.83,6.35,6.68,6.59,5.49,13-3.21,21.15-2,1.93-4.69,3.19-4.68,6.5-1.74-5.48-.58-11.11-.8-16.67C1149.85,169.62,1150,163.84,1149.94,158.06Z" transform="translate(-276.91 -11.93)"/><path class="cls-34" d="M740.84,958.16c-4.2,9.07-9.07,12-19.46,10.66a136.62,136.62,0,0,0-15.37-.77c4.54-6,11.39-7.61,18.1-8.74C729.57,958.39,735.19,957.4,740.84,958.16Z" transform="translate(-276.91 -11.93)"/><path class="cls-35" d="M806.91,721.17c11.37-.76,22.66,1.65,34,.83a45.9,45.9,0,0,1-10.25,8.46c-5.73,3.22-11.49,2.56-16.48-1.86C811.61,726.31,809.33,723.66,806.91,721.17Z" transform="translate(-276.91 -11.93)"/><path class="cls-7" d="M995.93,578.91c.14,2-.22,3.87-2.12,5.05A8.74,8.74,0,0,1,995.93,578.91Z" transform="translate(-276.91 -11.93)"/><path class="cls-19" d="M722,441c.25-1.68-.73-3.63,1.13-4.94C723,437.74,723.21,439.51,722,441Z" transform="translate(-276.91 -11.93)"/><path class="cls-36" d="M1129.86,369.13l-2-3.13c.28-1.37-.56-2.86.75-4.52.89,2.3,1.7,4.37,2.51,6.43C1131.36,369,1130.86,369.32,1129.86,369.13Z" transform="translate(-276.91 -11.93)"/><path class="cls-37" d="M1129.86,369.13l1.23-1.22c.58,1.06,2.82,2.17-.09,3.13Z" transform="translate(-276.91 -11.93)"/><path class="cls-8" d="M396,35.82c2.14-5.23,6.63-2.12,10-2.84,7.49,2.6,15.49,2.47,23.72,4.49-6.65,6.58-11,15.07-20.42,18.36-7.85,2.75-13.18-.74-13.29-9.06C396,43.12,396,39.47,396,35.82Z" transform="translate(-276.91 -11.93)"/><path class="cls-24" d="M872,344c-2.41-3.65.24-8.57-3-12,4.77,0,4.37-3,3.44-6.14a8.43,8.43,0,0,1,3-9.74c2.48-1.93,5.43-1.66,8-.28a12,12,0,0,1,6.48,9.92c.4,5.19-2.9,7.78-8.68,7.21-8-.78-8-.78-8.25,7.37C873,341.64,873.25,343,872,344Z" transform="translate(-276.91 -11.93)"/><path class="cls-22" d="M1026.28,285.52c-2.52,4.81-4.43,8.4-6.29,12-6.81,13.21-14.85,26-16,41.37-.08,1-.23,2.12-1.34,2.4-.38.1-1.27-.56-1.46-1.06-3-8.12-7.42-15.84-5.48-25.19a26.42,26.42,0,0,1,8.6-14.72A94.15,94.15,0,0,1,1026.28,285.52Z" transform="translate(-276.91 -11.93)"/></svg>