<?xml version="1.0" encoding="utf-8"?>
<!-- Generator: Adobe Illustrator 22.0.0, SVG Export Plug-In . SVG Version: 6.00 Build 0)  -->
<svg version="1.1" id="Layer_1" xmlns="http://www.w3.org/2000/svg" xmlns:xlink="http://www.w3.org/1999/xlink" x="0px" y="0px"
	 viewBox="0 0 1024.2 1024.2" style="enable-background:new 0 0 1024.2 1024.2;" xml:space="preserve">
<style type="text/css">
	.st0{fill:#3798FD;}
	.st1{fill:#3CAFFD;}
	.st2{fill:#3691FE;}
	.st3{fill:#40BDFD;}
	.st4{fill:#399EFE;}
	.st5{fill:#40BFFD;}
	.st6{fill:#48DFFC;}
	.st7{fill:#47DEFC;}
	.st8{fill:#44CFFA;}
	.st9{fill:#4EFAFB;}
	.st10{fill:#43CCFC;}
	.st11{fill:#4CF0FB;}
	.st12{fill:#4CF0F9;}
	.st13{fill:#43CBFC;}
	.st14{fill:#3CAEFA;}
	.st15{fill:#45D5F9;}
	.st16{fill:#3CACFA;}
	.st17{fill:#42C5F9;}
	.st18{fill:#46D9F8;}
	.st19{fill:#47DDF8;}
	.st20{fill:#42C7FA;}
	.st21{fill:#4AE7F9;}
	.st22{fill:#40BFFA;}
	.st23{fill:#3EB5FA;}
	.st24{fill:#3DACF9;}
	.st25{fill:#4BEBF5;}
	.st26{fill:#48C5E0;}
	.st27{fill:#68F1FB;}
	.st28{fill:#4AD4D6;}
	.st29{fill:#B0FDFD;}
	.st30{fill:#47D9F8;}
	.st31{fill:#76DFE1;}
	.st32{fill:#33869D;}
	.st33{fill:#86F6F6;}
	.st34{fill:#DCF6FD;}
	.st35{fill:#B2EDFD;}
</style>
<title>logo</title>
<path class="st0" d="M361.1,1024.1c2.8-13.1,9.9-23.8,18.4-33.8c13.4-15.9,31.1-25.6,49.7-34.2c3.7-2.3,7.8-1.8,11.6-1.1
	c9,1.6,16.8,0.6,22-8c0.2-0.4,0.8-0.6,1.2-0.8c12.1-3.4,24.3-6.4,36.3-10.2c22.8-7.2,44.4-16.9,63.3-31.9
	c21.8-17.4,34.8-40.6,44.4-66.3c12.2-32.8,26.6-64.8,41.2-96.7c0.7-1.6,2.6-2.3,4.2-1.6c5.3,1.5,10.7,2.7,14.6,7.1
	c0.8,0.9,1.6,1.7,2.5,2.5c2.6,2.5,5.4,4.7,9.2,2.5c3.5-2.2,5.3-6.2,4.7-10.3c-0.8-4.1-2.5-8-5-11.3c-1.7-2.2-3.1-4.6-0.7-7.1
	c2.4-2.6,4.9-1.5,7.2,0c8.4,5.4,16.5,10.8,23.2,18.6c13.5,15.7,31,25.9,50.1,33.7c21.4,8.7,43.8,13.8,65.8,20.2
	c20,5.8,40.5,9.7,60,17.2c9.5,3.7,18.4,8.6,26.8,14.4c11.3,7.8,23.4,13.5,37.6,12.9c6-0.3,11.9-1.6,17.8-2.5
	c6.2-0.9,12.3-1,18.2,1.2c5.7,2.1,7.8,5.2,8,11.3c0.2,4.2-0.5,8.3-2.2,12.2c-1.8,3.6-2.9,7.5-3.2,11.5c-0.5,7.9,4.4,12.3,12.2,11
	c10.5-1.7,10.5-1.7,7.4,8.3c-0.1,0.3-0.2,0.7-0.2,1c-4.8,10.2-11.6,19.1-19,27.3c-16.4,18-34.3,34.4-52.6,50.4
	c-7.5,6.5-16.8,10.6-25.2,16.1c-17.3,11.3-35.2,21.6-51.6,34.3c-1.2,0.9-2.6,1.4-3.8,2.3L361.1,1024.1z"/>
<path class="st1" d="M1006.1,894.1c-0.1-2.4,1-4.5,1.8-6.7c0.3-0.9,1.3-1.9,0.6-2.8c-0.8-1-2.1-0.6-3.2-0.2
	c-0.5,0.2-0.9,0.3-1.4,0.5c-5.1,1.3-10.3,2.4-14.4-2.2c-4.4-5-3.2-10.8-1.5-16.4c1.3-4.4,4.1-8.4,4.2-13.2
	c0.2-10.7-3.5-14.5-14.3-15.2c-7.6-0.5-14.9,1-22.2,2.3c-14,2.4-26.6-0.9-37.9-8.4C901.2,821,884,812.1,864.9,807
	c-19.8-5.3-39.7-10.6-59.5-15.9c-20.7-5.6-41.3-11.3-60.5-21.2c-15.3-7.9-29.2-17.7-40-31.4c-5.7-7.2-14.3-10.7-21.6-15.8
	c-1.7-1.2-3.1-0.4-4.3,1.1c-1.2,1.4-0.8,2.7,0.3,4c3,3.3,4.7,7.2,6,11.3c1.1,3.2,0.8,6.7-1,9.5c-3.7,6.4-9.2,7.5-14.1,1.9
	c-4.3-4.8-10-8.2-16.4-9.8c-1.7-0.5-3.2-0.7-4.7,0.3c9.8-27.2,19.5-54.3,30.6-81c11.6-27.9,23.2-55.8,34.9-83.6
	c0.6-1.5,1.5-2.9,2.3-4.4c1.2-1.5,1.4-3.4,2.1-5l-0.1,0.1c0.6-1.2,1.8-2,3.2-2.1c1-0.1,2-0.2,3-0.2c24.6,0.1,16.9,0.7,38.2-11
	c6.6-3.6,13.4-7,21.3-4.8c6.5,1.8,10.8,6.5,14.4,11.7c1.6,2.3,4,3.9,6.8,4.4c15.6,3.6,30.8,8.7,45.4,15.2
	c19.7,8.6,38.9,18.2,58.9,26.1c8.4,3.3,16.9,6.1,25.6,8.5c17.9,4.9,33.7,14.2,49.9,22.8c10.7,5.7,21.9,10.5,33.5,14.3
	c1.7,0.6,3.6,0.8,5,2.2v226c-3,7-8.6,11.1-15.2,14.3C1008,894.9,1006.9,894.8,1006.1,894.1z"/>
<path class="st2" d="M143.2,703.1c2.6,2.2,3.7,5.7,2.8,9c-7.3,30.8,0.7,59,14.6,86c7.8,15.1,16.6,29.6,24.1,44.8
	c21.3,43,17.9,84.7-7.2,125.1c-5.7,9.2-11.8,18.2-14,29c-0.7,3.4-1.2,6.9-2.2,10.2c-3.8,12.5-10.5,16.1-23.1,12.3
	c-6.9-2.1-12.9-6-19-9.8c-34.2-21-65-46.3-93.6-74.4c-8.5-8.3-17-16.7-25.6-25.2v-296c4.7,0.4,7.6,3.8,10.8,6.5
	c5.5,4.9,10.2,10.6,13.8,17c5.3,9,9.9,10.9,19.9,8.2c11.5-3.1,22.8-0.9,34.2,0.3c7.3,0.8,14.5,1.9,21.9,0.9
	c5.1-0.6,10.1-2.1,14.7-4.5c2.1-1.3,4.5-2.2,7-2.6c4.9-0.5,8.2,1.7,7.9,6.6c-0.8,15.6,4.4,29.9,9.4,44.2
	C141.1,694.8,141.6,699.1,143.2,703.1z"/>
<path class="st1" d="M303.2,403.2c-7,24.3-20,45.6-32.9,67c-4.9,8.1-9.7,16.3-14.8,24.3c-3.2,5.1-4.3,10.7-5.6,16.4
	c-2.8,11.5-7.2,15.1-18.6,15.5c-2.3-2.2-1.3-5-1-7.5c0.6-6.1-1.5-8-7.5-6.6c-4,0.9-7.8,2.8-12,3.5c-9.5,1.7-15.9-1.8-19.2-10.8
	c-4.9-13.2-16.5-19.5-30.7-18.1c-16.3,1.6-31.6-2.7-46.4-9.4c-12.5-5.7-23.8-13.4-34.5-21.9c-22.2-17.5-47.8-27.4-75.2-32.9
	c-1.6-0.3-3.3-0.4-4.6-1.6v-183c1.8-1.4,3.5-0.3,5.2,0.2c8,2.5,15.1,7.4,20.1,14.1c9.1,11.6,21.7,17,35.7,17.1
	c19.5,0,38.5,5.5,55,15.9c26.4,16.3,55.2,26.2,84.5,35.4c15.4,4.8,30.9,9.5,44.5,18.6c6.4,4.5,12.2,9.9,17.1,16
	c3.5,4.1,7.2,7.8,12.3,9.9c4.9,1.9,9.1,1.1,13-2.1c1.4-1.2,2.6-2.5,4-3.8c4.9-4.6,10.4-5.7,16.6-3c0.6,0.3,1.2,0.5,1.8,0.8
	c10.8,5.1,10.3,4.1,7.2,15.1c-1.6,5-4.7,9.1-7.4,13.5C306.3,391.1,304.9,397.2,303.2,403.2z"/>
<path class="st3" d="M316.1,372.1c0-0.2,0-0.3,0-0.5c-0.6-3.5,5-7.3,0-10.2c-11.4-6.8-17.5-6.9-23.7-1.1c-2.8,2.6-4.9,5.9-9,6.8
	c-9.7,2.3-16.1-3.1-21.3-9.8c-10.8-13.9-25-22.7-41.3-28.4c-23-8.1-46.6-14.5-69.3-23.8c-11.9-5.1-23.5-11-34.6-17.7
	c-17.1-10.2-35.1-16.5-55.5-16.6c-14.7-0.1-27.8-5.5-37.2-17.9c-6-7.9-14.4-12.7-24.2-14.9v-103c8.2,0.3,13.2-4.8,17.9-10.6
	c2.2-2.7,3.9-5.7,6.6-8c1.7-1.4,3.5-2.6,5.9-2c8.5,5.5,16.7,11.4,25.6,16.3c11.2,6,22.7,11.2,34.5,15.7
	c36.3,14.3,71.5,30.9,106.5,48c29.1,14.1,58.9,26.5,90.3,34.7c5.8,1.5,11.6,2.9,17.5,3.9c14.8,2.6,16.2,18.1,10.8,26.8
	c-0.8,1.3-1.7,2.4-2.6,3.6c-1.8,2.5-3.4,5.1-1.4,8.2c2.2,3.3,5.1,5.2,9.2,4.7c3-0.5,5.8-1.5,8.4-3.1c6.8-3.7,14-4.9,21.7-4.7
	c12.8,0.2,16.5,10.6,13.6,20.7c-1.1,3.9-2.2,7.9-3.5,11.8c-1.8,7.6-5.7,14.4-9.5,21.1c-7.1,12.3-14.3,24.6-21.5,36.8
	c-0.8,2-2.1,3.3-4.4,3.2c-3.7-0.2-5.3,1.8-6,5.1C319.3,369.4,319,371.9,316.1,372.1z"/>
<path class="st4" d="M0.1,421.1c13.5,1.1,26.2,5.6,38.9,9.9c20.2,6.9,36.6,19.9,53.6,32.1c9.7,7,20.1,13,31.4,16.8
	c12.6,4.2,25.3,7.5,38.9,5.3c11.7-1.9,25.8,6.6,29.2,17.7c3.9,12.7,12.8,13.9,23.5,10.5c2.8-0.9,5.6-2,8.5-2.7
	c5.2-1.3,8.9,2.1,7.7,7.4c-0.6,2.8-0.8,5.6-0.6,8.4c-0.4,18.6-8.5,34.2-19.2,48.8c-5.2,7.1-10.1,14.5-15.1,21.7
	c-0.5,0.9-0.7,2-1.4,2.6c-9.7,9.1-13,21.6-17.6,33.4c-0.7,1.8-1.3,3.8-2.8,5.2c-8.7,9.7-12.3,21.8-16.1,33.8c-1.9,6-4,11.9-6.3,17.7
	c-1.7,4.2-3.8,8.2-8.3,10.1c-1.6,0.7-1.5,2-1.2,3.3c-0.6-0.5-1.6-1-1.7-1.7c-3.7-13.8-9.8-26.9-12-41c-0.6-3.7-0.3-7.6-0.3-11.5
	c0-8-3.4-10.1-10.7-6.5c-5.7,2.8-11.3,5.1-17.8,6c-7,1-13.9,0.1-20.6-0.7c-13.5-1.6-26.8-4-40.1,0.9c-3.9,1.5-12-2.4-14.4-7
	c-5.9-11.3-14.6-20.8-25.4-27.6V421.1z"/>
<path class="st5" d="M1024.1,654.1c-8.3-1.1-15.9-4.5-23.5-7.8c-10.7-4.5-20.8-10.4-31-16c-13.8-7.6-28.4-12.8-43.4-17.2
	c-18.6-5.3-36-13.8-53.4-21.9c-21-9.7-42-19.4-64.6-24.5c-5.2-1.2-8.7-2.9-11.6-7.5c-2.7-4.5-7-7.8-12-9.3c-7.4-2-13.7,1.4-19.8,4.4
	c-4.4,2.2-8.4,5.2-12.7,7.7c-4.4,2.7-9.5,4.1-14.7,4.1c-6.1,0-12.3-1.2-18.3,0.8c-1.4-4.4,0.7-7.7,3.5-10.7c2.7-2.7,5.4-5.4,6.5-9.2
	c-0.3-1.9,0.9-3.1,2-4.3c10.7-11.6,15.8-25.5,17.8-40.8c0.4-2.8,0.5-5.6,2.2-8.1c3.8-15,11.1-28.6,16.8-42.9
	c2.8-7.1,5.3-14.4,6.1-21.9c0.6-5.4,2.9-7.4,7.9-7.1c2.8-1.2,3.9,1,5.1,2.7c3.9,5.4,3.8,11.5,3.1,17.8c-0.6,5-1.6,9.9-1.6,14.9
	c-0.1,2,0.2,4.1,1.1,5.9c2.9-4.1,4.8-8.5,7.2-12.6c2.1-3.6,4.4-7.1,7-10.3c4.4-5.3,9.2-7,15.6-4.6c15.2,5.8,31,9,46.8,12.5
	c14.1,3.2,27.3,8.3,39.3,16.7c15.2,10.7,32.7,17.8,51,20.9c11.8,2,22.1,6.4,31,14.8c8.1,7.6,18.2,12.2,28.9,15.2
	c2.7,0.8,5.6,1.2,7.7,3.3L1024.1,654.1z"/>
<path class="st6" d="M479.2,86.2c-7.2,23.8-16.1,46.8-33.4,65.5c-1.1,1.2-2.4,2.2-3.7,3.3c-1.4-2.4,0.7-4,1.4-5.9
	c0.9-2.2,1.8-4.5,0-6.6s-4.3-2.3-6.9-1.8c-2.6,0.5-4.8,2.2-7,3.8c-5.3,4-10.6,8.1-17,10.3c-9.5,3.3-19.8,3.6-29.5,0.8
	c-4.2-1.2-7.8-4-10-7.8c-2.6-4.4-1.5-8.4,2.9-11.1c2.3-1.4,4.8-2.3,6.9-4.1c1.6-1.4,3.6-2.8,2.8-5.4c-0.8-2.3-2.7-4-5-4.4
	c-3.3-0.9-6.6-0.1-9.8,0.6c-8.5,2.2-17.3,3.6-26.1,4c-19.9,0.7-35.4-7.4-47.8-22.5c-6-7.2-13-11.6-23-11.9
	c-17.8-0.6-34.2-6.7-49.6-15.6c-16.2-9.4-32.1-19.6-48.7-28.4c-11-5.8-16.5-15.8-17.6-28c-0.9-9.3,7.3-18.6,17.3-20
	c2-0.3,4-0.3,5.8-1.1h212c0.8,0.7,1.4,1.4,2,2.2c4.2,7.9,11.5,11,19.8,11.3c13.2,0.5,24.5,5.4,35,13c9.5,6.8,18.2,14.6,27.8,21.1
	c0.7,0.5,1.3,1,1.9,1.6c9.2,8.5,9.7,13,2.2,23c-2.4,3.2-4.4,6.3-2.4,10.5C479.9,84,479.8,85.2,479.2,86.2z"/>
<path class="st7" d="M839.8,275c3.6-32.4,17-60.9,34.1-88c4.7-2.2,9.5-1.7,14,0c5.6,2.1,6.3,6.2,2.2,10.4c-1.7,1.8-3.9,3.1-5.7,4.9
	c-5,5.1-5.1,10.1-0.4,15.3c2.9,3.2,5.4,6.8,7.5,10.6c2.7,4.8,6.8,6.6,11.8,5.2c28.5-8.3,53.4,1,77.5,15c5,2.9,10,6.1,15,9
	c6.2,3.5,12.7,5.8,20,5.5c2.8-0.1,5.7-0.7,8.2,1.3v161.9c-5.2,0.7-9.2-2.4-13.2-4.7c-4.9-2.9-9.2-6.7-12.6-11.2
	c-2.1-2.7-4.6-4.9-8.1-5.5c-24.2-4.4-46.8-13.8-69.6-22.6c-16.9-6.4-34.3-11.8-51.8-16.2c-5.1-1.3-10.3-2.4-14.7-5.7
	c1.3-1.6-0.2-2.8-0.8-4.1c-0.8-1.4-1.3-3-1.4-4.6c-0.3,1,0.4,2.4-1.2,2.8c-3.1-2.4-1.8-5.5-1-8.2c1.7-6.1,4-12,6.8-17.6
	c1.1-2,2.1-4.2,3-6.3c1.8-4.8,0.7-6.7-4.4-7.5c-2.8-0.5-5.6-0.8-8.4-1.3c-7.1-1.4-9-5.9-5-11.8c0.7-1,1.4-1.9,2.1-2.8
	c6.1-8.6,5.6-14.2-1.9-21.5C841,276.6,840.3,275.9,839.8,275z"/>
<path class="st8" d="M181.1,0.1c-1.2,1.3-2.9,1.5-4.5,1.9c-18.4,4.4-20.7,17.6-13.6,32.4c3.4,7,9,11.7,16,15.2
	c15.8,7.9,30.4,17.8,45.6,26.5c13.6,7.8,28,13.7,43.9,15.1c8.7,0.8,17.8,0.6,24.5,7.5c4.2,4.3,8,8.9,12.3,13.1
	c9.5,9.4,21.2,13.8,34.5,14.4c11.4,0.5,22.4-1.7,33.4-4.5c4.9-1.2,9.6-1.3,13.2,3.3c1.9,2.4,2.2,4.5-0.3,6.9
	c-2.5,2.5-5.6,4.1-8.7,5.7c-4.8,2.5-5.6,6.6-2.3,11c4.4,5.7,10.6,6.9,17.2,7.6c14.8,1.5,26.9-4.2,37.8-13.4c2.3-2,4.8-3.5,8-3.6
	c6.9-0.3,9.8,4,7,10.3c-0.9,2-2.8,3.4-2.9,5.7c-3.2,10-8.5,19.1-12.8,28.6c-0.1,0.1-0.1,0.3-0.2,0.5c-1.2,6.8-0.9,14-10,16.4
	c-2.9,0.7-3.3,5.1-4.1,8.2c-0.9,3.5-1.6,7.1-3.1,10.5c-1.7,3.6-4,7.1-7.8,7.9c-6.5,1.2-7.8,5.2-7.9,10.7c0,3.3-0.6,6.6-2,9.6
	c-1.8-1.6-1.1-3.7-0.9-5.6c0.5-4.5,1.6-8.9,1.6-13.4c0-2.3-0.1-5-2.6-6.1c-2.8-1.2-4.1,1.4-5.5,3.2c-6.7,8.7-8.7,8.6-13.5-1.1
	c-13.9-27.5-34-48.3-63.3-59.3c-15.5-5.7-31.9-8.6-48.5-8.5c-28.7-0.1-54.4-8.6-76.7-26.8c-10.8-8.8-20.9-18.6-32.6-26.4
	c-8.9-5.9-18.6-9.9-29.2-10.7c-9.7-0.6-19.4,1.8-27.7,7.1c-6.6,4.1-12.5,4.4-19.1,0.4c-4.8-3.1-10.3-4.8-16-5.1
	c-9.6-0.3-16.8,4.2-22.8,11.4c-2.4,2.9-3.8,6.7-7.3,8.6c-5.7,0.9-7.7,5.9-10.7,9.6c-2.8,3.7-6.2,6.9-10,9.5c-3,2.1-6,2.5-9.3,0.8
	v-15c2-3.9,5.1-7,8.1-10.1c20.7-21.4,41.7-42.4,65.9-60c12.9-9.4,26.4-17.9,40.5-25.3c1.6-0.8,3.2-2.1,5-0.4
	c1.4,3.2,0.6,6.5,0.8,9.8c0.4,8.4,4.8,11.2,12.6,8c4-1.7,7.5-4.3,10.3-7.7c2.3-2.9,4.7-5.6,7.3-8.2c-7.4-1.4-15-0.9-21.9-4.5
	c-0.4-3.8,1.8-6.6,3.9-9.2c4.6-5.7,10.3-10.1,17.4-12.4H181.1z"/>
<path class="st9" d="M662.5,84.1c-0.1-5.3-0.2-10.6-0.2-15.9c0-1.8,0.1-3.7-1.3-5.1c2.4-14.7,0.7-29.8-4.7-43.6c-1.4-3.5-3.4-5-7-5
	c-5.3,0-10.7,0.6-15.9-0.9c-6.7-2-9.1-7.2-6.3-13.5h217c23.3,7.5,43.6,20.4,63,34.8s37.7,30.5,55.9,46.6
	c14.3,12.7,26.7,26.8,38.3,41.9c1.5,2,4.4,4,2.4,7.3c-4.7,1.8-9.3,0-13.8-0.7c-23.8-3.4-45.8-11.3-65.7-25
	c-5.8-4.2-12.4-7.2-19.4-8.9c-8.7-1.9-16.5-0.1-23.2,6c-3.4,3.2-6.6,6.6-9.6,10.2c-5.2,6.3-11.9,9-20,7.7c-6.8-1.1-10.9-5.2-12.3-12
	c-1.7-8.3-0.8-16.6-0.9-24.9c0-4.5-1.5-8.9-4.1-12.6c-1.7-2.4-3.3-3.3-4.9,0.1c-5.9,12.2-16.5,17.8-29,20.7
	c-7.3,1.7-14.8,2.5-22.2,3.6c-2.2,0.3-4.3,0.3-5.9-1.7c-1.2-2.6-1.3-5.5-2.5-8.1c-2.9-6.3-7.3-8.6-14.1-7.2
	c-5.5,1.3-11,2.8-16.3,4.7c-7.5,2.4-14.7,2.9-20.8-3.6c-2.6-2.7-5.5-1.4-7.2,1.3c-4.1,6.4-6.9,13.3-5.9,21.2c0.1,1,0.4,2,0.4,3
	c0.2,3.3-0.2,6.4-3.2,8.4c-3,2-5.5,0.3-8-1c-10.1-5.3-13.2-14.9-8.3-25.3c1.4-3,3-5.9,5-9.4c-4,0.8-7.2,2.6-10.4,4.1
	c-4.5,2.1-9,4.4-14.3,4C665.5,85.2,663.8,85.5,662.5,84.1z"/>
<path class="st10" d="M839.8,275c8.1,3.3,11.8,12.4,7.8,20c-1.5,2.9-3.7,5.5-5.5,8.2c-2.7,4.1-1.3,7.9,3.4,8.8
	c2.8,0.5,5.5,0.9,8.3,1.1c8.1,0.6,9.9,3.6,6.3,10.9c-3.7,7.2-6.8,14.7-9.2,22.5c-0.8,2.6-1.4,5.1,0.1,7.6c1.6,0.2,2,1.6,2.7,2.7
	c0.4,0.7,1.1,1.4,0.4,2.4c3.6,2.6,7.8,3.8,11.9,4.6c32.3,6.9,62.4,20.4,93.3,31.4c9.9,3.4,20,6.1,30.3,7.9c3.2,0.6,6.3,1.7,8.2,4.4
	c6.6,9.4,15.8,15,26.3,18.7v93c-15.4-3.1-29.3-9.2-40.8-20.2c-7.4-7.1-16.7-10-26.5-11.6c-20.9-3.5-39.5-12.2-56.8-24.1
	c-10.8-7.5-23.2-11.2-35.9-14c-14.9-3.3-29.8-6.2-44-11.9c-6.9-2.8-11.5-1-16.1,4.8c-5.9,7.6-9.7,16.5-15,25.1
	c-3.5-8.4-1.4-16.3-0.3-24.1c0.9-6.8,0.9-13.2-3.6-19c-0.7-1.1-1.9-1.8-3.2-2c2.9-3.9,2.8-8.8,3.9-13.2
	c10.3-41.4,26.7-80.5,45.9-118.4C834.3,285.2,837.1,280.1,839.8,275z"/>
<path class="st11" d="M773.1,93.1c3.2,2.3,6.5,0.3,9.7-0.1c10-1.3,20-2.3,29.4-6.8c8-3.9,14-9.5,17.2-17.8c1.6-4.2,3-2.9,4.9-0.6
	c3.6,4.3,5.9,9,6,14.9c0.1,8-0.8,15.9,0.8,23.9c2.1,10.5,9.2,15,19.6,12c4.9-1.4,8.4-4.3,11.6-8.2c5.1-6.3,10.4-12.6,18.7-15.1
	c10-3,19.2-0.1,27.6,5c14.5,8.8,28.7,18.1,45.3,22.7c13.2,3.7,26.6,6.9,40.5,7.3c8.5,3.6,15.5,10,20,18v115.9
	c-17.3,2.7-30.6-6.5-44.3-14.7c-13.3-8-27.3-14.7-42.8-17c-10.3-1.5-20.8-1.3-30.9,1.8c-8.1,2.5-11.6,1-16.2-6.3
	c-2-3.2-4-6.5-6.7-9.3c-5.7-5.6-5.6-11.7,0.2-17.3c1.9-1.9,4.2-3.3,6-5.2c3.6-3.5,3.1-6.1-1.7-8.1c-4.5-1.9-9.2-0.7-13.8-1.1
	l0.1-6.9c-1.1-2.9,0.4-4.8,2.5-6.4c2.1-1.6,4-3.5,5.4-5.7c4.3-6.6,3.5-11.4-2.7-16.3c-2.2-1.7-4.8-2.9-6.2-5.6
	c-3.4-1.7-6.7-3.6-10.2-5.1c-9.2-4.1-15.7-1.1-18.7,8.3c-6.8-10.9-17.8-16.3-28.7-21.9c-6.5-3.3-14-4.1-20.6-7.1
	c-1.4-2-0.8-4.5-1.2-6.7c-0.8-4.5-2.9-5.6-6.9-3.3c-2.3,1.3-4.2,3.1-6.5,4.4s-4.6,1.8-6.6-0.6c-1.9-4.3-3.8-8.6-5.6-12.9
	C768,97.5,771.4,95.8,773.1,93.1z"/>
<path class="st12" d="M627.1,0.1c-1.4,11.3,5.2,12.9,13.3,13c1.8,0,3.7,0,5.5,0c12.9-0.1,9.5-0.2,12.9,9.8c2.4,7,5,14.1,4.9,21.6
	c0,5.8-0.4,11.5-0.8,17.3c-0.1,0.9-1,1.2-1.9,1.3c-2.6-1.2-5.1-2.4-7.7-3.5c-10.3-4.3-18.8-1.6-24.7,8.5
	c-10.6,18.3-22.6,35.7-34.4,53.2c-6-5.9-12.8-8-20.9-5c-3.1,1.1-4.3-0.6-4.4-3.5c-0.1-1.7,0.2-3.3,0.6-4.9
	c1.1-5.2,1.6-10.5,1.2-15.8c-0.2-7.2-3.2-11.5-10.1-13.8c-6.6-2.1-13.6-2.9-20.6-2.2c-0.1-11.4,4.3-20.7,11.6-29.4
	c10.7-12.8,5.6-29-9.8-33.9c-6.4-2-11.4,0.4-16,4.3c-3.4,2.7-6,6.3-7.6,10.4c-6,17.2-17.3,31-28.6,44.8c-3.7,4.5-7,9.3-10.4,14
	c-0.1-0.8,0.1-1.9-0.4-2.4c-3.1-4-1.8-7.5,1-10.8c10.1-12.2,7.1-16.5-4.5-25.3c-8.5-6.6-17.1-13.1-25.7-19.6
	c-10.4-7.8-21.8-12.8-35.2-13.2c-10-0.3-19.5-5.8-21.3-14.8H627.1z"/>
<path class="st13" d="M30.1,115.1c4.6-8.7,10.6-16.2,20-19.9c7-2.7,14.3-1.8,21.2,1c1.6,0.6,3,1.3,4.5,2.2
	c6.7,4.5,12.6,3.8,19.8-0.3c18.2-10.4,36.6-8.6,54.2,2.1c12.4,7.5,22.8,17.6,33.9,26.8c16,13.3,33.8,22.7,54.6,26
	c7.5,1.2,15.1,1.9,22.7,2.1c25.6,0.4,50.1,5.7,71.9,19.9c14.9,9.8,26.7,22.8,35.8,38.2c2.8,4.7,5.2,9.7,7.8,14.5
	c2,3.7,3.9,3.9,6.7,0.7c1.5-1.8,2.6-3.9,4-5.7c1.4-1.9,3.1-3,5.5-2.6s2.5,2.5,3,4.1c2,6-0.6,11.8-1.1,17.6c-0.2,1.8-0.4,3.6-0.4,5.4
	c-2.2,12.7-9.3,22.9-17.4,32.5c-0.8,1-1.8,2-2.8,2.9c-5.9,5.1-11.5,10.4-12.9,18.6c-0.2-6.4,3.6-12,3.1-18.5
	c-0.6-8.1-4.7-12.3-12.9-12.6c-8-0.4-16,1.4-23,5.4c-2.7,1.7-5.8,2.6-9,2.7c-4.6,0-7.2-2.9-9.4-6.4s-0.3-6.2,1.8-8.6
	c4-4.1,6-9.7,5.5-15.4c-0.5-6.4-3.9-11.3-10.5-12.7c-12.6-2.8-25.2-5.9-37.5-9.8c-16.9-5.4-33.5-11.7-49.7-19
	c-39.6-17.6-77.8-38.3-118.3-53.8c-16.2-6.2-32.5-12.7-47.7-21.5C45.3,126.2,37.2,121.3,30.1,115.1z"/>
<path class="st14" d="M445.1,429.1c-2.1,11.7-7.2,22.3-13.3,32.1c-18.1,28.9-31.8,60-46,90.8c-10.6,23-21.5,45.9-37,66.1
	c-8,10.5-17.1,12.3-29,6.4c-3.7-1.8-7.6-3.4-11.3-5.4c-9.7-5.3-12.3-11.3-9.6-22c4.6-17.6,10.8-34.7,18.5-51.1
	c24.1-52.7,48.2-105.4,73.9-157.4c4.5-9.3,9.7-18.2,15.5-26.8c1.6-1,3-0.3,4,0.9c7.3,8.3,15.8,15.7,20,26.5
	c2.4,6.2,2.5,12.7,3.2,19.1c0.8,6.7,3.5,11.3,10.1,13.4c1,0.3,2.3,0.7,2.1,2.3v-0.1C444.7,425.5,446.3,427.6,445.1,429.1z"/>
<path class="st15" d="M549.1,330.1c2-4.5,1.9-9.3,2.1-14.1c0.1-2.4,0.2-4.7,2.3-6.3c7-5.5,10.3-13.3,13.7-21.1
	c16.4-37.2,31.8-74.9,50.2-111.2c2.8-5.6,5.6-11.3,9.5-16.3c2-2,2.9-0.6,3.3,1.3c2.8,12.7,12.3,18,23.5,21.3
	c5.4,1.6,10.4,3.5,14,8.1c2.1,2.6,3.4,5.8,3.5,9.2c0,4.2,0.6,8.3,1.7,12.3c0.9,2.9-0.2,5.5-2.4,7.7c-3.4,3.3-3.3,3.3,1,5.6
	c1.2,0.6,3.1,0.8,2.7,2.9c0.1,8.5-3,16.1-7.2,23.1c-10.2,16.4-18.7,33.8-25.5,51.8c-6.2,16.9-16.5,31.9-25.1,47.7
	c-8.3,15.1-15.8,30.5-19.8,47.3c-0.3,1.6-0.9,3.2-1.8,4.6c-15.8,22.6-24.7,48.6-36.5,73.2c-6.7,13.8-13.9,27.3-20.8,41
	c-4.5,9-12.1,15.4-19.2,22.2c-0.8-0.7-1-1.8-0.4-2.7c3.7-8,5.8-16.7,9.1-24.9c8.9-19.4,18.7-38.3,28.2-57.3
	c11.1-22.2,22.1-44.4,32.9-66.8c0.4-0.9,0.9-1.8,1.2-2.7c3.3-8.7,3.9-10.9-5.5-12.7c-1-0.3-1.9-0.7-2.8-1.2
	c-5.6-2.9-6.5-6.9-2.2-11.6c4.1-4.4,8.1-8.8,10.5-14.4c2.1-4.5,3.8-9.2,4.9-14.1c0.8-2.4,0.3-5,0.6-7.4c0.4-4.2,2-5.5,6.2-5.3
	c0.8,0,1.6,0.3,2.5,0.4c5.2,0.6,7.8-1,8.1-4.9c0.4-4.5-4.3-9.9-8.6-9.9s-6.5,3.3-6.1,8.4c0.5,6.6,0.3,7.1-4.8,8.1
	c-14.2-1.6-27.9-0.9-39.7,8.5C551.3,330.3,550.3,330.9,549.1,330.1z"/>
<path class="st16" d="M528.1,513.1c-3.3,9.1-6.6,18.1-9.8,27.2c-15.2,37.8-29.9,75.9-52,110.5c-0.2,0.3-0.3,0.6-0.5,0.8
	c-13.6,23-32.5,21.4-52,5.8c-7.9-6.3-10-15-6-24.3c5-11.8,10.5-23.4,16.1-34.9c21-43.3,39.2-87.8,58.1-132
	c2.9-6.8,6.2-13.2,11.1-18.8c1.3-1.7,2.5-3.5,3.6-5.4c2.4-3.1,4.2-6.7,7-9.5c0.8-0.8,1.8-1.7,3-1.4s1.5,1.7,1.6,2.9
	c0.3,13.9,7.6,25,14.1,36.4c5.7,10,8.4,20.3,3.7,31.4c-1.1,2-0.6,4.4,1.2,5.9C528.9,509.2,529.1,511.1,528.1,513.1z"/>
<path class="st17" d="M446.2,424.1c-5-2-10.6-3.5-12.3-9.6c-1.1-3.6-1.7-7.4-1.8-11.2c0-11.1-5-20-11.6-28.2
	c-3.3-4.1-7.8-7.2-10.7-11.7c-0.7-0.9-1.8-1.5-3-1.5c-0.6-8.9,3.1-16.5,6.9-24.1c14.9-29.4,29.3-59,41.3-89.6
	c1.5-3.7,2.8-7.5,4.1-11.2c1.7-4.9,3.1-9.5,8.4-12.2c3.4-1.8,4.5-5.9,5.6-9.7c1.7-5.5,2.1-11.6,7-15.7c1.1-1,2-2.3,3.6-2.4
	c7.8-8.7,16-10.3,26.8-5.1c4.8,2.3,9.4,5,13.9,7.9c4.2,2.7,4.2,4.3-0.1,6.6c-5.1,2.8-10.6,4.8-15.9,7.2c-6.2,2.8-12.5,5.6-17.8,10.1
	c-5,4.2-4.7,13.7,0.4,17.7c1.8,1.4,2.4-0.1,2.9-1.2c1.4-3,2.6-6.1,4.2-9.1c3.8-6.9,8.5-8.6,15.8-5.8c11.8,4.4,16.3,12.9,12,27
	c-2,6.7-6.7,11.9-10.9,17.2c-4.3,5.5-8.7,11-11.5,17.5c-2.3,5.4-3.6,10.9-2.5,17c1.2,6.7,0.6,13.5,0,20.3
	c-1.6,10.9-7.5,19.9-13.7,28.5c-10.9,14.9-20.4,30.3-24.5,48.7C460.7,411.2,454.6,418.6,446.2,424.1z"/>
<path class="st18" d="M823.2,191.2c-0.5,11.2-5,21.3-10,31.1c-9.7,18.7-20,37-27.8,56.7c-7.2,18.1-19.4,33.6-29.7,50.1
	c-9.3,14.9-17,30.5-18.6,48.4c-0.4,4.8-4.7,3.7-7.7,4.7c-11.2-0.5-19.2-12.2-15.5-23.7c3.2-10.1,2.2-19.4-4.1-27.9
	c-3.2-4.3-7.2-7.8-11.1-11.4c-1.1-1-2.4-1.8-3.2-3.1c-1.2-5,1.2-9.4,2.8-13.9c3.3-9.4,8.1-18.2,12-27.3c3.8-8.5,6-17.6,6.6-26.9
	c5-23.7,14.5-45,32.5-61.8c2.6-1.1,3.1,1.2,3.9,2.6c1.7,3,3.1,6.3,5.3,9c3.8,4.8,9.3,5.5,13.9,1.5c3.9-3.4,7.4-7.2,10.4-11.4
	c5.6-7.9,12.9-12.9,23.1-12c6.4,0.5,11.7,3.5,16.1,8C824.2,186,823.8,188.6,823.2,191.2z"/>
<path class="st19" d="M501.1,324.1c0-7.9-0.6-15.9-1.7-23.8c-1.2-8.6,3.4-16.1,8-23c4.5-6.7,9.7-13,14.4-19.6
	c4.2-5.7,4.9-12.3,4.1-19c-0.9-7.1-12.9-15.2-19.8-13.6c-3,0.8-5.4,2.9-6.5,5.7c-1.7,3.8-3.5,7.5-5.2,11.3c-1.2,2.7-2.3,3.3-4.4,0.4
	c-5-6.9-6.4-14.2-2.5-18.2c3-3.1,6.6-5.6,10.5-7.4c8-3.7,16-7.3,24-11c1.6-0.7,3.1-1.7,4.9-2.6c-19.5-13.5-28-18.4-43.2-6.5
	c6.1-21.6,14.6-42.5,25.2-62.3c10.4-19.5,20.7-39.1,31.1-58.6c1.1-0.6,1.7-2.2,3.3-2c7.6,1,15.6,0.7,22.5,5.1
	c3.8,2.2,6.1,6.3,6.2,10.7c0.3,6.4,0.3,12.9-1.4,19.3c-1.5,5.8-0.9,6.4,4.7,5.1c8.8-2.1,16.2,0.7,19,7.1
	c-4.3,19.2-10.1,37.6-20.7,54.6c-17.4,28-30.5,58.4-43.4,88.7c-5,11.4-10.6,22.6-17,33.3c-1.1,1.9-2.4,3.6-3.6,5.4
	c-4.1,5.6-6.7,12.1-7.7,19C501.7,323,501.4,323.6,501.1,324.1z"/>
<path class="st20" d="M696.1,316.1c11.4,8.3,21.3,17.5,20.9,33.2c-0.2,2.6-0.7,5.2-1.5,7.7c-3.3,11.4-1.8,15.7,8.2,22.1
	c1.8,1.2,3.8,2,5.7,3.1c-1.3,13.7-8,25.2-14.9,36.6c-6.9,11.4-12.6,23.3-18.2,35.3c-18.9,40.1-37.2,80.6-59.7,119
	c-2,3.4-4.3,6.7-6.4,10.1c-1.8-1.7-0.8-3.7-0.5-5.7c2.3-15,8.5-28.7,15-42.2c4.8-10,10-20,14.9-29.9c2.1-4,3.7-8.2,4.8-12.6
	c1.5-7.4-3-13.6-10.4-14.5c-2-0.2-3.9-0.7-5.9-0.9c-8.8-0.7-14.8-5.4-18.6-13.2c-1.2-2.4-2.2-4.8-3.1-7.4c-0.9-2.9-2.6-3.8-5.4-2.9
	c4.2-11.9,8-23.9,14.2-35.1c13.3-24,23.1-49.8,36-74c0.5-1,1.2-2,1.8-3c0.7-6.2,5.3-8.4,10.4-10c2.5-0.8,5.1-1.3,7.3-3
	c3-2.2,4.6-5.1,4-8.9C694.6,318.6,694.8,317.1,696.1,316.1z"/>
<path class="st21" d="M674.3,229.3c-1.9-2.3-5.3-1.6-7.3-3.9c-1.6-1.7-2.2-2.9,0.4-4.1c5.1-2.4,6-6.2,3.4-11.1
	c-1.1-2-0.6-4.2-0.7-6.4c-0.1-9.9-3.9-15.4-13.7-18.2c-7.7-2.2-15.1-4.8-21-10.7c-3.3-3.3-5.5-7.5-6.3-12.1
	c-0.2-1.6-0.4-2.6-2.3-1.9c8.4-24.3,18.4-47.9,31.4-70.2c1.3-2.3,2.8-4.5,4.2-6.7c7.5,1,14.1-1.4,20.4-4.9c3.5-1.9,7.3-2.9,11.8-4.4
	c-2.6,4.9-4.8,9-7,13.1c-0.9,1.9-1.5,4-1.7,6.2c-1.4,10.8,6,15.3,12.8,18.3c3.2,1.4,6.1-1.1,6.2-5.3c0.2-4.7-1.7-9.3-0.1-14.2
	c1.3-4.6,3.2-9.1,5.5-13.2c2.7-4.4,6.7-4.3,10.3-0.4c3.9,4.2,9,4.8,14.2,3.4c5.9-1.6,11.7-3.6,17.6-5.2c12.7-3.4,20.1,2.4,20.4,15.7
	c0.5,4.1-3.9,5.1-5.1,8.2c-19.7-6.3-29.2,3-37,15c-7.6,11.6-11.1,24.9-15.9,37.7c-8.1,21.5-15.8,43.2-29.8,61.9
	C681.8,220.4,677.9,224.8,674.3,229.3z"/>
<path class="st22" d="M528.1,513.1c-0.1-1.3,0.5-3-0.8-3.7c-4.6-2.4-3.7-5.7-2-9.5c4.2-9.7,1.4-18.8-3.3-27.5
	c-4.3-7.9-8.9-15.5-12.2-23.9c-2.1-5.3-2.5-10.9-2.7-16.9c-5,2.3-5.5,8.6-10.3,10.4c-1.2-13.5,4.2-24.9,11.1-35.9
	c0.8-1.3,1.6-2.5,2.5-3.8c10.5-13.3,16.8-28.3,20.2-44.9c2.3-11.4,7.1-21.9,18.7-27.3c10.9-9.4,23.8-11.7,37.7-11
	c1.8,0.1,3.6,0,5.3,1c5.2,3,2.1,8,3,12c-1.4,9.4-5.5,18.2-11.8,25.3c-2.5,2.9-7.2,5.1-5.8,9.7c1.3,4.2,6.1,4.7,9.9,5.8
	c6.1,1.8,6.8,2.6,4.7,8.7c-3.7,10.8-9.4,20.6-14.3,30.7c-13.8,28.5-28.2,56.6-42.3,85C532.9,502.5,530.5,507.8,528.1,513.1z"/>
<path class="st23" d="M620.8,454.1c1.6-0.5,1.6-2.5,2.9-3.4c2.6,2.1,3.7,5.1,4.6,8c3.8,13,13.1,17.9,25.7,18.4
	c8.1,0.4,13.5,7.9,11.6,15.9c-0.9,3.7-2.2,7.3-3.9,10.7c-7.2,14.9-14.7,29.8-21.8,44.8c-5.2,10.9-8.5,22.6-9.9,34.6
	c0.2,2.6-1.6,4.2-3,6c-9.2,0.8-17.7,4.3-26.6,6.4c-2.3,0.5-2.3,2-1,3.7c2,2.8,4.6,5.3,6.6,8.1c5.8,8.1,4,15.5-4.7,20.3
	c-10.2,5.6-17.1,4.3-24.4-4.9c-5.8-7.3-10.5-15.4-15.4-23.2c-1.3-2.1-2.6-4.2-4.8-5.7c20.8-45.7,41.6-91.3,62.4-137
	C619.6,456,620.3,455.1,620.8,454.1z"/>
<path class="st24" d="M556.8,594c3.8-1.4,4.1,2.2,5.1,4c5,8,10,16.1,15.5,23.7c7.1,9.7,16.4,10.9,25.9,3.5c6.5-5,6.7-11.7,0.4-19
	c-2.2-2.5-4.3-5-6.5-7.5c-1.7-1.9-1.4-3.2,1.2-3.9c9-2.4,17.9-4.9,26.9-7.3c1.4-0.4,1.6,0.7,1.8,1.7c-14.1,43-29.3,85.4-61.3,119.2
	c-0.6,0.6-1.2,1.2-1.8,1.7c-4.1,2.3-8.7,1.9-13,1.4c-7-0.7-14.2,0.1-21-2.3c-14.1-12.9-16.3-24.8-8.4-42
	c8.3-18.2,16.2-36.5,24.4-54.7C548.8,605.9,552.4,599.7,556.8,594z"/>
<path class="st25" d="M823.2,191.2c-0.3-6.8-7.5-13.2-15.5-14.2c-10-1.2-17.7,2.8-23.2,10.7c-3.2,4.5-6.8,8.6-10.8,12.4
	c-5.2,5.1-11.9,4.2-16.4-1.6c-3-3.9-3.5-9.4-7.8-12.4c2.7-11.8,4.9-23.7,9.9-34.8c3.9-8.8,8-17.5,13.8-25.3c1.2-1.9,3-1.7,4.8-1.5
	c6.3,0.8,12.2-0.4,17.3-4.5c18.5,2.7,33.7,11.8,47.6,23.7c1.9,1.7,1.1,3.6,1.5,5.5c-1,13.4-7,24.6-16.1,34.3
	C825.9,185.8,823.7,187.9,823.2,191.2z"/>
<path class="st26" d="M696.1,316.1c0.1,1.4-0.3,2.8-1,4c-5.3,2.6-9.6,2.2-12.2-1.2c6.8-25.8,16.8-50,33.9-71c3,4.2,0.2,8.4-0.5,12.3
	c-2.3,12.5-9.1,23.4-13.9,35.1C699.7,302,696.6,308.6,696.1,316.1z"/>
<path class="st27" d="M316.1,372.1c1.8-1.7,2.8-4.1,2.8-6.6c0.2-3.9,2.3-4.6,5.5-4.4c2.2,0.2,4.3,0,5.7-1.9c-0.7,4.6-1.3,9.2-2,13.8
	c-2.2,15.1-10.9,24.9-25,30.3c-1.1-7.9,3.2-14,6.8-20.3C312,379.3,314.4,375.9,316.1,372.1z"/>
<path class="st28" d="M751,493.9c-1.4,19.1-6.3,36.8-20.2,50.9c-0.7,0.7-1.2,1.5-1.9,2.3c-1.4-7.3,0.3-14.1,3.1-20.8
	c4.3-9.9,10.6-18.9,13.1-29.6C745.9,493.8,749,494.8,751,493.9z"/>
<path class="st29" d="M175.2,638.2c4.7-14,8.4-28.5,19.5-39.4c0.7-0.7,1.5-1.3,2.3-1.8c-0.2,9,1.7,18.3-3.2,26.8
	C189.9,631,183.1,636.2,175.2,638.2z"/>
<path class="st9" d="M795.1,120.1c-1.9,5.7-7.1,4.9-11.4,6c-3.5,0.9-7.1-1.2-10.7,0c0.2-4,0.4-7.9,0.6-11.9c4,2.1,6.5-0.9,9.3-2.7
	s5.3-5.5,9-3.7s3.2,6.1,3.2,9.8C795.1,118.4,795.1,119.2,795.1,120.1z"/>
<path class="st30" d="M682.9,318.9c3.8,2.5,8.1,0.6,12.2,1.2c1.6,4.5-0.2,8.5-5.3,11.1c-1.8,0.8-3.7,1.5-5.6,1.9
	c-5.1,1.3-9.4,3.6-11.3,9c0.1-3.4,0.5-6.9,0.4-10.3C673.1,324.8,676.5,320.7,682.9,318.9z"/>
<path class="st31" d="M873,146.1c3,2.1,6.3,3.8,8.8,6.4c6.7,6.6,5.5,13-3.2,21.1c-2,1.9-4.7,3.2-4.7,6.5c-1.7-5.5-0.6-11.1-0.8-16.7
	C872.9,157.7,873.1,151.9,873,146.1z"/>
<path class="st32" d="M463.9,946.2c-4.2,9.1-9.1,12-19.5,10.7c-5.1-0.5-10.2-0.8-15.4-0.8c4.5-6,11.4-7.6,18.1-8.7
	C452.7,946.5,458.3,945.5,463.9,946.2z"/>
<path class="st33" d="M530,709.2c11.4-0.8,22.7,1.7,34,0.8c-3,3.3-6.4,6.2-10.2,8.5c-5.7,3.2-11.5,2.6-16.5-1.9
	C534.7,714.4,532.4,711.7,530,709.2z"/>
<path class="st5" d="M719,567c0.1,2-0.2,3.9-2.1,5C717,570.2,717.8,568.4,719,567z"/>
<path class="st17" d="M445.1,429.1c0.2-1.7-0.7-3.6,1.1-4.9C446.1,425.8,446.3,427.6,445.1,429.1z"/>
<path class="st34" d="M852.9,357.2l-2-3.1c0.3-1.4-0.6-2.9,0.8-4.5c0.9,2.3,1.7,4.4,2.5,6.4C854.4,357.1,853.9,357.4,852.9,357.2z"
	/>
<path class="st35" d="M852.9,357.2l1.2-1.2c0.6,1.1,2.8,2.2-0.1,3.1L852.9,357.2z"/>
<path class="st6" d="M119.1,23.9c2.1-5.2,6.6-2.1,10-2.8c7.5,2.6,15.5,2.5,23.7,4.5c-6.6,6.6-11,15.1-20.4,18.4
	c-7.9,2.8-13.2-0.7-13.3-9.1C119.1,31.2,119.1,27.5,119.1,23.9z"/>
<path class="st22" d="M595.1,332.1c-2.4-3.6,0.2-8.6-3-12c4.8,0,4.4-3,3.4-6.1c-1.3-3.6-0.1-7.5,3-9.7c2.5-1.9,5.4-1.7,8-0.3
	c3.8,1.9,6.2,5.7,6.5,9.9c0.4,5.2-2.9,7.8-8.7,7.2c-8-0.8-8-0.8-8.2,7.4C596.1,329.7,596.3,331.1,595.1,332.1z"/>
<path class="st20" d="M749.4,273.6c-2.5,4.8-4.4,8.4-6.3,12c-6.8,13.2-14.8,26-16,41.4c-0.1,1-0.2,2.1-1.3,2.4
	c-0.4,0.1-1.3-0.6-1.5-1.1c-3-8.1-7.4-15.8-5.5-25.2c1.2-5.7,4.2-10.9,8.6-14.7C734,282.4,741.4,277.5,749.4,273.6z"/>
</svg>
