<?xml version="1.0" encoding="utf-8"?>
<!-- Generator: Adobe Illustrator 22.0.0, SVG Export Plug-In . SVG Version: 6.00 Build 0)  -->
<svg version="1.1" id="图层_1" xmlns="http://www.w3.org/2000/svg" xmlns:xlink="http://www.w3.org/1999/xlink" x="0px" y="0px"
	 viewBox="0 0 803 123" style="enable-background:new 0 0 803 123;" xml:space="preserve">
<style type="text/css">
	.st0{fill:none;stroke:#0071BC;stroke-width:2;stroke-linecap:round;stroke-miterlimit:10;}
	.st1{fill:#0071BC;}
</style>
<g>
	<path class="st0" d="M43.1,59.1c8.3,11.1,23.8,13.3,34.7,5c1-0.8,1.8-1.4,2.6-2.4l14.9-14.9c9.5-9.9,9.3-25.6-0.6-35.1
		c-9.7-9.3-24.8-9.3-34.5,0l-8.5,8.5"/>
	<path class="st0" d="M62.8,49.1C54.5,38,39,35.8,28.1,44.1c-1,0.8-1.8,1.4-2.6,2.4L10.6,61.4C1.1,71.3,1.3,87,11.2,96.5
		c9.7,9.3,24.8,9.3,34.5,0l8.5-8.5"/>
</g>
<g>
	<g>
		<path class="st1" d="M166,97c-6,0-11.3-1.4-15.7-4s-8.1-6.4-10.5-11.3c-2.4-4.8-3.6-10.5-3.6-16.7V41.4c0-6.4,1.2-12.1,3.6-16.9
			c2.4-4.8,6-8.5,10.5-11.3c4.4-2.8,9.7-4,15.7-4c5,0,9.5,1,13.7,3.2c4,2.2,7.7,5,10.3,8.9c2.6,3.8,4.6,8.3,5.6,13.5h-8.5
			c-1-3.4-2.6-6.6-4.6-9.3c-2.2-2.6-4.6-4.6-7.5-6.2c-2.8-1.4-5.8-2.2-8.9-2.2c-6.4,0-11.7,2.2-15.5,6.6c-3.8,4.4-5.8,10.3-5.8,17.5
			v23.6c0,7.3,2,13.1,5.8,17.5s9.1,6.6,15.5,6.6c4.6,0,8.9-1.4,12.9-4.2s6.6-6.8,8.3-12.1h8.5c-1,4.8-2.8,9.1-5.6,12.7
			c-2.8,3.6-6.2,6.4-10.3,8.5C175.4,96,170.8,97,166,97z"/>
		<path class="st1" d="M234.9,97c-8.1,0-14.3-2.4-18.7-7.1c-4.4-4.6-6.6-11.3-6.6-19.7V60.1c0-8.5,2.2-14.9,6.6-19.5
			c4.4-4.6,10.7-6.8,18.7-6.8c8.1,0,14.3,2.2,18.7,6.8c4.4,4.6,6.6,11.1,6.6,19.5v10.1c0,8.5-2.2,14.9-6.6,19.5
			C249.2,94.8,242.9,97,234.9,97z M234.9,89.2c5.4,0,9.5-1.6,12.5-4.8s4.4-7.9,4.4-13.7V60.6c0-5.8-1.4-10.5-4.4-13.7
			s-7.1-4.8-12.5-4.8c-5.2,0-9.5,1.6-12.3,4.8s-4.4,7.9-4.4,13.7v10.1c0,5.8,1.4,10.5,4.4,13.7C225.4,87.6,229.6,89.2,234.9,89.2z"
			/>
		<path class="st1" d="M285.8,10.4v69.7c0,2.6,0.6,4.6,1.8,6s3,2.2,5.4,2.2h5.6v7.9h-7.1c-4.4,0-8.1-1.4-10.5-4.2
			c-2.6-2.8-3.8-6.8-3.8-11.9V10.6h8.5v-0.2H285.8z"/>
		<path class="st1" d="M320.9,10.4v69.7c0,2.6,0.6,4.6,1.8,6c1.2,1.4,3,2.2,5.4,2.2h5.6v7.9h-7.1c-4.4,0-8.1-1.4-10.5-4.2
			c-2.6-2.8-3.8-6.8-3.8-11.9V10.6h8.5v-0.2H320.9z"/>
		<path class="st1" d="M373.1,97c-8.5,0-15.1-2.4-19.7-7.3c-4.6-4.8-7.1-11.5-7.1-20.3v-6.8c0-9.1,2.2-16.1,6.6-21.2
			c4.4-5,10.9-7.5,19.1-7.5c7.7,0,13.7,2.4,17.9,7.5c4.2,4.8,6.2,11.9,6.2,20.8v7.1h-44.3v-7.7h36.3V61c0-6-1.4-10.7-4.2-14.1
			s-6.8-5-12.1-5c-5.6,0-10.1,1.8-13.3,5.2c-3,3.4-4.6,8.5-4.6,14.9v7.9c0,6,1.6,10.9,5,14.3s8.1,5,13.9,5s11.3-2.2,15.9-6.8
			l5.8,5.6c-3,2.8-6.4,5.2-10.3,6.8S376.7,97,373.1,97z"/>
		<path class="st1" d="M432.1,97c-6.6,0-11.9-2.2-15.7-6.4c-3.6-4.2-5.6-10.5-5.6-18.3V59c0-7.9,1.8-14.1,5.4-18.5s8.7-6.4,15.3-6.4
			c4.4,0,8.5,0.8,12.1,2.4s6.4,4.6,8.7,8.7l-1.2,11.9c0-2.6-0.6-5.2-1.8-7.5c-1.2-2.4-3-4.4-5.2-5.8c-2.4-1.6-5-2.2-8.5-2.2
			c-5,0-9.1,1.6-11.9,4.6s-4.2,7.5-4.2,13.1v13.3c0,5.4,1.4,9.9,4.2,12.9c2.8,3,6.6,4.6,11.9,4.6c3.2,0,6-0.8,8.5-2.4s4-3.6,5.2-6
			s1.8-5,1.8-7.7l0.8,12.9c-1.6,4-4.2,6.6-7.7,8.3C440.8,96.2,436.7,97,432.1,97z M433.3,121c-4.6,0-8.9-0.8-12.5-2.6
			c-3.6-1.6-6.4-4-8.5-7.3l5.8-5.2c4,5,8.9,7.7,14.9,7.7c5.6,0,10.1-1.6,13.3-4.8c3.2-3.2,4.6-7.7,4.6-13.3V35h8.5v59.4
			c0,8.5-2.2,15.1-6.8,19.7C448,118.8,441.6,121,433.3,121z"/>
		<path class="st1" d="M503.6,97c-8.5,0-15.1-2.4-19.7-7.3c-4.6-4.8-7.1-11.5-7.1-20.3v-6.8c0-9.1,2.2-16.1,6.6-21.2
			c4.4-5,10.9-7.5,19.1-7.5c7.7,0,13.7,2.4,17.9,7.5s6.2,11.9,6.2,20.8v7.1h-44.3v-7.7h36.3V61c0-6-1.4-10.7-4.2-14.1
			c-2.8-3.4-6.8-5-12.1-5c-5.6,0-10.1,1.8-13.3,5.2c-3,3.4-4.6,8.5-4.6,14.9v7.9c0,6,1.6,10.9,5,14.3s8.1,5,13.9,5
			s11.3-2.2,15.9-6.8L525,88c-3,2.8-6.4,5.2-10.3,6.8C511.1,96.4,507.4,97,503.6,97z"/>
		<path class="st1" d="M565.1,96.2V10.4h8.5v85.8H565.1z M570.9,18.3v-7.9h48.2v7.9H570.9z M570.9,58.3v-7.9h41.7v7.9H570.9z"/>
		<path class="st1" d="M654.9,97c-8.1,0-14.3-2.4-18.7-7.1c-4.4-4.6-6.6-11.3-6.6-19.7V60.1c0-8.5,2.2-14.9,6.6-19.5
			c4.4-4.6,10.7-6.8,18.7-6.8s14.3,2.2,18.7,6.8s6.6,11.1,6.6,19.5v10.1c0,8.5-2.2,14.9-6.6,19.5C669.2,94.4,663,97,654.9,97z
			 M654.9,89.2c5.4,0,9.5-1.6,12.5-4.8s4.4-7.9,4.4-13.7V60.6c0-5.8-1.4-10.5-4.4-13.7s-7.1-4.8-12.5-4.8c-5.2,0-9.5,1.6-12.3,4.8
			s-4.4,7.9-4.4,13.7v10.1c0,5.8,1.4,10.5,4.4,13.7C645.7,87.6,649.7,89.2,654.9,89.2z"/>
		<path class="st1" d="M697.4,96.2V35h8.5v61.2H697.4z M733.5,45.9c-2.6-2.6-6.4-4-11.5-4c-5.2,0-9.1,1.4-11.9,4.2
			c-2.8,2.8-4.2,6.4-4.2,11.3l-1.2-11.9c2.2-3.6,5.2-6.4,8.9-8.5c3.6-2,7.7-3,11.9-3c5.6,0,10.1,1.6,13.5,4.8L733.5,45.9z"/>
		<path class="st1" d="M749,96.2V10.4h8.5v85.8H749z M753.4,87.2l1.6-11.9L789.9,35H800L753.4,87.2z M792.5,96.2L772.4,63l5-8.1
			L803,96h-10.5V96.2z"/>
	</g>
</g>
</svg>
