<?xml version="1.0" encoding="utf-8"?>
<!-- Generator: Adobe Illustrator 22.0.0, SVG Export Plug-In . SVG Version: 6.00 Build 0)  -->
<svg version="1.1" id="图层_1" xmlns="http://www.w3.org/2000/svg" xmlns:xlink="http://www.w3.org/1999/xlink" x="0px" y="0px"
	 viewBox="0 0 83.7 21" style="enable-background:new 0 0 83.7 21;" xml:space="preserve">
<g>
	<path d="M54.2,20.3c-2.8,0-4.7-1.1-5.5-3.6c-0.8-2.2-2.8-3.3-5.3-3.3c-1.7,0-3.3,0.3-5,0.3c-11.6,0.6-23,1.1-34.6,1.9
		c-2.2,0-3-0.8-3.3-3C0,5.9,0.5,5.1,7.4,5.7C19.1,6.5,31,7,42.6,7.6c3.6,0.3,5-0.6,6.1-3.9c0.8-2.2,2.5-3,4.7-3c8.6,0,17.2,0,25.7,0
		c1.4,0,2.5,0.8,3.9,1.4c0,0.3,0,0.8,0,1.1c-1.4,0.3-2.8,1.1-4.1,1.1c-5.3,0-10.8,0-16.1,0c-0.8,0-1.7,1.1-2.5,1.7
		c0.8,0.8,1.4,1.7,2.2,2.2c0.3,0.3,1.1,0,1.7,0c5.3,0,10.5,0,15.8,0.3c1.4,0,2.5,0.6,3.6,0.8v2.2c-1.9,0.3-3.6,0.8-5.5,0.8
		c-5,0.3-9.7,0-14.7,0.3c-1.1,0-1.9,1.4-3,2.2c1.1,0.6,1.9,1.7,3,1.7c3.3,0.3,6.6,0,10,0c2.2,0,4.7-0.3,6.9,0c0.8,0,2.5,1.1,2.5,1.7
		c0.3,1.9-1.4,1.9-2.8,1.9c-0.3,0-0.3,0-0.6,0C71.1,20.3,62.8,20.3,54.2,20.3z"/>
</g>
</svg>
