<svg id="图层_1" data-name="图层 1" xmlns="http://www.w3.org/2000/svg" viewBox="0 0 30 30"><defs><style>.cls-1{fill:#6415ff;}</style></defs><title>画板 1</title><path class="cls-1" d="M5,6.8c0,1.68,0,3.36,0,5a.8.8,0,0,1-.52.83,1.18,1.18,0,0,0-.79,1.38c.14,2.36.25,4.72.39,7.08,0,.41-.06.71-.47.87h-1a.64.64,0,0,1-.49-.79c0-.28,0-.57.05-.85.11-2.2.24-4.4.34-6.61a1,1,0,0,0-.6-1,4.13,4.13,0,0,1-.8-.66V6.6l.34-.48.21.06A3.51,3.51,0,0,1,1.88,7c0,1,0,2.07,0,3.1,0,.16.22.31.34.46a4.47,4.47,0,0,0,.44-.43c0-.06,0-.19,0-.29,0-1,0-2,0-3A3.66,3.66,0,0,1,2.9,6.1h.4a2.77,2.77,0,0,1,.11.48c0,1,0,2.09.08,3.14a1.31,1.31,0,0,0,.09.53.49.49,0,0,0,.36.26c.11,0,.25-.18.31-.31a1.3,1.3,0,0,0,0-.49c0-1,0-2,0-3,0-.31.09-.62.48-.46C4.91,6.3,5,6.6,5,6.8Z"/><path class="cls-1" d="M10.47,18.14c0,1.7-1,3.17-2.78,3.17S5,20,5,18.15,6,15,7.75,15,10.47,16.24,10.47,18.14Zm-4.65,0c0,1.38.73,2.45,1.92,2.45s1.89-1,1.89-2.45S9,15.69,7.71,15.69,5.82,16.73,5.82,18.15Z"/><path class="cls-1" d="M16.76,20.7c0,1.93-.83,3-2.68,3a2.13,2.13,0,0,1-2.42-1.82h.82A1.52,1.52,0,0,0,14.12,23C15.6,23,16,22,16,20.58V20a1.88,1.88,0,0,1-2,1.14c-1.45,0-2.5-1.17-2.5-3,0-2,1.16-3.16,2.6-3.16,1.19,0,1.7.56,1.86,1,0-.31,0-.72,0-.86h.76c0,.28,0,1.17,0,1.75Zm-4.39-2.58c0,1.36.72,2.32,1.8,2.32C15.58,20.44,16,19.5,16,18s-.43-2.33-1.81-2.33S12.37,16.78,12.37,18.12Z"/><path class="cls-1" d="M18.65,12.34h.81v1.23h-.81Zm0,2.79h.81v6h-.81Z"/><path class="cls-1" d="M21.35,16.65c0-.52,0-1,0-1.52h.78a9.81,9.81,0,0,1,0,1.08,2,2,0,0,1,2-1.22c1.1,0,2,.64,2,2.28v3.9h-.8V17.38c0-1-.41-1.66-1.4-1.66-1.3,0-1.78,1-1.78,2.32v3.13h-.8Z"/></svg>