<?xml version="1.0" encoding="utf-8"?>
<!-- Generator: Adobe Illustrator 22.0.0, SVG Export Plug-In . SVG Version: 6.00 Build 0)  -->
<svg version="1.1" id="图层_1" xmlns="http://www.w3.org/2000/svg" xmlns:xlink="http://www.w3.org/1999/xlink" x="0px" y="0px"
	 viewBox="0 0 25.1 17.5" style="enable-background:new 0 0 25.1 17.5;" xml:space="preserve">
<style type="text/css">
	.st0{fill:#0071BC;}
</style>
<title>画板 1</title>
<path class="st0" d="M3.8,0.7c0,1.7,0,3.4,0,5c0,0.4-0.2,0.7-0.5,0.8C2.7,6.7,2.4,7.3,2.5,7.9c0.1,2.4,0.2,4.7,0.4,7.1
	c0,0.4-0.1,0.7-0.5,0.9h-1c-0.3-0.1-0.6-0.4-0.5-0.8c0,0,0,0,0,0c0-0.3,0-0.6,0-0.9C1.1,12,1.2,9.8,1.3,7.6c0-0.4-0.2-0.8-0.6-1
	C0.4,6.4,0.1,6.2-0.1,6V0.5L0.2,0l0.2,0.1c0.1,0.3,0.2,0.5,0.2,0.8c0,1,0,2.1,0,3.1c0,0.2,0.2,0.3,0.3,0.5c0.2-0.1,0.3-0.3,0.4-0.4
	c0-0.1,0-0.2,0-0.3c0-1,0-2,0-3C1.5,0.5,1.6,0.3,1.7,0h0.4c0.1,0.2,0.1,0.3,0.1,0.5c0,1,0,2.1,0.1,3.1c0,0.2,0,0.4,0.1,0.5
	c0.1,0.1,0.2,0.2,0.4,0.3C2.8,4.4,3,4.3,3,4.1c0-0.2,0-0.3,0-0.5c0-1,0-2,0-3C3,0.3,3.1,0,3.5,0.2C3.7,0.2,3.8,0.5,3.8,0.7z"/>
<path class="st0" d="M9.3,12.1c0,1.7-1,3.2-2.8,3.2s-2.7-1.3-2.7-3.2s1-3.1,2.8-3.1S9.3,10.2,9.3,12.1z M4.6,12.1
	c0,1.4,0.7,2.5,1.9,2.5s1.9-1,1.9-2.5S7.8,9.6,6.5,9.6S4.6,10.7,4.6,12.1L4.6,12.1z"/>
<path class="st0" d="M15.6,14.6c0,1.9-0.8,3-2.7,3c-1.2,0.2-2.2-0.6-2.4-1.8c0,0,0,0,0,0h0.8c0.2,0.7,0.9,1.2,1.6,1.1
	c1.5,0,1.9-1,1.9-2.4v-0.6c-0.3,0.8-1.2,1.3-2,1.1c-1.4,0-2.5-1.2-2.5-3c0-2,1.2-3.2,2.6-3.2c1.2,0,1.7,0.6,1.9,1c0-0.3,0-0.7,0-0.9
	h0.8c0,0.3,0,1.2,0,1.7L15.6,14.6z M11.2,12c0,1.4,0.7,2.3,1.8,2.3c1.4,0,1.8-0.9,1.8-2.4S14.4,9.6,13,9.6S11.2,10.7,11.2,12z"/>
<path class="st0" d="M17.4,6.3h0.8v1.2h-0.8V6.3z M17.4,9.1h0.8v6h-0.8V9.1z"/>
<path class="st0" d="M20.1,10.6c0-0.5,0-1,0-1.5h0.8c0,0.4,0,0.7,0,1.1c0.3-0.8,1.1-1.3,2-1.2c1.1,0,2,0.6,2,2.3v3.9h-0.8v-3.8
	c0-1-0.4-1.7-1.4-1.7c-1.3,0-1.8,1-1.8,2.3v3.1h-0.8L20.1,10.6z"/>
</svg>
