<?xml version="1.0" encoding="utf-8"?>
<!-- Generator: Adobe Illustrator 22.0.0, SVG Export Plug-In . SVG Version: 6.00 Build 0)  -->
<svg version="1.1" id="Layer_1" xmlns="http://www.w3.org/2000/svg" xmlns:xlink="http://www.w3.org/1999/xlink" x="0px" y="0px"
	 viewBox="0 0 300 300" style="enable-background:new 0 0 300 300;" xml:space="preserve">
<style type="text/css">
	.st0{fill:#FEFEFE;}
	.st1{fill:#E4E4E4;}
	.st2{fill:#FDFDFD;}
	.st3{fill:#E5E5E5;}
</style>
<g>
	<g>
		<path class="st0" d="M300.2,155c0,48.1,0,96.2,0,144.4c0,0.6-0.1,0.8-0.8,0.8c-48.1,0-96.1,0-144.2,0c0.1-0.5,0.6-0.4,0.9-0.4
			c3,0,6-0.3,9-0.6c5.7-0.6,11.3-1.4,16.8-2.6c5.4-1.2,10.8-2.6,16.1-4.4c5.4-1.9,10.8-4,16-6.4c6.8-3.2,13.3-6.9,19.6-11.1
			c5.7-3.8,11.2-8.1,16.3-12.7c3.1-2.8,6.2-5.7,9.1-8.8c4.5-4.7,8.6-9.7,12.4-15c2.8-3.9,5.5-7.9,7.9-12.1c4.7-8.3,8.9-16.9,12-26
			c3.2-9.1,5.5-18.4,7-27.9c0.5-3.4,0.9-6.7,1.1-10.1c0.1-2.1,0.4-4.2,0.3-6.3C299.8,155.5,299.7,155.1,300.2,155z"/>
		<path class="st0" d="M145.2,300.2c-48.1,0-96.1,0-144.2,0c-0.6,0-0.8-0.1-0.8-0.8c0-48.1,0-96.2,0-144.4c0.6,0.1,0.4,0.6,0.4,1
			c0,2.4,0.2,4.8,0.4,7.2c0.3,3.2,0.7,6.5,1.2,9.7c1.4,8.8,3.5,17.4,6.3,25.8c1.7,5,3.7,9.9,6,14.8c1.8,3.8,3.7,7.4,5.7,11.1
			c4.5,8.2,9.9,15.6,15.9,22.7c3.5,4.2,7.3,8.1,11.2,11.8c5.5,5.2,11.4,10,17.7,14.3c6.3,4.3,12.8,8.2,19.6,11.5
			c8.9,4.3,18,7.7,27.6,10.2c5.6,1.5,11.3,2.6,17.1,3.4c2.9,0.4,5.8,0.8,8.8,1c2.1,0.1,4.3,0.3,6.4,0.3
			C144.6,299.8,145.1,299.7,145.2,300.2z"/>
		<path class="st0" d="M161.6,0.2c45.9,0,91.9,0,137.8,0c0.6,0,0.8,0.1,0.8,0.8c0,48,0,96,0,144c-0.5-0.1-0.4-0.6-0.4-0.9
			c0-3-0.3-6-0.6-9c-0.5-4.7-1.2-9.3-2.1-13.9c-1.9-9.5-4.6-18.7-8.2-27.7c-2.4-5.9-5.2-11.6-8.3-17.1c-4.2-7.7-9.3-14.9-14.8-21.7
			c-4-4.9-8.3-9.5-12.9-13.8c-6.2-5.8-12.8-11.1-19.8-15.8c-4.2-2.8-8.6-5.4-13-7.7c-7.2-3.8-14.7-7-22.5-9.6
			C188.9,4.8,180,2.7,171,1.5c-2.9-0.4-5.8-0.8-8.7-0.9C162.1,0.5,161.7,0.6,161.6,0.2z"/>
		<path class="st0" d="M0.2,145c0-48,0-96,0-144c0-0.6,0.1-0.8,0.8-0.8c45.9,0,91.9,0,137.8,0c-0.1,0.5-0.4,0.4-0.7,0.4
			c-10.2,0.8-20.2,2.7-30.1,5.5c-7.3,2.1-14.4,4.8-21.3,8.1c-7,3.3-13.6,7-20,11.3c-5.7,3.8-11.1,8-16.2,12.6
			c-3.2,2.8-6.2,5.8-9.1,8.9c-5.2,5.5-10,11.4-14.3,17.6c-2.1,3-4.2,6.1-6,9.3c-2.9,5.2-5.7,10.4-8,15.8c-1.8,4.3-3.6,8.6-5,13
			c-2.9,8.7-4.9,17.5-6.2,26.5c-0.5,3.8-1,7.5-1.1,11.4c-0.1,1.2-0.1,2.4-0.2,3.6C0.6,144.5,0.7,144.9,0.2,145z"/>
		<path class="st1" d="M0.2,145c0.2-0.2,0.2-0.4,0.2-0.6c0-3.9,0.4-7.8,0.8-11.7c0.9-8.6,2.7-17,5.1-25.3c1.9-6.5,4.3-12.8,7.1-19
			c3.1-6.8,6.6-13.3,10.5-19.6c3.2-5.1,6.8-9.8,10.6-14.5c1.8-2.2,3.7-4.3,5.6-6.4c2.2-2.4,4.4-4.6,6.7-6.8c3.4-3.3,7-6.4,10.8-9.3
			c3.4-2.7,6.9-5.2,10.6-7.6c3.8-2.5,7.7-4.8,11.7-6.9c6.6-3.5,13.4-6.5,20.5-9c7.3-2.6,14.8-4.6,22.5-6c3.8-0.7,7.6-1.3,11.5-1.6
			c1.3-0.1,2.7-0.3,4-0.3c0.1,0,0.3-0.1,0.4-0.2c7.6,0,15.2,0,22.9,0c0.9,0.4,1.8,0.2,2.7,0.3c3.2,0.3,6.3,0.8,9.5,1.2
			c5.3,0.8,10.6,2,15.8,3.4c6.2,1.7,12.3,3.7,18.2,6.2c3.5,1.5,7,3,10.4,4.8c4.6,2.4,9,4.9,13.4,7.7c4.9,3.2,9.5,6.6,14,10.3
			c2.2,1.8,4.4,3.7,6.5,5.7c2.3,2.1,4.6,4.4,6.8,6.7c3.3,3.4,6.4,7.1,9.3,10.8c2.5,3.2,4.9,6.5,7.2,9.9c2.8,4.1,5.1,8.5,7.5,12.8
			c2.5,4.8,4.8,9.7,6.8,14.7c2.9,7.3,5.2,14.9,6.9,22.6c0.9,3.9,1.6,7.9,2.2,11.9c0.4,2.9,0.8,5.9,0.9,8.9c0.1,2.1,0.3,4.2,0.3,6.4
			c0,0.2,0,0.4,0.2,0.6c0,3.3,0,6.7,0,10c-0.3,0.3-0.2,0.7-0.2,1c0,3.2-0.4,6.5-0.7,9.7c-0.5,5.3-1.4,10.6-2.5,15.8
			c-0.9,4.4-2.1,8.8-3.4,13.1c-2.1,6.7-4.6,13.2-7.6,19.5c-1.7,3.6-3.6,7-5.5,10.5c-3.3,6.2-7.3,11.9-11.6,17.4
			c-2.1,2.8-4.4,5.4-6.7,8c-2.7,3.1-5.6,6-8.6,8.9c-3.4,3.3-7,6.4-10.8,9.3c-3.3,2.5-6.6,5-10.1,7.3c-4.1,2.7-8.3,5.1-12.6,7.4
			c-6.5,3.4-13.2,6.3-20.2,8.8c-7.3,2.6-14.8,4.6-22.5,6c-3.8,0.7-7.6,1.3-11.5,1.6c-3.4,0.3-6.7,0.7-10.1,0.7c-0.2,0-0.5,0-0.6,0.2
			c-3.3,0-6.7,0-10,0c-0.2-0.2-0.4-0.2-0.6-0.2c-3.7,0-7.4-0.3-11.1-0.7c-5.4-0.6-10.7-1.5-15.9-2.7c-5.4-1.2-10.7-2.7-15.9-4.4
			c-4.4-1.5-8.7-3.2-13-5.2c-7.9-3.5-15.4-7.7-22.5-12.6c-4.1-2.8-8.1-5.8-12-9c-4.7-3.9-9.1-8.1-13.3-12.5
			C36.2,248,32,242.8,28,237.3c-2.6-3.7-5.2-7.4-7.4-11.4c-2.6-4.7-5.1-9.4-7.3-14.3c-2.2-5.1-4.3-10.2-6-15.5
			c-2-6.3-3.6-12.8-4.8-19.3c-0.6-3.3-1.1-6.6-1.5-9.9c-0.3-2.4-0.5-4.9-0.6-7.3c-0.1-1.4-0.1-2.7-0.1-4.1c0-0.2,0-0.3-0.2-0.5
			C0.2,151.7,0.2,148.3,0.2,145z"/>
		<path class="st2" d="M3.3,150C4,109.7,17.9,74.6,46.5,46.1C75.4,17.3,110.7,2.8,151.6,3.2c39.8,0.4,74.1,14.8,102.2,42.9
			c28.9,28.9,43.4,64.3,43,105.3c-0.4,40.3-15.1,74.9-43.8,103.2c-28.8,28.4-63.8,42.5-104.3,42.2c-39.9-0.3-74.3-14.9-102.4-43.1
			C17.9,225.2,4,190.3,3.3,150z"/>
		<path class="st1" d="M148.8,51.9c25.6,0.2,46.9,7.6,64.9,23.2c22.7,19.7,34.7,44.8,34.6,75c0,26.7-9.8,49.8-28.7,68.8
			c-19.3,19.4-42.8,28.8-70.2,28.7c-52.7-0.3-97.2-44.2-96.4-99.2c0.4-26.4,10.2-49.2,28.8-67.9C100.8,61.5,123.9,52.3,148.8,51.9z"
			/>
		<path class="st1" d="M135.4,44c0.4,0,0.7,0,1,0c0.4,0,0.8,0.1,0.9,0.5c0.1,0.5-0.3,0.6-0.7,0.7c-0.7,0.2-1.5,0.5-2.2,0.6
			c-2,0.5-3.8,1.3-5.7,2.1c-0.3,0.1-0.5,0.3-0.8,0c-0.2-0.3-0.2-0.6,0.1-1c0,0,0.1-0.1,0.1-0.1c1.9-1.4,1.5-3,0.7-4.8
			c-1.8-4.1-3.5-8.2-5.3-12.4c-0.5-1.3-1.1-2.6-1.6-3.8c-0.2-0.4-0.3-0.9-0.8-0.9c-0.5,0.1-0.5,0.6-0.6,1c-0.2,1-0.3,1.9-0.4,2.9
			c-0.3,2.7-0.7,5.4-1,8.1c-0.3,2.5-0.6,5.1-0.9,7.6c-0.2,1.9-0.5,3.8-0.7,5.7c0,0.3-0.1,0.7-0.5,0.9c-0.4,0.1-0.6-0.3-0.8-0.5
			c-5.5-5.5-11-11.1-16.4-16.6c-0.3-0.3-0.5-0.8-0.9-0.6c-0.4,0.2-0.1,0.7,0,1.1c1.3,5.3,2.7,10.5,4,15.8c0.2,0.7,0.5,1.4,0.9,2
			c0.7,0.9,1.5,1.6,2.7,1.5c0.5,0,1,0,1.5,0c0.3,0,0.7,0.1,0.7,0.5c0.1,0.4-0.2,0.6-0.5,0.7c-0.6,0.2-1.1,0.4-1.7,0.5
			c-2.1,0.5-4.1,1.3-6.1,2.2c-0.3,0.1-0.6,0.4-0.9-0.1c-0.2-0.4-0.2-0.8,0.2-1.1c1.9-1.2,1.8-2.8,1.3-4.7
			c-1.6-5.8-2.9-11.8-4.9-17.5c-0.7-2-1.5-4-2.9-5.7c-0.7-0.8-1.5-1.4-2.6-1.4c-0.4,0-0.8,0-0.9-0.5c-0.1-0.6,0.3-0.7,0.7-0.8
			c1.4-0.3,2.8-0.7,4.1-1.4c0.6-0.3,1.1-0.2,1.6,0.3c2.3,2.5,4.8,4.8,7.1,7.3c1.9,2.1,4,4,5.9,6.1c2,2.2,4.1,4.2,6.2,6.3
			c0.2,0.3,0.5,0.7,0.9,0.5c0.3-0.2,0.3-0.6,0.4-0.9c0.4-3,0.8-6,1.2-8.9c0.4-2.9,0.7-5.8,1.1-8.7c0.4-2.9,0.8-5.7,1.2-8.6
			c0.1-0.5,0.1-1,0.2-1.5c0.1-0.7,0.5-1,1-1.1c1.1-0.2,2.2-0.6,3.3-1.1c0.3-0.2,0.7-0.3,1,0.1c0.2,0.4,0,0.8-0.4,0.9
			c-2.3,1.1-2,3.3-1.3,5.1c1,2.4,2,4.8,3,7.3c1.9,4.7,3.8,9.3,5.8,14c0.1,0.2,0.2,0.4,0.3,0.5C133.2,43.5,134.1,44.2,135.4,44z"/>
		<path class="st1" d="M180.8,251.1c3.4,0,5.8,0.9,7.3,3.5c1.7,2.9,1.7,5.8,0.1,8.7c-0.5,1-1.2,1.9-2.1,2.6c-0.4,0.4-0.3,0.6,0,1
			c3.6,3.1,7.1,6.2,10.8,9.2c1.6,1.3,3.3,2.3,5.5,2.1c0.3,0,0.7-0.1,0.7,0.3c0.1,0.4-0.3,0.5-0.6,0.7c-3.6,1.6-6,1.4-9.3-1.2
			c-2.6-2.1-5.1-4.4-7.6-6.7c-0.7-0.6-1.4-1.2-2.1-1.8c-0.7-0.7-1.5-0.7-2.3-0.5c-1.1,0.2-2.2,0.6-3.2,0.9c-0.9,0.3-1.1,0.6-0.8,1.5
			c0.9,3.1,1.9,6.2,2.7,9.3c0.6,2.3,2.2,2.8,4.1,2.5c0.4-0.1,0.8,0,1.3,0.1c0.3,0.1,0.6,0.2,0.6,0.5c0,0.4-0.3,0.4-0.6,0.5
			c-1.5,0.4-3,0.7-4.5,1.1c-1.8,0.5-3.6,1.1-5.4,1.7c-0.3,0.1-0.7,0.3-0.9-0.1c-0.3-0.4,0-0.7,0.3-1c0.1-0.1,0.1-0.1,0.2-0.2
			c1.8-1.2,1.9-2.7,1.4-4.7c-2.2-7.5-4.3-15-6.4-22.5c-0.5-1.6-1.5-2.6-3.3-2.4c-0.3,0-0.6,0-1,0c-0.4,0-0.7-0.1-0.7-0.5
			c-0.1-0.4,0.2-0.6,0.6-0.7c1.1-0.3,2.2-0.5,3.3-0.8c3.1-0.9,6.1-2,9.2-2.8C179,251.3,180.1,251.1,180.8,251.1z"/>
		<path class="st1" d="M181.2,48.3c2.1,0,2.9-0.7,3.9-2.8c1.4-3.2,2.9-6.3,4.3-9.5c1.8-4,3.6-7.9,5.4-11.9c0.7-1.5,0.3-2.6-1-3.5
			c-0.3-0.2-0.5-0.4-0.8-0.6c-0.3-0.2-0.6-0.5-0.3-0.9c0.2-0.3,0.6-0.4,0.9-0.2c0.2,0.1,0.3,0.1,0.5,0.2c2.6,1.7,5.6,2.6,8.5,3.9
			c2.3,1,4.5,2,6.3,3.8c3.1,3.1,2.9,6.9,0.6,10.2c-1.7,2.4-4.3,3.3-7.1,3.5c-0.6,0-0.8,0-0.7,0.7c0.5,2.9,0.9,5.7,1.3,8.6
			c0.3,2,0.6,3.9,1,5.8c0.4,2.1,1.5,3.8,3.3,5c0.2,0.1,0.4,0.3,0.6,0.5c0.2,0.3,0,0.6-0.3,0.5c-2.5-0.8-5.1-1.5-6.5-4
			c-0.9-1.6-1.2-3.4-1.4-5.2c-0.3-2.4-0.7-4.8-1-7.1c-0.1-1.1-0.3-2.2-0.4-3.3c-0.1-0.9-0.4-1.6-1.2-2.1c-1.1-0.7-2.4-1.1-3.6-1.7
			c-0.5-0.3-1-0.1-1.2,0.4c-1.5,3.3-3,6.5-4.5,9.8c-0.5,1.2,0,2.6,1.4,3.6c0.4,0.3,0.8,0.6,1.2,0.9c0.3,0.3,0.4,0.7,0.2,1
			c-0.2,0.4-0.6,0.1-0.8,0c-3-1.7-6.2-2.9-9.3-4.3c-0.3-0.1-0.7-0.1-0.6-0.6c0.1-0.5,0.5-0.5,0.9-0.5
			C180.9,48.3,181.1,48.3,181.2,48.3z"/>
		<path class="st1" d="M48.2,185.8c0.1-0.7-0.1-1.4-0.3-2.1c-0.1-0.3-0.2-0.8,0.2-0.9c0.5-0.2,0.7,0.2,0.9,0.5
			c0.4,1.2,1.1,2.3,1.8,3.4c0.3,0.4,0.2,0.9,0,1.4c-1.9,4.8-3.6,9.7-5.3,14.5c-2.2,5.9-4.3,11.8-6.4,17.7c-0.1,0.2-0.3,0.4-0.1,0.6
			c0.2,0.1,0.4,0,0.6-0.1c3.2-1.7,6.5-3.4,9.7-5.2c2.7-1.5,5.4-2.9,8.1-4.4c1.8-1,2.8-2.7,2.1-5.2c-0.1-0.3-0.2-0.7-0.2-1
			c0-0.3-0.1-0.7,0.3-0.8c0.4-0.1,0.6,0.1,0.7,0.4c0.4,0.8,0.7,1.6,1.1,2.4c0.8,1.8,1.9,3.4,2.9,5.1c0.1,0.3,0.4,0.5,0.1,0.8
			c-0.3,0.3-0.6,0.1-0.8,0c-0.6-0.3-1.1-0.9-1.9-1c-0.9-0.1-1.7,0.3-2.5,0.7c-3.4,1.8-6.7,3.6-10.1,5.4c-4.2,2.3-8.5,4.5-12.7,6.8
			c-0.7,0.4-1.3,1-2.1,1.2c-0.7,0.2-0.9,0-0.8-0.6c0-0.8,0.3-1.6,0.6-2.3c1.6-4.5,3.3-8.9,5-13.3c1.9-5,3.8-10.1,5.6-15.1
			c0.1-0.3,0.5-0.7,0.1-0.9c-0.3-0.2-0.7,0-1,0.2c-5.5,2.9-10.9,5.9-16.4,8.8c-0.4,0.2-0.9,0.4-1.3,0.7c-1.4,1-1.3,2.4-0.9,3.8
			c0.1,0.4,0.6,1,0,1.3c-0.7,0.3-0.9-0.4-1.1-0.9c-1.1-2.5-2.4-4.9-3.9-7.2c-0.2-0.3-0.3-0.6,0-0.8c0.3-0.2,0.6-0.2,0.9,0
			c0.2,0.2,0.4,0.4,0.6,0.6c1.6,1.5,3.3,1.3,5,0.5c2.4-1.2,4.8-2.5,7.1-3.7c2-1.1,4.1-2.2,6.1-3.3c1.9-1,4-1.9,5.7-3.3
			C47,189.2,48.3,187.9,48.2,185.8z"/>
		<path class="st1" d="M141.5,29.8c-0.1-4.7,1.2-8.6,3.9-11.9c2.6-3.2,6-5.1,10.1-5.9c4.1-0.7,8.1-0.3,11.8,1.5
			c5,2.5,8.2,6.4,9,11.9c1,6.3-0.4,12-5.1,16.7c-2.4,2.4-5.4,3.7-8.7,4.3c-3.8,0.6-7.6,0.4-11.2-1.1c-5-2-8-5.7-9.3-10.9
			C141.6,32.8,141.4,31.1,141.5,29.8z"/>
		<path class="st1" d="M139.5,286.3c3.2-0.2,6.3-0.5,8.9-2.4c0.4-0.3,0.7-0.7,1.1-1c0.2-0.2,0.5-0.5,0.8-0.3
			c0.3,0.2,0.2,0.6,0.2,0.9c-0.1,0.7-0.4,1.2-0.8,1.8c-0.7,1.1-1.6,2-2.6,2.7c-0.9,0.6-1.8,0.7-2.9,0.6c-1.9-0.2-3.9-0.4-5.8-0.6
			c-2.4-0.2-4.8-0.5-7.3-0.7c-1.3-0.1-2.7,0-4-0.2c-0.4-0.1-0.9,0-0.9-0.4c-0.1-0.5,0.4-0.5,0.8-0.6c0.1,0,0.1,0,0.2-0.1
			c2.3-0.8,2.7-1.4,2.8-3.8c0.1-2.3,0.4-4.7,0.6-7c0.1-1.5,0.2-3.1,0.4-4.6c0.2-2.5,0.5-5,0.6-7.5c0.1-1.8,0.4-3.6,0.2-5.5
			c-0.1-1.1-0.7-1.8-1.7-2.2c-0.4-0.1-0.8-0.2-1.1-0.4c-0.3-0.1-0.6-0.3-0.5-0.7c0.1-0.4,0.4-0.4,0.7-0.4c1.1,0.1,2.3,0.1,3.4,0.2
			c1.6,0.1,3.1,0.3,4.7,0.5c2.1,0.2,4.1,0.5,6.2,0.6c1.5,0.1,2.9,0.2,4.4,0.2c0.7,0,1.4,0.2,2.1,0.2c0.4,0,0.5,0.3,0.5,0.7
			c0,1.8-0.2,3.5-0.8,5.2c-0.1,0.3-0.2,0.8-0.7,0.7c-0.5-0.1-0.4-0.6-0.4-0.9c0-2.9-0.4-3.2-3.3-3.9c-2.6-0.6-5.3-0.7-8-0.7
			c-0.8,0-1.3,0.3-1.3,1.1c-0.2,1.8-0.4,3.5-0.5,5.3c-0.2,1.9-0.3,3.7-0.5,5.6c-0.1,0.6,0.1,1.1,0.8,1.2c2.2,0.2,4.4,0.4,6.6,0.5
			c2,0.1,2.9-0.6,3.7-2.5c0.1-0.3,0.2-0.9,0.7-0.9c0.6,0.1,0.5,0.7,0.5,1.1c-0.2,2.2-0.4,4.3-0.6,6.5c0,0.5,0,1-0.1,1.6
			c0,0.3-0.1,0.7-0.5,0.7c-0.5,0.1-0.6-0.3-0.7-0.6c-0.1-0.4-0.2-0.8-0.2-1.3c-0.2-1.6-0.9-2.4-2.5-2.5c-2.3-0.2-4.5-0.4-6.8-0.5
			c-1-0.1-1.2,0.2-1.3,1.2c-0.2,3.1-0.4,6.1-0.7,9.2c-0.1,0.6-0.2,1.1-0.2,1.7c0,1,0.4,1.5,1.3,1.8
			C136.2,286.3,137.9,286.2,139.5,286.3z"/>
		<path class="st1" d="M92.1,60.4c0.2,2-0.7,3.6-2.4,4.9c-2.7,1.9-5.3,3.9-7.9,5.9c-1.7,1.3-3.4,2.6-4.9,4.2c-0.3,0.3-0.6,0.6-1,0.3
			c-0.4-0.3-0.3-0.7,0-1.1c1.4-1.7,1-3.3-0.3-4.9c-3.5-4.3-6.9-8.7-10.3-13.1c-1.4-1.7-2.7-3.5-4.1-5.2c-1.3-1.8-2.5-2.1-4.5-1.1
			c-0.1,0.1-0.3,0.1-0.4,0.2c-0.3,0.1-0.6,0.2-0.8-0.1c-0.2-0.3,0-0.6,0.2-0.8c0.3-0.3,0.6-0.6,1-0.9c3.7-2.8,7.4-5.6,11.1-8.5
			c1.2-1,2.4-2,3.6-3.1c0.9-0.8,1-0.8,1.7,0.1c1,1.1,1.8,2.4,2.5,3.7c0.1,0.2,0.2,0.5,0.2,0.7c0,0.2,0,0.5-0.3,0.6
			c-0.2,0.1-0.4,0-0.5-0.2c-0.3-0.3-0.7-0.7-1-1c-0.8-1-1.8-1-2.9-0.6c-1.5,0.6-2.8,1.6-4.1,2.6c-1.1,0.8-2.1,1.7-3.2,2.5
			c-1.2,0.9-1.3,1.4-0.4,2.7c2.1,2.8,4.3,5.5,6.4,8.3c0.3,0.4,0.7,0.6,1.2,0.2c1.8-1.5,3.8-2.8,5.6-4.5c1.2-1.1,1.4-2.4,0.8-3.9
			c-0.1-0.4-0.7-0.9-0.1-1.2c0.5-0.3,0.8,0.3,1.1,0.6c1.6,2,3.2,4,4.7,6c0.2,0.3,0.7,0.6,0.2,1c-0.4,0.4-0.8,0.1-1.1-0.2
			c-0.3-0.2-0.6-0.5-0.9-0.8c-1.1-0.8-2.4-0.8-3.5,0.1c-1.7,1.3-3.4,2.7-5.1,4c-0.9,0.7-0.9,0.9-0.2,1.8c1.9,2.4,3.8,4.8,5.6,7.2
			c0.3,0.3,0.5,0.7,0.8,1c1.2,1.3,1.7,1.4,3.1,0.4c3.5-2.4,6.5-5.2,7.9-9.4c0.3-0.8,0.4-1.7,0.4-2.5c0-0.2,0-0.5,0.2-0.6
			c0.3-0.1,0.5,0.2,0.6,0.3C92.1,57.5,92.2,58.8,92.1,60.4z"/>
		<path class="st1" d="M24.3,171.3c3.1-0.1,6.2-0.4,9.3-0.7c1.7-0.2,3.5-0.2,5.2-0.4c0.9-0.1,1.7-0.1,2.6-0.2c1.8-0.3,2.7-1.3,3-3.4
			c0-0.2,0-0.4,0-0.5c0.1-0.3,0.2-0.7,0.7-0.7c0.4,0,0.5,0.3,0.6,0.6c0.1,0.3,0.1,0.7,0.1,1c0,2.1,0.1,4.1,0.5,6.2
			c0,0.1,0,0.3,0,0.4c0,0.3-0.1,0.7-0.4,0.8c-0.4,0.2-0.6-0.2-0.8-0.4c-0.4-0.6-0.7-1.2-1.4-1.6c-0.8-0.4-1.6-0.4-2.4-0.4
			c-1.9,0.1-3.7,0.2-5.6,0.4c-2.5,0.2-5.1,0.5-7.6,0.6c-2.9,0.2-5.9,0.5-8.8-0.4c-3.7-1.2-6-3.7-7-7.3c-1.1-3.9-1.2-7.8-0.1-11.7
			c0.9-3.3,3-5.6,6.2-6.9c1.9-0.8,3.9-1.2,6-1.3c3.2-0.2,6.4-0.6,9.6-0.8c1.7-0.1,3.4-0.3,5.1-0.3c0.6,0,1.3-0.1,1.9-0.2
			c1.2-0.3,1.2-1.3,1.4-2.2c0.1-0.3,0.1-0.7,0.2-1c0.1-0.3,0.2-0.7,0.6-0.7c0.4,0,0.5,0.4,0.6,0.8c0.1,0.7,0.2,1.4,0.2,2.1
			c0,2,0.3,3.9,0.5,5.8c0.1,0.4,0,0.9,0,1.3c0,0.2,0,0.5-0.3,0.6c-0.3,0.1-0.5-0.1-0.7-0.3c-0.1-0.1-0.1-0.2-0.1-0.3
			c-0.7-2.2-1.6-2.4-3.9-2.1c-0.9,0.1-1.8,0.1-2.7,0.2c-3.4,0.3-6.8,0.4-10.1,0.8c-2.2,0.2-4.5,0.2-6.6,1c-3.8,1.4-5.9,4.2-6.4,8.2
			c-0.4,2.9,0,5.7,1.3,8.4c1.3,2.6,3.6,4,6.4,4.6C22.2,171.3,23.2,171.3,24.3,171.3z"/>
		<path class="st1" d="M226,250.6c-2.1-0.1-3.9,0.6-5.7,1.1c-2.3,0.7-4.6,1.6-7,1.9c-3.2,0.4-5.9-0.5-7.9-3.1
			c-1.2-1.5-1.9-3.3-1.9-5.2c0-2,0.7-4,2-5.6c2.4-2.9,5.5-4.8,9.2-5.7c0.3-0.1,0.6-0.1,0.9-0.1c0.4-0.1,0.8-0.3,1-0.8
			c0.2-0.6,0.7-0.7,1.1-0.1c1.3,1.5,2.6,3,3.9,4.6c0.2,0.2,0.7,0.5,0.3,1c-0.4,0.4-0.9,0.2-1.2-0.1c-1.1-0.9-2.3-1.6-3.7-1.9
			c-2.3-0.5-4.5-0.3-6.6,0.9c-2,1.1-3.7,2.6-4.6,4.7c-0.9,2-0.6,3.9,0.7,5.6c1.2,1.6,2.9,2.1,4.9,1.8c3-0.4,5.8-1.7,8.7-2.4
			c2.3-0.6,4.7-1,7-0.2c3.3,1.2,5.3,3.7,5.9,7.2c0.6,3.4-0.8,6.2-3,8.7c-2.2,2.4-4.6,4.3-7.7,5.3c-1.1,0.4-2.2,0.5-3.4,0.7
			c-0.9,0.1-1.3-0.6-1.8-1c-1.3-1.1-2.4-2.4-3.6-3.6c-0.1-0.1-0.1-0.1-0.2-0.2c-0.3-0.4-0.6-0.8-0.2-1.2c0.5-0.4,0.9,0,1.3,0.3
			c1.9,1.9,4.3,2.6,6.8,2.6c2.2,0,4.2-0.8,6-2.1c2-1.5,3.5-3.3,4-5.7c0.6-2.9-0.7-5.9-3.2-7C227.4,250.6,226.6,250.6,226,250.6z"/>
		<path class="st1" d="M275.1,205.9c0-0.3,0-0.6,0-0.9c-0.1-1-0.4-1.8-1.4-2.2c-3-1.2-5.9-2.5-8.8-3.7c-4.7-2-9.5-3.9-14.2-5.9
			c-0.3-0.1-0.7-0.2-1-0.3c-0.5-0.2-0.9,0-1.1,0.5c-1,2.4-2,4.8-2.9,7.3c-0.7,1.7-0.3,2.7,1.1,3.7c0.4,0.3,0.7,0.6,1.1,1
			c0.2,0.2,0.3,0.5,0.1,0.8c-0.2,0.3-0.4,0.2-0.7,0.1c-1.6-0.8-3.2-1.7-4.7-2.6c-0.6-0.4-0.7-0.9-0.4-1.6c1.4-3.3,2.9-6.7,4.3-10
			c1.9-4.4,3.7-8.9,5.4-13.4c1-2.5,1-2.5,3.5-1.7c0.8,0.3,1.7,0.6,2.5,0.8c0.3,0.1,0.7,0.2,0.6,0.7c-0.1,0.5-0.5,0.6-0.9,0.6
			c-0.3-0.1-0.6-0.2-0.9-0.3c-0.9-0.2-1.7,0-2.3,0.8c-1.1,1.8-1.7,3.8-2.5,5.7c-0.4,0.9-0.7,1.8-1.1,2.7c-0.3,0.7-0.2,1.1,0.5,1.3
			c2.5,1,5,2.1,7.6,3.2c5.2,2.2,10.5,4.3,15.7,6.5c1.8,0.7,2.8,0.4,3.9-1.1c0.3-0.4,0.6-1.2,1.3-0.8c0.7,0.4,0.2,1-0.1,1.5
			c-1.3,2.6-2.4,5.4-3.4,8.1c-0.1,0.4-0.1,0.9-0.7,0.8c-0.5-0.1-0.6-0.5-0.5-1C275.1,206.4,275.1,206.2,275.1,205.9z"/>
		<path class="st1" d="M90.9,243c0-0.5,0-1,0-1.4c0-0.9-0.2-1.6-0.9-2.2c-0.3-0.3-0.6-0.6-0.8-0.9c-0.2-0.2-0.3-0.5,0-0.8
			c0.2-0.3,0.5-0.3,0.8-0.1c1,0.6,2.1,1.1,3.1,1.7c1.2,0.7,2.4,1.2,3.7,1.7c0.4,0.1,0.8,0.3,0.7,0.7c-0.1,0.5-0.5,0.4-0.9,0.4
			c-1.3,0.1-2,0.7-2.2,2.1c-0.1,0.8-0.2,1.5-0.2,2.3c-0.1,3.7-0.5,7.4-0.6,11.1c-0.1,2-0.2,4-0.3,5.9c-0.1,1.9-0.3,3.7-0.3,5.6
			c0,0.3-0.1,0.8,0.3,0.9c0.4,0.2,0.7-0.2,1-0.4c3-2.7,6-5.4,9-8.1c2.9-2.6,5.8-5.1,8.6-7.7c0.5-0.4,0.8-0.9,1.1-1.5
			c0.4-1,0.2-1.6-0.7-2.3c-0.3-0.2-0.5-0.4-0.7-0.6c-0.2-0.2-0.5-0.5-0.2-0.8c0.2-0.3,0.5-0.3,0.8-0.1c0.4,0.3,0.9,0.5,1.4,0.8
			c1.4,0.9,3,1.4,4.4,2.1c0.3,0.2,0.8,0.3,0.7,0.8c-0.1,0.5-0.6,0.5-1,0.5c-1.5-0.1-2.4,0.9-3.3,1.8c-2.9,2.5-5.8,5-8.7,7.5
			c-2.4,2.1-4.7,4.1-7.1,6.2c-2.7,2.3-5.4,4.7-8.1,7c-0.2,0.2-0.5,0.4-0.9,0.3c-0.4-0.2-0.4-0.5-0.4-0.9c0.1-2.9,0.2-5.8,0.5-8.7
			c0.1-1.1,0.1-2.3,0.2-3.4c0.2-2.6,0.2-5.2,0.4-7.8c0.2-3,0.4-6.1,0.5-9.1C90.8,244.7,90.9,243.8,90.9,243z"/>
		<path class="st1" d="M288.6,150.8c-0.4,2.6-0.4,5.7-0.3,8.7c0,0.3-0.1,0.5-0.4,0.6c-0.3,0.1-0.5-0.1-0.6-0.3
			c-0.3-0.4-0.3-0.9-0.4-1.3c-0.2-1.3-1.1-2-2.3-2.1c-3.7-0.1-7.4-0.2-11-0.4c-1.5-0.1-2.5,0.7-3.6,1.4c-3.9,2.2-7.7,4.5-11.6,6.7
			c-1.2,0.7-2.1,1.6-2.4,3c-0.1,0.4-0.2,0.9-0.7,0.8c-0.6-0.1-0.6-0.6-0.5-1c0.2-2.8,0.4-5.6,0.3-8.4c0-0.3,0-0.5,0.3-0.6
			c0.3-0.1,0.5,0.2,0.6,0.4c0.1,0.2,0.2,0.5,0.4,0.7c0.6,1.2,1.3,1.5,2.5,0.8c1.7-1,3.4-2,5.1-3c1.6-0.9,3.2-1.9,4.8-2.8
			c1.2-0.7,1.2-1.1,0.1-1.8c-2.8-1.9-5.6-3.8-8.4-5.6c-1-0.7-2.5-1-3.2,0c-0.3,0.4-0.4,0.8-0.5,1.3c-0.1,0.2-0.1,0.5-0.2,0.8
			c-0.1,0.4-0.2,0.9-0.7,0.8c-0.5-0.1-0.6-0.6-0.6-1c0.3-2.3,0.3-4.7,0.3-7c0-0.4,0-0.9,0.5-1c0.5-0.1,0.7,0.4,0.8,0.7
			c0.4,1,1.2,1.7,2,2.3c4.1,2.8,8.2,5.7,12.3,8.5c0.5,0.4,1,0.5,1.7,0.5c3.7,0.1,7.5,0.3,11.2,0.3c1.8,0,2.6-0.5,3.2-2.2
			c0-0.1,0-0.2,0.1-0.2c0.2-0.4,0.1-1.2,0.9-1.2C288.5,149,288.6,149.2,288.6,150.8z"/>
		<path class="st1" d="M229.5,40.6c0.1-1.3-0.3-2.1-0.8-2.8c-0.2-0.3-0.7-0.7-0.1-1.1c0.4-0.3,0.8-0.1,1.1,0.3
			c1.9,2,3.9,3.7,6.1,5.3c0.3,0.2,0.5,0.5,0.4,0.8c-0.1,0.4-0.5,0.3-0.8,0.3c-0.2,0-0.4-0.1-0.7-0.1c-1.3-0.3-2,0.1-2.2,1.4
			c-0.6,3.6-1.2,7.3-1.7,10.9c0,0.1,0,0.1,0,0.2c-0.1,1.7,0,1.8,1.7,1.3c3-0.9,6-1.9,9-2.8c0.2-0.1,0.5-0.1,0.7-0.2
			c1.8-0.7,2.1-2,0.9-3.5c-0.2-0.3-0.5-0.6-0.7-0.9c-0.2-0.3-0.2-0.5,0.1-0.8c0.3-0.2,0.5-0.2,0.8,0c0.3,0.2,0.7,0.5,0.9,0.8
			c1.4,1.5,3,2.8,4.7,4.1c0.4,0.3,0.6,0.6,0.3,1c-0.2,0.4-0.6,0.2-0.9,0.1c-1.3-0.5-2.4-0.1-3.6,0.3c-4.6,1.4-9.2,2.8-13.8,4
			c-1.2,0.3-1.7,1.3-2.4,2.1c-1.4,1.5-2.8,3.2-4.1,4.7c-0.8,0.9-1.7,1.8-2.4,2.8c-0.9,1.1-0.9,2.3-0.1,3.4c0.2,0.3,0.4,0.7,0.6,1
			c0.1,0.3,0.1,0.6-0.1,0.8c-0.3,0.2-0.6,0.1-0.8-0.2c-0.8-0.8-1.7-1.5-2.5-2.3c-1.3-1.3-2.7-2.4-4.1-3.5c-0.2-0.2-0.4-0.3-0.6-0.5
			c-0.2-0.2-0.5-0.3-0.3-0.7c0.2-0.3,0.5-0.4,0.9-0.2c0.3,0.1,0.7,0.3,1,0.4c1.2,0.6,2.1,0.5,3-0.5c1.4-1.5,2.8-3.1,4.2-4.7
			c0.9-1,1.6-2.1,2.6-3c1.3-1.1,1.4-2.5,1.7-4c0.4-2.4,0.7-4.8,1.1-7.1C228.8,45.2,229.2,42.7,229.5,40.6z"/>
		<path class="st1" d="M230.9,220.7c-1-0.1-1.7,0.6-2.4,1.1c-0.3,0.2-0.6,0.5-1,0.1c-0.4-0.5,0.1-0.7,0.3-0.9c2-2.2,4-4.5,5.7-6.9
			c0.2-0.3,0.5-0.7,1-0.5c0.5,0.3,0.1,0.7,0,1c-0.1,0.4-0.3,0.7-0.4,1c-0.3,1.1,0,2.1,0.9,2.8c2.1,1.7,4.2,3.4,6.2,5.2
			c3.1,2.8,6.3,5.5,9.5,8.1c1.2,1,2.4,2,3.6,3.1c1,0.9,2,1,3.1,0.3c0.5-0.3,1-0.7,1.5-1c0.3-0.2,0.6-0.4,0.9,0
			c0.3,0.3,0.1,0.6-0.2,0.8c-0.7,0.8-1.3,1.6-2,2.3c-1.4,1.5-2.7,3.1-4,4.8c-0.3,0.4-0.6,1.2-1.3,0.8c-0.8-0.4-0.2-1.1,0-1.6
			c0.7-1.7,0.2-3.1-1.6-4.6c-2.5-2-4.9-4.1-7.3-6.1c-2-1.6-4-3.2-5.8-5c-1.6-1.5-3.3-2.9-4.9-4.3
			C232.1,220.9,231.5,220.6,230.9,220.7z"/>
		<path class="st1" d="M73.1,224.7c0.1-1-0.4-1.7-0.9-2.4c-0.2-0.4-0.6-0.7-0.1-1.1c0.5-0.4,0.7,0.2,0.9,0.4c1.3,1.3,2.7,2.6,3.8,4
			c0.6,0.8,1.5,1.4,2.2,2c0.2,0.2,0.4,0.3,0.6,0.5c0.3,0.2,0.4,0.5,0.2,0.8c-0.2,0.4-0.5,0.2-0.8,0c-0.5-0.2-0.9-0.6-1.5-0.7
			c-1-0.2-1.9,0.2-2.6,0.9c-3.1,3.3-6.2,6.5-9.3,9.8c-1.8,1.9-3.6,3.7-5.3,5.5c-1,1-2,2.1-3,3.1c-0.8,0.9-0.9,1.8-0.1,3.1
			c0.3,0.4,0.6,0.9,0.8,1.3c0.1,0.3,0.2,0.7-0.1,1c-0.4,0.3-0.6,0-0.9-0.3c-0.8-0.8-1.5-1.6-2.3-2.4c-1.5-1.5-3-2.8-4.6-4.2
			c-0.4-0.4-0.8-0.7-0.5-1.2c0.4-0.6,0.9-0.2,1.3,0c1.8,1,2.8,0.9,4.2-0.6c3.3-3.4,6.7-6.9,10-10.3c2.2-2.4,4.4-4.8,6.7-7.1
			C72.7,226.4,73.2,225.7,73.1,224.7z"/>
		<path class="st1" d="M44.5,92.7c0.3-0.1,0.5,0.2,0.6,0.4c1.2,2.3,2.4,4.6,3.6,6.9c0.4,0.7-0.2,0.7-0.6,0.8c-2,0.4-4,0.7-6,1.1
			c-2.1,0.4-2.1,0.4-3.1-1.6c-0.9-1.7-1.8-3.5-2.7-5.2c-0.3-0.5-0.1-0.7,0.4-0.8c2.6-0.5,5.1-1,7.7-1.5
			C44.4,92.7,44.4,92.7,44.5,92.7z"/>
		<path class="st1" d="M260.4,103c-2.7-0.5-5.3-1-7.9-1.5c-0.5-0.1-0.6-0.3-0.3-0.7c1.2-2.2,2.4-4.5,3.5-6.7
			c0.2-0.4,0.5-0.5,0.9-0.4c2.6,0.5,5.1,1.1,7.6,1.6c0.4,0.1,0.6,0.2,0.3,0.7c-1.2,2.3-2.4,4.5-3.6,6.8
			C260.8,103,260.6,103,260.4,103z"/>
		<path class="st0" d="M152.2,244.3c-22.4-0.1-41.5-6.1-58.1-18.9c-24.6-19.1-37.7-44.5-37.8-75.8c-0.1-25.9,9.4-48.2,27.7-66.6
			c18.5-18.6,41.1-27.8,67.2-27.8c21.3,0,40.7,6.5,57.3,19.9C232.4,94.2,245,119.3,245,150c0,25.8-9.4,48.1-27.5,66.4
			C199.2,234.9,176.8,244,152.2,244.3z"/>
		<path class="st0" d="M186.2,261.1c0.2,2.7-1.7,5.1-4.7,6c-1.3,0.4-2.6,0.7-3.9,1.1c-0.7,0.2-1.2,0-1.4-0.8
			c-1.1-3.7-2.1-7.4-3.2-11.2c-0.2-0.6-0.2-1.4,0.5-1.6c2.8-1.1,5.7-1.8,8.6-0.5c2.3,1,3.3,3,3.9,5.2
			C186.2,260,186.3,260.6,186.2,261.1z"/>
		<path class="st0" d="M200.9,39.1c-2.1,0.1-3.6-0.8-5.3-1.5c-0.7-0.3-1.4-0.6-2-1.2c-0.3-0.3-0.3-0.5-0.2-0.9
			c1.6-3.5,3.1-7.1,4.7-10.6c0.4-1,1-1.3,1.9-1c2.3,0.9,4.5,2,6,4.2c1.5,2.3,1.4,4.6,0.4,7c-0.8,1.9-2.1,3.4-4.3,4
			C201.7,39.2,201.2,39.1,200.9,39.1z"/>
		<path class="st0" d="M145.2,28.3c0-3.8,0.9-7.4,3.3-10.5c2-2.5,4.5-4.1,7.7-4.5c4.2-0.5,7.9,0.6,11.2,3.4c2.9,2.5,4.5,5.6,5.3,9.3
			c0.9,4.3,0.6,8.4-1.4,12.3c-2.5,4.8-6.5,7.3-11.9,7c-3-0.1-5.8-1.3-8.2-3.3c-3.5-3-5.2-6.8-5.8-11.2c-0.1-0.4-0.2-0.8-0.2-1.3
			C145.2,29.1,145.2,28.7,145.2,28.3z"/>
		<path class="st1" d="M152.7,91.1c20.8,0,41.5,0,62.3,0c1.2,0,1.2,0,1.2,1.1c0,1.4,0,2.8,0,4.2c0.1,4.1,0.2,8.3,0.4,12.4
			c0.1,2.1,0,4.2,0.1,6.3c0.2,2.7,0.2,5.4,0.1,8c-0.1,2.8-0.1,5.5-0.2,8.3c-0.1,3.5-0.3,6.9-0.7,10.4c-0.5,4.8-1.1,9.6-2,14.3
			c-1.4,7.8-3.7,15.3-6.7,22.6c-3,7.3-6.9,14.1-11.6,20.5c-2.8,3.9-5.9,7.5-9.3,11c-4.9,5.1-10.4,9.6-16.2,13.8
			c-5.9,4.4-12.3,7.9-18.8,11.2c-0.6,0.3-1.3,0.6-1.9,0.9c-0.3,0.2-0.5,0.1-0.8-0.1c-6.3-3-12.4-6.3-18-10.4c-2.8-2-5.5-4.1-8.1-6.4
			c-2.4-2.1-4.8-4.3-7.1-6.6c-3.5-3.7-6.7-7.5-9.7-11.7c-3.5-5-6.5-10.3-9.1-15.8c-1.6-3.3-2.9-6.7-4.1-10.1c-1.6-4.4-2.9-9-4-13.6
			c-1-4.2-1.8-8.3-2.4-12.6c-0.5-3.3-0.9-6.6-1.2-9.9c-0.3-3.3-0.5-6.6-0.7-10c-0.5-8.9-0.3-17.8-0.3-26.7c0-1.8,0.1-3.6,0.1-5.3
			c0-0.6,0.3-1,0.6-1.4c1.3-1.3,2.7-2.6,3.9-4.1c0.4-0.5,0.9-0.6,1.5-0.6C111,91.1,131.9,91.1,152.7,91.1
			C152.7,91.1,152.7,91.1,152.7,91.1z"/>
		<path class="st0" d="M139.6,96.5c16.2,0,32.4-0.1,48.6,0c7.2,0.1,14.3,0,21.5,0.1c0.7,0,0.8,0.2,0.8,0.9c0,1.1,0,2.1,0,3.2
			c0.2,8,0.2,16,0.2,24c0,3-0.2,6.1-0.3,9.1c-0.2,2.8-0.4,5.7-0.7,8.5c-0.7,6.5-1.7,12.9-3.2,19.2c-1.4,6.2-3.3,12.2-5.7,18.1
			c-3.1,7.6-7.1,14.8-12.1,21.4c-2,2.7-4.2,5.2-6.5,7.7c-3.4,3.7-7.2,7-11.2,10.1c-2.8,2.2-5.8,4.1-8.8,6.1
			c-3.9,2.6-8.1,4.7-12.3,6.7c-0.4,0.2-0.6,0.1-1,0c-3.9-1.9-7.8-3.7-11.3-6.1c-3.8-2.6-7.7-5.1-11.3-8.1c-3.3-2.7-6.4-5.6-9.3-8.7
			c-2.9-3.1-5.5-6.3-7.9-9.8c-2.9-4.1-5.4-8.4-7.6-12.9c-3-6.2-5.4-12.7-7.2-19.4c-1.4-5.1-2.4-10.2-3.2-15.4
			c-0.5-3.1-0.8-6.2-1.1-9.3c-0.3-3.6-0.6-7.2-0.7-10.7c-0.1-1.7,0-3.4-0.1-5.1c-0.3-3.5-0.2-7-0.1-10.5c0.1-3.6,0-7.2,0.2-10.8
			c0.1-2.5,0.1-5,0.1-7.5c0-0.8,0.3-0.9,1-0.9C106.8,96.5,123.2,96.5,139.6,96.5C139.6,96.5,139.6,96.5,139.6,96.5z"/>
		<path class="st1" d="M108.6,131.1c1.1-0.4,2-0.9,2.8-1.4c3.3-1.8,6.3-4,9.1-6.5c2.5-2.3,4.7-4.8,6.6-7.5c0.5-0.8,1-1.6,1.4-2.4
			c0.1-0.1,0.2-0.4,0.4-0.3c0.3,0,0.2,0.3,0.2,0.5c0.3,5.8,1.9,11.1,4.6,16.2c1.3,2.5,3.2,4.7,5,6.9c1.7,2.1,3.5,4.3,5.3,6.4
			c1.9,2.3,3.8,4.6,5.7,6.8c1.9,2.3,3.8,4.6,5.7,6.8c1.7,2,3.4,4,5.1,6c2.1,2.5,4.3,5.1,6.4,7.6c1.8,2.1,3.6,4.2,5.4,6.3
			c1.9,2.2,3.8,4.4,5.6,6.6c0.7,0.9,1.5,1.8,2.2,2.6c0.5,0.6,0.1,0.9-0.3,1.2c-0.4,0.4-0.8,0.8-1.4,0.3c-0.5-0.5-0.9-1-1.3-1.5
			c-9.3-9.3-18.6-18.6-27.9-27.9c-2.6-2.6-5.3-5.2-8.1-7.7c-2.9-2.7-5.8-5.3-8.7-7.9c-4-3.5-8.3-6.7-13.1-9.1
			c-2.1-1.1-4.3-1.5-6.6-1.6c-1-0.1-2-0.1-3-0.2C109.4,131.4,109.1,131.3,108.6,131.1z"/>
		<path class="st1" d="M177.9,112.7c0.6-3.2,2.3-5.6,4.8-7.5c0.2-0.2,0.5-0.3,0.8-0.4c0.4-0.2,0.7-0.1,0.7,0.4
			c-0.2,2.5,0.8,4.7,1.5,7c0.2,0.6,0.3,1.1,0.5,1.7c0.6-0.4,0.7-1.1,1.1-1.5c0.5-0.5,0.8-0.4,1,0.2c0.5,1.5,0.8,3.1,1.1,4.6
			c0.2,1.2,0.1,2.4,0.2,3.7c0.6-0.2,0.7-0.8,1-1.1c0.2-0.2,0.3-0.4,0.5-0.4c0.3,0,0.2,0.4,0.3,0.6c0.1,2.1,0.5,4.3-0.8,6.2
			c-1,1.3-2.4,2-3.9,2.3c-0.8,0.2-1.1,0.3-0.7,1.2c0.3,0.6,0.3,1.2-0.2,1.7c-0.5,0.5-1.1,0.3-1.7,0.2c-1.8-0.5-3.3-1.5-4.8-2.6
			c-3.1-2.3-5.8-4.9-7.8-8.2c-0.4-0.7-0.7-1.4-0.8-2.3c-0.1-0.9,0.2-1.3,1.1-1.2c0.9,0.1,1-0.3,1.1-1.1c0.4-2.3,1.7-3.9,3.7-5
			c0.6-0.3,1-0.2,0.9,0.6C177.5,112.1,177.5,112.4,177.9,112.7z"/>
		<path class="st1" d="M127.8,110.3c0,0.8-0.6,1.8-1.2,2.8c-1.1,1.8-2.4,3.5-3.9,5c-3.2,3.3-6.4,6.6-10.3,9c-1.7,1-3.3,2.1-5.3,2.5
			c-0.7,0.2-1.3,0-1.8-0.5c-0.5-0.5-0.6-1.1-0.4-1.8c0.7-2.2,2.2-4.1,3.6-5.9c1.1-1.4,2.2-2.7,3.5-3.9c3.7-3.4,7.5-6.6,12.1-8.7
			c0.7-0.3,1.4-0.6,2.1-0.6C127.5,108.2,127.8,108.6,127.8,110.3z"/>
		<path class="st1" d="M164.9,121.7c0.6,1.7,1.3,3.1,2.2,4.4c1.4,2,3.1,3.6,4.8,5.3c0.4,0.4,0.4,0.4,0,0.7c-4.1,3.1-8,6.4-11.7,9.9
			c-2.6,2.4-5,5-7.5,7.5c-0.5,0.5-0.9,0.8-1.3,0c-0.3-0.5-0.9-0.9-1-1.4c-0.1-0.5,0.6-0.8,0.9-1.2c1.4-1.7,2.9-3.4,4.4-5.1
			c3.5-3.8,6.4-8.1,8.2-13c0.5-1.3,0.6-2.7,0.7-4.1C164.6,123.8,164.6,122.9,164.9,121.7z"/>
		<path class="st1" d="M145.6,156.7c0,0.3-0.2,0.4-0.4,0.5c-1.5,1.6-3,3.1-4.5,4.6c-3.7,3.9-7.5,7.6-11.2,11.4
			c-0.5,0.5-1,1.1-1.4,1.6c-0.2,0.3-0.5,0.4-0.8,0.1c-0.2-0.4-0.9-0.6-0.5-1.2c0.2-0.4,0.5-0.7,0.8-1c2.6-2.8,5.3-5.6,7.9-8.4
			c2.4-2.7,4.8-5.4,7.2-8.1c0,0,0.1-0.1,0.1-0.1c0.3-0.4,0.5-1.1,1.1-1c0.7,0.2,1.1,0.9,1.6,1.4
			C145.6,156.6,145.6,156.7,145.6,156.7z"/>
		<path class="st1" d="M182.1,137.2c-1.4,0.5-3,0.4-4.4,0.8c-3.4,0.9-6.4,2.5-9.4,4.3c-3.4,2.1-6.4,4.6-9.3,7.2
			c-1.3,1.2-2.7,2.3-4,3.5c-0.3,0.3-0.5,0.3-0.7-0.1c-0.2-0.3-0.7-0.5-0.2-0.9c1.8-1.6,3.5-3.2,5.3-4.7c2-1.7,4-3.3,6-4.9
			c3.7-2.8,7.4-5.4,12.1-6.5c0.2-0.1,0.4-0.2,0.7-0.1C179.5,136.5,180.8,136.8,182.1,137.2z"/>
		<path class="st1" d="M113.6,191.7c-0.7-0.1-1-0.6-1.4-1.1c-0.3-0.4,0.1-0.8,0.4-1c2.1-2.2,4.2-4.4,6.3-6.7
			c1.4-1.5,2.9-3.1,4.3-4.6c0.4-0.4,0.7-0.5,1.1,0c0.4,0.5,0.9,1,1.5,1.3c0.4,0.2,0.3,0.4,0,0.6c-2.6,2.5-5.3,5-7.9,7.5
			c-1.2,1.1-2.3,2.3-3.5,3.5C114.1,191.5,113.9,191.8,113.6,191.7z"/>
		<path class="st1" d="M167.3,119c0.3,0,0.6,0,0.9,0.2c0.5,0.3,0.9,0.5,0.4,1.3c-0.6,0.9,0,1.8,0.4,2.6c0.5,1.1,1.3,2,2.1,3
			c2.4,2.9,5.4,5.1,8.5,7.1c0.6,0.4,1.3,0.6,1.9,0.8c0.8,0.2,1.4-0.1,1.9-0.7c0.3-0.4,0.6-0.5,0.9,0.1c0.4,0.6,0.6,1.3,0.8,1.9
			c0.2,0.5-0.1,0.8-0.5,1c-0.7,0.3-1.3,0.2-1.9-0.1c-3.3-1.2-6.2-2.9-8.8-5.3c-2.2-2-4.3-4.2-6-6.6c-0.8-1.1-1.4-2.3-1.7-3.5
			C165.7,119.4,166,119,167.3,119z"/>
		<path class="st1" d="M148.3,159c0,0.4-0.1,0.4-0.2,0.5c-1.4,1-2.5,2.4-3.8,3.5c-2.5,2.3-5,4.8-7.4,7.2c-2.2,2.1-4.5,4.2-6.7,6.4
			c-0.5,0.5-0.7,0.1-1.1-0.1c-0.5-0.4,0-0.5,0.1-0.7c3.9-3.8,7.8-7.6,11.7-11.4c2-1.9,4-3.8,6-5.7c0.2-0.2,0.3-0.5,0.6-0.3
			C147.9,158.7,148.2,158.9,148.3,159z"/>
		<path class="st1" d="M124.8,173.9c0.2,0,0.3,0.2,0.4,0.4c1.1,1.7,2.7,3,4.4,4c0.5,0.3,0.5,0.5,0.1,0.8c-0.8,0.8-1.1,0.9-2.1,0.4
			c-1.7-0.9-3.1-2.1-4-3.8C123.4,175.2,124.2,173.9,124.8,173.9z"/>
		<path class="st1" d="M184.5,188.8c0,1.3-2,3.3-3.3,3.2c-0.6,0-0.8-0.6-0.9-1c-0.2-0.5,0.4-0.4,0.6-0.5c1.1-0.4,1.7-1.1,2.2-2.1
			c0.1-0.2,0-0.7,0.5-0.5C184,188.1,184.5,188.2,184.5,188.8z"/>
		<path class="st3" d="M179.8,189.7c-0.4,0-0.5-0.3-0.7-0.6c-0.2-0.4,0.1-0.4,0.4-0.5c0.7-0.3,1.3-0.7,1.6-1.5
			c0.1-0.2,0.1-0.6,0.5-0.4c0.3,0.2,0.6,0.4,0.5,0.8C182.1,188.4,180.7,189.7,179.8,189.7z"/>
		<path class="st0" d="M120,127.1c1.7,0.4,3.3,1.1,4.8,2c1.9,1.2,3.6,2.7,5.3,4.2c1.9,1.7,3.7,3.5,5.4,5.3c3,3.1,5.9,6.2,8.8,9.4
			c2,2.2,4,4.3,6,6.5c2.7,3,5.4,6,8.1,9c2,2.2,4.1,4.4,6.1,6.7c2.3,2.6,4.6,5.2,7,7.8c1.2,1.4,2.5,2.7,3.7,4.1
			c0.7,0.8,1.5,1.6,2.2,2.4c0.1,0.1,0.4,0.3,0.2,0.6c-0.3,0.3-0.5-0.1-0.6-0.2c-2.3-2.5-4.8-4.8-7.1-7.3c-3.1-3.3-6.3-6.4-9.4-9.6
			c-2-2.1-4.1-4.1-6.1-6.2c-3.6-3.9-7.4-7.6-11.1-11.3c-3.4-3.4-7-6.6-10.7-9.7c-3.2-2.7-6.5-5.3-10.1-7.4c-1.8-1.1-3.7-1.9-5.7-2.5
			c-0.4-0.1-0.8-0.2-1.2-0.4c-0.5-0.2-0.7-0.6-0.2-1C116.8,128.3,118.2,127.4,120,127.1z"/>
		<path class="st0" d="M176.7,112.4c-0.8,2.2-0.2,4,0.9,5.7c0.6,1.1,0.3,2-0.3,3c1.3-0.4,2-1.6,1.7-2.7c-0.1-0.2-0.1-0.4-0.2-0.6
			c-1.2-2.7-0.5-5.2,1-7.5c0.7-1.1,1.4-2.2,2.4-3c0.4-0.4,0.8-0.6,0.9,0.3c0.3,2.2,1.2,4.3,1.6,6.4c0.4,2.1,0.1,4-1.4,5.6
			c-1.4,1.6-3,2.9-4.9,3.8c-0.1,0.1-0.3,0.2-0.4,0.4c1.6,0,3-0.7,4.3-1.6c1.3-0.9,2.5-2,3.3-3.3c0.8-1.4,1.1-3,1.6-4.7
			c0.6,0.9,0.6,1.7,0.8,2.6c0.3,1.4,0.5,2.9,0.1,4.3c-0.6,2-2.1,3.3-4.2,3.5c-0.2,0-0.3,0-0.5,0.2c0.8,0.6,1.6,0.6,2.4,0.5
			c0.8-0.1,1.6-0.5,2.2-1.1c0.6-0.6,1.3-1.1,1.9-1.7c0.5,1.7-0.5,2.9-2.1,3.9c-2.5,1.5-5.2,1.4-7.6-0.3c-2.7-1.8-4.9-4-6.1-7.1
			C172.9,116.2,174.2,113.6,176.7,112.4z"/>
		<path class="st0" d="M125.9,111.1c-0.1,0.4-0.4,0.9-0.7,1.4c-1.4,2.2-3,4.2-4.9,6.1c-0.7,0.8-1.4,1.6-2.2,2.3
			c-0.1,0.1-0.2,0.3-0.4,0.2c-0.2-0.1-0.2-0.3-0.1-0.5c0.5-1.4,0.2-2.7-0.3-4c-0.4-1,0.1-1.9,0.8-2.6c1.6-1.6,3.5-2.6,5.5-3.5
			c0.4-0.2,0.7-0.4,1.1-0.5C125.5,109.8,125.9,110.2,125.9,111.1z"/>
	</g>
</g>
</svg>
