<?xml version="1.0" encoding="utf-8"?>
<!-- Generator: Adobe Illustrator 15.1.0, SVG Export Plug-In . SVG Version: 6.00 Build 0)  -->
<!DOCTYPE svg PUBLIC "-//W3C//DTD SVG 1.0//EN" "http://www.w3.org/TR/2001/REC-SVG-20010904/DTD/svg10.dtd">
<svg version="1.0" id="Layer_1" xmlns="http://www.w3.org/2000/svg" xmlns:xlink="http://www.w3.org/1999/xlink" x="0px" y="0px"
	 width="300px" height="288.473px" viewBox="0 0 300 288.473" enable-background="new 0 0 300 288.473" xml:space="preserve">
<g>
	<g>
		<defs>
			<rect id="SVGID_1_" width="300" height="288.473"/>
		</defs>
		<clipPath id="SVGID_2_">
			<use xlink:href="#SVGID_1_"  overflow="visible"/>
		</clipPath>
		<path clip-path="url(#SVGID_2_)" fill-rule="evenodd" clip-rule="evenodd" d="M136.346,0.022c0.214,0,1.093-0.093,1.093,0.109
			h0.109c-0.106,0.798,0.584,4.804-0.329,4.804c-0.384-0.74-0.467-1.812-1.28-2.276c-0.929-0.533-7.292-0.032-7.885,0.726
			c-0.559,0.707,0.067,5.63,0.701,6.18c0.459,0.394,1.475,0.282,2.134,0.282c0.798-0.337,1.889-0.437,2.835-0.437
			c0.648-0.352,1.341-0.52,1.566-1.33c0.123-0.438,0.156-0.998,0.476-1.341c0.061-0.035,0.122-0.069,0.184-0.106
			c0.679-0.086,0.573,4.903,0.59,5.832c0.005,0.459-0.632,1.455-0.632,0.986c-0.397-0.701-0.423-1.71-1.144-2.229
			c-0.946-0.678-5.367-0.308-5.915,0.606c-0.584,0.967,0.426,6.97,1.288,7.473c0.952,0.552,2.699-0.068,3.806-0.068
			c0.253-0.038,0.512-0.071,0.765-0.108c0.217-0.039,0.434-0.074,0.651-0.111c0.22-0.036,0.439-0.071,0.657-0.109
			c0.397-0.036,0.804-0.071,1.202-0.107c1.525-0.824,2.621-1.573,2.621-3.602c0.139-0.043,0.651-0.223,0.651,0h0.111
			c0.064,1.028,0.173,4.447-0.564,5.089c-0.078,0.039-0.159,0.084-0.24,0.125c-1.661,0.049-3.319,0.098-4.98,0.142
			c-2.401,0.302-4.797,0.601-7.198,0.901c-0.479,0.071-3.063,0.648-3.063,0.29h-0.111c0.042-0.219,0.075-0.436,0.111-0.655
			c0.676-0.216,1.808-0.296,2.153-1.045c0.609-1.34-0.918-14.966-1.583-16.377c-0.509-1.068-2.755-0.685-2.755-1.462
			c0.674-0.338,1.328-0.438,2.185-0.438c0.289-0.038,0.582-0.068,0.874-0.108c0.801-0.038,1.603-0.071,2.401-0.108
			c0.29-0.036,0.584-0.071,0.871-0.108c0.439-0.036,0.876-0.074,1.311-0.111c0.256-0.036,0.512-0.071,0.768-0.107
			C132.709,0.639,134.484,0.949,136.346,0.022"/>
		<path clip-path="url(#SVGID_2_)" fill-rule="evenodd" clip-rule="evenodd" d="M156.651,0.459c1.402,0,2.708,0.033,3.924,0.335
			c0.623,0.233,1.246,0.464,1.866,0.695c0.507,0.08,1.405-0.394,1.694,0.155c-0.097,0.723-0.188,1.447-0.283,2.167
			c0.042,0.745,0.334,2.023-0.117,2.634c-0.131,0.077-0.256,0.153-0.384,0.227c-0.397-0.025-0.442-0.792-0.484-1.082
			c-0.692-4.353-8.316-5.625-7.796-1.099c0.545,4.774,11.24,5.837,8.787,12.829c-1.592,4.527-5.946,3.815-9.941,3.494
			c-0.799,0.057-1.601,0.11-2.398,0.164c-0.147,0-0.108,0.032-0.108-0.104h-0.111c0.108-0.584,0.217-1.168,0.322-1.753
			c0.069-1.283-1.004-3.692,0.12-4.666c0.105-0.095,0.545-0.363,0.545-0.132h0.108c0,0.913,0.02,1.755,0.393,2.471
			c1.563,2.966,8.333,4.524,9.237,0.128c1.004-4.915-9.346-6.354-9.162-12.098C152.942,2.188,154.678,1.441,156.651,0.459"/>
	</g>
	<path fill-rule="evenodd" clip-rule="evenodd" d="M174.99,2.422c1.983,0.063,3.817,0.707,5.59,1.24
		c2.721,0.814,5.879,1.601,8.929,1.601c0.066,0.982-0.593,4.142-1.45,4.51c-0.103,0.039-0.187,0.147-0.187-0.035h-0.108
		c0.048-0.775,0.248-1.809-0.22-2.428c-0.56-0.737-7.072-2.43-7.871-1.729c-0.682,0.595-0.779,1.778-0.996,2.615
		c-0.209,0.764-0.74,2.476-0.323,3.23c0.465,0.855,4.683,1.584,5.805,1.584c0.275-0.239,2.187-2.578,2.187-1.963h0.108
		c-0.075,1.114-0.551,1.872-0.817,2.849c-0.281,1.008-0.373,2.33-0.88,3.227c-0.167,0.295-0.395,0.443-0.721,0.527
		c-0.128,0.038-0.2,0.124-0.2-0.057h-0.111c0.053-0.9,0.304-1.803-0.181-2.575c-0.451-0.712-4.729-1.982-5.557-1.487
		c-0.79,0.473-1.931,6.008-1.663,7.085c0.27,1.065,7.158,2.561,8.449,2.205c0.779-0.218,1.339-0.802,1.733-1.48
		c0.164-0.336,0.329-0.676,0.493-1.019c0.181,0,0.656-0.079,0.656,0.111h0.108c-0.072,1.06-1.241,4.439-2.237,4.741
		c-0.739,0.217-3.753-1.003-4.635-1.259c-1.024-0.208-2.045-0.413-3.072-0.622c-2.226-0.515-4.519-1.113-6.978-1.113
		c0-0.467,0.131-0.775,0.567-0.892c0.707-0.191,1.438-0.114,1.875-0.786c0.557-0.873,0.732-2.104,0.985-3.118
		c0.528-2.123,0.985-4.271,1.553-6.419c0.47-1.786,1.324-3.96,1.202-5.926C176.913,3.333,174.703,3.838,174.99,2.422"/>
	<path fill-rule="evenodd" clip-rule="evenodd" d="M118.987,21.417c-0.885,0-1.419,0.906-2.501,0.797
		c-1.305-0.128-7.699-4.313-8.25-5.573c-0.365-0.829,0.362-2.005,0.451-2.872c0.331-3.528-1.447-6.872-5.197-6.872
		c-1.397,0.408-8.848,3.018-9.209,4.009c-0.245,0.667,0.69,0.447,1.032,0.375c0.534-0.12,1.163-0.131,1.53,0.291
		c0.957,1.09,1.575,3.792,2.022,5.233c0.921,2.966,2.727,6.269,3.086,9.414c0.069,0.658-0.031,1.237-0.596,1.563
		c-0.272,0.157-1.508,0.544-1.055,1.094c0.373,0.451,6.697-1.661,7.265-2.143c0.801-0.683-0.423-0.811-0.913-0.515
		c-2.905,0-3.069-3.186-3.918-5.251c-0.186-0.447-0.431-1.197-0.002-1.61c0.484-0.47,1.238-0.541,1.87-0.721
		c0.551-0.154,1.322-0.513,1.931-0.342c0.952,0.263,1.575,1.12,2.285,1.833c2.651,2.653,5.985,6.217,9.68,2.86
		C118.984,22.545,119.187,22.086,118.987,21.417 M106.825,15.71c-0.451,0.615-1.26,0.749-1.92,1.006
		c-0.874,0.228-1.747,0.449-2.618,0.672c-1.322-0.023-3.305-6.376-2.721-7.368c0.49-0.847,2.012-0.918,2.83-1.265
		c0.891,0.234,1.714,0.415,2.451,0.952C106.18,10.673,108.005,14.083,106.825,15.71"/>
	<path fill-rule="evenodd" clip-rule="evenodd" d="M212.106,33.97c0-0.15-0.918-0.237-1.11-0.294
		c-0.57-0.179-1.04-0.378-1.443-0.859c-1.13-1.371-2.015-6.508-2.282-8.468c-0.05-0.373-0.072-0.949,0.123-1.239
		c0.506-0.356,1.013-0.718,1.516-1.077c1.3-0.979,2.318-2.281,2.794-3.812c1.625-5.28-3.503-6.266-7.126-7.308
		c-1.352-0.391-2.314-1.248-3.822-1.394c-0.145,0.108-0.29,0.22-0.44,0.328c0,0.683,1.956,0.903,1.937,2.069
		c-0.024,1.162-5.814,14.194-6.619,14.846c-0.831,0.675-1.783-0.208-2.74,0.114c0,0.743,1.149,1.145,1.67,1.362
		c0.851,0.302,1.694,0.604,2.543,0.903c0.757,0.388,1.588,1.096,2.476,1.202c0.262,0.032,0.615,0.035,0.769-0.196
		c-0.012-0.117-0.028-0.242-0.036-0.362c-0.432-0.612-1.397-0.72-1.687-1.462c-0.479-1.216,1.48-6.103,2.454-6.797
		c0-0.185,0.891,0.248,1.094,0.327c0.926,0.348,2.39,0.932,2.885,1.892c0.101,0.755,0.203,1.503,0.307,2.253
		c0.297,3.154,0.005,7.482,3.455,8.431c1.138,0.31,2.354,0.345,3.395-0.128V33.97H212.106z M203.987,20.93
		c-0.646-0.339-1.686-0.593-2.045-1.315c-0.467-0.933,2.368-6.27,3.066-7.147c4.299,0.13,5.328,4.034,3.729,7.43
		c-0.365,0.767-1.091,1.724-1.992,1.892C205.765,21.966,204.766,21.34,203.987,20.93"/>
	<path fill-rule="evenodd" clip-rule="evenodd" d="M222.804,19.563c0.4,0.104,0.804,0.21,1.205,0.316
		c0.515,0.302,4.979,3.421,5.063,3.592c0.059,0.132,0.27,0.676,0.062,0.676v0.108c-0.805-0.182-1.896-0.929-2.677-0.271
		c-1.124,0.935-4.335,14.041-3.578,15.684c0.056,0.057,0.111,0.12,0.164,0.176c1.193,0.573,12.14-6.883,12.843-8.654
		c0.365-0.932-0.047-1.587-0.726-2.152c-0.145-0.122-1.032-1.18-0.567-1.18v-0.107c0.974,0.09,6.263,3.393,6.847,4.163
		c0.262,0.348,0.14,0.634,0.14,1.077c-0.693-0.231-1.322-0.852-2.151-0.729c-1.97,0.284-6.346,3.581-8.157,4.805
		c-2.34,1.351-4.672,2.702-7.015,4.052c-0.74,0.436-2.701,1.694-3.528,1.694c-0.687-1.218-0.384-2.672-0.253-4.042
		c0.379-4,1.313-7.681,2.146-11.451c0.356-1.463,0.718-2.929,1.076-4.391C223.889,21.496,222.621,20.835,222.804,19.563"/>
	<path fill-rule="evenodd" clip-rule="evenodd" d="M62.441,27.312c0.949,0.259,0.618,0.786,0.225,1.419
		c-0.445,0.707-0.281,1.362,0.095,2.077c0.609,1.163,1.653,1.965,2.543,3.012c2.12,2.49,4.505,4.975,6.681,7.527
		c0.618,0.721,1.714,1.547,1.875,2.478c0.039,0.254,0.017,0.601-0.206,0.747c-1.083,0.677-4.786-0.098-6.085-0.199
		c-4.471-0.42-8.942-0.837-13.419-1.263c-0.317-0.036-2.515-0.202-2.515,0.032h-0.108c0,0.15-0.073,0.215,0.108,0.215
		c1.029,1.898,3.433,4.056,5.008,5.682c1.107,1.149,2.123,2.616,3.453,3.516c0.612,0.41,1.185,0.739,2.017,0.739
		c0.348-0.214,2.218-1.522,2.477-1.055c0.145,0.274,0.002,0.562-0.147,0.775c-0.309,0.419-4.769,4.228-5.078,4.265
		c-0.32,0.035-0.743-0.13-0.743-0.492c0.501-0.539,0.704-1.101,0.457-1.83c-0.532-1.561-2.251-2.933-3.35-4.216
		c-1.116-1.256-2.226-2.514-3.342-3.768c-1.049-1.191-2.117-2.754-3.514-3.562c-0.837-0.487-1.864-0.658-2.696-0.057
		c-0.331,0.236-1.283,0.832-1.224-0.091c0.044-0.761,2.824-2.971,3.531-3.088c1.438-0.248,4.034,0.493,5.553,0.642
		c3.278,0.308,6.55,0.623,9.822,0.931c1.884,0.149,3.795,0.521,5.79,0.521c0.145-0.074,0.292-0.145,0.434-0.22
		c-0.008-0.033-0.02-0.065-0.033-0.099c-0.295-0.84-1.152-1.487-1.711-2.191c-1.168-1.311-2.34-2.613-3.511-3.918
		c-1.055-1.193-2.256-2.835-3.647-3.624c-0.793-0.454-1.628-0.622-2.471-0.144c-0.15,0.083-1.177,0.673-1.177,0.369h-0.108
		c0.195-1.587,1.792-1.829,2.796-2.767C60.961,28.89,61.701,28.1,62.441,27.312"/>
	<path fill-rule="evenodd" clip-rule="evenodd" d="M131.104,31.024c1.032,0.134,1.152,0.606,1.202,1.635
		c1.055,10.619,2.109,21.237,3.164,31.859c3.712,35.882,7.429,71.769,11.138,107.657h-0.108v0.107
		c-0.365,0.038-0.726,0.075-1.091,0.108c-0.426-0.922-0.359-1.957-0.498-3.031c-0.208-1.463-0.415-2.928-0.623-4.391
		c-0.813-6.582-1.628-13.159-2.449-19.741c-3.595-27.084-7.189-54.162-10.784-81.246c-1.21-9.518-2.418-19.035-3.628-28.554
		c-0.122-1.139-0.239-2.28-0.359-3.422c0.582-0.43,1.597-0.546,2.404-0.546c0.434-0.071,0.871-0.142,1.311-0.217
		C130.89,31.169,130.995,31.098,131.104,31.024"/>
	<path fill-rule="evenodd" clip-rule="evenodd" d="M166.693,31.024c1.603,0.281,3.205,0.566,4.805,0.846
		c0.161,0.011,0.435-0.057,0.435,0.136h0.108c-0.262,1.354-0.301,2.696-0.49,4.138c-1.157,8.809-2.025,17.821-3.28,26.742
		c-3.169,25.659-6.338,51.32-9.513,76.976c-0.395,3.45-0.79,6.902-1.19,10.352c-0.96,6.085-1.714,12.449-2.304,18.685
		c-0.12,1.13-0.234,2.259-0.354,3.383c-0.039,0.038-0.078,0.075-0.117,0.108v0.109c-0.262,0-1.636,0.092-1.636-0.109h-0.108
		c0.387-1.469,0.336-3.113,0.467-4.689c0.295-3.094,0.585-6.185,0.88-9.279c0.826-8.556,1.574-17.129,2.398-25.767
		c1.605-17.023,3.213-34.05,4.815-51.082c0.632-6.188,1.264-12.376,1.896-18.564c0.372-8.038,1.422-16.075,2.181-24.019
		C165.877,36.936,165.883,32.634,166.693,31.024"/>
	<path fill-rule="evenodd" clip-rule="evenodd" d="M248.018,37.794c0.553,0.107,0.959,0.313,1.377,0.691
		c2.012,2.137,4.021,4.276,6.029,6.416c0.826,0.776,2.888,1.878,3.283,2.864c0.008,0.036,0.017,0.068,0.027,0.099
		c0.062,0.513-2.062,2.337-2.531,2.69c-0.293,0.213-1.197,0.473-1.197-0.209c0.591-0.53,1.219-1.293,1.055-2.156
		c-0.167-0.861-4.68-5.459-5.525-5.423c-0.91,0.032-3.748,2.835-4.266,3.713c-0.698,1.174,3.002,4.491,4.068,4.752
		c0.832,0.202,1.419-0.37,2.161-0.5c0.31-0.057,0.76,0.133,0.76,0.487c-0.996,0.755-1.989,1.506-2.991,2.259
		c-0.775,0.615-1.354,1.479-2.256,1.863c-0.131,0.054-0.534,0.225-0.534,0.026h-0.114c0.156-0.995,1.013-1.563,1.144-2.618
		c0.098-0.813-2.985-4.126-3.792-4.2c-0.957-0.094-5.393,4.26-5.507,5.2c-0.128,1.007,5.095,5.849,6.127,6.185
		c0.854,0.276,1.628-0.002,2.34-0.339c0.153-0.076,1.11-0.618,1.11-0.299h0.108c-0.573,1.604-3.002,2.949-4.693,2.949
		c-1.361-2.616-4.803-5.758-7.137-7.815c-0.946-0.835-2.594-1.795-3.158-2.923c-0.025-0.098-0.05-0.192-0.075-0.288
		c1.124-0.321,1.756,0.968,3.005,0.623c1.107-0.31,11.516-10.489,11.836-11.576c0.289-1.014-0.977-1.379-0.977-2.254
		C247.8,37.938,247.909,37.868,248.018,37.794"/>
	<path fill-rule="evenodd" clip-rule="evenodd" d="M146.824,39.32c0.657,0.038,1.313,0.075,1.965,0.108h1.639
		c1.274,0.073,2.552,0.149,3.823,0.22c0.222,1.267,0.014,2.681-0.062,3.929c-0.036,1.895-0.078,3.787-0.117,5.679
		c-0.108,6.658-0.481,13.542-0.584,20.194c-0.195,12.383-0.901,24.856-1.091,37.227c-0.175,10.966-0.359,21.338-0.859,32.093
		c-0.009,2.874-0.017,5.752-0.025,8.624c-0.142,3.71-0.286,7.424-0.429,11.135c0,1.746,0.251,7.602-0.42,8.71
		c-0.392,0.637-1.645,0.134-2.201,0.134c0-11.511-0.542-22.868-1.071-34.284c-0.028-2.287-0.047-4.578-0.07-6.87
		c-0.846-13.011-0.868-25.795-1.28-38.975c-0.175-5.593-0.634-11.157-0.634-16.81c0-9.107-0.598-18.283-0.754-27.4
		c-0.017-0.661-0.298-3.385-0.011-3.385c0.454-0.177,0.982-0.109,1.527-0.109C146.39,39.469,146.607,39.395,146.824,39.32"/>
	<path fill-rule="evenodd" clip-rule="evenodd" d="M93.553,43.25c0.181,0,0.657-0.081,0.657,0.107
		c1.071,3.124,2.145,6.25,3.216,9.368c2.541,7.645,5.081,15.289,7.624,22.931c3.013,8.784,6.035,17.573,9.051,26.357
		c3.959,11.812,7.918,23.63,11.872,35.442c3.2,9.251,6.285,18.613,9.465,27.904c0.921,2.561,1.839,5.125,2.763,7.686h-0.111v0.109
		c-0.618-0.02-1.18,0.092-1.528-0.402c-0.971-1.355-1.708-4.443-2.368-6.11c-2.841-7.201-5.467-14.534-8.041-21.857
		c-1.822-4.814-3.645-9.629-5.467-14.447c-4.838-12.892-9.488-25.793-14.187-38.713c-2.769-7.399-5.534-14.799-8.308-22.197
		c-2.404-6.462-4.808-12.921-7.217-19.38c-0.312-0.995-1.594-3.365-1.313-4.359C89.917,44.771,92.747,43.884,93.553,43.25"/>
	<path fill-rule="evenodd" clip-rule="evenodd" d="M204.683,43.577c0.996,0.125,4.268,1.324,4.604,2.368
		c0.286,0.892-0.885,3.077-1.172,3.977c-2.184,6.186-4.371,12.372-6.558,18.554c-9.354,25.713-18.711,51.423-28.065,77.136
		c-2.343,6.391-4.691,12.778-7.039,19.169c-0.927,2.582-1.586,5.445-2.905,7.838c-0.317,0.57-1.767,1.029-1.767-0.011
		c0.557-0.932,0.805-2.094,1.144-3.148c0.793-2.365,1.586-4.732,2.373-7.106c1.942-5.718,3.888-11.437,5.832-17.157
		c0.91-2.838,1.831-5.672,2.746-8.51c7.866-23.576,15.734-47.151,23.603-70.727C199.88,58.501,202.282,51.039,204.683,43.577"/>
	<path fill-rule="evenodd" clip-rule="evenodd" d="M115.935,44.452c1.065,0.473,4.427,20.058,5.1,22.898
		c1.714,7.271,2.982,14.644,4.571,22.054c3.442,16.5,6.886,32.996,10.331,49.489c1.723,8.539,3.445,17.078,5.167,25.617
		c0.123,0.541,0.818,2.969,0.701,2.969c-0.415,0.455-2.947,0.982-2.947,0.544h-0.111c-2.565-9.756-5.131-19.511-7.699-29.271
		c-5.545-21.428-11.486-42.687-16.947-64.151c-1.797-7.058-3.981-13.933-5.67-21.061c-0.432-1.806-1.45-3.801-1.45-5.707
		C109.118,46.304,113.322,45.319,115.935,44.452"/>
	<path fill-rule="evenodd" clip-rule="evenodd" d="M182.413,44.561c1.286,0.082,8.64,2.572,8.926,3.532
		c0.403,1.38-0.601,3.393-0.89,4.673c-1.021,4.532-2.269,9.023-3.275,13.53c-1.989,8.863-4.526,17.571-6.789,26.309
		c-4.151,15.932-8.308,31.87-12.465,47.806c-1.884,7.242-3.765,14.488-5.647,21.73c-0.346,1.422-0.729,4.752-1.623,5.751
		c-0.606,0.679-1.925-0.084-2.579-0.084c0.098-3.246,1.071-6.582,1.828-9.605c1.183-5.854,2.368-11.707,3.551-17.562
		c0.626-3.313,1.249-6.626,1.872-9.943c1.336-6.436,2.671-12.875,4.01-19.315c0.414-2.222,0.826-4.44,1.235-6.667
		c1.052-5.065,2.106-10.13,3.155-15.197c2.187-11.098,4.371-22.195,6.561-33.292C180.994,52.338,181.704,48.449,182.413,44.561"/>
	<path fill-rule="evenodd" clip-rule="evenodd" d="M53.927,61.701c0-0.189-0.095-0.1-0.211-0.075
		c-0.81,0.171-1.144,0.978-1.822,1.394c-0.451,0.142-0.899,0.281-1.35,0.424h-3.058c-1.389,0-4.861,0.074-5.834-0.636
		c-0.535-0.39-0.643-1.599-0.888-2.183c-0.988-2.379-3.041-3.834-5.615-4.165c-1.138,0.252-2.006,0.342-2.896,1.043
		c-1.433,1.109-1.987,2.692-2.908,4.078c-0.69,1.028-2.106,2.178-2.329,3.429c-0.103,0.549,0.169,0.783,0.604,0.946
		c0-0.832,1.28-1.504,1.956-1.185c1.789,0.844,3.228,2.368,4.864,3.507c2.056,1.43,7.059,4.913,8.135,7.066
		c-0.389,0-0.882,1.134-1.093,1.419c0.039,0.185,0.072,0.365,0.108,0.547c0.398,0,0.709,0.007,0.999-0.224
		c0.932-0.767,1.486-1.938,2.145-2.884c0.835-1.208,2.053-1.764,2.207-3.333h-0.108c0-0.264-0.646,0.212-0.768,0.329
		c-0.551,0.498-1.055,1.178-1.859,1.193c-0.968,0.014-5.856-3.379-5.578-4.408c0.361-0.461,0.731-0.922,1.096-1.384
		c0.451-0.542,0.985-1.305,1.691-1.501c1.046-0.293,2.276,0.202,3.236,0.393c4.313,0.847,8.522,1.539,9.385-3.788H53.927z
		 M40.049,63.197c-0.158,0.726-0.765,1.253-1.257,1.814c-0.557,0.625-1.124,1.573-1.923,1.838c-0.759,0.239-5.801-3.798-5.926-4.741
		c-0.253-1.869,2.76-2.945,3.99-3.355C36.602,59.157,40.581,60.766,40.049,63.197"/>
	<path fill-rule="evenodd" clip-rule="evenodd" d="M82.527,61.593c0.184,0.033,0.365,0.074,0.545,0.108
		c0.398,2.458,2.101,4.747,3.019,6.993c2.702,6.63,6.004,13.027,9,19.517c9.463,20.708,18.917,41.415,28.375,62.123
		c2.012,4.439,4.021,8.874,6.026,13.311c0.506,1.083,2.596,4.458,2.596,5.473h-0.109c-0.659,0.28-2.332,1.02-3.058,0.505
		c-0.832-0.593-2.526-4.531-3.085-5.622c-2.88-5.527-5.765-11.054-8.647-16.581c-10.654-20.24-21.291-40.618-32.175-60.709
		c-2.484-4.581-4.966-9.158-7.451-13.736c-0.704-1.273-2.565-3.934-2.565-5.378c1.639-1.006,3.119-2.501,4.619-3.779
		C80.588,63.074,81.559,62.333,82.527,61.593"/>
	<path fill-rule="evenodd" clip-rule="evenodd" d="M216.146,61.808c1.013,0.203,7.031,5.046,7.031,5.998
		c0,1.057-1.405,3.08-1.915,4.029c-2.563,4.752-4.961,9.65-7.432,14.471c-10.386,20.042-20.775,40.084-31.162,60.122
		c-2.879,5.524-5.759,11.054-8.639,16.582c-0.693,1.448-2.293,5.371-3.392,6.329c-0.459,0.405-1.511,0.182-2.022-0.032
		c-0.179-0.079-0.385-0.221-0.415-0.438c-0.147-1.052,1.725-4.323,2.226-5.362c2.919-6.454,5.841-12.902,8.754-19.358
		C191.502,116.7,203.826,89.254,216.146,61.808"/>
	<path fill-rule="evenodd" clip-rule="evenodd" d="M235.903,66.285c0.779,0.315,3.726,3.398,3.665,4.239
		c-0.092,1.21-1.92,3.351-2.604,4.434c-2.835,4.416-5.67,8.833-8.509,13.248c-13.756,21.323-27.514,42.642-41.275,63.963
		c-4.866,7.509-9.725,15.018-14.591,22.524c-0.695,0.794-1.845-0.12-1.747-0.12C192.527,138.479,214.217,102.383,235.903,66.285"/>
	<path fill-rule="evenodd" clip-rule="evenodd" d="M61.459,67.484c0.331,0.09,0.562,0.222,0.799,0.495
		c4.941,7.984,9.888,15.963,14.824,23.945c17.097,27.622,34.195,55.248,51.292,82.869h-0.109v0.111
		c-0.559,0-1.057,0.042-1.424-0.323c-1.875-2.792-3.748-5.579-5.626-8.368c-3.044-4.695-6.266-9.265-9.221-14.015
		c-13.605-20.708-27.217-41.409-40.822-62.116c-3.158-4.738-6.316-9.471-9.474-14.207c-0.676-0.931-3.002-3.899-3.002-4.902
		C58.696,70.097,60.816,68.213,61.459,67.484"/>
	<path fill-rule="evenodd" clip-rule="evenodd" d="M19.104,75.564c0.84,0.049,4.394,1.579,4.009,2.405
		c-0.206,0.43-0.874,0.065-1.168-0.015c-0.434-0.12-0.929-0.205-1.338,0.021c-0.852,0.458-3.65,5.253-3.792,6.234
		c-0.064,0.427,0.098,0.808,0.401,1.08c0.646,0.592,4.293,2.609,5.117,2.356c0.749-0.234,2.796-4.164,2.835-4.993
		c0.027-0.631-0.42-1.107-0.83-1.503c-0.253-0.259-0.503-0.519-0.756-0.783v-0.217c0.336-0.117,0.707-0.139,1.043-0.005
		c0.74,0.51,1.48,1.026,2.221,1.539c0.832,0.562,1.992,0.886,2.66,1.693c0.097,0.123,0.415,0.596,0.189,0.596v0.107
		c-0.843-0.079-1.753-0.552-2.58-0.298c-0.795,0.232-3.18,4.099-2.899,4.848c0.317,0.85,5.378,3.644,6.341,3.594
		c1.271-0.075,4.468-6.617,4.31-8.027c-0.125-1.096-1.678-1.863-1.678-2.626h0.105v-0.108c0.932,0.184,4.179,2.155,4.179,3.275
		c0,0.49-2.582,3.934-3.011,4.734c-1.182,2.191-2.262,4.428-3.397,6.65c-0.298,0.573-0.47,1.078-1.16,1.25
		c-0.125,0.032-0.103,0.049-0.103-0.082h-0.108c0.044-0.783,0.42-1.563-0.067-2.24c-0.857-1.18-12.732-7.621-14.249-7.803
		c-1.319-0.16-1.441,1.53-2.496,1.53v-0.111h-0.108c0.136-2.188,2.813-5.704,3.934-7.633C17.707,79.296,18.333,77.413,19.104,75.564
		"/>
	<path fill-rule="evenodd" clip-rule="evenodd" d="M280.548,76.437c0.334,0.065,0.638,0.139,0.857,0.421
		c0.709,0.9,0.793,2.233,1.258,3.262c0.548,0.965,1.091,1.931,1.639,2.895c0.063,0.153,0.301,0.955,0.069,0.955v0.107
		c-1.151-0.346-1.282-1.903-2.629-1.971c-1.559-0.08-4.714,1.63-6.091,2.319c-4.85,2.425-11.8,4.26-7.454,11.377
		c0.891,1.45,2.56,2.721,4.276,2.857c3.083,0.242,7.24-2.208,9.853-3.382c1.447-0.652,3.328-1.134,4.477-2.319
		c0.793-0.824-0.008-1.86-0.125-2.769c-0.003-0.035-0.006-0.069-0.011-0.106h0.108v-0.111c0.428,0.084,0.768,0.207,1.035,0.579
		c0.626,0.857,0.701,1.963,1.168,2.896c0.412,0.823,1.308,1.739,1.447,2.672c0.075,0.516-0.596,0.964-0.596,0.839
		c-0.342-0.605-0.599-1.399-1.428-1.451c-1.329-0.087-15.196,6.114-15.692,6.984c-0.684,1.188,0.638,1.718,0.638,2.656
		c-0.275,0.102-0.629,0.264-0.935,0.112c-0.526-0.264-2.229-3.137-2.218-3.714c0.006-0.524,0.375-0.78,0.701-1.134
		c0.125-0.143,0.286-0.505,0.484-0.505v-0.218c-3.114-1.897-4.794-3.506-5.66-7.212c-1.335-5.726,2.415-7.299,6.759-9.143
		c1.681-0.75,3.364-1.499,5.042-2.249c0.945-0.43,2.117-0.746,2.849-1.55C281.228,78.593,280.193,77.502,280.548,76.437"/>
	<path fill-rule="evenodd" clip-rule="evenodd" d="M240.922,87.79c1.024,0.533,5.646,8.106,5.415,9.129
		c-0.237,1.014-2.43,3.002-3.187,3.891c-2.99,3.504-5.974,7.084-9.062,10.591c-4.641,5.479-9.279,10.954-13.92,16.437
		c-7.833,9.051-15.659,18.106-23.494,27.157c-3.506,4.135-7.009,8.268-10.518,12.399c-0.932,1.083-3.016,4.086-4.135,4.665
		c-0.676,0.344-1.95-0.174-2.476-0.546c-0.184-0.129-0.312-0.283-0.301-0.516c0.036-0.989,2.006-2.987,2.621-3.838
		c3.842-5.214,7.69-10.425,11.532-15.641c10.604-14.243,21.219-28.48,31.822-42.723c2.81-3.778,5.623-7.553,8.433-11.334
		c1.238-1.669,2.477-3.341,3.718-5.018C238.558,90.902,239.515,89.198,240.922,87.79"/>
	<path fill-rule="evenodd" clip-rule="evenodd" d="M57.422,88.225c0.907,0.326,2.209,2.604,2.874,3.457
		c3.25,4.179,6.628,8.301,9.641,12.642c12.003,15.641,24.009,31.286,36.009,46.927c1.934,2.59,3.862,5.181,5.79,7.767
		c2.841,3.934,6.277,7.459,8.901,11.505c0.095,0.145,0.12,0.342,0.317,0.342v0.216h-0.108v0.111
		c-1.021,0.125-2.387,1.106-3.414,0.693c-0.782-0.323-3.675-3.949-4.382-4.801c-3.876-4.453-7.757-8.903-11.639-13.359
		c-7.699-9.188-15.614-18.016-23.639-27.11c-8.174-9.401-16.346-18.804-24.521-28.208c-0.284-0.317-0.762-0.789-0.762-1.234
		C52.489,95.301,56.245,89.935,57.422,88.225"/>
	<path fill-rule="evenodd" clip-rule="evenodd" d="M257.957,97.833c0.742,0.533,2.451,4.342,2.122,5.274
		c-0.381,1.077-1.836,1.992-2.623,2.838c-3.25,3.123-6.494,6.248-9.741,9.368c-15.851,15.302-31.699,30.602-47.548,45.904
		c-5.817,5.639-11.63,11.277-17.447,16.918c-0.415,0.242-1.041,0.101-1.355-0.22c-0.604-0.601,1.094-1.922,1.506-2.333
		c5.217-5.37,10.431-10.744,15.647-16.121c14.543-14.966,29.089-29.93,43.633-44.896c3.639-3.784,7.281-7.566,10.921-11.353
		C254.678,101.548,256.885,99.83,257.957,97.833"/>
	<path fill-rule="evenodd" clip-rule="evenodd" d="M8.077,97.941c0.999,0.166,3.498,0.761,3.865,1.767
		c0.036,0.111,0.15,0.199-0.044,0.199v0.108c-2.56,0-2.844,2.531-3.339,4.488c-0.053,0.202-0.292,1.08-0.153,1.08
		c1.007,1.371,13.113,4.587,15.392,4.587c0.849-0.547,1.416-1.014,1.591-2.085c0.022-0.154-0.014-0.316,0.156-0.316v-0.111
		c0.173,0,0.545-0.078,0.545,0.111c0.189,0.504,0.156,0.968,0.05,1.512c-0.367,1.06-0.737,2.126-1.107,3.189
		c-0.242,0.911-0.089,2.162-0.601,2.955c-0.142,0.096-0.287,0.193-0.434,0.284c-0.556,0.016-0.415-0.99-0.454-1.393
		c-0.064-0.679-0.381-1.085-0.929-1.438c-1.375-0.892-3.3-1.131-4.894-1.593c-2.677-0.778-5.333-1.504-8.091-2.158
		c-0.237-0.056-1.553-0.344-1.553-0.159c-1.046,0.584-2.398,4.546-1.778,5.721c0.523,1,1.372,1.054,2.195,1.612
		c0.289,0.195,0.439,0.67-0.003,0.775c-0.846,0.197-4.694-0.937-4.883-1.591c-0.014-0.132-0.028-0.269-0.039-0.399
		c0.354-0.924,0.707-1.838,1.06-2.762c0.554-1.778,1.107-3.553,1.661-5.331c0.503-2.146,1.01-4.293,1.516-6.441
		C7.946,99.681,7.779,98.705,8.077,97.941"/>
	<path fill-rule="evenodd" clip-rule="evenodd" d="M40.171,99.251c1.255,0.513,4.274,4.129,5.384,5.309
		c3.08,3.103,6.166,6.208,9.246,9.313c3.25,3.152,6.502,6.304,9.75,9.458c3.595,4.076,7.735,7.931,11.647,11.72
		c1.542,1.621,3.088,3.246,4.63,4.867c6.196,6.211,12.395,12.421,18.588,18.633c5.657,5.625,11.319,11.246,16.973,16.866
		c0.331,0.342,2.056,1.781,1.655,2.149c-0.253,0.229-0.651,0.292-0.965,0.167c-1.375-0.555-4.129-3.752-5.381-4.929
		c-4.382-4.06-8.764-8.118-13.149-12.177c-15.248-14.256-30.498-28.513-45.75-42.773c-3.489-3.277-6.979-6.559-10.47-9.835
		c-1.029-0.995-3.414-2.626-3.979-3.82C37.929,103.311,39.69,100.089,40.171,99.251"/>
	<path fill-rule="evenodd" clip-rule="evenodd" d="M293.762,107.44c0.414,0.065,0.743,0.152,0.999,0.495
		c0.397,0.54,0.948,4.018,0.662,4.702c-4.168,5.427-8.333,10.854-12.498,16.28c-0.206,0.37-0.415,0.746-0.627,1.12
		c0.438,0.036,0.871,0.074,1.309,0.108c0.439-0.072,0.873-0.143,1.31-0.22c0.329-0.071,0.657-0.143,0.982-0.217
		c0.328-0.074,0.657-0.145,0.985-0.216c1.202-0.22,2.401-0.439,3.603-0.657c0.546-0.297,1.375-0.438,2.07-0.438
		c1.625-0.875,4.438-0.522,4.889-2.835c-0.027-0.435-0.056-0.871-0.083-1.313c1.672-0.498,1.199,2.12,1.377,3.148
		c0.284,0.984,0.57,1.97,0.854,2.952c0.03,0.152,0.25,0.669,0.061,0.669c-0.139,0.151-0.873,0.619-0.873,0.328
		c-0.418-0.77-0.462-1.399-1.339-1.792c-1.488-0.67-3.984,0.171-5.453,0.509c-1.522,0.351-13.08,2.653-13.595,2.213
		c-0.063-0.196-0.125-0.387-0.189-0.58c0.07-1.163,2.574-3.855,3.373-4.875c3.127-4.184,6.257-8.365,9.385-12.551
		c0.097-0.096,0.191-0.188,0.286-0.285c-0.039-0.033-0.069-0.071-0.105-0.104c-0.111-0.111-0.223-0.22-0.331-0.331
		c-2.978,0.555-5.954,1.112-8.939,1.664c-1.339,0.388-2.83,0.441-4.023,1.108c-1.965,1.083-0.646,3.475-1.494,3.883
		c-0.12,0.054-0.281,0.193-0.281,0.003c-0.465-0.697-1.772-7.166-1.327-7.525c0.098-0.085,0.453-0.338,0.453-0.117
		c0.523,0.916,0.791,1.639,2.076,1.639c0.289-0.036,0.584-0.071,0.873-0.108c0.727-0.111,1.456-0.216,2.182-0.327
		c0.259-0.038,0.512-0.071,0.766-0.108c0.584-0.269,1.374-0.331,2.072-0.331c0.401-0.071,0.805-0.142,1.202-0.216
		c0.4-0.072,0.802-0.146,1.202-0.217c0.673-0.316,1.577-0.438,2.401-0.438c1.661-0.897,5.5-0.385,5.807-2.96
		c0.078-0.692-0.348-1.136-0.348-1.732C293.542,107.657,293.651,107.548,293.762,107.44"/>
	<path fill-rule="evenodd" clip-rule="evenodd" d="M42.467,121.957c1.35,0.373,2.529,1.812,3.637,2.675
		c3.241,2.654,6.483,5.313,9.719,7.966c12.493,10.146,24.988,20.294,37.475,30.44c1.745,1.444,14.883,11.704,14.883,12.519
		c-0.993,0.262-2.515,1.727-3.595,1.287c-4.254-2.948-8.506-5.894-12.757-8.843c-12.384-8.681-24.768-17.365-37.149-26.045
		c-3.217-2.243-6.427-4.482-9.638-6.725c-1.319-0.865-3.442-1.838-4.335-3.185C40.177,131.255,41.988,122.979,42.467,121.957"/>
	<path fill-rule="evenodd" clip-rule="evenodd" d="M255.989,122.067c0.936,0.428,1.205,2.636,1.366,3.61
		c0.197,1.226,1.11,4.64,0.776,5.733c-0.275,0.895-8.489,6.476-9.818,7.414c-13.256,9.61-26.511,19.221-39.76,28.827
		c-2.952,2.146-5.901,4.292-8.851,6.434c-1.45,1.042-2.978,2.638-4.646,3.265c-1.021,0.375-2.524-0.94-3.267-1.444
		c-0.226-0.151-0.534-0.363-0.534-0.676c3.395-2.787,6.791-5.573,10.186-8.36c5.448-4.413,10.896-8.83,16.347-13.245
		c5.275-4.364,10.559-8.727,15.834-13.091c5.325-4.354,10.651-8.708,15.971-13.058C251.67,125.809,254.27,124.213,255.989,122.067"
		/>
	<path fill-rule="evenodd" clip-rule="evenodd" d="M2.073,125.125c0.776,0.022,5.078,0.609,5.406,1.091
		c0.072,0.105,0.253,0.328,0.053,0.328v0.108c-1.071,0-2.117,0.162-2.955,0.634c-2.404,1.354-4.354,6.568-0.303,7.006
		c4.234,0.456,6.279-8.236,11.989-8.057c1.441,0.043,2.721,0.707,3.659,1.766c2.685,3.044,1.119,5.567,0.704,9.036
		c-0.067,0.519,0.442,1.43,0.003,1.811c0,0-5.54-0.043-5.849-0.176c-0.189-0.08-0.921-0.778-0.698-0.778
		c0.509-0.043,1.018-0.088,1.524-0.136c0.891-0.057,1.614-0.451,2.243-1.006c1.906-1.684,3.364-5.582,1.099-7.645
		c-0.545-0.498-1.247-0.87-2.031-0.878c-4.602-0.077-6.524,8.431-11.677,8.431c-2.933,0-5.047-2.92-4.497-5.837
		c0.29-1.53,1.105-2.684,1.461-4.086C2.159,126.198,2.12,125.663,2.073,125.125"/>
	<path fill-rule="evenodd" clip-rule="evenodd" d="M268.542,136.803c0.501,0.359,0.571,1.356,0.621,1.966
		c0.063,0.849,0.262,2.513-0.206,3.17c-0.829,1.149-2.907,1.895-4.096,2.553c-3.253,1.867-6.508,3.732-9.761,5.6
		c-3.878,2.176-7.751,4.353-11.627,6.527c-7.66,4.41-15.319,8.82-22.982,13.231c-8.266,4.75-16.532,9.501-24.805,14.249
		c-0.309,0.15-0.665,0.224-1.021,0.111c-0.426-0.143-1.336-0.687-1.336-1.228c4.416-2.745,8.834-5.488,13.253-8.232
		C227.234,162.103,247.892,149.453,268.542,136.803"/>
	<g>
		<defs>
			<rect id="SVGID_3_" width="300" height="288.473"/>
		</defs>
		<clipPath id="SVGID_4_">
			<use xlink:href="#SVGID_3_"  overflow="visible"/>
		</clipPath>
		<path clip-path="url(#SVGID_4_)" fill-rule="evenodd" clip-rule="evenodd" d="M30.238,137.022c1.547,0.359,3.05,1.625,4.399,2.454
			c3.019,1.814,6.043,3.632,9.065,5.448c15.014,9.008,30.03,18.02,45.046,27.023c5.262,3.151,10.526,6.299,15.787,9.447
			c0.356,0.202,1.667,0.86,1.355,1.424c-0.32,0.582-1.138,0.707-1.691,0.414c-5.184-2.926-10.367-5.855-15.548-8.784
			c-18.931-10.573-37.859-21.143-56.793-31.716c-0.579-0.302-2.165-0.946-2.165-1.778C30.272,139.86,29.958,138.268,30.238,137.022"
			/>
		<path clip-path="url(#SVGID_4_)" fill-rule="evenodd" clip-rule="evenodd" d="M299.327,141.062
			c0.526,0.465,0.635,6.551,0.656,7.75c0,0.193,0.084,0.875-0.108,0.875v0.108c-0.161,0-0.439,0.071-0.439-0.108
			c-0.498-1.08,0.025-2.131-1.157-2.833c-1.467-0.868-15.653-0.433-17.164,0.354c-0.813,0.421-1.107,1.576-1.107,2.479h-0.328
			c-0.006-1.639-0.015-3.276-0.02-4.915c-0.084-0.835-0.167-1.669-0.248-2.51c0.006-0.214,0.003-0.655,0.268-0.655
			c0.5,3.909,3.36,2.942,6.878,2.942c0.295,0,1.639,0.065,1.639-0.213c0.801,0.036,1.603,0.077,2.401,0.108
			c1.271-0.035,2.545-0.072,3.819-0.108c0.184-0.038,0.365-0.072,0.546-0.108h0.873c0.254-0.041,0.51-0.071,0.763-0.108
			c0.217-0.041,0.439-0.071,0.656-0.111C298.746,142.94,298.559,142.592,299.327,141.062"/>
		<path clip-path="url(#SVGID_4_)" fill-rule="evenodd" clip-rule="evenodd" d="M15.395,146.738c1.049,0,4.279,0.179,4.813,0.837
			c0.036,0.06,0.072,0.123,0.106,0.182c0.278,0.625,0.005,3.632,0.058,4.653c0.134,2.66,0.484,5.299,0.838,7.855
			c0.066,0.51,0.773,2.629-0.25,2.629c-0.512-0.803-0.679-1.979-1.636-2.39c-0.813-0.354-2.045-0.055-2.952-0.022
			c-3.266,0.099-6.299,0.395-9.39,0.601c-1.21,0.077-2.624,0.028-3.665,0.487c-0.534,0.234-0.887,0.772-0.993,1.327
			c-0.028,0.138-0.576,1.688-0.576,1.196c-1.235-1.104-0.724-7.178-0.916-9.165c-0.275-1.749-0.554-3.493-0.832-5.242
			c0.437-0.071,0.874-0.146,1.311-0.22c0.256-0.039,0.509-0.071,0.762-0.109c1.402-0.704,3.122,0.545,2.621,0.545v0.11
			c-0.821,0.052-1.875,0.296-2.307,1.032c-0.345,0.583,0.006,1.874,0.006,2.57c0,2.381-0.624,5.348,2.301,5.348
			c0.952-0.288,2.092-0.22,3.167-0.22c0.256-0.036,0.509-0.071,0.765-0.107c1.238-1.078,0.737-3.756,0.473-5.336
			c-0.122-0.405-0.242-0.807-0.364-1.212c-0.412-0.176-2.513-0.84-2.513-1.202c0.643-0.381,1.327-0.329,2.184-0.329
			c0.545,0.035,1.094,0.07,1.639,0.103c0.785,0.011,3.492-0.495,3.492,0.664c-0.835,0.317-1.742,0.32-2.387,0.992
			c-0.771,0.793-0.662,5.063,0.242,5.712c0.692,0.5,2.184,0.28,3.127,0.28c0.545-0.068,1.091-0.142,1.639-0.217
			c0.328-0.036,0.654-0.071,0.982-0.11c0.634-0.254,1.294-0.125,1.739-0.739c0.798-1.123-0.189-7.65-0.943-8.59
			c-0.515-0.648-2.872-1.265-2.872-1.586C15.175,146.958,15.283,146.849,15.395,146.738"/>
		<path clip-path="url(#SVGID_4_)" fill-rule="evenodd" clip-rule="evenodd" d="M298.782,158.091
			c0.292,0.081,0.687,0.189,0.813,0.505c0.48,1.221-0.682,4.23-0.707,5.826c-0.009,0.53,0.03,1.849-0.802,1.618
			c-0.646-0.182-0.113-1.906-1.396-2.213c-1.271-0.307-2.557,0.188-3.697,0.351c-3.557,0.504-7.04,1.476-10.361,2.547
			c-0.479,0.15-2.018,0.462-2.143,1.057c-0.101,0.455,0.467,0.718,0.745,0.966c1.987,1.754,10.81,6.86,13.392,6.524
			c0.787-0.108,1.228-0.752,1.449-1.448c0.229-0.734,0.248-1.216,1.18-1.216c0.234,1.313-0.57,8.151-1.566,8.517
			c-0.136,0.047-0.4,0.188-0.4,0h-0.108c0-0.785,0.089-1.542-0.317-2.112c-0.617-0.867-1.786-1.288-2.624-1.827
			c-1.941-1.237-15.071-8.61-15.238-10.06c-0.178-1.584,10.742-4.667,12.615-4.667c1.269-0.291,2.546-0.582,3.82-0.875
			c0.522-0.288,1.302-0.438,1.961-0.438c1.461-0.786,3.058-0.667,3.058-2.838c0.036-0.038,0.075-0.068,0.109-0.108
			C298.636,158.164,298.709,158.128,298.782,158.091"/>
	</g>
	<path fill-rule="evenodd" clip-rule="evenodd" d="M2.729,174.685c0.334,0.051,0.676,0.097,0.876,0.391
		c0.348,0.504,0.531,1.056,1.144,1.347c1.867,0.883,6.333,0.975,8.675,1.12c3.709,0.233,7.599,0.769,11.135,1.509
		c0.445,0.095,1.03,0.292,1.03,0.872c0,1.87-6.158,5.907-6.158,7.095h0.109c1.853,0.772,7.949,0.903,9.054,2.066
		c0.217,0.224,0.12,0.577,0.005,0.819c-0.695,1.416-2.571,2.784-3.759,3.835c-3.289,2.86-6.578,5.718-9.872,8.572
		c-1.102,0.94-1.436,1.728-1.436,3.267c0,0.156,0.078,0.436-0.105,0.436c-0.256,0.071-0.509,0.147-0.763,0.218
		c-0.587-1.222-0.637-2.595-1.035-3.917c-0.314-1.031-1.5-2.108-1.325-3.268c0.008-0.03,0.014-0.057,0.017-0.087
		c0.111-0.114,0.226-0.231,0.334-0.348c0.751-0.145,1.313,1.4,2.443,1.4c3.734-2.667,7.816-5.409,11.032-9.052
		c0.236-0.268,0.726-0.786,0.456-1.188c-0.59-0.869-6.068-1.55-7.192-1.134c-1.218,0.448-5.553,4.029-6.477,5.149
		c-0.351,0.421-0.57,0.94-0.579,1.529c-0.006,0.274,0.351,1.53,0.139,1.53v0.108c-0.378-0.071-0.727-0.114-0.979-0.418
		c-0.874-1.028-0.827-2.784-1.297-4.021c-0.295-0.781-0.598-1.558-0.896-2.338c0.058-0.256,0.12-0.514,0.178-0.772
		c0.66-0.567,1.146,1.974,2.955,1.142c0.846-0.595,1.691-1.193,2.538-1.794c2.654-2.048,5.3-4.243,7.788-6.727
		c0.501-0.519,1.004-1.035,1.505-1.557v-0.215c-2.045-0.984-16.53-2.778-16.53,0.649c0,0.308,0.56,1.971,0.265,1.971v0.109
		c-0.445-0.074-0.821-0.163-1.104-0.516c-0.729-0.921-0.718-2.2-1.127-3.29c-0.417-1.098-1.107-2.109-1.266-3.311
		C2.449,175.429,2.546,175.019,2.729,174.685"/>
	<path fill-rule="evenodd" clip-rule="evenodd" d="M249.328,194.224v-0.108c-0.033,0.038-0.066,0.072-0.108,0.108
		c-1.349,0.536-2.698,1.068-4.051,1.604c-3.814,1.397-7.632,2.787-11.449,4.184c-1.455,0-2.941,1.06-4.282,1.441
		c-4.941,1.414-9.883,2.821-14.818,4.233c-0.599,0-1.267,0.191-1.75,0.44c-0.07-0.01-0.143-0.018-0.215-0.029
		c-1.035-0.273-4.785-5.37-5.887-6.544c-1.601-1.524-3.203-3.052-4.809-4.581c-12.403-10.947-26.91-17.328-43.886-19.244
		c-1.666-0.191-3.336-0.308-5.133-0.417c-0.779-0.052-1.831-0.345-2.621-0.081c-0.473-0.034-0.946-0.071-1.419-0.109
		c-0.618,0.075-1.238,0.149-1.853,0.22c-1.096,0.038-2.187,0.071-3.277,0.109c-0.253,0.036-0.509,0.071-0.762,0.108
		c-0.587,0-1.272-0.005-1.748,0.218c-0.824,0-1.719-0.068-2.401,0.217c-0.473,0.076-0.946,0.149-1.419,0.22
		c-0.473,0.077-0.946,0.145-1.421,0.216c-0.359,0.078-0.727,0.148-1.091,0.222c-0.437,0.071-0.874,0.142-1.311,0.217
		c-0.364,0.077-0.726,0.145-1.093,0.215c-0.587,0-1.286,0.171-1.742,0.44c-1.133,0-2.271,0.452-3.272,0.78
		c-2.006,0.675-4.015,1.351-6.023,2.025c-11.071,3.823-21.146,10.883-29.593,19.878c-1.667,1.972-3.333,3.943-4.997,5.918v0.107
		c-0.804-0.175-1.605-0.359-2.404-0.539c-3.005-0.583-5.898-1.506-8.767-2.333c-5.476-1.587-10.887-3.287-16.151-5.261
		c-2.499-0.929-5.003-1.856-7.507-2.785c-0.248-0.107-0.935-0.479-1.208-0.224c-0.378,0.344,0.798,2.254,0.996,2.626
		c0.715,1.405,3.008,6.274,4.188,7.033c1.686,1.082,5.384,1.475,7.465,2.102c2.833,0.849,5.876,1.351,8.778,2.188
		c7.181,2.077,14.978,3.635,22.576,4.723c15.32,2.188,31.151,4.325,47.381,4.579c17.898,0.277,35.517-0.917,52.394-3.094
		c9.073-1.173,17.982-3.156,26.761-4.82c4.986-0.949,9.808-2.302,14.646-3.572c2.242-0.596,5.364-0.761,7.215-2.137
		c0.945-0.707,1.502-1.995,2.075-2.937c1.469-2.435,3.033-4.928,4.106-7.557H249.328z M203.155,208.304
		c-1.093,0.22-2.184,0.44-3.274,0.658c-0.328,0.108-0.656,0.217-0.985,0.328v0.109c-0.395,0-0.703-0.163-1.09,0
		c-0.799,0-1.733,0.125-2.401,0.435c-0.471,0.074-0.946,0.146-1.419,0.22c-0.907,0.145-1.817,0.288-2.729,0.436
		c-0.398,0.075-0.802,0.146-1.202,0.22c-0.907,0.145-1.817,0.291-2.727,0.436c-0.439,0.074-0.874,0.146-1.311,0.22
		c-0.604,0-1.252,0.003-1.747,0.217c-0.51,0.077-1.019,0.147-1.53,0.218c-0.615,0.038-1.235,0.072-1.854,0.108
		c-0.22,0.038-0.437,0.071-0.656,0.109c-0.398,0.076-0.802,0.147-1.199,0.22c-0.549,0.036-1.094,0.071-1.639,0.108
		c-0.398,0.036-0.799,0.071-1.199,0.11c-0.474,0.074-0.946,0.146-1.422,0.217c-0.852,0-1.801-0.076-2.51,0.22
		c-0.471,0.036-0.946,0.071-1.419,0.107c-0.287,0.041-0.582,0.072-0.871,0.108c-0.802,0.041-1.603,0.072-2.401,0.111
		c-0.331,0.038-0.656,0.071-0.984,0.108c-0.982,0.038-1.965,0.074-2.949,0.111c-0.215,0.036-0.435,0.071-0.654,0.109
		c-1.163,0.036-2.332,0.071-3.492,0.108c-0.798,0.039-1.6,0.071-2.403,0.107c-1.488,0.041-2.985,0.075-4.475,0.111v0.108
		c-1.023,0-2.226-0.462-3.274-0.108c-12.448,0-24.649-1.053-36.349-2.561c-5.854-0.758-11.636-2.083-17.364-2.994
		c-0.509-0.081-1.959-0.211-2.062-0.818c-0.167-0.924,3.642-5.23,4.427-6.117c9.577-10.858,21.497-18.237,35.197-21.434
		c2.704-0.633,5.559-1.248,8.405-1.519c1.564-0.156,3.673,0.043,5.125-0.473c20.272,0,38.007,6.196,51.226,19.841
		c2.886,2.974,6.113,6.063,7.832,9.634C205.548,207.433,203.458,208.162,203.155,208.304"/>
	<path fill-rule="evenodd" clip-rule="evenodd" d="M273.673,183.417c0.184,0.038,0.364,0.074,0.548,0.109
		c-0.063,0.938-0.42,1.849,0.248,2.59c0.946,1.044,2.758,1.248,4.004,1.775c2.445,1.031,5.036,1.789,7.615,2.583
		c1.249,0.388,2.504,0.772,3.756,1.153c0.69,0.105,1.241-0.031,1.687-0.501c0.354-0.381,0.528-0.932,1.049-1.085
		c0.128-0.043,0.306-0.154,0.306,0.033h0.108c-0.164,2.556-1.797,4.901-2.584,7.218c-0.657,1.937-1.124,3.781-1.653,5.861
		c-0.063,0.261-0.203,0.658-0.462,0.783c-0.442,0.21-3.055-0.77-3.592-0.995c-0.429-0.18-0.984-0.522-0.984-1.077h0.108v-0.109
		c0.915,0.057,1.956,0.416,2.779-0.087c0.721-0.451,3.002-6.016,2.849-6.984c-0.077-0.481-0.584-0.837-0.979-1.028
		c-0.787-0.383-4.568-1.77-5.316-1.269c-1.032,0.688-1.687,3.696-1.992,4.913c-0.351,1.408,1.953,2.017,1.711,2.681
		c-0.242,0.655-4.524-1.335-5.262-1.635c-0.528-0.208-1.43-0.562-1.43-1.285h0.108v-0.109c0.807,0.052,1.931,0.437,2.688,0.038
		c0.921-0.491,2.646-4.172,2.251-5.194c-0.348-0.895-6.196-2.88-7.223-2.556c-1.3,0.408-3.208,6.709-3.002,8.248
		c0.105,0.815,0.771,1.345,1.383,1.821c0.128,0.097,0.96,0.919,0.629,0.919v0.108c-1.753-0.223-3.665-2.183-4.694-2.183
		c0.092-1.518,1.914-4.507,2.535-6.042c0.587-1.815,1.174-3.626,1.756-5.442C272.933,185.548,273.02,184.36,273.673,183.417"/>
	<path fill-rule="evenodd" clip-rule="evenodd" d="M280.879,215.293c-1.018,0-1.057,1.786-2.384,1.624
		c-1.294-0.164-13.361-7.461-13.962-8.483c-0.504-0.861,0.378-1.775,0.518-2.639h-0.111c0-0.188-0.373-0.108-0.546-0.108
		c-1.054,1.204-1.747,2.485-2.582,3.773c-0.517,0.794-1.341,1.558-1.604,2.469c-0.104,0.339,0.033,0.644,0.256,0.855
		c0,0.177,0.066,0.109,0.223,0.109c0.236-0.305,0.476-0.614,0.715-0.916c0.334-0.447,0.751-0.897,1.36-0.937
		c1.524-0.105,4.955,2.369,6.222,3.27c0,0.584-0.74,1.314-1.055,1.781c-0.426,0.627-0.868,1.448-1.578,1.804
		c-0.906,0.454-4.988-0.171-6.324-0.214c-0.578,0.01-1.16,0.013-1.744,0.016c-2.557,0-4.728,3.01-3.82,5.459
		c0.062-0.021,0.117-0.041,0.181-0.057c0.716-0.573,0.815-1.602,1.614-2.174c1.405-1.023,6.538-1.069,8.575-1.035
		c1.246,0.015,1.822,0.309,2.217,1.399c1.146,3.219,6.166,6.266,9.24,3.385c1.53-1.433,1.881-3.416,2.899-5.092
		C279.942,218.322,281.615,216.9,280.879,215.293 M275.496,222.567c-0.534,0.267-1.068,0.536-1.603,0.803
		c-1.934,0-6.24-1.256-5.915-3.7c0.189-1.422,1.723-2.952,2.641-4.048c1.366,0.218,2.373,1.147,3.528,1.789
		C276.639,218.786,279.06,219.985,275.496,222.567"/>
	<path fill-rule="evenodd" clip-rule="evenodd" d="M43.446,219.222c0.704,0.502,0.862,1.391,1.324,2.058
		c0.927,1.226,1.856,2.45,2.782,3.673c1.642,1.914,3.286,3.826,4.931,5.737c0.214,0.317,0.133,0.579,0.133,0.978
		c-0.901-0.233-1.555-1.405-2.615-1.166c-1.094,0.239-2.009,1.209-2.888,1.873c-2.145,1.598-4.291,3.2-6.436,4.798
		c-1.152,0.832-2.741,1.735-3.589,2.96c-0.707,1.02,0.607,2.322,0.256,2.695c-0.086,0.032-0.17,0.071-0.256,0.105
		c-0.854,0.104-4.51-5.007-5.091-5.923c-0.523-0.815-4.488-5.005-4.488-5.231c0.618-0.476,1.235-0.946,1.853-1.422
		c0.376-0.302,1.65-1.539,2.195-0.905c0.022,0.104,0.045,0.215,0.067,0.321c-0.267,0.792-1.096,1.128-1.041,2.102
		c0.044,0.861,3.801,5.953,4.68,5.983c0.899,0.032,4.816-2.926,4.764-3.891c-0.059-1.06-1.664-2.431-2.31-3.237
		c-1.16-1.45-2.003-1.08-3.57-0.675c-0.15,0.034-0.417,0.174-0.417-0.026h-0.109c0.034-0.378,0.067-0.724,0.312-1.003
		c1.65-1.05,3.302-2.1,4.955-3.154c0.153-0.039,0.849-0.199,0.849,0.01h0.108c-0.259,0.944-1.349,1.46-1.349,2.512
		c0,0.92,2.487,4.527,3.511,4.427c0.971-0.099,5.289-3.507,5.667-4.489c0.331-0.886-4.321-6.421-5.37-6.81
		c-0.765-0.283-1.664-0.049-2.354,0.199c-0.303,0.103-1.032,0.317-0.955-0.272c0.025-0.237,0.231-0.419,0.434-0.524
		c0.417-0.095,0.832-0.183,1.247-0.274C41.668,220.35,42.628,219.869,43.446,219.222"/>
	<path fill-rule="evenodd" clip-rule="evenodd" d="M249.005,226.866c0.593,0.074,5.206,3.501,5.358,4.06
		c0.036,0.143,0.189,0.633-0.011,0.633v0.108c-0.879-0.228-1.433-0.995-2.315-1.242c-2.504-0.701-5.695,1.174-6.672,3.35
		c-0.765,1.69-0.053,4.015,1.817,4.545c1.026,0.288,2.292,0.114,3.455,0.114c1.548-0.772,5.259-1.527,7.207-1.527
		c3.733-0.832,5.773,3.776,4.201,6.619c-1.068,1.925-2.821,2.583-4.44,3.76c-0.442,0.32-0.442,1.104-1.144,0.998
		c-0.644-0.097-1.62-1.342-2.138-1.732c-0.587-0.437-1.499-1.063-1.499-1.892h0.108v-0.108c0.879,0.331,1.761,0.661,2.644,0.992
		c0.854,0.191,1.661-0.12,2.487-0.12c0.873-0.564,1.864-0.889,2.546-1.804c1.374-1.828,0.008-4.108-2.115-4.276
		c-5.459-0.433-12.011,5.374-14.688-2.667c-0.239-0.712-0.128-1.586,0.042-2.287c0.748-3.172,2.718-3.602,4.526-5.946
		C248.588,227.918,248.793,227.394,249.005,226.866"/>
	<path fill-rule="evenodd" clip-rule="evenodd" d="M103.923,230.795c0.353,0.043,0.773,0.049,0.938,0.388
		c0.267,0.561-1.8,1.177-2.148,1.846c-0.871,1.647-2.852,11.293-2.148,12.977c0.314,0.758,1.263,1.112,1.937,1.377
		c0.287,0.114,0.988,0.339,0.988,0.769c-1.522,0.606-3.164-0.494-4.602-0.81c-1.122-0.071-2.246-0.139-3.367-0.213
		c-0.403-0.095-0.801-0.189-1.205-0.288c0.392-1.511,2.888-0.117,3.675-2.196c0.239-1.231,0.481-2.465,0.721-3.696
		c0.328-1.849,1.542-5.661,1.149-7.504c-0.278-1.31-2.059-0.858-2.271-1.633c-0.111-0.393,0.22-0.487,0.22-0.8
		c1.413,0.28,2.832,0.22,4.368,0.22C102.763,231.083,103.347,230.941,103.923,230.795"/>
	<path fill-rule="evenodd" clip-rule="evenodd" d="M164.62,235.38c6.728,1.344,3.751,7.819,0.963,11.441
		c-0.528,0.679-2.71,3-2.71,3.732h0.108v0.108c0.548,0.038,1.094,0.074,1.639,0.108c1.085-0.435,2.231-0.135,3.228-0.726
		c1.088-0.652,1.136-2.487,2.237-2.846c0.033-0.01,0.069-0.018,0.103-0.029v0.111h0.111c-0.069,1.071-0.768,4.434-1.517,5.005
		c-0.723,0.545-5.712,0.539-7,0.559c-0.298,0.003-2.075,0.171-2.075,0h-0.108c0.145-1.163,1.291-1.909,2.011-2.772
		c2.126-2.572,4.944-5.975,4.944-9.564c0-1.25-0.653-2.145-1.744-2.553c-2.365-0.895-3.751-0.079-5.281,1.504
		c-0.172,0.177-0.489,0.411-0.721,0.188c-1.255-1.191,2.493-4.051,3.737-4.051C163.237,235.525,163.93,235.454,164.62,235.38"/>
	<path fill-rule="evenodd" clip-rule="evenodd" d="M200.59,234.989c-1.676-1.43-4.633-1.217-6.336,0.028
		c-0.525,0.521-1.055,1.041-1.58,1.562v0.111h-0.22v-0.111c-0.254,0-0.006-1.143,0.053-1.337c0.773-2.686,2.844-5.877,6.065-5.978
		c0-0.968-0.345-1.028-1.313-1.091c-1.684,1.038-3.333,1.599-4.524,3.431c-3.019,4.652-2.563,17.671,5.281,17.049
		C204.16,248.167,204.477,238.309,200.59,234.989 M199.296,246.63c-4.216,1.023-7.916-5.695-5.865-8.898
		c0.748-1.174,1.959-1.367,3.063-1.917c1.639,0.052,2.913,0.536,3.948,1.715C202.429,239.79,203.042,245.717,199.296,246.63"/>
	<path fill-rule="evenodd" clip-rule="evenodd" d="M57.856,239.198c4.897,0.473,4.602,1.943,7.788,4.755
		c0.434,0.381,1.708,0.734,1.708,1.47c-1.931,1.14-2.54,3.559-4.393,4.413c-0.125,0.054-0.406,0.256-0.406,0.063h-0.22
		c-0.089-1.348,1.494-1.895,1.333-3.39c-0.117-1.046-0.351-1.915-0.762-2.787c-1.102-2.322-4.505-4.424-6.614-1.949
		c-2.254,2.639,1.024,8.824,0.426,12.483c-0.415,2.499-3.409,4.125-5.927,3.222c-1.241-0.448-2.114-1.311-2.996-2.316
		c-0.679-0.764-0.949-1.562-1.483-2.365c-0.378-0.563-1.552-0.852-1.552-1.59c0.492-0.345,0.982-0.686,1.469-1.031
		c0.718-0.77,1.336-1.941,2.376-2.262c0.133-0.046,0.412-0.188,0.412,0.02h0.111c-0.203,1.245-1.16,2.074-1.224,3.388
		c-0.123,2.384,2.479,6.082,5.083,4.273C57.639,252.361,47.108,241.587,57.856,239.198"/>
	<path fill-rule="evenodd" clip-rule="evenodd" d="M235.575,241.383c0.182,0.037,0.367,0.077,0.546,0.11
		c0,1.305-1.7,1.725-1.274,3.218c0.364,1.273,2.504,3.236,3.467,4.298c1.914,2.1,4.585,5.943,6.973,7.428
		c0.503,0.312,1.196,0.314,1.738,0.094c0.184-0.081,1.762-0.854,1.762-0.521h0.108c-0.089,0.28-0.178,0.552-0.27,0.829
		c-0.969,0.775-1.932,1.553-2.899,2.328c-0.949,0.829-1.786,2.112-2.869,2.669c-0.548,0.28-0.731-0.147-1.165-0.147v-0.22
		c0.849-0.715,1.794-1.457,1.672-2.724c-0.117-1.164-9.229-11.139-10.67-11.935c-0.635-0.351-1.389-0.208-1.984,0.108
		c-0.337,0.177-1.463,0.924-1.463-0.077c1.218-1,2.442-2,3.661-2.998C233.797,243.023,234.69,242.205,235.575,241.383"/>
	<path fill-rule="evenodd" clip-rule="evenodd" d="M134.381,241.383c0-0.385,1.925-2.049,2.207-2.772
		c0.267-0.701,0.32-1.514,0.27-2.359c-0.206-3.188-3.756-3.137-6.297-3.382c-1.068,0.326-1.986,0.636-2.793,1.473
		c-1.961,2.025-1.305,5.41,0.827,6.932c0,0.219-2.015,1.83-2.343,2.336c-2.07,3.191,0.1,7.471,3.562,8.069
		c1.377,0.233,3.199,0.163,4.293-0.465C137.581,249.197,138.084,243.474,134.381,241.383 M130.561,233.741
		c1.027,0.098,2.07,0.046,2.93,0.476c0.693,0.342,1.193,0.998,1.491,1.68c0.901,2.063-0.375,3.514-1.912,4.613
		C128.675,240.511,126.051,236.143,130.561,233.741 M133.889,250.059c-0.489,0.405-1.046,0.533-1.583,0.823
		c-2.587,0-4.268-0.94-5.019-3.276c-0.165,0-0.045-0.75-0.059-0.978c-0.128-1.923,0.771-3.649,2.457-4.371
		c2.905,0.179,5.996,1.625,5.673,5.023C135.252,248.374,134.737,249.349,133.889,250.059"/>
	<path fill-rule="evenodd" clip-rule="evenodd" d="M218.544,254.375c0.963,0.091,1.193,0.378,0.437,0.979
		c-0.617,0.481-0.935,1.208-0.776,2.058c0.287,1.518,6.024,12.351,7.206,13.071c1.033,0.625,5.189-1.764,5.481-2.928
		c0.298-1.214-0.557-1.935-0.557-3.03c1.634-0.427,2.947,3.734,2.947,5.021c-4.294,1.43-8.361,3.644-12.215,5.91
		c-0.492,0.288-3.361,2.515-3.522,2.523c-0.601,0.035-2.518-4.173-1.291-4.173c0.849,1.017,1.547,1.278,2.821,0.74
		c1.002-0.427,3.191-1.199,3.623-2.301c0.259-0.679-6.139-12.582-7.195-13.511c-0.582-0.511-1.327-0.655-2.067-0.378
		c-0.187,0.065-1.547,0.832-1.547,0.495h-0.111C212.097,257.42,217.112,255.64,218.544,254.375"/>
	<path fill-rule="evenodd" clip-rule="evenodd" d="M91.736,261.156c-0.314-1.134-1.945-1.313-2.779-1.87
		c-0.634-0.424-1.168-1.074-1.897-1.291c-0.496-0.15-0.732,0.223-0.632,0.687c0.092,0.437,0.426,0.682,0.303,1.213
		c-0.323,1.369-4.563,4.061-5.84,4.63v0.108c-0.791,0-1.912-1.071-2.549-1.484c-1.093-0.709-2.83-1.301-3.631-2.374
		c-0.779-1.042,0.679-6.789,1.377-7.711c0.437,0.074,0.871,0.145,1.311,0.219v-0.111c0.187,0,0.031-0.354-0.022-0.498
		c-0.103-0.253-5.033-3.439-5.548-3.539c-0.027,0.149-0.061,0.296-0.094,0.445c-0.044,0.808,0.762,1.202,1.054,1.857
		c0.245,0.547,0.211,1.291,0.192,1.949c-0.365,2.7-0.735,5.396-1.102,8.091c-0.328,3.023-0.662,6.041-0.996,9.063
		c-0.131,0.813-0.075,1.675,0.857,1.838c1.135,0.199,1.937-0.813,2.763-1.337c3.425-2.374,6.851-4.75,10.275-7.123
		c1.263-0.892,2.587-2.202,4.101-2.607c1.016-0.275,1.845,0.144,2.819,0.266v-0.108C91.892,261.469,91.772,261.292,91.736,261.156
		 M79.035,265.944c-0.515,0.431-1.035,0.861-1.55,1.291c-0.49,0.364-3.361,2.451-3.814,2.134c-0.565-0.384,0.145-5.823,0.67-6.262
		v-0.108c1.642,0.584,3.267,1.707,4.694,2.729V265.944z"/>
	<g>
		<defs>
			<rect id="SVGID_5_" width="300" height="288.473"/>
		</defs>
		<clipPath id="SVGID_6_">
			<use xlink:href="#SVGID_5_"  overflow="visible"/>
		</clipPath>
		<path clip-path="url(#SVGID_6_)" fill-rule="evenodd" clip-rule="evenodd" d="M97.921,263.763
			c0.727,0.256,1.453,0.512,2.179,0.763c5.078,1.135,10.971,1.938,12.571,7.636c0.439,1.576,0.573,3.564,0.211,5.246
			c-0.542,2.496-1.895,5.117-4.054,6.647c-4.146,2.929-8.347,2.461-12.666,0.248c-1.049-0.538-2.106-1.9-3.289-2.071
			c-0.57,0.065-1.146,0.134-1.722,0.199c-0.053-0.498,1.411-5.008,1.689-5.539c0.136-0.269,0.351-0.492,0.628-0.595
			c0.131-0.052,0.303-0.177,0.303,0.02h0.109c-0.059,0.906-0.365,1.892-0.117,2.806c0.891,3.314,6.083,5.818,9.394,5.818
			c1.263-0.555,2.381-0.74,3.492-1.624c3.717-2.977,5.039-10.012,2.014-13.93c-1.166-1.512-2.788-2.284-4.474-2.86
			c-1.728-0.59-4.107-0.365-5.643,0.459c-0.417,0.223-2.604,1.75-2.866,1.47c-0.025-0.174-0.053-0.342-0.083-0.519
			c0.462-0.712,0.924-1.425,1.38-2.137C97.293,265.118,97.607,264.44,97.921,263.763"/>
		<path clip-path="url(#SVGID_6_)" fill-rule="evenodd" clip-rule="evenodd" d="M195.512,265.289
			c0.328,0.04,0.653,0.078,0.982,0.111c0.039,0.146,0.077,0.293,0.111,0.437c-0.621,0.365-1.52,0.669-1.864,1.359
			c-0.624,1.238,1.973,6.876,2.871,7.891c0.915,0.69,1.842,1.38,2.757,2.063c2.102,1.308,4.057,3.094,6.486,3.738
			c0.643,0.166,1.243-0.011,1.711-0.37c0.197-0.202,0.393-0.396,0.593-0.601c0.267,0.253,0.367,0.561,0.301,0.96
			c-0.106,0.661-0.808,1.196-1.381,1.455c-3.55,1.587-8.077-3.239-10.584-5.378c-0.155-0.134-1.33-0.981-1.33-0.639h-0.105
			c0,3.635,0.573,11.459-3.625,12.123c-0.198,0.032-1.071,0.095-1.071-0.113h-0.108v-0.439h0.108
			c0.531-0.305,1.141-0.424,1.541-0.943c1.342-1.743,2.19-8.359,2.031-10.954c-0.103-1.593-2.334-7.747-4.212-7.545
			c-0.254,0.021-1.542,0.428-1.542,0.231h-0.108c0.072-0.393,0.158-0.658,0.498-0.888c0.779-0.282,1.563-0.562,2.346-0.842
			C193.117,266.392,194.316,265.843,195.512,265.289"/>
	</g>
	<path fill-rule="evenodd" clip-rule="evenodd" d="M149.776,276.859c0.821,0.225,2.899,2.517,2.886,3.379
		c-0.015,0.664-1.981,3.55-2.663,3.525c-0.593-0.029-0.926-0.788-1.266-1.171c-0.434-0.49-1.18-1.194-1.308-1.838
		C147.264,279.948,149.312,277.623,149.776,276.859"/>
</g>
</svg>
