<?xml version="1.0" encoding="utf-8"?>
<!-- Generator: Adobe Illustrator 13.0.1, SVG Export Plug-In . SVG Version: 6.00 Build 14948)  -->
<!DOCTYPE svg PUBLIC "-//W3C//DTD SVG 1.0//EN" "http://www.w3.org/TR/2001/REC-SVG-20010904/DTD/svg10.dtd">
<svg version="1.0" id="Layer_1" xmlns="http://www.w3.org/2000/svg" xmlns:xlink="http://www.w3.org/1999/xlink" x="0px" y="0px"
	 width="167.968px" height="169.997px" viewBox="0 0 167.968 169.997" enable-background="new 0 0 167.968 169.997"
	 xml:space="preserve">
<path fill="#57068C" d="M100.421,25.105c0.869,0.638,1.797,0.812,2.956,0.638c2.726-1.102,2.088-4.349,3.132-6.494
	c0.115-0.29,0.521-0.231,0.695-0.116c-0.521-0.348-1.565-0.579-2.088-0.579c0.29,0.115,0.639,0.231,0.639,0.579
	c-0.465,2.088-0.639,4.349-2.029,5.973c-0.58,0.348-1.566,0.521-2.203,0.116c-2.551-1.624-0.232-4.465-0.116-6.668
	c0-0.465,0.406-0.928,0.869-0.813l-2.377-0.579l0.696,0.579C100.537,20.178,98.276,22.902,100.421,25.105"/>
<path fill="#57068C" d="M61.401,19.423l-2.319,0.813l0.754-0.058c0.928,1.564,1.333,3.305,1.972,4.985
	c0.174,0.638,0.812,1.74,0,2.146c0.754-0.232,1.681-0.521,2.203-0.869c-0.232,0-0.406,0.174-0.696,0.116
	c-0.695-1.044-1.102-2.262-1.333-3.422c2.087,0.87,4.29,3.189,6.61,1.682c-2.32,0.174-4.176-1.449-6.089-2.377
	c0.869-1.449,1.102-3.363,2.609-4.406c-0.638,0.116-1.218,0.521-1.855,0.695l0.289,0.231c-0.464,1.334-0.984,2.841-1.738,3.827
	C61.749,21.626,60.125,20.235,61.401,19.423"/>
<path fill="#57068C" d="M109.872,19.888c-1.16,2.202-2.145,4.464-3.421,6.609h-0.754c0.696,0.29,1.45,0.869,2.146,0.985
	c-0.349-0.174-0.87-0.579-0.522-1.043l2.261-4.871l2.436,7.944l0.29,0.231l3.362-6.494l0.58-0.116
	c-0.638-0.231-1.334-0.695-1.914-0.812l0.522,0.406c-0.464,1.971-1.507,3.711-2.319,5.508
	C111.553,25.512,110.858,22.496,109.872,19.888"/>
<path fill="#57068C" d="M120.6,25.639c0.037,0.035,0.082,0.067,0.115,0.104C120.676,25.701,120.638,25.666,120.6,25.639"/>
<path fill="#57068C" d="M114.858,31.02c0.754,0.405,1.449,0.87,2.261,1.16l-0.58-0.465c0.639-1.971,2.03-3.479,2.842-5.275
	c0.271-0.271,0.692-1.196,1.219-0.801c-0.475-0.471-1.206-0.848-1.798-1.172l0.405,0.639c-1.102,2.029-2.262,4.001-3.652,5.914
	H114.858"/>
<path fill="#57068C" d="M124.947,32.644c1.276-0.464,2.377-1.855,3.77-1.392l-1.74-1.275l0.348,0.58l-5.044,3.188h-0.348
	c0.58-1.972,1.044-4.001,1.854-5.915l0.639,0.117c-0.639-0.522-1.449-1.044-2.088-1.566l0.349,0.465
	c-0.116,2.782-1.508,5.334-1.798,8.059L124.947,32.644"/>
<path fill="#57068C" d="M36.527,34.208c1.681-0.348,3.363,0.522,5.044,0.929c0.986,0.695,1.566,1.448,2.146,2.492
	c0,0.175-0.464,0.349-0.231,0.465l1.797-1.683c-1.275,1.044-1.913-1.101-2.841-1.797c-0.464-1.566-1.16-3.711-0.464-5.218
	l-1.333,1.333l0.231-0.059c0.695,1.103,0.753,2.553,0.928,3.827c-1.275-0.348-2.552-0.754-3.71-1.274v-0.349
	C37.455,33.224,36.991,33.628,36.527,34.208"/>
<path fill="#57068C" d="M126.222,37.397c-0.349,0.406-0.929,0.754-1.276,0.348l2.783,2.667h0.348c0.349-0.231,0.813-0.406,0.87-0.87
	c-0.348,0.232-0.638,0.464-1.044,0.349c-0.521-0.349-1.391-0.928-1.333-1.565l2.146-2.319l1.218,1.102
	c0.174,0.348-0.059,0.638-0.232,0.87c0.406-0.232,0.87-0.58,1.102-0.986c-0.753-0.116-1.333-0.869-1.797-1.391l1.971-2.087
	l1.102,0.984c0.406,0.29,0.174,0.87,0.059,1.103l0.985-0.754l-3.188-2.667c0.058,0.289,0.406,0.464,0.348,0.812L126.222,37.397"/>
<path fill="#57068C" d="M26.091,46.152l0.638-0.406l7.305,2.493l0.232-0.116c-1.102-1.854-2.436-3.651-3.362-5.508
	c2.087,0.58,4.116,1.392,6.203,1.798c-1.275-2.145-2.841-4.175-4.232-6.262c-0.231-0.348-0.058-0.754,0-1.103
	c-0.348,0.58-1.044,1.219-1.218,1.74c0.174-0.174,0.406-0.464,0.638-0.348c1.219,1.623,2.552,3.188,3.479,4.87
	c-2.088-0.522-4.117-1.392-6.204-1.797l3.363,5.218v0.348c-1.798-0.87-3.711-1.334-5.451-2.318c-0.057-0.175,0.117-0.406,0.175-0.58
	C27.077,44.762,26.439,45.456,26.091,46.152"/>
<path fill="#57068C" d="M84.593,39.658c0,0.87-0.58,1.913,0,2.609V39.658"/>
<path fill="#57068C" d="M135.962,46.963c-0.405,0.116-1.044,0.349-1.334,0.813c0.116,0.696,0.406,1.274,0.986,1.797
	c0.522,0.522,1.276,0.638,1.971,0.58c2.899-0.58,0.755-4.175,2.667-5.508c0.58-0.232,1.219,0.058,1.624,0.638
	c0.349,0.464,0.232,1.391-0.174,1.739l1.044-0.87c-0.521-0.985-1.16-2.261-2.608-2.087c-3.189,0.638-0.232,5.45-3.596,5.682
	c-0.405-0.29-1.044-0.521-1.159-1.044C135.035,48.065,135.383,47.253,135.962,46.963"/>
<path fill="#57068C" d="M25.917,48.587l-1.044-0.754l-2.087,3.711c0.174-0.174,0.464-0.58,0.813-0.521l5.102,3.131
	c0.348,0.231,0.87,0.696,0.464,1.16c0.754-1.044,1.623-2.377,2.203-3.479c-0.231-0.348-0.58-0.754-1.043-0.87v0.175
	c0.057-0.059,0.115,0,0.173,0.058c0.58,0.406,0.232,1.218-0.173,1.681c-0.928,1.74-2.378-0.637-3.537-0.927
	c0.463-0.521,0.869-1.972,1.797-1.45l-1.102-0.928c0,0.812-0.58,1.566-1.101,2.146c-0.754-0.522-1.74-0.986-2.378-1.566
	C24.351,49.516,25.047,48.123,25.917,48.587"/>
<path fill="#57068C" d="M137.818,52.704c0.464,0.754,0.813,1.623,1.334,2.146c0.058-0.349-0.348-0.465-0.174-0.87
	c1.623-1.217,3.304-2.087,5.044-3.189c0.406-0.23,1.217-0.694,1.507,0c-0.406-0.694-0.753-1.449-1.217-2.028l0.116,0.695
	c-1.914,1.333-4.001,2.609-6.03,3.596L137.818,52.704"/>
<path fill="#57068C" d="M140.775,57.922l1.102,2.319l0.059-0.058l-0.059-0.116c-0.058-0.349-0.231-0.696,0.116-0.928l5.914-2.899
	l0.173,0.174c0.232,0.813,1.16,1.973,0.349,2.551l1.159-0.521c-1.159-1.798-1.854-3.711-2.667-5.566
	c-0.405,0.059-0.812,0.173-1.218,0.349c1.16-0.059,1.393,1.448,1.856,2.203c-1.856,1.101-3.827,1.797-5.683,2.782
	C141.471,58.561,140.949,58.271,140.775,57.922"/>
<path fill="#57068C" d="M24.41,63.488c0.522,0.174,0.29,0.754,0.232,1.044l1.044-2.088l-0.464,0.521
	c-1.914-0.348-3.595-1.507-5.392-2.261c2.725-0.986,5.566-1.565,8.233-2.725c-2.145-1.103-4.407-2.146-6.494-3.363l-0.058-0.696
	c-0.29,0.639-0.812,1.393-0.928,1.973c0.232-0.175,0.29-0.639,0.696-0.58l5.102,2.318c-2.551,0.986-5.624,1.798-8.291,2.726
	C20.178,61.459,22.381,62.387,24.41,63.488"/>
<path fill="#57068C" d="M150.574,61.458l-0.754-1.854v0.579c-0.927,1.449-1.854,2.725-3.247,3.942
	c-0.985,0.116-2.261,1.45-3.015,0.349l-0.116,0.058c0.464,0.696,0.522,1.681,0.986,2.319l-0.116-0.696
	c0.638-0.811,1.971-0.985,2.957-1.333c1.74,0.406,3.769,0.174,5.044,1.507c-0.116-0.579-0.463-1.101-0.637-1.739l-0.29,0.465
	c-1.334-0.175-2.726-0.29-3.886-0.696l2.667-3.016L150.574,61.458"/>
<path fill="#57068C" d="M38.025,127.782c-0.055,0.002-0.109,0.002-0.164,0.005C37.92,127.796,37.975,127.792,38.025,127.782"/>
<path fill="#57068C" d="M54.21,121.41c0.406,0,0.813,0.348,0.813,0.754l0.116-1.217c-1.798,0.231-3.886,0.29-5.566-0.059
	l-0.29,1.102h0.059c0.348-1.102,1.738-0.463,2.492-0.521v5.218c-0.115,0.405,0.116,1.16-0.638,1.102l2.261,0.059l-0.694-0.29
	c-0.232-1.972-0.175-4.176-0.06-6.146H54.21"/>
<path fill="#57068C" d="M28.178,124.657c0.696,0.059,1.391,0,1.913-0.464c0.464-0.464,0.696-1.159,0.696-1.913
	c-0.58-1.972-3.131-1.102-4.522-1.333c0.116,0.29,0.637,0.057,0.753,0.521v5.623c0.058,0.406-0.463,0.696-0.579,0.755l2.145-0.059
	c-0.232-0.116-0.58,0-0.754-0.29c-0.116-2.028-0.116-4.231,0-6.261c0.522-0.117,1.334-0.059,1.739,0.521
	c0.348,0.465,0.638,1.103,0.406,1.739C29.744,124.251,28.874,124.657,28.178,124.657"/>
<path fill="#57068C" d="M32.237,127.788c1.391-0.116,2.319,0.232,3.77,0l0.058-1.102l-0.348,0.695
	c-0.58,0.175-1.509,0.233-2.03-0.057c-0.059-0.986-0.173-2.088,0.059-3.016c0.638,0.231,1.855-0.29,1.913,0.696l0.174-1.159
	c-0.58,0.347-1.508,0.173-2.204,0.114l0.059-2.667h1.392c0.522-0.057,0.58,0.523,0.696,0.813l0.232-1.045l-3.943-0.115
	c0.116,0.231,0.521,0.173,0.696,0.347c0.115,2.03,0.174,4.233-0.059,6.204L32.237,127.788"/>
<path fill="#57068C" d="M85.034,127.847h-0.209C84.91,127.865,84.976,127.86,85.034,127.847"/>
<path fill="#57068C" d="M87.028,127.847H86.63C86.752,127.875,86.883,127.875,87.028,127.847"/>
<path fill="#57068C" d="M88.593,121.063c-1.797,0.058-3.77,0.116-5.509-0.115c-0.058,0.405-0.348,0.811-0.115,1.159
	c0.29-1.159,1.681-0.522,2.492-0.58l-0.058,5.565c-0.097,0.242-0.077,0.683-0.37,0.755h1.595c-0.122-0.029-0.238-0.088-0.354-0.175
	c-0.29-1.972-0.058-4.405,0-6.203h1.101c0.58,0,1.276,0.115,1.276,0.754l0.058-0.059C88.651,121.758,88.825,121.12,88.593,121.063"
	/>
<path fill="#57068C" d="M116.424,121.294c0.638-0.057,0.928,0.639,1.102,1.044c0.927-2.029-2.088-1.391-2.783-0.754
	c-1.508,2.553,2.436,2.957,2.319,5.276c-0.348,0.754-1.16,1.16-1.914,0.87c-0.579-0.232-0.812-0.87-0.869-1.334v1.392
	c0.522,0.29,1.275,0.349,1.913,0.232c0.58-0.174,1.044-0.522,1.334-1.044c0.927-2.377-2.32-2.84-2.494-4.813
	C115.032,121.469,115.844,121.294,116.424,121.294"/>
<path fill="#57068C" d="M64.346,127.839c0.073,0.011,0.153,0.015,0.244,0.007L64.346,127.839"/>
<path fill="#57068C" d="M62.657,127.793l-0.213-0.006C62.521,127.817,62.592,127.815,62.657,127.793"/>
<path fill="#57068C" d="M73.287,126.745h-0.174v0.29c-0.29,0.695-1.16,0.637-1.854,0.637c-0.986-0.637-0.406-2.203-0.465-3.246
	h1.275c0.522-0.116,0.58,0.638,0.696,0.638l0.174-1.16c-0.638,0.348-1.565,0.174-2.261,0.116c0.058-0.869-0.116-1.855,0.174-2.609
	c0.521,0,1.159-0.058,1.681,0.058c0.232,0.175,0.29,0.406,0.232,0.696c0.348-0.057,0.174-0.87,0.231-1.102l-3.5,0.107
	c0.167,0.022,0.312,0.105,0.428,0.298v5.567c-0.05,0.293-0.102,0.749-0.431,0.814c0.818,0.008,1.721,0.056,2.575,0.056
	C72.997,128.252,73.345,127.498,73.287,126.745"/>
<path fill="#57068C" d="M69.494,127.849c-0.067-0.001-0.14-0.003-0.208-0.003C69.367,127.863,69.434,127.86,69.494,127.849"/>
<path fill="#57068C" d="M69.228,121.179l0.269-0.01C69.413,121.159,69.325,121.159,69.228,121.179"/>
<path fill="#57068C" d="M81.81,126.745h-0.059c-0.115,0.058-0.058,0.231-0.058,0.347c-0.29,0.813-1.218,0.465-1.854,0.58
	c-0.986-0.869-0.29-2.145-0.349-3.246h1.392c0.231,0.174,0.464,0.405,0.464,0.695c0-0.405,0.231-0.87,0.058-1.218
	c-0.58,0.406-1.391,0.233-2.029,0.116l0.116-2.609h0.232c0.694,0.232,1.797-0.29,1.854,0.754l0.059-1.102l-3.77,0.058l0.696,0.348
	l0.058,4.523c-0.174,0.521,0.232,1.739-0.638,1.855h3.711L81.81,126.745"/>
<path fill="#57068C" d="M124.541,122.223v-1.103c-1.797,0.059-3.769,0.174-5.508-0.058c-0.29,0.29-0.29,0.755-0.231,1.102
	c0.115-0.116,0.29-0.347,0.405-0.58c0.522-0.174,1.508-0.174,2.146,0l-0.059,5.219c-0.1,0.352,0.058,0.96-0.347,1.044h1.507
	c-0.16-0.043-0.29-0.146-0.348-0.349c-0.058-1.971-0.174-4.116,0.058-6.029C123.149,121.527,124.193,121.237,124.541,122.223"/>
<path fill="#57068C" d="M122.976,127.847h-0.522C122.614,127.89,122.801,127.875,122.976,127.847"/>
<path fill="#57068C" d="M120.947,127.847h-0.232C120.809,127.862,120.883,127.859,120.947,127.847"/>
<path fill="#57068C" d="M95.203,127.847h-0.299C94.996,127.861,95.094,127.868,95.203,127.847"/>
<path fill="#57068C" d="M97.29,122.279c-0.695-1.739-2.957-0.986-4.405-1.16l0.637,0.348v5.973
	c-0.034,0.141-0.113,0.322-0.246,0.406h1.629c-0.155-0.025-0.288-0.08-0.396-0.116c-0.232-1.972-0.175-4.29-0.059-6.32h1.103
	c0.694,0.348,1.274,1.16,1.043,2.146c-0.29,0.694-1.102,1.274-1.798,1.217c0.696,0.174,1.218-0.174,1.798-0.464
	C97.232,123.787,97.348,123.091,97.29,122.279"/>
<path fill="#57068C" d="M93.275,127.847h-0.333C93.079,127.914,93.188,127.901,93.275,127.847"/>
<path fill="#57068C" d="M138.978,127.904c1.334-0.059,2.203,0.23,3.711,0l0.058-1.16l-0.058,0.406
	c-0.348,0.811-1.393,0.521-2.088,0.521c-0.463-0.927-0.289-2.261-0.116-3.246c0.58,0,1.102,0.059,1.566,0.232
	c0.231,0.115,0.174,0.463,0.348,0.463c-0.058-0.405,0.174-0.695,0.116-1.159c-0.639,0.349-1.508,0.174-2.146,0.116v-1.971
	c-0.058-0.29-0.058-0.813,0.405-0.639c0.638,0.059,1.798-0.231,1.74,0.754c0-0.348,0.174-0.754,0.116-1.102
	c-1.219,0.116-2.552,0.058-3.827,0.058l0.638,0.232c0.232,1.913,0.116,4.058,0.058,6.03
	C139.558,127.846,138.919,127.846,138.978,127.904"/>
<path fill="#57068C" d="M55.487,138.515c-0.348-0.116-0.87-0.059-0.986-0.522l-0.694-6.262l-0.233-0.174
	c-0.869,1.914-1.797,3.886-2.84,5.682c-1.044-1.855-1.798-3.884-2.899-5.682l-0.928,6.726l-0.58,0.232
	c0.639-0.059,1.276,0.174,1.914,0l-0.638-0.232c0.058-1.449,0.173-3.189,0.406-4.696c1.101,1.566,1.448,3.536,2.667,4.929
	c0.984-1.623,1.564-3.652,2.551-5.044c0.231,1.622,0.464,3.362,0.347,5.044C54.327,138.631,55.081,138.631,55.487,138.515"/>
<path fill="#57068C" d="M69.75,131.557c-1.218,0.058-2.377,0.638-2.957,1.797c-0.521,1.044-0.464,2.436-0.058,3.479
	c1.102,1.856,3.073,2.087,5.16,1.798c0.812-0.058,0.696-1.102,0.696-1.682l-0.406,0.928c-0.696,0.639-1.855,0.522-2.667,0.349
	c-1.044-0.465-2.146-1.45-2.319-2.667c-0.058-1.219,0.059-2.436,0.986-3.189c0.811-0.521,1.971-0.695,3.015-0.406
	c0.695,0.175,1.333,0.813,1.333,1.623c0.116-0.579-0.058-1.217,0.116-1.738C71.663,131.614,70.678,131.614,69.75,131.557"/>
<path fill="#57068C" d="M76.476,132.426c0.696-0.521,1.564-0.579,2.493-0.521c0.928,0.116,1.798,0.696,1.798,1.682
	c0.173-0.58,0-1.218,0.173-1.739c-1.855-0.232-3.42-0.58-5.044,0.521c-0.813,0.754-1.159,1.739-1.217,2.841
	c0.115,1.044,0.463,2.029,1.217,2.726c1.102,0.812,2.667,0.812,3.943,0.754c1.158,0.29,0.869-1.16,1.043-1.74
	c-0.115,0.464-0.348,0.813-0.638,1.16c-0.58,0.464-1.565,0.232-2.319,0.174c-1.043-0.348-2.319-1.45-2.377-2.783
	C75.374,134.397,75.548,133.181,76.476,132.426"/>
<path fill="#57068C" d="M88.535,138.63c0.522-0.29,0.639-0.985,0.696-1.565c-0.348-0.116-0.232,0.231-0.29,0.406
	c-0.174,0.754-0.986,0.869-1.682,0.869c-1.333,0.116-2.319-0.58-3.073-1.508c-0.405-0.928-0.695-2.203-0.289-3.247
	c0.289-0.695,0.869-1.391,1.623-1.564c1.044-0.232,2.377-0.232,3.188,0.58c0.232,0.289,0.116,0.812,0.349,0.984l0.058-1.738
	c-1.392-0.349-2.667-0.349-4.059,0c-0.985,0.348-1.797,1.391-2.029,2.318c-0.116,0.87-0.174,2.029,0.348,2.783
	C84.36,138.861,86.854,138.804,88.535,138.63"/>
<path fill="#57068C" d="M95.261,138.63h1.797c-1.449-0.58-1.913-2.436-2.783-3.769l1.914-2.899l0.579-0.231
	c-0.579,0.058-1.159-0.116-1.797,0c0.174,0.174,0.464,0,0.521,0.29c-0.464,0.927-0.812,1.738-1.565,2.377
	c-0.521-0.813-0.928-1.624-1.218-2.493l0.406-0.174l-2.146-0.059c1.218,0.465,1.739,2.262,2.494,3.363
	c-0.87,1.276-1.334,2.899-2.783,3.595c0.637,0,1.333,0.058,1.854-0.059c-0.174,0.059-0.231-0.115-0.348-0.115
	c0.174-1.044,1.044-2.03,1.565-2.958C94.333,136.542,95.203,137.412,95.261,138.63"/>
<path fill="#57068C" d="M102.683,138.63h1.739c-1.275-0.58-1.913-2.493-2.783-3.826c0.87-0.986,1.275-2.552,2.608-3.073
	c-0.637,0-1.217,0-1.797,0l0.464,0.231c-0.348,0.928-0.928,1.623-1.449,2.493c-0.579-0.87-1.159-1.508-1.333-2.551l0.405-0.174
	l-2.203-0.059c1.275,0.522,1.798,2.262,2.552,3.421c-0.929,1.102-1.393,3.016-2.842,3.537c0.521,0,1.333,0,1.855,0v-0.059
	c-0.116,0.059-0.232-0.115-0.348-0.115c0.348-1.044,0.928-2.088,1.624-2.899C101.697,136.602,102.625,137.702,102.683,138.63"/>
<path fill="#57068C" d="M107.821,131.728c0.064,0.002,0.135-0.002,0.195,0.003C107.944,131.713,107.88,131.716,107.821,131.728"/>
<path fill="#57068C" d="M110.104,138.63h1.797c-1.507-0.638-1.913-2.552-2.783-3.826c0.87-0.929,1.218-2.609,2.551-3.073
	c-0.578,0.058-1.217-0.116-1.854,0l0.464,0.231c-0.232,0.928-0.928,1.855-1.508,2.436l-1.102-1.972
	c-0.294-0.195-0.171-0.636,0.152-0.699c-0.668-0.02-1.484,0.104-2.064-0.055v0.175h0.347c1.102,0.811,1.565,2.202,2.262,3.246
	c-1.044,1.219-1.392,2.957-2.898,3.537c0.404,0.058,1.333,0,1.912,0l-0.405-0.348c0.405-0.928,0.985-1.971,1.624-2.726
	C109.234,136.542,109.93,137.528,110.104,138.63"/>
<path fill="#57068C" d="M113.815,138.63c0.521-0.059,1.739,0.174,2.319-0.059c-0.349,0-0.639,0-0.813-0.289
	c-0.115-1.971-0.115-4.175,0-6.03c-0.115-0.405,0.348-0.405,0.58-0.521l-1.971-0.059v0.175h0.231
	c0.639,0.868,0.232,2.377,0.349,3.305C114.163,136.078,115.033,138.108,113.815,138.63"/>
<path fill="#57068C" d="M61.458,27.251c-1.739,0.579-3.247-0.812-4.813-1.45c0.231-0.811,0.464-1.854,0.058-2.667
	c-1.391-2.145-3.768-0.058-5.275,0.639l0.638-0.116c0.87,0.986,1.333,2.377,2.029,3.537c0.231,1.101,1.508,2.261,0.754,3.363
	c0.695-0.465,1.564-0.754,2.145-1.219c-1.507,0.639-1.449-1.564-2.145-2.377c0.29-0.348,0.754-0.464,1.159-0.58
	C57.69,26.961,59.661,29.048,61.458,27.251 M54.617,26.439l-1.449-3.073c0.231-0.29,0.638-0.522,1.043-0.638
	c0.87-0.173,1.509,0.464,1.855,1.102c0.232,0.638,0.58,1.623-0.058,2.087C55.544,26.091,55.139,26.439,54.617,26.439z"/>
<path fill="#57068C" d="M51.661,28.469c-0.695-1.565-2.146-2.552-3.942-2.378c-1.508,0.175-2.957,1.276-3.537,2.726
	c-0.232,1.102-0.232,2.493,0.405,3.479c0.639,0.87,1.624,1.566,2.667,1.797c1.74,0.232,3.132-0.694,4.176-1.912
	C52.067,31.02,52.124,29.687,51.661,28.469 M50.849,32.295c-0.522,0.754-1.449,0.986-2.319,1.16
	c-1.276-0.058-2.319-0.754-3.073-1.74c-0.521-0.928-1.044-2.028-0.638-3.188c0.348-1.043,1.45-1.507,2.377-1.797
	c1.739-0.232,3.073,1.159,3.77,2.551C51.313,30.208,51.429,31.425,50.849,32.295z"/>
<path fill="#57068C" d="M76.591,7.77c0.521-1.333,0.928-2.726,1.565-4h0.174c0.232,0.869,0.58,1.971,1.623,2.261
	C81.578,3.77,83.143,0.059,86.448,0c-0.58,0.929-0.812,2.319-0.348,3.421c2.145,3.132,6.609,4.464,7.132,8.466
	c0.463,2.492,0.058,5.102-1.798,6.667c-1.972,0.464-4.754,0.522-5.16,3.016c-0.348,0.927,0.521,1.391,0.87,2.087
	c1.623,3.305,2.667,7.305,1.797,11.306c-0.464,1.16-0.406,2.726-0.29,3.885c-0.232,3.247,0.058,6.609,0.29,9.856
	c-0.522,1.972,0.29,3.77,0.116,5.74c0.754,0.812,0.464,1.972,1.102,2.783c1.623,2.377,2.261,5.16,3.652,7.596
	c0.174,2.841,0.116,6.029-1.275,8.465c-0.116,0.116-0.231,0.116-0.348,0.232c0.058-1.566-0.058-3.131,0.058-4.64
	c-0.115-0.115-0.29-0.464-0.464-0.231c-0.406,0.406,0.059,1.392-0.812,1.45l-0.579-0.116c0.116-1.276,1.507-2.667,0.404-3.827
	c-0.694,0.812-1.217,2.551-2.725,2.261c-0.347-0.753,0.232-1.623,0.464-2.435c0.58-1.333,1.218-2.667,1.74-4.059
	c-0.116-0.231-0.116-0.464-0.348-0.638c-1.334,1.333-1.044,3.769-2.899,4.813l-0.754,0.231l-0.058-1.218
	c1.334-1.507,1.912-3.479,2.202-5.508c-0.348-2.957-1.101-6.087-0.405-9.104c0.058-3.13,0.174-6.318-1.449-8.638
	c0.348-1.392,2.261-2.61,1.044-4.233c-0.754-0.405-0.29-1.334-0.406-2.028c1.392-0.986,0.695-2.899,1.102-4.291l-0.059-2.146
	c-0.579-2.203-1.217-4.465-2.783-6.146c-0.29-0.059-0.464,0.29-0.521,0.464c-0.231,0.986,0.521,1.681,0.464,2.667
	c-0.406,3.247-1.564,7.188,1.044,9.798c0,0.58-0.58,0.638-0.986,0.465c-0.231-0.754-0.694,0.115-1.101,0
	c-0.638,0.059-1.334-0.58-1.855,0c-1.044,5.333-0.349,11.479-2.203,16.524c-0.522,2.145-1.044,4.29-0.929,6.667
	c-0.174,0.116-0.463,0.058-0.694,0.058c-0.87-1.101,0-2.551,0.231-3.768c2.377-5.856,2.609-12.931,2.493-19.599
	c-0.812-1.448-2.204-2.667-1.798-4.638c-1.391-0.522-0.695-2.261-1.681-3.015c-0.406-1.044,1.044-1.913,0.348-2.842
	c-0.116-0.812,0.116-1.738,0.927-1.797c-0.173-0.754,0.116-1.855,1.103-1.798c0.174,0.116,0.521-0.058,0.695,0.116l0.232-0.232
	c-0.174-1.101-0.58-2.202-1.624-2.841c-2.029-0.231-4.348-0.811-5.16-3.071C73.229,12.814,74.33,10.263,76.591,7.77 M84.825,2.029
	c-1.855,0.87-2.609,2.783-3.363,4.407c-0.464,1.797-2.551,1.159-3.595,2.028c-1.275,2.029-2.841,4.35-2.029,6.9
	c0.521,0.464,0.985,1.275,1.682,1.391c0.29-0.695-0.87-1.448-0.349-2.318c0.116,0.058,0.232-0.059,0.29,0.116
	c-0.174,1.334,1.509,1.275,1.913,2.087c0-0.753-0.347-1.333-0.347-2.029c0.173-0.174,0.289-0.696,0.579-0.406
	c0.058,0.813,1.16,1.103,1.392,1.797c1.275-1.681-0.405-3.304-0.58-4.928c-0.058-1.218,0.87-2.087,1.623-2.899
	c0.116,0,0.232,0.059,0.349,0.175c-0.753,1.334,0.405,2.551,0.405,3.885c0.929-0.58,0.696-1.624,1.334-2.319
	c0.116-0.695,0.29-1.508,0.406-2.204c0.463,0.754,0.812,1.566,1.102,2.378c0.058,1.623-0.58,4,1.159,5.044
	c0.522,0.521,1.159-0.058,1.739-0.174c1.218-0.985,2.088-2.318,1.74-4.001c-0.406-3.247-4.233-2.841-5.798-5.218
	C84.187,4.406,84.418,3.189,84.825,2.029z M91.375,11.538l-0.174,0.116c0.349,1.913-0.869,3.363-2.203,4.406l0.58,0.754
	c0.58,0.231,1.103-0.29,1.565-0.696C91.84,14.728,92.072,12.988,91.375,11.538z M81.404,16.988c-0.348,0.058-0.87,0.232-0.812,0.754
	c0.231,0.058,0.29,0.406,0.638,0.348c1.739-0.231,3.768-0.231,5.565,0c0.175-0.174,0.522-0.231,0.465-0.58
	C85.636,16.582,83.375,16.931,81.404,16.988z M83.549,18.844c-0.349,0.058-0.755,0.232-0.929,0.638
	c0.349,1.334-0.405,3.363,1.45,3.885c0.174,0.116-0.058,0.638,0.348,0.464c0.232-0.464-0.231-0.985,0.465-1.16v-3.131
	C84.708,19.018,84.187,18.729,83.549,18.844z M81.114,22.96c-0.348,0-0.638,0.175-0.87,0.406c-0.406,1.45,1.393,0.754,1.855,1.739
	c0.406,0.29,1.275,0.521,1.392-0.059C83.143,24.004,82.215,23.076,81.114,22.96z M79.374,24.757
	c-0.404,0.117-0.347,0.58-0.347,0.929c0.637,1.392,2.319,1.508,3.594,1.971c0.464-0.231,0.174-0.811,0.232-1.217
	C81.694,25.917,80.708,24.932,79.374,24.757z M79.027,27.54c-0.348,0-0.406,0.406-0.406,0.696c0.812,1.218,2.319,1.624,3.769,1.798
	c0.464-0.174,0.58-0.696,0.231-1.044C81.288,28.816,80.302,27.889,79.027,27.54z M79.548,29.744l-0.059,0.348
	c0.174,0.522,0.754,0.812,1.16,1.043c0.521,0.232,1.391,0.29,1.681-0.348l-0.231-0.173C81.056,30.787,80.534,29.628,79.548,29.744z
	 M83.665,31.6c-0.29,1.16-0.405,2.551,0.059,3.711c0.116,0.231,0.464,0.464,0.638,0.058C84.187,34.092,84.998,32.18,83.665,31.6z
	 M80.534,32.063l-0.231,0.231c-0.232,0.58,0.115,1.102,0.348,1.623c0.348,0.639,1.044,1.276,1.739,1.276l0.116-1.392
	C83.143,32.063,81.346,32.527,80.534,32.063z"/>
<path fill="#57068C" d="M134.977,36.875l0.348,0.753c-1.564,1.509-3.305,3.247-5.16,4.581l-0.695-0.115l1.681,1.738
	c-0.985-1.333,1.218-2.028,1.798-2.783c1.739,1.16-0.058,3.073,0.232,4.755c0.174,0.695,0.811,1.334,1.391,1.682
	c-1.333-1.392-0.116-3.421,0-5.044c1.103-0.059,2.261-0.116,2.841-1.044C138.34,39.368,136.021,38.15,134.977,36.875
	 M135.267,41.978c-0.87,0.348-1.449-0.464-1.797-1.044l-0.059-0.174l2.493-2.378c0.522,0.349,0.985,0.986,0.985,1.682
	C136.832,40.934,136.021,41.688,135.267,41.978z"/>
<path fill="#57068C" d="M45.456,122.106c0.059-0.754,0.813-0.928,1.449-0.928c0.522,0.059,1.103,0.464,1.044,1.044
	c0.116-0.349,0.059-0.813,0.059-1.16c-0.87-0.232-2.088-0.349-2.783,0.406c-1.45,2.261,1.854,3.015,2.318,4.812
	c0.059,0.58-0.29,1.045-0.753,1.276c-0.58,0.29-1.392,0.174-1.855-0.465c-0.059-0.231-0.059-0.695-0.232-0.754l-0.116,1.393
	c-1.681-0.115-2.377-1.913-3.305-3.073c0.696-0.638,1.276-1.508,1.044-2.493c-0.812-1.855-3.015-0.87-4.58-1.102
	c0.29,0.058,0.638,0.116,0.812,0.406l-0.059,5.682c-0.049,0.248-0.184,0.576-0.474,0.633c0.707-0.019,1.456,0.167,2.156,0.005
	l-0.813-0.231c-0.174-0.812-0.174-1.855,0-2.667c1.972-0.349,2.087,2.028,3.479,2.841c1.738,0,3.247,0.638,4.754-0.29
	C49.572,125.063,45.862,124.137,45.456,122.106 M39.484,124.541c-0.232-0.928-0.232-2.435,0-3.247c0.58,0,1.218,0,1.566,0.464
	c0.521,0.58,0.521,1.565,0.289,2.262C41.05,124.773,40.122,124.6,39.484,124.541z"/>
<path fill="#57068C" d="M65.749,124.773c0.58-0.696,1.219-1.334,1.044-2.319c-0.58-2.03-3.015-1.102-4.521-1.334l0.637,0.174
	c0.232,1.973,0.174,4.175,0.059,6.088c0,0.13-0.126,0.351-0.31,0.412l1.689,0.046c-1.014-0.149-0.511-1.97-0.511-2.835
	c2.029-0.464,1.972,1.855,3.363,2.726c0.638,0.231,1.623,0.116,1.913,0.058C67.489,127.73,66.677,125.934,65.749,124.773
	 M63.952,124.6c-0.231-0.929-0.058-2.146,0-3.189c0.754-0.116,1.507,0,1.855,0.754c0.174,0.639,0.348,1.623-0.116,2.146
	C65.286,124.773,64.532,124.657,63.952,124.6z"/>
<path fill="#57068C" d="M137.355,127.382c-0.638-1.044-3.247-2.377-1.276-3.535c0.29-0.696,0.522-1.683-0.174-2.263
	c-1.101-0.754-2.783-0.29-4.116-0.405c0.174,0.115,0.579,0,0.695,0.349c0.29,2.029,0,3.768,0,5.913c0,0.406-0.579,0.406-0.579,0.464
	c0.637-0.058,1.507,0.232,2.261,0c-0.29-0.116-0.695,0.058-0.869-0.348v-2.493c1.971-0.696,2.145,2.087,3.479,2.725
	c0.754,0.116,1.449,0.349,1.913,0.059C138.108,128.021,137.761,127.615,137.355,127.382 M133.412,124.6l0.059-3.132
	c0.812-0.174,1.623,0.175,1.913,0.813c0.231,0.638,0.231,1.507-0.116,2.087C134.862,124.947,133.934,124.716,133.412,124.6z"/>
<path fill="#57068C" d="M112.365,127.092c-0.348,0.928-1.275,0.579-2.029,0.579c-0.464-0.811-0.231-1.971-0.174-2.898h1.159
	c0.348,0.058,0.638,0.406,0.696,0.638l0.174-1.16c-0.464,0.465-1.45,0.232-2.087,0.175v-2.436c-0.058-0.232-0.058-0.753,0.406-0.58
	c0.579,0.174,1.738-0.173,1.681,0.813l0.116-1.043l-2.899-0.059l-4.291,6.319l-0.405,0.231c-0.985-0.811-1.739-1.797-2.493-2.898
	c0.695-0.638,1.275-1.392,1.102-2.436c-0.638-1.854-3.015-1.044-4.521-1.217c0.058,0.059,0.521,0.059,0.694,0.406v5.565
	c-0.058,0.289-0.116,0.813-0.521,0.754l2.145,0.059l-0.754-0.233c-0.231-1.101-0.231-1.681,0-2.666
	c0.406,0.058,0.87-0.116,1.218,0.115c0.812,0.928,1.275,2.087,2.377,2.726l2.726,0.059l-0.696-0.233
	c-0.058-0.231,0-0.405,0.058-0.579c0.87-1.102,1.219-3.131,3.247-2.203c-0.174,0.985,0.522,2.608-0.58,2.957l3.479,0.174
	c0.406-0.232,0.29-0.928,0.348-1.275C112.365,126.86,112.365,126.977,112.365,127.092 M100.363,124.599v-3.132
	c0.696-0.23,1.566,0.06,1.913,0.696c0.348,0.523,0.232,1.393,0.058,1.914C101.987,124.889,101.059,124.772,100.363,124.599z
	 M109.234,124.425h-1.449l1.449-2.262V124.425z"/>
<path fill="#57068C" d="M60.705,127.208c-0.87-2.087-1.624-4.29-2.608-6.261l-1.798,4.812c-0.464,0.754-0.521,2.029-1.508,2.088
	c0.639,0,1.449,0.059,1.972-0.059h-0.349c-0.348-0.87,0.406-1.739,0.58-2.551c0.696,0,1.449-0.058,2.087,0.058
	c0.349,0.813,0.87,1.74,0.754,2.552c0.639,0,1.334,0.059,1.798-0.059C61.226,127.847,60.878,127.615,60.705,127.208 M57.226,124.773
	l0.812-2.319c0.232,0.754,0.638,1.507,0.753,2.319H57.226z"/>
<path fill="#57068C" d="M131.15,127.905l-0.753-0.233l-2.783-6.609l-2.667,6.609l-0.754,0.233c0.58,0,1.449,0.057,2.029-0.059
	c-0.116,0-0.349,0.059-0.406-0.059c-0.29-0.87,0.464-1.681,0.696-2.493c0.695,0,1.392-0.058,2.087,0.059l0.812,2.435l-0.116,0.117
	H131.15 M126.627,124.947l0.87-2.435l0.812,2.435H126.627z"/>
<path fill="#57068C" d="M63.894,133.296c-1.334-2.261-4.117-1.564-6.437-1.681l-0.058,0.116c0.29,0,0.521,0.058,0.696,0.29
	c-0.059,2.087,0.115,4.291-0.116,6.261l-0.522,0.29c2.146-0.058,5.393,0.696,6.494-1.855
	C64.358,135.615,64.416,134.282,63.894,133.296 M63.372,135.442c0.059,1.101-0.521,2.203-1.507,2.667
	c-0.812,0.231-1.855,0.463-2.668,0.057l-0.23-0.404v-5.566c0.984-0.522,2.261-0.058,3.188,0.405
	C62.85,133.354,63.604,134.225,63.372,135.442z"/>
<path fill="#57068C" d="M145.356,112.598l-3.77-0.116c0.755-1.74-1.158-2.204-1.912-3.189c-0.406-0.521,0.058-1.101,0.115-1.565
	c-0.638-0.579,0.175-1.275-0.754-1.797V81.867c1.218,0.29,0.464-1.159,0.696-1.739c0.232-1.16-1.16-0.348-1.681-0.695
	c-0.059-0.58,0.115-1.333-0.116-1.798c-1.856,0.522,0.231-2.551-1.856-1.913v-1.739l-0.927-0.116
	c-0.29-0.928,0.579-2.493-0.812-2.841c-1.16-0.116-2.378-0.232-3.016,0.87v1.971c-1.044,0-0.406,1.276-0.58,1.855
	c-1.507-0.521-0.754,1.275-1.043,1.913h-0.812c-0.464,0.522-0.116,1.333-0.29,1.913c-0.349,0.059-0.813-0.058-1.044,0.175
	c0,0.638-0.059,1.392,0.058,2.028c0.232,0,0.464-0.058,0.638,0.174v23.83l-0.985,0.929v2.318l-2.146,1.855v1.508h-16.756
	l-1.624-1.275c-2.841-4.001,0.406-8.64,1.508-12.582c0.175-1.102,1.449-1.798,1.218-3.015c-0.464-3.247-1.565-6.262-3.421-8.987
	c1.044-0.869,2.029-2.088,3.247-2.782c1.913-2.783,4.639-4.176,6.436-7.017c2.551,1.276,5.508,0.58,8.349,0.349l0.464-0.639
	c2.377-1.738,4.233-4.638,6.146-7.073c0.406-0.638,0.986-1.218,1.682-1.739c0.231-0.29,0-1.043,0.463-1.275l-0.289-0.116
	l0.405-1.159c-0.579,0.058,0-0.696-0.174-1.045l-0.174,0.116c-0.405-1.101-1.159-2.145-1.913-2.898
	c-0.406,0.115-0.638-0.463-1.043-0.521c0,0.116,0,0.173-0.059,0.231c-1.159-0.521-0.464,1.044-0.695,1.334
	c0.115,0.58-0.059,1.218,0.695,1.45l-0.174,0.114c0.695,0.58,0.753,1.16,0.928,1.798c-0.116,0.465-0.58,0.58-0.928,0.349
	c-0.754,0.058-1.16,0.406-1.45,1.043c-0.29,0.116-0.405-0.232-0.579-0.347c-0.928,0.23,0.231-0.986-0.812-0.929l-0.58-3.073
	c-0.348-0.289-0.754-1.334-1.102-0.579c-0.29,0.348-0.059,0.812,0,1.102c-0.639-0.116-0.349,0.985-0.87,0.869
	c0.406,0.928,0,1.682,0.58,2.494c-0.116,0.058-0.174,0.289-0.349,0.23c0.465,0.87,0.813,1.16,1.624,1.566
	c-0.115,0.116-0.231,0.29-0.348,0.29c0.464,0.29,1.102,0.231,1.507,0.58l-0.116,0.174c0.232,0.23,0.696-0.116,0.754,0.289
	c-1.507,1.334-3.305,1.855-4.695,3.247c-2.261,0.695-4.581-0.232-6.61-0.812c-0.464-0.231-1.159,0.463-1.333-0.29
	c0-1.392,1.797-0.115,2.377-1.102c0.349-0.58,0.58-1.449,0.406-2.146c-0.116-0.29,0.116-0.695,0.463-0.754
	c-0.347-1.102-1.391-2.028-1.101-3.479c-0.639-1.507-2.436-1.623-3.943-1.623c-1.681,0.29-3.305,1.333-3.653,3.073
	c-0.289,1.681,1.044,2.725,0.754,4.29c-0.231,0.521-0.812,0.521-1.391,0.521c-3.363-1.971-5.334,2.087-7.886,3.247
	c-0.695,0.928-2.493,1.739-1.682,3.247c0.465,1.565,2.262,1.102,3.537,1.333c-0.812,1.682-2.318,2.957-3.769,4.233
	c-1.507,1.275-0.29,3.826-2.436,4.695c-1.738,0.349-2.957,2.204-4.465,3.073c-1.333-2.377-3.941-3.073-6.318-3.71
	c-1.566-0.696-2.494-2.841-4.35-3.015c-1.101,0.811-1.101,2.145-1.854,3.072c-0.87,0.463-1.508,1.393-2.088,2.146
	c-0.289,0.754-0.579,1.797-0.231,2.551c-0.116,0.116-0.29,0.29-0.464,0.116c-1.218-1.797-2.493-3.71-4.175-5.218
	c0.812-0.639,1.45-1.566,1.682-2.493c2.029-0.986,1.913-3.247,3.536-4.465c1.682-0.522,2.783,0.985,4.175,1.392
	c1.623,0.753,3.943,0.811,5.393-0.348c-0.059-1.276-0.696-2.319-1.045-3.479c-0.984-1.275-2.608-1.971-3.072-3.537
	c-0.521-1.274-1.972-1.448-2.726-2.318c0.813-0.406,2.088,0.29,2.61-0.754c-0.348-0.696,0.579-0.812,0.231-1.508
	c0-0.29,0.29-0.464,0.579-0.348c0.349-0.696,0-1.392-0.348-1.971c0.754-0.986-0.29-1.683,0.059-2.841
	c-0.638-0.986-1.623-1.219-2.726-1.683c-1.913-0.638-3.131,0.638-4.406,1.683c-0.695,1.333-0.29,3.245,0.175,4.579
	c-0.175,1.044-1.16,1.682-2.089,1.855c-2.087-0.579-4.521-0.579-5.971,1.392c-1.508,1.797-4.407,2.957-4.059,5.566
	c0.464,1.159,1.738,1.044,2.725,1.217c0.58,4.06-5.45,5.045-4.233,9.104c-0.174,0.405-0.578,0.465-0.927,0.695
	c-0.58-0.638-0.754-1.623-0.812-2.551c0.058-4.175-1.913-8.407-0.464-12.408c1.102-0.811,2.202-1.913,3.015-3.072
	c1.334-0.059,2.203-1.102,3.363-1.508c0.812-0.695,0-1.912,1.044-2.377c-0.174-1.159-1.566-0.405-2.378-0.638
	c-1.275,0.174-2.146,1.103-2.899,2.087l-0.405-0.29c-0.174-0.464-0.058-1.043,0.232-1.449c-0.174-0.521,0.173-1.218-0.522-1.508
	c0.175-1.274-0.928-2.028-1.102-3.131c-0.638-0.695-1.681-0.695-2.435-0.579c-1.392,0.405-2.899,0.521-3.827,1.739
	c-1.333,1.739-0.059,3.711,0.695,5.276c-0.638,0.928-1.275,1.682-2.261,2.087c-0.754,0.174-1.275-0.175-1.854-0.464
	c-0.813-0.695-2.784,0.059-2.61-1.449l1.856-0.406c0.812-0.406,0.348-1.623,0.694-2.377c0.986-0.58-0.463-1.103-0.579-1.797
	c0.175-0.696-0.174-1.393-0.695-1.856c-0.059-0.521-0.755-0.927-1.276-1.217c-1.681-0.696-3.594-0.058-4.986,0.812
	c-1.043,0.754-0.58,2.146-0.695,3.305c0.115,0.87,1.102,1.45,0.985,2.435c0,0.87-0.464,1.566-1.218,2.088
	c-1.681,0.116-4,0.29-4.638,2.262c0,2.492-2.609,3.885-2.436,6.319c0.29,1.797,2.436,0.639,3.247,1.565
	c0.059,0.464,0,0.928-0.231,1.334c-1.913,2.145-3.421,4.521-2.899,7.711l-1.798,2.609c-0.463,0.521-0.115,1.565-0.812,1.739
	c-0.985-0.464-1.913-1.218-3.015-1.449c-0.986,0.406-1.508,1.565-1.45,2.667c-0.579,0.928-1.391,1.798-2.551,1.739
	c-1.565,1.333-3.826,1.508-5.798,1.449c-1.044,0.29-1.507,1.276-1.391,2.378c0.347,2.203-1.74,3.479-1.276,5.623
	c0.464,0.813,1.276,0.986,1.971,1.276c0.29-0.059,0.638-0.174,0.754-0.521c-0.058-2.146,0.928-4.117,2.841-5.276
	c3.943-0.406,8.059-0.29,11.712-1.16l2.145-2.087l2.725,0.695l-0.694,1.275c0.058,1.392-0.232,2.899,0.58,3.944
	c1.274,0.057,1.449-1.394,1.913-2.32c0.29-0.813,1.158-1.798,2.028-1.739c0.464,0.115,0.639,0.637,0.754,1.043
	c-0.58,3.247,0.985,6.958-0.521,9.974c-0.29,0.637-0.116,1.681,0.348,2.087H24.41c-1.16-0.059-2.145,0.231-3.015,0.928
	c-0.464,1.564-1.45,2.898-1.276,4.638c0.464,0.639,1.102,1.334,1.972,1.392l123.208,0.058l2.551-2.609
	C148.139,114.742,146.11,113.931,145.356,112.598 M130.455,62.038c0.349,0.29,0.406,0.754,0.406,1.16
	C130.687,63.024,130.281,62.502,130.455,62.038z M130.339,61.4v0.231l-0.638-0.579C129.933,60.994,130.165,61.227,130.339,61.4z
	 M129.817,62.792c-0.115,0.059-0.521-0.231-0.347-0.405C129.585,62.502,129.991,62.502,129.817,62.792z M129.991,64.009l0.754,0.58
	C130.281,65.054,130.049,64.184,129.991,64.009z M125.179,62.154c0,0.29,0.29,0.638,0,0.87
	C124.947,62.908,124.947,62.387,125.179,62.154z M124.483,64.821c-0.232-0.174-0.232-0.754,0-1.044
	C124.367,64.184,125.005,64.589,124.483,64.821z M125.179,66.562c-0.349-0.116-0.58-0.58-0.58-0.986c0.521,0,0.406,0.58,0.695,0.87
	L125.179,66.562z M125.237,65.401c-0.231-0.116-0.521-0.638-0.174-0.928C125.121,64.764,125.469,65.111,125.237,65.401z
	 M125.584,62.851c0.349,0.174,0.232,0.638,0.349,0.927C125.584,63.777,125.411,63.198,125.584,62.851z M125.991,65.228
	c-0.406,0.058-0.231-0.406-0.231-0.696c0.231-0.116,0.29,0.232,0.348,0.348C126.049,64.995,126.165,65.169,125.991,65.228z
	 M139.558,113.814c1.508-0.522,3.421-0.232,5.102-0.232l-0.231,0.407c-1.565,0.115-3.305,0.173-4.87-0.059V113.814z M132.774,71.722
	h0.29v0.811l0.928,0.058v0.986h-1.854C132.195,72.822,131.905,72.186,132.774,71.722z M131.151,74.679h3.652v0.812h-3.652V74.679z
	 M130.455,76.301h5.219v0.986h-5.219V76.301z M129.354,78.041h6.609v1.16h-6.609V78.041z M128.31,79.896h8.349v1.159h-8.349V79.896z
	 M134.688,88.883h0.695v16.641h-0.695V88.883z M133.992,83.897v21.626h-0.58V83.375C133.702,83.027,134.224,83.434,133.992,83.897z
	 M130.513,83.259c0.405-0.115,0.348,0.406,0.348,0.639v6.783l0.986,0.116c0.174-2.493-0.059-5.103,0.231-7.538
	c0.406-0.115,0.349,0.406,0.349,0.639v21.626h-3.132V83.317c0.059-0.059,0.175-0.232,0.29-0.059l0.059,6.726
	c0.173,0.174,0.463,0.058,0.695,0.116C130.513,87.839,130.281,85.462,130.513,83.259z M128.368,106.857h8.35
	c0.231,0.174,0.695,0.406,0.638,0.811c0.116,0.406-0.406,0.58-0.58,0.87l-8.523-0.174c-0.29-0.232-0.115-0.696-0.174-1.043
	C128.368,107.321,128.251,106.974,128.368,106.857z M128.368,109.351h8.407c0.348,1.101,1.855,1.681,1.508,3.072h-12.35
	C125.411,110.741,127.556,110.277,128.368,109.351z M108.365,113.524v-0.115h16.756l0.813,0.405l-0.059,0.116l-58.237,0.054
	c-1.73,0.037-3.495,0.005-5.192,0.005l5.192-0.005c0.515-0.011,1.027-0.027,1.532-0.054c-0.563-0.031-1.136-0.049-1.713-0.06
	c-1.632,0.034-3.279,0.001-4.896,0.001c1.624,0,3.279-0.03,4.896-0.001c0.535-0.01,1.068-0.028,1.598-0.057
	c-2.087-0.174-4.406,0.058-6.436-0.232v-0.173c3.131-0.29,6.667-0.117,10.03-0.175c0.116,0.465,0.58,0.058,0.754,0.348
	c0,0.232-0.29,0.117-0.29,0.349h3.595l0.349-0.406l7.188-0.115h20.699l0.116,0.173C106.162,113.582,107.321,113.641,108.365,113.524
	z M47.543,87.085l-1.798-2.725c0.696-1.217,1.044-2.551,1.856-3.769c0.521-1.392,0.928-2.898,1.507-4.291
	c0.232-0.058,0.232,0.175,0.29,0.29c-0.696,2.088-0.406,4.813,0,6.958C48.298,84.303,47.312,85.462,47.543,87.085z M50.153,84.303
	c1.624,0.115,2.841,1.159,4.117,1.972c0.579,0.927-0.174,1.624,0.348,2.551c0.579,0.928,1.507,0.174,2.436,0.406
	c0.753,0.638,1.854,1.217,2.318,1.971l-1.218,0.87c-1.449-0.58-3.131-0.58-4.87-0.522c0-0.521-0.406-0.058-0.58-0.348
	c-1.507-0.812-3.652-1.333-4.174-3.188C48.703,86.681,49.051,85.23,50.153,84.303z M50.385,75.143l0.58-1.16
	c0.637,0.928,3.246,0.116,2.318,1.854c-0.928,1.276,0.638,3.886-1.564,4.407c-0.176,0.464-0.696,0.754-0.754,1.217
	c1.564,0.406,3.362,1.508,3.941,3.189c0.754,0.521,1.45,0.986,1.972,1.682c-0.579,0.639,0.58,2.203-0.985,2.029
	c-1.334-0.928,0.116-3.189-1.797-3.711c-1.566-0.637-3.596-0.869-4.291-2.667C49.051,79.49,51.255,77.52,50.385,75.143z
	 M59.14,80.244c-0.464-0.58,0-1.276,0.174-1.855c0.116-0.116,0.29-0.695,0.521-0.289C59.604,78.853,60.125,80.013,59.14,80.244z
	 M59.372,75.663c-0.231,0.059-0.348,0.406-0.638,0.29c-0.29-0.231-0.348-0.521-0.754-0.231c-0.405,0.812-0.521,1.798-1.449,2.203
	c-0.812,1.102,0.812,0.521,1.159,0.928c0.29,1.218-0.405,2.262-1.043,3.131c0.231,0.58,0,1.275-0.232,1.855
	c-1.334-0.58-2.203-1.682-3.188-2.782c0.464-1.334,0.87-2.784,0.87-4.176c0.58-0.464,1.101-1.044,1.159-1.738
	c1.334-0.232,2.841-0.059,3.942-0.696C59.488,74.736,59.314,75.258,59.372,75.663z M59.314,86.796
	c-0.29,0.521-0.696,1.159-1.16,1.393c-0.174-1.566-1.623-3.422-0.406-4.871C58.501,84.36,59.952,85.347,59.314,86.796z
	 M51.139,91.725l-1.103,0.464c-0.406-0.406-0.58-1.044-0.638-1.566L51.139,91.725z M55.197,111.09
	c0.696-0.175,0.986,0.521,1.218,0.985c-2.145-0.174-4.638,0.522-6.146-1.218c-0.986-1.392-2.667-2.666-1.682-4.696
	c1.102-2.898,1.449-6.204,2.146-9.219c2.493-0.29,4.986-0.58,7.421-0.232c-1.159,1.334-2.087,2.784-2.493,4.407l-0.116,4.87
	C55.429,107.727,52.994,109.814,55.197,111.09z M55.487,110.162l-0.231-0.348c0.579-1.276,0.464-2.841,1.449-3.942
	c0.232-2.898-0.464-6.146,1.972-8.292c0.579-0.116,1.334-0.174,1.044-1.102c0.694,0.117,1.158-0.406,1.738-0.639
	c0.58,1.276-0.985,1.624-1.333,2.494c-0.174,2.146-1.275,3.942-1.855,5.856c0.058,1.449,0,3.073-1.275,4.001
	c0.174,1.449,2.029,2.029,2.203,3.536c0.348,0.174,0.348,0.464,0.464,0.754c-0.464,0.231-0.928-0.464-1.392-0.696
	C57.342,111.264,56.415,110.51,55.487,110.162z M58.792,107.901c1.276-4.001,2.726-7.944,4.406-11.771l0.058-1.391
	c1.566-0.87,3.132-1.798,4.581-3.015c1.449,1.507,3.247,2.377,4.87,3.595c-4.058,2.551-0.928,8.755-4,12.059
	c-0.695,0.523-1.044,1.219-0.812,2.03c0.638,1.623,2.319,1.739,3.479,2.609l-9.74-0.116
	C60.357,110.974,58.908,109.582,58.792,107.901z M115.207,64.531c0.348,0,0.638,0.174,0.869,0.406c0,0.754-0.116,1.508,0.349,2.028
	c0.115,0.29,0.754-0.058,0.521,0.522c-0.87,0.406-0.058,1.102-0.406,1.798c0.175,0.347,0.522,0.637,0.29,1.043
	c-0.87,0.059-1.854-0.058-2.435-0.696c-0.174-0.057-0.406,0.059-0.464-0.173c0.058-0.348,0.464-0.638,0-0.928
	c-0.406-0.174-1.16-0.232-0.87-0.928c1.275,0.29,0.406-1.159,0.754-1.682C114.105,65.401,114.626,64.821,115.207,64.531z
	 M100.19,77.229c-0.638-0.464,0-1.044,0-1.566c0.58-0.927,1.043,0,1.739,0.059h3.479c0.928-0.985,2.436-1.102,3.827-1.043
	c-0.58,0.464,0.347,1.507-0.522,1.681c-1.739-0.58-3.362,0.174-4.986,0.406C102.799,77.461,101.291,77.925,100.19,77.229z
	 M101.407,81.925c0.29-0.464,1.624,0.29,1.16-0.811c1.507-0.87,0.638-3.073,2.551-3.653c1.044-0.174,2.203-1.16,3.131-0.174
	c0.929,0.116,1.972-0.058,2.203-1.044c0.174-0.985-0.231-1.913-0.928-2.667c-0.637,0-1.681-0.406-2.029,0.406
	c-0.638-0.059-0.927-0.464-1.564-0.116c-0.87,1.45-2.783,0.406-3.943,0.638c0.058-0.638,0.87-0.231,1.16-0.638
	c1.274-0.928,2.029-3.363,3.942-2.783c0.869-0.29,2.029,0,2.782,0.58c0.232-0.348,0.754-0.174,0.813-0.638
	c0.058-1.16,1.913-1.507,1.16-3.016c-0.406-0.638-1.276,0.232-1.393-0.754c0-1.391,0.929-2.377,1.624-3.479
	c0.637-0.289,1.392-0.347,2.087-0.231c-0.29,0.869-1.624,1.159-1.739,2.087c-0.579,0.639,0.348,1.565-0.348,2.262
	c0.232,0.695,1.159,1.334,1.623,1.797c-0.231,0.348,0.232,0.928-0.116,1.334c0.059,0.231,0.175,0.406,0.116,0.696
	c-0.58,0.464-0.87,1.101-1.391,1.738c0.404,0.696,0.753-0.348,1.333,0.059c0.29,0.29,0.464,0.58,0.812,0.464
	c0.696-0.522,1.739-0.928,2.667-0.696c1.043,0.348,1.682,1.393,3.131,0.986c0.869-0.29,2.262-0.639,3.073,0
	c1.275-1.566,3.363-2.667,5.044-3.943c1.103-0.869-0.464-2.898,1.276-3.131c0.23,1.102-0.464,1.508-0.232,2.725
	c-0.985,1.393-2.725,2.32-3.131,4.001c-0.812,0.87-1.914,1.334-2.609,2.088c-2.378,0.464-5.623,1.392-7.596-0.465
	c-0.984-0.347-1.043,0.58-1.739,0.754c-0.695,0.696-1.392,2.029-2.492,1.74c-0.116,0.463-0.522-0.058-0.58,0.405h-0.58
	c-0.174,0.29,0.29,0.464,0.348,0.696c-1.392,0.928-1.854,3.595-3.942,3.131c-0.579,0.754-1.449,1.275-1.159,2.377
	c-0.522,0.174-0.464-0.695-0.696-1.043c0.058-0.406-0.116-0.928-0.464-0.986c-0.522,0.29-0.349,1.276-0.406,1.971
	c-1.681,1.973,0.928,3.712,1.566,5.509c1.448,1.218,1.971,2.957,2.203,4.639c0.464-0.058,0.812,0.58,0.579,1.043
	c-0.695,0.986-1.392,1.972-2.377,2.552c-0.812,1.972-2.262,3.942-1.449,6.262l-0.465,4.522c0.87,1.103,0.349,3.015,1.74,3.595
	c-2.088,0.059-3.131-2.319-4.581-3.479c0.059-0.463,0.406-0.638,0.696-0.87c0.232-2.146,1.681-4.116,0.87-6.378
	c0.29-1.971,0.464-4.29,2.667-5.16c0.174-1.681-1.74-2.319-2.436-3.71c-0.464-1.276-1.449-2.378-1.739-3.711
	c-0.929-1.217-2.726-2.204-2.667-3.711C99.146,84.244,100.074,82.854,101.407,81.925z M79.143,88.535l1.391-0.986
	c0-1.043,0.406-2.028,1.103-2.782c1.449,0.115,2.028,1.855,3.305,2.318c0.87,0.349,1.449,1.624,2.551,1.276
	c1.682,0.058,2.726,1.16,3.827,2.436c0.174,0.638-0.348,0.812-0.348,1.275c1.102,0.638,1.044-0.928,1.913-1.102
	c1.739-1.218,3.421-2.899,5.624-3.132c0.579,0.64,1.218,0.87,1.682,1.45c-2.03,3.247-5.45,4.349-8.639,5.508
	c-1.219-0.521-1.799-2.087-2.783-3.072c-1.914-1.683-4.117-3.132-6.263-4.06c-1.275,0.986-3.131,0.986-4.175,2.436h-0.174
	C77.867,89.289,79.084,89.289,79.143,88.535z M82.795,88.709c2.667,1.913,5.566,3.77,7.306,6.727
	c0.521,0.753,1.682,0.404,2.377,0.29c3.073-1.044,6.204-1.856,8.697-4.233c1.102,1.449,1.855,3.305,3.421,4.523
	c-2.377,2.55-2.783,6.145-2.493,9.624c0.174,1.738-2.146,2.552-1.565,4.175c1.159,0.406,1.507,1.913,2.726,2.261H75.78
	c-1.564-0.87-2.551-2.551-2.899-4.174c0.58-4.349,2.957-8.002,5.103-11.713c1.044-1.392-0.521-2.609-0.695-3.942
	C79.317,91.145,80.477,89.058,82.795,88.709z M81.23,63.198c-0.174,0.753-1.102,0.637-1.333,1.391
	c-0.522,0.87-1.566-0.58-1.392,0.87l0.348,0.29l-0.986,0.58c-0.927-0.521,0.464-1.218-0.579-1.798
	C78.099,63.372,79.897,62.444,81.23,63.198z M67.315,76.997c-0.522,0.059-1.333,0.464-1.681-0.058
	c0.29-0.87,0.463-1.797,1.158-2.377c2.436,1.101,5.276,0.812,7.248-1.103c0.349,0,0.58,0.349,0.753,0.639
	c-0.23,0.521,0.175,1.333-0.347,1.738c-0.812-0.405-1.566-0.29-2.378,0C70.678,76.476,69.054,77.81,67.315,76.997z M67.895,80.882
	l0.348-2.493c2.377,0.058,4.059-2.957,6.378-1.508c0.579-0.464,1.217-0.695,1.449-1.507c0.058-0.928-0.058-2.088-0.986-2.609
	c-1.101-0.059-2.028,0.464-2.782,1.218c-1.218,0.812-3.306,0.696-4.58,0.116c0.638-1.044,1.913-1.566,2.493-2.726
	c1.449-1.334,3.595-0.695,5.449-0.58c1.624-0.115,1.683-3.769,3.306-2.087c0.231,0,0.521,0,0.638,0
	c0.174-0.174,0.232-0.464,0.232-0.754c-0.232-0.406-1.045-0.231-0.87-0.928c1.449,0,0.29-1.913,1.913-1.623
	c0.289-1.334,2.088-1.218,2.319,0.116c-0.231,0.29-0.696,0.405-0.812,0.812c-0.059,0.637,1.101,0.695,0.638,1.275
	c-1.392,0.695,0.116,2.087-1.044,2.783c-0.928-0.175-1.797-0.696-2.319-1.392h-0.754c0.986,1.102,0,2.377-0.405,3.479
	c0.521,0.405,1.044,0.231,1.739,0.29l0.116-0.579c2.319,0.521,2.667,3.594,4.87,4.405c0.406,0.465,0.406,1.044,0.521,1.682
	c0.406,0.58,1.508,1.102,1.102,1.855c-0.753,0.58-1.623-0.29-2.436,0.232c-1.913,0.348-3.362-1.044-4.869-1.856
	c-0.522-0.174-0.929,0.406-1.45,0.116c-0.753-0.463-0.29-1.333-1.043-1.739c1.043-0.869,1.854,0.754,2.898,0.87l4.813,0.059
	c-0.406-1.219-2.146-0.522-3.189-0.813c-0.406-0.58-0.928-1.275-1.564-1.508c-1.16,0.696-3.131,0-4.117,1.16
	c0.348,1.16,0.638,2.377-0.174,3.421c-0.639,0.928-0.29,2.783-1.972,2.841c-0.58,0.058-1.102,0.696-1.334,1.159
	c0.29,0.521-0.174,1.044-0.521,1.276c-1.333-0.58-1.681-2.088-2.436-3.073c-0.348-0.116-0.348,0.231-0.579,0.348
	c-0.405,5.16,5.799,5.914,7.479,9.915c-0.464,1.45,1.681,1.797,0.812,3.246c-2.492,0.523-2.088,3.305-3.188,4.929
	c-0.406,0.928-0.813,1.855-1.566,2.667c0,1.565-0.694,2.957-1.217,4.349c2.377,0.985,1.565,4.522,4.464,4.755
	c0.174,0.231,0.232,0.521-0.115,0.638l-2.088-0.406c-1.044-1.972-3.479-1.798-4.58-3.421c0.115-1.218,1.798-1.565,1.334-3.015
	c0.812-0.985,0.521-2.436,0.985-3.594c-0.231-2.553,0-5.22,2.203-6.668c0.348-0.349,1.276-0.176,0.928-0.986v-0.232
	c-3.769-1.044-5.682-4.869-9.103-6.668c-0.58-0.58-0.986-1.158-0.986-1.971C64.648,83.839,67.373,83.144,67.895,80.882z
	 M62.329,89.231l1.565-0.986l2.725,2.436c-1.333,2.782-4.985,2.782-6.841,4.813c-1.218,0.579-2.319-0.754-3.595-0.174
	c-1.74-0.232-3.363,0.696-5.103,0.231c0.175-0.754,0-1.564-0.405-2.203c1.912-0.175,4.928-1.913,6.378,0.405
	C59.43,93.289,60.357,90.564,62.329,89.231z M60.531,84.303c-0.058,0.289-0.347,0.695-0.695,0.405
	c-0.405-0.753-0.754-1.564-1.218-2.377c0.116-0.29-0.29-0.638,0.059-0.812c0.405,0.115,1.044-0.232,1.334,0.29
	C60.415,82.563,60.184,83.549,60.531,84.303z M55.023,69.923c1.044-0.811,2.088-1.971,2.088-3.361
	c-0.986-0.349-0.87-1.508-1.624-2.146c-0.174-1.043,1.682-0.464,1.103-1.623c0.115-0.116,0-0.464,0.348-0.348
	c-0.059,0.464,0.231,0.348,0.405,0.638c0.232,0.522-0.231,1.449,0.405,1.682c0.522,0.174,0.58-0.349,0.929-0.349
	c-0.232-1.043,0.928-1.333,1.102-2.145c0.406,0.058,0.927-0.174,1.159,0.231c0.174,0.696-0.58,0.58-0.812,1.044
	c0.464,0.405,0.405,1.565,1.449,1.218l0.174,0.115c-0.464,0.349-0.174,0.87-0.521,1.219c-0.116,0.637,0.928,0.753,0.638,1.448
	c-0.464,0.58-1.218,0.464-1.854,0.464c-0.465-0.058-1.044-0.695-1.393-0.289c-0.231,0.812,0.116,1.565-0.638,2.087
	c0.058,0.928-1.217,0.695-1.739,0.928c-0.696,0-1.218-0.232-1.913-0.29C54.096,69.923,54.733,69.981,55.023,69.923z M37.107,77.577
	c-0.347-1.276,0.464-2.377,1.392-3.247c0.522-1.45,0.639-3.131,2.203-4.059c1.218-0.522,2.899-0.116,3.711-1.217
	c0.464-0.87,0.986-1.74,1.739-2.493c-0.521-0.58-0.985-1.45-1.217-2.32c-0.639-0.29,0.231-1.275-0.464-1.623
	c-0.059-0.231,0.058-0.464,0.231-0.521l0.522,0.231c0.464-0.696,0.579-1.392,1.449-1.564c0,0.463,0.638,0,0.579,0.463
	c-0.174,0.464-1.333,0.29-0.928,1.275c0.29,0.174,0.29,0.522,0.464,0.813c-0.348,0.29-0.928,0.348-0.985,0.869
	c-0.115,0.754,0.695,0.87,0.87,1.392l0.115-0.058c-0.29-0.349-0.348-0.929-0.464-1.393c0.696,0.059,0.754-0.984,1.566-0.637
	c0.29-0.232,0.29-0.638,0.29-1.044c0.231-0.348,0.638-0.522,1.101-0.522c0.638,0.406-0.348,0.986,0.29,1.45
	c-0.231,0.405,0.29,0.349,0.348,0.637c0.232,0,0.522-0.058,0.755,0.059c0.058,0.348-0.29,0.116-0.406,0.29
	c0.116,0.638-0.349,1.855,0.406,1.972c-0.116,0.695-1.045,0.463-1.566,0.637c-0.637,0.175-0.985-0.578-1.565-0.694
	c0.116,0.869,0.929,1.797,0.406,2.841c-0.116,0.464-1.044,0.811-0.464,1.275c0.464-0.116,1.449,0.348,1.507-0.406
	c1.624-0.927,2.609,1.044,4.175,1.16l2.493,0.231l0.174,0.174c2.203,1.043,3.189-1.682,5.103-1.798
	c2.03-0.347,3.537-2.261,5.045-3.536l0.289,0.059c-0.116,0.694-1.275,0.984-0.927,1.681c-1.103,1.739-3.306,2.087-4.291,4.06
	c-0.985,0.811-2.319,0.753-3.132,1.912c-2.028,0-4.754,0.58-6.378-1.044v-1.217c-0.984-0.521-1.391,0.464-1.564,1.159
	c-0.116,0.464-0.29,0.986-0.754,1.276c-0.869,0.405-0.927-0.696-1.507-0.87c-2.029-0.29-3.422,1.392-5.334,1.102l0.638-1.798
	c-0.813-0.173-0.696,1.102-1.392,1.45c-0.58,1.681-2.378,0-2.957,1.275c1.854,0.348,4.695,0.116,6.552-0.928
	c0.695-0.058,1.681-0.696,2.145,0c-0.521,0.58,0.349,1.623-0.754,1.739c-1.333,0-2.725-1.043-3.653,0.464
	C41.05,76.939,39.252,78.563,37.107,77.577z M38.325,83.259c0.58-0.812,1.218-1.972,2.261-2.087c0.58-0.58-0.58-1.275-0.058-2.146
	c0.986-1.217,2.552-1.507,3.827-2.261c0.928,0,1.854,0.058,2.609,0.521c0.231,0.754-0.755,1.275-0.175,1.913
	c-0.115,1.044-1.101,1.682-1.738,2.319c0.115,0.58,0.115,1.218-0.349,1.624c-0.464-0.29-0.812-0.696-1.334-0.929L43.195,82.1
	c-0.869,2.551,1.972,3.537,2.667,5.565c1.218,2.319,2.262,4.813,4.175,6.842c-0.29,0.755-0.464,1.565-0.695,2.319
	c-0.754,0.813-0.928,1.798-0.812,2.899l-0.231,0.174c0.404,2.087-0.58,3.595-1.45,5.16c-0.116,0.58,0.348,0.928,0.464,1.449
	c-0.116,1.393-0.232,3.073,0.928,3.942l-0.058,0.059c0.521,0.638,0.811,1.333,1.623,1.623c0.115,0.175-0.059,0.349-0.232,0.29
	c-1.391-0.405-2.783-0.869-4.116-1.392c-0.521-0.927,0.812-1.623,0.348-2.783c0.521-3.305-1.333-7.015,0.695-9.798
	c0-1.16,1.624-1.508,1.334-2.61c-0.985-1.274-2.667-1.217-3.421-2.724c-1.508-2.262-3.131-4.871-5.624-6.089
	C37.918,86.042,37.918,84.418,38.325,83.259z M43.195,92.999c-0.695,0.174-1.564-0.289-2.435-0.347
	c0.695-0.406,0.058-1.74,1.159-1.624l0.465,1.044L43.195,92.999z M30.962,92.015c0.811,0.464,1.971,0.464,2.435,1.333
	c-0.232,0.464-0.58,0.929-1.044,1.275c-0.232,0.059-0.638-0.174-0.696,0.174c-0.753,0-1.565,0-2.145-0.115
	C29.918,93.753,29.976,92.594,30.962,92.015z M35.136,97.986c-0.812,0.579-1.972-0.87-2.493,0.464
	c-2.667,1.044-5.914,0.231-8.813,0.695c-0.812,0.116-1.565,0.464-1.971,1.16c-0.29,0.348-0.29,0.812-0.696,1.102l-0.696,2.841
	c-0.29,0.521-0.812,0.059-1.159-0.116c-0.638-0.638,0-1.448,0-2.146c0.405-0.173,1.333-0.116,1.391-0.927
	c-0.696-1.275,1.044-2.03,0.406-3.131c0.116-0.175,0.29-0.232,0.464-0.116c0.985-0.638,2.667-0.58,3.711-0.059
	c1.681-2.145,4.464-2.318,7.015-2.028c1.103-0.464,1.219,1.507,2.203,0.404c0.116-1.854-0.348-4,0.929-5.449
	c0.985-0.869,1.565-2.202,2.202-3.189c1.103,1.276,2.667,2.262,2.263,4.349C38.673,93.986,36.818,95.956,35.136,97.986z
	 M38.325,96.188c0.813-0.869,1.508-1.912,2.319-2.726c0.464,0.059,0.986,0.175,0.812,0.813c-0.231,0.811-0.231,1.97-1.044,2.434
	L38.325,96.188z M42.847,97.813c-0.753,0.695-0.579,2.203-1.855,2.262c-0.811-0.813,0-1.566,0.349-2.32
	c0.231-0.638,0.928-0.174,1.159-0.695c0.116-1.16-0.869-2.262,0.348-2.957c1.275-0.232,1.914,1.102,2.609,1.797
	C44.761,96.71,43.252,96.479,42.847,97.813z M44.355,98.218c0.29-0.289,1.16-1.333,1.449-0.579c0.116,0.464-0.405,0.579-0.638,0.695
	C44.876,98.334,44.529,98.45,44.355,98.218z M24.41,113.234l24.815,0.058l0.116,0.232l3.362,0.058l0.116-0.173
	c1.913-0.233,4.117-0.29,5.914,0.057v0.116l-34.498,0.059l-0.058-0.059L24.41,113.234z M95.841,117.989
	c-0.465-0.58-1.682,0-2.203-0.521c-0.464,0.115-1.103-0.175-1.393,0.231c-0.579,0.116-1.507-0.231-1.854,0.29
	c-3.016,0-6.088,0-8.93-0.29l-4.29-0.058l-0.115,0.29h-4.465l-0.175-0.29h-2.898c-0.349-0.232-0.464-0.406-0.753-0.696
	c-0.754-0.057-1.74-0.232-2.378,0.116l-0.232,0.695l-16.872-0.058c-0.405-0.464-1.507,0.058-1.971-0.406h-2.551
	c-0.349-1.218-1.856-0.29-2.436-1.274c-1.16-0.349-2.551-0.116-3.827-0.175c-0.115,0.116-0.115,0.465,0,0.579
	c0.116,0.116,0.232,0.349,0.406,0.29l0.058-0.058c0,0.497,0.383,0.778,0.819,0.813l-17.923,0.114
	c-0.116-0.984,0.638-1.854,0.985-2.725l3.247-0.174l-1.913-0.059h11.886c0.464,0.406,1.391,0.174,2.087,0.232
	c0-0.289,0.29-0.232,0.464-0.232c0.059,0.232,0.232,0.232,0.406,0.232c0.058-0.232,0.29-0.232,0.464-0.232l0.116,0.174l-0.464,0.465
	c0.58,0.115,1.333,0.058,1.971,0.058v-0.29c4.465,0.058,9.103-0.116,13.393,0.174c0.117,0.464,0.87-0.058,0.986,0.464
	c1.042,0,1.795,0.288,2.835,0.289c-0.045,0.084-0.334,1.307,0.528,0.93c0.29,0.463,0.985-0.117,1.218,0.463
	c1.275,0.116,2.261-0.116,3.42-0.29l0.058-0.696c0.522,0.174,0.639-0.174,0.696-0.637c0-0.58-0.812,0-0.928-0.464
	c-0.232-0.059-0.695,0.174-0.695-0.232v-0.174c1.333-0.059,2.957-0.289,4.174,0.174h7.538c0.175,0.464-0.521,0.696-0.405,1.159
	c-0.639-0.116-0.986,0.348-1.219,0.697c-0.115,0.404,0.406,0.173,0.406,0.463h2.725l1.566-1.623
	c0.579-0.059,1.391,0.174,1.855-0.174c0.812-0.175,1.681,0.348,2.318-0.232c0.349-0.116,1.276,0.29,1.103-0.406
	c0.521,0,1.274-0.29,1.681,0.29h11.712c0.87,0.116-0.174,1.623,0.87,1.507c0.174,0,0.348,0.059,0.638,0.059
	c-0.174,0.696,0.405,0.638,0.753,0.928c0.349,0.058,0.813-0.116,1.103,0.116C98.392,118.105,97,117.932,95.841,117.989z
	 M128.658,117.235c-0.406,0.116-1.275-0.347-1.16,0.406c-0.638,0.174-0.695-0.29-0.695-0.696h-4.059
	c-0.58,0.174,0.059,0.928-0.638,1.044c-1.565-0.116-3.305,0.174-4.58-0.058v-0.232l-3.711-0.116
	c-0.348,0.464-1.276,0.232-1.855,0.174l-0.231-0.174h-4.871c-0.637,0.349-1.623,0.116-2.493,0.174c-0.29-0.231,0-0.521-0.058-0.812
	c-0.985,0.116-1.449-0.522-2.436-0.29c-0.231-0.58-0.928-0.522-1.274-0.812c0.289-0.231,0.811-0.464,1.217-0.638h8.059l0.059-0.231
	c1.682,0.058,3.362-0.116,4.755,0.174c-0.464,0.348-1.218,0.521-1.683,0.927c0.059,0.058,0.059,0.174,0.059,0.233
	c-0.927,0.173-2.203,0-3.247,0.114c-0.116,0.522,0.174,0.696,0.406,0.929h6.378c0.405-0.58,1.392,0,1.971-0.29
	c-0.29-0.753,0.406-0.58,0.696-0.87c0.464,0,1.16,0.058,0.985-0.637c0.175-0.29,0.406-0.349,0.696-0.29
	c0.637,0.405,1.565,0.115,2.377,0.231l0.464-0.464h9.508v0.174c0.58,0.174,1.566-0.174,1.74,0.638
	c0.059-0.115,0.174-0.115,0.232-0.115c0.058,0.115,0.174,0.174,0.116,0.29h-3.132l-0.115,0.694h-2.899
	C129.18,117.179,128.6,116.713,128.658,117.235z M145.646,117.409l-0.928,0.754h-8.987c-0.463-0.58-1.565,0-2.087-0.464
	c-0.58-0.058-1.392,0.174-1.739-0.231c1.971-0.175,4.116,0.174,6.03-0.232c0.116-0.174,0-0.406,0.058-0.58l-0.521-0.116
	c0.58-0.464,0.754-1.681,1.971-1.217c0.058,0.58,0.812,0,0.928,0.521h2.319c0.29-0.231,0.058-0.521,0.231-0.695
	c0.755,0.29,2.262-0.464,2.436,0.58C145.877,116.075,145.53,116.889,145.646,117.409z"/>
<g>
	<defs>
		<rect id="SVGID_1_" width="167.968" height="169.997"/>
	</defs>
	<clipPath id="SVGID_2_">
		<use xlink:href="#SVGID_1_"  overflow="visible"/>
	</clipPath>
	<path clip-path="url(#SVGID_2_)" fill="#57068C" d="M167.968,85.462l-2.377,1.624c3.015-2.087,1.507-6.204,1.797-9.161
		l-2.203,1.798l-0.059-0.059c2.899-2.203,1.392-6.088,1.798-9.16c-0.695,0.579-1.449,0.869-2.029,1.623l-0.116-0.29
		c1.913-2.435,0.406-6.029,0.464-8.755c-1.102,0.696-2.203,2.087-2.898,3.016l-0.232-0.87c2.841-2.726,1.103-6.552,0.696-9.856
		l-1.393,1.333c0.813-3.073-1.043-5.682-1.391-8.349c-0.754,0.812-1.334,1.972-2.088,2.608c1.508-3.362-1.102-6.029-1.739-9.044
		c-0.812,1.218-1.449,2.493-1.854,3.826c-0.232-0.174-0.175-0.406-0.29-0.638c2.318-3.479-1.103-6.667-2.436-9.74
		c-0.406,0.927-0.87,2.087-1.218,2.783c0.696-3.421-2.261-5.683-3.595-8.175c-0.406,0.927-0.522,2.028-0.985,2.898
		c0.812-3.769-2.436-6.088-4.349-8.813l-0.929,3.246h-0.115l-0.175-1.449c0.06-3.073-3.361-4.696-5.044-6.9l-0.231,0.117
		c-0.349,1.159,0.116,2.146-0.116,3.362c-0.232,0.116-0.521,0-0.695-0.232c0-3.653-3.769-5.45-6.146-7.537
		c0.058,1.16-0.116,2.493,0.174,3.479l-0.174-0.116c-0.116-3.769-4.233-5.219-6.727-7.132c-0.115,0.696,0.116,1.565,0.059,2.261
		c-0.928-3.305-4.522-3.247-6.727-4.986c0.175,1.16,0.406,2.436,0.755,3.422c-0.175,0-0.232-0.175-0.349-0.29
		c-0.811-3.479-4.464-4.232-7.015-5.683l-0.696-0.116c0.406,1.219,1.044,2.436,1.217,3.653c-0.521-0.116-0.984-0.29-1.391-0.638
		c-1.044-1.971-3.073-3.537-5.218-4.001c-0.58-0.174-0.813-0.869-1.45-0.985l0.58,2.146l-0.232,0.174
		c-1.449-1.16-3.247-1.565-5.102-1.74c0.406,0.522,0.464,1.218,0.928,1.74c0.116,0.231,0.463,0.58,0.116,0.87
		c-1.393,0.058-2.841-0.174-4.233,0.23c1.044,0.928,1.739,2.437,3.189,2.899c-0.232,0.58-0.696,1.102-0.58,1.74
		c1.276,0.348,3.015,0.231,4.291,0.058c-0.059,0.638-0.87,0.464-0.986,1.044c1.449,0.869,3.653,1.217,5.276,0.637
		c-0.116,0.232-0.29,0.406-0.349,0.639l0.465-0.059c2.261,1.393,5.044,2.261,7.885,1.683l0.174,0.114
		c-0.406,0.406-0.753,0.813-1.043,1.276l5.276,1.798l1.043-0.233c-0.115,0.233-0.521,0.406-0.579,0.696
		c2.435,0.754,4.638,3.189,7.247,2.146l-1.218,1.043c2.436,1.16,4.522,4.001,7.653,2.783c-0.464,0.348-1.102,0.464-1.334,0.985
		c2.262,1.276,4.117,4.232,6.958,3.537c-0.406,0.348-1.16,0.405-1.391,0.869l4.116,3.711c0.464,0.348,1.334,0.29,1.565,0.813
		l-0.986,0.521c1.682,1.565,2.726,3.942,4.87,4.696l-0.464,0.231c1.508,1.739,2.494,3.943,4.35,5.16l-0.465,0.29
		c1.334,1.682,2.262,4.06,4.06,5.276c-0.232,0-0.522,0.058-0.522,0.231c1.159,2.03,1.275,4.754,3.479,6.03l-0.986,0.058
		c0.87,2.203,1.044,4.639,2.667,6.437c0.29,0.464,1.103,0.231,1.16,0.695l-1.508-0.231c0.754,2.261,0.58,4.986,2.318,6.841h-0.811
		l0.29,1.856c0,2.841,1.217,5.798,4.058,6.841l-0.348,0.406c-0.811-1.16-2.146-1.682-3.421-1.739
		c0.521,2.377,0.116,5.392,2.146,7.247c-0.464,0-1.102-0.464-1.565-0.29l0.521,5.624c0.174,0.521,0.813,0.929,0.754,1.45
		c-0.521-0.175-1.044-0.696-1.624-0.58c0.29,2.203-0.753,5.102,0.58,7.074c0.349,1.043,2.319,1.564,1.509,2.725
		c-0.406-1.218-1.624-2.146-2.726-2.667c-0.231,2.435-1.334,5.276-0.174,7.537c-0.406-0.29-0.812-0.985-1.45-0.928
		c-0.29,2.492-1.913,4.986-0.812,7.479l-1.275-0.986c-0.58,2.437-2.319,4.755-1.565,7.364c-0.406-0.348-0.812-0.87-1.333-1.102
		l-2.262,4.928c-0.116,0.696,0.059,1.624-0.116,2.145c-0.289-0.404-0.638-0.984-1.102-1.217c-0.928,2.262-3.305,4.059-2.957,6.668
		c-0.058,0.869,0.87,1.855,0,2.551c0-1.334-0.348-2.667-1.276-3.595l-3.13,4.522c-0.521,1.508-0.29,3.305,0.059,4.696l-0.464,0.116
		c0.058-1.449-0.116-2.841-1.16-3.768c-1.392,2.318-4.639,4.116-3.886,7.304c-0.173-0.811-0.521-1.623-0.984-2.145
		c-1.508,1.855-4.233,3.537-4.407,6.029c-0.231-0.521-0.464-1.043-0.695-1.623c-1.449,1.566-3.885,2.957-4.522,4.87
		c-0.638,0.696,0.058,2.087-0.87,2.377c0.058-0.984,0.29-2.491-0.463-3.247c-1.856,1.74-4.523,3.074-5.509,5.334l-0.463-1.854
		c-1.914,1.508-4.523,2.261-5.566,4.581c-0.116-0.522-0.174-1.044-0.232-1.507c-2.088,1.101-4.522,1.796-6.029,3.826
		c-0.059-0.58,0.058-1.16-0.174-1.624c-2.03,0.986-4.466,1.218-6.089,3.072c-0.115-0.521,0.175-1.274,0-1.738
		c-2.145,0.754-4.465,0.928-6.378,2.202c-0.348-0.405-0.812-0.754-1.274-0.869c-2.263-0.521-4.175,0.639-5.567,2.262l-1.739,0.058
		c-1.507-1.45-3.305-2.783-5.449-2.261c-0.929,0.057-1.509,0.87-1.972,1.564c-1.45-2.261-4.522-2.028-6.784-2.956
		c-0.231,0.464,0.116,1.274-0.058,1.738c-1.681-1.854-4.175-2.145-6.204-3.015v1.566c-1.507-2.03-3.942-2.668-5.972-3.826
		c-0.232,0.404-0.174,1.101-0.349,1.507c-1.043-2.32-3.651-3.131-5.508-4.581c-0.29,0.58-0.29,1.334-0.58,1.854l-0.753-1.507
		l-4.755-3.827c-0.638,0.87-0.463,2.263-0.406,3.247c-0.173,0-0.347,0.059-0.404-0.115c0.521-3.306-3.073-5.045-4.93-7.132
		c-0.348,0.522-0.464,1.218-0.754,1.623c-0.114-2.608-2.956-4.231-4.464-6.029c-0.348,0.58-0.754,1.565-0.986,2.088
		c0.813-3.189-2.435-4.871-3.768-7.247c-1.102,0.811-1.218,2.318-1.16,3.768h-0.232c-0.696-0.464,0.174-1.508,0.058-2.318
		c0.464-2.899-2.145-4.871-3.479-7.017c-0.927,0.986-1.217,2.261-1.217,3.595c-0.116-0.174-0.348-0.348-0.406-0.521
		c1.739-3.304-1.217-6.088-2.609-8.697l-1.102,1.217c0.522-2.841-1.623-4.754-2.377-7.072l-1.217,1.102
		c0.695-2.609-1.044-4.928-1.624-7.364c-0.522,0.232-0.87,0.58-1.275,0.986l-0.058-0.116c1.217-2.435-0.522-4.871-0.754-7.363
		c-0.638-0.058-1.044,0.813-1.508,0.869c1.334-2.261,0.116-5.044-0.116-7.479c-1.101,0.521-2.319,1.449-2.667,2.667l-0.174-0.174
		c-0.464-0.869,0.812-1.159,1.102-1.856c2.087-1.971,0.754-5.275,1.16-7.769c-0.638-0.116-1.16,0.58-1.74,0.521
		c1.566-1.855,0.928-4.696,1.392-7.073c-0.638-0.059-1.102,0.348-1.624,0.348c2.03-1.855,1.566-4.754,2.203-7.189
		c-1.275-0.115-2.609,0.579-3.536,1.682c-0.174-0.116-0.174-0.29-0.29-0.406l1.623-0.985c2.899-1.682,1.913-5.161,2.725-7.712H9.915
		c1.681-1.854,1.507-4.58,2.261-6.841l-1.566,0.174c3.015-1.102,2.725-4.639,3.885-7.074l-0.986-0.058
		c2.262-1.276,2.32-4.116,3.479-6.204c-0.174,0-0.58,0-0.464-0.174c1.856-1.275,2.783-3.536,3.943-5.218l-0.406-0.232
		c1.913-1.217,2.899-3.479,4.349-5.218c0-0.058-0.117-0.058-0.174-0.058c-0.058-0.059-0.406-0.059-0.232-0.232
		c2.203-0.58,3.131-3.189,4.754-4.638c-0.232-0.29-0.638-0.29-0.928-0.464l0.058-0.232c2.436-0.464,3.711-2.899,5.682-4.349
		l-1.391-0.812c2.783,0.695,4.812-2.319,6.957-3.653c-0.463-0.29-1.102-0.579-1.275-0.928c3.131,1.334,5.218-1.681,7.595-2.783
		c-0.405-0.405-1.043-0.638-1.217-1.043c0.29,0.173,0.58,0.232,0.812,0.405c2.378-0.173,4.232-1.623,6.378-2.493
		c0-0.406-0.639-0.406-0.464-0.753c0.289,0.115,0.464,0.405,0.869,0.29l5.103-1.682l0.29-0.29l-1.044-1.103l0.117-0.114
		c1.507,0.347,3.304,0.174,4.754-0.175c1.274-0.29,2.318-1.508,3.595-1.449l-0.29-0.696c1.681,0.696,3.71,0.231,5.218-0.464
		c0-0.753-1.102-0.579-0.87-1.217c1.219,0.348,2.726,0.231,4.001,0.058c0.639-0.464-0.405-1.276-0.348-1.913
		c1.507-0.406,2.087-1.972,3.131-2.784c-1.392-0.404-2.841-0.173-4.232-0.23l-0.116-0.174c0.348-0.755,0.58-1.566,1.16-2.262
		c-1.913-0.175-3.596,0.463-5.103,1.565c-0.406-0.696,0.464-1.393,0.349-2.261h-0.232c-1.218,1.332-3.131,1.332-4.465,2.435
		c-1.333,0.985-1.507,3.188-3.421,3.073c0.348-1.219,0.928-2.377,1.334-3.596h-0.406c-1.681,0.929-3.479,1.566-5.102,2.552
		c-1.334,0.87-1.683,2.435-2.552,3.537l-0.116-0.059c0.58-0.985,0.695-2.319,0.813-3.363c-2.204,1.739-5.798,1.739-6.726,4.986
		L46.79,10.9c-1.971,1.798-5.103,2.435-6.204,5.16c-0.348,0.638-0.289,1.682-0.754,2.029c0.349-1.044,0.116-2.261,0.175-3.421
		c-1.855,1.913-5.103,3.016-5.74,5.856c-0.232,0.696-0.116,1.739-0.929,2.029c-0.348-0.349-0.173-1.045-0.114-1.508
		c-0.059-0.638,0.057-1.624-0.349-2.088l-4.117,4.117c-0.812,1.275-0.986,2.783-1.218,4.349c-0.521-1.044-0.637-2.262-0.927-3.362
		c-1.508,2.318-4.407,4.058-4.407,7.015c0,0.58,0.058,1.392-0.058,1.798c-0.231-0.985-0.579-2.204-1.043-2.898
		c-1.276,2.725-4.233,4.812-3.537,8.291c-0.406-0.986-0.696-2.146-1.218-2.783c-0.927,2.667-3.71,4.696-3.073,8.001
		c0,0.812,1.276,1.449,0.522,2.203c-0.464-1.102-1.159-2.551-1.971-3.769v0.405c-1.16,2.725-2.899,5.624-1.797,8.697
		c-0.696-0.869-1.392-2.029-2.088-2.609c-0.464,2.726-1.971,5.393-1.391,8.35l-1.334-1.392c-0.116,2.667-1.565,5.334-0.638,7.943
		c0.232,0.985,1.972,1.738,1.044,2.841c-0.638-1.16-1.739-2.319-2.841-3.073c0.058,2.899-1.449,6.32,0.522,8.755l-0.174,0.29
		l-2.03-1.623c0.406,3.072-0.985,7.073,1.74,9.219c-0.754-0.579-1.45-1.275-2.261-1.798c0.406,3.016-1.16,7.074,1.855,9.161
		C1.623,86.796,0.87,85.926,0,85.462c0.464,2.088,0,4.06,0.406,6.146c0.232,0.696,0.754,1.334,0.928,1.972L0.348,93
		c0.696,1.739,0.29,4,0.928,5.798c0.463,1.449,1.913,2.552,2.841,3.653l-2.899-1.218c0.869,1.681,0.753,3.769,1.507,5.565
		c0.522,1.044,1.681,2.146,2.493,2.609l-2.203-0.637c1.043,1.623,1.102,3.594,2.029,5.218c0.696,1.391,2.261,2.029,3.247,2.783
		l-2.899-0.58c1.45,1.913,1.74,4.406,3.653,6.088c0.928,0.696,2.145,0.927,3.073,1.449l-0.058,0.117
		c-0.986-0.523-2.319-0.58-3.363-0.523c1.913,1.972,2.435,5.276,5.392,6.262c0.348,0.116,0.986,0.116,1.102,0.35h-2.435
		c1.565,1.564,2.319,3.594,4.232,5.043c0.754,0.405,1.74,0.695,2.319,0.928c-0.637,0.117-1.391,0.117-1.913,0.29l0.348,0.174
		c1.971,2.146,3.769,5.044,6.784,5.334c-0.638,0.29-1.45,0.29-2.03,0.58h0.116c2.319,2.087,4.697,5.392,8.291,4.871
		c-1.043,0.23-2.087,0.347-3.073,0.695c2.436,1.448,4.117,4.232,7.016,4.405l-1.276,0.522c2.492,1.506,5.032,4.438,8.074,3.625
		c-0.585,0.213-1.189,0.419-1.754,0.666c1.682,0.695,3.188,2.203,4.929,3.015c1.623,0.927,3.13-0.231,4.638-0.405
		c-0.928,0.521-1.972,0.812-2.898,1.392c2.608,0.87,4.812,3.13,7.769,2.666l-1.044,0.813c2.668,0.464,4.813,2.435,7.771,1.971
		l-0.696,0.58c2.551,0.174,5.16,2.261,7.769,0.928c-0.115,0.29-0.637,0.464-0.694,0.754c1.043-0.232,1.971,0.174,2.898,0.348
		c2.029,0.405,4.464,0.521,5.798-0.638l0.464,1.507c3.015,0,5.739-0.984,7.943-2.608c0.406-0.059,0.29,0.464,0.58,0.521
		c2.319,0.928,4.464,2.261,7.247,2.029l0.348-1.043c2.436,1.45,5.276-0.29,7.886-0.116c-0.059-0.348-0.696-0.464-0.58-0.87
		c2.552,1.449,5.161-0.58,7.712-0.812l-0.638-0.639c2.957,0.522,5.102-1.391,7.652-2.028c-0.348-0.116-0.869-0.464-0.984-0.753
		c2.957,0.579,5.275-1.856,7.652-2.727c-0.87-0.521-2.087-0.811-2.783-1.391c3.422,2.435,6.727-0.986,9.567-2.493
		c-0.928-0.406-2.03-0.696-2.899-1.103l0.116-0.058c3.536,2.146,6.262-1.565,9.104-3.131l-1.334-0.522
		c2.957-0.173,4.58-2.957,7.016-4.405l-3.073-0.695c0.753-0.349,1.449,0,2.203-0.29c2.667-0.349,4.116-3.306,6.204-4.697
		c-0.58-0.174-1.565-0.116-1.914-0.521c3.189-0.175,4.813-3.596,7.017-5.509l-1.972-0.29c3.246-0.175,4.639-3.885,6.609-5.913
		l-2.493-0.06c3.711-0.174,4.697-4.464,6.494-6.608c-0.867,0.043-1.768,0.118-2.579,0.275c3.416-0.82,4.424-4.872,5.884-7.466
		l-2.898,0.638l0.058-0.058c3.884-0.87,3.826-5.276,5.218-7.944c-0.695,0.232-1.507,0.58-2.203,0.64
		c3.363-1.45,2.842-5.394,4.116-8.118c-1.043,0.348-2.029,0.87-3.015,1.16c3.363-2.029,3.305-5.914,3.827-9.335l-1.044,0.405
		C168.548,91.318,167.62,88.071,167.968,85.462 M166.634,79.548c0.115,2.32,0.695,5.509-1.623,7.074
		c-1.509-1.218-0.349-3.188,0.115-4.638L166.634,79.548z M166.055,72.186c0.116,2.318,0.753,5.508-1.566,7.016
		c-1.564-1.16-0.406-3.131,0.059-4.581L166.055,72.186z M160.835,104.017c-0.463-1.333,0.813-2.146,1.334-3.132
		c0.465,1.739,0.232,3.827-0.869,5.045C160.431,105.697,161.184,104.654,160.835,104.017z M161.996,95.146
		c0.116-0.755,0.87-1.393,1.16-1.914c0.29,1.564,0.753,4-0.638,5.103C162.459,97.232,162.459,96.073,161.996,95.146z M163.04,86.971
		l0.406-0.87c0.637,1.449,1.159,3.885,0.057,5.218C163.33,89.869,161.706,88.419,163.04,86.971z M162.169,81.114
		c0-0.87,0.58-1.45,0.696-2.261c0.812,1.333,1.449,3.594,0.522,5.16h-0.174C162.982,83.027,162.808,81.984,162.169,81.114z
		 M164.315,65.111l0.348-0.348c0.059,2.378,1.103,5.45-1.16,7.132C161.59,69.982,163.446,67.142,164.315,65.111z M162.344,71.489
		c0.754,1.334,1.448,3.595,0.464,5.16c-0.059-1.507-1.683-2.841-0.813-4.29L162.344,71.489z M161.532,69.46
		c-0.174-1.45-2.261-2.841-0.87-4.522l0.174-0.579c0.986,1.333,1.45,3.362,0.929,5.044L161.532,69.46z M162.344,57.11
		c0.348,2.203,1.564,5.45-0.58,7.248c-1.739-0.986-0.813-3.189-0.58-4.697C161.59,58.851,161.706,57.864,162.344,57.11z
		 M159.677,50.153c0.638,2.087,2.087,5.218,0.115,7.247l-1.159-1.623C158.575,53.806,158.923,51.834,159.677,50.153z
		 M158.517,57.053c0.928,1.275,1.914,3.131,1.275,4.928C158.865,60.589,157.416,58.908,158.517,57.053z M156.082,43.717
		c0.58,2.203,2.493,4.58,0.929,6.958l-1.45-1.275C155.096,47.602,155.501,45.456,156.082,43.717z M157.648,55.197l-0.174,0.116
		l-1.74-2.551l0.174-2.436C157.068,51.718,158.053,53.458,157.648,55.197z M154.517,49.051c-0.87,0.29-0.813-1.044-1.334-1.508
		c-1.392-0.521-0.87-2.261-0.87-3.188C153.531,45.688,154.749,47.196,154.517,49.051z M151.734,37.224
		c0.985,2.087,3.362,4.291,1.739,6.958l-1.393-1.044C151.501,41.34,151.386,39.137,151.734,37.224z M150.98,42.558
		c-0.174,0.521-0.58-0.059-0.813-0.059c-1.274-0.984-2.087-2.145-2.028-3.768C149.646,39.311,150.922,40.992,150.98,42.558z
		 M147.095,31.715c1.275,1.972,3.362,4.001,2.435,6.727l-1.681-0.986C147.21,35.716,146.805,33.687,147.095,31.715z M146.689,37.281
		c-0.753-0.986-2.029-1.334-2.725-2.145l-0.406-2.03C145.066,33.918,146.631,35.542,146.689,37.281z M141.876,25.801
		c1.508,1.913,4.001,3.77,2.957,6.61c-2.492-0.638-2.608-3.711-3.015-5.972L141.876,25.801z M141.993,31.367
		c-0.928-0.058-1.681-0.985-2.608-1.333c-0.406-0.812-0.696-1.682-0.87-2.494C139.964,28.353,141.876,29.57,141.993,31.367z
		 M135.847,20.642c1.623,1.854,4.291,3.479,3.652,6.262c-2.725-0.29-3.131-3.653-3.769-5.914L135.847,20.642z M136.542,26.207
		c-0.928-0.231-1.798-0.87-2.782-1.102c-0.58-0.754-0.87-1.507-1.16-2.377C134.108,23.366,136.195,24.352,136.542,26.207z
		 M128.889,16.292c1.739,1.566,4.696,3.016,4.291,5.798c-2.726,0-3.537-3.304-4.291-5.392V16.292z M130.165,21.627l-0.115,0.231
		l-2.726-0.869c-0.58-0.696-1.102-1.508-1.392-2.261C127.614,19.076,129.411,19.945,130.165,21.627z M127.15,17.742
		c-0.58,0.406-1.276-0.174-1.913-0.232c-1.45-1.449-2.551-3.188-3.073-5.044C124.019,13.741,127.15,14.959,127.15,17.742z
		 M124.019,17.8c-1.682-0.174-3.77-0.464-4.406-2.435l-0.058-0.232C121.236,15.539,123.323,15.944,124.019,17.8z M121.12,14.379
		c-1.971,0.929-3.072-1.448-4.29-2.608c-0.405-0.754-0.985-1.393-1.102-2.203C117.699,10.727,120.888,11.538,121.12,14.379z
		 M118.105,14.553l-0.116,0.232c-1.391-0.464-3.479,0.29-4.174-1.566l-0.464-0.637C115.148,12.755,117.003,13.104,118.105,14.553z
		 M114.335,11.422c0,0.232-0.173,0.522-0.404,0.58c-1.16,0-2.263-0.174-3.073-0.87c-0.986-1.158-1.856-2.435-1.914-3.885
		C111.09,7.943,113.351,9.219,114.335,11.422z M109.234,11.538c-1.565,0.349-2.841-0.754-3.826-1.854
		c0.348-0.522,1.217-0.059,1.682,0.173C107.843,10.378,108.944,10.494,109.234,11.538z M106.103,8.64
		c-0.116,0.405-0.869,0.29-1.159,0.115c-1.624-0.58-2.957-2.261-3.479-3.827C103.262,5.566,105.292,6.842,106.103,8.64z
		 M102.219,8.175c0.579,0.522,1.391,0.986,1.681,1.682c-0.986,0.58-2.029-0.058-2.841-0.521l-1.16-1.218
		C100.537,7.711,101.523,7.943,102.219,8.175z M100.71,6.668c0.116,0.579-0.405,0.812-0.869,0.812
		c-1.043,0.116-1.913-0.638-2.493-1.507c-0.232-0.349-0.406-0.696-0.406-1.103C98.392,4.928,99.61,5.624,100.71,6.668z
		 M93.928,7.247c1.274,0,2.377,0.349,3.361,1.044c-0.231,0.349-0.579,0.87-1.043,0.87C95.145,9.104,94.275,8.06,93.928,7.247z
		 M96.015,11.132l-0.29-0.174c0.812-0.812,1.681-1.913,2.898-2.087c0.754,0,1.565,0.174,1.855,0.928
		c0.058,0.579-0.638,0.695-0.985,0.928C98.566,11.364,97.116,10.9,96.015,11.132z M100.131,12.466
		c0.29-1.102,1.565-1.449,2.492-1.739c1.044-0.29,1.973,0.115,2.784,0.695C103.958,12.351,101.987,13.335,100.131,12.466z
		 M104.538,13.277c0.175-1.159,1.507-1.275,2.319-1.681c0.29,0.115,0.696,0.058,0.812,0.348c-0.174,0.406-0.928,0.348-1.275,0.638
		C105.871,13.045,105.118,13.451,104.538,13.277z M105.987,14.205c0.174-1.681,2.262-1.45,3.537-1.854
		c1.276,0.058,2.957-0.232,3.885,1.043c0.059,0.695-0.812,0.928-1.334,1.159C110.335,15.249,107.668,15.075,105.987,14.205z
		 M111.901,16.641c1.508-1.623,3.885-1.565,5.914-0.986c0.638,0.348,1.392,0.464,1.856,1.102
		C117.583,19.308,114.335,16.988,111.901,16.641z M117.641,19.076c1.218-1.044,3.131-1.334,4.755-0.87
		c1.101,0.347,2.319,0.87,3.073,1.797C122.86,22.206,120.192,19.598,117.641,19.076z M128.658,24.757
		c-1.855-0.348-3.188-1.854-4.929-2.435c1.798-1.275,4.522-0.637,6.262,0.464c0.406,0.522,1.044,0.638,1.334,1.276
		C130.687,24.584,129.643,24.699,128.658,24.757z M130.107,26.207c2.435-1.334,5.74,0.059,7.305,2.436
		C134.571,30.439,132.426,27.309,130.107,26.207z M139.5,33.86c-1.392-0.754-2.492-2.377-3.885-3.189
		c1.276-0.579,3.479-0.231,4.813,0.754c0.985,0.58,1.739,1.623,2.204,2.552C141.586,34.382,140.485,34.208,139.5,33.86z
		 M140.427,35.947c0.464-0.347,1.624-0.231,2.319-0.057c1.333,0.404,2.552,1.217,3.42,2.435c0.29,0.521,0.87,0.927,0.87,1.565
		C143.906,40.876,142.399,37.571,140.427,35.947z M144.718,40.818c2.318-0.406,4.001,0.984,5.449,2.551
		c0.29,0.696,0.87,1.275,0.87,2.029C147.791,46.152,146.573,42.615,144.718,40.818z M148.603,46.384
		c1.681,0.059,3.073,0.755,4.174,2.088c0.754,0.985,1.334,2.088,1.45,3.362C151.676,51.08,150.11,48.355,148.603,46.384z
		 M152.023,51.95c2.204,0.058,4.001,2.146,4.755,3.943c0.116,0.694,0.464,1.333,0.348,2.028
		C153.763,57.864,153.357,54.096,152.023,51.95z M154.458,58.271c2.146,0.231,3.769,2.377,4.406,4.231
		c0.059,0.696,0.406,1.393,0.174,2.088C155.676,64.242,155.676,60.531,154.458,58.271z M156.778,65.228
		c1.275,0.405,2.551,1.392,3.189,2.667c0.638,1.16,0.927,2.667,0.753,4.001C157.532,71.432,157.59,67.663,156.778,65.228z
		 M159.735,77.751c-1.16-1.623-0.87-3.942-1.508-5.682c2.32,0.696,3.421,3.188,3.595,5.392l-0.058,1.566
		C161.01,78.969,160.373,78.331,159.735,77.751z M158.749,79.433c2.377,0.754,3.479,3.188,3.653,5.45l-0.058,1.508
		c-0.754-0.059-1.45-0.696-2.029-1.276C159.155,83.491,159.387,81.23,158.749,79.433z M159.271,86.448
		c1.913,0.696,2.841,2.667,3.188,4.464c0,0.813,0.406,2.03-0.348,2.668C159.097,92.42,159.909,88.941,159.271,86.448z
		 M159.329,98.798c-0.695-1.855-0.116-3.826-0.464-5.739c2.203,1.218,2.899,3.768,2.609,6.204l-0.29,1.274
		C160.489,100.364,159.735,99.437,159.329,98.798z M160.431,107.959c0.347,1.565-0.174,3.479-1.16,4.754
		c-0.116,0.059-0.174,0.29-0.348,0.175c-0.116-0.928-0.116-2.146,0-3.132L160.431,107.959z M157.995,100.421
		c2.088,1.16,2.378,3.596,2.146,5.741c-0.29,0.58-0.116,1.391-0.696,1.855C156.662,106.335,158.111,102.974,157.995,100.421z
		 M156.314,116.656l1.913-1.797c-0.116,1.739-0.463,3.826-2.087,4.812C155.966,118.743,156.43,117.699,156.314,116.656z
		 M156.585,123.566c-0.232,0.048-0.463,0.1-0.678,0.163v-0.059C156.145,123.651,156.37,123.614,156.585,123.566z M156.314,106.974
		c1.739,1.159,1.971,3.421,1.681,5.218c-0.174,0.928-0.347,1.854-0.984,2.608C154.343,112.888,156.256,109.466,156.314,106.974z
		 M154.168,113.467c1.508,1.333,1.508,3.363,1.218,5.276c-0.232,0.928-0.695,1.797-1.333,2.551
		C151.676,118.976,153.705,115.96,154.168,113.467z M153.125,122.977l1.913-1.45c-0.231,1.623-0.694,3.885-2.608,4.521
		C152.603,125.063,153.009,124.077,153.125,122.977z M151.211,119.729c1.392,1.391,1.159,3.768,0.522,5.565
		c-0.406,0.753-0.754,1.682-1.508,2.203C148.081,124.947,150.516,122.164,151.211,119.729z M149.124,129.121l2.088-1.333
		c-0.348,1.566-1.218,3.769-3.015,4.232C148.139,130.978,148.893,130.107,149.124,129.121z M145.356,129.991
		c0.464-1.565,1.797-2.783,2.203-4.349c0.928,0.928,0.928,2.783,0.58,4.116c-0.29,1.334-1.276,2.552-2.319,3.479
		C145.356,132.311,145.008,131.151,145.356,129.991z M145.877,134.05c0.348-0.058,0.579-0.231,0.869-0.348
		c-0.521,1.565-1.564,3.652-3.421,3.942C144.022,136.369,143.964,134.339,145.877,134.05z M143.209,131.268
		c0.87,1.217,0.755,3.361,0.059,4.755c-0.463,0.984-1.333,1.97-2.203,2.666c-0.522-0.58-0.522-1.623-0.58-2.493
		C140.717,134.282,142.631,133.064,143.209,131.268z M141.065,139.732c0.29,0,0.464-0.232,0.812-0.232
		c-0.579,1.507-1.854,3.421-3.536,3.826l-0.175-0.174C139.094,141.936,139.036,139.849,141.065,139.732z M134.628,143.096
		c-0.114,0.579,0.58,1.449-0.058,1.507h-0.057L134.628,143.096z M136.659,144.834c-0.521,1.507-2.203,3.479-3.827,3.537
		c-0.29-0.986,1.103-1.45,1.103-2.435C134.745,145.298,135.731,145.124,136.659,144.834z M133.585,141.936
		c0.985,2.319-0.348,4.349-1.798,6.029c-0.521,0.349-0.927,1.043-1.623,1.043C128.889,145.82,132.251,144.139,133.585,141.936z
		 M129.237,147.965l0.116,1.102l-0.29,0.174L129.237,147.965z M131.151,149.474c-0.58,1.448-2.262,3.188-3.943,3.361
		c-0.348-0.405,0.29-0.753,0.406-1.101C128.078,150.054,129.759,149.82,131.151,149.474z M123.555,153.879
		c0.464-0.174,1.102,0.059,1.565-0.231c-0.87,1.449-2.493,3.131-4.349,2.957C121.816,155.734,122.106,153.938,123.555,153.879z
		 M122.512,150.4c0.521,2.029-0.639,3.885-2.146,5.275c-0.694,0.522-1.333,1.276-2.203,1.045
		C117.351,153.589,120.888,152.255,122.512,150.4z M116.366,153.821c0.349,2.261-1.218,4.174-2.957,5.392
		c-0.638,0.175-1.218,0.986-1.914,0.58C110.974,156.604,114.625,155.502,116.366,153.821z M112.365,160.546
		c-1.274,1.219-2.957,2.61-4.812,2.03c0.869-0.58,1.507-1.855,2.667-2.087L112.365,160.546z M106.161,159.445
		c1.334-1.16,2.957-1.565,4.291-2.667c0.059,1.972-1.218,3.711-2.957,4.754c-0.754,0.407-1.565,0.986-2.493,0.638
		C105.176,161.242,105.292,160.083,106.161,159.445z M105.755,162.924c-1.275,1.159-3.246,2.146-4.929,1.508
		c0.29-0.986,1.624-0.813,2.146-1.739C103.9,162.576,104.828,162.809,105.755,162.924z M104.248,159.04
		c-0.115,2.202-2.203,3.826-4.059,4.639c-0.579,0.347-1.217,0-1.797-0.176C98.682,160.431,102.219,160.315,104.248,159.04z
		 M99.146,164.373c-1.508,0.87-3.595,1.914-5.161,0.986c0.638-0.87,1.74-0.754,2.437-1.508
		C97.406,163.852,98.276,164.142,99.146,164.373z M97.348,163.04l0.348-0.406l-0.116,0.406H97.348z M97.986,160.257
		c-0.29,1.333-1.217,2.726-2.493,3.422l-1.971,0.753l-0.754-2.262C94.275,161.242,96.363,161.242,97.986,160.257z M87.26,162.112
		c1.217-0.638,3.188-1.566,4.231,0c0.406,0.406-0.058,0.812-0.348,1.16c-0.579,0.463-0.869-0.639-1.507-0.58
		c-1.334-0.232-2.262,0.348-3.131,1.043c-0.232-0.057-0.406-0.057-0.58-0.232C86.1,162.866,86.738,162.344,87.26,162.112z
		 M90.391,163.679c-0.116,0.463-0.696,0.404-1.044,0.521c-0.754-0.058-1.449-0.116-2.087-0.348
		C87.956,163.04,89.579,162.924,90.391,163.679z M77.577,161.939c0.406-0.35,0.87-0.755,1.45-0.697c1.565,0.174,2.841,0.928,4,2.03
		c0.174,0.347-0.29,0.406-0.406,0.579c-0.579-0.059-0.869-0.638-1.333-0.869c-0.695-0.349-1.682-0.232-2.377-0.059l-0.812,0.638
		C77.46,163.214,77.055,162.519,77.577,161.939z M81.694,163.852c-0.812,0.406-2.261,0.638-3.131,0.058
		c0.116-0.406,0.638-0.521,0.985-0.637C80.36,163.272,81.114,163.214,81.694,163.852z M69.75,163.33
		c-0.231,0.349-0.754,0.349-1.159,0.521c-1.739-0.349-3.537-1.565-4.349-3.306l-0.406-1.506
		C65.865,160.315,69.112,160.431,69.75,163.33z M71.489,163.852c0.813,0.521,1.798,0.638,2.551,1.449
		c-1.448,1.043-3.651-0.115-5.159-0.928C69.75,164.142,70.562,163.909,71.489,163.852z M70.33,162.634
		c0.116,0.175,0.349,0.232,0.349,0.406C70.388,163.214,70.446,162.809,70.33,162.634z M66.155,163.562l0.696,0.348
		c0.116,0.174,0.29,0.29,0.464,0.464c-1.798,0.928-3.537-0.405-5.045-1.333v-0.116C63.546,162.809,65.343,162.17,66.155,163.562z
		 M57.632,156.778c1.854,1.623,5.449,2.087,5.508,5.218c-0.696,0.696-1.565-0.057-2.262-0.231
		C59.082,160.779,57.458,158.865,57.632,156.778z M58.386,160.604c0.58,0.755,1.507,1.335,2.087,1.972
		c-1.797,0.522-3.421-0.754-4.813-1.855l0.059-0.231L58.386,160.604z M51.718,153.821c1.739,1.681,5.392,2.783,4.869,5.972
		c-0.984,0.232-1.912-0.58-2.725-1.102C52.53,157.358,51.428,155.792,51.718,153.821z M45.514,150.4
		c1.624,1.797,4.986,3.131,4.465,6.204c-0.986,0.464-1.914-0.639-2.726-1.276C46.036,153.938,45.109,152.197,45.514,150.4z
		 M45.398,154.169c0.464,0.813,1.276,1.565,1.855,2.436c-1.855,0.174-3.479-1.508-4.291-2.957L45.398,154.169z M39.658,146.457
		c1.683,1.856,4.813,3.537,4.001,6.668c-1.739-0.348-3.188-2.203-3.827-3.711C39.426,148.487,39.6,147.501,39.658,146.457z
		 M40.992,152.719c-0.29,0.059-0.928,0.116-1.275-0.174c-1.102-0.753-2.436-1.854-2.842-3.071l2.609,0.811
		C39.832,151.154,40.644,151.85,40.992,152.719z M38.847,147.965l0.174,1.159h-0.233L38.847,147.965z M34.44,141.936
		c1.334,2.203,4.754,3.885,3.421,7.072c-1.914-0.753-3.247-2.782-3.595-4.638C34.034,143.5,34.324,142.689,34.44,141.936z
		 M34.44,146.806c0.406,0.405,0.812,0.928,0.87,1.508c-1.683,0.231-3.131-1.973-3.943-3.247v-0.232
		C32.527,145.24,34.208,145.298,34.44,146.806z M33.396,143.096l0.174,1.507l-0.463-0.058L33.396,143.096z M28.758,140.776
		c0.232,0.87,0.812,1.564,1.102,2.376c-0.29,0.174-0.754,0-1.044-0.116c-1.044-1.043-2.261-2.145-2.667-3.536
		C27.019,139.906,28.178,139.964,28.758,140.776z M24.351,132.311l0.348-1.043c1.16,2.261,4.117,4.465,2.436,7.421
		C24.989,137.354,23.888,134.862,24.351,132.311z M23.598,134.862c0.348,0.927,0.928,1.797,1.101,2.782
		c-1.855-0.29-2.899-2.377-3.42-3.942L23.598,134.862z M20.351,125.643c1.043,2.204,3.595,4.755,1.913,7.596
		c-0.927-0.405-1.449-1.508-1.913-2.319C19.713,129.354,19.307,127.15,20.351,125.643z M19.307,129.935
		c0.058,0.753,0.58,1.274,0.58,2.028c-1.855-0.232-2.609-2.552-3.131-4.175C17.684,128.426,19.075,128.715,19.307,129.935z
		 M16.234,120.714l0.522-0.984c0.696,2.377,3.189,5.218,1.044,7.769C16.119,125.758,15.307,123.149,16.234,120.714z M12.872,114.859
		l0.927-1.393c0.464,2.436,2.551,5.509,0.174,7.827C12.582,119.613,12.002,116.946,12.872,114.859z M15.654,125.99
		c-0.753-0.058-1.449-0.753-1.739-1.449c-0.406-0.984-0.87-1.913-0.985-3.015l1.971,1.507L15.654,125.99z M8.697,101.64l1.334-1.219
		c-0.116,2.553,1.391,5.856-1.392,7.597C7.422,106.219,7.653,103.494,8.697,101.64z M9.103,109.756c0.116,0.986,0.116,2.204,0,3.132
		c-1.566-1.045-1.566-3.246-1.566-4.929L9.103,109.756z M8.291,93.696c0.348-0.174,0.464-0.58,0.928-0.638
		c-0.58,2.667,0.869,6.029-2.32,7.537C6.088,98.276,6.378,95.377,8.291,93.696z M4.523,86.101l0.985,2.261L4.58,91.26
		C4.29,91.318,4.058,90.797,4,90.507C3.943,89.059,3.827,87.376,4.523,86.101z M5.044,78.854c0.232,0.579,0.696,1.274,0.812,1.971
		c-0.464,1.044-0.812,2.087-1.044,3.189C3.537,82.68,4.523,80.418,5.044,78.854z M4.87,93.232c0.348,0.521,0.986,1.159,1.102,1.854
		c-0.29,0.986-0.464,2.146-0.464,3.248C4.175,97.232,4.58,94.797,4.87,93.232z M5.856,100.885l1.391,2.089
		c-0.115,0.984-0.058,2.087-0.289,2.956c-0.406-0.116-0.87-0.522-0.986-1.043C5.856,103.61,5.392,102.161,5.856,100.885z
		 M8.755,86.448c-0.58,2.493,0.174,5.972-2.841,7.132c-0.696-0.754-0.406-2.088-0.29-3.015C6.088,88.941,6.958,87.028,8.755,86.448z
		 M9.277,79.433c-0.754,2.436-0.232,5.972-3.363,7.016c-0.638-0.638-0.174-1.855-0.116-2.783
		C6.262,81.926,7.422,80.013,9.277,79.433z M6.494,79.085c-0.696-0.638-0.232-1.914-0.174-2.782c0.464-1.74,1.623-3.653,3.478-4.233
		C9.103,74.504,9.567,77.983,6.494,79.085z M11.19,65.228c-0.754,2.319-0.58,6.088-3.885,6.784c-0.231-2.436,0.696-4.87,2.783-6.263
		L11.19,65.228z M6.552,69.46c-0.406-0.058-0.522-0.638-0.58-1.102c0.232-1.392,0.406-2.841,1.16-4l0.695,2.203L6.552,69.46z
		 M13.857,51.834c0-2.145,1.856-4.348,3.885-5.16c0.522-0.231,1.101-0.174,1.681-0.29C17.916,48.355,16.35,51.022,13.857,51.834z
		 M32.411,30.613c-1.972,1.45-3.943,4.581-6.958,3.479c0.116-0.927,1.044-1.854,1.914-2.435
		C28.758,30.613,30.729,30.034,32.411,30.613z M37.977,26.149c-2.261,1.275-4.35,4.058-7.306,2.667
		c0.174-0.928,1.334-1.623,2.03-2.203C34.208,25.859,36.353,25.163,37.977,26.149z M44.355,22.322
		c-2.436,0.928-4.755,3.653-7.596,1.855c0.928-1.449,2.667-2.203,4.349-2.551C42.383,21.452,43.369,21.858,44.355,22.322z
		 M42.673,20.119c0.348-0.87,1.508-1.333,2.377-1.681c1.624-0.754,3.885-0.464,5.334,0.521
		C47.949,19.598,45.282,22.148,42.673,20.119z M48.355,16.872c0.58-0.812,1.682-1.218,2.667-1.449
		c1.74-0.348,3.827-0.174,5.16,1.218C53.689,16.931,50.674,19.249,48.355,16.872z M55.139,14.205
		c-0.349-0.231-0.522-0.406-0.522-0.812c1.855-1.855,4.58-0.869,6.784-0.349c0.29,0.349,0.812,0.522,0.753,1.044
		C60.125,15.191,57.167,15.365,55.139,14.205z M60.473,12.234c-0.174-0.348,0.231-0.638,0.58-0.638
		c0.928,0.348,2.203,0.464,2.493,1.681C62.328,13.799,61.691,12.061,60.473,12.234z M62.618,11.422
		c0.929-0.812,2.146-0.928,3.306-0.58c0.754,0.349,1.565,0.639,2.087,1.45C66.271,13.394,64.068,12.466,62.618,11.422z
		 M67.547,10.089c-0.232-0.754,0.637-0.812,0.927-1.102c1.682-0.464,2.841,0.869,3.827,1.971
		C70.735,11.074,68.764,11.248,67.547,10.089z M74.098,7.247c-0.349,0.813-1.217,1.856-2.261,1.914
		c-0.465,0-0.755-0.464-1.045-0.754C71.547,7.479,72.881,7.306,74.098,7.247z M69.459,5.218c0.522-0.115,1.044-0.348,1.682-0.348
		c-0.232,0.986-0.985,2.03-1.972,2.493c-0.579,0-1.159,0.29-1.681-0.058C67.083,6.088,68.764,5.856,69.459,5.218z M68.125,8.06
		c-0.811,1.334-2.261,2.145-3.825,1.972c-0.232-0.117-0.175-0.406-0.059-0.522C65.227,8.35,66.619,7.653,68.125,8.06z M66.619,4.928
		c-0.58,1.625-1.971,3.363-3.711,3.886h-0.927C62.386,6.784,64.822,5.683,66.619,4.928z M59.371,10.727
		c1.044-0.464,2.088-1.449,3.247-1.218c-0.811,1.218-2.145,2.262-3.768,2.088C58.618,11.19,59.255,11.017,59.371,10.727z
		 M54.269,10.378c1.16-1.738,3.073-2.493,4.813-3.131c-0.174,1.45-0.812,2.899-2.029,4.001c-0.87,0.58-1.913,0.986-3.073,0.696
		C53.283,11.422,54.095,10.842,54.269,10.378z M54.21,12.582h0.465c-0.522,0.695-1.103,1.392-1.798,1.971l-2.841,0.232
		C50.442,13.104,52.646,12.931,54.21,12.582z M52.24,9.567c-0.464,1.797-2.029,3.651-3.652,4.812
		c-0.522,0.059-1.103,0.232-1.623,0.059C46.906,11.654,50.327,10.842,52.24,9.567z M48.529,15.133l-1.507,2.029
		c-0.986,0.232-1.913,0.754-2.957,0.638C44.703,15.944,46.79,15.539,48.529,15.133z M45.804,12.466
		c-0.406,1.798-1.507,3.595-3.016,5.044c-0.638,0.059-1.274,0.639-1.854,0.232C40.875,14.959,44.007,13.857,45.804,12.466z
		 M42.093,18.729l-1.218,2.145c-0.985,0.29-1.854,0.869-2.898,0.985c-0.174-0.406,0.231-0.869,0.464-1.217
		C39.542,19.771,40.702,18.959,42.093,18.729z M39.136,16.292c-0.231,1.914-1.218,3.77-2.552,5.394
		c-0.521,0.173-1.043,0.463-1.622,0.521C34.266,19.308,37.397,17.916,39.136,16.292z M35.426,22.729
		c-0.232,0.87-0.58,1.623-1.103,2.377c-0.986,0.231-1.854,0.695-2.725,1.16C31.715,24.409,33.917,23.424,35.426,22.729z
		 M32.237,20.642c-0.406,2.318-0.754,5.508-3.421,6.319l-0.29-0.058C27.888,24.12,30.555,22.496,32.237,20.642z M29.512,27.54
		c0,2.03-1.624,3.131-3.363,3.885c-0.348-0.348,0.058-0.928,0.232-1.333C27.367,29.164,28.236,28.004,29.512,27.54z M26.091,25.801
		c0.116,1.855-0.29,4.002-1.218,5.683l-1.565,0.985C22.09,29.744,24.699,27.83,26.091,25.801z M24.526,33.106
		c0.29,2.204-1.682,2.784-3.015,4.117v0.058h-0.117C21.394,35.542,22.96,33.918,24.526,33.106z M25.743,35.716l1.913,0.116
		c-1.797,1.565-3.42,5.044-6.551,4.059C21.511,38.035,23.772,36.122,25.743,35.716z M20.873,31.715
		c0.406,1.856-0.058,4.001-0.696,5.74c-0.58,0.29-0.986,0.87-1.682,0.986C17.568,35.774,19.655,33.803,20.873,31.715z
		 M18.728,39.369c0.347-0.29,0.811-0.406,1.159-0.638l-0.406,2.318c-0.869,0.349-1.391,1.565-2.261,1.739
		C16.698,41.456,18.09,40.412,18.728,39.369z M23.308,40.818c-1.855,1.797-3.073,5.334-6.32,4.58
		C17.626,42.789,20.409,40.412,23.308,40.818z M16.234,37.224c0.464,1.218,0.29,3.015,0.116,4.349
		c-0.058,1.275-0.754,1.913-1.797,2.609C12.93,41.572,15.365,39.369,16.234,37.224z M13.567,47.66
		c0.638-1.16,1.044-2.436,2.146-3.305c0,0.694,0.463,2.203-0.406,2.725c-0.812,0.58-0.87,1.623-1.566,2.087
		C13.335,48.762,13.509,48.182,13.567,47.66z M14.205,52.414c0.58-0.174,1.102-0.464,1.797-0.464
		c-1.333,2.146-1.739,5.914-5.044,5.972C10.958,55.777,12.176,53.631,14.205,52.414z M12.002,43.717
		c0.58,1.739,0.928,3.885,0.464,5.683l-1.45,1.275C9.509,48.297,11.364,45.92,12.002,43.717z M12.06,50.327
		c0.29,0.695,0.29,1.681,0.29,2.436l-1.624,2.435h-0.348C9.915,53.399,11.074,51.834,12.06,50.327z M12.35,58.618
		c0.406-0.116,0.753-0.348,1.217-0.348c-1.159,2.261-1.217,5.972-4.58,6.319C8.929,62.212,10.088,59.777,12.35,58.618z
		 M9.798,59.604L8.291,61.98c-0.754-1.682,0.348-3.479,1.102-4.928C9.625,57.748,10.088,58.676,9.798,59.604z M8.291,50.153
		c0.87,1.913,2.03,4.986,0.232,6.899c-0.116,0.115-0.116,0.231-0.232,0.348C6.204,55.487,7.769,52.356,8.291,50.153z M5.624,57.11
		c1.102,1.565,1.508,3.595,1.681,5.624L6.32,64.358C4.058,62.676,5.392,59.371,5.624,57.11z M6.436,73.46
		c-0.638,0.986-0.812,2.146-1.218,3.189c-1.043-1.565-0.174-3.594,0.348-5.16C5.856,72.069,6.32,72.707,6.436,73.46z M3.363,64.764
		c1.217,2.029,3.015,4.813,1.333,7.132C2.203,70.446,3.305,67.142,3.363,64.764z M1.913,72.186c1.334,1.564,2.204,3.479,2.493,5.508
		C4,78.157,4.175,78.911,3.653,79.201C1.218,77.751,1.913,74.62,1.913,72.186z M1.334,79.548c1.333,1.566,2.203,3.479,2.493,5.509
		c-0.348,0.464-0.232,1.218-0.754,1.565C0.638,85.172,1.391,81.984,1.334,79.548z M0.87,87.086c1.449,1.855,3.594,4.291,2.319,6.842
		c-0.348,0.174-0.638-0.289-0.928-0.579C0.522,91.725,1.218,89.289,0.87,87.086z M4,101.06c-2.493-1.334-2.203-4.175-2.666-6.553
		c1.623,1.334,2.841,3.248,3.42,5.16C4.464,100.131,4.754,101.291,4,101.06z M2.377,102.624c1.623,1.044,3.131,2.783,3.885,4.523
		l-0.174,1.739C3.189,108.191,3.073,104.887,2.377,102.624z M4.233,110.046c1.913,0.754,3.362,2.552,4.464,4.175l-0.058,1.623
		C5.74,115.496,5.218,112.191,4.233,110.046z M6.842,117.293c1.913,0.696,3.594,2.204,4.986,3.827l0.058,1.566
		C9.045,122.628,7.885,119.439,6.842,117.293z M11.886,119.671c-1.624-0.985-1.971-3.072-2.088-4.812
		c0.696,0.637,1.508,1.159,1.972,1.913C11.538,117.873,12.234,118.686,11.886,119.671z M11.074,114.8
		c-1.391-1.854-1.507-4.638-0.406-6.725c0.406-0.29,0.464-0.928,1.044-1.102C11.77,109.466,13.625,112.771,11.074,114.8z
		 M10.262,124.251c1.914,0.464,3.653,1.682,5.103,3.131c0,0.639,0.579,1.159,0.174,1.798
		C12.756,129.237,11.538,126.048,10.262,124.251z M14.321,130.803c2.319,0.522,5.392,1.334,5.914,4.001v0.231
		C17.51,135.558,15.829,132.601,14.321,130.803z M19.075,136.833c2.03,0.174,3.769,0.929,5.451,2.029
		c0.347,0.521,0.637,1.102,0.753,1.797C22.554,141.356,20.757,138.572,19.075,136.833z M28.12,145.994
		c-1.507-0.754-2.725-2.029-3.884-3.247c1.971,0.116,3.942,0.753,5.624,1.739l0.754,1.508
		C30.034,146.516,28.874,146.226,28.12,145.994z M29.164,139.849c-0.232-1.16,0-2.087,0.29-3.073
		c1.275,2.203,4.29,4.231,2.899,7.305C30.729,143.21,29.628,141.472,29.164,139.849z M29.628,148.255l0.232-0.058
		c2.029,0,3.768,0.58,5.508,1.391l0.869,1.566C33.513,152.255,31.541,149.764,29.628,148.255z M41.34,155.734
		c-2.493,0.521-4.06-1.507-5.973-2.609c1.159-0.348,2.609,0,3.884,0.174c1.219,0.406,2.436,0.755,2.899,2.088
		C42.151,155.852,41.63,155.734,41.34,155.734z M41.687,157.358c0.928-0.349,2.32-0.174,3.422-0.116
		c1.391,0.232,2.899,0.463,3.536,1.971C46.152,160.662,43.775,158.575,41.687,157.358z M49.341,157.358
		c2.087-0.464,3.421,1.102,4.58,2.435c-0.175,0.349-0.812,0.174-1.159,0.116C51.543,159.213,50.095,158.691,49.341,157.358z
		 M48.413,161.126c1.509-0.521,3.537-0.58,5.16-0.231c0.928-0.059,1.45,0.87,1.972,1.449
		C53.342,164.142,50.559,162.17,48.413,161.126z M55.139,164.373c1.681-0.694,3.942-0.928,5.972-0.638
		c0.348,0.522,1.102,0.696,1.159,1.334C60.009,166.867,57.342,165.069,55.139,164.373z M62.154,166.75
		c1.798-0.811,3.77-1.333,5.914-1.159c0.406,0.349,1.044,0.58,1.334,1.102C67.431,168.78,64.3,167.214,62.154,166.75z M69.169,168.2
		c1.798-1.16,4.233-2.145,6.32-1.508l0.406,1.16C74.098,169.417,71.315,168.433,69.169,168.2z M75.374,164.605
		c-1.797-0.116-3.769-1.16-4.812-2.956l-0.464-1.393c1.854,1.103,4.464,0.928,5.798,2.726L75.374,164.605z M76.186,164.373
		l0.637-1.159c0.58,1.102,1.798,1.682,3.073,1.565c1.102,0,2.146-0.174,3.131-0.58c-0.406,0.754-0.521,2.088-1.681,2.261
		c-1.45,0.813-3.421,0.407-4.755-0.347C75.954,165.766,76.127,164.953,76.186,164.373z M77.113,169.301
		c-0.521-0.521-0.464-1.507-0.753-2.202c1.739,0.405,4.232,0.58,6.087-0.406c0.406,0,0.813,0.638,1.103,0.87
		C81.462,168.316,79.49,169.477,77.113,169.301z M84.593,167.04c-0.639,0.174-1.103-0.58-1.509-1.043
		c0.29-0.87,0.116-2.146,1.334-2.378c0.928,0.29,1.275,1.334,1.449,2.146C85.636,166.287,85.115,166.809,84.593,167.04z
		 M91.434,169.301c-2.261-0.058-4.059-1.101-6.03-1.797c0.638-1.971,1.972,0.059,3.189-0.174c1.334,0.174,2.782-0.058,4.116-0.348
		C92.072,167.679,92.594,169.243,91.434,169.301z M87.956,166.519c-1.275-0.116-1.739-1.507-2.029-2.436
		c1.565,0.522,3.885,1.16,5.392,0l0.754-0.927c0.348,0.637,1.044,1.333,0.754,2.319C91.666,166.809,89.637,167.157,87.956,166.519z
		 M92.884,168.2l0.638-1.856c1.971,0.175,3.71,0.87,5.334,1.799C97.058,168.374,94.681,169.243,92.884,168.2z M98.682,166.692
		c0.812-1.507,2.898-1.102,4.231-0.985c0.986,0.349,2.146,0.406,3.016,1.043C103.726,167.214,100.653,168.78,98.682,166.692z
		 M105.755,165.069c0.058-0.58,0.754-0.812,1.102-1.218c1.971-0.463,4.233-0.173,6.03,0.464
		C110.916,165.012,108.017,166.924,105.755,165.069z M119.555,161.069c-1.914,0.87-4.581,3.072-7.017,1.449
		c0.059-0.696,0.87-0.929,1.219-1.449C115.612,160.662,117.699,160.546,119.555,161.069z M114.105,159.852
		c1.101-1.16,2.203-3.016,4.232-2.493h0.348C117.525,158.633,116.018,160.315,114.105,159.852z M126.28,157.3
		c-1.797,1.102-4.174,3.362-6.783,2.088C120.366,156.778,123.787,157.068,126.28,157.3z M124.425,153.125
		c-0.87-3.131,2.261-4.812,3.942-6.668c0.521,2.32-0.58,4.291-2.262,5.915C125.527,152.604,125.121,153.299,124.425,153.125z
		 M125.874,155.562c0.754-2.494,3.711-2.319,5.914-2.668l0.929,0.174C130.745,154.459,128.6,156.662,125.874,155.562z
		 M138.398,148.255c-1.913,1.509-3.711,3.885-6.552,3.073c-0.174-0.696,0.58-1.102,0.754-1.682
		C134.34,148.777,136.369,148.197,138.398,148.255z M135.847,144.08c-0.406-0.58-0.58-1.564-0.349-2.434
		c0.232-1.914,2.319-3.132,3.016-4.871c0.928,1.797,0.231,3.884-0.754,5.508C137.181,142.921,136.542,143.675,135.847,144.08z
		 M143.79,142.747c-1.681,1.682-3.594,4.232-6.378,3.42c0.522-2.608,3.596-2.957,5.798-3.478L143.79,142.747z M148.951,136.833
		c-1.682,1.739-3.363,4.406-6.088,3.884c-0.231-0.579,0.405-1.043,0.463-1.681C145.008,137.876,146.863,137.065,148.951,136.833z
		 M153.125,130.803h0.58c-1.508,1.74-3.072,4.696-5.855,4.29C147.791,132.311,151.154,131.614,153.125,130.803z M157.242,124.31
		c0.232,0.058,0.349-0.173,0.579-0.059c-1.333,1.855-2.609,5.044-5.392,4.87C152.197,126.396,155.328,125.354,157.242,124.31z
		 M161.184,117.293c-1.043,2.088-2.087,5.277-4.986,5.508v-1.681C157.59,119.497,159.271,117.989,161.184,117.293z M163.792,110.046
		c-0.984,2.146-1.448,5.276-4.348,5.856c-0.29-0.638,0-1.393,0-1.971C160.489,112.365,162.112,110.858,163.792,110.046z
		 M165.591,102.624c-0.58,2.204-0.755,5.567-3.596,6.263c-0.695-1.334,0.232-2.493,0.813-3.595L165.591,102.624z M163.735,101.117
		c-1.159-2.261,0.928-4.291,2.262-6.088l0.638-0.522C166.344,96.885,166.518,100.131,163.735,101.117z M164.895,93.986
		c-1.334-2.494,0.754-4.987,2.203-6.9C167.098,89.463,167.562,92.71,164.895,93.986z"/>
</g>
</svg>
