<?xml version="1.0" encoding="utf-8"?>
<!-- Generator: Adobe Illustrator 13.0.1, SVG Export Plug-In . SVG Version: 6.00 Build 14948)  -->
<!DOCTYPE svg PUBLIC "-//W3C//DTD SVG 1.1//EN" "http://www.w3.org/Graphics/SVG/1.1/DTD/svg11.dtd">
<svg version="1.1" id="Layer_1" xmlns="http://www.w3.org/2000/svg" xmlns:xlink="http://www.w3.org/1999/xlink" x="0px" y="0px"
	 width="158.5px" height="140.101px" viewBox="0 0 158.5 140.101" enable-background="new 0 0 158.5 140.101" xml:space="preserve">
<g>
	<defs>
		<rect id="SVGID_1_" x="0.643" y="-31.542" width="156.489" height="185.506"/>
	</defs>
	<clipPath id="SVGID_2_">
		<use xlink:href="#SVGID_1_"  overflow="visible"/>
	</clipPath>
	<path clip-path="url(#SVGID_2_)" fill="#ACE1FA" d="M154.806,73.992c-2.206-4.426-3.175-1.52-10.367-4.93
		c0,0-8.701-6.454-11.849-6.454c0,0-3.172-0.789-8.778,4.818c-2.45,2.449-5.699,6.167-4.943,9.891
		c1.098,5.063,11.731-1.521,11.731-1.521c5.047-3.031,2.434,0.988,2.434,0.988c-10.287,22.769-24.501,33.399-39.106,36.68
		c-4.627,1.146-6.453,1.465-10.26,2.668c-1.838,0.623-1.666,1.936-0.589,3.013c0.567,0.674,1.55,1.144,0.809,2.089
		c-1.138,1.14-3.176,1.629-4.682,1.629c-1.574,0-3.977-0.489-5.116-1.629c-0.742-0.945,0.242-1.415,0.808-2.089
		c1.078-1.077,1.25-2.39-0.589-3.013c-3.806-1.203-5.632-1.522-10.259-2.668c-14.604-3.281-28.819-13.911-39.106-36.68
		c0,0-2.613-4.019,2.434-0.988c0,0,10.633,6.584,11.731,1.521c0.756-3.724-2.494-7.442-4.943-9.891
		c-5.607-5.607-8.778-4.818-8.778-4.818c-3.148,0-11.85,6.454-11.85,6.454c-7.191,3.41-8.16,0.504-10.366,4.93
		c-1.9,4.755,3.397,7.331,3.397,7.331s3.656-3.424,7.496-5.247c1.268,0.423,3.595,2.972,4.003,3.659l-5.87,2.764
		c9.895,27.211,28.279,40.249,45.8,45.045v0.011c4.21,1.305,5.39,1.407,12.163,3.088c0.412,0.128,0.722,0.241,0.157,1.415
		c-1.219,2.208,0.711,3.089,1.954,3.86c1.759,0.949,3.837,1.537,6.026,1.574v0.005c0.019,0,0.037-0.002,0.056-0.002
		s0.039,0.002,0.058,0.002v-0.005c0.124-0.003,1.017-0.003,1.154,0v0.005c0.019,0,0.038-0.002,0.057-0.002
		c0.02,0,0.038,0.002,0.057,0.002v-0.005c2.189-0.037,4.267-0.625,6.026-1.574c1.243-0.771,3.172-1.652,1.954-3.86
		c-0.565-1.174-0.255-1.287,0.157-1.415c6.773-1.681,7.953-1.783,12.163-3.088v-0.011c17.521-4.796,35.905-17.834,45.8-45.045
		l-5.87-2.764c0.408-0.687,2.735-3.236,4.002-3.659c3.841,1.823,7.497,5.247,7.497,5.247S156.706,78.748,154.806,73.992"/>
	<path clip-path="url(#SVGID_2_)" fill="none" stroke="#000000" stroke-width="0.67" d="M154.806,73.992
		c-2.206-4.426-3.175-1.52-10.367-4.93c0,0-8.701-6.454-11.849-6.454c0,0-3.172-0.789-8.778,4.818
		c-2.45,2.449-5.699,6.167-4.943,9.891c1.098,5.063,11.731-1.521,11.731-1.521c5.047-3.031,2.434,0.988,2.434,0.988
		c-10.287,22.769-24.501,33.399-39.106,36.68c-4.627,1.146-6.453,1.465-10.26,2.668c-1.838,0.623-1.666,1.936-0.589,3.013
		c0.567,0.674,1.55,1.144,0.809,2.089c-1.138,1.14-3.176,1.629-4.682,1.629c-1.574,0-3.977-0.489-5.116-1.629
		c-0.742-0.945,0.242-1.415,0.808-2.089c1.078-1.077,1.25-2.39-0.589-3.013c-3.806-1.203-5.632-1.522-10.259-2.668
		c-14.604-3.281-28.819-13.911-39.106-36.68c0,0-2.613-4.019,2.434-0.988c0,0,10.633,6.584,11.731,1.521
		c0.756-3.724-2.494-7.442-4.943-9.891c-5.607-5.607-8.778-4.818-8.778-4.818c-3.148,0-11.85,6.454-11.85,6.454
		c-7.191,3.41-8.16,0.504-10.366,4.93c-1.9,4.755,3.397,7.331,3.397,7.331s3.656-3.424,7.496-5.247
		c1.268,0.423,3.595,2.972,4.003,3.659l-5.87,2.764c9.895,27.211,28.279,40.249,45.8,45.045v0.011
		c4.21,1.305,5.39,1.407,12.163,3.088c0.412,0.128,0.722,0.241,0.157,1.415c-1.219,2.208,0.711,3.089,1.954,3.86
		c1.759,0.949,3.837,1.537,6.026,1.574v0.005c0.019,0,0.037-0.002,0.056-0.002s0.039,0.002,0.058,0.002v-0.005
		c0.124-0.003,1.017-0.003,1.154,0v0.005c0.019,0,0.038-0.002,0.057-0.002c0.02,0,0.038,0.002,0.057,0.002v-0.005
		c2.189-0.037,4.267-0.625,6.026-1.574c1.243-0.771,3.172-1.652,1.954-3.86c-0.565-1.174-0.255-1.287,0.157-1.415
		c6.773-1.681,7.953-1.783,12.163-3.088v-0.011c17.521-4.796,35.905-17.834,45.8-45.045l-5.87-2.764
		c0.408-0.687,2.735-3.236,4.002-3.659c3.841,1.823,7.497,5.247,7.497,5.247S156.706,78.748,154.806,73.992z"/>
	<path clip-path="url(#SVGID_2_)" fill="#0058A9" d="M121.486,79.255c0,0,6.259,1.64,8.255,4.182c1.776-3.39,4.427-8.2,3.99-8.583
		c-0.437-0.382-1.859,0.192-2.651,0.656C130.288,75.976,122.716,80.021,121.486,79.255"/>
	<path clip-path="url(#SVGID_2_)" fill="#0058A9" d="M36.502,79.255c0,0-6.259,1.64-8.255,4.182c-1.777-3.39-4.427-8.2-3.99-8.583
		c0.437-0.382,1.858,0.192,2.651,0.656C27.701,75.976,35.272,80.021,36.502,79.255"/>
	<path clip-path="url(#SVGID_2_)" fill="#A3DEF9" d="M79.116,5.425H33.605l-0.294,28.384c-0.379,13.936,5.515,28.713,5.515,28.713
		c11.156,29.554,40.29,44.357,40.29,44.357"/>
	<path clip-path="url(#SVGID_2_)" fill="#ACE1FA" d="M78.628,5.425h45.511l0.293,28.384c0.38,13.936-5.515,28.713-5.515,28.713
		c-11.156,29.554-40.289,44.357-40.289,44.357"/>
	<path clip-path="url(#SVGID_2_)" fill="#0058A9" d="M40.059,67.372c0,0-5.746-11.686-6.951-26.938V6.195h91.049l0.337,28.521
		c0,0,0.817,12.791-7.214,32.756c-9.221-9.478-38.588-38.75-38.588-38.75L40.059,67.372z"/>
	<path clip-path="url(#SVGID_2_)" fill="none" stroke="#000000" stroke-width="0.976" stroke-miterlimit="8" d="M40.059,67.372
		c0,0-5.746-11.686-6.951-26.938V6.195h91.049l0.337,28.521c0,0,0.817,12.791-7.214,32.756c-9.221-9.478-38.588-38.75-38.588-38.75
		L40.059,67.372z"/>
	<path clip-path="url(#SVGID_2_)" fill="#0058A9" d="M79.122,54.411L50.813,83.166c0,0,11.235,14.91,28.298,23.667
		c5.278-2.694,18.767-11.766,28.534-23.667C96.419,71.491,79.122,54.411,79.122,54.411"/>
	<path clip-path="url(#SVGID_2_)" fill="none" stroke="#000000" stroke-width="0.976" stroke-miterlimit="8" d="M79.122,54.411
		L50.813,83.166c0,0,11.235,14.91,28.298,23.667c5.278-2.694,18.767-11.766,28.534-23.667
		C96.419,71.491,79.122,54.411,79.122,54.411z"/>
	<path clip-path="url(#SVGID_2_)" fill="#FFFFFF" d="M66.547,22.074c-0.299-1.738-1.703-2.948-3.421-3.086
		c-3.07-0.246-5.719,1.396-8.698,1.921c-0.238,0.042-0.557-0.465-0.848-0.755c1.382-1.04,1.195-3.081-0.405-3.963
		c-0.109-0.126-0.07-1.301-0.007-1.354c0.13-0.108,1.15,0.087,1.295-0.04c0.145-0.126,0.115-1.348,0.024-1.466
		c-0.093-0.117-1.244,0.009-1.307-0.069c-0.066-0.08,0.031-1.182-0.077-1.268c-0.107-0.086-0.674-0.066-0.692-0.066
		s-0.584-0.02-0.69,0.066c-0.109,0.086-0.012,1.188-0.077,1.268c-0.064,0.078-1.215-0.048-1.308,0.069
		c-0.091,0.118-0.121,1.34,0.024,1.466c0.145,0.127,1.165-0.068,1.295,0.04c0.063,0.053,0.103,1.228-0.007,1.354
		c-1.599,0.882-1.787,2.923-0.405,3.963c-0.29,0.29-0.61,0.797-0.848,0.755c-2.978-0.525-5.629-2.167-8.699-1.921
		c-1.718,0.138-3.12,1.348-3.42,3.086c-0.537,3.129,1.711,5.535,2.801,8.19c0.346,0.839,0.649,1.966,0.595,2.935
		c0,0,10.596,0,10.736,0.001h0.003h0.004c0.14-0.001,10.736-0.001,10.736-0.001c-0.053-0.969,0.249-2.096,0.595-2.935
		C64.836,27.608,67.084,25.203,66.547,22.074 M51.024,29.001c-0.276,1.57-1.148,2.569-1.875,2.573
		c-0.475,0.002-0.858-0.177-1.205-0.482c-0.479-0.418-0.869-1.107-0.743-1.513c0.105-0.136,1.394,0.059,1.486-0.068
		c0.092-0.129-0.157-1.131-0.303-1.262c-0.146-0.129-1.309,0.044-1.465-0.084c-0.155-0.126-0.299-1.37-0.458-1.446
		c0,0-1.231-0.184-1.32-0.008c-0.09,0.175,0.415,1.213,0.33,1.389c-0.087,0.179-1.716-0.154-1.745,0.029
		c-0.028,0.183,0.094,1.098,0.25,1.232c0.157,0.136,1.676,0.145,1.676,0.145c0.316,0.241,0.399,0.732,0.401,1.232
		c0.003,0.637-0.493,0.964-1.282,0.745c-1.472-0.412-3.14-3.663-4.222-5.874c-0.796-1.625-1.15-3.942,0.94-4.738
		c1.274-0.486,2.377-0.257,3.747,0.15c1.435,0.427,2.579,1.004,4.395,1.582c0.422,0.135-0.336,0.115,0.749,2.31
		C50.877,25.917,51.217,27.904,51.024,29.001 M60.053,31.483c-0.789,0.219-1.284-0.108-1.282-0.745
		c0.001-0.5,0.084-0.991,0.401-1.232c0,0,1.519-0.009,1.676-0.145c0.157-0.134,0.279-1.049,0.25-1.232
		c-0.029-0.183-1.657,0.15-1.745-0.029c-0.085-0.176,0.42-1.214,0.33-1.389c-0.09-0.176-1.319,0.008-1.319,0.008
		c-0.16,0.076-0.304,1.32-0.459,1.446c-0.157,0.128-1.319-0.045-1.465,0.084c-0.146,0.131-0.393,1.133-0.303,1.262
		c0.093,0.127,1.38-0.068,1.486,0.068c0.125,0.406-0.264,1.095-0.743,1.513c-0.347,0.305-0.729,0.484-1.205,0.482
		c-0.727-0.004-1.6-1.003-1.875-2.573c-0.193-1.097,0.146-3.085,0.643-4.088c1.086-2.195,0.329-2.175,0.751-2.31
		c1.815-0.578,2.959-1.155,4.395-1.582c1.37-0.407,2.473-0.636,3.747-0.15c2.089,0.796,1.734,3.113,0.939,4.738
		C63.191,27.82,61.523,31.071,60.053,31.483"/>
	<polygon clip-path="url(#SVGID_2_)" fill="#FFFFFF" points="52.409,34.653 41.427,34.653 41.427,36.498 52.409,36.498 
		63.392,36.498 63.392,34.653 	"/>
	<path clip-path="url(#SVGID_2_)" fill="none" stroke="#000000" stroke-width="0.67" d="M84.086,120.289l3.301,11.066
		 M73.826,120.571L70.619,131.2 M120.986,79.196c0,0,2.116,0.306,4.68,1.481c2.564,1.174,4.178,2.788,4.178,2.788 M140.307,79.922
		c0,0-1.671-0.467-2.879-1.858c-1.01-1.161-2.206-4.569-4.614-3.335 M134.216,62.958c0,0,5.738,1.88,4.112,7.156
		c-1.974,4.018-7.11-0.476-4.599-2.986 M137.922,70.24c0,0-1.931-0.849-4.193-3.111c-3.537,4.245,7.324,7.729,7.324,7.729
		s1.791,0.374,3.359,1.467 M37.31,79.138c0,0-2.312,0.364-4.875,1.539c-2.564,1.174-4.177,2.788-4.177,2.788 M17.945,79.793
		c0,0,1.521-0.52,2.729-1.729c1.088-1.087,2.258-4.516,4.666-3.283 M23.967,62.876c0,0-5.82,1.962-4.193,7.238
		c1.974,4.018,7.109-0.476,4.599-2.986 M20.18,70.24c0,0,1.931-0.849,4.193-3.111c3.535,4.245-7.325,7.729-7.325,7.729
		s-1.534,0.432-3.101,1.277"/>
	<path clip-path="url(#SVGID_2_)" d="M22.188,89.881c-0.633,0.33-0.621,0.397-0.5,0.716l0.055,0.15
		c-0.018,0.067-0.129,0.116-0.179,0.078c-0.135-0.288-0.279-0.578-0.426-0.86c-0.146-0.281-0.309-0.578-0.468-0.854
		c-0.002-0.063,0.102-0.126,0.167-0.103l0.091,0.132c0.193,0.281,0.24,0.33,0.874,0l2.222-1.159c0.633-0.33,0.621-0.397,0.5-0.716
		l-0.055-0.15c0.018-0.067,0.129-0.116,0.18-0.078c0.134,0.288,0.278,0.578,0.432,0.872c0.147,0.282,0.302,0.566,0.461,0.842
		c0.002,0.063-0.102,0.125-0.167,0.102l-0.091-0.131c-0.193-0.282-0.24-0.33-0.874,0L22.188,89.881z"/>
	<path clip-path="url(#SVGID_2_)" d="M25.314,94.911c-0.173,0.104-0.882,0.534-1.003,0.633c-0.093-0.011-0.168-0.084-0.208-0.161
		c0.062-0.172,0.149-0.47,0.353-1.2l0.664-2.375c0.177-0.655,0.277-0.985,0.3-1.142c-0.011-0.018-0.075,0.02-0.38,0.205
		l-1.124,0.681c-0.432,0.262-0.958,0.589-1.067,0.798c-0.053,0.108-0.024,0.234,0.046,0.402l0.065,0.146
		c-0.007,0.081-0.12,0.141-0.175,0.089c-0.126-0.235-0.266-0.479-0.408-0.713c-0.157-0.259-0.264-0.422-0.406-0.63
		c-0.001-0.068,0.089-0.139,0.16-0.114l0.111,0.118c0.088,0.107,0.178,0.204,0.296,0.191c0.228-0.028,0.729-0.332,1.184-0.608
		l1.366-0.828c0.449-0.272,0.545-0.321,0.585-0.632c0.01-0.1-0.048-0.3-0.083-0.397l-0.039-0.103
		c0.009-0.064,0.128-0.128,0.182-0.076c0.119,0.248,0.33,0.583,0.424,0.738c0.078,0.129,0.174,0.274,0.275,0.414
		c-0.184,0.255-0.503,1.367-0.591,1.716l-0.249,0.993c-0.108,0.42-0.371,1.363-0.368,1.446c0.028,0.008,0.057-0.009,0.149-0.065
		l1.124-0.681c0.432-0.263,0.958-0.59,1.064-0.805c0.052-0.108,0.027-0.228-0.043-0.396l-0.069-0.152
		c0.007-0.08,0.12-0.141,0.175-0.089c0.134,0.248,0.266,0.479,0.412,0.719c0.161,0.266,0.263,0.422,0.41,0.637
		c0.001,0.067-0.09,0.139-0.16,0.114l-0.115-0.124c-0.088-0.108-0.175-0.198-0.293-0.185c-0.231,0.021-0.732,0.325-1.187,0.601
		L25.314,94.911z"/>
	<path clip-path="url(#SVGID_2_)" d="M27.992,98.8c-0.27,0.202-0.456,0.358-0.483,0.513c-0.024,0.126,0.002,0.251,0.346,0.713
		c0.479,0.641,0.575,0.714,1.329,0.565c0.07,0.038,0.123,0.142,0.101,0.203c-0.261,0.123-0.766,0.302-0.964,0.341
		c-0.17-0.25-0.535-0.752-1.018-1.399l-0.447-0.601c-0.22-0.294-0.441-0.579-0.633-0.814c-0.013-0.062,0.082-0.16,0.148-0.129
		l0.156,0.154c0.235,0.247,0.29,0.287,0.852-0.131l2.009-1.499c0.562-0.419,0.539-0.482,0.374-0.782l-0.099-0.178
		c-0.002-0.061,0.105-0.141,0.166-0.105c0.205,0.297,0.393,0.561,0.591,0.827c0.19,0.254,0.389,0.51,0.589,0.756
		c0.018,0.068-0.086,0.155-0.148,0.129l-0.116-0.111c-0.24-0.244-0.295-0.284-0.857,0.135L27.992,98.8z"/>
	<path clip-path="url(#SVGID_2_)" d="M31.514,102.35c-0.656,0.169-1.479,0.412-1.822,0.537c-0.025,0.002-0.072-0.034-0.104-0.074
		c-0.032-0.038-0.054-0.086-0.061-0.126c0.152-0.239,0.332-0.538,0.467-0.819l1.378-2.781c0.219-0.444,0.25-0.554,0.107-0.81
		l-0.084-0.155c0.004-0.069,0.097-0.146,0.159-0.104c0.169,0.225,0.362,0.468,0.541,0.685c0.207,0.249,0.369,0.434,0.623,0.72
		c0.01,0.075-0.068,0.15-0.146,0.13l-0.146-0.113c-0.127-0.101-0.19-0.124-0.231-0.09c-0.047,0.04-0.124,0.178-0.464,0.844
		l-0.592,1.165c-0.151,0.294-0.332,0.697-0.406,0.852c0.902-0.243,1.894-0.503,2.843-0.794c0.281-0.083,0.309-0.134,0.207-0.331
		l-0.097-0.191c0.009-0.073,0.097-0.136,0.159-0.114c0.179,0.237,0.33,0.43,0.477,0.607c0.166,0.2,0.323,0.379,0.462,0.526
		c0.011,0.066-0.077,0.129-0.141,0.135l-0.141-0.117c-0.132-0.106-0.27-0.198-0.498-0.167c-0.378,0.05-0.859,0.178-1.589,0.362
		L31.514,102.35z"/>
	<path clip-path="url(#SVGID_2_)" d="M35.917,109.207c0.031,0.07-0.074,0.164-0.149,0.127c-0.208-0.23-0.401-0.435-0.603-0.641
		c-0.237-0.241-0.46-0.458-0.692-0.674c-0.021-0.06,0.05-0.171,0.129-0.147l0.161,0.114c0.231,0.178,0.284,0.155,0.611-0.166
		l1.517-1.493c0.183-0.18,0.356-0.35,0.447-0.44l-0.01-0.01c-0.401,0.121-0.616,0.191-0.904,0.282l-1.28,0.39
		c-0.508,0.156-1.294,0.424-1.61,0.553c-0.04-0.001-0.116-0.078-0.131-0.133c0.173-0.343,0.426-1.027,0.55-1.381l0.471-1.365
		c0.106-0.295,0.272-0.732,0.355-0.935l-0.01-0.011c-0.245,0.222-0.63,0.58-0.841,0.769c-0.303,0.277-0.741,0.687-1.135,1.075
		c-0.317,0.312-0.388,0.393-0.204,0.647l0.137,0.197c0.007,0.065-0.084,0.155-0.144,0.132c-0.177-0.199-0.329-0.363-0.516-0.553
		c-0.162-0.165-0.349-0.345-0.556-0.536c-0.021-0.07,0.07-0.159,0.124-0.152l0.096,0.078c0.271,0.218,0.384,0.188,0.707-0.07
		c0.343-0.256,0.665-0.553,1.19-1.018c0.347-0.301,0.775-0.663,1.068-0.951c0.226-0.222,0.251-0.399,0.083-0.627l-0.144-0.203
		c0.004-0.064,0.1-0.148,0.16-0.117c0.142,0.164,0.274,0.307,0.461,0.497c0.177,0.18,0.354,0.36,0.555,0.536
		c-0.268,0.304-0.386,0.684-0.519,1.067l-0.553,1.657c-0.041,0.121-0.149,0.491-0.194,0.666c0.22-0.055,0.425-0.115,0.762-0.224
		l1.397-0.424c0.479-0.148,0.924-0.262,1.327-0.487c0.127,0.148,0.289,0.323,0.4,0.436c0.212,0.216,0.394,0.391,0.545,0.525
		c0.037,0.075-0.044,0.175-0.124,0.152l-0.19-0.146c-0.252-0.197-0.384-0.168-0.638,0.082c-0.711,0.7-1.411,1.409-2.086,2.145
		c-0.307,0.332-0.285,0.421-0.143,0.605L35.917,109.207z"/>
	<path clip-path="url(#SVGID_2_)" d="M38.221,110.118c-0.471,0.537-0.435,0.595-0.207,0.849l0.106,0.119
		c0.007,0.069-0.078,0.156-0.14,0.138c-0.229-0.219-0.469-0.438-0.707-0.647c-0.239-0.209-0.498-0.427-0.746-0.626
		c-0.025-0.058,0.049-0.154,0.118-0.157l0.133,0.089c0.281,0.194,0.343,0.221,0.814-0.316l1.652-1.885
		c0.47-0.537,0.435-0.595,0.206-0.849l-0.105-0.119c-0.007-0.069,0.078-0.156,0.139-0.138c0.23,0.219,0.469,0.438,0.719,0.657
		c0.238,0.208,0.487,0.417,0.734,0.616c0.026,0.059-0.049,0.155-0.118,0.157l-0.132-0.09c-0.282-0.193-0.344-0.22-0.815,0.317
		L38.221,110.118z"/>
	<path clip-path="url(#SVGID_2_)" d="M42.969,113.661c-0.122,0.161-0.624,0.821-0.7,0.957c-0.091,0.024-0.188-0.015-0.253-0.074
		c-0.006-0.181-0.033-0.49-0.112-1.244l-0.255-2.453c-0.076-0.675-0.105-1.019-0.141-1.173c-0.018-0.013-0.062,0.046-0.278,0.33
		l-0.795,1.046c-0.306,0.403-0.675,0.9-0.7,1.136c-0.009,0.119,0.064,0.225,0.191,0.356l0.114,0.112
		c0.024,0.077-0.06,0.175-0.129,0.147c-0.205-0.172-0.424-0.348-0.642-0.513c-0.241-0.183-0.401-0.296-0.609-0.438
		c-0.026-0.061,0.032-0.162,0.106-0.165l0.147,0.07c0.121,0.067,0.241,0.124,0.346,0.068c0.201-0.109,0.556-0.576,0.878-1
		l0.966-1.271c0.318-0.418,0.388-0.499,0.311-0.804c-0.026-0.096-0.154-0.261-0.222-0.338l-0.074-0.081
		c-0.016-0.063,0.071-0.166,0.141-0.139c0.202,0.188,0.522,0.422,0.665,0.531c0.121,0.092,0.262,0.191,0.408,0.285
		c-0.077,0.305,0.035,1.456,0.081,1.812l0.133,1.016c0.054,0.43,0.156,1.404,0.189,1.48c0.029-0.004,0.05-0.03,0.115-0.116
		l0.794-1.046c0.306-0.402,0.676-0.9,0.694-1.139c0.01-0.121-0.058-0.222-0.185-0.353l-0.119-0.116
		c-0.024-0.077,0.06-0.174,0.129-0.147c0.216,0.181,0.424,0.348,0.648,0.518c0.247,0.187,0.4,0.295,0.615,0.442
		c0.025,0.061-0.032,0.162-0.107,0.164l-0.152-0.074c-0.121-0.066-0.235-0.12-0.341-0.064c-0.207,0.105-0.561,0.572-0.883,0.996
		L42.969,113.661z"/>
	<path clip-path="url(#SVGID_2_)" d="M45.813,112.758c0.38-0.604,0.336-0.656,0.075-0.876l-0.091-0.073
		c-0.017-0.067,0.053-0.166,0.116-0.157c0.225,0.157,0.508,0.343,0.776,0.512l1.166,0.733c0.39,0.246,0.748,0.463,0.834,0.502
		c-0.037,0.112-0.284,0.585-0.401,0.854c-0.054,0.03-0.183-0.036-0.21-0.1c0.111-0.393,0.109-0.593-0.058-0.761
		c-0.115-0.128-0.291-0.255-0.455-0.358l-0.409-0.258c-0.262-0.165-0.269-0.154-0.474,0.171l-0.607,0.964
		c-0.093,0.148-0.09,0.158,0.05,0.246l0.293,0.184c0.53,0.334,0.638,0.394,0.835,0.176l0.164-0.167
		c0.074-0.01,0.19,0.063,0.192,0.128c-0.103,0.15-0.244,0.348-0.377,0.559c-0.137,0.217-0.25,0.424-0.359,0.61
		c-0.055,0.02-0.171-0.052-0.199-0.117l0.101-0.255c0.108-0.267,0.012-0.343-0.519-0.678l-0.293-0.184
		c-0.14-0.088-0.153-0.08-0.243,0.062l-0.456,0.724c-0.183,0.291-0.3,0.504-0.27,0.658c0.024,0.126,0.098,0.237,0.611,0.56
		c0.767,0.499,1.006,0.418,1.51,0.091c0.08-0.005,0.173,0.077,0.174,0.156c-0.188,0.217-0.595,0.566-0.777,0.666
		c-0.261-0.18-0.782-0.516-1.496-0.966l-0.695-0.437c-0.269-0.17-0.644-0.398-0.926-0.559c-0.035-0.054,0.024-0.16,0.092-0.173
		l0.24,0.119c0.304,0.152,0.37,0.169,0.751-0.435L45.813,112.758z"/>
	<path clip-path="url(#SVGID_2_)" d="M52.619,116.125c0.119-0.257,0.118-0.272-0.052-0.351l-0.366-0.17
		c-0.601-0.28-0.809-0.294-1.281,0.088c-0.062,0.016-0.191-0.067-0.189-0.14c0.264-0.278,0.538-0.611,0.684-0.804
		c0.021-0.012,0.05-0.006,0.083,0.009c0.026,0.012,0.049,0.03,0.054,0.055c-0.038,0.168,0.05,0.216,0.495,0.423l2.667,1.239
		c0.32,0.149,0.427,0.177,0.571,0.072c0.031,0,0.063,0,0.089,0.012c0.04,0.019,0.067,0.046,0.071,0.07
		c-0.182,0.221-0.478,0.722-0.549,0.926c-0.056,0.034-0.173-0.005-0.212-0.076c0.137-0.516,0.067-0.69-0.633-1.015l-0.372-0.173
		c-0.17-0.079-0.182-0.069-0.302,0.187l-1.226,2.639c-0.301,0.648-0.251,0.694,0.042,0.867l0.224,0.134
		c0.026,0.064-0.032,0.171-0.095,0.171c-0.374-0.188-0.665-0.331-0.953-0.465c-0.287-0.134-0.597-0.271-1.021-0.453
		c-0.041-0.048,0.009-0.173,0.069-0.183l0.288,0.097c0.319,0.118,0.387,0.128,0.688-0.52L52.619,116.125z"/>
	<path clip-path="url(#SVGID_2_)" d="M57.543,120.498c-0.477,0.481-1.06,1.11-1.29,1.394c-0.02,0.014-0.079,0.007-0.127-0.01
		c-0.047-0.017-0.09-0.046-0.118-0.077c0.009-0.284,0.011-0.633-0.017-0.943l-0.239-3.095c-0.04-0.492-0.069-0.603-0.323-0.75
		l-0.151-0.09c-0.032-0.061,0.008-0.176,0.083-0.171c0.26,0.107,0.55,0.217,0.815,0.311c0.306,0.109,0.539,0.185,0.903,0.3
		c0.048,0.059,0.019,0.164-0.058,0.186l-0.184-0.022c-0.16-0.022-0.226-0.009-0.244,0.042c-0.02,0.057-0.016,0.216,0.033,0.963
		l0.088,1.303c0.021,0.329,0.071,0.769,0.087,0.939c0.651-0.67,1.37-1.401,2.036-2.137c0.199-0.215,0.197-0.273,0.009-0.39
		l-0.181-0.114c-0.03-0.067,0.013-0.167,0.079-0.179c0.273,0.112,0.502,0.199,0.72,0.277c0.244,0.087,0.471,0.16,0.666,0.215
		c0.043,0.051,0,0.15-0.052,0.189l-0.181-0.029c-0.168-0.023-0.333-0.032-0.514,0.111c-0.298,0.237-0.647,0.592-1.18,1.125
		L57.543,120.498z"/>
	<path clip-path="url(#SVGID_2_)" d="M64.345,121.805c-0.319,1.288-1.607,1.989-3.02,1.639c-1.581-0.392-2.233-1.657-1.944-2.822
		c0.33-1.333,1.61-2.064,3.079-1.699C64.077,119.323,64.641,120.615,64.345,121.805 M60.379,120.669
		c-0.224,0.903-0.116,2.234,1.081,2.53c0.797,0.198,1.579-0.198,1.905-1.512c0.244-0.988,0.052-2.25-1.06-2.525
		C61.605,118.988,60.724,119.276,60.379,120.669"/>
	<path clip-path="url(#SVGID_2_)" d="M91.561,122.966c-0.148,0.659-0.308,1.499-0.353,1.861c-0.01,0.022-0.063,0.047-0.111,0.058
		c-0.048,0.01-0.099,0.007-0.138-0.005c-0.14-0.246-0.32-0.545-0.504-0.794l-1.805-2.514c-0.289-0.4-0.371-0.478-0.659-0.472
		l-0.173,0.003c-0.058-0.036-0.084-0.154-0.019-0.189c0.273-0.045,0.572-0.102,0.841-0.16c0.311-0.067,0.545-0.124,0.909-0.216
		c0.071,0.026,0.1,0.131,0.048,0.19l-0.165,0.076c-0.144,0.066-0.193,0.111-0.182,0.164c0.013,0.059,0.099,0.192,0.527,0.803
		l0.75,1.065c0.188,0.27,0.459,0.618,0.56,0.755c0.196-0.91,0.415-1.908,0.59-2.882c0.054-0.288,0.021-0.336-0.196-0.337
		l-0.21-0.003c-0.06-0.043-0.076-0.15-0.027-0.195c0.286-0.047,0.522-0.091,0.744-0.138c0.248-0.054,0.475-0.11,0.667-0.164
		c0.062,0.021,0.077,0.127,0.055,0.187l-0.167,0.07c-0.152,0.067-0.294,0.146-0.37,0.363c-0.126,0.357-0.232,0.842-0.4,1.574
		L91.561,122.966z"/>
	<path clip-path="url(#SVGID_2_)" d="M94.918,122.809c0.193,0.688,0.26,0.69,0.591,0.639l0.155-0.023
		c0.061,0.032,0.086,0.151,0.039,0.192c-0.303,0.071-0.611,0.151-0.911,0.235c-0.299,0.085-0.618,0.181-0.913,0.278
		c-0.062-0.011-0.102-0.126-0.067-0.185l0.144-0.061c0.309-0.129,0.365-0.165,0.172-0.853l-0.677-2.413
		c-0.194-0.687-0.261-0.689-0.592-0.638l-0.155,0.022c-0.06-0.032-0.086-0.151-0.039-0.192c0.303-0.071,0.612-0.151,0.925-0.238
		c0.299-0.085,0.604-0.177,0.9-0.274c0.062,0.01,0.102,0.125,0.067,0.184l-0.145,0.061c-0.309,0.129-0.365,0.166-0.172,0.853
		L94.918,122.809z"/>
	<path clip-path="url(#SVGID_2_)" d="M95.966,119.944c-0.212-0.611-0.245-0.686-0.573-0.615l-0.144,0.036
		c-0.058-0.015-0.098-0.13-0.055-0.18c0.467-0.205,0.996-0.41,1.651-0.637c0.635-0.219,1.107-0.326,1.652-0.329
		c0.899,0.002,1.701,0.481,2.03,1.429c0.244,0.706,0.128,1.56-0.562,2.248c-0.395,0.393-0.944,0.669-1.552,0.879
		c-0.408,0.141-0.735,0.212-0.982,0.298c-0.255,0.088-0.553,0.198-0.843,0.313c-0.062-0.007-0.108-0.119-0.077-0.18l0.14-0.071
		c0.301-0.146,0.355-0.187,0.121-0.861L95.966,119.944z M97.462,121.757c0.214,0.618,0.375,0.932,1.084,0.687
		c1.189-0.412,1.447-1.399,1.074-2.475c-0.437-1.261-1.417-1.606-2.533-1.219c-0.281,0.097-0.477,0.222-0.511,0.276
		c-0.033,0.055,0.006,0.191,0.109,0.49L97.462,121.757z"/>
	<path clip-path="url(#SVGID_2_)" d="M101.244,117.984c-0.278-0.657-0.345-0.652-0.67-0.565l-0.109,0.032
		c-0.064-0.024-0.104-0.139-0.063-0.186c0.253-0.092,0.561-0.216,0.848-0.337l1.244-0.528c0.417-0.176,0.792-0.343,0.871-0.391
		c0.071,0.095,0.318,0.568,0.47,0.819c-0.005,0.06-0.13,0.128-0.198,0.112c-0.256-0.315-0.42-0.429-0.65-0.39
		c-0.168,0.02-0.369,0.09-0.544,0.165l-0.436,0.185c-0.281,0.118-0.275,0.131-0.126,0.485l0.445,1.048
		c0.068,0.161,0.077,0.164,0.227,0.101l0.313-0.132c0.567-0.241,0.675-0.294,0.607-0.58l-0.044-0.23
		c0.034-0.065,0.157-0.118,0.211-0.082c0.065,0.17,0.146,0.399,0.244,0.628c0.099,0.236,0.205,0.448,0.295,0.644
		c-0.014,0.057-0.138,0.109-0.206,0.094l-0.15-0.229c-0.156-0.241-0.272-0.206-0.839,0.034l-0.313,0.132
		c-0.149,0.063-0.151,0.079-0.085,0.234l0.334,0.788c0.134,0.316,0.242,0.534,0.384,0.598c0.115,0.054,0.247,0.056,0.794-0.176
		c0.832-0.338,0.899-0.579,0.914-1.178c0.041-0.068,0.159-0.096,0.225-0.051c0.071,0.277,0.127,0.809,0.108,1.016
		c-0.293,0.109-0.855,0.34-1.617,0.663l-0.743,0.315c-0.286,0.121-0.681,0.296-0.969,0.433c-0.062-0.003-0.116-0.112-0.089-0.175
		l0.23-0.127c0.293-0.161,0.344-0.204,0.066-0.862L101.244,117.984z"/>
	<path clip-path="url(#SVGID_2_)" d="M105.103,116.34c-0.288-0.579-0.33-0.649-0.643-0.531l-0.174,0.064
		c-0.065-0.02-0.113-0.117-0.077-0.172c0.273-0.166,0.72-0.426,1.417-0.772c0.532-0.265,0.98-0.427,1.344-0.412
		c0.372,0.018,0.644,0.184,0.833,0.564c0.176,0.356,0.039,0.762-0.335,1.122c-0.022,0.018-0.026,0.043-0.02,0.055
		c0.006,0.012,0.025,0.018,0.068,0.011c0.518-0.167,1.203-0.139,1.542,0.543c0.138,0.277,0.193,0.626,0.012,0.994
		c-0.18,0.383-0.547,0.694-1.27,1.053c-0.278,0.138-0.553,0.252-0.794,0.372c-0.279,0.139-0.573,0.292-0.846,0.443
		c-0.063,0.001-0.123-0.104-0.1-0.168l0.131-0.088c0.279-0.184,0.327-0.231,0.01-0.87L105.103,116.34z M106.168,116.638
		c0.077,0.157,0.1,0.154,0.353,0.028c0.596-0.296,0.757-0.655,0.487-1.198c-0.264-0.53-0.781-0.537-1.174-0.342
		c-0.316,0.157-0.329,0.179-0.209,0.421L106.168,116.638z M106.872,118.056c0.273,0.549,0.448,0.741,0.998,0.467
		c0.437-0.217,0.689-0.681,0.422-1.218c-0.309-0.621-0.935-0.769-1.638-0.419c-0.279,0.138-0.273,0.181-0.214,0.301L106.872,118.056
		z"/>
	<path clip-path="url(#SVGID_2_)" d="M111.036,116.019c0.35,0.623,0.415,0.61,0.725,0.482l0.146-0.059
		c0.066,0.017,0.119,0.127,0.082,0.178c-0.277,0.14-0.558,0.29-0.83,0.443c-0.271,0.152-0.558,0.321-0.823,0.484
		c-0.062,0.004-0.127-0.097-0.108-0.163l0.126-0.093c0.271-0.199,0.316-0.247-0.033-0.87l-1.227-2.186
		c-0.35-0.622-0.415-0.609-0.725-0.481l-0.145,0.058c-0.067-0.017-0.12-0.126-0.084-0.177c0.279-0.141,0.559-0.291,0.843-0.45
		c0.272-0.152,0.546-0.314,0.81-0.478c0.063-0.004,0.129,0.098,0.109,0.163l-0.126,0.094c-0.27,0.198-0.316,0.247,0.034,0.87
		L111.036,116.019z"/>
	<path clip-path="url(#SVGID_2_)" d="M117.636,112.816c0.074-0.016,0.146,0.105,0.095,0.171c-0.262,0.155-0.497,0.3-0.734,0.455
		c-0.278,0.182-0.529,0.354-0.782,0.535c-0.063,0.009-0.156-0.083-0.119-0.155l0.141-0.133c0.215-0.189,0.204-0.245-0.047-0.629
		l-1.164-1.783c-0.14-0.214-0.273-0.417-0.343-0.524l-0.012,0.008c0.043,0.415,0.071,0.638,0.106,0.937l0.139,1.325
		c0.056,0.527,0.169,1.346,0.236,1.681c-0.009,0.038-0.098,0.096-0.154,0.101c-0.3-0.239-0.916-0.625-1.236-0.819l-1.235-0.738
		c-0.267-0.164-0.659-0.415-0.84-0.537l-0.012,0.007c0.168,0.284,0.444,0.732,0.587,0.977c0.213,0.351,0.529,0.861,0.831,1.324
		c0.243,0.372,0.308,0.459,0.589,0.331l0.217-0.094c0.063,0.007,0.134,0.115,0.101,0.168c-0.226,0.132-0.414,0.246-0.633,0.39
		c-0.19,0.123-0.399,0.268-0.623,0.43c-0.071,0.007-0.141-0.1-0.124-0.152l0.093-0.077c0.262-0.219,0.254-0.335,0.065-0.702
		c-0.184-0.386-0.412-0.761-0.766-1.367c-0.227-0.399-0.497-0.89-0.722-1.234c-0.173-0.265-0.339-0.326-0.592-0.209l-0.224,0.098
		c-0.061-0.016-0.125-0.127-0.083-0.179c0.185-0.105,0.349-0.204,0.568-0.346c0.207-0.136,0.415-0.271,0.623-0.431
		c0.244,0.322,0.59,0.515,0.937,0.723l1.502,0.878c0.11,0.064,0.449,0.246,0.61,0.325c-0.012-0.225-0.032-0.437-0.075-0.787
		l-0.151-1.448c-0.053-0.495-0.081-0.952-0.224-1.39c0.168-0.093,0.367-0.215,0.498-0.3c0.248-0.162,0.452-0.304,0.61-0.423
		c0.08-0.02,0.162,0.079,0.125,0.151l-0.178,0.156c-0.238,0.204-0.234,0.339-0.039,0.638c0.546,0.835,1.102,1.662,1.689,2.47
		c0.265,0.366,0.355,0.363,0.56,0.262L117.636,112.816z"/>
	<path clip-path="url(#SVGID_2_)" d="M119.745,109.269c0.155,0.657,0.38,1.483,0.497,1.827c0.001,0.025-0.035,0.07-0.074,0.101
		c-0.039,0.031-0.086,0.05-0.126,0.057c-0.234-0.16-0.526-0.35-0.801-0.495l-2.724-1.469c-0.434-0.233-0.542-0.268-0.798-0.136
		l-0.155,0.079c-0.068-0.007-0.143-0.103-0.1-0.162c0.226-0.16,0.47-0.342,0.687-0.512c0.25-0.196,0.436-0.35,0.723-0.592
		c0.074-0.007,0.147,0.073,0.125,0.15l-0.114,0.14c-0.101,0.123-0.125,0.184-0.092,0.227c0.037,0.048,0.173,0.129,0.825,0.491
		l1.141,0.63c0.287,0.16,0.682,0.355,0.834,0.434c-0.223-0.904-0.462-1.897-0.732-2.85c-0.077-0.282-0.127-0.312-0.324-0.217
		l-0.19,0.088c-0.072-0.011-0.133-0.1-0.109-0.162c0.236-0.168,0.43-0.311,0.608-0.451c0.2-0.157,0.38-0.306,0.528-0.438
		c0.065-0.009,0.126,0.08,0.131,0.144l-0.118,0.136c-0.108,0.127-0.201,0.26-0.175,0.488c0.044,0.377,0.16,0.858,0.329,1.59
		L119.745,109.269z"/>
	<path clip-path="url(#SVGID_2_)" d="M122.35,109.056c-0.189-0.021-0.568-0.306-0.842-0.621c-0.013-0.078,0.073-0.164,0.146-0.166
		c0.324,0.17,1.089,0.452,1.606-0.01c0.4-0.359,0.42-0.793,0.146-1.099c-0.257-0.286-0.606-0.389-1.19-0.246l-0.334,0.083
		c-0.584,0.143-1.206,0.149-1.611-0.303c-0.445-0.497-0.432-1.268,0.337-1.957c0.274-0.245,0.527-0.364,0.816-0.541
		c0.157,0.058,0.506,0.342,0.717,0.578c0.015,0.069-0.076,0.159-0.155,0.166c-0.313-0.19-0.798-0.361-1.246,0.04
		c-0.422,0.378-0.362,0.795-0.123,1.061c0.188,0.211,0.543,0.299,1.049,0.163l0.475-0.127c0.495-0.136,1.153-0.165,1.607,0.342
		c0.513,0.572,0.419,1.389-0.345,2.073C122.918,108.927,122.509,109.021,122.35,109.056"/>
	<path clip-path="url(#SVGID_2_)" d="M126.712,103.557c0.247,0.229,0.435,0.383,0.591,0.383c0.127,0.002,0.243-0.045,0.627-0.461
		c0.534-0.576,0.586-0.682,0.298-1.392c0.022-0.075,0.114-0.144,0.178-0.134c0.169,0.234,0.439,0.696,0.515,0.882
		c-0.211,0.209-0.629,0.651-1.167,1.232l-0.499,0.541c-0.246,0.264-0.481,0.529-0.673,0.756c-0.058,0.023-0.171-0.053-0.153-0.122
		l0.12-0.179c0.196-0.271,0.224-0.331-0.29-0.807l-1.84-1.702c-0.515-0.476-0.573-0.443-0.834-0.231l-0.154,0.128
		c-0.058,0.013-0.157-0.079-0.133-0.144c0.25-0.25,0.47-0.479,0.692-0.719c0.211-0.227,0.422-0.466,0.624-0.704
		c0.062-0.028,0.167,0.058,0.153,0.122l-0.086,0.133c-0.191,0.276-0.22,0.337,0.295,0.812L126.712,103.557z"/>
	<path clip-path="url(#SVGID_2_)" d="M129.499,99.479c0.295,0.607,0.695,1.364,0.884,1.675c0.006,0.023-0.019,0.075-0.05,0.114
		c-0.032,0.038-0.073,0.068-0.111,0.082c-0.263-0.104-0.59-0.226-0.889-0.307l-2.979-0.839c-0.475-0.133-0.588-0.144-0.809,0.041
		l-0.134,0.11c-0.067,0.008-0.161-0.068-0.132-0.136c0.185-0.205,0.383-0.436,0.558-0.649c0.201-0.247,0.349-0.437,0.576-0.735
		c0.072-0.024,0.159,0.038,0.155,0.118l-0.08,0.162c-0.073,0.142-0.083,0.207-0.041,0.241c0.047,0.039,0.198,0.089,0.913,0.3
		l1.251,0.366c0.315,0.093,0.743,0.197,0.908,0.241c-0.415-0.834-0.865-1.751-1.337-2.622c-0.137-0.258-0.191-0.276-0.362-0.141
		l-0.167,0.128c-0.073,0.004-0.152-0.069-0.142-0.134c0.194-0.216,0.352-0.398,0.495-0.573c0.161-0.197,0.304-0.382,0.419-0.544
		c0.063-0.022,0.141,0.052,0.161,0.113l-0.087,0.158c-0.077,0.148-0.139,0.298-0.064,0.515c0.125,0.357,0.344,0.802,0.669,1.48
		L129.499,99.479z"/>
	<path clip-path="url(#SVGID_2_)" d="M135.276,93.904c0.062-0.044,0.175,0.041,0.154,0.121c-0.181,0.245-0.34,0.47-0.498,0.704
		c-0.185,0.277-0.349,0.533-0.512,0.799c-0.054,0.031-0.176-0.016-0.17-0.097l0.079-0.178c0.124-0.257,0.091-0.305-0.289-0.56
		l-1.768-1.188c-0.212-0.142-0.413-0.278-0.519-0.349l-0.009,0.012c0.202,0.365,0.314,0.56,0.463,0.822l0.645,1.166
		c0.257,0.463,0.681,1.173,0.872,1.455c0.007,0.039-0.052,0.127-0.102,0.153c-0.369-0.103-1.087-0.219-1.457-0.271l-1.425-0.199
		c-0.31-0.047-0.769-0.125-0.984-0.167l-0.008,0.012c0.267,0.196,0.695,0.501,0.922,0.67c0.333,0.241,0.823,0.587,1.282,0.895
		c0.369,0.248,0.462,0.302,0.67,0.076l0.165-0.171c0.06-0.019,0.167,0.053,0.158,0.115c-0.158,0.209-0.285,0.388-0.431,0.605
		c-0.126,0.188-0.263,0.403-0.406,0.639c-0.063,0.034-0.17-0.036-0.174-0.091l0.056-0.107c0.156-0.304,0.104-0.408-0.214-0.672
		c-0.321-0.284-0.676-0.54-1.238-0.96c-0.365-0.279-0.805-0.626-1.146-0.855c-0.263-0.177-0.44-0.168-0.627,0.038l-0.167,0.178
		c-0.064,0.008-0.166-0.069-0.147-0.133c0.13-0.168,0.242-0.323,0.388-0.541c0.138-0.205,0.276-0.411,0.405-0.639
		c0.351,0.202,0.745,0.245,1.145,0.301l1.726,0.222c0.127,0.017,0.509,0.052,0.689,0.062c-0.099-0.203-0.201-0.39-0.377-0.696
		l-0.702-1.273c-0.243-0.436-0.447-0.846-0.749-1.194c0.118-0.15,0.254-0.34,0.34-0.47c0.166-0.246,0.299-0.456,0.398-0.627
		c0.065-0.05,0.18,0.01,0.174,0.091l-0.102,0.212c-0.14,0.281-0.084,0.404,0.211,0.603c0.828,0.556,1.664,1.101,2.519,1.615
		c0.387,0.235,0.469,0.196,0.617,0.024L135.276,93.904z"/>
	<path clip-path="url(#SVGID_2_)" d="M133.106,90.978c-0.626-0.344-0.674-0.298-0.876-0.029l-0.066,0.093
		c-0.065,0.021-0.168-0.044-0.164-0.107c0.14-0.229,0.307-0.517,0.457-0.79l0.65-1.184c0.218-0.397,0.409-0.759,0.442-0.847
		c0.114,0.03,0.601,0.25,0.875,0.352c0.033,0.051-0.023,0.181-0.085,0.211c-0.397-0.089-0.596-0.077-0.752,0.096
		c-0.12,0.12-0.234,0.299-0.326,0.466l-0.228,0.416c-0.146,0.266-0.134,0.273,0.202,0.458l0.998,0.548
		c0.154,0.084,0.163,0.081,0.241-0.061l0.164-0.298c0.296-0.539,0.348-0.648,0.118-0.831l-0.177-0.153
		c-0.014-0.073,0.051-0.191,0.115-0.196c0.156,0.094,0.362,0.223,0.58,0.343c0.224,0.123,0.438,0.225,0.631,0.322
		c0.024,0.054-0.041,0.172-0.104,0.202l-0.26-0.087c-0.272-0.092-0.341,0.007-0.637,0.546l-0.164,0.297
		c-0.078,0.143-0.07,0.156,0.078,0.237l0.75,0.412c0.301,0.165,0.52,0.27,0.671,0.232c0.125-0.029,0.229-0.108,0.515-0.629
		c0.445-0.782,0.349-1.012-0.011-1.491c-0.01-0.079,0.065-0.174,0.145-0.179c0.227,0.173,0.601,0.556,0.712,0.73
		c-0.161,0.267-0.46,0.797-0.858,1.522l-0.388,0.707c-0.15,0.272-0.352,0.654-0.493,0.94c-0.051,0.036-0.161-0.016-0.178-0.082
		l0.102-0.243c0.13-0.307,0.143-0.373-0.482-0.716L133.106,90.978z"/>
	<path clip-path="url(#SVGID_2_)" d="M138.8,84.713c0.184,0.083,0.94,0.424,1.09,0.468c0.044,0.082,0.028,0.184-0.013,0.258
		c-0.176,0.045-0.469,0.138-1.182,0.375l-2.32,0.77c-0.637,0.218-0.963,0.319-1.105,0.387c-0.009,0.019,0.059,0.049,0.384,0.196
		l1.198,0.54c0.461,0.208,1.029,0.456,1.262,0.429c0.118-0.016,0.205-0.109,0.302-0.259l0.082-0.134
		c0.069-0.039,0.183,0.02,0.173,0.093c-0.12,0.233-0.24,0.482-0.35,0.727c-0.122,0.271-0.194,0.448-0.284,0.679
		c-0.054,0.038-0.164,0.004-0.184-0.067l0.033-0.156c0.037-0.131,0.065-0.258-0.013-0.348c-0.152-0.169-0.687-0.41-1.172-0.629
		l-1.456-0.656c-0.479-0.216-0.575-0.267-0.851-0.127c-0.088,0.046-0.218,0.204-0.277,0.286l-0.063,0.089
		c-0.056,0.028-0.177-0.034-0.165-0.107c0.134-0.234,0.288-0.591,0.361-0.752c0.061-0.136,0.125-0.293,0.182-0.454
		c0.313,0.009,1.404-0.344,1.739-0.465l0.954-0.346c0.405-0.144,1.326-0.449,1.392-0.497c-0.01-0.028-0.04-0.042-0.138-0.086
		l-1.198-0.541c-0.461-0.207-1.029-0.455-1.265-0.422c-0.119,0.017-0.202,0.103-0.3,0.253l-0.084,0.14
		c-0.07,0.039-0.183-0.02-0.173-0.093c0.126-0.246,0.239-0.482,0.353-0.733c0.125-0.278,0.194-0.448,0.286-0.686
		c0.054-0.037,0.165-0.003,0.184,0.068l-0.036,0.162c-0.036,0.131-0.061,0.251,0.017,0.341c0.149,0.176,0.684,0.417,1.169,0.635
		L138.8,84.713z"/>
	<path clip-path="url(#SVGID_2_)" fill="none" stroke="#000000" stroke-width="1.464" stroke-miterlimit="8" d="M78.867,5.658
		h45.653l0.294,28.472c0.38,13.98-5.532,28.802-5.532,28.802c-11.191,29.647-40.415,44.495-40.415,44.495 M78.867,5.658H33.214
		L32.919,34.13c-0.38,13.98,5.533,28.802,5.533,28.802c11.191,29.647,40.415,44.495,40.415,44.495"/>
	<path clip-path="url(#SVGID_2_)" fill="#FFFFFF" d="M117.895,21.776c-0.299-1.738-1.704-2.948-3.421-3.086
		c-3.07-0.246-5.719,1.396-8.698,1.921c-0.238,0.043-0.557-0.465-0.849-0.755c1.383-1.04,1.195-3.081-0.404-3.963
		c-0.11-0.126-0.07-1.301-0.007-1.354c0.13-0.108,1.15,0.088,1.295-0.04c0.145-0.126,0.115-1.348,0.023-1.466
		c-0.093-0.117-1.243,0.009-1.307-0.069c-0.065-0.08,0.032-1.182-0.077-1.268c-0.106-0.085-0.672-0.065-0.691-0.065
		c-0.017,0-0.584-0.02-0.69,0.065c-0.109,0.086-0.012,1.188-0.077,1.268c-0.064,0.078-1.215-0.048-1.307,0.069
		c-0.092,0.118-0.122,1.34,0.022,1.466c0.146,0.128,1.166-0.068,1.296,0.04c0.063,0.053,0.104,1.228-0.007,1.354
		c-1.599,0.882-1.787,2.923-0.405,3.963c-0.29,0.29-0.61,0.798-0.848,0.755c-2.979-0.525-5.629-2.167-8.7-1.921
		c-1.717,0.138-3.119,1.348-3.419,3.086c-0.537,3.129,1.711,5.535,2.802,8.19c0.345,0.839,0.648,1.966,0.593,2.935
		c0,0,10.597,0,10.737,0.002h0.003h0.004c0.14-0.002,10.737-0.002,10.737-0.002c-0.055-0.969,0.248-2.096,0.593-2.935
		C116.184,27.311,118.432,24.905,117.895,21.776 M102.372,28.704c-0.276,1.571-1.148,2.569-1.875,2.574
		c-0.475,0.001-0.858-0.178-1.205-0.483c-0.478-0.417-0.869-1.106-0.743-1.513c0.105-0.137,1.394,0.059,1.487-0.068
		c0.091-0.129-0.158-1.131-0.304-1.262c-0.146-0.129-1.309,0.044-1.465-0.083c-0.155-0.127-0.299-1.372-0.458-1.447
		c0,0-1.231-0.184-1.32-0.008c-0.09,0.175,0.415,1.213,0.33,1.389c-0.087,0.178-1.716-0.154-1.745,0.029
		c-0.028,0.183,0.094,1.098,0.25,1.232C95.48,29.2,97,29.209,97,29.209c0.315,0.241,0.398,0.732,0.4,1.233
		c0.003,0.636-0.493,0.963-1.282,0.744c-1.472-0.412-3.14-3.663-4.222-5.874c-0.795-1.625-1.15-3.942,0.94-4.738
		c1.274-0.486,2.377-0.257,3.746,0.15c1.436,0.427,2.579,1.004,4.396,1.582c0.422,0.135-0.336,0.114,0.749,2.31
		C102.225,25.619,102.563,27.607,102.372,28.704 M111.4,31.186c-0.789,0.219-1.284-0.108-1.282-0.744
		c0.001-0.501,0.084-0.992,0.401-1.233c0,0,1.52-0.009,1.676-0.145c0.157-0.134,0.279-1.049,0.25-1.232
		c-0.029-0.183-1.657,0.149-1.745-0.029c-0.085-0.176,0.42-1.214,0.33-1.389c-0.09-0.176-1.319,0.008-1.319,0.008
		c-0.16,0.075-0.304,1.32-0.46,1.447c-0.156,0.127-1.319-0.046-1.464,0.083c-0.146,0.131-0.394,1.133-0.302,1.262
		c0.092,0.127,1.38-0.069,1.485,0.068c0.125,0.407-0.265,1.096-0.743,1.513c-0.347,0.305-0.729,0.484-1.205,0.483
		c-0.727-0.005-1.6-1.003-1.876-2.574c-0.192-1.097,0.147-3.085,0.644-4.088c1.087-2.196,0.329-2.175,0.751-2.31
		c1.815-0.578,2.959-1.155,4.395-1.582c1.37-0.407,2.473-0.636,3.747-0.15c2.089,0.796,1.734,3.113,0.94,4.738
		C114.539,27.523,112.871,30.774,111.4,31.186"/>
	<polygon clip-path="url(#SVGID_2_)" fill="#FFFFFF" points="103.755,34.355 92.773,34.355 92.773,36.201 103.755,36.201 
		114.739,36.201 114.739,34.355 	"/>
	<path clip-path="url(#SVGID_2_)" fill="#FFFFFF" d="M93.691,77.014c-0.299-1.738-1.703-2.948-3.42-3.086
		c-3.071-0.246-5.72,1.396-8.699,1.921c-0.238,0.043-0.557-0.464-0.849-0.755c1.383-1.04,1.195-3.081-0.404-3.963
		c-0.109-0.126-0.07-1.301-0.007-1.354c0.13-0.109,1.151,0.087,1.295-0.04c0.145-0.126,0.115-1.349,0.024-1.466
		c-0.093-0.117-1.244,0.009-1.308-0.069c-0.065-0.08,0.033-1.181-0.076-1.268c-0.107-0.085-0.673-0.066-0.692-0.066
		c-0.018,0-0.584-0.019-0.69,0.066c-0.109,0.087-0.012,1.188-0.077,1.268c-0.064,0.078-1.215-0.048-1.308,0.069
		c-0.091,0.117-0.121,1.34,0.024,1.466c0.145,0.127,1.165-0.069,1.295,0.04c0.063,0.053,0.103,1.228-0.007,1.354
		c-1.599,0.882-1.787,2.923-0.405,3.963c-0.289,0.291-0.61,0.798-0.848,0.755c-2.978-0.525-5.628-2.167-8.699-1.921
		c-1.718,0.138-3.12,1.348-3.42,3.086c-0.537,3.129,1.711,5.534,2.801,8.19c0.346,0.839,0.649,1.966,0.595,2.935
		c0,0,10.596,0,10.736,0.002h0.003h0.004c0.14-0.002,10.737-0.002,10.737-0.002c-0.055-0.969,0.247-2.096,0.594-2.935
		C91.98,82.548,94.229,80.143,93.691,77.014 M78.168,83.942c-0.276,1.571-1.148,2.569-1.875,2.573
		c-0.475,0.002-0.858-0.177-1.205-0.482c-0.478-0.417-0.869-1.106-0.743-1.513c0.105-0.137,1.394,0.059,1.486-0.068
		c0.092-0.129-0.157-1.132-0.303-1.262c-0.146-0.129-1.309,0.044-1.465-0.083c-0.155-0.127-0.299-1.372-0.458-1.447
		c0,0-1.231-0.184-1.32-0.008c-0.09,0.175,0.415,1.213,0.33,1.389c-0.087,0.178-1.716-0.154-1.745,0.029
		c-0.028,0.183,0.094,1.098,0.25,1.232c0.157,0.136,1.677,0.145,1.677,0.145c0.315,0.241,0.398,0.732,0.4,1.233
		c0.003,0.636-0.493,0.963-1.282,0.744c-1.472-0.412-3.14-3.663-4.222-5.874c-0.795-1.625-1.15-3.942,0.94-4.738
		c1.274-0.487,2.376-0.257,3.747,0.15c1.435,0.426,2.579,1.004,4.396,1.582c0.421,0.135-0.337,0.115,0.748,2.309
		C78.021,80.857,78.361,82.845,78.168,83.942 M87.196,86.424c-0.789,0.219-1.284-0.108-1.282-0.744
		c0.002-0.501,0.084-0.992,0.401-1.233c0,0,1.52-0.009,1.676-0.145c0.157-0.134,0.279-1.049,0.25-1.232
		c-0.029-0.183-1.657,0.149-1.744-0.029c-0.086-0.176,0.419-1.214,0.329-1.389c-0.09-0.176-1.319,0.008-1.319,0.008
		c-0.16,0.075-0.304,1.32-0.459,1.447c-0.157,0.127-1.32-0.046-1.464,0.083c-0.147,0.13-0.394,1.133-0.303,1.262
		c0.092,0.127,1.38-0.069,1.486,0.068c0.124,0.407-0.265,1.096-0.744,1.513c-0.346,0.305-0.729,0.484-1.205,0.482
		c-0.727-0.004-1.599-1.002-1.875-2.573c-0.193-1.097,0.146-3.085,0.643-4.089c1.087-2.194,0.329-2.174,0.751-2.309
		c1.815-0.578,2.96-1.156,4.395-1.582c1.37-0.407,2.473-0.637,3.747-0.15c2.089,0.796,1.735,3.113,0.94,4.738
		C90.335,82.761,88.667,86.012,87.196,86.424"/>
	<polygon clip-path="url(#SVGID_2_)" fill="#FFFFFF" points="79.552,89.593 68.57,89.593 68.57,91.438 79.552,91.438 90.535,91.438 
		90.535,89.593 	"/>
	
		<rect x="-0.989" y="-51.009" clip-path="url(#SVGID_2_)" fill="none" stroke="#000000" stroke-width="0.201" width="159.446" height="225.067"/>
	<polygon clip-path="url(#SVGID_2_)" points="78.293,107.958 78.847,108.259 79.35,107.996 79.086,106.963 78.633,107.14 	"/>
</g>
</svg>
