<svg xmlns="http://www.w3.org/2000/svg" height="292.23" viewBox="0 0 292.22733 292.23438" width="292.23"><g transform="matrix(1.25 0 0 -1.25 -468.22 586.21)"><g><g><path d="m483.24 236.74c2.7415-0.19623 5.508-0.29555 8.2995-0.29555 63.892 0 115.69 51.798 115.69 115.7 0 63.891-51.798 115.69-115.69 115.69-63.896 0-115.69-51.801-115.69-115.69 0-61.106 47.373-111.15 107.39-115.4" fill="#646469"/><path d="m145.73 17.07c-1.96 0.029-3.82 0.48-4.43 1.383-2.34 3.452-1.48 7.998-0.95 12.42 0.53 4.424 3.58 22.272 4.1 26.586 0.52 4.313 0.52 6.658-0.25 5.852-0.89-0.926-9.81-38.13-10.86-40.092-1.04-1.957-4.16-2.262-5.95-1.629-1.29 0.452-3.87 2.277-3.1 4.58 0.49 1.494 15.99 37.264 15.46 38.109-0.42 0.672-2.25-1.966-3.16-4.058-0.92-2.093-7.03-13.125-9.78-17.961-2.74-4.841-5.45-12.543-10.25-12.19-4.01 0.299-4.57 3.066-4.4 6.227 0.2 3.476 15.37 23.375 16.59 25.008 2.51 3.348 5.65 8.363 5.24 10.791-0.82 4.912-3.53 11.108-4.18 12.158-0.66 1.046-6.32 8.357-6.28 14.377 0.05 5.999-0.64 5.169-0.64 5.169s-1.65 0.82-3.18-5.29c0 0-0.4-1.451-0.64-3.305-0.29-2.279-1.91-4.199-2.68-4.394-0.76-0.188-2.48-0.573-2.86 4.203-0.2 2.479 0.65 4.469 2.1 5.926 2.1 2.1 1.34 4.39-1.15 2.1-1.29-1.2-2.05-3.116-2.48-4.397-1.14-3.439-0.19-6.495-0.19-6.495 0.38-4.965-2.29-8.593-2.29-8.593-3.63-7.455-6.5-0.765-7.13 0.427-0.83 1.573-0.42 7.034 0.83 9.727 0.06 0.145 1.8 5.426 4.39 8.181 2.86 3.06 0.19 3.56-0.58 3.25-2.1-0.85-5.29-8.09-6.29-10.398-1.452-3.311-1.919-8.131-1.041-11.793 0 0 0.831-2.069-1.033-7.861-2.042-6.357-5.175-8.279-6.83-5.797-1.385 2.083-2.707 5.653-2.377 10.441 0.384 5.542 1.834 10.338 3.439 14.52 1.675 4.352 4.299 7.168 4.967 8.208 1.718 2.68-1.832 2.94-2.672 2.03-2.116-2.3-2.987-4.867-3.771-6.435-0.783-1.566-1.446-2.482-3.723-9.936-1.596-5.22-1.676-9.533-1.242-11.998 0.9-5.111 2.483-4.965-1.447-13.244-0.359-0.755-4.968-7.034-7.658-3.311-0.813 1.125-0.62 4.064-0.62 7.659 0 4.963 1.715 13.481 2.225 16.519 1.145 6.878 3.427 12.471 5.154 14.899 2.061 2.897 2.516 2.917 1.719 4.397-0.541 1-2.483 0-3.435-1.15-0.476-0.57-2.524-3.376-3.438-5.732-0.916-2.348-2.215-6.41-2.869-9.547-0.65-3.138-1.729-10.913-1.906-12.994-0.765-8.783 0.379-9.927-3.037-13.844-1.885-2.162-6.562-6.106-8-6.24-1.437-0.131-2.485 0.919-0.915 4.973 1.566 4.047 4.444 14.894 5.098 17.512 0.652 2.614 4.181 17.515 4.443 21.177 0.262 3.655 1.961 15.685 9.805 23.005 7.843 7.32 14.509 7.32 23.004 4.57 8.5-2.74 13.46-2.35 13.46-2.35 0.79 0.13 4.32 0.39 5.23-0.13 0.92-0.53-0.93-4.22-0.93-4.88 0-0.65 0.45-1.82 1.23-1.69 0.79 0.13 1.67 2.25 1.8 3.3 0.12 1.05 0.65 4.32 1.56 6.54 0.92 2.22 3.79 7.97 5.1 9.93s3.53 6.8 3.92 8.37c0.39 1.56 0.39 4.31-0.39 5.49-0.78 1.17-0.94 1.65-0.57 2.35 0.28 0.51 1.39 1.31 2.05 1.89 0.69 0.59 2 2.13 1.74 2.42-0.47 0.52-1.95 1.58-2.87 2.1-0.91 0.53-1.7 2.03-1.55 2.22 0.05 0.05 2.77 1.3 7.21 1.17s8.5-2.48 11.24-4.31c2.75-1.83 6.28-8.23 7.46-11.11 1.17-2.88 2.22-12.94 3-15.43 0.78-2.48 2.48-5.61 3.14-6.53 0 0 1.36-2.11 2.32-5.08 0.32-1 1.08-2.87 1.86-3 0.79-0.13 1.23 1.04 1.23 1.69 0 0.66-1.84 4.36-0.93 4.88 0.92 0.53 4.44 0.26 5.23 0.13 0 0 4.97-0.39 13.47 2.36 8.49 2.74 15.16 2.74 23-4.58s9.55-19.34 9.8-23.002c0.26-3.659 3.79-18.565 4.45-21.178 0.65-2.613 3.53-13.463 5.1-17.514 1.57-4.054 0.52-5.1-0.92-4.969-1.44 0.132-6.11 4.079-8 6.239-3.42 3.912-2.27 5.059-3.03 13.845-0.18 2.08-1.26 9.854-1.91 12.991-0.66 3.138-1.95 7.202-2.87 9.55-0.91 2.354-2.97 5.158-3.44 5.728-0.95 1.15-2.9 2.15-3.44 1.15-0.79-1.48-0.34-1.5 1.72-4.395 1.73-2.425 4.02-8.021 5.16-14.899 0.51-3.041 2.22-11.554 2.22-16.521 0-3.589 0.19-6.535-0.62-7.656-2.69-3.725-7.3 2.553-7.66 3.31-3.93 8.276-2.34 8.133-1.44 13.244 0.44 2.465 0.35 6.781-1.24 12.002-2.28 7.448-2.94 8.364-3.73 9.93-0.78 1.571-1.65 4.145-3.77 6.435-0.84 0.91-4.39 0.65-2.67-2.02 0.67-1.04 3.29-3.861 4.97-8.218 1.6-4.182 3.05-8.978 3.44-14.519 0.33-4.787-0.99-8.361-2.38-10.438-1.66-2.483-4.79-0.56-6.83 5.795-1.86 5.793-1.03 7.863-1.03 7.863 0.87 3.659 0.41 8.48-1.04 11.793-1.01 2.306-4.2 9.544-6.3 10.394-0.77 0.31-3.44-0.19-0.57-3.25 2.58-2.754 4.32-8.033 4.39-8.179 1.24-2.692 1.66-8.154 0.83-9.726-0.63-1.192-3.5-7.881-7.13-0.43 0 0-2.68 3.633-2.29 8.596 0 0 0.95 3.057-0.19 6.494-0.43 1.275-1.2 3.205-2.49 4.395-2.48 2.29-3.25 0-1.14-2.1 1.45-1.457 2.3-3.441 2.09-5.922-0.38-4.776-2.1-4.391-2.86-4.205-0.76 0.19-2.38 2.113-2.67 4.396-0.24 1.854-0.64 3.301-0.64 3.301-1.53 6.12-3.18 5.29-3.18 5.29s-0.41 0.1-0.94-2.32l-0.14-0.95c-0.13-1.175-3.14-7.708-4.32-9.409-1.17-1.694-3-6.013-4.05-7.841-1.04-1.829-4.56-9.486-4.43-12.362 0.13-2.871 5.48-9.73 6.79-11.299 1.3-1.565 14.84-19.267 15.42-21.007 0.5-1.506 1.3-5.09-1.94-7.34-0.92-0.642-4.49-0.993-6.76 1.353-2.25 2.323-3.29 5.221-3.82 6.135-0.52 0.918-10.19 19.052-11.11 20.752-0.91 1.706-2.24 4.558-2.76 4.293-0.52-0.257 1.22-5.063 1.22-5.063s13.7-31.855 14.1-33.384c0.68-2.546-2.77-4.426-3.48-4.67-0.83-0.283-4.12-0.284-5.22 0.775-1.44 1.385-9.55 42.038-10.81 41.723-0.37-0.096-0.22-3.061 0.19-6.377 0.77-6.18 1.03-8 1.74-13.326 0.77-5.794 1.02-12.011 1.17-13.528 0.42-4.317 0.54-10.484-1.42-12.058-0.98-0.783-3.03-1.175-4.98-1.147zm-61.826 115.03c-2.098-0.06-2.863 0.49-2.707 1.14 0.151 0.65 0.295 1.04 1.512 2.17-1.449-1.35 13.486 9.63 13.154 9.61 0 0 3.372-4.56-0.677-8.09-4.046-3.52-9.189-4.77-11.282-4.83zm-4.191 3.98c-0.301-0.06-0.536 0.09-0.514 0.72 0.059 1.7 1.642 5.83 3.276 7.61 1.631 1.77 4.861 4.4 7.086 4.46 2.228 0.05 4.3-0.41 3.701-2.62l-12.36-9.38s-0.688-0.69-1.189-0.79zm143.83 3.7c-4.87 0-8.12 2.5-8.12 6.24 0 1.45 0.51 2.85 1.48 3.98 0.69 0.73 1.37 1.29 3.1 2.38-3.74 1.73-5.43 3.86-5.43 6.8 0 3.86 3.02 6.16 8.21 6.16 5.23 0 8.77-2.74 8.77-6.72 0-2.94-1.53-4.79-5.63-7.01 3.38-1.57 4.91-3.46 4.91-6.2 0-3.54-2.7-5.63-7.29-5.63zm-172.5 0.41c-0.811 0.01-1.452 0.09-1.885 0.35-1.152 0.7-1.278 0.83-0.732 1.47 0.544 0.63 14.785 7.72 14.785 7.72s1.219 1.13 1.861 0.86c0 0 2.432-1.53 0.912-3.83s-6.245-6.59-9.64-6.47c-2.124 0.08-3.949-0.11-5.301-0.1zm172.02 1.64c2.58 0 3.94 1.41 3.94 4.03 0 2.17-0.88 3.46-3.26 4.71-3.54-1.98-4.62-3.18-4.62-5.2 0-2.17 1.53-3.54 3.94-3.54zm-176.62 2.24c-0.175 0.03-0.311 0.17-0.365 0.5-0.216 1.31 1.428 3.48 3.322 5.25 1.892 1.76 5.057 6.23 9.233 5.95s5.208-0.7 5.437-1.63c0.228-0.92-0.056-1.57-1.978-1.85l-14.252-7.35s-0.871-0.95-1.397-0.87zm212.2 2.19c-2.46 0-4.91 0.97-6.44 2.57-0.48 0.53-0.65 0.73-0.65 0.97v0.28l0.2 1.89h1.13c0.97-1.85 2.58-2.85 4.51-2.85 2.01 0 3.14 1.12 3.14 3.09 0 1.53-0.68 2.78-2.41 4.63-1.13 1.17-4.55 4.27-7.25 6.52v1.49h14.97l0.93-3.26-10.67 0.04c6.88-5.23 8.53-7.2 8.53-10.22 0-3.1-2.37-5.15-5.99-5.15zm-49.34 0.16l-3.91 0.64v17.79h3.91v-18.43zm29.82 0.36l-3.87 9.66 0.24 0.52c5.52 1.9 8.02 4.31 8.02 7.69 0 2.9-1.9 4.95-4.59 4.95-1.33 0-2.54-0.4-3.54-1.25h-0.89l-1.21 1.25c-0.2 0.2-0.24 0.33-0.24 0.69 0 0.4 0.04 0.56 0.24 0.76 0.97 0.84 2.58 1.41 4.19 1.41 5.03 0 9.58-4.39 9.58-9.18 0-2.37-1.01-4.42-3.02-6.19-1.41-1.21-2.46-1.82-5.27-2.98l1.4-3.79h7.89l0.93-3.54h-9.86zm-130.06 5.64c-1.37 0.08-3.06 0.55-4.33 2.08-2.54 3.07-3.96 9.25-3.77 11.34 0.18 2.08-0.08 2.48 0.84 2.59 0.92 0.1 1.15-1.07 2.29-2.67s9.12-12.12 7.39-13.13c0 0-1.05-0.29-2.42-0.21zm24.32 0.53c-0.2-0.03-0.42 0.02-0.66 0.18-1.59 1.09-2.9 2.18-3.95 2.83-1.05 0.66-2.48 1.05-1.96 1.58 0.52 0.52 3.99 1.83 5.12 2.33 0.65 0.29 0.56-1.59 1.35-2.11 0.78-0.53 2.82-1.74 2.88-1.93 0.04-0.09-1.25-1.59-1.77-2.11 0 0-0.41-0.69-1.01-0.77zm88.59 0.51c4.27 2.02 5.76 3.5 5.76 5.76 0 2.45-1.85 4.06-4.67 4.06-2.9 0-4.63-1.65-4.63-4.46 0-2.46 1.09-4.11 3.54-5.36zm-107.11 1.02c-0.65 0.15-1.89 2.16-1.89 2.16s-6.66 10.34-7.18 11.5c-0.73 1.59-1.25 1.74-0.72 2.11 0.54 0.38 1.18 0.09 2.86-0.62 1.67-0.71 5.03-2.13 7.63-6.28 2.6-4.14-0.7-8.87-0.7-8.87zm49.96 3.43c-1.95 0.2-7.76 2.49-9.13 4.5-1.37 2.02-2.93 5.86-2.36 7.28s2.17 2.15 2.17 2.15l10.17-12.13s1.1-2-0.85-1.8zm4.3 2.13c-0.55 0.01-1.32 1.04-1.32 1.04l-9.42 11.18c-0.1 0.92-0.2 1.58 0.21 2.09s1.45 0.47 5.18-1.36 5.16-5.94 5.98-8.71c0.82-2.78 0.12-3.8-0.41-4.17-0.07-0.05-0.14-0.07-0.22-0.07zm-93.034 0.43c-2.146 0.01-6.664 0.53-8.481 4.71-2.417 5.58-3.106 8.35-2.552 9.25 0.554 0.89 0.199 1.95 1.59 0.6 1.391-1.36 8.55-9.85 8.55-9.85s3.81-3.27 2.061-4.65c0 0-0.453-0.06-1.168-0.06zm4.521 3.17s-2.183 1.12-3.929 3.67c-1.74 2.54-8.035 9.56-8.035 9.56s-2.032 1.77 0.589 1.94c2.624 0.17 7.735-3.27 9.887-5.31s3.493-8.62 1.488-9.86zm77.393 14.29c-3.8 0.02-6.01 0.66-6.03 0.67-2.62 0.69-4.95 2.39-4.95 2.39l-0.02 59.8s-0.04 1.28 0.38 1.28c0.88 0 3.4-1.27 6.56-2.42 3.15-1.14 7.95-1.78 13.12-1.65 5.18 0.12 17.29 3.18 23.73 3.82 6.43 0.63 11.36-1.15 12.24-1.41 0.88-0.25 0.88-1.27 0.88-1.27l-0.25-1.65-2.65-13.75s-8.08-43.12-8.08-43.77c0-0.63-0.25-0.89-1.01-0.38-0.75 0.51-7.82 0.89-11.61 1.27-3.78 0.39-7.89-0.75-13.88-2.03-3.3-0.71-6.15-0.92-8.43-0.9zm-27.41 0.08c-2.04-0.04-4.79 0.08-7.73 0.84-5.89 1.51-10.02 2.4-13.78 2.02s-10.771-0.76-11.518-1.26c-0.755-0.51-1.003-0.25-1.003 0.38s-8.016 43.48-8.016 43.48l-2.631 13.64-0.254 1.65s0 1.01 0.883 1.26c0.874 0.25 5.759 2.02 12.145 1.39 6.384-0.63 18.404-3.67 23.544-3.79 5.13-0.12 9.89 0.5 13.02 1.64 3.14 1.14 5.66 2.59 6.52 2.4 0.35-0.07 0.37-1.26 0.37-1.26l0.06-59.4s-3.06-1.77-4.82-2.15c-1.75-0.38-3.31-0.7-3.38-0.63-0.06 0.06-1.37-0.16-3.41-0.21zm-37.444 3.13c-1.555 0.61-4.058 3.65-4.058 3.65l-10.502 60.45 3.869-4.06 10.691-60.04zm103.34 0.38l11.01 60.22 3.86 3.68-10.93-60.29s-2.71-3.29-3.94-3.61zm-111.46 4.23c-0.832-0.01-2.013 0.39-2.392 2.51l-12.567 62.86c-1.152 5.08 3.616 4.61 3.616 4.61l58.936 0.04s-4.84-4.78-10.64-4.66c-5.78 0.13-17.1 3.14-24.904 2.75-7.814-0.39-18.65-2.15-22.353-5.75-0.132-0.13 11.177-62.22 11.177-62.22s-0.373-0.14-0.873-0.14zm119.48 0.02c-0.5 0-0.87 0.15-0.87 0.15s11.31 62.08 11.18 62.22c-3.71 3.59-14.54 5.35-22.36 5.74-7.81 0.4-19.11-2.61-24.9-2.74s-10.64 4.65-10.64 4.65l58.94-0.03s4.77 0.46 3.61-4.61l-12.56-62.87c-0.38-2.12-1.57-2.51-2.4-2.51zm-81 55.65c-7.37 0.09-23.22 4.1-28.653 4.01-5.435-0.1-10.009-2.22-10.009-2.22l-3.655 3.75s0.156 0.12 1.424 0.74c1.403 0.68 9.066 2.84 15.537 2.74 6.466-0.08 18.896-3.34 24.066-3.43 5.18-0.1 11.6 4.51 11.6 4.51l6.02-5.38c-2.97-1.74-8.95-4.82-16.33-4.72zm42.73 0.13c-7.14-0.1-14.05 3.05-16.94 4.98l5.71 5.34s4.42-4.24 12.52-4.24c5.02 0 16.57 2.67 22.84 2.77s10.79-0.68 12.34-1.11c3.02-0.86 6.26-2.03 6.26-2.03l-3.87-3.87s-6.38 1.82-11.65 1.92c-5.26 0.1-20.06-3.66-27.21-3.76zm-21.73 5.36s-4.78 4.48-5.42 5.13c-0.64 0.64-1.03 2.16-0.97 2.27 1.28 2.16 4.37 2.85 6.39 2.72 2.03-0.13 5.11-1.15 5.85-2.3 0.75-1.16 0.32-1.79 0.32-1.79l-6.17-6.03z" transform="matrix(.8 0 0 -.8 374.58 468.97)" fill="#fff"/><path d="m489.28 345.33s-1.7071-0.15424-1.7071-1.5528c0-1.3954 0.62259-1.5472 1.3978-1.5472 0.77358 0 1.703 0.4627 1.703 1.3921 0 0.93267-0.61854 1.7079-1.3937 1.7079" fill="#646469"/></g><path d="m97.201 146.22c-0.652 0.02-0.625 0.81-0.625 0.81s3.211 1.98 3.884 2.35c0.66 0.37 0.8 0.89 0.17 1.31-0.642 0.4-5.776 3.2-15.985 3.03-10.208-0.16-16.805-1.89-16.805-1.89s-1.298 0.3-1.02 0.82c0.282 0.51 5.277 1.25 7.25 1.57 1.974 0.32 9.307 0.59 9.834 0.71 0.527 0.1 2.888 0.29 2.129 1.1-0.754 0.81-4.221 2.76-4.844 3.57-0.626 0.81 0.569 1.28 0.569 1.28s4.052-3.8 6.767-4.68c2.716-0.87 8.272-2.9 10.862-3.65 2.593-0.74 8.963-1.74 12.373-1.34 3.42 0.4 8.11 1.95 11.94 3.24 1.54 0.52 1.81 0.36 1.81 0.36s1.36-0.71 1.91-1.06c0 0-4.59-1.47-6.22-1.96-1.74-0.52-9.9-2.53-12.13-2.84-2.24-0.31-7.36-0.93-8.14-0.9s-3.074-1.85-3.729-1.83zm42.679 17.85s7.29 9.47 13.85 15.08c15.05 12.85 23.27 12.44 23.33 12.44l6.65-0.23s-0.21-2.54-0.7-2.65c-0.49-0.1-6.66 0.48-9.95-0.55-2.08-0.65-13.59-4.31-30.63-24.06l-2.55-0.03z" transform="matrix(.8 0 0 -.8 374.58 468.97)" stroke="#fff" stroke-width=".52992" fill="#fff"/><path d="m499.85 326.38s9.5374-7.7786 14.495-8.2607c4.9572-0.47885 6.6191-0.15504 6.6191-0.15504s0.44009-0.83334 0.55475-2.0648c0 0-5.1664-0.37791-7.1423-0.0283-2.6567 0.45946-11.314 4.6625-17.423 10.261 0 0 1.6885 0.18007 2.8973 0.2479z" stroke="#646469" stroke-width=".42394" fill="#646469"/></g></g></svg>
