<?xml version="1.0" encoding="UTF-8" standalone="no"?>
<svg xmlns:rdf="http://www.w3.org/1999/02/22-rdf-syntax-ns#" xmlns="http://www.w3.org/2000/svg" enable-background="new 0 0 54.167 68.667" xml:space="preserve" height="154.27" viewBox="0 0 125 154.27144" width="125" version="1.1" y="0px" x="0px" xmlns:cc="http://creativecommons.org/ns#" xmlns:xlink="http://www.w3.org/1999/xlink" xmlns:dc="http://purl.org/dc/elements/1.1/"><g transform="matrix(2.3823 0 0 2.3823 -2.1351 -5.3011)"><path fill="#001a57" d="m20.377 2.5938v2.6797h-1.5723v-1.166-0.29297h-4.3613v2.0371h-1.3965v-0.81641-0.28906h-9.4277v5.8672l0.2168 0.05664c0.983 0.291 1.7187 0.657 1.7617 4.375v26.646c-0.00855 1.6361 0.00328 3.3857 0.7207 5.2559-0.54378 0.1064-0.88966 0.39117-0.89648 0.77734 0.0001061 0.0055 0.00367 0.01018 0.00391 0.01563v0.04102c1e-7 1.0337-0.35263 1.651-0.41602 1.7695-0.26294-0.05384-0.51165-0.08203-0.73828-0.08203-0.79741 0.0049-1.3792 0.29425-1.4297 0.78516l-0.015625-0.002c-0.115 0.742-0.4887 2.5784-1.0957 3.4004-0.252 0.339-0.36328 0.62486-0.36328 0.88086 0.004 0.432 0.31145 0.6922 0.56445 0.9082 0.379 0.327 1.9817 1.2509 3.9707 1.2559 0.25373 0 0.51761-0.03305 0.78125-0.06641-0.21002 0.39591-0.37961 0.68964-0.37891 0.69141-0.111 0.248-0.21294 0.49389-0.21094 0.83789 0 0.261 0.056312 0.57605 0.19531 0.99805 0.941 2.375 7.1322 7.3415 19.99 7.3535 0.3-0.003 0.60025-0.0038 0.90625-0.0078 0.298 0.004 0.60334 0.0059 0.90234 0.0059 12.859-0.009 19.048-4.9758 19.988-7.3438 0.141-0.429 0.19922-0.74591 0.19922-1.0039 0-0.347-0.10117-0.58836-0.20117-0.81836-0.0053-0.0085-0.18108-0.3102-0.39453-0.71484 0.26442 0.03412 0.52969 0.06836 0.78516 0.06836 1.986-0.004 3.5926-0.93086 3.9766-1.2559 0.249-0.216 0.55464-0.47425 0.55664-0.90625 0-0.256-0.10838-0.54276-0.35938-0.88476-0.607-0.823-0.9817-2.6574-1.0957-3.4004l-0.01953 0.0039c-0.04827-0.48932-0.63025-0.77929-1.4258-0.7832-0.22722 0-0.47461 0.02693-0.73828 0.08008-0.06919-0.11571-0.41992-0.74233-0.41992-1.7832 0-0.0044-0.000437-0.01054 0-0.01563 0.000542-0.0095 0.0077-0.01778 0.0078-0.02734-0.0077-0.38683-0.35444-0.67068-0.90234-0.77539 0.7183-1.871 0.72926-3.6211 0.7207-5.2578v-26.646c0.042-3.718 0.78272-4.086 1.7617-4.375l0.21875-0.05664v-5.8691h-9.4219v1.1074h-1.4023v-2.0371h-4.3613v1.459h-1.5703v-2.6797h-5.4688v1.1055h-2.6738v-0.81641-0.28906h-5.4707zm0.58008 0.58203h4.3105v0.81445 0.28906h3.8359v-1.1035h4.3066v2.6758h2.7305v-1.4551h3.2031v2.0332h2.5625v-1.1055h8.2578l0.0039 4.8457c-1.132 0.35-2.0215 1.365-1.9805 4.875v26.646c-0.017 3.263 0.03553 6.5511-5.3555 10.705-4.91 3.769-13.211 7.0108-15.658 7.6328-2.47-0.637-10.743-3.8748-15.639-7.6328-5.395-4.154-5.3375-7.4421-5.3555-10.705v-26.646c0.04-3.508-0.84552-4.523-1.9785-4.875v-4.8457h8.2637v0.81641 0.28906h2.5566v-2.0332h3.2051v1.166 0.28906h2.7305v-2.6758zm-14.164 5.7871v13.557h19.258v-0.14258-13.414h-19.258zm21.523 0v13.559h0.14648 19.111v-13.559h-19.258zm0.28906 0.28906h18.678v12.979h-18.678v-12.979zm-21.523 0.00195h18.678v12.975h-18.678v-12.975zm0.55469 0.55469v11.869h17.568v-11.869h-17.568zm21.525 0v11.869h17.572v-11.869h-17.572zm-2.7012 9.3965v3.7812h-3.666v1.3086 0.14453h3.6055v9.9082h1.4805 0.15039v-9.9062l3.6055-0.002v-1.3086-0.14453h-3.6641v-3.7812h-0.14453-1.2227-0.14453zm0.28516 0.28906h0.93359v3.7793h3.6641v0.87695h-3.6074v9.9062h-1.0469v-9.9062h-3.6074-0.002v-0.87695l3.666 0.002v-3.7812zm-0.83984 2.7344v0.14844-0.14844zm-19.113 2.793v16.322c-0.005 0.197-0.00781 0.39589-0.00781 0.58789-0.008 4.583 1.3375 6.3698 3.4785 8.5898 2.956 3.055 11.598 7.8178 15.623 8.3008l0.16211 0.01758v-4.3184h2.2656 0.002v4.3184l0.16406-0.01758c4.028-0.483 12.669-5.2458 15.623-8.3008 2.144-2.222 3.4865-4.0059 3.4785-8.5859 0-0.195-0.000859-0.3927-0.0059-0.5957v-16.318h-19.26v9.6582h-2.2676v-9.6582h-19.256zm0.28711 0.29297h18.68v9.6562h2.8457v-0.14648-9.5098h18.68v16.029c0.005 0.204 0.0048 0.3998 0.0078 0.5918-0.009 4.526-1.2744 6.1608-3.4004 8.3848-2.825 2.946-11.318 7.6344-15.287 8.1934v-4.2812h-2.8457v4.2812c-3.96-0.558-12.46-5.2474-15.287-8.1934-2.127-2.224-3.3924-3.8577-3.4004-8.3887 0-0.189 0.00281-0.38498 0.00781-0.58398v-16.033zm0.67578 0.55078 6.3965 10.908v-7.8809h5.002v16.434l6.0508 10.297v-1.4824h-0.4043v-19.143h0.4043v-9.1328h-17.449zm21.406 0v9.1328h0.40625v19.143h-0.40625v1.4824l6.0527-10.297v-16.434h5v7.8809l6.4004-10.908h-17.453zm-21.525 1.1582v13.967c-0.115 5.004 1.055 6.8641 3.375 9.0801 2.377 2.267 9.8569 6.8056 14.211 7.9316v-0.9375s-5.8346-9.9326-5.8906-10.059c-0.083-0.171-0.17578-0.05172-0.17578 0.11328v0.49023h-5.002v-9.498l-6.5176-11.088zm39.098 0-6.5195 11.088v9.498h-5v-0.49023c0-0.165-0.09573-0.28428-0.17774-0.11328-0.056 0.126-5.8887 10.059-5.8887 10.059v0.9375c4.353-1.126 11.834-5.6646 14.209-7.9316 2.322-2.216 3.491-4.0761 3.377-9.0801v-13.967zm-32.029 2.418v17.629h3.8984v-0.14453-17.484h-3.8984zm21.061 0v17.629h0.14453 3.7539v-17.629h-3.8984zm0.28906 0.28711h3.3184v17.053h-3.3184v-17.053zm-21.061 0.002h3.3184v17.051h-3.3184v-17.051zm13.469 4.9492v0.14453-0.14453zm-3.1953 0.78711v18.209h3.8965v-0.14453-18.064h-3.8965zm3.6035 0.28906v17.629h-3.3125v-17.627l3.3125-0.002zm-10.412 11.025v0.14453-0.14453zm-12.024 0.441c0.19258 0.46007 0.43141 0.92749 0.72266 1.4023-0.1704-0.117-0.3839-0.205-0.6387-0.24-0.5695-0.152-0.8-0.44-0.8047-0.641v-0.01563h-0.00391c0.0000185-0.000561-0.0000223-0.0014 0-0.002-0.00888-0.18729 0.21291-0.42049 0.72461-0.50391zm41.494 0.002c0.5095 0.08272 0.73045 0.31124 0.72461 0.49805h-0.002c-0.001 0.0075-0.0017 0.01542-0.002 0.02344-0.0073 0.19887-0.24014 0.48831-0.82422 0.64258-0.24544 0.03307-0.45358 0.12143-0.62109 0.23828 0.2915-0.47505 0.53187-0.94209 0.72461-1.4023zm-42.26 1.023c0.17792 0.17801 0.44352 0.32623 0.79688 0.41992 0.521 0.069 0.78348 0.36083 0.77148 0.54883 0 0.0035-0.00372 0.0081-0.00391 0.01172l-0.00195-0.002c0.0000428 0.000065-0.011257 0.04117-0.011719 0.04297-0.040988 0.17577-0.29363 0.40756-1.0684 0.41211-0.23476-0.000001-0.52575-0.03148-0.84766-0.08398 0.102-0.189 0.2841-0.61 0.3653-1.349zm43.025 0.004c0.08357 0.73768 0.26698 1.1564 0.36914 1.3457-0.32119 0.05118-0.61228 0.08203-0.84961 0.08203-0.78751-0.0037-1.0346-0.2448-1.0703-0.41992-0.000303-0.000978-0.0097-0.03122-0.0098-0.03125h-0.002c-0.000231-0.0036-0.0039-0.0082-0.0039-0.01172-0.01-0.188 0.25286-0.47897 0.75586-0.54297 0.36107-0.096 0.63012-0.24449 0.81055-0.42188zm-1.8477 0.92578c-0.0013 0.01349-0.0093 0.0254-0.0098 0.03906 0.0011 0.03203 0.02159 0.05737 0.02734 0.08789l-0.0098 0.0039h-0.002c0.0046 0.0065 0.44177 1.5298 0.61914 2.0078-0.14615 0.0034-0.28476 0.01563-0.43164 0.01563-0.7367 0-1.4034-0.04777-1.9453-0.11133 0.71441-0.69528 1.2881-1.377 1.752-2.043zm-39.326 0.0078c0.46316 0.66388 1.0359 1.3422 1.748 2.0352-0.54314 0.0634-1.2085 0.11328-1.9414 0.11328-0.1474 0-0.28522-0.0122-0.43164-0.01563 0.17359-0.47178 0.61339-2.0033 0.61523-2.0098l-0.00977-0.002c0.006-0.03112 0.026248-0.05717 0.027344-0.08984-0.0003162-0.01093-0.00695-0.02043-0.00781-0.03125zm-3.248 0.57617c0.209 0 0.44045 0.02222 0.68945 0.07422 0.466 0.095 0.85845 0.13477 1.1895 0.13477 0.39033 0 0.68724-0.06677 0.91406-0.17188-0.1605 0.553-0.3804 1.295-0.4684 1.51-0.5837-0.024-1.1405-0.068-1.5469-0.159-1.45-0.159-1.9488-0.629-1.9238-0.861 0.001-0.209 0.38048-0.52534 1.1465-0.52734zm45.824 0c0.766 0 1.1426 0.31739 1.1426 0.52539 0.028 0.233-0.47225 0.70533-1.9062 0.86133-0.4179 0.09232-0.97766 0.13432-1.5605 0.1582-0.08935-0.21395-0.3087-0.95487-0.4707-1.5078 0.22639 0.10431 0.52224 0.17188 0.91211 0.17188 0.332 0 0.72436-0.03981 1.1934-0.13281 0.251-0.052 0.48245-0.07617 0.68945-0.07617zm-47.064 0.96289c0.29423 0.3317 0.929 0.5848 1.9688 0.71094 0.604 0.135 1.4691 0.1875 2.3281 0.1875 0.85193 0 1.6354-0.06021 2.2129-0.14453 0.40501 0.37796 0.85537 0.75977 1.3477 1.1465-0.47808-0.21302-0.93707-0.32422-1.3457-0.32422-0.8426 0-1.5036 0.42723-1.6367 1.0977l-0.027344-0.0059c-0.21253 1.1398-0.66783 2.1925-1.0391 2.9355-0.32032 0.0516-0.63545 0.08203-0.94141 0.08203-1.888 0.004-3.4752-0.9145-3.7812-1.1875-0.261-0.218-0.46498-0.4155-0.45898-0.6875 0-0.168 0.072688-0.39794 0.30469-0.71094 0.57392-0.79407 0.90538-2.2159 1.0684-3.0996zm48.301 0c0.16411 0.88383 0.49572 2.3058 1.0703 3.0996 0.23 0.313 0.30469 0.54289 0.30469 0.71289 0.005 0.271-0.19803 0.46755-0.45703 0.68555-0.309 0.273-1.8982 1.1895-3.7852 1.1875-0.30839 0-0.62449-0.03086-0.94336-0.08398-0.37065-0.74674-0.82007-1.798-1.0312-2.9336l-0.03125 0.0059c-0.13312-0.67042-0.79306-1.0977-1.6348-1.0977-0.41105 0-0.87127 0.11272-1.3496 0.32617v-0.0039c0.49085-0.3857 0.93776-0.76754 1.3418-1.1445 0.57696 0.08375 1.3646 0.14453 2.2227 0.14453 0.857 0 1.7238-0.05245 2.3398-0.18945 1.0276-0.12329 1.6597-0.37628 1.9531-0.70898zm-41.789 1.865c0.37048 0 0.79892 0.1012 1.2539 0.30664l-1.0664 2.8047c-1.1254-0.76401-1.5682-1.5145-1.5645-2.0527 0.003-0.617 0.52395-1.0516 1.377-1.0586zm35.281 0c0.849 0.009 1.375 0.44159 1.375 1.0586 0.0029 0.54014-0.44032 1.2937-1.5723 2.0605l-1.0527-2.8164c0.45245-0.20328 0.88069-0.30273 1.25-0.30273zm-1.5898 0.22656 1.1426 3.0664c-6.6315 4.3898-14.646 4.6993-16.695 4.6973-0.20791 0-0.24281-0.0035-0.32031-0.0059 2.5854-0.67142 10.801-3.8774 15.818-7.7148 0.01926-0.01464 0.03556-0.02834 0.05469-0.04297zm-32.098 0.0059c0.01602 0.01224 0.02881 0.02486 0.04492 0.03711 5.0067 3.8269 13.19 7.0306 15.797 7.7168-0.08325 0.0023-0.10718 0.0039-0.29688 0.0039-2.0497 0.002-10.072-0.30748-16.705-4.707l1.161-3.052zm17.883 0.56445v0.14648-0.14648zm17.363 0.81836c0.49451 1.7899 1.4299 3.2664 1.4316 3.2734 0.091 0.213 0.16692 0.39555 0.16992 0.68555 0 0.216-0.04859 0.50025-0.18359 0.90625-0.823 2.156-6.9388 7.1613-19.717 7.1523-0.298 0-0.60034-0.0028-0.90234-0.0078-0.309 0.005-0.60825 0.0078-0.90625 0.0078-12.774 0.012-18.89-4.9972-19.713-7.1582-0.133-0.399-0.17969-0.68334-0.17969-0.90234 0-0.29 0.077781-0.47012 0.17578-0.70312-0.00439 0.01053 0.92817-1.462 1.4238-3.25 0.21567 0.5896 0.77228 1.2306 1.7539 1.8574 6.733 4.501 14.856 4.8027 16.943 4.8027 0.325-0.000001 0.50386-0.0078 0.50586-0.0078-0.01 0 0.16609 0.0078 0.49609 0.0078 2.086 0 10.216-0.29969 16.953-4.8047 0.97865-0.62827 1.5332-1.2692 1.748-1.8594zm-36.861 2.6191c-0.34312-0.01833-0.64134 0.33241-0.62109 0.66016 0.017 0.3 0.067062 0.21364 0.16406 0.05664 0.098-0.154 0.39388-0.23026 0.67188-0.07227 0.28 0.162 0.56527-0.03462 0.69727-0.26562 0.089-0.178 0.10686-0.19731-0.11914-0.07031-0.222 0.124-0.24531 0.02866-0.44531-0.15234-0.11425-0.1025-0.23328-0.15014-0.34766-0.15625zm36.045 0.70117c-0.0345 0.01488-0.06341 0.0473-0.06641 0.0918-0.027 0.318-0.26372 0.72277-0.63672 1.0098l-0.02539 0.01172c-0.014 0.006-0.04419 0.04942 0.0078 0.10742 0.269 0.236 0.49366 1.1921 0.47266 1.2461-0.028 0.056 0.03291 0.10031 0.12891 0.07031 0 0 0.58295-0.12797 0.87695 0.08203 0 0 0.14483 0.13881 0.17383-0.11719 0.033-0.261 0.39573-0.7577 0.55273-0.8457 0 0 0.13908-0.14224-0.04492-0.24024-0.144-0.077-0.48361-0.93608-0.47461-1.0801 0.019-0.061 0.02672-0.16181-0.11328-0.13281-0.307 0.057-0.698-0.14441-0.75-0.19141-0.026-0.024-0.06706-0.02659-0.10156-0.01172zm-34.367 0.21875c-0.073 0.011-0.18408 0.04959-0.26758 0.05859 0 0-0.39225 0.05084-0.78125-0.03516-0.141-0.029-0.14703-0.01894-0.20703 0.16406-0.256 0.639-0.77375 1.6159-0.84375 1.6719-0.068 0.055-0.10542 0.04431-0.10742 0.07031-0.002 0.023 0.029031 0.04522 0.082031 0.07422 0.277 0.077 0.79259-0.09939 0.93359-0.52539 0.041-0.099 0.09161-0.05942 0.09961 0.01758-0.029 0.32 0.363 0.47286 0.625 0.38086 0.275-0.129 0.13059-0.13477 0.05859-0.13477-0.136-0.045-0.1503-0.08225-0.1543-0.15625 0.033-0.405-0.17814-0.37938-0.36914-0.35938-0.153 0.019-0.13428-0.07067-0.11328-0.13867 0.179-0.227 0.27828-0.50567 0.36328-0.76367 0.063-0.33 0.20936-0.15747 0.19336 0.01953 0.139 0.79 0.61189 0.75992 0.96289 0.41992 0.208-0.251 0.0458-0.14728-0.0332-0.11328-0.28 0.088-0.5552-0.20588-0.4082-0.54688 0.0735-0.098 0.0398-0.11452-0.0332-0.10352zm-1.7441 0.01758c-0.22805 0.02841-0.31658 0.17839-0.42383 0.30664 0 0-0.041406 0.10236-0.19141 0.06836-0.159-0.036-0.47316 0.05258-0.53516 0.39258-0.047 0.272 0.00666 0.21859 0.097656 0.18359 0.209-0.09 0.24361 0.04534 0.22461 0.15234 0 0-0.15639 0.45348-0.40039 0.64648-0.062 0.029-0.086516 0.091 0.021484 0.125 0.107 0.028 0.51209 0.08539 0.62109-0.09961 0.169-0.331 0.65655-1.3941 0.93555-1.6211 0.078-0.063 0.049641-0.11472-0.068359-0.13672-0.113-0.02275-0.20523-0.02705-0.28125-0.01758zm33.787 0.24805c-0.19828 0.0028-0.36469 0.11247-0.39844 0.35547-0.008 0.075-0.11895 0.15917-0.002 0.20117 0.132 0.046 0.28306 0.06139 0.41406 0.02539 0.142-0.041 0.11741-0.15374 0.19141-0.30274 0.034-0.071 0.08789-0.10853 0.08789-0.14453 0.003-0.038-0.04389-0.08852-0.08789-0.10352-0.06925-0.022-0.13898-0.03219-0.20508-0.03125zm0.41797 0.90039c-0.03075 0.01225-0.05731 0.04239-0.07031 0.08789-0.022 0.092-0.13731 0.38575-0.19531 0.46875-0.045 0.064 0.07031 0.0957 0.07031 0.0957 0.07-0.019 0.15747-0.05775 0.23047 0.03125 0.074 0.089 0.54492 1.0098 0.54492 1.0098 0.031 0.065-0.09359 0.25895 0.06641 0.25195 0.19-0.011 0.41748 0.01955 0.52148 0.06055 0.078 0.036 0.1582-0.07114 0.1582-0.11914 0-0.052 0.0918-0.36523 0.0918-0.36523 0.007-0.062-0.04966-0.10994-0.09766-0.08594-0.046 0.025-0.13006 0.03037-0.16406-0.01563-0.035-0.051-0.61914-1.0723-0.61914-1.0723 0.027-0.061 0.0054-0.16364-0.05664-0.18164-0.095-0.034-0.32476-0.09148-0.38477-0.14648-0.03-0.0265-0.06495-0.03178-0.0957-0.01953zm-31.865 0.47656c-0.0265-0.01087-0.0612-0.0027-0.0957 0.02734-0.07 0.063-0.3778 0.14627-0.4668 0.19727-0.089 0.046-0.083 0.11647 0 0.10547 0.08-0.017 0.23395 0.04919 0.12695 0.24219l-0.4082 0.97852c-0.077 0.211-0.09677 0.20317-0.25977 0.20117-0.075-0.013-0.1515 0.03228-0.0625 0.11328 0.094 0.072 0.20598 0.31758 0.20898 0.39258 0.007 0.08 0.06519 0.09908 0.11719 0.08008 0.051-0.016 0.41533-0.07089 0.48633-0.08789 0.093-0.021 0.13955-0.04547 0.06055-0.10547-0.069-0.056-0.08356-0.09783-0.10156-0.17383 0 0 0.41353-1.0119 0.51953-1.2539 0.11-0.24 0.20661-0.04139 0.22461 0.09961 0.023 0.203 0.50206 0.23466 0.66406 0.09766 0.158-0.132 0.09981-0.14148 0.0078-0.14648-0.051 0-0.11962-0.0505-0.14062-0.1875-0.018-0.135-0.31641-0.29114-0.56641-0.11914-0.09 0.082-0.14053 0.06661-0.14453-0.02539-0.004-0.091-0.07214-0.2397-0.11914-0.3457-0.0045-0.0495-0.02428-0.07897-0.05078-0.08984zm30.34 0.23633c-0.07491-0.0066-0.15225 0.0963-0.1875 0.2793-0.05 0.241-0.4785 0.67245-0.5625 0.68945-0.102 0.019-0.06397 0.17356 0.08203 0.22656 0.145 0.058 0.42953 1.0568 0.39453 1.1328-0.05 0.095 0.0039 0.20564 0.12891 0.18164 0.066-0.013 0.24756 0 0.35156 0s0.17641-0.03939 0.06641 0.09961c-0.115 0.141-0.32539 0.34531-0.15039 0.57031 0.18 0.223 0.80892-0.0024 0.91992-0.19336 0.21-0.391-0.17975 0.12003-0.34375-0.16797-0.054-0.09 0.05392-0.13339 0.16992-0.15039 0.267-0.032 0.54019-0.08231 0.86719-0.44531 0.326-0.362 0.04756-0.75533-0.14844-0.73633-0.195 0.018-0.18772-0.01305-0.26172-0.12305-0.073-0.111-0.41841-0.55288-0.44141-1.0469-0.013-0.055-0.01319-0.08427-0.11719-0.07227-0.099 0.009-0.60131-0.08917-0.69531-0.20117-0.02275-0.0275-0.0473-0.04078-0.07227-0.04297zm-2.0566 0.06055c-0.19636-0.03581-0.38173 0.04034-0.45898 0.27734-0.027 0.068-0.14606 0.13036-0.03906 0.19336 0.119 0.07 0.26648 0.11361 0.39648 0.09961 0.155-0.01 0.149-0.12581 0.25-0.25781 0.05-0.063 0.10623-0.09205 0.11523-0.12305 0.007-0.033-0.02941-0.09919-0.06641-0.11719-0.0645-0.035-0.13181-0.06033-0.19727-0.07227zm-31.504 0.0918c-0.2377-0.0022-0.5112 0.07422-0.79883 0.30859-0.152 0.153-0.096219 0.147 0.050781 0.125 0.814-0.122 1.2031 0.05188 1.4531 0.67188 0.017 0.064 0.017094 0.06445 0.12109 0.06445 0.428 0.023 0.76453-0.04106 0.89453-0.16406 0.13-0.121-0.03516-0.06445-0.03516-0.06445-0.616 0.017-0.73553-0.47114-0.89453-0.61914-0.098125-0.0925-0.39484-0.31858-0.79102-0.32226zm30.33 0.02539c-0.054-0.0096-0.12034-0.0029-0.15234 0.01563-0.068 0.037-0.069 0.05252-0.125 0.10352-0.071 0.078-0.06555 0.10088-0.18555 0.04687 0 0-0.04916-0.02961-0.16016-0.09961-0.088-0.06-0.23981-0.15778-0.13281 0.19922 0.041 0.116 0.9668 2.8848 0.9668 2.8848 0.018 0.062-0.08466 0.24844 0.02734 0.27344 0.189 0.037 0.48322 0.21048 0.57422 0.27148 0.073 0.047 0.17264-0.03984 0.18164-0.08984 0.011-0.048 0.09766-0.33984 0.09766-0.33984 0.021-0.061-0.02122-0.11452-0.07422-0.10352-0.049 0.016-0.13116 0.0072-0.16016-0.04883-0.024-0.052-0.79917-2.4714-0.82617-2.5254-0.045-0.088-0.02803-0.33691 0.04297-0.50391 0.02-0.048-0.02022-0.07436-0.07422-0.08398zm-22.451 0.013c-0.238-0.065-0.51 0.106-0.517 0.309-0.004 0.13-0.03448 0.17938 0.10352 0.10938 0.056-0.029 0.17853-0.02889 0.14453 0.16211-0.035 0.183-0.03156 0.67592 0.02344 0.91992 0.015 0.057-0.03613 0.11781-0.07813 0.13281 0 0.000001-0.37811 0.0822-0.66211 0.0332-0.042-0.007-0.12208 0.0056-0.08008 0.14062 0.021 0.072-0.07964 0.68697-0.18164 0.91797 0 0-0.02519 0.10353-0.11719 0.14453-0.067 0.027-0.045 0.15116 0 0.16016 0.314 0.119 0.51286 0.30347 0.50586 0.60547 0 0.106 0.03689 0.12747 0.08789 0.10547 0.296-0.196 0.88428-0.22741 0.98828-0.19141 0.065 0.015 0.12581-0.01422 0.13281-0.07422l0.336-1.412c0.014-0.045-0.0027-0.07803-0.01367-0.08203-0.178-0.107-0.31938-0.30947-0.35938-0.48047-0.044-0.208-0.13141-0.71778-0.06641-1.1758 0.002-0.094-0.01625-0.14188-0.03125-0.17188-0.06075-0.082-0.13561-0.13052-0.21484-0.15234zm10.787 0.23438-0.06836 0.2793 0.06836-0.2793zm-13.691 0.1875c-0.06367 0.0011-0.13076 0.01859-0.19726 0.05859-0.16 0.099-0.34042 0.13022-0.23242 0.19922 0.073 0.053 0.12109 0.02325 0.12109 0.15625-0.117 0.43-0.375 1.1562-0.375 1.1562-0.022 0.053-0.08383 0.13462-0.17383 0.14062-0.063 0.021-0.03403 0.08025 0.04297 0.15625 0.069 0.064 0.21762 0.24775 0.26562 0.34375 0.045 0.075 0.0503 0.17622 0.1543 0.07422 0.101-0.096 0.34806-0.15986 0.53906-0.13086 0.198 0.03 0.2798 0.26488 0.3418 0.42188 0.015 0.101 0.01647 0.15312 0.10547 0.07813 0.092-0.077 0.48208-0.21447 0.58008-0.23047 0.083-0.017 0.04737-0.08875-0.01563-0.09375-0.083-0.008-0.32725-0.03869-0.28125-0.30469 0.048-0.268 0.27291-1.0287 0.37891-1.0547 0.108-0.02 0.15039-0.0078 0.15039-0.0078 0.108 0.006 0.03753-0.07652 0.01953-0.10352-0.016-0.026-0.22442-0.39061-0.23242-0.47461-0.009-0.085-0.08984-0.04492-0.08984-0.04492-0.149 0.069-0.36822 0.04861-0.44922 0.09961-0.05875 0.0372-0.0833 0.06336-0.08789 0.08594-0.0016 0.0065 0.0083 0.01159 0.0098 0.01758 0.01434 0.05484 0.12536 0.09839 0.08984 0.25586-0.075 0.315-0.14698 0.62438-0.33398 0.98438-0.193 0.362-0.49592 0.1953-0.41992-0.0957 0.066-0.248 0.1397-0.50458 0.2207-0.76758 0.084-0.251 0.20098-0.53577 0.20898-0.63477 0.0083-0.14325-0.14883-0.28858-0.33984-0.28516zm28.662 0.05078c0.11238 0.0074 0.22197 0.03741 0.29297 0.06641 0.08 0.028 0.46917 0.64158 0.45117 1.0176 0 0.024-0.47828 0.55638-0.61328 0.10938-0.086-0.28-0.19441-0.5182-0.31641-0.7832-0.049-0.101-0.20691-0.28384-0.12891-0.33984 0.0855-0.0625 0.20208-0.07769 0.31445-0.07031zm-2.0352 0.20898c-0.0325 0.0059-0.06494 0.03077-0.08594 0.07227-0.042 0.086-0.2063 0.35578-0.2793 0.42578-0.062 0.055 0.04297 0.10352 0.04297 0.10352 0.075-0.002 0.17152-0.02678 0.22852 0.07422 0.053 0.104 0.41797 1.248 0.41797 1.248 0.021 0.064-0.14438 0.23186 0.01563 0.25586 0.188 0.027 0.40891 0.09611 0.50391 0.16211 0.07 0.051 0.16969-0.04184 0.17969-0.08984 0.006-0.05 0.15625-0.33594 0.15625-0.33594 0.017-0.066-0.02708-0.12052-0.08008-0.10352-0.05 0.012-0.1302 0.0042-0.1582-0.04883-0.025-0.053-0.48047-1.3184-0.48047-1.3184 0.037-0.056 0.03547-0.15941-0.01953-0.19141-0.091-0.048-0.30356-0.14784-0.35156-0.21484-0.024-0.033-0.05734-0.04494-0.08984-0.03906zm-4.752 0.19922c-0.04237-0.01863-0.09897 0.0075-0.16797 0.08398-0.141 0.146-1.0567 0.86244-1.1777 0.89844-0.121 0.034-0.20703 0.15161-0.20703 0.34961l0.34961 2.1602c0.046 0.27 0.0097 0.69062-0.36328 0.39062-0.437-0.35-0.88811-0.13933-0.91211 0.26367 0 0 0.0087 0.10883 0.05469 0.17383 0 0 0.11974 0.16647 0.17774 0.23047 0.081 0.084 0.16576 0.16639 0.25976 0.15039 0.101-0.013 0.10806-0.04022 0.03906-0.07422-0.192-0.132-0.10141-0.46908 0.18359-0.45508 0.638 0.06 1.1837 0.11539 1.2227-0.34961-0.01-0.095-0.23438-1.3926-0.23438-1.3926 0.013-0.149 0.19008-0.19628 0.33008-0.11328 0.139 0.083 0.17589 0.09112 0.33789 0.32812 0.179 0.246 0.27589 0.46423 0.46289 0.99023 0.092 0.262 0.46736 0.17236 0.56836 0.06836 0.085-0.083 0.26225-0.2558 0.28125-0.3418 0.069-0.305 0.06638-0.29591-0.14062-0.12891-0.142 0.107-0.22464 0.07099-0.30664-0.04102-0.104-0.399-0.51261-1.1138-0.72461-1.2168-0.221-0.103-0.02613-0.17219 0.04687-0.24219 0.246-0.228 0.02891-1.3399 0.0039-1.5469-0.0135-0.103-0.04161-0.16692-0.08398-0.18555zm-17.305 0.12305c-0.06233 0.01472-0.12525 0.04877-0.1875 0.10352-0.057 0.048-0.19486 0.03848-0.13086 0.14648 0.064 0.118 0.16706 0.22906 0.28906 0.28906 0.136 0.068 0.1918-0.03275 0.3418-0.09375 0.077-0.028 0.14006-0.02387 0.16406-0.04687 0.025-0.025 0.02491-0.10072 0.0039-0.13672-0.114-0.18675-0.29348-0.30588-0.48047-0.26172zm1.8594 0.21875c-0.04113-0.000375-0.092 0.04091-0.125 0.12891-0.038 0.107-0.49333 0.95031-0.98633 0.94531-0.112 0-0.17192 0.13639-0.04492 0.15039 0.25 0.027 0.45508 0.11328 0.45508 0.11328 0.025 0.01 0.02148 0.09961 0.02148 0.09961l-0.30469 1.3516c-0.01 0.066-0.24624 0.13647-0.11524 0.23047 0.158 0.111 0.32195 0.27209 0.37695 0.37109 0.041 0.077 0.17312 0.037 0.20313 0 0.029-0.042 0.28906-0.23047 0.28906-0.23047 0.045-0.05 0.02952-0.11686-0.02148-0.13086-0.055-0.01-0.13681-0.05128-0.13281-0.11328 0-0.06 0.21756-1.342 0.22656-1.377 0.005-0.038 0.01364-0.05183 0.05664-0.04883 0 0 0.2562 0.06113 0.2832 0.07813 0 0 0.08936 0.0012 0.06836 0.20117-0.01 0.13 0.11309 0.11081 0.12109 0.0078 0 0 0.05028-0.25145 0.11328-0.43945 0.067-0.185 0.01039-0.26711-0.09961-0.28711 0-0.000001-0.28475-0.01127-0.34375-0.07227-0.05-0.05-0.04916-0.1157-0.03516-0.2207 0 0 0.0515-0.46386 0.0625-0.63086 0.0045-0.0845-0.02723-0.12658-0.06836-0.12695zm14.043 0.10742c-0.0165-0.0057-0.05291 0.03862-0.12891 0.14062-0.154 0.21-0.21175 0.13388-0.46875 0.04687-0.583-0.193-0.88473 0.46452-0.67773 0.85352 0.135 0.264 0.14683 0.17033 0.17383-0.01367 0.026-0.187 0.26398-0.37284 0.58398-0.33984 0.32 0.03 0.4983-0.26239 0.5293-0.52539 0.002-0.101 0.0048-0.15636-0.01172-0.16211zm3.6602 0.35156c-0.04823-0.0203-0.11197 0.04169-0.13672 0.08594-0.03 0.055-0.53803 0.57473-0.95703 0.67773-0.069 0.029-0.02089 0.10553 0.03711 0.14453 0.05 0.037 0.41544 1.1241 0.39844 1.2441-0.015 0.117-0.07245 0.26048 0.06055 0.27148 0.126 0.013 0.59358 0.15381 0.64258 0.25781 0.051 0.102 0.21366 0.11184 0.22266-0.03516 0.004-0.146 0.27561-0.50392 0.34961-0.54492 0.08-0.041 0.13669-0.28248-0.07031-0.14648-0.205 0.135-0.44686 0.02717-0.50586-0.04883-0.062-0.081-0.17578-0.44727-0.17578-0.44727 0.253-0.176 0.60727-0.55133 0.69727-0.61133 0.09-0.068-0.01602-0.15945-0.04102-0.18945-0.031-0.032-0.44147-0.48647-0.48047-0.60547-0.0105-0.0285-0.02494-0.04597-0.04102-0.05273zm-15.955 0.07227c-0.11825-0.02688-0.24578 0.0051-0.36328 0.12109-0.052 0.047-0.18905 0.04725-0.12305 0.15625 0.074 0.115 0.1875 0.21562 0.3125 0.26562 0.143 0.057 0.19089-0.04519 0.33789-0.11719 0.071-0.035 0.1352-0.02959 0.1582-0.05859 0.023-0.024 0.01633-0.09877-0.01367-0.13477-0.0825-0.1195-0.19034-0.20555-0.30859-0.23242zm-3.54 0.131c-0.0305-0.01125-0.07037-0.0045-0.10938 0.02148-0.082 0.048-0.35998 0.19389-0.45898 0.21289-0.083 0.018-0.01563 0.11719-0.01563 0.11719 0.064 0.035 0.1603 0.06064 0.1543 0.18164-0.007 0.115-0.27148 1.1152-0.27148 1.1152-0.012 0.068-0.23719 0.12652-0.11719 0.22852 0.148 0.121 0.30466 0.29648 0.34766 0.39648 0.039 0.081 0.16912 0.04958 0.20312 0.01758 0.034-0.037 0.30859-0.21289 0.30859-0.21289 0.048-0.047 0.03528-0.11391-0.01172-0.12891-0.055-0.017-0.11633-0.06309-0.11133-0.12109 0.004-0.06 0.25-1.2129 0.25-1.2129 0.059-0.026 0.10912-0.11692 0.07813-0.16992-0.051-0.09-0.18341-0.28823-0.19141-0.36523-0.003-0.041-0.02419-0.06883-0.05469-0.08008zm11.629 0.12695c-0.03975 0.0098-0.07789 0.06225-0.08789 0.15625-0.013 0.11-0.24461 1.0432-0.72461 1.1562-0.112 0.028-0.13281 0.1762-0.0078 0.1582 0.25-0.034 0.41016-0.01563 0.41016-0.01563 0.03 0.002 0.04297 0.08789 0.04297 0.08789l0.13281 1.5469c0.007 0.066-0.20459 0.19205-0.05859 0.24805 0.183 0.067 0.38003 0.18648 0.45703 0.27148 0.058 0.064 0.17431-0.0068 0.19531-0.05078 0.021-0.046 0.22852-0.29492 0.22852-0.29492 0.026-0.06 0.0013-0.12209-0.05469-0.12109-0.053 0-0.14516-0.01917-0.16016-0.07617-0.012-0.059-0.14639-1.4992-0.15039-1.5352-0.002-0.039 0.002-0.05455 0.04102-0.06055 0 0 0.26983-0.0071 0.29883 0.0059 0 0 0.08619-0.02322 0.11719 0.17578 0.018 0.128 0.13414 0.07647 0.11914-0.01953 0 0-0.02105-0.25712 0.002-0.45312 0.019-0.195-0.05992-0.26481-0.16992-0.25781 0 0-0.27866 0.05858-0.34766 0.01758-0.063-0.038-0.0808-0.09998-0.0918-0.20898 0.000001-0.000001-0.0647-0.459-0.0957-0.625-0.016-0.082-0.05595-0.11522-0.0957-0.10547zm3.9512 0.07617c-0.0235-0.01175-0.06323-0.006-0.11523 0.01953-0.517 0.182-0.42177 0.61577-0.38477 0.88477 0-0.000001 0.02772 0.10806-0.11328 0.16406-0.153 0.068-0.28452 0.31306-0.22852 0.53906 0.063 0.268 0.13555 0.1738 0.18555 0.0918 0.124-0.192 0.22548-0.10491 0.27148-0.0039 0 0 0.13874 0.37188 0.05273 0.67188-0.036 0.061-0.02006 0.12689 0.08594 0.08789 0.102-0.031 0.46827-0.2215 0.44727-0.4375-0.052-0.364-0.28159-1.5807-0.18359-1.9297 0.012-0.0475 0.0059-0.07614-0.01758-0.08789zm-10.076 0.54102c-0.0385-0.0033-0.07906 0.0094-0.10156 0.04492-0.172 0.271-0.57102 0.51775-1.041 0.59375h-0.02344c-0.014-0.005-0.06297 0.0217-0.04297 0.0957 0.124 0.338-0.12788 1.2842-0.17188 1.3262-0.047 0.032-0.01906 0.10209 0.08594 0.12109 0 0 0.57538 0.16138 0.73438 0.48438 0 0 0.05698 0.19252 0.20898-0.02148 0.15-0.217 0.69981-0.48428 0.88281-0.48828 0 0 0.19017-0.05647 0.07617-0.23047-0.094-0.137 0.01394-1.0578 0.08594-1.1738 0.047-0.051 0.10089-0.13483-0.03711-0.17383-0.298-0.092-0.54931-0.45439-0.57031-0.52539-0.0115-0.0305-0.04744-0.04948-0.08594-0.05273zm-2.1133 0.0039c-0.03187-0.0096-0.07142-0.0026-0.10742 0.02539-0.078 0.055-0.34536 0.22395-0.44336 0.25195-0.078 0.022-0.0059 0.11524-0.0059 0.11524 0.066 0.029 0.16397 0.05002 0.16797 0.16602 0.002 0.117-0.17188 1.1719-0.17188 1.1719-0.008 0.066-0.23152 0.14233-0.10352 0.23633 0.161 0.11 0.32195 0.27514 0.37695 0.36914 0.041 0.077 0.17317 0.04195 0.20117 0.002 0.032-0.043 0.29297-0.23047 0.29297-0.23047 0.043-0.05 0.02856-0.11795-0.02344-0.12695-0.05-0.012-0.11719-0.05228-0.11719-0.11328 0-0.064 0.14453-1.2637 0.14453-1.2637 0.06-0.037 0.10336-0.12669 0.06836-0.17969-0.058-0.085-0.19984-0.27256-0.21484-0.35156-0.0075-0.0375-0.03258-0.06264-0.06445-0.07227zm6.4434 0.41992c-0.03763 0.0046-0.07856 0.02974-0.10156 0.05273-0.046 0.046-0.67842 0.40672-1.1074 0.38672-0.073 0.011-0.04886 0.09534-0.0059 0.15234 0.038 0.049 0.09197 1.1956 0.04297 1.3066-0.05 0.11-0.13653 0.22739-0.01953 0.27539 0.123 0.05 0.53378 0.31083 0.55078 0.42383 0.019 0.114 0.17766 0.16834 0.22266 0.02734 0.048-0.139 0.40233-0.40478 0.48633-0.42578 0.084-0.018 0.20666-0.23316-0.02734-0.16016-0.23 0.075-0.43961-0.09655-0.47461-0.18555-0.036-0.097-0.04687-0.47656-0.04687-0.47656 0.291-0.102 0.73875-0.35848 0.84375-0.39648 0.102-0.037 0.02977-0.15822 0.0098-0.19922-0.022-0.036-0.28883-0.58798-0.29883-0.70898-0.0035-0.0605-0.03659-0.07689-0.07422-0.07227zm-0.41406 0.48633c0.03313-0.0025 0.06445 0.02091 0.06445 0.06641 0 0.09 0.064 0.31625 0.125 0.40625 0.056 0.072 0.07688 0.16331-0.07813 0.19531-0.086 0.021-0.23547 0.11383-0.23047-0.07617 0.002-0.148 0.03692-0.43576 0.04492-0.50976 0.0065-0.0515 0.04109-0.07953 0.07422-0.08203z"/><path fill="#fff" d="m34.66 10.822c-0.433 0.02037-0.90953 0.21548-1.207 0.83398-0.144 0.284-0.34556 0.64469 0.27344 0.17969 0.309-0.172 1.0352-0.16783 1.3262-0.04883 0.293 0.115 1.1955 0.20044 1.7285-0.35156 0.306-0.291 0.26533-0.33247-0.01367-0.23047-0.756 0.06-0.91711 0.01384-1.1621-0.16016-0.1235-0.087-0.51231-0.24303-0.94531-0.22266zm-21.35 0.28906c-0.43312 0.0205-0.91098 0.21694-1.209 0.83594-0.146 0.285-0.34752 0.63964 0.27148 0.18164 0.304-0.175 1.0381-0.16769 1.3301-0.05469 0.289 0.119 1.1895 0.20734 1.7285-0.34766 0.306-0.29 0.26533-0.33342-0.01367-0.23242-0.755 0.061-0.91711 0.01589-1.1621-0.16211-0.1225-0.087-0.51219-0.2412-0.94531-0.2207zm6.1348 0.06641c-0.552 0-1.8146 0.41809-2.2656 0.62109-0.419 0.178-0.74338 0.37539-0.98438 0.52539-0.552 0.353-0.83245 0.5843-0.81445 1.2793l0.002 4.1445c-0.01 0.138 0.11594 0.20373 0.21094 0.17773 0 0 1.1457-0.44512 1.1387-0.57812v-4.9121c0.049-0.384 0.65802-0.60008 1.166-0.58008 0.101 0.009 1.0153 2.1824 1.6133 3.2734 0.109 0.196 0.21011 0.43788 0.28711 0.67188 0.201 0.575 0.33131 1.1423 0.19531 1.7383-0.099 0.449-0.2065 0.8772-0.4375 1.2832-0.124 0.225-0.35314 0.46656-0.49414 0.60156-0.232 0.225-0.47914 0.51906-0.74414 0.28906-0.547-0.472-1.0851-0.8378-1.7871-0.9668-1.37-0.258-2.7844 0.09548-3.6914 1.1465-0.018 0.02-0.08064 0.23003 0.19336 0.08203 1.104-0.509 2.4421-0.37017 2.9961-0.07617 0.619 0.203 1.1106 0.62276 1.6816 1.0098 0.054 0.038 0.15884 0.038 0.21484 0 1.624-1.064 3.1517-2.2086 3.4727-4.1836 0.192-1.139-0.04317-2.1523-0.70117-3.1133-0.485-0.71-0.86811-1.3756-1.0371-2.2266-0.022-0.096-0.15784-0.22303-0.21484-0.20703zm22.09 0.39062c-0.043-0.0034-0.08605 0.0078-0.12305 0.0293-0.104 0.059-0.90161 0.61197-0.97461 0.66797-0.075 0.058-0.04694 0.1598 0.03906 0.2168 0.091 0.06 0.26172 0.18945 0.26172 0.18945s0.11719 0.01511 0.11719 0.16211v5.877s0.04281 0.20464-0.11719 0.30664c-0.684 0.531-0.98123 0.74853-1.2402 0.51953-0.544-0.474-1.0851-0.83675-1.7891-0.96875-0.047-0.008-0.03884-0.01153-0.08984-0.01953l0.0039-6.3008c0.015-0.277-0.07877-0.34839-0.25977-0.27539-1.076 0.495-1.1722 0.6135-1.1562 1.3125v5.25c-0.837 0.127-1.6145 0.52055-2.1895 1.1855-0.015 0.019-0.07969 0.23008 0.19531 0.08008 1.105-0.509 2.4421-0.37117 2.9961-0.07617 0.618 0.203 1.1096 0.62381 1.6816 1.0078 0.054 0.036 0.15689 0.036 0.21289 0 0.532-0.347 1.196-0.76131 1.668-1.1953 0.274-0.246 0.34766 0.04492 0.34766 0.04492 0.146 0.376 0.62758 0.97939 0.89258 1.1504 0.21 0.136 0.40234 0.0293 0.40234 0.0293 0.251-0.174 0.55219-0.50933 0.74219-0.61133 0.19-0.103 0.04234-0.30069 0.02734-0.30469-0.465-0.218-0.82647-1.1365-0.85547-1.9375l-0.0078-4.7559c-0.017-0.115 0.02234-0.21669 0.15234-0.30469 0.132-0.089 0.07067-0.24669 0.01367-0.30469-0.06-0.06-0.75708-0.84497-0.83008-0.91797-0.035-0.035-0.07809-0.05327-0.12109-0.05664zm-6.623 1.3242c-0.04013-0.0086-0.09226 0.02114-0.13476 0.05664-0.261 0.088-0.9587 0.52338-1.2207 0.85938 0 0-0.13114 0.14358-0.11914 0.39258v1.4121s0.02956 0.2755-0.27344 0.1875c-0.454-0.129-0.83389 0.21795-0.96289 0.37695-0.131 0.163 0.000703 0.30419 0.2207 0.11719 0.508-0.118 1.0156 0.08847 1.0156 0.48047v2.0781c0 0.105 0.05908 0.16189 0.20508 0.08789 0.437-0.143 1.1077-0.68047 1.2207-0.85547 0.118-0.177 0.11719-0.21983 0.11719-0.42383 0 0 0.015-4.5996 0-4.5996 0-0.114-0.02824-0.1613-0.06836-0.16992zm-20.945 0.14453c-0.03962-0.0091-0.09027 0.02064-0.13477 0.05664-0.261 0.088-0.96061 0.52342-1.2246 0.85742 0 0-0.12828 0.14653-0.11328 0.39453v1.4102s0.02761 0.28036-0.27539 0.19336c-0.456-0.131-0.82898 0.21405-0.95898 0.37305-0.131 0.159-0.0012 0.30814 0.2168 0.11914 0.508-0.118 1.0195 0.08552 1.0195 0.47852v2.082h-0.002c0 0.102 0.05812 0.15898 0.20312 0.08398 0.435-0.144 1.1066-0.68038 1.2246-0.85938 0.114-0.173 0.11328-0.21397 0.11328-0.41797 0 0 0.014-4.5957 0-4.5957 0-0.1175-0.02873-0.16666-0.06836-0.17578zm31.605 45.08s-0.04678-0.01552-0.05078 0.02148c-0.002 0.038-0.06761 0.18698-0.09961 0.20898-0.026 0.012-0.02609 0.04627 0.0039 0.07227 0.156 0.205 0.38925 0.92814 0.40625 0.99414 0.013 0.066 0.04975 0.09199 0.09375 0.08398 0.131-0.022 0.48139 0.0615 0.52539 0.0625 0.02 0.005 0.14569-0.04611 0.05469-0.16211-0.068-0.09-0.44234-0.89677-0.52734-1.1348-0.01-0.027-0.01559-0.03344-0.05859-0.02344-0.048 0.014-0.24266-0.03505-0.34766-0.12305zm-10.642 3.164c-0.026-0.015-0.1103 0.0091-0.1543 0.03711-0.034 0.026-0.35652 0.23758-0.35352 0.51758 0 0.297-0.02923 0.27261 0.13477 0.97461 0.03 0.125 0.32684-0.07403 0.33984-0.08203 0.16-0.152 0.18375-0.17472 0.21875-0.38672 0.013-0.481-0.10555-1.0245-0.18555-1.0605zm-18.646 0.28711c-0.304-0.022-0.30366 0.23992-0.34766 0.41992-0.065 0.258-0.15947 0.62331-0.10547 0.82031 0.052 0.195 0.07325 0.35276 0.28125 0.38476 0.104 0.015 0.25753-0.17438 0.26953-0.23438 0.089-0.421 0.18575-0.70723 0.21875-1.1152 0.022-0.282-0.23141-0.26839-0.31641-0.27539zm21.082 0.51758c-0.03162 0.011-0.05928 0.04516-0.05078 0.09766 0.015 0.072 0.06166 0.363 0.09766 0.5 0.047 0.185 0.16519 0.05562 0.24219 0.01563 0.136-0.08 0.09553-0.15984 0.01953-0.21484-0.08-0.07-0.20652-0.27442-0.22852-0.35742-0.012-0.0405-0.04845-0.05202-0.08008-0.04102zm-14.006 0.875c-0.017 0.033-0.14155 0.13867-0.18555 0.13867-0.028 0-0.0423 0.02355-0.0293 0.06055 0.038 0.256-0.09238 1.0093-0.10938 1.0723-0.019 0.068 0.000063 0.10314 0.03906 0.11914 0.126 0.044 0.4015 0.27674 0.4375 0.30274 0.015 0.011 0.148 0.02695 0.125-0.12305-0.019-0.105 0.03231-0.99309 0.07031-1.2461 0.003-0.032 0.0021-0.03587-0.04687-0.04687-0.047-0.009-0.19023-0.14648-0.24023-0.27148 0 0-0.03955-0.03686-0.06055-0.0059z"/></g></svg>
