<?xml version="1.0" encoding="UTF-8" standalone="no"?>
<svg xmlns:rdf="http://www.w3.org/1999/02/22-rdf-syntax-ns#" xmlns="http://www.w3.org/2000/svg" enable-background="new 0 0 236.28 236.29" xml:space="preserve" height="236.28" width="236.29" version="1.1" y="0px" x="0px" xmlns:cc="http://creativecommons.org/ns#" xmlns:dc="http://purl.org/dc/elements/1.1/" viewBox="0 0 236.28951 236.27966"><g transform="matrix(.5 0 0 .5 1.2888 .94150)"><g><path stroke-linejoin="round" d="m0.90748 234.65c0 128.92 104.49 233.4 233.36 233.4 128.93 0 233.41-104.48 233.41-233.4-0.01-128.86-104.49-233.34-233.42-233.34-128.86-0.004-233.35 104.48-233.35 233.34z" stroke="#b19142" stroke-miterlimit="3.864" stroke-width="1.8149" fill="#fff"/><path d="m424.52 234.95c0 104.96-85.085 190.04-190.04 190.04s-190.04-85.085-190.04-190.04c0-104.95 85.081-190.04 190.04-190.04 104.95 0 190.04 85.085 190.04 190.04" fill="#00254c"/><path d="m165.07 385.03s-2.6771 5.0747-3.5235 8.5982c-0.84644 3.5275-0.98817 6.3463-0.98817 6.3463s0.14173 1.126 2.9606 2.2558c2.8188 1.1299 3.3818 0.42125 3.3818 0.42125s2.5393-2.2558 4.3739-6.7636c1.8307-4.5117 2.5354-7.3345 2.5354-7.3345s1.9724 0.9921 5.0747 2.1181 5.0747 1.5511 5.0747 1.5511-1.2677 3.6653-2.1141 7.7518c-0.89762 4.3345-0.70471 7.7518-0.70471 7.7518s1.2677 1.2677 3.5235 1.8346c2.2558 0.56298 3.3818 0 3.3818 0s1.9763-2.1141 3.3858-7.051c1.4094-4.9369 1.6929-7.61 1.6929-7.61s2.0984 0.76376 5.3581 1.5472c3.5235 0.85037 5.0747 0.85037 5.0747 0.85037s-0.8858 4.5314-1.2716 7.7518c-0.54329 4.5668 0.40944 7.7912 0.40944 7.7912s1.063 1.2637 2.8661 1.5511c2.9802 0.47637 3.9369-0.24015 3.9369-0.24015s2.2677-2.5078 2.9842-11.338c0.71652-8.8305-0.59841-11.216-1.6692-12.767-1.0748-1.5511-15.909-15.354-29.48-30.074-15.511-16.826-21.838-29.952-21.838-29.952l36.759-3.7007s-0.0827 4.2755-2.1496 9.7872c-4.2952 11.456-7.8384 13.26-8.114 15.393-0.3622 2.744 0.83462 4.1771 3.3385 4.8936 2.5078 0.71651 6.9408-1.0039 10.862-2.0314 10.5-2.744 19.33-3.6968 19.33-3.6968l14.681 12.051 15.992-12.649s7.6376 1.7913 13.96 2.0314c6.3266 0.23621 11.724 0.374 12.649-3.2243 0.95667-3.6968-1.9842-8.6061-4.2952-13.724-2.311-5.114-4.4133-9.7832-4.4133-9.7832s6.6809 1.6692 21.122 3.3385c14.441 1.6732 21.24 1.9094 21.24 1.9094s-9.425 17.067-23.149 29.476c-4.2676 3.8621-10.39 10.752-16.232 16.472-5.8384 5.7203-11.216 10.858-13.366 13.244-2.5866 2.8779-2.0275 10.382-1.7874 13.008 0.49211 5.4369 1.5511 9.7872 3.1023 11.456 0 0 0.24015 0.71652 3.3424 0.12205 3.1023-0.59841 3.4566-1.1929 3.4566-1.1929s0.83856-4.059 0.24015-8.8305c-0.59447-4.7755-1.1929-7.0431-1.1929-7.0431s1.1929-0.11811 5.3699-1.0748c4.1771-0.95273 5.2518-1.4291 5.2518-1.4291s0.47637 4.1731 1.6692 7.7557c1.1968 3.5786 3.3424 7.0392 3.3424 7.0392s0.35826 0.95667 3.5826-0.11811c3.2204-1.0748 3.1023-1.7913 3.1023-1.7913s0.59448-3.1023-0.59841-8.114-2.0275-7.3975-2.0275-7.3975 1.311-0.24015 5.2518-1.6732c3.9369-1.4291 4.8896-1.9094 4.8896-1.9094s1.5472 4.5392 2.6259 7.2793c1.5511 3.9408 4.1771 6.803 4.1771 6.803s0.35826 0.83462 3.5826-0.59841c3.2204-1.4291 2.8621-2.1456 2.8621-2.1456s0.11811-3.4606-1.6692-7.9959c-1.7913-4.5353-2.8661-7.0431-2.8661-7.0431s0.95667-0.35432 4.7755-2.2637 5.0117-2.748 5.0117-2.748 1.8267 3.9684 3.3424 6.803c1.9094 3.5826 5.0117 6.3266 5.0117 6.3266s0.71652 0.59447 3.3385-0.95667c2.6259-1.5511 2.744-2.3858 2.744-2.3858s-0.23622-3.7007-2.744-8.2321c-2.5039-4.5353-3.5786-6.2085-3.5786-6.2085s1.1929-0.83462 4.5353-2.9842c3.3424-2.1456 4.4133-3.2204 4.4133-3.2204s2.4133 3.8306 4.2952 6.5628c2.3897 3.4606 5.6101 5.6101 5.6101 5.6101s0.95667 0.47637 3.4606-1.5511c2.5078-2.0275 2.2677-2.744 2.2677-2.744s-0.47637-2.6259-3.2204-6.803-4.8936-6.3266-4.8936-6.3266 0.59448-0.47636 4.1771-3.5786c3.5786-3.1023 4.055-3.8188 4.055-3.8188s2.0393 2.9763 5.1337 5.9684c3.7007 3.5787 6.2046 4.7715 6.2046 4.7715s0.83462 0.24015 3.2243-2.1496c2.3858-2.3858 1.9094-2.8621 1.9094-2.8621s-0.83462-2.3858-4.1771-6.4447c-3.3424-4.059-5.4881-5.7282-5.4881-5.7282s1.0708-0.83462 4.1731-4.2952c3.1023-3.4605 3.2243-3.8188 3.2243-3.8188s1.9724 2.3346 5.6062 5.1298c4.6574 3.5787 6.9211 4.059 6.9211 4.059s0.59841 0.47637 2.748-2.1496c2.1496-2.6259 1.5511-2.9842 1.5511-2.9842s-0.59841-2.5039-5.0117-6.3227c-3.8975-3.37-6.0865-4.8936-6.0865-4.8936s1.311-1.5511 3.6968-5.0117c2.3897-3.4605 2.748-4.059 2.748-4.059s3.0511 2.3149 6.5628 4.6534c4.2952 2.8661 7.0392 2.8661 7.0392 2.8661s0.83462 0.1181 2.3897-2.5078c1.5472-2.622 1.4291-3.2204 1.4291-3.2204s-2.3858-2.9842-5.7282-5.37c-3.3385-2.3858-6.9211-4.2952-6.9211-4.2952s1.5511-2.5078 3.1023-5.492c1.5511-2.9842 2.1496-4.4133 2.1496-4.4133s2.5078 1.9015 7.3975 3.9369c5.7282 2.3858 7.2794 2.0275 7.2794 2.0275s0.46062 0.23227 2.1496-2.8621c1.433-2.6259 0.71652-3.2243 0.71652-3.2243s-1.9094-2.5039-6.4447-4.8936c-4.5353-2.3858-7.1612-3.3385-7.1612-3.3385s0.95667-2.2677 2.2677-5.7282 1.6732-4.5353 1.6732-4.5353 3.122 1.6023 7.7557 2.9842c5.6101 1.6692 7.3974 1.0708 7.3974 1.0708s0.83857 0 1.7913-2.744c0.95667-2.744 0.47636-3.4605 0.47636-3.4605s-1.0748-1.9094-6.3266-4.055c-5.2479-2.1496-8.3502-2.6259-8.3502-2.6259s0.95273-2.744 1.6692-5.6101c0.71652-2.8621 1.0748-5.0117 1.0748-5.0117s3.1338 1.0157 7.5156 1.9094c5.8502 1.1929 7.9998 0.24015 7.9998 0.24015s0.83463-0.12204 1.4291-3.1023c0.59841-2.9842 0.11811-3.3424 0.11811-3.3424s-1.1929-1.6732-7.0392-3.2243c-5.8463-1.5512-8.4722-1.5512-8.4722-1.5512s0.47637-2.744 0.95273-6.2046c0.48031-3.4605 0.59841-5.0117 0.59841-5.0117s2.2677 0.95274 8.4722 1.1929c6.2046 0.24015 7.2793-0.71652 7.2793-0.71652s0.95667-0.59841 1.0748-3.5786c0.12205-2.9842-0.47637-3.2243-0.47637-3.2243s-2.2677-1.433-7.9959-2.2677c-5.7282-0.83463-7.6376-0.47637-7.6376-0.47637s0.11811-2.9842 0-8.236c-0.12204-5.2479-0.35826-7.1573-0.35826-7.1573s0.71652 0.59447 7.6376-0.24015c6.9211-0.83463 7.8738-2.0275 7.8738-2.0275s0.83856-0.83463 0.4803-3.8188c-0.35825-2.9842-0.95666-2.9842-0.95666-2.9842s-2.5039-1.0748-7.9919-0.95667c-5.492 0.12204-7.8778 0.83856-7.8778 0.83856s-0.12205-2.2677-0.71652-5.8502c-0.59841-3.5786-0.95273-5.0117-0.95273-5.0117s3.5786-0.11811 8.8305-1.5511c5.2479-1.4291 6.3227-2.6259 6.3227-2.6259s0.6614-0.90943 0-3.8188c-0.59448-2.622-1.5512-2.622-1.5512-2.622s-1.9094-1.1968-7.5195-0.36219c-5.6062 0.83856-7.9919 1.9094-7.9919 1.9094s-0.59842-3.2204-1.5551-6.3227c-0.95274-3.1023-1.311-4.2952-1.311-4.2952s1.9842 0.0158 7.9959-2.3858c6.5628-2.6259 6.4447-3.9408 6.4447-3.9408s0.23622-1.1929-0.59841-3.3424c-0.83462-2.1456-1.7913-2.744-1.7913-2.744s-3.4566-0.11811-7.6376 0.95667c-4.1731 1.0708-7.6376 2.6259-7.6376 2.6259s-0.95273-2.5078-2.2637-5.7282c-1.3149-3.2243-1.7913-4.5353-1.7913-4.5353s3.5786-0.95667 7.8738-3.3424c4.2991-2.3858 5.6101-4.059 5.6101-4.059s0.1181-1.7874-1.1929-4.055c-1.3149-2.2677-1.9094-2.1496-1.9094-2.1496s-2.9842 0-7.1612 1.6732c-4.1771 1.6692-7.3975 3.5787-7.3975 3.5787s-1.0748-2.1496-2.8621-5.1337c-1.7913-2.9802-2.6259-4.2952-2.6259-4.2952s3.5786-1.5511 7.8738-4.7715c4.2991-3.2243 4.7755-4.5353 4.7755-4.5353s0.11811-0.95667-1.5551-3.3424c-1.6692-2.3858-2.3858-2.1496-2.3858-2.1496s-2.744 0.12204-6.799 2.3897c-4.059 2.2677-7.0431 4.6534-7.0431 4.6534s-1.1929-2.1496-3.3424-5.0117c-2.1456-2.8661-3.1023-3.9408-3.1023-3.9408s4.059-2.5039 7.0431-5.3699c2.9802-2.8621 4.2952-5.1298 4.2952-5.1298s-0.12205-1.433-1.7913-3.2204c-1.6692-1.7913-2.6259-1.9094-2.6259-1.9094s-2.6259 0.59447-6.799 3.4566c-4.181 2.8661-6.3266 5.1337-6.3266 5.1337s-1.1929-1.433-3.9369-4.2952c-2.748-2.8661-3.4645-3.5826-3.4645-3.5826s5.0156-4.5314 6.925-7.0392 2.8621-4.7755 2.8621-4.7755 0.47637-1.0708-2.0275-3.1023c-2.437-1.9685-2.9842-1.7874-2.9842-1.7874s-2.5039 0.95274-6.0865 4.1731c-3.5786 3.2243-5.7282 6.0904-5.7282 6.0904s-0.83462-0.95667-4.2952-3.7007c-3.4605-2.744-4.1771-3.2243-4.1771-3.2243s2.2677-2.2677 5.6101-7.2793c3.3424-5.0117 2.8621-6.0865 2.8621-6.0865s-0.1181-0.83462-2.1456-2.2677c-2.0314-1.4291-3.3424-1.4291-3.3424-1.4291s-2.1496 0.59447-5.4881 4.5314c-3.3424 3.9408-5.2518 7.0431-5.2518 7.0431s-1.433-1.433-4.6574-3.3424c-3.2204-1.9094-4.2952-2.5039-4.2952-2.5039s2.3858-3.2243 4.6574-7.9959c2.2637-4.7755 2.0275-6.0865 2.0275-6.0865s0-0.71652-2.5078-2.1496c-2.5078-1.433-3.4605-0.95273-3.4605-0.95273s-2.1496 1.0748-4.8936 5.2479c-2.744 4.1771-4.2952 7.4014-4.2952 7.4014s-1.5512-0.83462-5.2518-2.5078c-3.7007-1.6692-4.5314-1.9094-4.5314-1.9094s2.3858-4.6534 3.9369-8.9486c1.5512-4.2991 1.1929-5.9684 1.1929-5.9684s-0.4803-1.0748-2.9842-2.0275c-2.5078-0.95667-3.4605-0.47637-3.4605-0.47637s-2.0275 1.6692-4.1771 5.8463c-2.1456 4.1771-3.3424 7.9959-3.3424 7.9959s-1.311-0.59841-5.37-1.9094c-4.059-1.3149-4.7715-1.433-4.7715-1.433s1.7913-4.8936 2.744-9.4289c0.95667-4.5353 0.35826-5.9644 0.35826-5.9644s-0.24015-0.71652-2.6259-1.433c-2.3858-0.71652-3.8188-0.24015-3.8188-0.24015s-1.933 1.1456-3.5826 6.0865c-1.6692 5.0156-2.3858 8.4722-2.3858 8.4722l-5.37-1.0708c-4.1771-0.83856-5.37-0.95667-5.37-0.95667s1.3149-3.4605 1.7913-8.9486c0.47637-5.492-0.24015-6.803-0.24015-6.803s-1.0748-0.83462-3.4606-1.1929c-2.3858-0.35826-3.3424 0.35826-3.3424 0.35826s-1.7874 2.1456-2.744 6.6809c-0.95273 4.5353-1.311 8.8305-1.311 8.8305l-9.3108-1.0708s-0.1181-7.1612-0.83462-10.622c-0.71258-3.4605-2.9842-5.3699-4.8936-5.8463-1.9094-0.4803-3.5787-0.71652-4.6534 0.11811-1.0748 0.83462-2.2677 5.8463-3.2204 7.0392-0.95667 1.1929-5.37 4.4172-7.6376 9.7872l-2.8661 0.47637s-0.47637-5.0117-1.6692-9.4289c-1.1929-4.4133-2.8661-6.3227-2.8661-6.3227s-0.83463-0.47637-3.4566 0c-2.6259 0.47637-2.9881 1.311-2.9881 1.311s-0.83069 2.6259-0.23621 6.803c0.59841 4.1771 1.7913 8.8305 1.7913 8.8305s-2.3858 0.24015-5.492 0.83462c-3.1023 0.59841-5.37 1.3149-5.37 1.3149s-0.71651-4.5353-2.3858-8.5943c-1.6732-4.055-3.4606-6.2046-3.4606-6.2046s-1.1929-0.35826-3.5786 0.35826c-2.3897 0.71652-2.9842 1.3149-2.9842 1.3149s-0.4803 3.1023 0.71258 7.2754c1.1968 4.181 2.6259 8.236 2.6259 8.236s-2.0275 0.47637-5.366 1.5511c-3.3424 1.0748-4.8975 1.9094-4.8975 1.9094s-1.4291-3.8188-3.4566-7.9959c-2.0314-4.1771-4.2991-6.0865-4.2991-6.0865s-0.95273-0.47637-3.4606 0.59841c-2.5039 1.0748-2.744 2.0275-2.744 2.0275s0.11811 3.8188 1.433 6.9211c1.311 3.1023 3.8188 7.8778 3.8188 7.8778s-2.0314 0.83462-5.2518 2.2677c-3.2243 1.433-4.6534 2.3858-4.6534 2.3858s-1.433-3.5787-4.059-7.2793c-2.6259-3.7007-5.2518-5.6101-5.2518-5.6101s-1.7874 0-3.5786 1.0748c-1.7874 1.0748-2.2677 2.2677-2.2677 2.2677s0.11811 2.744 2.5078 7.0392c2.3858 4.2991 4.2952 6.803 4.2952 6.803s-1.7913 1.0748-4.7755 2.9842c-2.9802 1.9094-4.2952 2.9842-4.2952 2.9842s-2.2677-3.4605-5.0117-6.6809c-2.744-3.2243-5.7282-4.8936-5.7282-4.8936s-1.433-0.12204-3.4606 1.5511c-2.0275 1.6693-2.0275 2.5039-2.0275 2.5039s0.35826 2.6259 3.2204 6.5668c2.8661 3.9369 5.2518 6.4408 5.2518 6.4408s-1.5512 1.0748-4.1771 3.2243c-2.6259 2.1456-4.2952 3.7007-4.2952 3.7007s-2.6259-3.1062-6.3266-6.3266-5.7282-3.7007-5.7282-3.7007-1.1929-0.11811-3.1023 1.7913-1.6692 2.8621-1.6692 2.8621 0.23621 1.9094 4.1731 6.2085c3.9408 4.2952 5.7282 5.6062 5.7282 5.6062s-1.7874 1.6732-4.1731 4.1771c-2.3858 2.5078-3.2243 3.7007-3.2243 3.7007s-2.5039-2.3858-6.5628-5.2518c-4.055-2.8621-6.6809-3.4606-6.6809-3.4606s-1.0748 0.12205-2.748 2.1496c-1.6692 2.0275-1.5511 3.1023-1.5511 3.1023s0.4803 1.9094 4.5353 5.4881c4.059 3.5826 6.803 5.1337 6.803 5.1337s-1.1929 1.1929-3.4605 4.2952c-2.2677 3.1023-2.9842 4.4133-2.9842 4.4133s-2.6259-2.0275-7.1612-4.4133-6.9211-2.5078-6.9211-2.5078-1.0708 0.24015-2.3858 2.3897c-1.311 2.1456-1.311 3.3385-1.311 3.3385s1.5472 2.6259 6.0825 5.3739c4.5353 2.744 6.3266 3.6968 6.3266 3.6968s-0.83462 1.3149-2.744 4.6534c-1.9094 3.3424-2.6259 4.7755-2.6259 4.7755s-2.5039-1.7913-7.4014-3.4606c-4.8896-1.6732-7.1573-1.6732-7.1573-1.6732s-1.0748 0.24016-2.1496 2.2677c-1.2244 2.3149-1.0708 3.7007-1.0708 3.7007s1.5472 2.3858 7.0392 4.8936c5.4881 2.5039 6.5628 2.744 6.5628 2.744s-0.47637 0.83462-2.0275 4.5353-2.1496 5.6101-2.1496 5.6101-2.1496-1.3149-8.114-2.748c-5.9684-1.4291-7.1612-0.71651-7.1612-0.71651s-0.83463 0.12204-1.6693 2.5078c-0.83462 2.3858-0.59841 3.8188-0.59841 3.8188s0.95667 1.9094 6.9211 3.8188c5.9684 1.9094 7.5195 2.1496 7.5195 2.1496s-0.47637 1.1929-1.433 4.7715c-0.95273 3.5826-1.433 5.7282-1.433 5.7282s-2.744-0.95273-7.9919-1.6692c-5.2518-0.71652-7.7597 0.24015-7.7597 0.24015s-1.0669 0.83463-1.5511 3.5786c-0.35826 2.0275 0.35826 2.8621 0.35826 2.8621s0.83462 1.6732 7.2793 2.9842c6.4447 1.3149 7.7557 1.3149 7.7557 1.3149s-0.59447 2.2637-1.0708 5.7282c-0.47637 3.4606-0.59841 4.8896-0.59841 4.8896s-2.2677-0.59447-7.9959-0.59447-7.7557 0.83463-7.7557 0.83463-0.95667-0.11811-1.0748 3.8188c0 0-0.11811 2.5078 0.35826 2.9842 0.47637 0.47636 1.3149 1.5511 7.8738 2.0275 6.5668 0.47636 7.8778 0.24015 7.8778 0.24015s-0.35826 2.9842-0.35826 7.6376v7.7557s-3.9369-0.23621-8.7124 0.59841c-4.7715 0.83463-7.0392 2.1456-7.0392 2.1456s-0.71652 0.95667-0.47637 3.2243c0.24015 2.2677 1.0708 3.5786 1.0708 3.5786s1.7913 1.1929 7.9998 0.71652c6.2046-0.47637 7.7557-1.0748 7.7557-1.0748s0.11811 1.3149 0.59841 5.37c0.47637 4.059 0.71258 5.6101 0.71258 5.6101s-3.3385 0.23621-7.8738 1.5511c-4.5353 1.311-7.2833 3.2204-7.2833 3.2204s-0.59447 1.433 0 3.7007c0.59841 2.2677 1.433 2.9842 1.433 2.9842s1.7913 0.83462 7.6376-0.35826c5.8502-1.1929 7.7597-2.0275 7.7597-2.0275s0.47637 1.7874 1.311 5.1298c0.83462 3.3424 1.433 5.492 1.433 5.492s-3.1023 0.83463-7.7557 2.744c-4.6574 1.9094-6.803 4.055-6.803 4.055s-0.11811 1.1929 0.59447 3.3424c0.71652 2.1496 1.6732 2.8621 1.6732 2.8621s2.0275 0.71652 7.9919-1.311c5.9684-2.0275 7.1612-2.6259 7.1612-2.6259s0.59841 1.9094 1.7913 4.8936 2.0275 5.1337 2.0275 5.1337-3.4605 1.311-7.5156 3.5786c-4.059 2.2677-6.0865 4.7715-6.0865 4.7715s-0.11811 1.3149 0.83462 3.3424c0.95667 2.0275 2.1496 2.744 2.1496 2.744s1.5472 0.83856 7.5156-2.1456 7.1612-3.9408 7.1612-3.9408 0.35826 1.1968 2.2677 4.7755 2.8661 5.0117 2.8661 5.0117-3.8188 2.2677-6.8069 4.2952c-2.9802 2.0275-5.6062 5.7282-5.6062 5.7282s-0.24015 0.95667 1.1929 3.1023c1.433 2.1496 2.6259 2.6259 2.6259 2.6259s2.5039-0.23621 7.2793-3.3385c4.7715-3.1062 6.4447-4.2991 6.4447-4.2991s1.1929 2.0275 2.9842 4.6534c1.7874 2.6259 3.1023 4.2991 3.1023 4.2991s-2.1496 1.0748-5.8502 4.6534c-3.6968 3.5786-5.2479 6.4447-5.2479 6.4447s-0.24015 0.95274 1.311 2.8621c1.5511 1.9094 2.9842 2.6259 2.9842 2.6259s2.6259-0.47637 7.2793-4.4172c4.6534-3.9369 5.37-4.7715 5.37-4.7715s0.71651 0.59841 3.2243 3.4605c2.5039 2.8661 4.1731 4.5353 4.1731 4.5353s-4.1731 4.059-6.3227 6.803-3.2243 5.488-3.2243 5.488 0.12205 1.433 1.7913 2.9842c1.6732 1.5511 3.1023 1.9094 3.1023 1.9094s2.8661-1.0748 6.5628-5.0117c3.7007-3.9408 4.7755-5.7282 4.7755-5.7282s0.95273 0.95273 4.055 3.5786c3.1062 2.6259 4.2991 3.5826 4.2991 3.5826s-2.744 2.9802-4.7755 6.3227c-2.0275 3.3424-3.3424 7.2793-3.3424 7.2793s0 0.95667 2.1496 2.5078 3.1023 1.5511 3.1023 1.5511 2.3346-0.75589 6.0865-5.8502c3.3424-4.5314 4.2991-5.8463 4.2991-5.8463s1.0708 0.71652 4.1731 2.744c3.1023 2.0314 4.7755 3.1023 4.7755 3.1023s-1.8188 2.7913-3.5826 6.2085c-2.0275 3.9369-2.7401 8.2321-2.7401 8.2321s0 0.71652 2.2637 2.0314c2.2677 1.311 3.5826 1.311 3.5826 1.311s2.3858-1.433 5.37-6.9211c2.9802-5.4881 3.3424-6.2046 3.3424-6.2046s0.95273 0.83462 4.5353 2.5039c3.5786 1.6732 5.0944 2.5039 5.0944 2.5039" fill="#b19142"/><path d="m353.11 297.11c-1.1063-4.74-19.433-12.449-19.433-12.449l4.8582-10.929s16.094 5.4644 23.074 5.1613c6.9841-0.30314 8.5352-20.956 8.8069-22.468 1.5157-8.4998 1.8267-21.783 1.6614-27.582-0.35826-12.535-2.618-21.885-4.2794-25.377-3.2755-6.9762-7.8069-4.5274-13.153-2.8661-5.3188 1.622-10.697 3.2794-10.697 3.2794l-7.7951-13.141s12.74-6.1573 19.33-10.264c6.5746-4.1259 0.811-10.724-3.2952-14.791-4.118-4.122-32.07-36.999-45.306-47.676-13.267-10.704-14.712-4.118-19.637 8.2203-4.9211 12.326-7.3817 19.728-15.594 41.09l-12.354-2.4645s15.626-42.318 18.11-50.581c2.4566-8.2006-3.7007-10.264-7.8266-11.082-2.7401-0.53542-6.9723-2.555-16.637-3.8306l-39.794 0.10236c-5.3463 1.1299-12.189 3.3306-14.252 3.7282-4.0786 0.81888-10.279 2.8818-7.8108 11.082 2.4763 8.2636 18.098 50.581 18.098 50.581l-12.342 2.4645c-8.2242-21.362-10.685-28.763-15.618-41.09-4.9172-12.338-6.3739-18.925-19.629-8.2203-13.24 10.677-41.192 43.554-45.31 47.676-4.0826 4.0668-9.8502 10.665-3.2834 14.791 6.5904 4.1062 19.326 10.264 19.326 10.264l-7.803 13.141s-5.3424-1.6574-10.697-3.2794c-5.3266-1.6614-9.8659-4.1101-13.145 2.8661-1.6456 3.492-3.9054 12.842-4.2637 25.377-0.17716 6.2676 0.5118 18.299 1.5984 25.826l3.0275 16.681 23.145 2.3818 6.3778-1.2165 6.2715 11.925c-6.9801 2.0433-13.149 5.744-17.657 7.8069-4.5314 2.0275-5.5038 8.7832-0.41338 17.252l16.862 23.507c7.051 8.2872 14.429 14.775 24.787 21.673 12.216 8.1376 39.318 2.3346 39.318 2.3346l35.479 38.389 33.153-39.176s33.523 2.5196 41.645-2.3031c10.681-6.3778 18.185-13.649 24.673-21.873 0 0 20.551-25.83 18.425-34.94z" stroke="#00254c" stroke-miterlimit="3.864" stroke-width="1.9094" fill="#fff"/><path d="m157.84 155.19s18.33 9.795 38.416 6.4447c17.185-2.8621 21.984-13.858 21.984-13.858s-4.8148-1.7165-3.6062-5.9526c0.95667-3.3385 5.2636-2.6377 5.2636-2.6377s0.22834-4.9959-4.0708-8.1022c-4.2952-3.1023-8.3502-2.622-7.1573-6.9211 1.4252-5.1377 13.126-2.3858 24.822-2.3858 11.693 0 25.102-2.4881 26.732 2.3858 1.4291 4.2991-4.6219 4.6574-7.6376 6.9211-2.8661 2.1496-4.059 7.8778-4.059 7.8778s4.7755 0.47637 5.2518 2.3858c1.2362 4.9526-3.5826 6.2046-3.5826 6.2046s4.7007 11.13 19.574 13.846c24.822 4.5353 40.814-6.4447 40.814-6.4447s-15.039-1.433-18.141-13.842c-3.1023-12.413 7.8699-26.247 18.854-26.019 11.456 0.24015 26.732 7.6376 34.609 27.448 3.5117 8.8423 7.3226 21.039 8.8305 37.235 1.5078 16.2 0.71652 36.397-3.5786 57.522-9.0313 44.4-28.641 72.077-28.641 72.077s-9.7872-0.71652-18.141-1.9094c-8.3541-1.1929-17.185-2.6259-17.185-2.6259s24.346-31.98 31.743-73.986c5.0786-28.826 0.71652-44.873 0.71652-44.873s-31.503 10.85-85.683 10.85-84.97-10.85-84.97-10.85-4.4566 21.755 0.24015 44.393c9.3069 44.873 31.983 74.467 31.983 74.467s-10.98 0.95667-18.378 1.6732c-7.4014 0.71652-17.665 2.1456-17.665 2.1456s-22.838-36.176-28.161-72.793c-3.8188-26.255-4.2991-39.621-3.1023-55.853 1.1929-16.228 4.2952-28.637 10.023-40.81 5.7282-12.173 18.854-23.629 32.46-24.11 13.602-0.47636 23.771 16.689 19.57 26.732-5.4881 13.13-18.618 13.13-18.618 13.13" fill="#00254c"/></g><g fill="#b19142"><path d="m222.66 12.072-3.4668 0.25586 1.7441 24.885 3.4883-0.23047-1.7656-24.91zm18.729 0.002-1.3223 24.924 3.4883 0.1543 0.6875-13.051 3.4141 13.295 3.4961 0.17188 1.3027-24.912-3.5078-0.16992-0.74805 14.678-3.8106-14.938-3-0.15234zm32.652 3.1406c-2.4999 0.05199-4.3211 1.7464-4.7793 4.5918-0.35826 2.1771 0.0477 3.9765 1.6856 7.4961l1.2871 2.7949c1.3346 2.5157 1.6017 3.5243 1.334 5.1699-0.22834 1.5748-0.89047 2.3647-1.9141 2.1875-1.37-0.21259-1.6438-1.0988-1.2305-3.709l0.13672-1.0039-3.4258-0.39258c-0.11023 0.58266-0.16752 0.81041-0.22657 1.3301-0.34645 2.1299-0.25316 3.2052 0.4043 4.4492 0.72439 1.4448 1.9483 2.2319 3.8184 2.5508 3.185 0.48818 5.3047-1.0899 5.8086-4.3418 0.34251-2.1023-0.1782-4.769-1.3711-7.3477l-1.36-2.803c-1.7401-3.7912-1.8358-4.1209-1.6035-5.6523 0.24803-1.4803 0.88534-2.2081 1.8144-2.0664 0.79132 0.11811 1.2326 0.76348 1.2051 1.791-0.008 0.53148-0.0473 0.96458-0.24805 2.252l3.4219 0.15625c0.31495-2.0078 0.33422-2.1332 0.30273-3.082-0.13386-2.3307-1.6264-3.917-3.957-4.291-0.38286-0.06102-0.75225-0.08751-1.1094-0.08008zm25.23 6.0469-1.1289 3.0684 3.0742 1.082-7.4414 20.416 3.2754 1.1738 7.4141-20.396 3.2012 1.1836 1.1289-3.0625-9.5234-3.4648zm-106.45 4.1484c-1.4212 0-2.5918 1.1763-2.5918 2.6094 0 1.4724 1.1706 2.5918 2.5918 2.5918 1.4409 0 2.6094-1.1194 2.6094-2.5918 0-1.433-1.1685-2.6094-2.6094-2.6094zm-35.271 0.17578-4.2246 1.5469 5.3144 24.598 3.1777-1.1465-1.3398-5.4824 2.9219-1.0723 2.5312 5.0664 3.209-1.1719-11.59-22.338zm-0.67383 5.0703 5.0781 10.445-2.252 0.82227-2.8262-11.268zm167.64 0.26953-10.936 22.412 3.1406 1.5117 10.953-22.393-3.1582-1.5312zm-190.44 4.7676-3.1055 1.5312 10.924 22.395 3.123-1.5195-10.941-22.406zm208.24 4.0293-1.668 2.7715 2.8106 1.6738-11.178 18.598 2.9648 1.7949 11.174-18.598 2.9277 1.7715 1.6582-2.8027-8.6894-5.209zm-228.38 7.834c-0.83647 0.0087-1.7054 0.28217-2.6035 0.82226-2.7873 1.6614-3.1683 4.2528-1.1133 7.6582l6.791 11.303c1.1456 1.9173 1.8104 2.7121 2.8262 3.3145 1.2677 0.77557 2.926 0.81427 4.1582 0.08594 1.0433-0.63384 1.5949-1.7485 1.6934-3.4492l1.3496 1.1855 1.6094-0.95703-6.5547-10.869-4.2832 2.5938 1.5156 2.5039 1.3184-0.77148 1.8516 3.0801c0.70865 1.1732 0.83096 1.3734 0.96875 1.834 0.2559 0.69683 0.0145 1.4329-0.5957 1.7715-0.48818 0.30708-1.1838 0.21297-1.6563-0.29883-0.35039-0.38582-0.37429-0.40119-1.2168-1.8027l-6.8106-11.324c-1.1102-1.8622-1.1502-2.5072-0.17383-3.082 1.0472-0.61416 1.7133-0.16528 3.1699 2.248 0.28345 0.46456 0.4759 0.7757 0.81054 1.4883l2.9648-1.8145c-0.43699-0.87399-0.68545-1.26-0.94922-1.7324-1.5401-2.5415-3.2301-3.8063-5.0703-3.7871zm251.11 6.8027-11.201 14.879c-1.7795 2.3464-2.1008 2.9216-2.1992 4.2129-0.0866 1.4724 0.7079 3.0466 2.1016 4.0898 1.4212 1.0905 3.1297 1.4043 4.5312 0.90039 1.1811-0.45668 1.658-0.9015 3.4453-3.2676l11.229-14.873-2.7969-2.0859-12.062 16.016c-0.86219 1.1338-1.5424 1.3782-2.3691 0.7207-0.83069-0.6181-0.83094-1.3466 0.0351-2.4883l12.03-15.992-2.77-2.112zm-274.79 11.952c-1.2826-0.02473-2.4933 0.64492-4.2266 2.2246l-2.5273 2.248 16.705 18.539 2.5781-2.334-7.0859-7.8613c0.3622-0.35826 0.4442-0.44139 0.83789-0.94531l8.6621 6.6289 2.7832-2.4922-9.7871-7.2266c-0.145-2.362-0.646-3.379-2.74-5.698-1.409-1.574-2.56-2.379-3.871-2.835-0.466-0.155-0.901-0.24-1.328-0.249zm-0.22266 3.4277c0.72879-0.11542 1.4395 0.34348 2.4336 1.4434 1.5472 1.7362 1.8378 2.1108 2.1055 2.6816 0.31495 0.75589 0.08747 1.4759-0.86133 2.3184l-0.35938 0.33789-5.0898-5.6367 0.37305-0.33203c0.51672-0.468 0.96116-0.74325 1.3984-0.8125zm295.27 1.2422-2.1934 2.4102 2.4219 2.1992-14.516 16.107 2.5859 2.334 14.516-16.133 2.5312 2.291 2.1856-2.4375-7.5312-6.7715zm-314.5 14.161c-1.3149-0.000969-2.6834 0.63562-3.7168 1.7793-1.1811 1.3267-1.6533 3.02-1.2832 4.4609 0.35432 1.2008 0.76814 1.717 2.9531 3.7012l9.113 8.196c2.2086 1.9763 2.7401 2.3086 4.0078 2.5605 1.4763 0.22047 3.1138-0.40977 4.3027-1.7129 1.1732-1.3189 1.6379-2.9886 1.2402-4.4531-0.35038-1.2283-0.72889-1.7168-2.9375-3.7246l-9.113-8.202c-2.2047-1.9921-2.7441-2.3302-4.0078-2.5664-0.18454-0.02657-0.37075-0.03892-0.55859-0.03906zm-0.19727 3.4375c0.39812 0.04527 0.84153 0.30874 1.377 0.79102l11.24 10.133c1.0708 0.94486 1.2084 1.6738 0.52734 2.4297-0.71258 0.79131-1.4157 0.70478-2.459-0.25976l-11.268-10.143c-1.0472-0.94486-1.1888-1.6758-0.51953-2.4316 0.35235-0.38779 0.70344-0.5609 1.1016-0.51562zm335.43 3.8789-19.93 15.021 5.248 6.957 2.6035-1.9648-3.1504-4.1758 6.5352-4.9414 2.0918 2.7637 2.5976-1.9805-2.0898-2.7207 5.5938-4.207 2.9688 3.9551 2.582-1.9805-5.0508-6.7266zm-352.4 11.998-5.0664 6.7012 19.916 15.02 5.2402-6.9766-2.5918-1.9805-3.1602 4.2168-6.5234-4.9121 2.0586-2.7598-2.5977-1.9492-2.0762 2.7324-5.5977-4.2246 2.9922-3.9219-2.5938-1.9453zm362.64 22.36c-1.204 0.1175-2.1879 1.066-2.3223 2.3164-0.16929 1.4212 0.88148 2.7196 2.3066 2.8652 1.4409 0.14566 2.7079-0.89331 2.8457-2.3027 0.16141-1.4448-0.8697-2.7313-2.3027-2.877-0.17913-0.0187-0.35534-0.0187-0.52735-0.002zm-376.71 3.9551c-1.8689-0.0304-3.2647 0.89118-4.1973 2.7637-1.4212 2.9487-0.3147 5.3028 3.2285 7.0547l11.885 5.7793c2 0.97635 2.977 1.2914 4.1738 1.2363 1.4803-0.0591 2.9054-0.90205 3.5195-2.1934 0.54329-1.0866 0.3974-2.3182-0.47266-3.8379l1.7949 0.29102 0.80469-1.6816-11.387-5.5508-2.1895 4.4805 2.6387 1.3027 0.66992-1.373 3.248 1.5859c1.2323 0.60629 1.4403 0.72046 1.834 1.0039 0.56692 0.46062 0.74839 1.1746 0.45312 1.8203-0.27165 0.53148-0.89512 0.79807-1.5723 0.64453-0.48818-0.11417-0.52763-0.14088-1.9961-0.86133l-11.86-5.77c-1.9606-0.94092-2.3261-1.4609-1.834-2.4648 0.53936-1.1299 1.3612-1.1035 3.8848 0.14453 0.46456 0.21653 0.80332 0.37569 1.4805 0.78906l1.5234-3.1387c-0.84644-0.4685-1.2756-0.69729-1.748-0.94531-1.4645-0.70274-2.7556-1.0638-3.877-1.082zm399.37 22.07c-0.83506-0.029-1.7093 0.22268-3.8027 0.97266l-11.516 4.209c-2.7716 1.0197-3.3395 1.3497-4.1348 2.3379-0.9173 1.2244-1.1062 2.9618-0.51563 4.6074 0.60234 1.6771 1.8988 2.8765 3.3633 3.1914 1.2401 0.25983 1.8374 0.17392 4.6641-0.8418l11.508-4.2285c2.7991-0.98423 3.3552-1.3302 4.1426-2.3145 0.86612-1.2047 1.071-2.9205 0.48046-4.5976-0.61022-1.6417-1.8912-2.8467-3.3242-3.2207-0.31299-0.064-0.58689-0.10557-0.86524-0.11523zm-0.0156 3.5195c0.56769 0.0279 0.92944 0.3338 1.1484 0.92188 0.32676 0.98817-0.0737 1.5859-1.3926 2.0898l-14.256 5.1816c-1.3425 0.45274-2.0461 0.2555-2.3926-0.70117-0.35039-1.0039 0.0737-1.5902 1.3965-2.0508l14.24-5.1934c0.50048-0.18159 0.91524-0.2648 1.2559-0.24805zm-404.82 10.22c-1.4409 0-2.5938 1.1549-2.5938 2.5879s1.1528 2.6172 2.5938 2.6172c1.437 0 2.5898-1.1842 2.5898-2.6172s-1.1529-2.5879-2.5898-2.5879zm416.04 12.139-24.318 5.6133 0.77929 3.3887 11.137-2.6016 0.78711 3.375 3.1621-0.75586-0.75195-3.3359 6.8105-1.5625 1.0957 4.8106 3.1719-0.74414-1.873-8.1875zm-435.1 16.889-1.3145 8.3223 24.641 3.8965 1.3555-8.5938-3.2207-0.51172-0.80664 5.1621-8.0918-1.2969 0.52344-3.3809-3.2031-0.48438-0.54102 3.3613-6.9082-1.0742 0.78711-4.8496-3.2207-0.55078zm429.26 19.084c-1.4252-0.0787-2.677 0.96138-2.7715 2.4102-0.0945 1.4134 0.98887 2.6771 2.418 2.7637 1.433 0.12992 2.6653-0.97922 2.7637-2.3926 0.10236-1.4291-0.97712-2.6986-2.4102-2.7813zm-432.3 7.29l-0.17773 3.4961 10.229 0.51562-0.14844 2.8496-10.232-0.5625-0.20117 3.5117 24.924 1.291 0.18164-3.4727-11.43-0.59375 0.15039-2.834 11.43 0.57031 0.17969-3.4648-24.905-1.31zm441.47 22.672-0.16602 3.2363-21.66-1.0938-0.19335 3.4805 21.689 1.0976-0.18555 3.4024 3.252 0.18359 0.51563-10.125-3.252-0.18164zm-438.25 4.3809-3.2559 0.21094 0.70508 10.088 3.252-0.20899-0.23633-3.2402 21.641-1.5117-0.23242-3.4531-21.656 1.5-0.2168-3.3848zm414.05 18.752-1.3906 8.625 3.2363 0.51563 0.83203-5.1719 8.082 1.2715-0.5625 3.4004 3.2383 0.5 0.5254-3.3887 6.916 1.0859-0.7832 4.8789 3.2207 0.51562 1.3184-8.3027-24.633-3.9297zm-399.39 15.31c-1.4488 0-2.6152 1.1607-2.6152 2.5977 0 1.4134 1.1665 2.5781 2.6152 2.5781 1.4252 0 2.6016-1.1648 2.6016-2.5781 0-1.437-1.1764-2.5977-2.6016-2.5977zm396.41 9.6113c-2.0065 0.0197-3.4066 1.0892-4.1699 3.2031-1.1614 3.185 0.31326 5.4645 4.4785 7.0117 0.64171 0.20078 1.2245 0.3893 2.4961 0.81055l1.1855-3.2754c-1.1653-0.37007-1.7401-0.57418-2.5117-0.83008-2.433-0.88187-2.9913-1.507-2.6016-2.6133 0.38582-1.0472 1.0194-1.1581 3.043-0.42187l12.908 4.6777c2.0314 0.79132 2.4739 1.2476 2.0606 2.3027-0.39369 1.1535-1.218 1.228-3.8242 0.29102-0.55117-0.22441-0.83405-0.35079-1.5781-0.70117l-1.1895 3.2793c0.87793 0.42125 1.2573 0.55114 1.8242 0.75585 4.0865 1.4685 6.6921 0.65744 7.8613-2.5039 1.0866-3.0787-0.23665-5.3058-3.957-6.6641l-12.916-4.6973c-1.1589-0.42568-2.1973-0.63393-3.1094-0.625zm-374.11 19.607-10.455 4.6562-1.3984-3.168-2.9727 1.3457 1.3945 3.1309-6.3906 2.8535-2.0039-4.5117-2.9766 1.3066 3.4219 7.6973 22.787-10.146-1.4062-3.1641zm362.9 2.7774-1.5117 3.1133 10.271 5.0078-1.2598 2.5586-10.264-5.0078-1.5273 3.1113 22.412 10.936 1.5195-3.0938-9.2188-4.5078 1.2637-2.5586 9.2109 4.4727 1.5254-3.1113-22.422-10.92zm-355.76 15.83c-1.2598-0.0748-1.8412 0.14451-4.4238 1.6524l-10.627 6.0957c-2.559 1.496-3.0579 1.9172-3.6484 3.0234-0.66928 1.3228-0.56351 3.0698 0.31836 4.6367 0.88974 1.4921 2.338 2.4641 3.8262 2.5586 1.2677 0.0551 1.8745-0.20353 4.4414-1.6562l10.609-6.13c2.5747-1.4724 3.0638-1.8777 3.6543-3.0391 0.71258-1.3267 0.59863-3.0742-0.2793-4.582-0.88187-1.5472-2.3475-2.5074-3.8711-2.5586zm0.08398 3.4434c0.40304 0.0443 0.71679 0.28374 0.96875 0.7168 0.52361 0.92124 0.21077 1.5823-1.0215 2.2988l-13.113 7.5684c-1.2323 0.70077-1.9883 0.60635-2.4883-0.25977-0.51967-0.89762-0.21663-1.5843 1.0156-2.3008l13.131-7.5664c0.61219-0.35038 1.1048-0.50132 1.5078-0.45703zm343.91 2.9824-1.791 2.9629 11.236 6.7558-13.346-3.2051-1.7754 2.9492 21.365 12.867 1.7871-2.9453-12.613-7.5859 14.977 3.6094 1.5469-2.5391-21.387-12.869zm-15.312 24.047c-1.3388-0.02-2.7186 0.61343-3.7383 1.7227-1.1811 1.3464-1.6417 3.0199-1.252 4.4766 0.37007 1.2716 0.71675 1.7283 2.9805 3.7598l9.0781 8.1875c2.185 1.9881 2.7598 2.3187 4.0156 2.5234 1.4527 0.21653 3.0903-0.42536 4.2832-1.7324 1.1732-1.2874 1.622-2.979 1.2559-4.416-0.37007-1.2165-0.7387-1.7483-2.9434-3.7207l-9.1191-8.2129c-2.1771-1.9645-2.7324-2.3146-3.9922-2.5391-0.18849-0.03-0.3771-0.046-0.56836-0.0488zm-0.21289 3.4238c0.39419 0.0458 0.83569 0.30877 1.3691 0.78711l11.271 10.125c1.0275 0.95667 1.189 1.6776 0.49219 2.4531-0.69685 0.7677-1.39 0.67753-2.4727-0.29883l-11.26-10.127c-1.0472-0.95667-1.1851-1.6738-0.48828-2.4297 0.34645-0.38581 0.69371-0.55553 1.0879-0.50976zm-316.96 0.0508c-1.437 0-2.5996 1.141-2.5996 2.5938 0 1.4566 1.1626 2.5996 2.5996 2.5996 1.4448 0 2.5977-1.143 2.5977-2.5996 0-1.4527-1.1528-2.5938-2.5977-2.5938zm299.61 13.293-6.2363 5.6113 2.1465 2.3965 3.6797-3.2949 14.516 16.146 2.6035-2.3203-16.709-18.539zm-271.76 0.8457-2.127 2.4492 3.709 3.2441-14.232 16.381 2.6309 2.2793 16.369-18.85-6.3496-5.5039zm18.041 15.021-11.631 22.299 3.6582 2.5781 17.105-18.488-2.7598-1.9316-3.7051 4.252-2.5781-1.8086 2.6894-4.9629-2.7793-1.9375zm234.65 0.63671c-0.97516 0.0615-1.9756 0.43858-2.8516 1.1152-1.3976 1.0315-2.1884 2.6132-2.0781 4.125 0.10629 1.248 0.37853 1.784 2.1816 4.1934l7.3691 9.7988c1.7874 2.3346 2.268 2.8149 3.4649 3.2559 1.3976 0.49605 3.11 0.1485 4.5273-0.86329 1.4015-1.1063 2.1726-2.6527 2.082-4.1055-0.0945-1.311-0.41403-1.8626-2.1738-4.2012l-7.3809-9.8457c-1.7913-2.3582-2.2682-2.7481-3.4453-3.2402-0.53443-0.19341-1.1102-0.26933-1.6953-0.23243zm-0.01 3.3301c0.48004 0.0121 0.95 0.36652 1.4766 1.0801l9.1387 12.098c0.84643 1.1417 0.84609 1.8937 0.0391 2.5039-0.82675 0.64172-1.5207 0.36605-2.3789-0.74023l-9.1211-12.113c-0.85431-1.126-0.85398-1.8742-0.043-2.4844 0.31002-0.23474 0.60064-0.35101 0.88866-0.34375zm-236.12 5.832 1.957 1.3613-7.6113 8.7793 5.6543-10.141zm23.117 4.1582-1.4648 2.873 4.6621 2.3945-3.7246 7.2871-3.0508-1.5996-1.4844 2.9453 3.0547 1.5469-3.1738 6.2207-4.3848-2.2246-1.4883 2.8906 7.5039 3.8106 11.338-22.225-7.7871-3.9199zm190.35 0.72265c-0.53748 0.0103-1.0627 0.12902-1.5352 0.36524-1.122 0.51574-1.7676 1.6177-2.0078 3.3105l-1.2402-1.3418-1.6582 0.82617 5.5312 11.434 4.5-2.209-1.2871-2.6699-1.3711 0.68164-1.5859-3.2207c-0.5866-1.2559-0.69253-1.471-0.79884-1.9355-0.16534-0.69683 0.10643-1.3784 0.73634-1.6895 0.57085-0.27558 1.2114-0.0761 1.6484 0.41993 0.30314 0.38582 0.32435 0.44166 1.0606 1.9141l5.7676 11.857c0.96848 1.9684 0.93955 2.5996-0.0801 3.0957-1.0866 0.53542-1.7307 0.00013-2.9551-2.5234-0.22834-0.46062-0.414-0.81067-0.67383-1.5469l-3.1309 1.5469c0.36613 0.92517 0.57241 1.3617 0.80469 1.8184 1.8936 3.87 4.3691 5.1014 7.3887 3.6133 2.9094-1.4409 3.5195-3.9408 1.7676-7.5312l-5.7832-11.857c-0.96454-2.0236-1.5432-2.8342-2.5117-3.5547-0.76278-0.53641-1.6901-0.81996-2.5859-0.80274zm-166.37 10.271c-1.9978-0.072-3.5816 1.1186-4.5176 3.4394-0.79526 1.937-0.91884 4.6246-0.30469 7.4356l0.67383 3.0195c0.8425 4.0708 0.86589 4.438 0.27929 5.875-0.54329 1.4015-1.3468 1.9521-2.209 1.582-0.72833-0.27164-1.047-0.99224-0.78319-1.9883 0.1378-0.51573 0.27171-0.93611 0.74413-2.1172l-3.2754-0.97266c-0.75982 1.9134-0.80314 2.0042-1.0039 2.9648-0.40157 2.2795 0.70958 4.1962 2.8906 5.0781 2.87 1.1417 5.5355-0.0349 6.752-3.0703 0.83857-2.0433 0.84996-3.906 0.0508-7.6973l-0.64648-3.0195c-0.72833-2.744-0.73517-3.8104-0.13282-5.3379 0.59841-1.4724 1.4046-2.1026 2.3652-1.7129 1.2913 0.51573 1.3553 1.4518 0.37109 3.8809l-0.38281 0.94141 3.2441 1.1777c0.26771-0.5118 0.35006-0.75621 0.54297-1.2129 0.81887-2.0275 0.96156-3.099 0.63086-4.4375-0.42125-1.6063-1.4141-2.6332-3.1621-3.3301-0.749-0.30904-1.461-0.47405-2.127-0.49804zm143.11 0.27148-3.2715 1.1816 3.5391 9.7363 1.3242 15.023 3.4434-1.2676-1.3457-9.2637 4.9336 7.9726 3.5547-1.2891-8.6543-12.373-3.5234-9.7207zm-46.48 10.367-8.4961 1.0508 1.2441 13.455 3.0918-0.36914c0.19686-1.433 0.6836-2.2434 1.4356-2.3379 0.74408-0.0906 1.2176 0.48048 1.3633 1.7324l0.98046 7.8613c0.16535 1.3464-0.20629 2.1575-1.0527 2.2441-1.1063 0.11023-1.6559-0.82721-1.9512-3.2012l-0.11133-0.9961-3.4043 0.42578c0 0.68108 0.0385 1.0124 0.10938 1.6777 0.51574 3.9566 2.5326 5.9052 5.6152 5.5391 1.6023-0.20079 3.0178-1.0512 3.7461-2.248 0.76376-1.2126 0.85594-2.3035 0.54492-4.9688l-0.72852-6.0547c-0.46848-3.8149-2.043-5.8793-4.2988-5.584-1.0551 0.11417-1.7957 0.73655-2.6973 2.2129l-0.47656-6.3535 5.4004-0.62696-0.31446-3.459zm-48.559 0.31055c-1.1732 1.0157-1.8586 1.4181-3.4688 2.1582l-0.28319 2.6094 1.8535 0.20118-2.2109 21.066 3.6328 0.36719 2.7637-26.121-2.2871-0.28125zm12.965 0.90429c-1.2897 0.0641-2.4009 0.56597-3.1484 1.4375-0.88974 1.1023-1.2294 2.2481-1.3672 4.748-0.22047 4.3818-0.054 4.9676 1.6191 6.373-2.1023 0.69289-2.2728 1.2676-2.6113 7.5273-0.13385 2.5196 0.11492 3.901 0.90625 5.0781 0.78738 1.1417 2.1576 1.8235 3.7402 1.918 3.4054 0.1811 5.125-2.0073 5.3769-6.5898 0.31102-6.0392 0.15406-6.7212-1.8223-7.6621 1.7716-1.1771 1.9964-1.784 2.2129-6.1894 0.13779-2.4448-0.0803-3.6572-0.80468-4.7832-0.73227-1.1181-2.0194-1.7866-3.5391-1.8574-0.19094-0.009-0.37825-0.009-0.5625 0zm15.547 0.1836c-1.5551 0.0551-2.8301 0.68084-3.582 1.7871-0.80706 1.1181-1.0123 2.3382-0.9375 4.8027 0.15354 4.4015 0.37092 4.9569 2.1504 6.2246-2.0314 0.90155-2.1697 1.4373-1.9492 7.7324 0.1063 2.5039 0.46368 3.8624 1.3652 4.9727 0.87793 1.0669 2.3081 1.6371 3.875 1.582 3.4054-0.12992 4.9408-2.4329 4.7676-7.0352-0.20078-6.055-0.4255-6.7167-2.4688-7.4766 1.6653-1.3386 1.8273-1.9484 1.6777-6.3144-0.0669-2.4842-0.38612-3.6813-1.2168-4.7285-0.83069-1.0512-2.1541-1.602-3.6816-1.5469zm-15.141 2.9863c0.89761 0.0158 1.1996 0.66002 1.1524 2.1836l-0.1875 3.4844c-0.0827 1.5275-0.47339 2.0784-1.3828 2.043-0.93305-0.059-1.2682-0.64419-1.1856-2.1914l0.18555-3.4766c0.0787-1.5275 0.46129-2.1217 1.418-2.043zm15.232 0.16211c0.92124-0.0354 1.2906 0.55238 1.3457 2.1035l0.10938 3.4766c0.0551 1.5236-0.27828 2.1325-1.1602 2.1719-0.95273 0.0354-1.3591-0.57025-1.3906-2.082l-0.125-3.5c-0.063-1.5275 0.27192-2.1148 1.2207-2.1699zm45.787 3.4024c-1.437-0.12598-2.7043 0.94559-2.8066 2.4141-0.1378 1.4173 0.91263 2.6533 2.3496 2.7793 1.433 0.12991 2.6844-0.90291 2.834-2.3359 0.0984-1.4567-0.93997-2.7236-2.377-2.8574zm-100.02 0.33398c-1.433 0-2.6055 1.1431-2.6055 2.5801s1.1724 2.5938 2.6055 2.5938c1.4291 0 2.6035-1.1568 2.6035-2.5938s-1.1744-2.5801-2.6035-2.5801zm38.396 7.5488c1.0236 0.0906 1.3736 0.69772 1.2988 2.3945l-0.21875 4.4199c-0.11417 1.6889-0.5331 2.3149-1.5488 2.2637-1.0905-0.0551-1.4012-0.62869-1.3027-2.4121l0.21289-4.418c0.11417-1.7716 0.49956-2.2992 1.5586-2.248zm16.244 0.21875c1.0315-0.0354 1.429 0.57486 1.5117 2.248l0.14649 4.4414c0.0551 1.6692-0.31039 2.2986-1.334 2.334-1.059 0.0748-1.441-0.49993-1.5-2.2637l-0.17773-4.3848c-0.0551-1.7834 0.29055-2.3396 1.3535-2.375z"/><path d="m223.56 121.71v-3.5038c-4.933-5.3266-17.46-21.562-6.3699-36.767 1.8622-13.771 8.4171-18.527 10.275-20.956 1.8385-2.4645 2.4606-9.2636 6.3581-8.2045 3.9251 0.99998 4.5196 2.0275 5.9723 3.0432 1.433 1.0354 1.433 6.3896 1.6378 10.094 0.20865 3.7086 0.60628 10.464 4.7125 14.795 4.1219 4.307 9.6651 17.669 2.685 26.279-6.3306 7.862-5.9054 12.96-4.8503 15.22h-20.421z" stroke="#00254c" stroke-miterlimit="3.864" stroke-width="1.8149"/><path d="m247.42 108.36c-5.3739 5.9093-9.2636 9.0155-9.2636 11.893v6.177m0.60628-71.727c-1.0078 1.4448-3.0157 17.582 0.20866 35.952 1.437 8.2281-2.4566 9.8777-6.1573 17.275-3.7086 7.3896-5.3424 11.323-4.5314 15.822m-10.91-44.606c-0.40157 6.799-2.0354 23.448 12.752 34.531m3.2952-61.628c1.2362 1.8582-0.41732 29.173-0.6181 33.491-0.21259 4.2991-8.0234 11.303-9.0392 22.397" stroke="#00254c" stroke-miterlimit="3.864" stroke-width="1.8149"/></g><path d="m84.264 277.43c-8.2281-3.0708-6.177-8.2321-5.3581-11.082 0.82281-2.8661 4.5235-10.283 7.3935-14.397 6.9959-2.8543 11.921 2.0787 16.448 8.2478 6.988-3.7007 23.417-2.5039 24.236 21.358-8.6179 10.693-22.181 15.004-19.314 26.306 23.432 7.8069 96.167-10.697 103.15-0.44093-0.41338 10.712 1.2165 17.303 0.82281 22.645 8.2085 0 29.149-1.8858 39.83-0.63778-0.4055-11.078-0.77951-22.007-0.77951-22.007 11.078-16 79.27 17.874 116.69-9.2636-5.7636-6.5943-4.8739-4.2676-9.862-4.6928-4.9054-0.4055-24.661-11.504-10.264-32.842 8.799-13.074 21.373-7.4211 23.862-2.5039 7.3817-8.2124 11.889-9.4289 17.232-5.3306 1.6378 5.7479 1.2322 8.2163 2.059 13.153 0.81494 4.933-1.2244 9.8502-12.334 15.189 3.2991-5.7282 3.7007-8.3935 4.118-13.126-10.275 8.614-22.196 15.61-24.673 9.0392-2.4566-6.5904 11.945-7.8463 4.9448-14.822-6.9802-6.9565-19.303 15.633-0.82282 29.606 7.0982 5.3581 6.5825 6.992 6.1573 14.417-0.40156 7.362 0 11.082 0 15.996 0 4.9369-5.555 6.2046-15.185 7.8266-24.669 4.1062-61.66-0.42519-83.439-4.1456 3.7046 10.295 9.0431 17.271 8.2321 22.22-0.82675 4.9172-3.7007 5.7676-25.499 2.4488-21.775-3.2755-43.534 1.6614-54.66 4.9566-11.086 3.2598-13.964-2.4881-10.264-6.5746 3.6889-4.122 8.2242-13.972 8.6336-22.216-20.96-0.83463-69.506 13.862-97.399 0.8425-3.0787-1.4527-2.059-6.5707-2.4684-11.523-0.41338-4.9526-1.6299-14.803 2.9015-18.063 4.5117-3.3109 11.082-7.4171 18.46-8.6336 1.6574-6.1691 0.42912-7.4171-0.40551-10.311-5.7321 3.7007-19.318 2.8936-19.318-6.1298-4.0944-4.5117-6.1534-5.3384-11.5-5.744-1.4094 3.1456-2.0551 5.744-1.6259 10.236" fill="#fff"/><path d="m387.93 264.29c-2.3358 0.0806-4.2348 1.2214-6.8125 3.5215 0 0 3.264 0.97578-2.0508 11.609-0.63384 1.2638 4.6539-0.0996 8.2207-4.1113 2.5314-2.8464 4.7486-10.4 3.166-10.75-0.9173-0.20472-1.7448-0.29641-2.5234-0.26953zm-302.65 2.0703c-2.898-0.11113-7.1382 1.3754-7.4805 5.3066-0.15354 1.7441 6.8066 6.1738 6.8066 6.1738-1.5826-7.5904 3.3708-10.772 2.4023-11.158-0.46136-0.18528-1.0597-0.29662-1.7285-0.32227zm20.488 3.2285c-1.538 0.0345-3.1347 0.55524-4.7305 1.7695-4.8227 3.6692-0.008 7.3964 1.2207 7.9121 0 0 1.6176 2.1104 7.3301 1.7324 9.4919-0.63384 7.6934-2.752 7.6934-2.752-1.2764-2.7189-6.0208-8.7852-11.514-8.6621zm12.861 19.678s-19.397 4.8499-22.141 12.334c-1.059 2.8897-0.16508 4.4842 3.4766 5.5039 6.3306 1.7716 10.441 2.0898 10.441 2.0898s-4.6148-2.2987-3.1621-6.3262c2.8464-7.9053 11.385-13.602 11.385-13.602zm80.979 19.65c-2.1929 0.0551-4.1194 1.0286-4.0918 3.3711 0.0236 0.8425 0.37003 1.6363 1.0078 2.1875 0.77951 0.62597 1.8346 0.81121 2.7559 0.97656l0.68164 0.0742c1.1496 0.14567 1.5077 0.18266 1.7676 0.55273 0.0787 0.0906 0.12695 0.25473 0.12695 0.40039 0 0.29527-0.13082 0.53581-0.38672 0.70117-0.39763 0.29526-1.0502 0.3711-1.377 0.3711-1.7007 0.0157-2.446-0.86665-2.8555-1.4375l-1.9727 1.6211c1.1771 1.6181 3.2834 2.0042 4.7598 1.9688 2.2086-0.0394 4.5356-1.011 4.4766-3.6055-0.0354-2.2283-1.6251-2.6902-2.1094-2.8398-0.42913-0.12992-0.58359-0.12899-2.1387-0.36914-1.0708-0.12598-1.5469-0.20129-1.7988-0.4375-0.16535-0.12992-0.26758-0.2991-0.26758-0.51563 0-0.60628 0.70115-0.90597 1.457-0.9414 1.4134-0.0197 2.2118 0.88747 2.6055 1.293l1.7793-1.457c-1.0905-1.4566-2.8373-1.9338-4.4199-1.9141zm-12.539 1.0078c-0.20278 0.004-0.40227 0.0169-0.59961 0.0371-2.1692 0.24015-3.992 1.3841-3.7598 3.7227 0.0866 0.82675 0.49067 1.6037 1.1875 2.0801 0.83069 0.57086 1.8795 0.64594 2.8086 0.7168l0.71484 0.0195c1.1574 0.0591 1.4937 0.0738 1.8008 0.38476 0.0709 0.11417 0.13263 0.28011 0.15625 0.42578 0.0276 0.27558-0.094 0.53161-0.31446 0.73633-0.37007 0.31496-1.0347 0.44126-1.3496 0.46094-1.6968 0.1811-2.5119-0.66606-2.9844-1.1621l-1.8086 1.7676c1.3031 1.5118 3.4653 1.728 4.9141 1.5469 2.1968-0.20078 4.4378-1.3782 4.1465-3.9766-0.23228-2.2125-1.8556-2.5226-2.3398-2.6328-0.44488-0.0709-0.57737-0.12652-2.1797-0.18164-1.0708-0.0591-1.5604-0.0746-1.8242-0.2793-0.15354-0.1063-0.27506-0.33074-0.31836-0.49609-0.063-0.64565 0.61716-0.97571 1.373-1.0859 1.4173-0.12598 2.268 0.68044 2.7129 1.0859l1.6699-1.6172c-1.0713-1.1747-2.5864-1.5785-4.0059-1.5527zm91.643 0.70117c-1.8347-0.0246-3.4514 0.73089-3.7305 2.7461-0.10236 0.82676 0.0913 1.7316 0.64649 2.334 0.65353 0.75984 1.6651 1.0876 2.5312 1.3828l0.69726 0.20312c1.122 0.31101 1.4359 0.407 1.6367 0.8125 0.0591 0.11023 0.0743 0.23868 0.0586 0.43946-0.0315 0.25984-0.22447 0.4616-0.49218 0.62695-0.43306 0.23622-1.0894 0.18023-1.4043 0.10937-1.685-0.24015-2.2689-1.2316-2.5996-1.8418l-2.1875 1.252c0.90155 1.807 2.9281 2.5434 4.3809 2.7441 2.181 0.27558 4.6221-0.29225 4.9961-2.8906 0.31496-2.2086-1.1643-2.9087-1.6289-3.0938-0.4055-0.24015-0.56043-0.27586-2.0801-0.7168-1.0197-0.29526-1.4709-0.48074-1.6953-0.69727-0.12599-0.16929-0.20905-0.37328-0.20118-0.59375 0.11417-0.5866 0.85749-0.80749 1.6016-0.69726 1.4015 0.18504 2.0286 1.1775 2.375 1.7129l2-1.1973c-0.85824-1.5669-2.513-2.3222-4.1074-2.5781-0.26771-0.034-0.53477-0.0531-0.79687-0.0566zm-100.07 0.49609-7.8184 0.96094 1.2715 10.367 8.252-1.0156-0.25586-2.1699-5.6445 0.69726-0.30078-2.4141 4.1191-0.53125-0.25196-1.9883-4.1152 0.5-0.20703-1.6777 5.1914-0.625-0.24024-2.1035zm109.66 1.0332-1.4707 10.365 8.25 1.127 0.29297-2.1934-5.6348-0.79101 0.33008-2.375 4.1074 0.55078 0.29492-2.0078-4.0977-0.60546 0.21289-1.6426 5.1992 0.70508 0.2793-2.0664-7.7637-1.0664zm-124.33 0.89063c-0.63581-0.0364-1.2709 0.0404-1.8457 0.12109l-4.0723 0.51563 1.2695 10.367 2.6445-0.3125-0.41797-3.5195 1.3398-0.16406 2.2988 3.2949 2.877-0.38672-2.582-3.6602c1.3504-0.61023 1.8938-1.933 1.7363-3.2598-0.13386-1.1063-0.71736-1.9533-1.3984-2.4336-0.57873-0.37598-1.2138-0.52608-1.8496-0.5625zm185.01 0.21875-7.7246 1.5078 1.9727 10.256 8.1934-1.5723-0.44532-2.1523-5.5586 1.0703-0.44922-2.3574 4.0547-0.79101-0.38086-2.0449-4.0801 0.8125-0.32617-1.6582 5.1387-0.99609-0.39453-2.0742zm-48.768 0.29101-0.9043 10.4 2.6406 0.22071 0.29492-3.5117 1.3438 0.10547 1.6016 3.6816 2.8906 0.29492-1.7754-4.1406c1.4567-0.3307 2.255-1.4895 2.3652-2.8359 0.11024-1.122-0.2865-2.0617-0.86523-2.668-0.97635-0.99604-2.3678-1.0675-3.5371-1.1777l-4.0547-0.36915zm-150.03 0.92579c-0.3102-0.0156-0.64178-0.008-0.9961 0.0312-3.3582 0.35039-4.887 3.0396-4.5957 5.9844 0.3307 3.1456 2.56 5.114 5.6348 4.7676 1.7047-0.16535 2.2718-1.0129 2.4805-1.3633l0.0977 0.9375 2.0195-0.25586-0.57422-5.6133-4.2793 0.46093 0.20117 2.0781 1.9199-0.23633c-0.0315 1.063-1.1222 1.5597-1.9883 1.6738-2.0669 0.18504-2.63-1.7176-2.7402-2.875-0.0866-0.90155 0.009-1.8033 0.61133-2.4844 0.38188-0.46062 1.0437-0.79424 1.7051-0.88086 1.5433-0.12992 2.3419 0.99157 2.5781 1.3223l1.7246-1.5977c-0.50639-0.53739-1.6275-1.8402-3.7988-1.9492zm-41.576 0.0293-1.4531 10.33 2.6484 0.38672 0.42969-3.0938 1.4766 0.20312c1.5315 0.18504 2.4728 0.22164 3.4609-0.40039 0.31888-0.24409 1.1934-0.85118 1.4336-2.6543 0.059-0.38975 0.27928-2.0069-0.97266-3.1328-0.85431-0.7677-1.9258-0.93663-2.9297-1.0469l-4.0937-0.5918zm226.7 0.35352c-0.86612 0-2.4529 0.16505-3.7324 1.543-1.2598 1.3661-1.3652 2.9453-1.3652 3.7012 0 2.8543 1.8033 5.582 5.2441 5.582 1.4094 0 2.7795-0.53521 3.7559-1.5312 0.0748-0.11023 0.17697-0.20016 0.27539-0.33008l-1.8574-1.6582c-0.29527 0.4055-0.88716 1.2168-2.084 1.2168-1.3228 0-2.5391-1.0159-2.5391-3.2442 0-1.874 1.0782-2.9805 2.3184-2.9805 1.1614 0 1.796 0.79133 2.1543 1.252l1.9336-1.582c-0.29527-0.35039-0.78066-1.0173-1.8594-1.5488-0.60629-0.2559-1.3544-0.41992-2.2441-0.41992zm-24.496 0.10937 3.1582 10.439h2.9238l3.1699-10.439h-2.6328l-2.0078 6.9199-2-6.9199h-2.6113zm12.602 0.0527-0.0547 10.438h2.7051l0.0664-10.438h-2.7168zm-160.41 0.26367c0.32923-0.00049 0.63493 0.0401 0.86524 0.16016 0.16535 0.0748 0.53854 0.31149 0.60547 0.9414 0.0512 0.44093-0.0468 0.95668-0.55469 1.252-0.33463 0.20079-0.7757 0.25681-1.7402 0.38672l-0.89843 0.0899-0.32618-2.6133 1.0391-0.12696c0.32676-0.0473 0.68054-0.0894 1.0098-0.0898zm-26.531 0.35351c-0.19563-0.006-0.39635-0.002-0.60156 0.0117-0.94486 0.0551-2.2041 0.34518-3.3301 1.416-1.5236 1.4724-1.5805 3.3127-1.5254 4.293 0.0945 1.4527 0.66564 2.8147 1.7168 3.791 1.4291 1.3071 3.0325 1.3227 3.8711 1.2676 0.96455-0.0709 2.2199-0.33123 3.3262-1.4375 1.5393-1.4882 1.5748-3.3462 1.5039-4.2871-0.18823-2.7423-2.0264-4.9687-4.9609-5.0547zm-16.609 0.28516-0.5625 10.402 2.6602 0.1504 0.18946-3.5176 1.3535 0.0723 1.7168 3.6094 2.8984 0.14648-1.9336-4.0664c1.4448-0.35038 2.1966-1.568 2.2871-2.875 0.0472-1.1574-0.37421-2.0776-0.97656-2.6524-0.99997-0.95667-2.4013-1.0288-3.5391-1.0879l-4.0938-0.18164zm182.79 0.0195 1.0391 0.0742c0.66534 0.0551 1.4207 0.14602 1.8262 0.45703 0.16141 0.13386 0.47714 0.46205 0.40234 1.0723-0.0276 0.40551-0.23985 0.90093-0.79101 1.082-0.38582 0.13385-0.83032 0.13334-1.8027 0.0586l-0.88281-0.14843 0.20898-2.5957zm-191.7 1.0703 1.0039 0.14649c1.0354 0.14567 2.1186 0.2758 1.9375 1.7285-0.0905 0.59054-0.40986 1.0301-0.94922 1.1797-0.33857 0.0866-0.73149 0.0357-1.3535-0.0391l-1.0566-0.16406 0.41797-2.8516zm25.049 0.91993c1.6889-0.16535 2.5049 1.2132 2.6309 2.9258 0.0433 0.88581-0.0484 1.8053-0.5957 2.4824-0.23621 0.29527-0.76322 0.75738-1.5742 0.8125-1.6299 0.0945-2.5146-1.2125-2.6524-3.0156-0.10236-1.7126 0.6009-3.0791 2.1914-3.2051zm-13.609 0.27539 1.0352 0.0547c0.66534 0.0394 1.4206 0.0739 1.8379 0.36524 0.15354 0.13386 0.4689 0.47978 0.44922 1.0703-0.0236 0.4055-0.21641 0.92239-0.76758 1.1074-0.36613 0.18504-0.80676 0.14481-1.7949 0.10938l-0.90625-0.0781 0.14648-2.6289zm114.79 15.906-2.5117 0.0547 0.10547 6.2207-3.9121-6.1484-2.5684 0.0586 0.20118 10.438 2.4805-0.0566-0.0937-6.2559 3.8691 6.166 2.6035-0.0195-0.17383-10.457zm5.959 0.10742-0.90235 10.441 2.7793 0.2207c1.7992 0.16536 2.8831 0.25813 3.8516-0.0371 1.8385-0.49605 2.4766-1.9676 2.7246-2.6133 0.22834-0.62597 0.35688-1.2723 0.42774-1.9141 0.16929-1.8425-0.39308-3.2596-1.082-4.0352-1.2165-1.437-3.0541-1.5977-5.6328-1.8379l-2.166-0.22461zm-23.314 0.70117-2.584 0.34961-2.2676 10.861 2.6035-0.3457 0.29101-1.4727 3.8379-0.51563 0.67774 1.2676 2.7988-0.36523-5.3574-9.7793zm25.721 1.8574 1.0938 0.0957c0.81887 0.11417 2.1338 0.2392 2.5117 1.877 0.11024 0.48031 0.10965 0.97673 0.0742 1.457-0.0394 0.38188-0.0949 0.67708-0.19335 1.0117-0.55118 1.563-1.7586 1.5279-2.916 1.4531l-1.0859-0.11132 0.51563-5.7832zm-26.545 1.6973 1.7598 3.4805-2.5 0.38476 0.74023-3.8652z" fill="#00254c"/><path d="m196.45 228.77h75.408c0.48031 0 0.83069 0.38188 0.83069 0.83069v0.64171c0 0.44488-0.35038 0.81495-0.83069 0.81495h-75.408c-0.45274 0-0.82281-0.37007-0.82281-0.81495v-0.64171c0-0.44881 0.37007-0.83069 0.82281-0.83069zm2.6598 7.6959h71.093c0.47243 0 0.82675 0.37794 0.82675 0.85037v0.68896c0 0.44094-0.35432 0.80313-0.82675 0.80313h-71.093c-0.43306 0-0.82675-0.36219-0.82675-0.80313v-0.68896c0-0.47243 0.39369-0.85037 0.82675-0.85037zm59.476 2.3456c0 1.6023 0.12204 3.2046 1.7952 3.2046 1.811 0 1.6063-1.9606 1.6063-3.1377-0.88187 0-2.37-0.0669-3.4015-0.0669zm-0.55943 4.0125c0 4.0156 4.8266 3.2598 4.8266 1.1456m4.1774-5.1581c0 1.6023-0.14567 3.2046-1.8149 3.2046-1.7913 0-1.5984-1.9606-1.5984-3.1377 0.87793 0 2.3661-0.0669 3.4133-0.0669zm-10.541 0.0689c0 1.8936 0.30314 4.1101 1.9566 4.1101 0.91731 0 1.3897-0.11811 1.8976-0.97636 0 0 0.85431 2.0078 2.4488 2.0078 1.6023 0 2.4684-2.0078 2.4684-2.0078 0.49999 0.85825 0.98816 0.97636 1.9094 0.97636 1.6417 0 1.9488-2.2165 1.9488-4.1101m-6.3684 5.0869c0 2.1181 4.8188 2.87 4.8188-1.1456m-29.117-3.7326c0 1.6023-0.0984 3.2046-1.8031 3.2046-1.7952 0-1.5826-1.9606-1.5826-3.1377 0.86218 0 2.3582-0.0669 3.3857-0.0669zm0.57243 4.0129c0 4.0156-4.8424 3.2598-4.8424 1.1456m-4.1617-5.1585c0 1.6023 0.11417 3.2046 1.8031 3.2046 1.807 0 1.6023-1.9606 1.6023-3.1377-0.88187 0-2.3858-0.0669-3.4054-0.0669zm-0.55235 4.0129c0 4.0156 4.8148 3.2598 4.8148 1.1456m-6.3605-5.0892c0 1.8936 0.31495 4.1101 1.9606 4.1101 0.92911 0 1.3819-0.11811 1.8858-0.97636 0 0 0.88581 2.0078 2.4527 2.0078 1.5984 0 2.4921-2.0078 2.4921-2.0078 0.52361 0.85825 0.97636 0.97636 1.8858 0.97636 1.6417 0 1.9448-2.2165 1.9448-4.1101m-30.54-0.29448c0 1.6023-0.12204 3.2046-1.7952 3.2046-1.807 0-1.6063-1.9606-1.6063-3.1377 0.88187 0 2.37-0.0669 3.4015-0.0669zm0.56101 4.0125c0 4.0156-4.8266 3.2598-4.8266 1.1417m-4.1786-5.1542c0 1.6023 0.14567 3.2046 1.8149 3.2046 1.7913 0 1.5984-1.9606 1.5984-3.1377-0.87793 0-2.3661-0.0669-3.4133-0.0669zm-2.0913 0.0689c0 1.8936 0.31102 4.1101 1.9527 4.1101 0.9173 0 1.4094-0.11811 1.9094-0.97636 0 0 0.86218 2.0078 2.4645 2.0078 1.5984 0 2.4527-2.0078 2.4527-2.0078 0.50786 0.85825 0.97636 0.97636 1.8937 0.97636 1.6574 0 1.9606-2.2165 1.9606-4.1101m-11.082 3.9408c0 4.0156 4.8188 3.2637 4.8188 1.1456m-6.3699-5.0865c0 1.8936 0.31102 4.1101 1.9527 4.1101 0.9173 0 1.4094-0.11811 1.9094-0.97636m54.903 44.769h9.2202m-10.483 12.786v-7.2754c0-0.90155 0.74014-1.6378 1.6496-1.6378h8.1494c0.90155 0 1.6378 0.73621 1.6378 1.6378v7.2754m-39.544 0.42873v-7.6888c0-0.90155 0.74014-1.6378 1.6456-1.6378h8.1533c0.90155 0 1.6378 0.7362 1.6378 1.6378v7.6888m-38.858-13.261h9.2163m-10.375 12.487v-6.9329c0-0.89762 0.74014-1.6338 1.6456-1.6338h8.1533c0.90155 0 1.6378 0.7362 1.6378 1.6338v6.9329m18.5-12.426h9.2202" stroke="#00254c" stroke-miterlimit="3.864" stroke-width="1.2323" fill="none"/><path stroke-linejoin="round" d="m371.03 257.89c2.6653 4.9526 5.9447 14.803-9.047 17.673m-259.1-15.4c-3.2991 4.6967-5.3581 7.4014-5.3581 12.539m113.71-44.27c0-12.763 10.346-22.287 23.102-22.287 12.771 0 23.145 9.5234 23.145 22.287 0 0.32283 10.063 0.10236 10.063 0.10236-0.0945-18.299-14.941-31.523-33.275-31.523-18.338 0-33.188 13.224-33.188 31.523l10.153-0.10236zm59.797 8.884v0.68502c0 0.44487-0.35826 0.80313-0.83069 0.80313h-71.089c-0.43306 0-0.83069-0.35826-0.83069-0.80313v-0.68502-0.14567c-0.79525-0.10236-1.437-0.79131-1.437-1.6456v-3.8228c0-0.14566-1.0039-0.31101-1.0197-1.1614v-0.94093c0-0.4488 0.36613-0.83068 0.81494-0.83068h75.27c0.437 0 0.80707 0.38188 0.80707 0.83068v0.94093c0 0.4488-0.35039 0.92911-0.77951 0.92911 0 0-0.12204 0.0866-0.12204 0.23227v3.8228c0 0.61809-0.2559 1.1574-0.76377 1.4488 0 0-0.0197 0.19684-0.0197 0.34251zm-60.618 27.798c2.1574 2.8936 2.8661 10.236-1.7559 12.004-8.2163 3.1298-12.693-2.2244-24.732 7.1612 4.4487-8.5037 11.405-10.697 14.712-11.378 3.8936-0.811 12.909-1.5275 11.775-7.7872zm0-18.594c1.2362 3.8109-0.31102 5.6731-6.4683 8.2124-6.1652 2.5747-4.1101 7.7321-2.7676 9.3738 1.2204-3.4094 8.4644-5.4605 10.764-8.4329 2.0708-2.6889 1.1535-6.9802-1.5275-9.1533zm47.899 19.659c-2.0787 1.8228-2.2834 4.9369-2 6.7597 0.27952 1.7874 5.7991 9.2439 30.176 4.9723-3.4645-0.5551-3.5905-0.71651-4.5668-1.6771 1.8188-1.9094 3.866-2.1889 4.429-3.996-7.8699 2.3582-30.464 1.5314-27.83-6.1101l-0.20866 0.0512zm0.0803-18.294c-2.7598 3.1653-4.3424 6.8463 0.16535 9.2596 3.6259 1.9488 7.8069 2.7795 8.2675 6.0747 2.0787-2.0708 2.744-6.0392-1.5-8.2478-1.8228-0.96848-8.6809-1.9881-6.9329-7.0864zm-45.924-8.8553c5.1259 9.9801 7.9092 15.429 22.291 15.429 16.232 0 18.59-8.3226 21.59-14.925-8.9289 6.4723-14.488 8.425-22.011 8.425-7.4762 0-12.728-1.3307-21.87-8.9289zm46.021 37.125c-0.0197 9.6769-0.063 10.815-0.063 10.815s0.16929 2.4448-1.4488 4.0708v8.9368h11.488v-8.9368c-1.6378-1.6259-1.437-4.0708-1.437-4.0708s-0.0512 1.748-0.0748-7.9289c0 0-0.79526 0.0276-4.5826-1.2874-3.4842-1.2047-3.8818-1.5984-3.8818-1.5984zm4.4471-16.927c-3.5826-1.496-4.5078-2.1496-4.5078-2.1496v9.1494s-1.0748 2.5236 2.6377 4.6141c2.5157 1.4134 5.8502 1.8818 5.8502 1.8818v-9.5549s-0.54723-2.5078-3.9802-3.9408zm-4.4227-8.0388s-0.0197-3.4448-0.0669-4.2086c-0.0984-1.37-0.0433-2.6614-0.55904-4.1731-0.67321-0.34645-1.0157-1.2283-1.1574-2.244-0.35432-0.52361-0.82282-1.0984-1.3582-1.7244h14.382c-0.32676 0.35432-0.27952 0.73227-0.53542 1.0236-0.1063 1.437-0.46062 2.7834-1.5157 3.059-0.004 0.811-0.23228 1.4173-0.53542 1.8582-0.11023 0.72833-0.11023 1.4567-0.1496 2.2007-0.0354 0.60629-0.0551 9.1258-0.0551 9.1258s-0.75195-0.93698-2.374-1.4763c-1.622-0.53936-3.0472-0.8858-4.6731-2.0157-0.74014-0.51573-1.4212-1.7716-1.4212-1.7716m-19.818-3.0956c0.0827-1.37 0-3.3621 0.52361-4.8739 0.67321-0.34644 1.0039-1.2322 1.1574-2.244 0.35826-0.5236 0.811-1.0984 1.374-1.7283h-14.752c0.3307 0.35826 0.62597 0.7362 0.87399 1.0275 0.11417 1.437 0.4803 2.7834 1.5118 3.059 0.0197 0.81101 0.24408 1.4173 0.56691 1.8582 0.0787 0.72833 0.0748 2.1062 0.13779 2.8503 0 0 1.1693 0.35826 4.4763 0.29527 3.2991-0.063 4.1298-0.24409 4.1298-0.24409zm0.2311 6.638 0.0669 32.409s-0.14961 2.4488 1.4685 4.0668v9.114h-11.504v-9.114c1.6181-1.6181 1.4645-4.0668 1.4645-4.0668l0.0472-32.507s0.79919 0.14566 3.996 0.14566c4.0826 0 4.4763-0.0984 4.4763-0.0984m-32.737-0.64409c1.559-0.87793 3.5235-2.059 4.0156-3.1416 0 0 0.0787-1.6732 0.0787-3.4999 0-1.4173 0.0433-2.6614 0.55904-4.1731 0.67715-0.35039 1.0157-1.2323 1.1535-2.244 0.35826-0.52361 0.82676-1.0984 1.3622-1.7283h-13.555c0.32283 0.35432-0.54723 0.73227-0.29527 1.0275 0.11417 1.437 0.46456 2.7795 1.5196 3.059 0.004 0.80706 0.23228 1.4173 0.53542 1.8543 0.11023 0.72833 0.11023 1.4606 0.1496 2.2047 0.0354 0.60235 0.0591 9.0313 0.0591 9.0313s2.8739-1.5196 4.4172-2.3897zm0.33188 17.265c-3.6377 1.3582-4.7518 1.2795-4.7518 1.2795v-9.1494s1.7519-1.9133 4.0156-3.2401c2.4881-1.4606 4.4723-2.5118 4.4723-2.5118v10.185s-0.44094 2.2086-3.7361 3.4369zm-2.0649 7.1805c1.0826-0.0512 2.8503-0.44487 4.2282-0.93305 0.89762-0.31889 1.6732-1.1338 1.6732-1.1338l-0.0748 10.901s-0.1496 2.4448 1.4724 4.0708v8.9329h-11.504v-8.9329c1.6141-1.6259 1.4606-4.0708 1.4606-4.0708l0.0512-8.4407s0.48031-0.29133 2.6928-0.39369zm-14.173 25.622c0-0.90155-0.46849-2.7322 1.6535-3.7164h85.057c1.8464 0.26771 1.6338 3.2283 1.6338 4.1298m-27.573 12.714h-40.29m58.614 9.0395c-6.988-2.2677-13.433-2.685-16.633 0.42912-7.4014 7.1927 22.184 9.0549 24.448 21.59m-81.569-21.389c4.9369-0.40944 15.267-1.6063 15.819 2.059 0.81494 5.3581-17.673 14.582-23.44 18.704m-103.75-69.88c-8.2281-3.0708-6.177-8.2321-5.3581-11.082 0.82282-2.8661 4.5235-10.283 7.3935-14.397 6.9959-2.8543 11.921 2.0787 16.448 8.2478 6.988-3.7007 23.417-2.5039 24.236 21.358-8.6179 10.693-22.181 15.004-19.314 26.306 23.432 7.8069 96.167-10.697 103.15-0.44093-0.41338 10.712 1.2165 17.303 0.82281 22.645 8.2085 0 29.149-1.8858 39.83-0.63778-0.4055-11.078-0.77951-22.007-0.77951-22.007 11.078-16 79.27 17.874 116.69-9.2636-5.7636-6.5943-4.8739-4.2676-9.862-4.6928-4.9054-0.4055-24.661-11.504-10.264-32.842 8.799-13.074 21.373-7.4211 23.862-2.5039 7.3817-8.2124 11.889-9.4289 17.232-5.3306 1.6378 5.7479 1.2322 8.2163 2.059 13.153 0.81494 4.933-1.2244 9.8502-12.334 15.189 3.2991-5.7282 3.7007-8.3935 4.118-13.126-10.275 8.614-22.196 15.61-24.673 9.0391-2.4566-6.5904 11.945-7.8463 4.9448-14.822-6.9802-6.9565-19.303 15.633-0.82282 29.606 7.0982 5.3581 6.5825 6.992 6.1573 14.417-0.40156 7.362 0 11.082 0 15.996 0 4.9369-5.555 6.2046-15.185 7.8266-24.669 4.1062-61.66-0.42519-83.439-4.1456 3.7046 10.295 9.0431 17.271 8.2321 22.22-0.82675 4.9172-3.7007 5.7676-25.499 2.4488-21.775-3.2755-43.534 1.6614-54.66 4.9566-11.086 3.2598-13.964-2.4881-10.264-6.5746 3.6889-4.122 8.2242-13.972 8.6336-22.216-20.96-0.83463-69.506 13.862-97.399 0.8425-3.0787-1.4527-2.059-6.5707-2.4684-11.523-0.41338-4.9526-1.6299-14.803 2.9015-18.063 4.5117-3.3109 11.082-7.4171 18.46-8.6336 1.6574-6.1691 0.42912-7.4171-0.40551-10.311-5.7321 3.7007-19.318 2.8936-19.318-6.1298-4.0944-4.5117-6.1534-5.3384-11.5-5.744-1.4094 3.1456-2.0551 5.744-1.6259 10.236zm286.77-19.538c2.6653 4.9526 5.9447 14.803-9.047 17.673m-259.1-15.4c-3.2991 4.6967-5.3581 7.4053-5.3581 12.539" stroke="#00254c" stroke-miterlimit="3.864" stroke-width="1.8149" fill="none"/></g></svg>
