<?xml version="1.0" encoding="utf-8"?>
<!-- Generator: Adobe Illustrator 22.0.0, SVG Export Plug-In . SVG Version: 6.00 Build 0)  -->
<svg version="1.1" id="Layer_1" xmlns="http://www.w3.org/2000/svg" xmlns:xlink="http://www.w3.org/1999/xlink" x="0px" y="0px"
	 viewBox="0 0 501.8 616.6" style="enable-background:new 0 0 501.8 616.6;" xml:space="preserve">
<style type="text/css">
	.st0{fill:none;stroke:#000000;stroke-miterlimit:10;}
	.st1{fill:#FFC4B0;}
	.st2{fill:#FF6C50;}
	.st3{fill:#FF9089;}
	.st4{fill:#C1272D;}
	.st5{fill:#1B1464;stroke:#FFFFFF;stroke-miterlimit:10;}
	.st6{fill:none;stroke:#FFFFFF;stroke-miterlimit:10;}
	.st7{fill:none;}
	.st8{fill:#FFF6BE;}
	.st9{fill:#4A1200;}
	.st10{fill:#42210B;}
	.st11{fill:#A0272D;}
	.st12{fill:#FFFFFF;}
	.st13{fill:#FFE9DF;}
	.st14{fill:#FFF3DF;}
	.st15{fill:#FFA48A;}
	.st16{fill:#FFD6BF;}
	.st17{fill:#FFDFDC;}
	.st18{fill:#FFEBE8;}
	.st19{fill:#F35444;}
	.st20{fill:#C93E00;}
	.st21{fill:#1B1464;}
	.st22{fill:none;stroke:#F2F2F2;stroke-width:0.75;stroke-miterlimit:10;}
	.st23{fill:none;stroke:#FFFFFF;stroke-width:0.75;stroke-miterlimit:10;}
	.st24{fill:#F75C89;}
	.st25{fill:#FCFCFC;stroke:#EFF7FD;stroke-miterlimit:10;}
	.st26{fill:#EFF7FD;}
	.st27{fill:#333333;}
	.st28{fill:#FCFCFC;}
	.st29{fill:#F2F2F2;}
</style>
<g id="底座">
	<line class="st0" x1="364.9" y1="590.4" x2="364.9" y2="590.4"/>
	<path class="st1" d="M477.6,530.7v4.1c-0.8,1.7-2.7,3.4-5.5,5l0,0c-5.3,3-13.8,5.9-25.1,8.5c-11.3,2.6-25.4,5-41.7,7
		c-10.2,1.3-21.3,2.5-33.1,3.5c-2.4,0.2-4.9,0.4-7.3,0.6l38.9,10.2c-25.9,3.2-57.2,5.6-91.9,7c-21,0.8-43.3,1.3-66.3,1.3
		s-45.2-0.4-66.1-1.3l0,0c-34.7-1.4-66.1-3.8-91.9-7l38.9-10.2c-2.5-0.2-5-0.4-7.5-0.6c-11.8-1-22.9-2.2-33.1-3.5
		c-16.3-2-30.4-4.4-41.7-7s-19.9-5.4-25.1-8.5c-2.8-1.6-4.7-3.3-5.5-5v-4.1c7.9-16.2,108.8-28.9,232-28.9S469.7,514.6,477.6,530.7z"
		/>
	<path class="st2" d="M87.5,569.6L87.5,569.6v16.9c-17-2.1-31.6-4.5-43.3-7.2c-6.9-1.6-12.7-3.3-17.4-5c-3-1.1-5.6-2.3-7.7-3.5
		c-2.8-1.6-4.7-3.3-5.5-5v-31c0.8,1.7,2.7,3.4,5.5,5c5.3,3,13.8,5.9,25.1,8.5s25.4,5,41.7,7c10.2,1.3,21.3,2.5,33.1,3.5
		c2.5,0.2,4.9,0.4,7.5,0.6L87.5,569.6z"/>
	<path class="st2" d="M477.6,534.9v31c-0.8,1.7-2.7,3.4-5.5,5c-2.1,1.2-4.6,2.3-7.7,3.5c-4.7,1.8-10.6,3.4-17.4,5
		c-11.7,2.7-26.2,5.1-43.2,7.2v-16.9l-38.9-10.2c2.5-0.2,4.9-0.4,7.3-0.6c11.8-1,22.9-2.2,33.1-3.5c16.3-2,30.4-4.4,41.7-7
		c11.3-2.6,19.9-5.4,25.1-8.5l0,0C474.9,538.2,476.8,536.6,477.6,534.9z"/>
	<path class="st3" d="M403.8,569.6v31l0,0c-41.5,5.1-97.1,8.3-158.2,8.3c-61,0-116.6-3.1-158.1-8.3v-14.1v-16.9l0,0
		c25.9,3.2,57.2,5.6,91.9,7l0,0c21,0.8,43.2,1.3,66.1,1.3c23,0,45.3-0.5,66.3-1.3C346.6,575.2,378,572.8,403.8,569.6z"/>
	<line class="st0" x1="364.9" y1="590.4" x2="364.9" y2="590.4"/>
</g>
<g id="墙体">
	<path class="st4" d="M460.6,528.8c0,14.6-96.9,26.5-216.5,26.5S27.6,543.4,27.6,528.8c0-0.9,0.3-1.7,1-2.6V361.4
		c5.2,6.6,30,12.5,67.3,16.8c38.7,4.5,90.8,7.2,148.2,7.2c57.7,0,110.2-2.8,149-7.3c36.9-4.3,61.4-10.1,66.5-16.7v164.9
		C460.3,527.1,460.6,527.9,460.6,528.8z"/>
	<path class="st5" d="M286.6,460.8h-80.9c10.8-12.1,24.9-19.5,40.5-19.5S275.8,448.7,286.6,460.8z"/>
	<line class="st6" x1="258.9" y1="460.8" x2="268.6" y2="446.8"/>
	<line class="st7" x1="232.7" y1="460.8" x2="222" y2="447.5"/>
	<line class="st6" x1="233.7" y1="460.8" x2="223" y2="447.5"/>
	<rect x="205.6" y="469.3" class="st8" width="81" height="86"/>
	<rect x="208.6" y="471.8" class="st9" width="35" height="80"/>
	<rect x="248.6" y="471.8" class="st10" width="35" height="80"/>
	<path class="st11" d="M62.5,423.3c2.7-0.9,5.5-1.5,8.1-1.2c4.6,0.5,8.9,2.1,13.3,3.5c19.8,6.2,39,3.3,58.7,5.9
		c23.5,3.1,46.7,7.4,70.4,9.1c43.6,3.1,87.3,0.4,130.9-2.2c18.7-1.1,37.8-2.4,55.2-9.3c5.5-2.2,11.6-4.9,16.9-2.5
		c5.9,2.7,8.2,10.8,14.5,12.5c9.6,2.6,14.9-11.2,23.7-15.9c3.4-1.8,7.6-2.2,10.5-4.8c3.6-3.2,3.9-9,1.8-13.4
		c-2-4.4-5.9-7.7-9.7-10.5c-24.1-17.7-54.1-25.2-83.6-30.3c-14.8-2.6-30.1-4.6-44.8-1.4c-11.5,2.5-22.1,8.2-32.8,13.3
		c-10.9,5.2-22.3,9.9-33.9,13.6c-0.8,0.2-1.6,0.5-2.3,0.7c-6.2,0.5-11.2,1.5-16.6,4.1c-0.7,0.3-1.4,0.5-2.2,0.7
		c-1.6,0.3-3.2,0.6-4.8,0.9c-1.6,0.3-3.1,0.5-4.5,0.6c-8.1,0.3-16.1,0.3-24.3,1.2c-1.4,0-3-0.1-4.6-0.2c-6.3-0.5-12.6-1.6-18.9-3.2
		c-16.8-4.4-32.7-12.9-50.1-13.6c-13.3-0.5-25.8,3.7-38.3,7.7c-11.6,3.7-21.1,1.6-33.3,2.5c-9.5,0.7-19.4,4.2-24.9,11.9
		c-4.4,6.1-5.9,18.7,1.2,23.7C45.9,431.9,54.3,426.1,62.5,423.3z"/>
	<path class="st8" d="M240.1,504.8c0,0-6,21,0,14"/>
	<path class="st8" d="M253.5,505.2c0,0,4.8,21.3-0.8,14"/>
</g>
<g id="图层_4">
	<path class="st12" d="M122.2,543.2c0,1.6-7.3,2.8-16.3,2.8s-16.3-1.3-16.3-2.8c0-0.8,1.9-1.5,5-2.1v1.2c0,1.1,5.3,2,11.8,2
		s11.8-0.9,11.8-2v-1C120.7,541.8,122.2,542.4,122.2,543.2z"/>
	<path class="st13" d="M122.2,374.9c0,0.4,0,0.6,0,0.6v9.4c0,0.7-1.6,1.4-4.1,1.9c-3,0.6-7.3,1-12.2,1c-4.4,0-8.4-0.3-11.3-0.8
		c-3.1-0.5-5-1.3-5-2.1v-9.4c0,0,0-0.3,0-0.6c0,0.8,1.9,1.5,5,2.1c2.9,0.5,6.9,0.8,11.3,0.8c4.8,0,9.2-0.4,12.2-1
		C120.7,376.3,122.2,375.7,122.2,374.9z"/>
	<path class="st13" d="M122.2,543.6c0,0,0,7.5,0,9.4c0,1.6-7.3,2.9-16.3,2.9s-16.3-1.3-16.3-2.9c0-1.8,0-9.4,0-9.4
		C111.6,548.8,122.2,543.6,122.2,543.6z"/>
	<path class="st14" d="M118.1,386.8c0,0,0,6.7,0,17.3c0,0.5,0,1,0,1.5c0,1.2,0,2.2,0,3.1c0,0.5,0,1.1,0,1.6c0,43.4,0,132,0,132
		c0,1.1-5.3,2-11.8,2s-11.8-0.9-11.8-2c0,0,0-73.7,0-119.5c0-0.6,0-1.3,0-1.9c-2.5-8.1-0.5-17.1,0-25.5c0-0.4,0-0.7,0-1
		c0-4.7,0-7.4,0-7.4c2.9,0.5,6.9,0.8,11.3,0.8C110.8,387.8,115.1,387.4,118.1,386.8z"/>
	<path class="st12" d="M400.2,547.2c0,1.6-7.3,2.8-16.3,2.8s-16.3-1.3-16.3-2.8c0-0.8,1.9-1.5,5-2.1v1.2c0,1.1,5.3,2,11.8,2
		s11.8-0.9,11.8-2v-1C398.7,545.8,400.2,546.4,400.2,547.2z"/>
	<path class="st13" d="M400.2,378.9c0,0.4,0,0.6,0,0.6v9.4c0,0.7-1.6,1.4-4.1,1.9c-3,0.6-7.3,1-12.2,1c-4.4,0-8.4-0.3-11.3-0.8
		c-3.1-0.5-5-1.3-5-2.1v-9.4c0,0,0-0.3,0-0.6c0,0.8,1.9,1.5,5,2.1c2.9,0.5,6.9,0.8,11.3,0.8c4.8,0,9.2-0.4,12.2-1
		C398.7,380.3,400.2,379.7,400.2,378.9z"/>
	<path class="st13" d="M400.2,547.6c0,0,0,7.5,0,9.4c0,1.6-7.3,2.9-16.3,2.9s-16.3-1.3-16.3-2.9c0-1.8,0-9.4,0-9.4
		C389.6,552.8,400.2,547.6,400.2,547.6z"/>
	<path class="st14" d="M396.1,390.8c0,0,0,5.5,0,14.5c0,0.4,0,0.9,0,1.4c0,4.1,0,7.1,0,10.9c0,0.6,0,1.1,0,1.7
		c0,44.9,0,126.9,0,126.9c0,1.1-5.3,2-11.8,2s-11.8-0.9-11.8-2c0,0,0-75.9,0-121.6c0-0.5,0-1.1,0-1.6c-1.5-8.3-0.5-16.3,1.1-24.1
		c0-0.5-0.1-0.9-0.2-1.4c-0.2-1.4-0.5-2.8-0.8-4.2c0-0.4,0-0.7,0-1c0-0.9,0-1.4,0-1.4c2.9,0.5,6.9,0.8,11.3,0.8
		C388.8,391.8,393.1,391.4,396.1,390.8z"/>
	<path class="st15" d="M134.2,558.6c0,0,0,7.5,0,9.4c0,1.6-7.3,2.9-16.3,2.9s-16.3-1.3-16.3-2.9c0-1.9,0-9.4,0-9.4
		C118.6,563.6,134.2,558.6,134.2,558.6z"/>
	<path class="st15" d="M195.2,562.6c0,0,0,7.5,0,9.4c0,1.6-7.3,2.9-16.3,2.9s-16.3-1.3-16.3-2.9c0-1.9,0-9.4,0-9.4
		C179.6,567.6,195.2,562.6,195.2,562.6z"/>
	<path class="st15" d="M329.2,562.6c0,0,0,7.5,0,9.4c0,1.6-7.3,2.9-16.3,2.9s-16.3-1.3-16.3-2.9c0-1.9,0-9.4,0-9.4
		C313.6,567.6,329.2,562.6,329.2,562.6z"/>
	<path class="st15" d="M386.2,558.6c0,0,0,7.5,0,9.4c0,1.6-7.3,2.9-16.3,2.9s-16.3-1.3-16.3-2.9c0-1.9,0-9.4,0-9.4
		C370.6,563.6,386.2,558.6,386.2,558.6z"/>
	<path class="st12" d="M134.2,558.2c0,1.6-7.3,2.8-16.3,2.8s-16.3-1.3-16.3-2.8c0-0.8,1.9-1.5,5-2.1v1.2c0,1.1,5.3,2,11.8,2
		s11.8-0.9,11.8-2v-1C132.7,556.8,134.2,557.4,134.2,558.2z"/>
	<ellipse class="st16" cx="118.4" cy="389.3" rx="11.8" ry="2"/>
	<path class="st17" d="M130.1,389.3v168c0,1.1-5.3,2-11.8,2s-11.8-0.9-11.8-2c0,0,0-84.8,0-133.9c0-0.6,0-1.2,0-1.8
		c2.5-9.8,0.5-18.8,0-28.7c0-0.5,0-0.9,0-1.3c0-1.5,0-2.4,0-2.4c0,1.1,5.3,2,11.8,2S130.1,390.4,130.1,389.3z"/>
	<path class="st12" d="M386.2,558.2c0,1.6-7.3,2.8-16.3,2.8s-16.3-1.3-16.3-2.8c0-0.8,1.9-1.5,5-2.1v1.2c0,1.1,5.3,2,11.8,2
		s11.8-0.9,11.8-2v-1C384.7,556.8,386.2,557.4,386.2,558.2z"/>
	<ellipse class="st16" cx="370.4" cy="389.3" rx="11.8" ry="2"/>
	<path class="st17" d="M382.1,389.3c0,0,0,2.3,0,6.3c0,0.6,0,1.2,0,1.8c0,10.4,0,19.4,0,29.4c0,0.5,0,1,0,1.5
		c0,49.6,0,128.9,0,128.9c0,1.1-5.3,2-11.8,2s-11.8-0.9-11.8-2c0,0,0-91.2,0-139.2c0-0.6,0-1.1-0.1-1.6c-0.4-6.7-2.4-14.7,0.1-22
		c0-0.3,0-0.5,0-0.8c0-2.8,0-4.4,0-4.4c0,1.1,5.3,2,11.8,2S382.1,390.4,382.1,389.3z"/>
	<path class="st12" d="M329.2,562.2c0,1.6-7.3,2.8-16.3,2.8s-16.3-1.3-16.3-2.8c0-0.8,1.9-1.5,5-2.1v1.2c0,1.1,5.3,2,11.8,2
		s11.8-0.9,11.8-2v-1C327.7,560.8,329.2,561.4,329.2,562.2z"/>
	<ellipse class="st16" cx="313.4" cy="393.3" rx="11.8" ry="2"/>
	<path class="st17" d="M325.1,393.3v168c0,1.1-5.3,2-11.8,2s-11.8-0.9-11.8-2v-168c0,1.1,5.3,2,11.8,2S325.1,394.4,325.1,393.3z"/>
	<path class="st12" d="M195.2,562.2c0,1.6-7.3,2.8-16.3,2.8s-16.3-1.3-16.3-2.8c0-0.8,1.9-1.5,5-2.1v1.2c0,1.1,5.3,2,11.8,2
		s11.8-0.9,11.8-2v-1C193.7,560.8,195.2,561.4,195.2,562.2z"/>
	<ellipse class="st16" cx="179.4" cy="393.3" rx="11.8" ry="2"/>
	<path class="st17" d="M191.1,393.3v168c0,1.1-5.3,2-11.8,2s-11.8-0.9-11.8-2v-168c0,1.1,5.3,2,11.8,2S191.1,394.4,191.1,393.3z"/>
	<path class="st12" d="M474.2,529.2c0,1.6-7.3,2.8-16.3,2.8s-16.3-1.3-16.3-2.8c0-0.8,1.9-1.5,5-2.1v1.2c0,1.1,5.3,2,11.8,2
		s11.8-0.9,11.8-2v-1C472.7,527.8,474.2,528.4,474.2,529.2z"/>
	<path class="st13" d="M474.2,360.9c0,0.4,0,0.6,0,0.6v9.4c0,0.7-1.6,1.4-4.1,1.9c-3,0.6-7.3,1-12.2,1c-4.4,0-8.4-0.3-11.3-0.8
		c-3.1-0.5-5-1.3-5-2.1v-9.4c0,0,0-0.3,0-0.6c0,0.8,1.9,1.5,5,2.1c2.9,0.5,6.9,0.8,11.3,0.8c4.8,0,9.2-0.4,12.2-1
		C472.7,362.3,474.2,361.7,474.2,360.9z"/>
	<path class="st13" d="M474.2,529.6c0,0,0,7.5,0,9.4c0,1.6-7.3,2.9-16.3,2.9s-16.3-1.3-16.3-2.9c0-1.8,0-9.4,0-9.4
		C463.6,534.8,474.2,529.6,474.2,529.6z"/>
	<path class="st14" d="M470.1,372.8v155.5c0,1.1-5.3,2-11.8,2s-11.8-0.9-11.8-2V373c2.9,0.5,6.9,0.8,11.3,0.8
		C462.8,373.8,467.1,373.4,470.1,372.8z"/>
	<path class="st12" d="M48.2,528.2c0,1.6-7.3,2.8-16.3,2.8s-16.3-1.3-16.3-2.8c0-0.8,1.9-1.5,5-2.1v1.2c0,1.1,5.3,2,11.8,2
		s11.8-0.9,11.8-2v-1C46.7,526.8,48.2,527.4,48.2,528.2z"/>
	<path class="st13" d="M48.2,359.9c0,0.4,0,0.6,0,0.6v9.4c0,0.7-1.6,1.4-4.1,1.9c-3,0.6-7.3,1-12.2,1c-4.4,0-8.4-0.3-11.3-0.8
		c-3.1-0.5-5-1.3-5-2.1v-9.4c0,0,0-0.3,0-0.6c0,0.8,1.9,1.5,5,2.1c2.9,0.5,6.9,0.8,11.3,0.8c4.8,0,9.2-0.4,12.2-1
		C46.7,361.3,48.2,360.7,48.2,359.9z"/>
	<path class="st13" d="M48.2,528.6c0,0,0,7.5,0,9.4c0,1.6-7.3,2.9-16.3,2.9s-16.3-1.3-16.3-2.9c0-1.8,0-9.4,0-9.4
		C37.6,533.8,48.2,528.6,48.2,528.6z"/>
	<path class="st14" d="M44.1,371.8v155.5c0,1.1-5.3,2-11.8,2s-11.8-0.9-11.8-2V372c2.9,0.5,6.9,0.8,11.3,0.8
		C36.8,372.8,41.1,372.4,44.1,371.8z"/>
</g>
<g id="屋顶平台">
	<path class="st0" d="M363.3,397.2"/>
	<polygon class="st18" points="400.5,380 399.9,379.9 399.9,379.9 245.6,355.3 87,380.4 95.9,378.1 125.4,370.4 245.6,348.3 
		363.9,370.4 376.5,373.7 393.1,378 400.1,379.8 	"/>
	<polyline class="st0" points="178.4,384.6 178.5,384.6 178.5,384.6 	"/>
	<path class="st1" d="M125.4,370.4l-29.5,7.7l-8.9,2.3l-0.5,0.1c-17-2.1-31.6-4.5-43.3-7.2c-6.9-1.6-12.7-3.3-17.4-5
		c-3-1.1-5.6-2.3-7.7-3.5c-2.8-1.6-4.7-3.3-5.5-5c-0.3-0.7-0.5-1.4-0.5-2c0-0.5,0.1-1,0.3-1.5c0.1,0.2,0.1,0.4,0.2,0.6v-11
		c0.8,1.7,2.7,3.4,5.5,5c5.3,3,13.8,5.9,25.1,8.5s25.4,5,41.7,7c10.2,1.3,21.3,2.5,33.1,3.5C120.4,370,122.9,370.2,125.4,370.4z"/>
	<g id="窗">
		<polygon class="st19" points="58.1,463.1 58.1,498.6 56.2,499.6 50.1,503 49.1,502.8 49.1,461.8 		"/>
		<polygon class="st20" points="62.9,499.7 61.6,500.4 58.1,502.4 55.3,503.9 50.1,503 56.2,499.6 58.1,498.6 58.1,498.8 		"/>
		<polygon class="st19" points="68.8,500.8 67.9,501.3 67.9,501.3 61.1,505 58.1,504.5 55.3,503.9 58.1,502.4 61.6,500.4 
			62.9,499.7 		"/>
		<polygon class="st20" points="74.6,501.9 74.1,502.1 74.1,502.1 70.1,504.4 66.9,506.1 66.9,506.1 61.1,505 67.9,501.3 
			67.9,501.3 68.8,500.8 70.1,501 		"/>
		<polygon class="st19" points="80.4,502.9 80.3,503 72.8,507.2 70.1,506.7 66.9,506.1 70.1,504.4 74.1,502.1 74.1,502.1 
			74.6,501.9 74.6,501.9 		"/>
		<polygon class="st20" points="81.6,503.1 81.6,503.2 81.5,508.6 81.5,508.8 81.4,508.8 72.9,507.2 72.8,507.2 80.3,503 
			80.4,502.9 81.4,503.1 		"/>
		<polygon class="st12" points="82,466.6 81.9,473.7 81.9,479.7 81.8,485.5 81.7,491.5 81.6,497.5 81.6,502.3 81.6,503.1 
			81.4,503.1 80.4,502.9 74.6,501.9 74.6,501.9 70.1,501 68.8,500.8 62.9,499.7 58.1,498.8 58.1,463.1 70.1,464.8 81.9,466.6 		"/>
		<line class="st0" x1="81.6" y1="502.3" x2="81.6" y2="502.3"/>
		<line class="st0" x1="72.8" y1="507.2" x2="72.6" y2="507.3"/>
		<polygon class="st19" points="90.9,461.8 90.9,467.6 81.9,466.4 70.1,464.7 70.1,458.9 81.9,460.5 		"/>
		<path class="st3" d="M49.1,461.8v7.3l-4.5-0.6c-0.5-2.6-1.8-5.1-2.5-7.6L49.1,461.8z"/>
		<polygon class="st3" points="44.8,474.5 49.1,475.1 49.1,480.9 43.9,480.2 		"/>
		<polygon class="st19" points="90.8,474.9 90.7,480.9 81.9,479.7 81.9,473.7 		"/>
		<path class="st3" d="M49.1,486.9v6l-6-0.8c0-2,0.1-4,0.2-6L49.1,486.9z"/>
		<polygon class="st19" points="90.6,486.8 90.6,492.7 81.7,491.5 81.8,485.5 		"/>
		<path class="st3" d="M49.1,498.6v4.9l-5.8-0.9c-0.1-1.6-0.1-3.2-0.2-4.8L49.1,498.6z"/>
		<polygon class="st19" points="90.4,509.9 90.3,515.7 81.3,514.4 70.1,512.9 70.1,506.8 72.8,507.2 72.9,507.2 81.4,508.5 
			81.5,508.6 		"/>
		<path class="st19" d="M58.1,510.2v5.9l-9-1.3l-2.5-0.4c-0.4-0.6-0.8-1.1-1.2-1.7c-0.5-0.7-0.9-1.5-1.3-2.3
			c-0.3-0.7-0.4-1.5-0.5-2.2l5.5,0.8l0,0L58.1,510.2z"/>
		<polygon class="st20" points="81.3,513.4 81.3,519.3 70.1,517.7 58.1,516 58.1,510.2 70.1,511.9 		"/>
		<polygon class="st19" points="82,454.7 81.9,460.5 70.1,458.9 58.1,457.2 58.1,451.3 70.1,453 		"/>
		<polygon class="st3" points="70.1,458.9 70.1,464.7 58.1,463 49.1,461.8 49.1,455.9 58.1,457.2 		"/>
		<polygon class="st3" points="70.1,506.6 70,512.7 58.1,510.8 49.1,509.4 49.2,502.9 58.2,504.5 		"/>
		<polygon class="st19" points="90.5,498.7 90.4,504.4 81.6,503.2 81.4,503.2 81.4,503.1 81.6,503.1 81.6,502.3 81.6,497.5 		"/>
		<polygon class="st3" points="93.2,468 90.9,467.6 81.9,466.4 81.9,466.6 82,466.6 81.9,473.7 90.8,474.9 92,475.1 		"/>
		<path class="st3" d="M95.1,487.4l-4.5-0.6l-8.9-1.3l0.1-5.8v-0.1l8.9,1.3l2.3,0.3C93.6,483.3,94.4,485.3,95.1,487.4z"/>
		<polygon class="st3" points="96.3,493.6 90.6,492.7 81.7,491.5 81.6,497.5 90.5,498.7 95.7,499.5 95.7,499.5 		"/>
		<polygon class="st3" points="94.5,505 90.4,504.5 81.6,503.2 81.5,508.6 90.4,510 93.7,510.5 		"/>
		<path class="st3" d="M91.7,515.9c-1.3,1.9-3,3.6-4.7,5.2l-5.7-0.8l0.1-5.8l9,1.3L91.7,515.9z"/>
		<path class="st3" d="M95.9,462.5l-4.9-0.7l-9-1.3l0.1-5.8l9,1.3l3.6,0.5c0.9,0.8,1.6,1.8,1.8,3C96.6,460.5,96.3,461.5,95.9,462.5z
			"/>
		<polygon class="st21" points="60.1,464.8 80.1,467.8 80.1,500.8 60.1,497.8 		"/>
		<polyline class="st22" points="70.1,500.3 70.1,465.4 70.1,465.3 		"/>
		<line class="st23" x1="58.4" y1="476.6" x2="80.4" y2="479.6"/>
		<line class="st23" x1="59.4" y1="486.6" x2="81.4" y2="489.6"/>
		<polygon class="st19" points="432,466.1 432,501.6 433.9,502.6 439.9,506 441,505.8 441,464.8 		"/>
		<polygon class="st20" points="427.2,502.7 428.4,503.4 432,505.4 434.8,506.9 439.9,506 433.9,502.6 432,501.6 432,501.8 		"/>
		<polygon class="st19" points="421.3,503.8 422.2,504.3 422.2,504.3 429,508 432,507.5 434.8,506.9 432,505.4 428.4,503.4 
			427.2,502.7 		"/>
		<polygon class="st20" points="415.5,504.9 416,505.1 416,505.1 420,507.4 423.1,509.1 423.1,509.1 429,508 422.2,504.3 
			422.2,504.3 421.3,503.8 420,504 		"/>
		<polygon class="st19" points="409.6,505.9 409.8,506 417.3,510.2 420,509.7 423.1,509.1 420,507.4 416,505.1 416,505.1 
			415.5,504.9 415.5,504.9 		"/>
		<polygon class="st20" points="408.5,506.1 408.5,506.2 408.6,511.6 408.6,511.8 408.7,511.8 417.2,510.2 417.3,510.2 409.8,506 
			409.6,505.9 408.6,506.1 		"/>
		<polygon class="st12" points="408.1,469.6 408.2,476.7 408.2,482.7 408.3,488.5 408.4,494.5 408.4,500.5 408.5,505.3 408.5,506.1 
			408.6,506.1 409.6,505.9 415.5,504.9 415.5,504.9 420,504 421.3,503.8 427.2,502.7 432,501.8 432,466.1 420,467.8 408.2,469.6 		
			"/>
		<line class="st0" x1="408.5" y1="505.3" x2="408.5" y2="505.3"/>
		<line class="st0" x1="417.5" y1="510.3" x2="417.3" y2="510.2"/>
		<polygon class="st19" points="399.1,464.8 399.2,470.6 408.2,469.4 420,467.7 420,461.9 408.1,463.5 		"/>
		<path class="st3" d="M441,464.8v7.3l4.5-0.6c0.5-2.6,1.8-5.1,2.5-7.6L441,464.8z"/>
		<polygon class="st3" points="446.1,483.2 441,483.9 441,478.1 445.3,477.5 		"/>
		<polygon class="st19" points="399.3,477.9 399.4,483.9 408.2,482.7 408.2,476.7 		"/>
		<path class="st3" d="M441,489.9v6l6-0.8c0-2-0.1-4-0.2-6L441,489.9z"/>
		<polygon class="st19" points="399.4,489.8 399.5,495.7 408.4,494.5 408.3,488.5 		"/>
		<path class="st3" d="M441,501.6v4.9l5.8-0.9c0.1-1.6,0.1-3.2,0.2-4.8L441,501.6z"/>
		<polygon class="st19" points="399.7,512.9 399.8,518.7 408.8,517.4 420,515.9 420,509.8 417.3,510.2 417.2,510.2 408.7,511.5 
			408.6,511.6 		"/>
		<path class="st19" d="M432,513.2v5.9l9-1.3l2.5-0.4c0.4-0.6,0.8-1.1,1.2-1.7c0.5-0.7,0.9-1.5,1.3-2.3c0.3-0.7,0.4-1.5,0.5-2.2
			L441,512l0,0L432,513.2z"/>
		<polygon class="st20" points="408.8,516.4 408.8,522.3 420,520.7 432,519 432,513.2 420,514.9 		"/>
		<polygon class="st19" points="408.1,457.7 408.1,463.5 420,461.9 432,460.2 432,454.3 420,456 		"/>
		<polygon class="st3" points="420,461.9 420,467.7 432,466 441,464.8 441,458.9 432,460.2 		"/>
		<polygon class="st3" points="420,509.6 420.1,515.7 432,513.8 441,512.4 440.9,505.9 431.9,507.5 		"/>
		<polygon class="st19" points="399.6,501.7 399.6,507.4 408.5,506.2 408.6,506.2 408.6,506.1 408.5,506.1 408.5,505.3 408.4,500.5 
					"/>
		<polygon class="st3" points="398.1,478.1 399.3,477.9 408.2,476.7 408.1,469.6 408.2,469.6 408.2,469.4 399.2,470.6 396.9,471 		
			"/>
		<path class="st3" d="M395,490.4l4.5-0.6l8.9-1.3l-0.1-5.8v-0.1l-8.9,1.3l-2.3,0.3C396.5,486.3,395.6,488.3,395,490.4z"/>
		<polygon class="st3" points="394.4,502.5 394.4,502.5 399.6,501.7 408.4,500.5 408.4,494.5 399.5,495.7 393.8,496.6 		"/>
		<polygon class="st3" points="396.4,513.5 399.7,513 408.6,511.6 408.5,506.2 399.6,507.5 395.6,508 		"/>
		<path class="st4" d="M398.4,518.9c1.3,1.9,3,3.6,4.7,5.2l5.7-0.8l-0.1-5.8l-9,1.3L398.4,518.9z"/>
		<path class="st4" d="M394.2,465.5l4.9-0.7l9-1.3l-0.1-5.8l-9,1.3l-3.6,0.5c-0.9,0.8-1.6,1.8-1.8,3
			C393.5,463.5,393.8,464.5,394.2,465.5z"/>
		<polygon class="st21" points="430,467.8 410,470.8 410,503.8 430,500.8 		"/>
		<polyline class="st22" points="420,468.3 420,468.4 420,503.3 		"/>
		<line class="st23" x1="431.7" y1="479.6" x2="409.7" y2="482.6"/>
		<line class="st23" x1="430.7" y1="489.6" x2="408.7" y2="492.6"/>
	</g>
	<path class="st24" d="M476.6,351.8v4.1c-0.8,1.7-2.7,3.4-5.5,5l0,0c-5.3,3-13.8,5.9-25.1,8.5c-11.3,2.6-25.4,5-41.7,7
		c-10.2,1.3-21.3,2.5-33.1,3.5c-2.4,0.2-4.8,0.4-7.3,0.6c0,0,0,0-0.1,0l-118.3-22.1l-120.2,22.1c-2.5-0.2-5-0.4-7.5-0.6
		c-11.8-1-22.9-2.2-33.1-3.5c-16.3-2-30.4-4.4-41.7-7c-11.1-2.7-19.6-5.6-24.9-8.6c-2.8-1.6-4.7-3.3-5.5-5v-4
		c7.9-16.2,108.8-29,232-29S468.7,335.6,476.6,351.8z"/>
	<path class="st0" d="M363.3,397.2"/>
	<line class="st0" x1="471.1" y1="347.8" x2="471.1" y2="347.8"/>
	<path class="st1" d="M476.6,345.8v13c-0.8,1.7-2.7,3.4-5.5,5c-2.1,1.2-4.6,2.4-7.7,3.5c-4.7,1.8-10.6,3.4-17.4,5
		c-11.4,2.6-25.6,5-42.1,7.1l-1.1,0.1l-2.7,0.3l-7-1.8l-16.6-4.3l-12.5-3.3c2.5-0.2,4.9-0.4,7.3-0.6c11.8-1,22.9-2.2,33.1-3.5
		c16.3-2,30.4-4.4,41.7-7c11.3-2.6,19.9-5.5,25.1-8.5l0,0C473.9,349.2,475.8,347.6,476.6,345.8z"/>
	<path class="st25" d="M21.9,390.5c4.3,1.1,8.7,2.6,11.7,6.6c3.2,4.2,5.1,10.8,10.6,12.4c7.3,2.2,12.2-5.4,18.9-6.2
		c5.5-0.7,9.5,2.3,14.5,3.8c3.8,1.1,6.6,1.3,9.4,1.1c0.4,0,0.8-0.1,1.2-0.1c9.9-3.3,18.9,1.7,27.5,5.8c0.3,0.1,0.7,0.2,1.1,0.3
		c1.2,0.4,2.5,0.6,3.8,0.7c6.5,0.3,12.8-4.2,19.2-3c6.6,1.3,11.4,8.3,18.1,8.4c6.9,0.1,13.6-7.2,19.6-3.8c2.5,1.4,4.3,4.6,7.2,4.4
		c2.5-0.2,4-2.9,6.2-4c2.4-1.2,4.8-0.3,7.2,0.9c0.6,0.3,1.2,0.7,1.8,1c10.1,10,20.1-1,27.7-6.9c0.5-0.2,1-0.4,1.7-0.6
		c1.4-0.3,2.7-0.3,4.2-0.1c7.9,1.5,10.9,12,18.3,15c12.2,4.8,24.6-13.3,36.8-8.7c2.9,1.1,5.2,3.3,8.2,4.1c8.3,2.3,16.7-7.5,24.7-4.5
		c2.3,0.9,4.2,2.7,6.5,3.6c8.2,3,15.8-7.3,24.5-7.2c0.9,0,1.7,0.1,2.5,0.3c0.4,0.1,0.8,0.2,1.1,0.4c3.9,1.7,7.9,5.7,12.5,7.1
		c0.4,0.2,0.8,0.4,1.2,0.5c11.2,5.1,20.2-2.9,25.8-11c0.3-0.3,0.6-0.5,0.9-0.8c5.5-3.9,12.4-6.4,17.7-2.7c4.4,3.1,5.8,9.4,10.3,12.2
		c6.6,4.1,15-1.6,19.8-7.7c4.7-6.2,9.2-13.8,16.9-15.2c2.9-0.5,5.9,0,8.8-0.6c19.1-4.3,14.2-38.2,9.8-51.8
		c-5.4-16.9-20.6-29.3-37.3-35.2c-22.2-7.9-46.3-4.6-69.2-8.4c-43.9-7.2-88.4-10.7-132.8-10.4c-22.6,0.2-45.3,1.3-67.8,3.4
		c-10.4,1-21.6,1.3-31.9,3.2c-14.6,2.7-23,4-37.3,2.2c-13.4-1.7-28,3.6-40.9,7.3c-22.6,6.4-43.4,15.4-52.2,38.9
		c-4.1,11-11.5,29.9-1.7,40.1C12,388.4,17,389.2,21.9,390.5z"/>
	<path class="st7" d="M-184.2-142.2c0.2-1.3,0.3-2.6,0.5-3.9"/>
	<path class="st26" d="M46.5,344.4c0.3,1.4,1,2.7,2,3.7c4,3.8,9.9,1.6,14.5,4.7c4.4,2.9,7.5,8,8.3,13.2c0.8,4.9-1.4,9.9,0.5,14.6
		c0.9,2.2,2.9,4.1,5.3,4.3c2.8,0.3,6.6-4.2,9.2-5.5c5.3-2.9,12.1-4.2,18-5.1c19.2-2.8,38.6,2.1,57.8,4.6c13.8,1.8,27.8,2.5,41.8,1.9
		c4.7-0.2,9.4-0.5,14,0.3c5,0.9,9.7,3,14.5,4.5c9.7,2.9,19.9,3.2,30,3.1c13.5,0,26.3-1.1,39.4-2.9c11.8-1.6,23.2,4.2,34.6,6.3
		c8.4,1.5,16.9,1.1,25.5,0.4c0.4,0,0.9-0.1,1.3-0.1c1.8-0.5,4.8-0.5,6.7-0.6c0.4,0,0.9-0.1,1.3-0.1c0.9-0.1,1.8-0.1,2.7-0.2
		c20.3-1.4,33.4,3.7,49.5,15.2c4.1,3,9,6.2,13.8,4.8c4.3-1.2,6.8-5.6,10.1-8.5c7.5-6.6,19.4-5.8,27.3-12c2.7-2.1,4.8-5,6.2-8.1
		c4.2-8.9,3.5-19.6-0.3-28.8c-3.7-9.1-10.2-16.9-17.2-23.9c-4.7-4.7-9.8-9.2-15.9-11.9c-19.4-8.6-41.9-10.4-62.7-14.4
		c-8.3-1.6-16.7-3.3-25.2-2.6c-10.1,0.8-18.8,2.5-29,1.2c-9.3-1.2-18.4-3.6-27.7-5.2c-33.3-5.7-62.3,6.4-94.6,8.5
		c-17.5,1.1-34,3.3-50.9,7.6c-14.6,3.8-31.4-0.2-46.8,2.5c-12.2,2.1-24.4,5.1-36,9.5c-6.6,2.5-25,8-27.9,14.9
		C46.3,341.5,46.2,343,46.5,344.4z"/>
	<g>
		<path class="st27" d="M243.9,332.7c0.8-2.4,1.6-5,2.4-7.4c10.4-30.8,20.5-61.5,31-92.2c2.7-8,6.6-15.3,12.7-21.3
			c7.5-7.4,16.9-10.6,26.8-13.5c3.9-1.2,7.9-2.1,11.7-3.6c4.3-1.7,7.1-4.5,8.4-8.9c5.7-18.9,11.3-38.1,16.9-57
			c8.4-28.2,17-55.9,28.4-83.2c4.8-11.5,9.8-23.1,17.1-33.5c2.3-3.3,5.4-6.1,8.6-8.5c2.6-1.9,5.8-2,8.8-1c11,3.6,14.9,8.7,13.9,20.5
			c-0.6,6.7-2.2,13.8-4,20.4c-8.5,30.2-20.8,58.5-33.8,87c-9.7,21.3-19.5,43.1-29.1,64.6c-2.1,4.7-1.7,9,0.7,13.3
			c3,5.5,7,10.5,10.1,15.9c8.2,14.4,10,28.6,4,44.1c-12.8,33-26.7,65.1-39.9,97.9c-0.1,0.3-0.5,0.7-0.7,1c-7-1.8-14-3.5-21-5.3
			c0.6-0.9,1.7-2,2-3c9.3-25,18.6-49.9,27.8-74.9c1-2.7,1.6-5.4,0.3-8.1c-1.5-3.1-3.9-4.9-7.4-5.1s-6,1.3-7.9,4.2
			c-0.8,1.2-1.2,2.5-1.7,3.8c-9.3,24.9-18.5,49.7-27.7,74.6c-0.4,1-0.4,2.4-0.6,3.5c-7.5-2.8-14.9-5.7-22.4-8.6
			c0.4-1.1,0.7-2,1.1-3.1c9.3-25.3,18.8-50.6,28.1-76c1.3-3.7,1.9-7.2-1-10.3c-4.3-4.6-10.6-3.8-14.1,1.5c-0.7,1.1-1.1,2.4-1.5,3.6
			c-9.3,24.9-18.5,49.7-27.7,74.6c-0.4,1-0.4,2.6-0.6,3.7C257,339.3,250.5,336,243.9,332.7z"/>
	</g>
	<path class="st4" d="M250.6,272.3l-49,45l-14,76c0,0,4.9,0,12.8,0c1.6,0,3.3,0,5.1,0c5.6-1.5,12.6-0.5,19.1-0.6
		c2.4,0.2,4.4,0.6,6.8,0.6c2.4,0,4.9,0,7.4,0c0.6,0,1.2,0,1.8,0c6.6-1.5,12.6-0.5,19.8-0.1c0.6,0.1,1.1,0.1,1.7,0.1
		c31.1,0,60.1,0,60.1,0l-23.3-70.5L250.6,272.3z"/>
	<path class="st11" d="M258.5,291.3c-5.4-2.1-10.8-3.6-15.7-1.2c-7.7,3.9-8.8,10.6-10.2,18.2c-1.5,8.1-2.9,12.9-7.4,20.9
		c-2,3.5-3,8.6-5.5,11.6s-7.3,3.5-9.1,7.1c-1,1.9-0.7,4.2-0.3,6.3c1,5.9,6.6,21.1,1.4,25c-4,2.9-15.8-3.4-17.4-7
		c-1-2.4-0.8-5-0.6-7.6c0.8-10.4,1.7-20.8,2.5-31.1c0.2-2.6,0.4-5.3,1.5-7.7c1.3-2.9,3.7-5.1,5.9-7.3c7.1-6.9,13.6-14.3,19.5-22.2
		c5.2-7,10.4-14.7,18.4-18.1c10.3-4.5,33.4,3.8,29.6,17.5C267.1,295,262.9,293,258.5,291.3z"/>
	<path class="st28" d="M356.2,379.6c-2.4-0.5-4.1-2.5-6.1-3.8c-5.3-3.1-12.5-0.8-17.7-4c-2.2-1.3-4-3.6-6.5-4.1
		c-1.8-0.3-3.6,0.3-5.4,0.1c-3.1-0.3-5.5-3-6.4-6s-0.6-6.2-0.2-9.2c0.4-2.6,0.8-5.3,0.3-7.8c-0.6-3.2-2.6-5.9-3.9-8.8
		c-2.4-5.5,1.4-7.8,1.1-12.8c-0.3-4.9-3.9-9.7-6.9-13.3c-13.8-17.1-28.1-34.6-47.4-45.2c-3-1.7-6.3-3.2-9.7-2.8c-3,0.4-5.6,2.2-8,4
		c-18.3,13.4-35.4,28.4-51.1,44.9c-2.1,2.2-4.2,4.6-4.7,7.6c-1.8,12.8,8.1,27-8,35.4c-6.2,3.3-4.8,6.7-3.8,12.9
		c0.2,0.9,0.3,1.9-0.1,2.8c-0.5,1.1-1.7,1.7-2.8,2.1c-12.1,4.8-25.2,7-38.2,6.2c-4.8-0.3-9.3,6.3-7.4,10.7c1.9,4.4,6.7,6.7,11.2,8.4
		c19.8,7.4,40.9,11,62,11.8c0.7,0,1.5,0.1,2.2,0.1s1.5,0,2.2,0.1c9.3-1,17.3-1,26.6,0c0.6,0,1.3-0.1,1.8-0.3c0.7,0,1.5,0,2.2-0.1
		c2.3-0.1,4.6-0.1,6.8-0.2c0.7,0,1.1,0.1,1.6,0.2c10.2,3.4,18.2,0.4,28-1.1c0.8,0,1.5,0,2.3-0.1c0.8,0,1.5,0,2.3-0.1
		c21.7-0.7,43.5-1.4,64.8-5.4c5.7-1.1,11.7-2.5,15.9-6.5C357.4,391.3,360,384,356.2,379.6z M288.5,376.6c-6,6.3-15,9.5-23.7,8.9
		c-13-1-26.4-2-39.5-3.2c-10.1-0.9-23-3.6-25.5-15.3c-0.8-3.9,1.5-8,1.7-11.9c0.4-5.8-0.8-12-1.7-17.7c-0.3-1.7-0.3-3.9,1.3-4.5
		c1-0.4,2.1,0.2,3.2,0.3c2.3,0.3,4.5-1.2,6.3-2.8c7.4-6.1,15.6-13.9,14.6-23.5c-0.2-1.9-0.8-3.9-0.5-5.8c1.6-9.9,18.9-22.7,28-18.8
		c10.4,4.5,22.7,19.5,21.3,31.2c-0.3,2.9-1.4,5.8-0.8,8.6s3.8,5.4,6.3,3.9s3.6-6.4,6.3-5.3c2.4,3,1.5,7.3,1.5,11.2
		c0,3.8,2.4,8.7,6.1,8c1.1-3.1,2.3-6.1,3.4-9.2c-4.4,11.7,1.1,24-2.5,35.6C293.3,370.4,291.2,373.8,288.5,376.6z"/>
	<path class="st12" d="M399.6,409.3c0,3.6-1.2,6.2-3,8.1c-0.3,0.4-0.7,0.7-1.1,1.1c-7.4,5.3-15.4,5.3-22.9,5.2
		c-0.5,0-0.9,0.1-1.4,0.1c-3.5,0.4-7.6,0.8-12.5,1.2c-8.8,0.8-20,1.5-33.5,2.1c-7.2,0.3-15,0.6-23.5,0.9
		c-22.1,0.6-48.6,0.8-79.8,0.1c-0.9,0-1.8,0-2.6,0.1c-4.1-0.3-7.1-0.3-11-0.4c-0.9,0-1.8-0.1-2.8-0.1c-4.7-0.1-9.4-0.3-14.3-0.5
		c-7.6-0.3-15.4-0.6-23.5-1c-12-0.6-24.5-1.3-37.5-2.2c-6.8-0.4-13.8-0.9-20.8-1.5c-0.4,0-0.9-0.1-1.3-0.1c-6-0.6-12-1.6-15-6.6
		c-6-13,8-22,19.2-20.3c0.4,0,0.7-0.1,1-0.1c0.8-0.1,1.3-0.1,1.3-0.1l107-17c0,0,21-5,47,0c17.9,3.4,66.2,10.3,94.7,14.2
		c0.5,0.1,1,0.1,1.5,0.2c3.2-0.9,7.2,2.1,10.7,1.5c0.4,0.1,0.7,0.1,1.1,0.2c5.3,0.7,8.5,1.2,8.5,1.2S399.6,396.3,399.6,409.3z"/>
	<path class="st2" d="M400.5,395l-154.9-24.7c0,0-101.5,16.1-142.1,22.5c-0.5,0.1-0.9,0.1-1.4,0.2c-1-0.3-2-0.3-2.6,0.4
		c-0.4,0.1-0.8,0.1-1.2,0.2c-7.1,1.1-11.3,1.8-11.3,1.8l-0.5,0.1v1v1c0,0,0,0.9,0,1.8c0,4,0.1,8,0.1,8l0.2,17
		c6.3,0.8,12.9,1.5,19.8,2.2c7.5,0.7,15.3,1.4,23.5,2c11.9,0.9,24.4,1.7,37.5,2.3c7.7,0.4,15.5,0.7,23.5,0.9
		c17.3,0.5,35.3,0.8,53.8,0.8c19.6,0,38.6-0.3,56.7-0.9c8-0.3,15.8-0.6,23.5-1c11.6-0.6,22.8-1.3,33.5-2.1c6.3-0.5,12.5-1,18.4-1.5
		c0.9-0.1,1.7-0.1,2.5-0.2c2.5-0.1,4.5-0.1,7.9-0.8c0.4-0.1,0.9-0.1,1.3-0.2c4.8-0.5,9.5-1,14-1.6c0-6.3,0-12,0-12v-16.8L400.5,395z
		 M383.7,423.3c-3.6,0.5-7.6,0.5-11.2,0.4c-0.5,0-0.9,0.1-1.4,0.1c-3.5,0.4-7.6,0.8-12.5,1.2c-8.8,0.8-20,1.5-33.5,2.1
		c-7.2,0.3-15,0.6-23.5,0.9c-22.1,0.6-48.6,0.8-79.8,0.1c-0.9,0-1.8,0-2.6,0.1c-4.1-0.3-7.1-0.3-11-0.4c-0.9,0-1.8-0.1-2.8-0.1
		c-4.7-0.1-9.4-0.3-14.3-0.5c-7.6-0.3-15.4-0.6-23.5-1c-12-0.6-24.5-1.3-37.5-2.2c-6.8-0.4-13.8-0.9-20.8-1.5
		c-0.4,0-0.9-0.1-1.3-0.1c-5.9-0.6-11.9-1.6-14.9-6.6c-6-13,8-22,19.2-20.3c0.4,0,0.7-0.1,1-0.1c0.8-0.1,1.3-0.1,1.3-0.1l107-17
		c0,0,21-5,47,0c17.9,3.4,66.2,10.3,94.7,14.2c0.5,0.1,1,0.1,1.5,0.2c3.2-0.9,7.2,2.1,10.7,1.5c0.4,0.1,0.7,0.1,1.1,0.2
		c5.3,0.7,8.5,1.2,8.5,1.2s14.5,0.8,14.5,13.8c0,3.6-1.2,6.2-3,8.1c-0.3,0.4-0.7,0.7-1.1,1.1c-3.4,3.3-7.4,4.3-11.1,4.8
		C384,423.3,383.7,423.3,383.7,423.3z"/>
	<g>
		<path class="st21" d="M227.1,355.8v-13.5c0-10.2,8.3-18.5,18.5-18.5s18.5,8.3,18.5,18.5v13.5H227.1z"/>
		<path class="st29" d="M245.6,325.3c9.4,0,17,7.6,17,17v12h-34v-12C228.6,332.9,236.2,325.3,245.6,325.3 M245.6,322.3
			c-11,0-20,9-20,20v15h40v-15C265.6,331.3,256.6,322.3,245.6,322.3L245.6,322.3z"/>
	</g>
	<line class="st6" x1="225.6" y1="340.3" x2="265.6" y2="340.3"/>
	<polyline class="st6" points="245.6,357.3 245.6,345.3 245.6,323.3 	"/>
	<path class="st29" d="M224.9,286.7c11.9-5.9,27-9.5,38-2c8.8,6,12.1,17.3,13.4,27.9c0.3,2.8,0.9,6.1,3.5,7.2
		c2.3-1.7,4.6-3.5,6.8-5.2c3.5,3.2,1.9,9.2,4.1,13.4c1,2,2.8,3.6,4.2,5.3c6.6,8.3,4,20.7,8.9,30.1c4.1,7.8,13.6,12.3,22.2,10.6
		c-1.3-1.2-2.8-2.1-4.2-3.3c-6-4.9-8.1-13.1-8.6-20.8s0.3-15.5-1.4-23.1c-2.3-10.1-8.9-18.6-15.6-26.5c-8.1-9.4-16.7-18.5-26.2-26.5
		c-4.9-4.2-10.3-8.2-16.6-9.7C241.4,261.5,226.2,274.7,224.9,286.7z"/>
	<g>
		<path class="st4" d="M96.1,408.2c0-6.4,4-10.4,9-12.4c4-1,8,1,10,4c-9-2-15,4-11,14c1,4,6,4,8,2c0-1,0-3,0-4c-1,0-3,0-3,0
			c-1-2,0-5,0-5c6-3,8,2,6.5,8.1c0,0.4-0.1,0.8-0.1,1.2c0,0.7,0,1.1,0,1.1c-0.2,0.2-0.4,0.4-0.6,0.5c-0.2,0.2-0.5,0.3-0.7,0.5
			c-7.1,5.6-16.1,0.6-18-7.8C96.1,409.7,96.1,409,96.1,408.2z"/>
		<path class="st4" d="M117.5,408c-0.4-1.2-1.4-3.2,0.3-4c0.1-0.4,0.2-0.8,0.4-1.2c1.7-4.9,6-8.5,12-7c8,2,9,11,7,18c-2,6-9,8-14,6
			c-2.8-1.4-4.1-3.8-4.9-6.5c-0.1-0.4-0.2-0.8-0.3-1.2c1.2-1.3-1.8-2.3-0.4-3.3C117.5,408.5,117.5,408.2,117.5,408z M130.7,408
			c-0.6-4.2-0.6-11.2-6.6-7.2c-5,3-4,10-1,15c3,3,8,0,7.5-5.2C130.7,409.8,130.7,408.9,130.7,408z"/>
		<path class="st4" d="M158,408.2c0-7.6,4.8-12,10.9-12c0.4,0,0.7,0,1.1,0.1c1.2,0.5,3.2,0.5,5.2,1.5c2,2-2,1-2,3c-4-1-8,0-10,4
			c-1,4-1,9,3,11c4,1,10-3,9,2c0,4-7,4-11,2c-3-2-6-5-5.8-8.5c-0.1-0.5-0.2-1-0.2-1.5C158,409.3,158,408.7,158,408.2z"/>
		<path class="st4" d="M177.7,406.6c-2.6-3.8,1.4-8.8,5.2-10.3c0.4-0.2,0.8-0.4,1.2-0.5c5-1,10,1,12,5c3,7,2,15-5,19
			c-1.3,0.6-2.6,0.8-3.9,0.9c-0.4,0-0.8,0-1.2,0c-6.9,0.2-7.9-7.8-8.2-13C177.8,407.3,177.7,407,177.7,406.6z M190.4,407.9
			c0.7-5.1-4.3-11.1-7.3-7.1c-3,5-2,12,2,15c2,3,6-2,5.3-6.4C190.4,408.9,190.4,408.4,190.4,407.9z"/>
		<path class="st4" d="M199.6,396.6c0,0,0.6,0,1.3,0c0.4,0,0.8,0,1.2,0c1.3,0,2.6,0,2.6,0s0,2.6,0,5.8c0,0.5,0,0.9,0,1.4
			c0.4,3.9-2.6,7.9,0.4,9.9c2,2,7,0,10,2c1,0,1,4,0,4c-4,3-9,0-13-0.3c-0.5,0-1-0.1-1.4-0.1c-0.7,0-1.1,0-1.1,0
			c0.3-0.7,0.5-1.3,0.6-2c0.2-0.7,0.3-1.4,0.4-2.1c0.5-1.5,0.5-2.5,0.3-4.4c0-0.7,0-1.5-0.1-2.2c-0.2-3.8-0.9-7.6-1.1-11.3
			C199.6,396.9,199.6,396.6,199.6,396.6z"/>
		<path class="st4" d="M219.5,395.8c1.6,0,3.6,0,5.6,0c-3,8-3,18,4.5,22.6c0.4,0,0.8,0,1.2,0c1.3,0,2.7-0.2,4.3-0.7c-1,1-1,3-1,3
			c-1,0.3-2.1,0.3-3.2,0.1c-0.5-0.1-1.1-0.2-1.6-0.3c-13.2,2.2-7.2-14.8-9.8-24C219.5,396.1,219.5,395.8,219.5,395.8z"/>
		<path class="st4" d="M238.9,396.5c5.2,0.3,11.2-4.7,16.2-0.7c0,1,0,2,0,3c-5-3-14-4-13,4c5-2,9,1,12,3c1,1,1,4-1,6c-3,3-8-3-9,1
			c-2,7,6,5,11,4c0,0-1,1-0.5,1c-0.3,0.4-0.7,0.8-1.2,1.2c-2.7,2.4-7.8,2.6-11.3,1.8c-0.4-0.1-0.8-0.2-1.2-0.3
			c-3.4-2.8-3.8-7.7-3.3-12.8c0.1-0.7,0.1-1.5,0.2-2.2c0.4-1.7,0.4-4.7,0.9-6.5c0.1-0.7,0.2-1.3,0.3-2
			C238.9,396.7,238.9,396.5,238.9,396.5z"/>
		<path class="st4" d="M257.5,410.5c2.6-4.7-2.4-11.7,4.5-14.8c0.4-0.2,0.8-0.3,1.3-0.4c0.6-0.2,1.2-0.3,1.8-0.4c2,0,4,0,5.8,0.5
			c0.4,0.1,0.7,0.2,1,0.4c2.2-0.9,0.2,2.1,2.2,2.1c-2-2,0,7-2.7,1.4c-0.2-0.2-0.4-0.4-0.6-0.7c-0.3-0.3-0.5-0.5-0.8-0.8
			c-0.7-0.2-1.3-0.3-2-0.3s-1.3,0.1-1.9,0.2c-6.1,5-5.1,11-4.1,17.6c0.4,0.4,0.8,0.7,1.3,1c2.3,1.4,5.2,1.7,7.7,0.4
			c0.8-0.8-0.2-2.1,0.1-3.1c0.1-0.3,0.3-0.6,0.7-0.8c-0.9-0.1-0.9-0.1-1.4,0.4c-0.3,0.1-0.5,0.3-0.8,0.3s-0.5,0.2-0.8,0.2
			c-5,0-1-5-2-7c0.4,0,0.8,0,1.2,0s0.9-0.1,1.3-0.1c1.5,0.1,2.5,0.1,4.5,0.1c0,4,4,8,0.4,10.6c-0.3,0.3-0.6,0.6-0.9,0.8
			c-2.6,2-6.4,2.9-10.4,1.6c-1.5-0.8-3-1.6-4.3-2.7c-0.4-0.3-0.7-0.5-1-0.8c-1.8-1.4-0.8-3.4-0.5-4.7
			C257.4,411.2,257.5,410.9,257.5,410.5z"/>
		<path class="st4" d="M277.9,395.5c6.2-1.7,16.2-1.7,17.2,5.3c-3-2-7-2-11-3c0,3-1,6,0,7c3,2,8,0,9,2c4,4-5,5-9,6c0,1,0,3,0,4
			c3,0,7,0,10-2c0,1,0,2,0,2.5s0,1.1,0,1.5s0,0.7,0,0.7s-1.3,0-3.2,0c-0.3,0-0.5,0-0.8,0c-4,0.3-8,0.3-12,0.3c1-8-3-16-0.4-23.7
			C277.8,395.7,277.9,395.5,277.9,395.5z"/>
		<path class="st4" d="M318.8,396.7c0,0,3.2,0,6.6,0c0.3,0,0.6,0,0.9,0c2.7,1.1,4.7-0.9,7.7-0.9c-3,7-13,2-10,10c0,0,4-1,6,0
			c1,1,0,4,0,6c-2-1-5-2-6-1s0,4-0.2,5.9c0,0.5,0,1,0,1.4c0,0.8,0,1.4,0,1.4h-5.2v-22.8H318.8z"/>
		<path class="st4" d="M335.4,408c-1.3-8.2,6.7-16.2,14.7-11.2c1.2,0.9,2.2,1.9,2.9,3.1c0.3,0.4,0.5,0.8,0.7,1.2
			c1.4,2.8,1.4,6.8,1,10.1c-0.1,0.4-0.2,0.8-0.3,1.2c-1,2.8-2.8,5.1-5.3,6.5c-7,4-14-1-13.7-9.3C335.4,409,335.4,408.5,335.4,408z
			 M350.5,408c0.6-4.2-1.4-9.2-6.4-8.2c1,6-4,14,2,16c2,1,5-3,4.3-6.8C350.4,408.6,350.5,408.3,350.5,408z"/>
		<path class="st4" d="M357.3,396.6c5.5-1.3,13.5-1.7,17.1,2.3c0.3,0.3,0.5,0.6,0.7,0.9c1,5-1,12-7.5,13.4c-0.4,0-0.8,0.1-1.3,0.1
			c-1.7,0-3.5-0.2-5.2-0.5c1,2,1,5,1,7c0,0-1,0-1-0.3c-0.4,0-0.8,0-1.2,0c-1.3,0-2.6,0-2.6,0s0-0.6,0-1.7c0-0.4,0-0.8,0-1.2
			c-0.2-5.8-1.2-12.8,0-19.2C357.3,396.9,357.3,396.6,357.3,396.6z M363.5,407.4c1.1,0.4,2.3,0.1,3.4-0.5c0.4-0.2,0.7-0.5,1-0.8
			c1.2-0.4,1.2-1.4,1.6-2c0.2-0.4,0.3-0.8,0.4-1.1c0.3-1.2,0.1-2.3-0.8-3.2c-7-4-9,2-9,8c1,0,1,0,1.8-0.4
			C362.7,407.4,363.5,407.4,363.5,407.4z M368,406.6c3.1,4.2,3.1,10.2,6.1,14.2c-3,0-4-1-6.4-2.9c-0.3-0.3-0.6-0.6-0.9-1
			c-1.4-1.8-2.3-4-2.7-6.1c-1-1,2-3,3.5-3.8C367.9,406.7,368,406.6,368,406.6z"/>
		<path class="st4" d="M377.2,396.5c0,0,0.5,0.1,1.3,0.1c0.4,0,0.8,0,1.2,0c0.3,0,0.7,0,1,0c2.4,2.1,0.4,6.1,1.4,6.1
			c3,2,4-3,5.9-4.6c0.2-0.3,0.4-0.6,0.6-0.8c0.3-0.5,0.5-0.8,0.5-0.8h5.7c0,0-1.2,1.6-2.9,3.8c-0.3,0.4-0.7,0.9-1,1.3
			c-4.9,6-9.9,11-8.9,19c-2,0-5,0-5,0c-4-8,2-16,0.2-23.6C377.2,396.8,377.2,396.5,377.2,396.5z M385.5,407.4
			c-1.4-1.6,3.6-1.6,2.6-3.6c3,5,8,12,6,15c-4,5-5-6-7.7-9.9C385.8,407.9,385.5,407.4,385.5,407.4z"/>
	</g>
</g>
</svg>
