<?xml version="1.0" encoding="UTF-8" standalone="no"?>
<svg xmlns:rdf="http://www.w3.org/1999/02/22-rdf-syntax-ns#" xmlns="http://www.w3.org/2000/svg" enable-background="new 0 0 158.4 158.5" xml:space="preserve" viewBox="0 0 75.665545 75.761017" height="75.761" width="75.666" version="1.1" y="0px" x="0px" xmlns:cc="http://creativecommons.org/ns#" xmlns:xlink="http://www.w3.org/1999/xlink" xmlns:dc="http://purl.org/dc/elements/1.1/"><defs><clipPath id="b"><use xlink:href="#bc" height="100%" width="100%" y="0" x="0" overflow="visible"/></clipPath><rect id="bc" y="0" x="0" width="158.4" height="158.5"/><path id="an" d="m18.1 81.8c0 32.9 26.7 59.6 59.6 59.6s59.6-26.7 59.6-59.6-24-64.4-56.9-64.4-62.3 31.5-62.3 64.4"/><rect id="w" y="0" width="158.4" x="0" height="158.5"/><rect id="bx" y="0" width="158.4" x="0" height="158.5"/><rect id="bw" y="0" width="158.4" x="0" height="158.5"/><rect id="bv" y="0" width="158.4" x="0" height="158.5"/><rect id="bu" y="0" width="158.4" x="0" height="158.5"/><rect id="bs" y="68.6" x="100.9" height="27.2" width="29.3"/><path id="br" d="m116.9 69.9c0.5 1 1.7 3.3 1.4 4-0.2 0.7-1 1.3-0.5 1.9 0.5 0.5 0.8 3.1 0.2 3.5-0.7 0.4-1.9 1.5-2.2 0.8-0.2-0.7-2.2-0.4-3-0.4l-0.2-2.7v0.1-0.2c-0.1-0.6-0.1-1.6-1.5-1.5-0.8 0-3.7-1.2-4.6 0.6-0.9 1.9-4.2 3.3-5.1 5.5-1 2.2-0.7 3.4-0.7 3.4s0.6 6.9 1.6 8.2l0.3-5.1c0.4-1.6 0.8-3.7 2.5-4.7 3.1-1.9 4.3-2.2 4.5-2.2v0s0.9 3.5 4.3 4.7c3.5 1.3 6.1 1.7 10.4-2.6s4.5-4 4.9-5.7c0.4-1.6-1.9-3.8-1.9-4.2s-0.5-3.5 0-3.8c0.5-0.2-1.8-0.2-1.9 0.4-0.1 0.7-0.9 2.2-0.7 2.9 0.3 0.7 1.6 2.4 1.6 2.4s-0.2 1.6-0.7 1.9c-0.3 0.3-2.8 0.2-3.4 1 0.1-1.2 0.3-4.1-0.4-4.8-0.9-1-2.6-1.9-2.2-3.1s-0.7-2.8-1.3-2.8c-0.7 0-1.9 1.5-1.4 2.5"/><rect id="bo" y="0" width="158.4" x="0" height="158.5"/><rect id="bn" y="105.3" x="83.4" height="10.2" width="12.3"/><path id="bm" d="m91.5 107c0.1 0 0.1 0 0 0m-5.6-2.3c-1.2 1-2.1 2.2-2.2 2.4l-0.1 0.1c-1.9 2.8 1.6 4.5 1.6 4.5 1.2 0.9 5.5 1.8 6.5 1.9 0.1 0 1-0.7 1.3-0.7l1.8-0.1s-5.4-2.1-5.1-3.9 1.7-1.9 1.8-1.9c-0.1-0.1-0.9-0.8-1-1s-0.6-1-1.3-1.3c-0.4-0.1-1.2-0.5-2-0.5-0.4 0-0.9 0.1-1.3 0.5"/><rect id="bj" y="0" width="158.4" x="0" height="158.5"/><rect id="bi" y="92.8" x="86.6" height="20.7" width="42.1"/><path id="bh" d="m121.5 92c0.4 1.8 0.2 3.6 0.1 4.4-0.2 1.4-1 5.8-7.3 4.7-6.1-1-19.3-3.3-19.1-4 0.2-0.8-8.7-1.9-8.7 0.2 0 1.9 0.3 5.7-0.2 7h0.1c0.6-0.3 1.1-0.3 2 0 2.2 0.7 1.6 1.6 3.2 2.8s2.8 1.3 3.5 1.2 7.1 0.5 7.9 1.1c0.7 0.7 7.9 2.4 11.5 2.2 3.5-0.3 6.4-1.6 7.3-2.5 1-0.9 4.3-4.3 4.9-6.2 0.6-1.8 2.2-5.8-2.5-9.4-1-0.8-1.9-1.3-2.8-1.6v0.1z"/><rect id="be" y="0" width="158.4" x="0" height="158.5"/><rect id="bd" y="86.1" x="100.8" height="12.2" width="26.6"/><path id="bb" d="m116.8 91.7h0.2c0.2 0 0.2 0 0 0h-0.2m4.1-0.2c-0.7-0.2-1.3-0.3-1.8-0.4h-0.2l2 0.4zm-19.9-3.4c0 1.3 0.6 3 0.6 3.4 0.2 2.8 3.6 5 4.4 4.9h0.9c1.7 0 4.8 0 6.2-1.9 1.5-2.3 3.1-2.8 3.7-2.8-0.2-0.1 0.8-0.7 2.3-0.6 3.7 0.2 6.8 3.7 6.8 3.7-0.4-1.4-5.6-6-6.7-6.2-2.6-0.7-8.3 1.9-12.1 2.2-2 0.1-5.2-3.1-6.4-4.6l0.3 1.9z"/><rect id="ay" y="0" width="158.4" x="0" height="158.5"/><rect id="ax" y="93.5" x="36.7" height="38" width="62.2"/><path id="aw" d="m45.3 92.5c-5.5 0.1-6.1 2.1-7.1 3.1-1.1 0.9 0.1 4.3-0.5 5.2-0.7 0.9-1.5 1.3-1.5 1.3l6.2-1.2c-0.8 0 5.7-0.5 11.6 5.9 3.2 3.5 1.8 6.2 6.3 12.3s8.7 8.9 20.3 10.3c11.6 1.3 14.4-5.9 15.2-6.1 0.7-0.1 2.3-5.5 1.9-7.1s-2-3.7-4.1-3.7c-0.5 0-1.1 0.1-1.1 0.1s-1.2 0.6-2.1 0.7l1.3 0.4c0.7 1.1-0.2 1.9-2.2 3.4-2.8 2.2-6.4 1.3-10.6 0.8s-7.8-2.8-9.5-6.4c-1.6-3.7-5.5-10.4-11.5-15.2-4.3-3.4-6.2-4-8.8-4-1.1 0.1-2.3 0.2-3.8 0.2"/><rect id="at" y="0" width="158.4" x="0" height="158.5"/><rect id="as" y="102" x="34.4" height="11.5" width="8.8"/><path id="ar" d="m35.1 102.9c-3.4 2.5 2.4 9.1 5.7 8.8l0.1-4.5c-3.7-1.9-3-3.1-2.8-4.6 0.1-1.4 5-1.6 4-1.6-0.4 0-0.9-0.1-1.6-0.1-1.4 0-3.2 0.3-5.4 2"/><rect id="ao" y="0" width="158.4" x="0" height="158.5"/><rect id="am" y="112.7" x="40.6" height="13.7" width="17.9"/><path id="al" d="m42.4 114.4c-0.1 1 0.2 0.9 1.3 1.1 1.1 0.3 1.2 1.5 1.5 2.8 0.2 1.3 0 2.2 1 2.5 0.9 0.3 1.6 1.1 1.9 2 0.4 0.9 1.4 1.2 1.9 1.6s0.1-0.7 0.4-1.1c0.4-0.4-1-1.8-1.3-2.3-0.2-0.4-1.8-1.3-1-2.1 0.5-0.5 0.6-1.2 0.6-1.5 0.3 0.6 2.1 1.6 3.3 1.7 1.3 0.1 1.9 1.3 2.1 1.9 0.3 0.5 1.8 1 2.5 0.7 0.7-0.2 0.9-1.6-0.5-1.8-1.5-0.2-3-3-3.7-3.7-0.5-0.7-1.8-0.6-1.8-0.7 0-2.1-1.1-3.2-1.1-3.2l-8.8-0.5c0.1-0.2 1.8 1.6 1.7 2.6"/><rect id="ai" y="0" width="158.4" x="0" height="158.5"/><rect id="ah" y="77.3" x="109.3" height="5.8" width="4.6"/><path id="ag" d="m111.6 77.8c-0.4-0.2-1.7-1-2.6 0.3-0.1 0.1 0.5 3 0.6 3.1s-0.1-0.6 0.9-0.9c1-0.4 0.5-0.4 2.3-0.5l-0.2-2.7c0-0.1-0.5 0.8-1 0.7"/><rect id="ac" y="0" width="158.4" x="0" height="158.5"/><rect id="aa" y="0" width="158.4" x="0" height="158.5"/><rect id="z" y="0" width="158.4" x="0" height="158.5"/><rect id="y" y="0" width="158.4" x="0" height="158.5"/></defs><g style="" transform="matrix(.5 0 0 .5 -1.5108 -1.6972)"><g style="" clip-path="url(#b)"><clipPath id="af"><use xlink:href="#an" height="100%" width="100%" y="0" x="0" overflow="visible"/></clipPath><linearGradient id="x" y2="-465.15" gradientUnits="userSpaceOnUse" x2="-883.83" gradientTransform="matrix(0 -165.54 -165.54 0 -76925 -1.463e5)" y1="-465.15" x1="-884.58"><stop stop-color="#fff" offset="0"/><stop stop-color="#F1F5FA" offset=".028157"/><stop stop-color="#CDDAED" offset=".1105"/><stop stop-color="#AFC3E2" offset=".2007"/><stop stop-color="#96B1D9" offset=".299"/><stop stop-color="#83A3D2" offset=".4085"/><stop stop-color="#7599CE" offset=".5356"/><stop stop-color="#6D93CB" offset=".6962"/><stop stop-color="#6B91CA" offset="1"/></linearGradient><rect clip-path="url(#af)" height="124" width="119.2" y="17.4" x="18.1" fill="url(#x)"/></g><g fill="none" clip-path="url(#b)"><clipPath id="c"><use xlink:href="#w" height="100%" width="100%" y="0" x="0" overflow="visible"/></clipPath><g fill="none"><path d="m137.3 81.8c0 32.9-26.7 59.6-59.6 59.6s-59.6-26.7-59.6-59.6 29.4-64.4 62.3-64.4 56.9 31.5 56.9 64.4z" clip-path="url(#c)" stroke="#000" stroke-miterlimit="10" stroke-width=".5244"/><line y2="29.3" clip-path="url(#c)" x2="56" y1="28.2" x1="69.1"/><line stroke-width=".5244" y2="29.3" clip-path="url(#c)" x2="56" stroke="#000" stroke-miterlimit="10" y1="28.2" x1="69.1"/><line y2="39.7" clip-path="url(#c)" x2="40" y1="30.3" x1="70.7"/><line stroke-width=".5244" y2="39.7" clip-path="url(#c)" x2="40" stroke="#000" stroke-miterlimit="10" y1="30.3" x1="70.7"/><line y2="61.2" clip-path="url(#c)" x2="27.2" y1="32" x1="71.8"/><line stroke-width=".5244" y2="61.2" clip-path="url(#c)" x2="27.2" stroke="#000" stroke-miterlimit="10" y1="32" x1="71.8"/><line y2="77" clip-path="url(#c)" x2="23.8" y1="34.1" x1="72.8"/><line stroke-width=".5244" y2="77" clip-path="url(#c)" x2="23.8" stroke="#000" stroke-miterlimit="10" y1="34.1" x1="72.8"/><line y2="89.7" clip-path="url(#c)" x2="25.4" y1="37.8" x1="72.8"/><line stroke-width=".5244" y2="89.7" clip-path="url(#c)" x2="25.4" stroke="#000" stroke-miterlimit="10" y1="37.8" x1="72.8"/><line y2="102" clip-path="url(#c)" x2="28.5" y1="40.9" x1="73.3"/><line stroke-width=".5244" y2="102" clip-path="url(#c)" x2="28.5" stroke="#000" stroke-miterlimit="10" y1="40.9" x1="73.3"/><line y2="37.8" clip-path="url(#c)" x2="89.8" y1="93.1" x1="133.2"/><line stroke-width=".5244" y2="37.8" clip-path="url(#c)" x2="89.8" stroke="#000" stroke-miterlimit="10" y1="93.1" x1="133.2"/><polyline points="89.8 37.8 89.8 37.8 135.1 79.7" clip-path="url(#c)"/><polyline clip-path="url(#c)" stroke="#000" points="89.8 37.8 89.8 37.8 135.1 79.7" stroke-miterlimit="10" stroke-width=".5244"/><line y2="113.2" clip-path="url(#c)" x2="123.5" y1="42" x1="88.7"/><line stroke-width=".5244" y2="113.2" clip-path="url(#c)" x2="123.5" stroke="#000" stroke-miterlimit="10" y1="42" x1="88.7"/><line y2="103.2" clip-path="url(#c)" x2="129" y1="41.4" x1="90.3"/><line stroke-width=".5244" y2="103.2" clip-path="url(#c)" x2="129" stroke="#000" stroke-miterlimit="10" y1="41.4" x1="90.3"/><line y2="63.8" clip-path="url(#c)" x2="133" y1="34.1" x1="89.2"/><line stroke-width=".5244" y2="63.8" clip-path="url(#c)" x2="133" stroke="#000" stroke-miterlimit="10" y1="34.1" x1="89.2"/><line y2="48.9" clip-path="url(#c)" x2="126.1" y1="32.5" x1="89.2"/><line stroke-width=".5244" y2="48.9" clip-path="url(#c)" x2="126.1" stroke="#000" stroke-miterlimit="10" y1="32.5" x1="89.2"/><line y2="33.4" clip-path="url(#c)" x2="109.2" y1="31.4" x1="90.8"/><g stroke="#000" stroke-miterlimit="10"><line stroke-width=".5244" y2="33.4" clip-path="url(#c)" x2="109.2" y1="31.4" x1="90.8"/><line stroke-width=".37460" y2="133.7" clip-path="url(#c)" x2="69.7" y1="47.1" x1="78.8"/><line stroke-width=".37460" y2="48.6" clip-path="url(#c)" x2="79.7" y1="135.1" x1="79.2"/></g><line y2="39" clip-path="url(#c)" x2="79.6" y1="132.2" x1="59.1"/><line stroke-width=".5244" y2="39" clip-path="url(#c)" x2="79.6" stroke="#000" stroke-miterlimit="10" y1="132.2" x1="59.1"/><line y2="133.4" clip-path="url(#c)" x2="90.4" y1="39.1" x1="81.1"/><line stroke-width=".5244" y2="133.4" clip-path="url(#c)" x2="90.4" stroke="#000" stroke-miterlimit="10" y1="39.1" x1="81.1"/><line y2="113.2" clip-path="url(#c)" x2="35.4" y1="39.9" x1="77.1"/><line stroke-width=".5244" y2="113.2" clip-path="url(#c)" x2="35.4" stroke="#000" stroke-miterlimit="10" y1="39.9" x1="77.1"/><line y2="130.3" clip-path="url(#c)" x2="103.2" y1="40.4" x1="83.9"/><line stroke-width=".5244" y2="130.3" clip-path="url(#c)" x2="103.2" stroke="#000" stroke-miterlimit="10" y1="40.4" x1="83.9"/><line y2="121.9" clip-path="url(#c)" x2="114.8" y1="42" x1="86"/><line stroke-width=".5244" y2="121.9" clip-path="url(#c)" x2="114.8" stroke="#000" stroke-miterlimit="10" y1="42" x1="86"/><line stroke-width=".37460" y2="123.2" clip-path="url(#c)" x2="45.4" stroke="#000" stroke-miterlimit="10" y1="45.4" x1="77.1"/></g></g><g clip-path="url(#b)" stroke="#000" fill="#00468b"><clipPath id="f"><use xlink:href="#bx" height="100%" width="100%" y="0" x="0" overflow="visible"/></clipPath><g stroke="#000" fill="#00468b"><path d="m15.8 42.2c0.5-1 1.4-2.5 1.6-2.5 0.4-0.1 3.1-5.7 5.3-7.3 2.1-1.6 2.2-2.5 2.4-2.8 0.3-0.4 5.2-5.8 7.2-6.8 1.9-0.9 1.3-0.7 2.2-1.8 0.9-1.2 9.2-6.4 11.2-7.1 1.9-0.8 3.1-1.6 3.1-1.6s10.6-4.6 13.4-4.6c2.9 0 3.4-0.8 3.8-0.8s11.8-1.6 13-1.1c0 0 4.6-0.3 7 0.4s1.4 0.2 2.5 0.2c1 0 3.8 0.4 4.3 0.8s1.4 0.2 1.4 0.2 2.5 0.1 2.6 0.7c0.1 0.5 0.7 0.3 1.2 0.3s4.2 0.4 6.1 1.9c3.8 3.1 5.9 2.4 6.6 2.8s0.7-0.1 1.6 0.8 2.4 1.3 2.4 1.3 5 3 4.5 2.8c0.1 0.1 1 0.3 1.8 1 0.2 0.2 4.1 1.7 6.4 5.3 0 0 1.1 0.6 1.2 1.2 0.1 0.5 1 0.6 1 0.6s5.1 2.2 6.3 7.1c0.1 0.5 1.3 1.3 1.3 1.3s2.5 3 3.1 4.9c0.4 1 1 2.1 1.6 2.8h-21.1s0-0.1-0.1-0.1c-2.3-2.6-3.9-4.5-3.9-4.5s-1.6-1.6-2.4-2.1-2.9-0.8-2.9-1.6-3.2-4-6.6-4.7c-3.4-0.8-5.2-2.3-5.2-2.3s-3.5-2.5-5.4-1.9c-1.8 0.5-3.8-0.2-4.4-1-0.5-0.7-13.2-2.6-15.4-0.7-2.1 1.8-6 0.5-6 0.5s-5.5 0.2-6.1 1.8c-0.5 1.6-2.9 1.3-3.2 1.3-0.2 0-7.6 1.3-12.1 6.1-4.4 4.7-5.2 4-5.9 4.7-0.7 0.8-3.7 2.8-4.6 4.5-0.1 0-0.1 0.1-0.1 0.1h-20.7z" clip-path="url(#f)"/><path d="m36.9 42.2c-0.7 1.4-2.6 3.4-2.6 3.4s-6.1 7.3-6.1 11.6c0 4.2-1.8 2.3-2.6 5.8-0.7 3.4-1.6 5.8-1.6 5.8s-1.1 6.4-0.9 10h-17c0.1-0.4 0.1-0.7 0.1-0.7 0-0.5 0.1-2.5 0.1-2.5s0-6.1 0.6-7c0.7-0.8 0.5-4.1 0.5-4.1s1.5-7.3 2.2-8.2c0.8-1 0.8-2.2 0.8-2.2s2.9-8.1 4-9c1-0.9 0.9-1.9 0.9-1.9s0.1-0.3 0.4-0.8h21.2z" clip-path="url(#f)"/><path d="m142.2 42.2c0.4 0.6 0.8 1 0.8 1s2.2 5.2 3.5 6.9 1.2 3.1 1.2 3.1 2.8 4.3 2.5 8.3c-0.1 1.4 0.7 2.5 0.7 2.5s0.4 4.3 0.8 6.2c0.7 3.4 0.1 1.9 0.1 1.9s-0.1 3.3 0.2 6.7h-16.9c0-0.1 0.1-4.5-0.3-6.3-0.6-1.9-0.6-3.4-0.6-3.4s-0.7-5-1.6-6.6c-0.7-1.6-1.3-3.7-1.3-3.7s-1.9-5.5-3.1-6.9c-1.3-1.3-2.2-3.7-2.2-3.7s-2.5-3.4-4.9-6h21.1z" clip-path="url(#f)"/><path d="m23.1 78.7c0.1 0.3 0.1 0.6 0.1 0.8 0.5 3.1 0.2 4.7 0.2 4.7s0.6 2.1 1.3 4.8l-17.7 1.9c-0.3-1.8-0.6-3.7-0.6-4.6 0-1.9 0.1-3.4-0.2-3.9-0.2-0.3-0.1-2.5-0.1-3.7h17z" clip-path="url(#f)"/><path d="m141.4 115.3c-0.5 1.2-0.9 2.1-0.9 2.1s-1 1.2-2.6 4.6c-0.6 1.3-1.9 2.2-2.4 3.3-0.5 1-4.5 2.6-4.5 4 0 0.3-2.3 1.7-2.3 1.7s-4.3 3.8-7.1 7.3c-0.8 1-1.3 0.7-1.9 1.3-0.5 0.5-5.7 3.7-7.3 4.3-1.6 0.5-3.1 1.4-3.1 1.4s-1.6 0.8-5.2 2.1l-2.2 0.8c-2.2 0.5-2.8 0.9-2.8 0.9s-7.8 2.2-9.5 2.1-1.7 0-2.1 0.3c-0.4 0.2-8.3 0.5-9.7 0.2-1.5-0.2-2-0.1-2-0.1s-6.7-0.2-7.8-0.8c-1-0.7-3.4-0.5-3.4-0.5s-7.4-1.4-8.1-2.2l-2.2-0.7c-2.2-0.6-3.7-1.3-6.1-2.6-0.1 0-3.6-1.8-3.7-1.9-2.7-1.1-5.2-3.1-5.2-3.1s-7.3-5-8.8-6.8c-1.6-1.7-1.8-1.5-2.2-1.7-0.5-0.3-1.6-1.6-1.6-1.6s-1.6-1.6-2.2-2.5-4.6-5.2-6.3-8.2c-1-1.8-1.8-3.1-2.2-3.7h20.4c3.4 4 4.4 4.3 4.4 4.3s6.3 6.1 8.4 6.8c2.2 0.8 4.9 2.6 5 2.7l3.2 2.1c0.4 0.7 1.6 1.6 5.2 1.9 3.7 0.3 14.4 1.3 16.7 1.9s5.5 0.6 6.3 0c0.9-0.6 4.1-1.8 5.2-1.4 1.1 0.5 4.3-0.1 4.3-0.1l4-1.3c2.3-1.6 6.3-1.9 6.3-1.9s1-0.4 1.6-1.3c0.5-0.9 3.1-2.8 3.6-2.5s3.7-3 4-3.9c0.2-1.5 4.6-3.4 5.6-4.9 0.6-0.9 1.1-1.6 1.7-2.4h19.5z" clip-path="url(#f)"/><path d="m15.9 115.3l-0.3-0.6s-0.7-1.2-1.6-2.9c-0.4-0.9-1.1-2.1-1.7-3.9-1.3-3.5-1.7-3.8-1.7-3.8s-1.7-5-1.9-5.9c-0.1-0.9-0.4-3-0.7-3.3-0.2-0.1-0.6-1.9-1-4l17.9-1.8c0.7 2.8 1.5 6.1 1.9 8.4 0.8 4.8 1.9 4.5 1.9 4.5s0.1 2.2 1.4 4.8c0.8 1.9 2.3 3.7 4.3 6.3 0.7 0.8 1.3 1.6 1.9 2.2h-20.4z" clip-path="url(#f)"/><path d="m121.7 115.3c0.7-1 1.5-2 2.2-2.9 1.3-1.6 2.8-2.9 3.1-3.8 0.5-1.2 2.2-5.9 2.5-7 0.2-1 2.5-4.9 2.5-4.9s2.1-5 1.9-6.4c-0.3-1.3 0.5-2.9 0.5-2.9l0.5-5.5 0.1-3.2h16.9c0 0.4 0.1 1 0.1 1.5 0.1 1.3 0 2.2 0 2.2s-0.3 6.3-0.8 8-0.4 1.9-0.4 1.9-1.1 4-2.2 8.6c-0.4 1.6-1.7 1.7-1.7 2.5s-1.9 3.5-3.4 6.4c-0.4 0.8-1.4 3.4-2.2 5.3h-19.6z" clip-path="url(#f)"/><path d="m24.8 89.1c0.7 2.8 1.5 6.1 1.9 8.4 0.8 4.8 1.9 4.5 1.9 4.5s0.1 2.2 1.4 4.8c0.8 1.9 2.3 3.7 4.3 6.3 5 6.1 6.4 6.6 6.4 6.6s6.3 6.1 8.4 6.8c2.2 0.8 4.9 2.6 5 2.7l3.2 2.1c0.4 0.7 1.6 1.6 5.2 1.9 3.7 0.3 14.4 1.3 16.7 1.9s5.5 0.6 6.3 0c0.9-0.6 4.1-1.8 5.2-1.4 1.1 0.5 4.3-0.1 4.3-0.1l4-1.3c2.3-1.6 6.3-1.9 6.3-1.9s1-0.4 1.6-1.3c0.5-0.9 3.1-2.8 3.6-2.5s3.7-3 4-3.9c0.2-1.5 4.6-3.4 5.6-4.9 1.3-2 2.7-3.7 4-5.3s2.8-2.9 3.1-3.8c0.4-1.2 2.2-5.9 2.5-7 0.2-1 2.5-4.9 2.5-4.9s2.1-5 1.9-6.4c-0.3-1.3 0.5-2.9 0.5-2.9l0.5-5.5 0.1-3.2s0.2-4.5-0.3-6.3c-0.6-1.9-0.6-3.4-0.6-3.4s-0.7-5-1.6-6.6c-0.7-1.6-1.3-3.7-1.3-3.7s-1.9-5.5-3.1-6.9c-1.3-1.3-2.2-3.7-2.2-3.7s-2.6-3.4-5-6.1c-2.3-2.6-3.9-4.5-3.9-4.5s-1.6-1.6-2.4-2.1-2.9-0.8-2.9-1.6-3.2-4-6.6-4.7c-3.4-0.8-5.2-2.3-5.2-2.3s-3.5-2.5-5.4-1.9c-1.8 0.5-3.8-0.2-4.4-1-0.5-0.7-13.2-2.6-15.4-0.7-2.1 1.8-6 0.5-6 0.5s-5.5 0.2-6.1 1.8c-0.5 1.6-2.9 1.3-3.2 1.3-0.2 0-7.6 1.3-12.1 6.1-4.4 4.7-5.2 4-5.9 4.7-0.7 0.8-3.7 2.8-4.6 4.5-0.7 1.4-2.7 3.4-2.7 3.4s-6.1 7.3-6.1 11.6c0 4.2-1.8 2.3-2.6 5.8-0.7 3.4-1.6 5.8-1.6 5.8s-1.3 7.6-0.7 10.8c0.5 3.1 0.2 4.7 0.2 4.7s0.6 2.1 1.3 4.8l-17.8 1.8c-0.3-1.8-0.6-3.7-0.6-4.6 0-1.9 0.1-3.4-0.2-3.9-0.2-0.4 0-3.9 0-4.4s0.1-2.5 0.1-2.5 0-6.1 0.6-7c0.7-0.8 0.5-4.1 0.5-4.1s1.5-7.3 2.2-8.2c0.8-1 0.8-2.2 0.8-2.2s2.9-8.1 4-9c1-0.9 0.9-1.9 0.9-1.9s1.7-3.3 2.1-3.4 3.1-5.7 5.3-7.3c2.1-1.6 2.2-2.5 2.4-2.8 0.3-0.4 5.2-5.8 7.2-6.8 1.9-0.9 1.3-0.7 2.2-1.8 0.9-1.2 9.2-6.4 11.2-7.1 1.9-0.8 3.1-1.6 3.1-1.6s10.6-4.6 13.4-4.6c2.9 0 3.4-0.8 3.8-0.8s11.8-1.6 13-1.1c0 0 4.6-0.3 7 0.4s1.4 0.2 2.5 0.2c1 0 3.8 0.4 4.3 0.8s1.4 0.2 1.4 0.2 2.5 0.1 2.6 0.7c0.1 0.5 0.7 0.3 1.2 0.3s4.2 0.4 6.1 1.9c3.8 3.1 5.9 2.4 6.6 2.8s0.7-0.1 1.6 0.8 2.4 1.3 2.4 1.3 5 3 4.5 2.8c0.1 0.1 1 0.3 1.8 1 0.2 0.2 4.1 1.7 6.4 5.3 0 0 1.1 0.6 1.2 1.2 0.1 0.5 1 0.6 1 0.6s5.1 2.2 6.3 7.1c0.1 0.5 1.3 1.3 1.3 1.3s2.5 3 3.1 4.9c0.7 1.9 2.4 3.9 2.4 3.9s2.2 5.2 3.5 6.9 1.2 3.1 1.2 3.1 2.8 4.3 2.5 8.3c-0.1 1.4 0.7 2.5 0.7 2.5s0.4 4.3 0.8 6.2c0.7 3.4 0.1 1.9 0.1 1.9s-0.1 4.3 0.4 8.2c0.1 1.3 0 2.2 0 2.2s-0.3 6.3-0.8 8-0.4 1.9-0.4 1.9-1.1 4-2.2 8.6c-0.4 1.6-1.7 1.7-1.7 2.5s-1.9 3.5-3.4 6.4c-0.6 1.3-3.1 7.4-3.1 7.4s-1 1.2-2.6 4.6c-0.6 1.3-1.9 2.2-2.4 3.3-0.5 1-4.5 2.6-4.5 4 0 0.3-2.3 1.7-2.3 1.7s-4.3 3.8-7.1 7.3c-0.8 1-1.3 0.7-1.9 1.3-0.5 0.5-5.7 3.7-7.3 4.3-1.6 0.5-3.1 1.4-3.1 1.4s-1.6 0.8-5.2 2.1l-2.2 0.8c-2.2 0.5-2.8 0.9-2.8 0.9s-7.8 2.2-9.5 2.1-1.7 0-2.1 0.3c-0.4 0.2-8.3 0.5-9.7 0.2-1.5-0.2-2-0.1-2-0.1s-6.7-0.2-7.8-0.8c-1-0.7-3.4-0.5-3.4-0.5s-7.4-1.4-8.1-2.2l-2.2-0.7c-2.2-0.6-3.7-1.3-6.1-2.6-0.1 0-3.6-1.8-3.7-1.9-2.7-1.1-5.2-3.1-5.2-3.1s-7.3-5-8.8-6.8c-1.6-1.7-1.8-1.5-2.2-1.7-0.4-0.3-1.6-1.6-1.6-1.6s-1.6-1.6-2.2-2.5-4.6-5.2-6.3-8.2c-1.6-2.9-2.5-4.3-2.5-4.3s-0.7-1.2-1.6-2.9c-0.4-0.9-1.1-2.1-1.7-3.9-1.3-3.5-1.7-3.8-1.7-3.8s-1.7-5-1.9-5.9c-0.1-0.9-0.4-3-0.7-3.3-0.2-0.1-0.6-1.9-1-4l17.9-1.8z" clip-path="url(#f)" stroke-linecap="round" stroke-miterlimit="10" stroke-width=".74920"/><path d="m101.7 148.3c-2.2 0.5-2.8 0.9-2.8 0.9s-7.8 2.2-9.5 2.1-1.7 0-2.1 0.3c-0.4 0.2-8.3 0.5-9.7 0.2-1.5-0.2-2-0.1-2-0.1s-6.7-0.2-7.8-0.8c-1-0.7-3.4-0.5-3.4-0.5s-7.4-1.4-8.1-2.2l-2.2-0.7c-2.2-0.6-3.7-1.3-6.1-2.6-0.1 0-3.6-1.8-3.7-1.9-2.7-1.1-5.2-3.1-5.2-3.1s-7.3-5-8.8-6.8c-1.6-1.7-1.8-1.5-2.2-1.7-0.4-0.3-1.6-1.6-1.6-1.6s-1.6-1.6-2.2-2.5-4.6-5.2-6.3-8.2c-1.6-2.9-2.5-4.3-2.5-4.3s-2.1-3.2-3.4-6.8c-1.3-3.5-1.7-3.8-1.7-3.8s-1.7-5-1.9-5.9c-0.1-0.9-0.4-3-0.7-3.3-0.4-0.2-1.5-6.7-1.5-8.5 0-1.9 0.1-3.4-0.2-3.9-0.2-0.4 0-3.9 0-4.4s0.1-2.5 0.1-2.5 0-6.1 0.6-7c0.7-0.8 0.5-4.1 0.5-4.1s1.5-7.3 2.2-8.2c0.8-1 0.8-2.2 0.8-2.2s2.9-8.1 4-9c1-0.9 0.9-1.9 0.9-1.9s1.7-3.3 2.1-3.4 3.1-5.7 5.3-7.3c2.1-1.6 2.2-2.5 2.4-2.8 0.3-0.4 5.2-5.8 7.2-6.8 1.9-0.9 1.3-0.7 2.2-1.8 0.9-1.2 9.2-6.4 11.2-7.1 1.9-0.8 3.1-1.6 3.1-1.6s10.6-4.6 13.4-4.6c2.9 0 3.4-0.8 3.8-0.8s11.8-1.6 13-1.1c0 0 4.6-0.3 7 0.4s1.4 0.2 2.5 0.2c1 0 3.8 0.4 4.3 0.8s1.4 0.2 1.4 0.2 2.5 0.1 2.6 0.7c0.1 0.5 0.7 0.3 1.2 0.3s4.2 0.4 6.1 1.9c3.8 3.1 5.9 2.4 6.6 2.8s0.7-0.1 1.6 0.8 2.4 1.3 2.4 1.3 4.4 2.6 3.9 2.4c0.1 0.1 1.6 0.7 2.4 1.4 0.2 0.2 4.1 1.7 6.4 5.3 0 0 1.1 0.6 1.2 1.2 0.1 0.5 1 0.6 1 0.6s5.1 2.2 6.3 7.1c0.1 0.5 1.3 1.3 1.3 1.3s2.5 3 3.1 4.9c0.7 1.9 2.4 3.9 2.4 3.9s2.2 5.2 3.5 6.9 1.2 3.1 1.2 3.1 2.8 4.3 2.5 8.3c-0.1 1.4 0.7 2.5 0.7 2.5s0.4 4.3 0.8 6.2c0.7 3.4 0.1 1.9 0.1 1.9s-0.1 4.3 0.4 8.2c0.1 1.3 0 2.2 0 2.2s-0.3 6.3-0.8 8-0.4 1.9-0.4 1.9-1.1 4-2.2 8.6c-0.4 1.6-1.7 1.7-1.7 2.5s-1.9 3.5-3.4 6.4c-0.6 1.3-3.1 7.4-3.1 7.4s-1 1.2-2.6 4.6c-0.6 1.3-1.9 2.2-2.4 3.3-0.5 1-4.5 2.6-4.5 4 0 0.3-2.3 1.7-2.3 1.7s-4.3 3.8-7.1 7.3c-0.8 1-1.3 0.7-1.9 1.3-0.5 0.5-5.7 3.7-7.3 4.3-1.6 0.5-3.1 1.4-3.1 1.4s-1.6 0.8-5.2 2.1l-2.1 0.7zm-2.7-16.1c2.3-1.6 6.3-1.9 6.3-1.9s1-0.4 1.6-1.3c0.5-0.9 3.1-2.8 3.6-2.5s3.7-3 4-3.9c0.2-1.5 4.6-3.4 5.6-4.9 1.3-2 2.7-3.7 4-5.3s2.8-2.9 3.1-3.8c0.4-1.2 2.2-5.9 2.5-7 0.2-1 2.5-4.9 2.5-4.9s2.1-5 1.9-6.4c-0.3-1.3 0.5-2.9 0.5-2.9l0.5-5.5 0.1-3.2s0.2-4.5-0.3-6.3c-0.6-1.9-0.6-3.4-0.6-3.4s-0.7-5-1.6-6.6c-0.7-1.6-1.3-3.7-1.3-3.7s-1.9-5.5-3.1-6.9c-1.3-1.3-2.2-3.7-2.2-3.7s-2.6-3.4-5-6.1c-2.3-2.6-3.9-4.5-3.9-4.5s-1.6-1.6-2.4-2.1-2.9-0.8-2.9-1.6-3.2-4-6.6-4.7c-3.4-0.8-5.2-2.3-5.2-2.3s-3.5-2.5-5.4-1.9c-1.8 0.5-3.8-0.2-4.4-1-0.5-0.7-13.2-2.6-15.4-0.7-2.1 1.8-6 0.5-6 0.5s-5.5 0.2-6.1 1.8c-0.5 1.6-2.9 1.3-3.2 1.3-0.2 0-7.6 1.3-12.1 6.1-4.4 4.7-5.2 4-5.9 4.7-0.7 0.8-3.7 2.8-4.6 4.5-0.7 1.4-2.7 3.4-2.7 3.4s-6.1 7.3-6.1 11.6c0 4.2-1.8 2.3-2.6 5.8-0.7 3.4-1.6 5.8-1.6 5.8s-1.3 7.6-0.7 10.8c0.5 3.1 0.2 4.7 0.2 4.7s2.4 8.5 3.1 13.2c0.8 4.8 1.9 4.5 1.9 4.5s0.8 5 5.8 11.1 6.4 6.6 6.4 6.6 6.3 6.1 8.4 6.8c2.2 0.8 4.9 2.6 5 2.7l3.2 2.1c0.4 0.7 1.6 1.6 5.2 1.9 3.7 0.3 14.4 1.3 16.7 1.9s5.5 0.6 6.3 0c0.9-0.6 4.1-1.8 5.2-1.4 1.1 0.5 4.3-0.1 4.3-0.1l4-1.3z" clip-path="url(#f)"/><path d="m101.7 148.3c-2.2 0.5-2.8 0.9-2.8 0.9s-7.8 2.2-9.5 2.1-1.7 0-2.1 0.3c-0.4 0.2-8.3 0.5-9.7 0.2-1.5-0.2-2-0.1-2-0.1s-6.7-0.2-7.8-0.8c-1-0.7-3.4-0.5-3.4-0.5s-7.4-1.4-8.1-2.2l-2.2-0.7c-2.2-0.6-3.7-1.3-6.1-2.6-0.1 0-3.6-1.8-3.7-1.9-2.7-1.1-5.2-3.1-5.2-3.1s-7.3-5-8.8-6.8c-1.6-1.7-1.8-1.5-2.2-1.7-0.4-0.3-1.6-1.6-1.6-1.6s-1.6-1.6-2.2-2.5-4.6-5.2-6.3-8.2c-1.6-2.9-2.5-4.3-2.5-4.3s-2.1-3.2-3.4-6.8c-1.3-3.5-1.7-3.8-1.7-3.8s-1.7-5-1.9-5.9c-0.1-0.9-0.4-3-0.7-3.3-0.4-0.2-1.5-6.7-1.5-8.5 0-1.9 0.1-3.4-0.2-3.9-0.2-0.4 0-3.9 0-4.4s0.1-2.5 0.1-2.5 0-6.1 0.6-7c0.7-0.8 0.5-4.1 0.5-4.1s1.5-7.3 2.2-8.2c0.8-1 0.8-2.2 0.8-2.2s2.9-8.1 4-9c1-0.9 0.9-1.9 0.9-1.9s1.7-3.3 2.1-3.4 3.1-5.7 5.3-7.3c2.1-1.6 2.2-2.5 2.4-2.8 0.3-0.4 5.2-5.8 7.2-6.8 1.9-0.9 1.3-0.7 2.2-1.8 0.9-1.2 9.2-6.4 11.2-7.1 1.9-0.8 3.1-1.6 3.1-1.6s10.6-4.6 13.4-4.6c2.9 0 3.4-0.8 3.8-0.8s11.8-1.6 13-1.1c0 0 4.6-0.3 7 0.4s1.4 0.2 2.5 0.2c1 0 3.8 0.4 4.3 0.8s1.4 0.2 1.4 0.2 2.5 0.1 2.6 0.7c0.1 0.5 0.7 0.3 1.2 0.3s4.2 0.4 6.1 1.9c3.8 3.1 5.9 2.4 6.6 2.8s0.7-0.1 1.6 0.8 2.4 1.3 2.4 1.3 4.4 2.6 3.9 2.4c0.1 0.1 1.6 0.7 2.4 1.4 0.2 0.2 4.1 1.7 6.4 5.3 0 0 1.1 0.6 1.2 1.2 0.1 0.5 1 0.6 1 0.6s5.1 2.2 6.3 7.1c0.1 0.5 1.3 1.3 1.3 1.3s2.5 3 3.1 4.9c0.7 1.9 2.4 3.9 2.4 3.9s2.2 5.2 3.5 6.9 1.2 3.1 1.2 3.1 2.8 4.3 2.5 8.3c-0.1 1.4 0.7 2.5 0.7 2.5s0.4 4.3 0.8 6.2c0.7 3.4 0.1 1.9 0.1 1.9s-0.1 4.3 0.4 8.2c0.1 1.3 0 2.2 0 2.2s-0.3 6.3-0.8 8-0.4 1.9-0.4 1.9-1.1 4-2.2 8.6c-0.4 1.6-1.7 1.7-1.7 2.5s-1.9 3.5-3.4 6.4c-0.6 1.3-3.1 7.4-3.1 7.4s-1 1.2-2.6 4.6c-0.6 1.3-1.9 2.2-2.4 3.3-0.5 1-4.5 2.6-4.5 4 0 0.3-2.3 1.7-2.3 1.7s-4.3 3.8-7.1 7.3c-0.8 1-1.3 0.7-1.9 1.3-0.5 0.5-5.7 3.7-7.3 4.3-1.6 0.5-3.1 1.4-3.1 1.4s-1.6 0.8-5.2 2.1l-2.1 0.7zm-2.7-16.1c2.3-1.6 6.3-1.9 6.3-1.9s1-0.4 1.6-1.3c0.5-0.9 3.1-2.8 3.6-2.5s3.7-3 4-3.9c0.2-1.5 4.6-3.4 5.6-4.9 1.3-2 2.7-3.7 4-5.3s2.8-2.9 3.1-3.8c0.4-1.2 2.2-5.9 2.5-7 0.2-1 2.5-4.9 2.5-4.9s2.1-5 1.9-6.4c-0.3-1.3 0.5-2.9 0.5-2.9l0.5-5.5 0.1-3.2s0.2-4.5-0.3-6.3c-0.6-1.9-0.6-3.4-0.6-3.4s-0.7-5-1.6-6.6c-0.7-1.6-1.3-3.7-1.3-3.7s-1.9-5.5-3.1-6.9c-1.3-1.3-2.2-3.7-2.2-3.7s-2.6-3.4-5-6.1c-2.3-2.6-3.9-4.5-3.9-4.5s-1.6-1.6-2.4-2.1-2.9-0.8-2.9-1.6-3.2-4-6.6-4.7c-3.4-0.8-5.2-2.3-5.2-2.3s-3.5-2.5-5.4-1.9c-1.8 0.5-3.8-0.2-4.4-1-0.5-0.7-13.2-2.6-15.4-0.7-2.1 1.8-6 0.5-6 0.5s-5.5 0.2-6.1 1.8c-0.5 1.6-2.9 1.3-3.2 1.3-0.2 0-7.6 1.3-12.1 6.1-4.4 4.7-5.2 4-5.9 4.7-0.7 0.8-3.7 2.8-4.6 4.5-0.7 1.4-2.7 3.4-2.7 3.4s-6.1 7.3-6.1 11.6c0 4.2-1.8 2.3-2.6 5.8-0.7 3.4-1.6 5.8-1.6 5.8s-1.3 7.6-0.7 10.8c0.5 3.1 0.2 4.7 0.2 4.7s2.4 8.5 3.1 13.2c0.8 4.8 1.9 4.5 1.9 4.5s0.8 5 5.8 11.1 6.4 6.6 6.4 6.6 6.3 6.1 8.4 6.8c2.2 0.8 4.9 2.6 5 2.7l3.2 2.1c0.4 0.7 1.6 1.6 5.2 1.9 3.7 0.3 14.4 1.3 16.7 1.9s5.5 0.6 6.3 0c0.9-0.6 4.1-1.8 5.2-1.4 1.1 0.5 4.3-0.1 4.3-0.1l4-1.3z" clip-path="url(#f)" stroke-linecap="round" stroke-miterlimit="10" stroke-width="1.4983"/></g></g><g style="" clip-path="url(#b)"><clipPath id="v"><use xlink:href="#bw" height="100%" width="100%" y="0" x="0" overflow="visible"/></clipPath><path fill="#fff" d="m42.4 42.1-1.6 69.4 33.2 1.3s0.5-3.7 4.5-3.7 4.7 3.1 4.5 4c-0.3 0.7 30.3 1.6 30.3 1.6l2.8-70.4s-3.1 1-4.2 0c-1-1-3.7-0.7-3.7-0.7s-2.6 1-4 1.3c-1.3 0.3-6.1 0.8-7.6-0.5-1.6-1.3-6.6-1-8.2-1s-5.8 1.3-6.1 2.1-2.9 1.9-2.6 2.9c0.2 1-1.6-2.6-2.7-3.4-1-0.7-3.1-2.6-4.2-2.3-1 0.2-7.9-0.5-9.5 0s-5.2 0.7-6.6 0.5c-1.3-0.3-7.6 0.5-8.7-0.3-1-0.7-2.3-0.5-3.4-0.7-0.9-0.6-2.2-0.1-2.2-0.1" clip-path="url(#v)"/><path d="m42.4 42.1-1.6 69.4 33.2 1.3s0.5-3.7 4.5-3.7 4.7 3.1 4.5 4c-0.3 0.7 30.3 1.6 30.3 1.6l2.8-70.4s-3.1 1-4.2 0c-1-1-3.7-0.7-3.7-0.7s-2.6 1-4 1.3c-1.3 0.3-6.1 0.8-7.6-0.5-1.6-1.3-6.6-1-8.2-1s-5.8 1.3-6.1 2.1-2.9 1.9-2.6 2.9c0.2 1-1.6-2.6-2.7-3.4-1-0.7-3.1-2.6-4.2-2.3-1 0.2-7.9-0.5-9.5 0s-5.2 0.7-6.6 0.5c-1.3-0.3-7.6 0.5-8.7-0.3-1-0.7-2.3-0.5-3.4-0.7-0.9-0.6-2.2-0.1-2.2-0.1z" clip-path="url(#v)" stroke="#000" stroke-miterlimit="10" stroke-width=".67430" fill="none"/></g><g stroke="#000" stroke-miterlimit="10" fill="none"><line stroke-width=".37460" y2="109.1" clip-path="url(#b)" x2="78.5" y1="48.2" x1="79.9"/><rect clip-path="url(#b)" height="7.9" width="6.3" y="47.7" x="54.5" stroke-width=".37460"/><polyline clip-path="url(#b)" points="44.7 41.9 43.7 109.4 70.6 110.4 74.3 111.7" stroke-width=".22480"/></g><g style="" clip-path="url(#b)"><clipPath id="a"><use xlink:href="#bv" height="100%" width="100%" y="0" x="0" overflow="visible"/></clipPath><g stroke="#000" stroke-miterlimit="10" fill="none"><g stroke-width=".22480"><path d="m46.1 42.1-0.8 66.2 26.4 1.3s2.4 0.8 2.7 2.1" clip-path="url(#a)"/><path d="m47.4 42.9-0.5 64.3 25.8 1.6s2.3 1 2.3 1.8" clip-path="url(#a)"/><path d="m49.2 42.9-0.5 63.2 25.1 1s3.4 0.8 2.8 1.9" clip-path="url(#a)"/></g><path d="m51.3 43.7-1 61.4 24.3 1s2.6 0.8 2.6 2.2" clip-path="url(#a)" stroke-width=".29970"/><g stroke-width=".22480"><line y2="45" clip-path="url(#a)" x2="60.1" y1="45.3" x1="56.1"/><line y2="44.5" clip-path="url(#a)" x2="64.8" y1="44.7" x1="62.7"/><line y2="44.5" clip-path="url(#a)" x2="69.8" y1="44.7" x1="66.9"/><path d="m71.9 45s1.9 0.5 2.9 1.3" clip-path="url(#a)"/><path d="m76.6 47.7s2.7 2.9 2.7 3.7" clip-path="url(#a)"/><line y2="47.7" clip-path="url(#a)" x2="63.2" y1="47.9" x1="61.7"/><line y2="47.7" clip-path="url(#a)" x2="66.7" y1="47.7" x1="64.5"/><line y2="48.2" clip-path="url(#a)" x2="70" y1="47.7" x1="67.7"/><path d="m71.1 47.9s2.4 0.6 2.7 1.3" clip-path="url(#a)"/><path d="m75.6 49.7s2.9 2.1 3.2 2.9" clip-path="url(#a)"/><line y2="50" clip-path="url(#a)" x2="66.7" y1="50" x1="64.3"/><line y2="50.8" clip-path="url(#a)" x2="70" y1="50.3" x1="68.2"/><line y2="52.1" clip-path="url(#a)" x2="74.5" y1="51.1" x1="72.4"/><line y2="55" clip-path="url(#a)" x2="79" y1="52.7" x1="76.4"/><path d="m112.5 44.2-1.6 66.5-21.8-0.2s-5.3 0.5-5.3 1.6" clip-path="url(#a)"/><path d="m111.3 44.2-1.3 65.2-21.7 0.2s-2.8 0.3-4 1.3" clip-path="url(#a)"/><path d="m110.2 43.7-1.3 64.7-21.2 0.5s-4 0.5-4.7 2.1" clip-path="url(#a)"/><path d="m109.2 43.7-1.6 63.5-21.5 1.1s-3.4 0.7-4 2.3" clip-path="url(#a)"/><line y2="52.9" clip-path="url(#a)" x2="65" y1="52.9" x1="63.8"/><line y2="53.2" clip-path="url(#a)" x2="69.3" y1="52.9" x1="66.7"/><line y2="54.2" clip-path="url(#a)" x2="74.5" y1="53.4" x1="70.9"/><path d="m75.6 54.8s2.9 0.8 3.7 3.4" clip-path="url(#a)"/><line y2="58.4" clip-path="url(#a)" x2="55.1" y1="58.4" x1="54"/><line y2="58.4" clip-path="url(#a)" x2="61.1" y1="58.4" x1="56.3"/><line y2="58.2" clip-path="url(#a)" x2="64" y1="58.7" x1="62.4"/><line y2="58.7" clip-path="url(#a)" x2="69" y1="58.4" x1="65.9"/><path d="m70.9 59s3.4-0.2 4.7 1.6" clip-path="url(#a)"/><path d="m76.6 60.5s2.4 1.3 2.4 2.4" clip-path="url(#a)"/><line y2="55.3" clip-path="url(#a)" x2="65.3" y1="55.6" x1="62.4"/><path d="m67.4 55.6c0.8 0 2.9 0.5 2.9 0.5" clip-path="url(#a)"/><line y2="56.9" clip-path="url(#a)" x2="74.5" y1="55.8" x1="72.2"/><path d="m75.6 57.4s3.7 1.9 3.7 2.9" clip-path="url(#a)"/><line y2="60.8" clip-path="url(#a)" x2="56.1" y1="60.8" x1="54.2"/><line y2="60.8" clip-path="url(#a)" x2="64.5" y1="60.8" x1="57.9"/><line y2="60.8" clip-path="url(#a)" x2="68" y1="60.8" x1="66.4"/><path d="m70 61.1s4.3 0.5 4.5 1.3" clip-path="url(#a)"/><path d="m75.9 62.9s2.6 0.5 3.1 2.4" clip-path="url(#a)"/><line y2="63.2" clip-path="url(#a)" x2="55.3" y1="63.2" x1="53.7"/><line y2="63.5" clip-path="url(#a)" x2="60.8" y1="63.2" x1="56.3"/><line y2="63.5" clip-path="url(#a)" x2="63.8" y1="63.5" x1="62.4"/><line y2="63.8" clip-path="url(#a)" x2="68.5" y1="63.8" x1="66.2"/><path d="m70 63.8s4 0.7 4.5 1.6" clip-path="url(#a)"/><path d="m75.9 65.9s2.3 0.7 2.6 1.6" clip-path="url(#a)"/><line y2="65.9" clip-path="url(#a)" x2="57.9" y1="65.9" x1="54"/><line y2="65.6" clip-path="url(#a)" x2="64.3" y1="65.6" x1="60.1"/><line y2="65.9" clip-path="url(#a)" x2="66.9" y1="65.6" x1="65.6"/><path d="m69.5 66.1s5.5 0.8 5.8 1.6" clip-path="url(#a)"/><path d="m76.9 68.2s2.4 1.6 2.1 2.4" clip-path="url(#a)"/><line y2="68.2" clip-path="url(#a)" x2="55.8" y1="68.2" x1="53.5"/><line y2="68" clip-path="url(#a)" x2="63.2" y1="68" x1="57.2"/><line y2="68.5" clip-path="url(#a)" x2="66.2" y1="68.2" x1="64.3"/><path d="m68.8 68.8s6.8 0.5 6.8 1.6" clip-path="url(#a)"/><path d="m76.4 70.6s2.1 0.8 2.6 2.6" clip-path="url(#a)"/><path d="m53.2 69.8s2.5 0.4 2.9 0.4" clip-path="url(#a)"/><path d="m57.4 70.2c-0.2 0.4 4.3 0.1 5.5 0.5" clip-path="url(#a)"/><line y2="70.7" clip-path="url(#a)" x2="65.5" y1="70.6" x1="64.3"/><path d="m67.4 71.3c3.1-0.5 10.6 2.1 11.9 4" clip-path="url(#a)"/><path d="m52.7 72.8c0-0.7 4.1 0 4.9 0.1" clip-path="url(#a)"/><line y2="73.2" clip-path="url(#a)" x2="61" y1="73.2" x1="58.9"/><path d="m62.9 73.1s1.9-0.3 2.5 0.4" clip-path="url(#a)"/><path d="m66.4 73.3c0.4 0.1 4.7-0.1 6.6 1.6" clip-path="url(#a)"/><path d="m74.9 74.8s2.7 0.6 4 2.5" clip-path="url(#a)"/><line y2="75.4" clip-path="url(#a)" x2="55.1" y1="75.4" x1="53.6"/><path d="m56.8 75.4s5.4-0.4 5.6 0.2" clip-path="url(#a)"/><line y2="76.1" clip-path="url(#a)" x2="67.8" y1="75.4" x1="64.4"/><path d="m69 75.7s4.9 0.9 5 1.6" clip-path="url(#a)"/><path d="m74.8 77.2s2.8 0.7 4 2.2" clip-path="url(#a)"/><line y2="77.8" clip-path="url(#a)" x2="54.1" y1="77.5" x1="52.5"/><path d="m55.3 78.1s5.7-0.3 6.7 0.4" clip-path="url(#a)"/><path d="m63.4 78.4s1.8-0.2 2.1 0.1" clip-path="url(#a)"/><path d="m67.1 78.1s4.7 0 6.6 1.3" clip-path="url(#a)"/><path d="m74.4 79.6s3.2 0.4 4.5 2.4" clip-path="url(#a)"/><path d="m53.2 80.2s3.9-0.3 2.9-0.3" clip-path="url(#a)"/><path d="m58.4 79.9c2.5 0.3 3.2 0.1 4.1 0.3" clip-path="url(#a)"/><line y2="79.8" clip-path="url(#a)" x2="65" y1="79.7" x1="63.8"/><path d="m66.9 80.3c3.1-0.5 10.6 2.2 11.9 4" clip-path="url(#a)"/><path d="m52.1 82c0-0.7 4.1 0 4.9 0.1" clip-path="url(#a)"/><line y2="82.3" clip-path="url(#a)" x2="60.5" y1="82.3" x1="58.4"/><path d="m62.3 82.2s1.9-0.2 2.5 0.4" clip-path="url(#a)"/><path d="m65.9 82.5c0.4 0.1 4.7-0.1 6.6 1.6" clip-path="url(#a)"/><path d="m74.4 83.9s2.7 0.7 4 2.5" clip-path="url(#a)"/><line y2="84.4" clip-path="url(#a)" x2="54.5" y1="84.4" x1="53"/><path d="m56.3 84.8s5.2-0.2 5.4 0.5" clip-path="url(#a)"/><line y2="85.3" clip-path="url(#a)" x2="67.3" y1="84.6" x1="63.9"/><path d="m68.5 84.8s4.9 1 5 1.6" clip-path="url(#a)"/><path d="m74.3 86.3s2.8 0.6 3.9 2.2" clip-path="url(#a)"/><line y2="87.4" clip-path="url(#a)" x2="54.2" y1="87.1" x1="52.7"/><path d="m55.7 87.2s4.7-0.3 5.8 0.4" clip-path="url(#a)"/><path d="m62.9 87.4s1.8-0.2 2.1 0.1" clip-path="url(#a)"/><path d="m66.5 87.2s4.7 0 6.6 1.3" clip-path="url(#a)"/><path d="m73.9 88.6s3.2 0.4 4.5 2.4" clip-path="url(#a)"/><path d="m52.3 89.1s2.5 0.4 2.8 0.4" clip-path="url(#a)"/><path d="m56.5 89.5c0.5-0.3 3.1 0.4 4.7 0.5" clip-path="url(#a)"/><line y2="90" clip-path="url(#a)" x2="64.5" y1="89.8" x1="63.4"/><path d="m66.5 90.5c3-0.5 10.6 2.1 11.8 4" clip-path="url(#a)"/><path d="m51.8 92.1c0-0.7 4 0 4.9 0.1" clip-path="url(#a)"/><line y2="92.5" clip-path="url(#a)" x2="60.1" y1="92.5" x1="57.9"/><path d="m61.9 92.4s2-0.3 2.5 0.4" clip-path="url(#a)"/><path d="m65.5 92.6c0.4 0.1 4.7-0.1 6.6 1.6" clip-path="url(#a)"/><path d="m74 94s2.6 0.7 4 2.5" clip-path="url(#a)"/><line y2="94.6" clip-path="url(#a)" x2="54.1" y1="94.6" x1="52.7"/><path d="m55.8 94.6s4-0.3 4.3 0.4" clip-path="url(#a)"/><line y2="95.2" clip-path="url(#a)" x2="65.6" y1="94.7" x1="63.5"/><path d="m68.1 95s4.9 0.9 5 1.6" clip-path="url(#a)"/><path d="m73.9 96.4s3.3 1 4.3 3.1" clip-path="url(#a)"/><path d="m57.4 97.3s2.7-0.2 3.7 0.5" clip-path="url(#a)"/><path d="m62.4 97.6s1.9-0.3 2.1 0.1" clip-path="url(#a)"/><path d="m66.2 98s4.6-0.7 6.5 0.7" clip-path="url(#a)"/><path d="m73.5 98.8s3.3 1.4 4.6 3.4" clip-path="url(#a)"/><line y2="101.3" clip-path="url(#a)" x2="65.3" y1="101.3" x1="63.6"/><path d="m67.1 101.1s4.6 0.2 5.7 1.6" clip-path="url(#a)"/><path d="m73.9 102.3s3.3 0 4.3 3.7" clip-path="url(#a)"/><path d="m66.4 103.5s4.2-0.7 6.2 1.3" clip-path="url(#a)"/><path d="m74.4 104.9s3.2 1.2 3.6 2.5" clip-path="url(#a)"/></g><path d="m108.3 43.5-1.9 63-18.7 1s-3.1-0.3-6.1 2.4" clip-path="url(#a)" stroke-width=".37460"/><g stroke-width=".22480"><path d="m83.2 46.6s2.2-0.9 5.2-0.8" clip-path="url(#a)"/><path d="m89.6 45.8s2.1-0.1 2.5 0.1" clip-path="url(#a)"/><path d="m93.4 46.3s2.9 0 3.4 0.8" clip-path="url(#a)"/><path d="m97.9 47.3s1.3 0.7 2.8 0" clip-path="url(#a)"/><path d="m101.7 47.4s1.7 0 2.5-0.6" clip-path="url(#a)"/><path d="m105.6 46.5s1.2 0.1 1.7-0.9" clip-path="url(#a)"/><path d="m80.1 48.9s-0.7-0.8 2.1-1.6" clip-path="url(#a)"/><line y2="50.6" clip-path="url(#a)" x2="81" y1="51.2" x1="79.9"/><path d="m82.7 49.7s3.1-1.6 4.9-1" clip-path="url(#a)"/><path d="m88.7 49s2.2-0.3 2.5 0.1" clip-path="url(#a)"/><path d="m92.6 49.6s2.5 0.1 3.1 0.4" clip-path="url(#a)"/><path d="m97.4 50.1s1.6 0.4 3-0.1" clip-path="url(#a)"/><path d="m101.3 49.9s0.7 0.1 2.4-0.3" clip-path="url(#a)"/><path d="m105 49.7s0.7 0.5 1.9-0.5" clip-path="url(#a)"/><path d="m79.9 53.9s1.4-1.9 3-1.9c2 0 3.4-0.4 4.5-0.1" clip-path="url(#a)"/><line y2="51.7" clip-path="url(#a)" x2="90.7" y1="51.7" x1="89.1"/><line y2="52.8" clip-path="url(#a)" x2="94.7" y1="52.1" x1="92.7"/><line y2="52.7" clip-path="url(#a)" x2="98.8" y1="52.8" x1="95.9"/><line y2="52.3" clip-path="url(#a)" x2="103.2" y1="52.5" x1="100.8"/><path d="m104.7 52.1s1.7-0.3 2.1-0.7" clip-path="url(#a)"/><path d="m79.9 56.2s1.9-1.8 3.1-1.8 3.1-0.1 3.3 0.2" clip-path="url(#a)"/><line y2="55" clip-path="url(#a)" x2="90" y1="54.6" x1="87.4"/><line y2="55.1" clip-path="url(#a)" x2="93.1" y1="55.1" x1="91.4"/><line y2="55.1" clip-path="url(#a)" x2="97.8" y1="55.4" x1="95.4"/><path d="m99.2 55.3s2.1 0 2.5-0.3" clip-path="url(#a)"/><path d="m103.3 55s3.3-0.6 4.2-1.4" clip-path="url(#a)"/><path d="m79.7 58.2s1.6-1.3 3.1-1.5c1.6-0.1 2.4-0.4 3.1-0.1l0.5 0.2" clip-path="url(#a)"/><line y2="57.2" clip-path="url(#a)" x2="89.6" y1="56.9" x1="87.9"/><path d="m91.2 57.2s1.9 0.7 2.2 0.4" clip-path="url(#a)"/><path d="m94.7 57.9s1.9 0.1 2.7-0.2" clip-path="url(#a)"/><path d="m98.7 57.8s2.2 0 3.2-0.4" clip-path="url(#a)"/><path d="m103.7 57.2s2.9-0.1 3.3-0.5" clip-path="url(#a)"/><path d="m80 61.5s1.5-2 3.1-2c2 0 3.4-0.4 4.5-0.1" clip-path="url(#a)"/><line y2="59.3" clip-path="url(#a)" x2="90.9" y1="59.3" x1="89.2"/><line y2="60.3" clip-path="url(#a)" x2="94.9" y1="59.6" x1="93"/><line y2="60.2" clip-path="url(#a)" x2="99" y1="60.3" x1="96.1"/><line y2="59.8" clip-path="url(#a)" x2="103.4" y1="60" x1="101"/><path d="m105 59.6s1.7-0.2 2.1-0.7" clip-path="url(#a)"/><path d="m80.2 63.8s1.9-1.9 3-1.9c1.2 0 3.2-0.1 3.3 0.3" clip-path="url(#a)"/><line y2="62.6" clip-path="url(#a)" x2="90.2" y1="62.2" x1="87.6"/><line y2="62.7" clip-path="url(#a)" x2="93.3" y1="62.7" x1="91.6"/><line y2="62.7" clip-path="url(#a)" x2="98" y1="62.9" x1="95.6"/><path d="m99.4 62.8s2.1 0 2.5-0.2" clip-path="url(#a)"/><path d="m103.5 62.6s3.3-0.7 4.2-1.5" clip-path="url(#a)"/><path d="m79.9 65.7s1.6-1.3 3.2-1.4 2.4-0.4 3.1-0.1c0.9 0.4 0.5 0.2 0.5 0.2" clip-path="url(#a)"/><line y2="64.7" clip-path="url(#a)" x2="89.8" y1="64.4" x1="88.1"/><path d="m91.4 64.8s1.8 0.7 2.2 0.4" clip-path="url(#a)"/><path d="m94.9 65.5s1.9 0.1 2.6-0.3" clip-path="url(#a)"/><path d="m98.9 65.3s2.2 0 3.1-0.4" clip-path="url(#a)"/><path d="m103.9 64.8s2.9-0.1 3.3-0.5" clip-path="url(#a)"/><line y2="67.6" clip-path="url(#a)" x2="80.8" y1="68.2" x1="79.6"/><path d="m82.5 66.8s3-1.6 4.9-1" clip-path="url(#a)"/><path d="m88.4 66s2.2-0.3 2.5 0.1" clip-path="url(#a)"/><path d="m92.4 66.6s2.5 0.1 3 0.4" clip-path="url(#a)"/><path d="m97.1 67.1s1.6 0.4 3.1-0.1" clip-path="url(#a)"/><path d="m101.1 66.9s0.7 0.1 2.4-0.3" clip-path="url(#a)"/><path d="m104.7 66.8s0.8 0.5 2-0.5" clip-path="url(#a)"/><path d="m79.6 71s1.4-1.9 3.1-1.9c2 0 3.4-0.4 4.4-0.1" clip-path="url(#a)"/><line y2="68.8" clip-path="url(#a)" x2="90.4" y1="68.8" x1="88.8"/><line y2="69.8" clip-path="url(#a)" x2="94.5" y1="69.2" x1="92.5"/><line y2="69.7" clip-path="url(#a)" x2="98.6" y1="69.8" x1="95.7"/><line y2="69.3" clip-path="url(#a)" x2="102.9" y1="69.5" x1="100.5"/><path d="m104.5 69.2s1.7-0.3 2.1-0.7" clip-path="url(#a)"/><path d="m79.7 73.2s1.8-1.8 3-1.8 3.2-0.1 3.3 0.2" clip-path="url(#a)"/><line y2="72.1" clip-path="url(#a)" x2="89.8" y1="71.6" x1="87.1"/><line y2="72.2" clip-path="url(#a)" x2="92.9" y1="72.2" x1="91.2"/><line y2="72.2" clip-path="url(#a)" x2="97.5" y1="72.4" x1="95.1"/><path d="m99 72.3s2.1 0 2.5-0.2" clip-path="url(#a)"/><path d="m103 72.1s3.3-0.7 4.3-1.5" clip-path="url(#a)"/><path d="m79.4 75.2s1.6-1.3 3.2-1.5c1.6-0.1 2.4-0.4 3.1-0.1 0.9 0.4 0.5 0.2 0.5 0.2" clip-path="url(#a)"/><line y2="74.2" clip-path="url(#a)" x2="89.3" y1="73.9" x1="87.6"/><path d="m90.9 74.2s1.9 0.7 2.2 0.4" clip-path="url(#a)"/><path d="m94.5 74.9s1.9 0.1 2.6-0.2" clip-path="url(#a)"/><path d="m98.4 74.8s2.2 0 3.1-0.4" clip-path="url(#a)"/><path d="m103.5 74.2s2.8-0.1 3.3-0.5" clip-path="url(#a)"/><line y2="77.3" clip-path="url(#a)" x2="80.5" y1="78" x1="79.3"/><path d="m82.2 76.5s3.1-1.6 4.9-1" clip-path="url(#a)"/><path d="m88.1 75.7s2.2-0.3 2.5 0.1" clip-path="url(#a)"/><path d="m92.1 76.4s2.5 0.1 3.1 0.4" clip-path="url(#a)"/><path d="m96.9 76.9s1.6 0.4 3-0.1" clip-path="url(#a)"/><path d="m100.8 76.6s0.7 0.1 2.4-0.2" clip-path="url(#a)"/><path d="m104.5 76.5s0.7 0.5 1.9-0.5" clip-path="url(#a)"/><path d="m79.3 80.8s1.4-2 3-2c2 0 3.4-0.4 4.5-0.1" clip-path="url(#a)"/><line y2="78.5" clip-path="url(#a)" x2="90.1" y1="78.5" x1="88.6"/><line y2="79.6" clip-path="url(#a)" x2="94.2" y1="78.9" x1="92.2"/><line y2="79.4" clip-path="url(#a)" x2="98.3" y1="79.6" x1="95.4"/><line y2="79" clip-path="url(#a)" x2="102.6" y1="79.3" x1="100.2"/><path d="m104.2 78.9s1.7-0.2 2.1-0.7" clip-path="url(#a)"/><path d="m79.4 83s1.9-1.9 3.1-1.9 3.1-0.1 3.3 0.3" clip-path="url(#a)"/><line y2="81.8" clip-path="url(#a)" x2="89.5" y1="81.4" x1="86.8"/><line y2="82" clip-path="url(#a)" x2="92.6" y1="82" x1="90.9"/><line y2="82" clip-path="url(#a)" x2="97.2" y1="82.2" x1="94.8"/><path d="m98.7 82s2.1 0 2.5-0.2" clip-path="url(#a)"/><path d="m102.8 81.8s3.3-0.7 4.2-1.5" clip-path="url(#a)"/><path d="m79.2 85s1.6-1.3 3.1-1.4c1.6-0.2 2.4-0.5 3.1-0.2l0.5 0.2" clip-path="url(#a)"/><line y2="83.9" clip-path="url(#a)" x2="89.1" y1="83.6" x1="87.4"/><path d="m90.7 84.1s1.9 0.7 2.2 0.4" clip-path="url(#a)"/><path d="m94.2 84.7s1.9 0.1 2.7-0.3" clip-path="url(#a)"/><path d="m98.1 84.6s2.2 0 3.1-0.4" clip-path="url(#a)"/><path d="m103.2 84.1s2.9-0.1 3.3-0.5" clip-path="url(#a)"/><line y2="87.1" clip-path="url(#a)" x2="80.2" y1="87.7" x1="79"/><path d="m82 86.3s3-1.6 4.9-1" clip-path="url(#a)"/><path d="m87.9 85.5s2.2-0.2 2.5 0.1" clip-path="url(#a)"/><path d="m91.8 86.2s2.5 0.1 3 0.4" clip-path="url(#a)"/><path d="m96.6 86.7s1.6 0.4 3.1-0.1" clip-path="url(#a)"/><path d="m100.5 86.4s0.7 0.1 2.4-0.2" clip-path="url(#a)"/><path d="m104.2 86.3s0.8 0.5 2-0.5" clip-path="url(#a)"/><path d="m79 90.5s1.4-1.9 3.1-1.9c2 0 3.4-0.4 4.4-0.1" clip-path="url(#a)"/><line y2="88.3" clip-path="url(#a)" x2="89.8" y1="88.3" x1="88.3"/><line y2="89.3" clip-path="url(#a)" x2="93.9" y1="88.6" x1="92"/><line y2="89.2" clip-path="url(#a)" x2="98" y1="89.3" x1="95.1"/><line y2="88.8" clip-path="url(#a)" x2="102.4" y1="89.1" x1="100"/><path d="m104 88.6s1.7-0.2 2.1-0.6" clip-path="url(#a)"/><path d="m79.2 92.8s1.8-1.9 3-1.9 3.2-0.1 3.3 0.3" clip-path="url(#a)"/><line y2="91.6" clip-path="url(#a)" x2="89.2" y1="91.2" x1="86.5"/><line y2="91.7" clip-path="url(#a)" x2="92.4" y1="91.7" x1="90.7"/><line y2="91.7" clip-path="url(#a)" x2="96.9" y1="91.9" x1="94.6"/><path d="m98.4 91.9s2.1 0 2.5-0.3" clip-path="url(#a)"/><path d="m102.5 91.6s3.3-0.7 4.3-1.4" clip-path="url(#a)"/><path d="m78.9 94.7s1.6-1.3 3.2-1.4c1.6-0.2 2.4-0.5 3.1-0.2 0.9 0.4 0.5 0.3 0.5 0.3" clip-path="url(#a)"/><line y2="93.7" clip-path="url(#a)" x2="88.8" y1="93.4" x1="87.1"/><path d="m90.4 93.8s1.9 0.7 2.2 0.4" clip-path="url(#a)"/><path d="m93.9 94.5s1.9 0.1 2.6-0.3" clip-path="url(#a)"/><path d="m97.9 94.3s2.2 0 3.1-0.4" clip-path="url(#a)"/><path d="m102.9 93.8s2.8-0.1 3.3-0.5" clip-path="url(#a)"/><line y2="96.9" clip-path="url(#a)" x2="79.9" y1="97.6" x1="78.8"/><path d="m81.7 96.2s3.1-1.6 4.9-1" clip-path="url(#a)"/><path d="m87.6 95.4s2.2-0.2 2.5 0.1" clip-path="url(#a)"/><path d="m91.5 96s2.5 0.1 3.1 0.4" clip-path="url(#a)"/><path d="m96.3 96.6s1.6 0.4 3-0.1" clip-path="url(#a)"/><path d="m100.2 96.3s0.7 0.1 2.4-0.2" clip-path="url(#a)"/><path d="m104 96.2s0.7 0.5 1.9-0.5" clip-path="url(#a)"/><path d="m78.8 100.4s1.4-1.9 3-1.9c2 0 3.4-0.4 4.5-0.1" clip-path="url(#a)"/><line y2="98.1" clip-path="url(#a)" x2="89.6" y1="98.1" x1="88"/><line y2="99.2" clip-path="url(#a)" x2="93.6" y1="98.5" x1="91.7"/><line y2="99" clip-path="url(#a)" x2="97.8" y1="99.2" x1="94.8"/><line y2="98.7" clip-path="url(#a)" x2="102.1" y1="99" x1="99.7"/><path d="m103.7 98.5s1.7-0.2 2.1-0.6" clip-path="url(#a)"/><path d="m78.9 102.6s1.9-1.9 3.1-1.9 3.1-0.1 3.3 0.3" clip-path="url(#a)"/><line y2="101.4" clip-path="url(#a)" x2="88.9" y1="101.1" x1="86.3"/><line y2="101.6" clip-path="url(#a)" x2="92.1" y1="101.6" x1="90.4"/><line y2="101.6" clip-path="url(#a)" x2="96.7" y1="101.8" x1="94.3"/><path d="m98.1 101.7s2.1 0 2.5-0.3" clip-path="url(#a)"/><path d="m102.3 101.4s3.3-0.7 4.2-1.4" clip-path="url(#a)"/><path d="m78.7 104.6s1.6-1.3 3.1-1.4c1.6-0.1 2.4-0.4 3.1-0.1 1 0.4 0.5 0.3 0.5 0.3" clip-path="url(#a)"/><line y2="103.5" clip-path="url(#a)" x2="88.6" y1="103.3" x1="86.8"/><path d="m90.1 103.7s1.9 0.7 2.2 0.4" clip-path="url(#a)"/><path d="m93.6 104.4s1.9 0.1 2.7-0.3" clip-path="url(#a)"/><path d="m97.6 104.2s2.2 0 3.1-0.4" clip-path="url(#a)"/><path d="m102.6 103.7s2.9-0.1 3.3-0.5" clip-path="url(#a)"/><path d="m78.7 107.3s0.9-2 6.5-2" clip-path="url(#a)"/><path d="m79.1 109s0.7-1.6 2-1.6 2.3-0.2 2.5 0" clip-path="url(#a)"/></g><path d="m74 112.8s1.3 1.9 4.6 1.9 4-1 4.4-1.6" clip-path="url(#a)" stroke-width=".5244"/><polyline clip-path="url(#a)" points="83 113.1 88.8 111.2 112.2 112.2 113.4 44.7" stroke-width=".22480"/></g><path fill="#fff" d="m74 112.8c-0.1-0.3 1-2.2 1.3-2.5s1.2-1.2 3.1-1.2c1.9 0.1 4.6 0.8 4.5 4-0.1 0.8-2.7 1.5-4.3 1.6-0.9-0.1-4.2-0.7-4.6-1.9" clip-path="url(#a)"/><path d="m74 112.8c-0.1-0.3 1-2.2 1.3-2.5s1.2-1.2 3.1-1.2c1.9 0.1 4.6 0.8 4.5 4-0.1 0.8-2.7 1.5-4.3 1.6-0.9-0.1-4.2-0.7-4.6-1.9z" clip-path="url(#a)" stroke="#000" stroke-miterlimit="10" stroke-width=".67430" fill="none"/><path fill="#145b9e" d="m57 52.1c-0.2 0-0.2 0-0.2 0.2l-0.2 0.9c-0.1 0.4-0.1 0.5 0.1 0.5h0.2v0.2h-0.6-0.6v-0.2h0.2c0.2 0 0.2-0.1 0.3-0.3s0.2-0.5 0.3-0.9l0.8-2.6c0.1-0.2 0.1-0.4 0.1-0.5 0.2-0.1 0.4-0.4 0.4-0.4s0.1 0 0.1 0.1c0.1 0.3 0.2 0.7 0.3 1l0.9 3.1c0.1 0.5 0.2 0.5 0.5 0.6h0.1v0.2h-0.8-0.7s-0.1-0.2 0-0.2h0.1c0.2 0 0.2-0.1 0.2-0.4l-0.3-1c-0.1-0.2-0.1-0.2-0.3-0.2h-0.9zm0.8-0.4c0.2 0 0.2 0 0.1-0.2l-0.3-0.9c-0.1-0.4-0.1-0.5-0.2-0.6 0 0.1-0.1 0.2-0.2 0.6l-0.2 0.9c-0.1 0.2 0 0.2 0.1 0.2h0.7z" clip-path="url(#a)"/></g><g style="" clip-path="url(#b)"><clipPath id="bt"><use xlink:href="#bu" height="100%" width="100%" y="0" x="0" overflow="visible"/></clipPath><g opacity=".75" clip-path="url(#bt)"><g style=""><clipPath id="u"><use xlink:href="#bs" height="100%" width="100%" y="0" x="0" overflow="visible"/></clipPath><path d="m113.5 81.2c0.7 0 2.8-0.3 3 0.4 0.3 0.7 1.6-0.4 2.2-0.8 0.7-0.4 0.4-3-0.1-3.5s0.3-1.2 0.5-1.9c0.3-0.7-0.9-2.9-1.4-4-0.5-1 0.7-2.5 1.2-2.5s1.7 1.6 1.3 2.8 1.3 2.1 2.2 3.1c1 1 0.3 6.4 0.3 5.2s3.1-1 3.5-1.3c0.4-0.4 0.7-1.9 0.7-1.9s-1.3-1.7-1.6-2.4c-0.2-0.7 0.5-2.2 0.7-2.9 0.1-0.6 2.5-0.6 1.9-0.4-0.5 0.3 0 3.4 0 3.8s2.2 2.6 1.9 4.2c-0.4 1.6-0.5 1.3-4.9 5.7-4.3 4.3-6.9 3.9-10.4 2.6-3.4-1.2-4.3-4.7-4.3-4.7s-1 0.1-4.6 2.2c-1.6 1-2.1 3.1-2.5 4.7l-0.3 5.1c-1-1.3-1.6-8.2-1.6-8.2s-0.3-1.2 0.7-3.4c0.9-2.2 4.2-3.7 5.1-5.5 1-1.8 3.8-0.6 4.6-0.6 1.3-0.1 1.4 0.9 1.5 1.5l0.1 0.4 0.3 2.3c-0.8 0-3.2 0.4-3.2 1.4 0 0.5-0.7-2.9-0.6-3.1 1.6-1.9 2.8 0.7 3.7-1" clip-path="url(#u)"/><path d="m113.5 81.2c0.7 0 2.8-0.3 3 0.4 0.3 0.7 1.6-0.4 2.2-0.8 0.7-0.4 0.4-3-0.1-3.5s0.3-1.2 0.5-1.9c0.3-0.7-0.9-2.9-1.4-4-0.5-1 0.7-2.5 1.2-2.5s1.7 1.6 1.3 2.8 1.3 2.1 2.2 3.1c1 1 0.3 6.4 0.3 5.2s3.1-1 3.5-1.3c0.4-0.4 0.7-1.9 0.7-1.9s-1.3-1.7-1.6-2.4c-0.2-0.7 0.5-2.2 0.7-2.9 0.1-0.6 2.5-0.6 1.9-0.4-0.5 0.3 0 3.4 0 3.8s2.2 2.6 1.9 4.2c-0.4 1.6-0.5 1.3-4.9 5.7-4.3 4.3-6.9 3.9-10.4 2.6-3.4-1.2-4.3-4.7-4.3-4.7s-1 0.1-4.6 2.2c-1.6 1-2.1 3.1-2.5 4.7l-0.3 5.1c-1-1.3-1.6-8.2-1.6-8.2s-0.3-1.2 0.7-3.4c0.9-2.2 4.2-3.7 5.1-5.5 1-1.8 3.8-0.6 4.6-0.6 1.3-0.1 1.4 0.9 1.5 1.5l0.1 0.4 0.3 2.3c-0.8 0-3.2 0.4-3.2 1.4 0 0.5-0.7-2.9-0.6-3.1 1.6-1.9 2.8 0.7 3.7-1" clip-path="url(#u)" stroke="#000" stroke-miterlimit="10" stroke-width=".74920" fill="none"/></g></g></g><g style="" clip-path="url(#b)"><clipPath id="bq"><use xlink:href="#br" height="100%" width="100%" y="0" x="0" overflow="visible"/></clipPath><linearGradient id="bp" y2="-455.43" gradientUnits="userSpaceOnUse" x2="-915.19" gradientTransform="matrix(-25.834 -14.915 -14.915 25.834 -30331 -1810.1)" y1="-455.43" x1="-915.94"><stop stop-color="#fff" offset="0"/><stop stop-color="#fff" offset=".1013"/><stop stop-color="#E1EDEF" offset=".1812"/><stop stop-color="#AECFD5" offset=".3329"/><stop stop-color="#83B5BF" offset=".4825"/><stop stop-color="#62A2AD" offset=".6267"/><stop stop-color="#4A93A1" offset=".764"/><stop stop-color="#3C8B9A" offset=".8916"/><stop stop-color="#378897" offset="1"/></linearGradient><polygon points="89.2 86.8 107.6 54.8 140.6 73.9 122.2 105.8" fill="url(#bp)" clip-path="url(#bq)"/></g><g style="" clip-path="url(#b)"><clipPath id="t"><use xlink:href="#bo" height="100%" width="100%" y="0" x="0" overflow="visible"/></clipPath><path d="m112.8 79.7c0.7 0 2.8-0.3 3 0.4 0.3 0.7 1.6-0.4 2.2-0.8 0.7-0.4 0.4-3-0.1-3.5s0.3-1.2 0.5-1.9c0.3-0.7-0.9-2.9-1.4-4-0.5-1 0.7-2.5 1.2-2.5s1.7 1.6 1.3 2.8 1.3 2.1 2.2 3.1c1 1 0.3 6.4 0.3 5.2s3.1-1 3.5-1.3c0.4-0.4 0.7-1.9 0.7-1.9s-1.3-1.7-1.6-2.4c-0.2-0.7 0.5-2.2 0.7-2.9 0.1-0.6 2.5-0.6 1.9-0.4-0.5 0.3 0 3.4 0 3.8s2.2 2.6 1.9 4.2c-0.4 1.6-0.5 1.3-4.9 5.7-4.3 4.3-6.9 3.9-10.4 2.6-3.4-1.2-4.3-4.7-4.3-4.7s-1 0.1-4.6 2.2c-1.6 1-2.1 3.1-2.5 4.7l-0.3 5.1c-1-1.3-1.6-8.2-1.6-8.2s-0.3-1.2 0.7-3.4c0.9-2.2 4.2-3.7 5.1-5.5 1-1.8 3.8-0.6 4.6-0.6 1.3-0.1 1.4 0.9 1.5 1.5l0.1 0.4 0.3 2.3c-0.8 0-3.2 0.4-3.2 1.4 0 0.5-0.7-2.9-0.6-3.1 1.6-1.9 2.8 0.7 3.7-1" clip-path="url(#t)" stroke="#000" stroke-miterlimit="10" stroke-width=".74920" fill="none"/><g opacity=".75" clip-path="url(#t)"><g style=""><clipPath id="s"><use xlink:href="#bn" height="100%" width="100%" y="0" x="0" overflow="visible"/></clipPath><path d="m95.6 114.3s-5.4-2.1-5.1-3.9 1.7-1.9 1.8-1.9c0.1 0.1-0.9-0.8-1-1s-0.6-1-1.3-1.3c-0.7-0.2-2.2-1-3.4 0s-2.1 2.2-2.2 2.4l-0.1 0.1c-1.9 2.8 1.6 4.5 1.6 4.5 1.2 0.9 5.5 1.8 6.5 1.9 0.1 0 1-0.7 1.3-0.7" clip-path="url(#s)"/><path d="m95.6 114.3s-5.4-2.1-5.1-3.9 1.7-1.9 1.8-1.9c0.1 0.1-0.9-0.8-1-1s-0.6-1-1.3-1.3c-0.7-0.2-2.2-1-3.4 0s-2.1 2.2-2.2 2.4l-0.1 0.1c-1.9 2.8 1.6 4.5 1.6 4.5 1.2 0.9 5.5 1.8 6.5 1.9 0.1 0 1-0.7 1.3-0.7" clip-path="url(#s)" stroke="#000" stroke-miterlimit="10" stroke-width=".74920" fill="none"/></g></g></g><g style="" clip-path="url(#b)"><clipPath id="bl"><use xlink:href="#bm" height="100%" width="100%" y="0" x="0" overflow="visible"/></clipPath><linearGradient id="bk" y2="-452.55" gradientUnits="userSpaceOnUse" x2="-942.83" gradientTransform="matrix(-14.517 -8.3813 -8.3813 14.517 -17396 -1226)" y1="-452.55" x1="-943.58"><stop stop-color="#fff" offset="0"/><stop stop-color="#fff" offset=".1013"/><stop stop-color="#E1EDEF" offset=".1812"/><stop stop-color="#AECFD5" offset=".3329"/><stop stop-color="#83B5BF" offset=".4825"/><stop stop-color="#62A2AD" offset=".6267"/><stop stop-color="#4A93A1" offset=".764"/><stop stop-color="#3C8B9A" offset=".8916"/><stop stop-color="#378897" offset="1"/></linearGradient><polygon points="77.6 111.3 85 98.5 98.9 106.5 91.6 119.3" fill="url(#bk)" clip-path="url(#bl)"/></g><g style="" clip-path="url(#b)"><clipPath id="r"><use xlink:href="#bj" height="100%" width="100%" y="0" x="0" overflow="visible"/></clipPath><path d="m94.8 112.8s-5.4-2.1-5.1-3.9 1.7-1.9 1.8-1.9c0.1 0.1-0.9-0.8-1-1s-0.6-1-1.3-1.3c-0.7-0.2-2.2-1-3.4 0s-2.1 2.2-2.2 2.4l-0.1 0.1c-1.9 2.8 1.6 4.5 1.6 4.5 1.2 0.9 5.5 1.8 6.5 1.9 0.1 0 1-0.7 1.3-0.7" clip-path="url(#r)" stroke="#000" stroke-miterlimit="10" stroke-width=".74920" fill="none"/><g opacity=".75" clip-path="url(#r)"><g style=""><clipPath id="q"><use xlink:href="#bi" height="100%" width="100%" y="0" x="0" overflow="visible"/></clipPath><path d="m122.3 93.5c0.5 1.8 0.2 3.6 0.1 4.4-0.2 1.4-1 5.8-7.3 4.7-6.1-1-19.3-3.3-19.1-4 0.2-0.8-8.7-1.9-8.7 0.2 0 1.9 0.3 5.7-0.1 7h0.1c0.6-0.3 1.1-0.3 2 0 2.2 0.7 1.6 1.6 3.2 2.8s2.8 1.3 3.5 1.2 7.1 0.5 7.9 1.1c0.7 0.7 7.9 2.4 11.5 2.2 3.5-0.3 6.4-1.6 7.3-2.5 1-0.9 4.3-4.3 4.9-6.2 0.6-1.8 2.2-5.8-2.5-9.4-1-0.8-1.9-1.3-2.8-1.6v0.1z" clip-path="url(#q)"/><path d="m122.3 93.5c0.5 1.8 0.2 3.6 0.1 4.4-0.2 1.4-1 5.8-7.3 4.7-6.1-1-19.3-3.3-19.1-4 0.2-0.8-8.7-1.9-8.7 0.2 0 1.9 0.3 5.7-0.1 7h0.1c0.6-0.3 1.1-0.3 2 0 2.2 0.7 1.6 1.6 3.2 2.8s2.8 1.3 3.5 1.2 7.1 0.5 7.9 1.1c0.7 0.7 7.9 2.4 11.5 2.2 3.5-0.3 6.4-1.6 7.3-2.5 1-0.9 4.3-4.3 4.9-6.2 0.6-1.8 2.2-5.8-2.5-9.4-1-0.8-1.9-1.3-2.8-1.6v0.1z" clip-path="url(#q)" stroke="#000" stroke-miterlimit="10" stroke-width=".74920" fill="none"/></g></g></g><g style="" clip-path="url(#b)"><clipPath id="bg"><use xlink:href="#bh" height="100%" width="100%" y="0" x="0" overflow="visible"/></clipPath><linearGradient id="bf" y2="-457.38" gradientUnits="userSpaceOnUse" x2="-900.71" gradientTransform="matrix(-43.799 -25.287 -25.287 43.799 -50926 -2652.3)" y1="-457.38" x1="-901.46"><stop stop-color="#fff" offset="0"/><stop stop-color="#fff" offset=".1013"/><stop stop-color="#E1EDEF" offset=".1812"/><stop stop-color="#AECFD5" offset=".3329"/><stop stop-color="#83B5BF" offset=".4825"/><stop stop-color="#62A2AD" offset=".6267"/><stop stop-color="#4A93A1" offset=".764"/><stop stop-color="#3C8B9A" offset=".8916"/><stop stop-color="#378897" offset="1"/></linearGradient><polygon points="77.7 106.9 97 73.4 137.7 96.9 118.4 130.3" fill="url(#bf)" clip-path="url(#bg)"/></g><g style="" clip-path="url(#b)"><clipPath id="p"><use xlink:href="#be" height="100%" width="100%" y="0" x="0" overflow="visible"/></clipPath><path d="m121.5 92c0.5 1.8 0.2 3.6 0.1 4.4-0.2 1.4-1 5.8-7.3 4.7-6.1-1-19.3-3.3-19.1-4 0.2-0.8-8.7-1.9-8.7 0.2 0 1.9 0.3 5.7-0.1 7h0.1c0.6-0.3 1.1-0.3 2 0 2.2 0.7 1.6 1.6 3.2 2.8s2.8 1.3 3.5 1.2 7.1 0.5 7.9 1.1c0.7 0.7 7.9 2.4 11.5 2.2 3.5-0.3 6.4-1.6 7.3-2.5 1-0.9 4.3-4.3 4.9-6.2 0.6-1.8 2.2-5.8-2.5-9.4-1-0.8-1.9-1.3-2.8-1.6v0.1z" clip-path="url(#p)" stroke="#000" stroke-miterlimit="10" stroke-width=".74920" fill="none"/><g opacity=".75" clip-path="url(#p)"><g style=""><clipPath id="o"><use xlink:href="#bd" height="100%" width="100%" y="0" x="0" overflow="visible"/></clipPath><path d="m121.7 93c-2.9-1-4.7 0.2-4 0.2s-1.6-0.6-3.8 2.8c-1.7 2.5-6.3 1.8-7.1 1.9s-4.2-2.1-4.4-4.9c0-0.4-0.6-2.2-0.6-3.4l-0.3-2c1.1 1.6 4.3 4.8 6.4 4.6 3.8-0.2 9.5-2.8 12.1-2.2 1.1 0.2 6.4 4.8 6.7 6.2 0 0-3.2-3.6-7-3.7" clip-path="url(#o)"/><path d="m121.7 93c-2.9-1-4.7 0.2-4 0.2s-1.6-0.6-3.8 2.8c-1.7 2.5-6.3 1.8-7.1 1.9s-4.2-2.1-4.4-4.9c0-0.4-0.6-2.2-0.6-3.4l-0.3-2c1.1 1.6 4.3 4.8 6.4 4.6 3.8-0.2 9.5-2.8 12.1-2.2 1.1 0.2 6.4 4.8 6.7 6.2 0 0-3.2-3.6-7-3.7" clip-path="url(#o)" stroke="#000" stroke-miterlimit="10" stroke-width=".74920" fill="none"/></g></g></g><g style="" clip-path="url(#b)"><clipPath id="ba"><use xlink:href="#bb" height="100%" width="100%" y="0" x="0" overflow="visible"/></clipPath><linearGradient id="az" y2="-456.22" gradientUnits="userSpaceOnUse" x2="-909.96" gradientTransform="matrix(-30.298 -17.493 -17.493 30.298 -35449 -2010.6)" y1="-456.22" x1="-910.71"><stop stop-color="#fff" offset="0"/><stop stop-color="#fff" offset=".1013"/><stop stop-color="#E1EDEF" offset=".1812"/><stop stop-color="#AECFD5" offset=".3329"/><stop stop-color="#83B5BF" offset=".4825"/><stop stop-color="#62A2AD" offset=".6267"/><stop stop-color="#4A93A1" offset=".764"/><stop stop-color="#3C8B9A" offset=".8916"/><stop stop-color="#378897" offset="1"/></linearGradient><polygon points="96.1 94 107 75.2 130.5 88.7 119.6 107.5" fill="url(#az)" clip-path="url(#ba)"/></g><g style="" clip-path="url(#b)"><clipPath id="n"><use xlink:href="#ay" height="100%" width="100%" y="0" x="0" overflow="visible"/></clipPath><path d="m120.9 91.5c-2.9-1-4.7 0.2-4 0.2s-1.6-0.6-3.8 2.8c-1.7 2.5-6.3 1.8-7.1 1.9s-4.2-2.1-4.4-4.9c0-0.4-0.6-2.2-0.6-3.4l-0.3-2c1.1 1.6 4.3 4.8 6.4 4.6 3.8-0.2 9.5-2.8 12.1-2.2 1.1 0.2 6.4 4.8 6.7 6.2 0 0-3.2-3.6-7-3.7" clip-path="url(#n)" stroke="#000" stroke-miterlimit="10" stroke-width=".74920" fill="none"/><g opacity=".75" clip-path="url(#n)"><g style=""><clipPath id="m"><use xlink:href="#ax" height="100%" width="100%" y="0" x="0" overflow="visible"/></clipPath><path d="m43.1 102.5c-0.8 0 5.7-0.5 11.6 5.9 3.2 3.5 1.8 6.2 6.3 12.3s8.7 8.9 20.3 10.3c11.6 1.3 14.4-5.9 15.2-6.1 0.7-0.1 2.3-5.5 1.9-7.1s-2-3.7-4.1-3.7c-0.5 0-1.1 0.2-1.1 0.2s-1.2 0.6-2.1 0.7l1.3 0.4c0.7 1.1-0.2 1.9-2.2 3.4-2.8 2.2-6.4 1.3-10.6 0.8s-7.8-2.8-9.5-6.4c-1.6-3.7-5.5-10.4-11.5-15.2-6.1-4.7-7.2-4-12.7-3.8-5.5 0.1-6.1 2.1-7.1 3.1-1.1 0.9 0.1 4.3-0.5 5.2-0.7 0.9-1.5 1.3-1.5 1.3" clip-path="url(#m)"/><path d="m43.1 102.5c-0.8 0 5.7-0.5 11.6 5.9 3.2 3.5 1.8 6.2 6.3 12.3s8.7 8.9 20.3 10.3c11.6 1.3 14.4-5.9 15.2-6.1 0.7-0.1 2.3-5.5 1.9-7.1s-2-3.7-4.1-3.7c-0.5 0-1.1 0.2-1.1 0.2s-1.2 0.6-2.1 0.7l1.3 0.4c0.7 1.1-0.2 1.9-2.2 3.4-2.8 2.2-6.4 1.3-10.6 0.8s-7.8-2.8-9.5-6.4c-1.6-3.7-5.5-10.4-11.5-15.2-6.1-4.7-7.2-4-12.7-3.8-5.5 0.1-6.1 2.1-7.1 3.1-1.1 0.9 0.1 4.3-0.5 5.2-0.7 0.9-1.5 1.3-1.5 1.3" clip-path="url(#m)" stroke="#000" stroke-miterlimit="10" stroke-width=".74920" fill="none"/></g></g></g><g style="" clip-path="url(#b)"><clipPath id="av"><use xlink:href="#aw" height="100%" width="100%" y="0" x="0" overflow="visible"/></clipPath><linearGradient id="au" y2="-458.57" gradientUnits="userSpaceOnUse" x2="-892.35" gradientTransform="matrix(-73.976 -42.71 -42.71 73.976 -85559 -4093.9)" y1="-458.57" x1="-893.1"><stop stop-color="#fff" offset="0"/><stop stop-color="#fff" offset=".1013"/><stop stop-color="#E1EDEF" offset=".1812"/><stop stop-color="#AECFD5" offset=".3329"/><stop stop-color="#83B5BF" offset=".4825"/><stop stop-color="#62A2AD" offset=".6267"/><stop stop-color="#4A93A1" offset=".764"/><stop stop-color="#3C8B9A" offset=".8916"/><stop stop-color="#378897" offset="1"/></linearGradient><polygon points="19.5 121.2 51.6 65.6 114.7 102 82.6 157.6" fill="url(#au)" clip-path="url(#av)"/></g><g style="" clip-path="url(#b)"><clipPath id="l"><use xlink:href="#at" height="100%" width="100%" y="0" x="0" overflow="visible"/></clipPath><path d="m42.3 101c-0.8 0 5.7-0.5 11.6 5.9 3.2 3.5 1.8 6.2 6.3 12.3s8.7 8.9 20.3 10.3c11.6 1.3 14.4-5.9 15.2-6.1 0.7-0.1 2.3-5.5 1.9-7.1s-2-3.7-4.1-3.7c-0.5 0-1.1 0.2-1.1 0.2s-1.2 0.6-2.1 0.7l1.3 0.4c0.7 1.1-0.2 1.9-2.2 3.4-2.8 2.2-6.4 1.3-10.6 0.8s-7.8-2.8-9.5-6.4c-1.6-3.7-5.5-10.4-11.5-15.2-6.1-4.7-7.2-4-12.7-3.8-5.5 0.1-6.1 2.1-7.1 3.1-1.1 0.9 0.1 4.3-0.5 5.2-0.7 0.9-1.5 1.3-1.5 1.3" clip-path="url(#l)" stroke="#000" stroke-miterlimit="10" stroke-width=".74920" fill="none"/><g opacity=".75" clip-path="url(#l)"><g style=""><clipPath id="k"><use xlink:href="#as" height="100%" width="100%" y="0" x="0" overflow="visible"/></clipPath><path d="m41.6 108.6-0.1 4.5c-3.3 0.3-9.1-6.3-5.7-8.8s5.8-1.9 6.9-1.9c1 0-3.8 0.1-4 1.6-0.1 1.5-0.9 2.7 2.9 4.6" clip-path="url(#k)"/><path d="m41.6 108.6-0.1 4.5c-3.3 0.3-9.1-6.3-5.7-8.8s5.8-1.9 6.9-1.9c1 0-3.8 0.1-4 1.6-0.1 1.5-0.9 2.7 2.9 4.6z" clip-path="url(#k)" stroke="#000" stroke-miterlimit="10" stroke-width=".74920" fill="none"/></g></g></g><g style="" clip-path="url(#b)"><clipPath id="aq"><use xlink:href="#ar" height="100%" width="100%" y="0" x="0" overflow="visible"/></clipPath><linearGradient id="ap" y2="-450.64" gradientUnits="userSpaceOnUse" x2="-963.83" gradientTransform="matrix(-11.042 -6.3748 -6.3748 11.042 -13481 -1064)" y1="-450.64" x1="-964.58"><stop stop-color="#fff" offset="0"/><stop stop-color="#fff" offset=".1013"/><stop stop-color="#E1EDEF" offset=".1812"/><stop stop-color="#AECFD5" offset=".3329"/><stop stop-color="#83B5BF" offset=".4825"/><stop stop-color="#62A2AD" offset=".6267"/><stop stop-color="#4A93A1" offset=".764"/><stop stop-color="#3C8B9A" offset=".8916"/><stop stop-color="#378897" offset="1"/></linearGradient><polygon points="26.8 109.2 34.5 96 47.8 103.7 40.2 116.9" fill="url(#ap)" clip-path="url(#aq)"/></g><g style="" clip-path="url(#b)"><clipPath id="j"><use xlink:href="#ao" height="100%" width="100%" y="0" x="0" overflow="visible"/></clipPath><path d="m40.8 107.1-0.1 4.5c-3.3 0.3-9.1-6.3-5.7-8.8s5.8-1.9 6.9-1.9c1 0-3.8 0.1-4 1.6-0.1 1.5-0.8 2.7 2.9 4.6z" clip-path="url(#j)" stroke="#000" stroke-miterlimit="10" stroke-width=".74920" fill="none"/><g opacity=".75" clip-path="url(#j)"><g style=""><clipPath id="i"><use xlink:href="#am" height="100%" width="100%" y="0" x="0" overflow="visible"/></clipPath><path d="m41.5 113.1 8.8 0.4s1.1 1.1 1.1 3.2c0 0.2 1.3 0.1 1.8 0.7 0.7 0.7 2.2 3.5 3.7 3.7 1.4 0.2 1.3 1.6 0.5 1.8-0.7 0.3-2.2-0.1-2.5-0.7-0.2-0.5-0.7-1.8-2.1-1.9s-3.4-1.3-3.4-1.9c0.1-0.4 0.1 1-0.6 1.7-0.7 0.8 0.8 1.6 1 2.1 0.3 0.5 1.6 1.9 1.3 2.3-0.4 0.4 0.1 1.5-0.4 1.1s-1.6-0.7-1.9-1.6c-0.4-0.9-1-1.7-1.9-2-1-0.4-0.7-1.2-1-2.5s-0.4-2.5-1.5-2.8c-1.1-0.2-1.4-0.1-1.3-1.1 0.1-0.7-1.6-2.5-1.6-2.5" clip-path="url(#i)"/><path d="m41.5 113.1 8.8 0.4s1.1 1.1 1.1 3.2c0 0.2 1.3 0.1 1.8 0.7 0.7 0.7 2.2 3.5 3.7 3.7 1.4 0.2 1.3 1.6 0.5 1.8-0.7 0.3-2.2-0.1-2.5-0.7-0.2-0.5-0.7-1.8-2.1-1.9s-3.4-1.3-3.4-1.9c0.1-0.4 0.1 1-0.6 1.7-0.7 0.8 0.8 1.6 1 2.1 0.3 0.5 1.6 1.9 1.3 2.3-0.4 0.4 0.1 1.5-0.4 1.1s-1.6-0.7-1.9-1.6c-0.4-0.9-1-1.7-1.9-2-1-0.4-0.7-1.2-1-2.5s-0.4-2.5-1.5-2.8c-1.1-0.2-1.4-0.1-1.3-1.1 0.1-0.7-1.6-2.5-1.6-2.5z" clip-path="url(#i)" stroke="#000" stroke-miterlimit="10" stroke-width=".74920" fill="none"/></g></g></g><g style="" clip-path="url(#b)"><clipPath id="ak"><use xlink:href="#al" height="100%" width="100%" y="0" x="0" overflow="visible"/></clipPath><linearGradient id="aj" y2="-455.44" gradientUnits="userSpaceOnUse" x2="-921.78" gradientTransform="matrix(-22.039 -12.724 -12.724 22.039 -26070 -1578.5)" y1="-455.44" x1="-922.53"><stop stop-color="#fff" offset="0"/><stop stop-color="#fff" offset=".1013"/><stop stop-color="#E1EDEF" offset=".1812"/><stop stop-color="#AECFD5" offset=".3329"/><stop stop-color="#83B5BF" offset=".4825"/><stop stop-color="#62A2AD" offset=".6267"/><stop stop-color="#4A93A1" offset=".764"/><stop stop-color="#3C8B9A" offset=".8916"/><stop stop-color="#378897" offset="1"/></linearGradient><polygon points="35 121.5 45 104.3 63.4 114.9 53.5 132.1" fill="url(#aj)" clip-path="url(#ak)"/></g><g style="" clip-path="url(#b)"><clipPath id="h"><use xlink:href="#ai" height="100%" width="100%" y="0" x="0" overflow="visible"/></clipPath><path d="m40.8 111.6 8.8 0.4s1.1 1.1 1.1 3.2c0 0.2 1.3 0.1 1.8 0.7 0.7 0.7 2.2 3.5 3.7 3.7 1.4 0.2 1.3 1.6 0.5 1.8-0.7 0.3-2.2-0.1-2.5-0.7-0.2-0.5-0.7-1.8-2.1-1.9s-3.4-1.3-3.4-1.9c0.1-0.4 0.1 1-0.6 1.7-0.7 0.8 0.8 1.6 1 2.1 0.3 0.5 1.6 1.9 1.3 2.3-0.4 0.4 0.1 1.5-0.4 1.1s-1.6-0.7-1.9-1.6c-0.4-0.9-1-1.7-1.9-2-1-0.4-0.7-1.2-1-2.5s-0.4-2.5-1.5-2.8c-1.1-0.2-1.4-0.1-1.3-1.1 0.1-0.7-1.6-2.5-1.6-2.5z" clip-path="url(#h)" stroke="#000" stroke-miterlimit="10" stroke-width=".74920" fill="none"/><g opacity=".75" clip-path="url(#h)"><g style=""><clipPath id="g"><use xlink:href="#ah" height="100%" width="100%" y="0" x="0" overflow="visible"/></clipPath><path d="m113.4 78.5s-0.5 0.9-1 0.7c-0.4-0.2-1.7-1-2.6 0.3-0.2 0.1 0.5 3 0.6 3.1 0.2 0.1-0.1-0.6 0.9-0.9 1-0.4 0.4-0.4 2.3-0.5l-0.2-2.7z" clip-path="url(#g)"/><path d="m113.4 78.5s-0.5 0.9-1 0.7c-0.4-0.2-1.7-1-2.6 0.3-0.2 0.1 0.5 3 0.6 3.1 0.2 0.1-0.1-0.6 0.9-0.9 1-0.4 0.4-0.4 2.3-0.5l-0.2-2.7z" clip-path="url(#g)" stroke="#000" stroke-miterlimit="10" stroke-width=".74920" fill="none"/></g></g></g><g style="" clip-path="url(#b)"><clipPath id="ae"><use xlink:href="#ag" height="100%" width="100%" y="0" x="0" overflow="visible"/></clipPath><linearGradient id="ad" y2="-435.18" gradientUnits="userSpaceOnUse" x2="-1070.7" gradientTransform="matrix(-4.7815 -2.7606 -2.7606 4.7815 -6211.9 -796.99)" y1="-435.18" x1="-1071.4"><stop stop-color="#fff" offset="0"/><stop stop-color="#fff" offset=".1013"/><stop stop-color="#E1EDEF" offset=".1812"/><stop stop-color="#AECFD5" offset=".3329"/><stop stop-color="#83B5BF" offset=".4825"/><stop stop-color="#62A2AD" offset=".6267"/><stop stop-color="#4A93A1" offset=".764"/><stop stop-color="#3C8B9A" offset=".8916"/><stop stop-color="#378897" offset="1"/></linearGradient><polygon points="106.9 80.1 109.8 75.1 114.7 77.9 111.8 82.9" fill="url(#ad)" clip-path="url(#ae)"/></g><g style="" clip-path="url(#b)"><clipPath id="ab"><use xlink:href="#ac" height="100%" width="100%" y="0" x="0" overflow="visible"/></clipPath><path d="m112.6 77s-0.5 0.9-1 0.7c-0.4-0.2-1.7-1-2.6 0.3-0.2 0.1 0.5 3 0.6 3.1 0.2 0.1-0.1-0.6 0.9-0.9 1-0.4 0.4-0.4 2.3-0.5l-0.2-2.7z" clip-path="url(#ab)" stroke="#000" stroke-miterlimit="10" stroke-width=".74920" fill="none"/></g><g style="" clip-path="url(#b)"><clipPath id="e"><use xlink:href="#aa" height="100%" width="100%" y="0" x="0" overflow="visible"/></clipPath><g><path d="m49.2 98.6c-0.1 0.4-0.2 0.6-0.2 0.8 0 0.1 0.1 0.2 0.6 0.5 0.7 0.4 0.8 0.4 1.5-0.1 0.1 0 0.2 0.1 0.2 0.1-0.2 0.2-0.6 0.7-0.8 0.8-0.3-0.2-0.8-0.5-1.6-0.8l-0.7-0.4c-0.3-0.2-0.7-0.3-0.9-0.5 0-0.1 0-0.2 0.1-0.2l0.2 0.1c0.4 0.1 0.4 0.1 0.8-0.5l1.3-2.4c0.4-0.7 0.3-0.7 0-0.9l-0.2-0.1c0-0.1 0-0.2 0.1-0.2 0.3 0.2 0.6 0.3 0.9 0.5s0.6 0.3 0.9 0.4c0 0.1 0 0.2-0.1 0.2h-0.2c-0.3-0.1-0.4-0.1-0.8 0.6l-1.1 2.1z" clip-path="url(#e)"/><path d="m54.6 98.6c0.5-0.6 0.5-0.6 0.3-0.9l-0.1-0.1c0-0.1 0.1-0.2 0.2-0.1l0.7 0.7 1 1c0.3 0.3 0.7 0.6 0.7 0.7-0.1 0.1-0.4 0.6-0.6 0.8-0.1 0-0.2-0.1-0.2-0.1 0.2-0.4 0.3-0.6 0.1-0.8-0.1-0.2-0.2-0.3-0.4-0.5l-0.4-0.3c-0.2-0.2-0.2-0.2-0.5 0.1l-0.9 0.9c-0.1 0.1-0.1 0.1 0 0.3l0.3 0.2c0.5 0.4 0.6 0.5 0.8 0.3l0.2-0.1c0.1 0 0.2 0.1 0.2 0.2l-0.5 0.5c-0.2 0.2-0.4 0.4-0.5 0.6-0.1 0-0.2-0.1-0.2-0.2l0.2-0.2c0.2-0.3 0.1-0.4-0.4-0.8l-0.3-0.2c-0.1-0.1-0.1-0.1-0.3 0l-0.6 0.7c-0.3 0.3-0.4 0.5-0.4 0.6s0 0.3 0.5 0.7c0.7 0.7 0.9 0.6 1.5 0.4 0.1 0 0.2 0.1 0.1 0.2-0.2 0.2-0.8 0.5-1 0.6l-1.3-1.3-0.6-0.6c-0.2-0.2-0.6-0.5-0.8-0.7 0-0.1 0.1-0.2 0.1-0.2l0.2 0.2c0.3 0.2 0.3 0.2 0.9-0.3l2-2.3z" clip-path="url(#e)"/><path d="m59.2 102.9c0.2-0.2 0.3-0.2 0.1-0.4l-0.2-0.3c-0.4-0.5-0.6-0.7-1.2-0.5-0.1 0-0.1-0.2-0.1-0.2 0.4-0.1 0.8-0.3 1.1-0.4h0.1v0.1c-0.1 0.1-0.1 0.2 0.2 0.6l1.8 2.4c0.2 0.3 0.3 0.4 0.5 0.3 0 0 0.1 0 0.1 0.1v0.1c-0.3 0.1-0.8 0.4-1 0.6-0.1 0-0.2-0.1-0.2-0.2 0.4-0.4 0.4-0.6 0-1.2l-0.2-0.3c-0.1-0.2-0.1-0.2-0.4 0l-2.6 1.9c-0.6 0.5-0.6 0.5-0.4 0.8l0.1 0.2c0 0.1-0.1 0.1-0.2 0.1-0.2-0.4-0.4-0.6-0.6-0.9s-0.4-0.5-0.7-0.9c0-0.1 0.1-0.2 0.2-0.1l0.2 0.2c0.2 0.3 0.3 0.3 0.9-0.2l2.5-1.8z" clip-path="url(#e)"/><path d="m63.3 110c0.3-0.1 0.3-0.1 0.2-0.3l-0.2-0.4c-0.3-0.6-0.4-0.8-1.1-0.8-0.1 0-0.1-0.2 0-0.2 0.4 0 0.9-0.1 1.1-0.2l0.1 0.1v0.1c-0.2 0.1-0.1 0.2 0.1 0.7l1.2 2.8c0.1 0.3 0.2 0.4 0.4 0.4 0 0 0.1 0 0.1 0.1v0.1c-0.3 0.1-0.9 0.2-1.1 0.4-0.1 0-0.1-0.1-0.1-0.2 0.5-0.3 0.6-0.5 0.3-1.2l-0.2-0.4c-0.1-0.2-0.1-0.2-0.4-0.1l-2.9 1.3c-0.7 0.3-0.7 0.4-0.6 0.7l0.1 0.3c0 0.1-0.2 0.1-0.2 0.1-0.2-0.4-0.3-0.7-0.4-1s-0.3-0.6-0.5-1c0-0.1 0.1-0.1 0.2-0.1l0.2 0.3c0.2 0.3 0.2 0.4 0.9 0.1l2.8-1.6z" clip-path="url(#e)"/><path d="m64 115.5c-0.2-0.3-0.3-0.3-0.4-0.2l-0.8 0.7c-0.6 0.5-0.6 0.6-0.4 0.8l0.1 0.2c0 0.1-0.1 0.2-0.2 0.1-0.2-0.3-0.4-0.6-0.6-0.8-0.2-0.3-0.4-0.5-0.6-0.7 0-0.1 0.1-0.2 0.2-0.1l0.1 0.1c0.3 0.2 0.3 0.3 0.9-0.2l2.1-1.7c0.6-0.5 0.6-0.6 0.4-0.9l-0.1-0.1c0-0.1 0.1-0.2 0.2-0.1 0.2 0.3 0.4 0.5 0.6 0.8s0.4 0.5 0.6 0.7c0 0.1-0.1 0.2-0.2 0.1l-0.1-0.1c-0.3-0.2-0.3-0.3-0.9 0.2l-0.7 0.6c-0.2 0.1-0.2 0.2 0.1 0.4l1.1 1.3c0.2 0.3 0.3 0.3 0.4 0.2l0.7-0.6c0.6-0.5 0.6-0.6 0.4-0.9l-0.1-0.1c0-0.1 0.1-0.2 0.2-0.1 0.2 0.3 0.4 0.5 0.6 0.8s0.4 0.5 0.6 0.7c0 0.1-0.1 0.2-0.2 0.1l-0.1-0.1c-0.3-0.2-0.3-0.3-0.9 0.2l-2.1 1.7c-0.6 0.5-0.6 0.6-0.4 0.9l0.1 0.1c0 0.1-0.1 0.2-0.2 0.1-0.2-0.3-0.4-0.5-0.6-0.8s-0.4-0.5-0.6-0.8c0-0.1 0.1-0.2 0.2-0.1l0.1 0.1c0.3 0.2 0.3 0.3 0.9-0.2l0.8-0.7c0.2-0.1 0.2-0.2-0.1-0.4l-1.1-1.2z" clip-path="url(#e)"/><path d="m68.4 118.4c0.4-0.7 0.4-0.7 0.1-0.9l-0.1-0.1c0-0.1 0.1-0.2 0.1-0.2 0.2 0.2 0.5 0.3 0.8 0.5l1.2 0.7c0.4 0.2 0.8 0.5 0.9 0.5 0 0.1-0.3 0.6-0.4 0.9-0.1 0-0.2 0-0.2-0.1 0.1-0.4 0.1-0.6 0-0.8-0.1-0.1-0.3-0.3-0.5-0.4l-0.4-0.3c-0.3-0.2-0.3-0.2-0.5 0.2l-0.6 1.1c-0.1 0.2-0.1 0.2 0 0.3l0.3 0.2c0.5 0.3 0.7 0.4 0.9 0.1l0.2-0.2c0.1 0 0.2 0.1 0.2 0.1-0.1 0.2-0.3 0.4-0.4 0.6s-0.3 0.5-0.4 0.7c-0.1 0-0.2 0-0.2-0.1l0.1-0.3c0.1-0.3 0-0.4-0.5-0.7l-0.3-0.2c-0.1-0.1-0.2-0.1-0.3 0.1l-0.5 0.8c-0.2 0.3-0.3 0.6-0.3 0.7s0.1 0.3 0.6 0.6c0.8 0.5 1 0.4 1.6 0 0.1 0 0.2 0.1 0.2 0.2-0.2 0.2-0.6 0.6-0.8 0.7-0.3-0.2-0.8-0.5-1.5-1l-0.7-0.4c-0.3-0.2-0.7-0.4-1-0.6 0-0.1 0-0.2 0.1-0.2l0.2 0.1c0.3 0.1 0.4 0.2 0.8-0.5l1.3-2.1z" clip-path="url(#e)"/><path d="m72.5 121c0.2-0.7 0.2-0.8-0.1-0.9l-0.2-0.1c0-0.1 0-0.2 0.1-0.2 0.5 0.1 1.1 0.3 1.6 0.5s1 0.4 1.2 0.7c0.3 0.3 0.4 0.7 0.3 1.2-0.2 0.6-0.8 0.8-1.2 0.8 0 0-0.1 0.1 0 0.1 0.2 1.1 0.4 1.8 0.6 2.2 0.1 0.2 0.3 0.3 0.4 0.4v0.1c-0.1 0-0.2 0-0.5-0.1-0.7-0.2-0.9-0.6-1.2-1.4-0.1-0.4-0.2-0.8-0.2-1.1-0.1-0.3-0.1-0.3-0.4-0.4-0.2-0.1-0.2-0.1-0.3 0.1l-0.3 0.9c-0.2 0.7-0.2 0.8 0.1 0.9l0.1 0.1c0 0.1 0 0.2-0.1 0.2-0.3-0.1-0.6-0.2-0.9-0.3s-0.6-0.2-0.9-0.3c0 0 0-0.2 0.1-0.2h0.2c0.3 0.1 0.4 0.1 0.7-0.7l0.9-2.5zm0.5 1.3c-0.1 0.2-0.1 0.2 0.3 0.3 0.7 0.2 1.1 0 1.3-0.7 0.2-0.6 0-1.2-0.6-1.4-0.4-0.1-0.4-0.1-0.5 0.2l-0.5 1.6z" clip-path="url(#e)"/><path d="m76.8 122.5c0.1-0.8 0-0.8-0.3-0.9h-0.1v-0.2c0.3 0 0.6 0.1 0.9 0.1l1.4 0.1c0.5 0 0.9 0.1 1 0.1v1c0 0.1-0.2 0.1-0.2 0-0.1-0.4-0.2-0.6-0.4-0.7s-0.4-0.1-0.6-0.1h-0.5c-0.3 0-0.3 0-0.4 0.4l-0.1 1.2c0 0.2 0 0.2 0.2 0.2h0.4c0.6 0.1 0.8 0.1 0.8-0.3l0.1-0.2h0.2c0 0.2-0.1 0.5-0.1 0.7v0.8h-0.2v-0.3c0-0.3-0.1-0.3-0.8-0.4h-0.4c-0.2 0-0.2 0-0.2 0.2l-0.1 0.9c0 0.4 0 0.6 0.1 0.8 0.1 0.1 0.2 0.2 0.8 0.2 0.9 0.1 1.1-0.1 1.4-0.7 0.1 0 0.2 0 0.2 0.1-0.1 0.3-0.3 0.8-0.4 1-0.3 0-0.9-0.1-1.8-0.2l-0.8-0.1c-0.3 0-0.8-0.1-1.1-0.1-0.1 0-0.1-0.2 0-0.2h0.3c0.3 0 0.4 0 0.5-0.8l0.2-2.6z" clip-path="url(#e)"/><path d="m84.6 122.8c-0.1-0.7-0.2-0.8-0.5-0.7h-0.2c-0.1 0-0.1-0.2 0-0.2 0.3-0.1 0.8-0.3 1.6-0.4 0.6-0.1 1.1-0.2 1.5-0.1s0.6 0.4 0.7 0.8-0.1 0.8-0.6 1.1v0.1h0.1c0.6 0 1.3 0.2 1.4 1 0.1 0.3 0 0.7-0.2 1.1-0.3 0.4-0.7 0.6-1.5 0.8-0.3 0.1-0.6 0.1-0.9 0.2s-0.7 0.1-1 0.2c-0.1 0-0.1-0.1-0.1-0.2l0.2-0.1c0.3-0.1 0.4-0.2 0.2-0.9l-0.7-2.7zm1.4 2.3c0.1 0.7 0.3 0.9 0.9 0.8 0.5-0.1 0.9-0.5 0.7-1.2s-0.8-1.1-1.6-0.9c-0.3 0.1-0.3 0.1-0.3 0.3l0.3 1zm-0.4-1.6c0 0.2 0.1 0.2 0.4 0.1 0.7-0.1 0.9-0.5 0.8-1.1s-0.7-0.8-1.1-0.7-0.4 0.1-0.3 0.4l0.2 1.3z" clip-path="url(#e)"/><path d="m88.9 121.7c-0.4-0.7-0.5-0.6-0.8-0.5l-0.1 0.1c-0.1 0-0.1-0.1-0.1-0.2 0.2-0.1 0.5-0.3 0.8-0.5l1.2-0.8c0.4-0.3 0.8-0.5 0.8-0.6 0.1 0.1 0.4 0.6 0.6 0.8 0 0.1-0.1 0.2-0.2 0.2-0.3-0.3-0.5-0.4-0.8-0.3-0.2 0-0.4 0.2-0.5 0.3l-0.4 0.3c-0.3 0.2-0.3 0.2 0 0.5l0.7 1c0.1 0.2 0.1 0.2 0.3 0.1l0.3-0.2c0.5-0.3 0.6-0.4 0.5-0.7l-0.1-0.2c0-0.1 0.1-0.2 0.2-0.1 0.1 0.2 0.2 0.4 0.4 0.6s0.3 0.4 0.4 0.6c0 0.1-0.1 0.1-0.2 0.1l-0.2-0.2c-0.2-0.2-0.3-0.2-0.9 0.2l-0.3 0.2c-0.1 0.1-0.1 0.1 0 0.3l0.5 0.8c0.2 0.3 0.4 0.5 0.5 0.6 0.1 0 0.3 0 0.8-0.3 0.8-0.5 0.8-0.8 0.7-1.4 0-0.1 0.1-0.1 0.2-0.1 0.1 0.3 0.3 0.8 0.3 1.1-0.3 0.2-0.8 0.5-1.5 1l-0.7 0.5-0.9 0.6c-0.1 0-0.1-0.1-0.1-0.2l0.2-0.2c0.3-0.2 0.3-0.3-0.1-0.9l-1.5-2.5z" clip-path="url(#e)"/><path d="m96.6 104.2c-0.1 0.4-0.1 0.6 0 0.8 0.1 0.1 0.2 0.2 0.8 0.3 0.8 0.1 0.9 0.1 1.4-0.6 0.1 0 0.2 0 0.2 0.1-0.1 0.3-0.3 0.8-0.5 1-0.3-0.1-0.9-0.2-1.7-0.3l-0.8-0.1c-0.4-0.1-0.7-0.1-1-0.1-0.1 0-0.1-0.2 0-0.2h0.2c0.3 0 0.4 0 0.5-0.8l0.4-2.7c0.1-0.8 0.1-0.8-0.3-0.9l-0.2-0.1v-0.2c0.4 0.1 0.7 0.1 1 0.2 0.3 0 0.6 0.1 1 0.1 0.1 0 0 0.2 0 0.2h-0.2c-0.4 0-0.4 0-0.5 0.8l-0.3 2.5z" clip-path="url(#e)"/><path d="m101.1 105.2c-0.2 0.8-0.1 0.8 0.2 0.9l0.2 0.1c0 0.1 0 0.2-0.1 0.2-0.3-0.1-0.6-0.2-1-0.2-0.3-0.1-0.7-0.1-1-0.2-0.1 0 0-0.2 0-0.2h0.2c0.3 0 0.4 0 0.6-0.7l0.5-2.7c0.2-0.8 0.1-0.8-0.2-0.9l-0.2-0.1c0-0.1 0-0.2 0.1-0.2 0.3 0.1 0.6 0.2 1 0.2 0.3 0.1 0.6 0.1 1 0.2 0.1 0 0 0.2 0 0.2h-0.2c-0.3 0-0.4 0-0.6 0.7l-0.5 2.7z" clip-path="url(#e)"/><path d="m106.1 106.9c0 0.3 0 0.5 0.1 0.5v0.1h-0.3-1.1c-0.7-0.1-1.3-0.5-1.7-1.2-0.3-0.5-0.4-1.2-0.3-1.8s0.3-1.2 0.7-1.6c0.5-0.5 1.1-0.6 1.9-0.5 0.3 0.1 0.6 0.2 0.7 0.3s0.3 0.1 0.4 0.1c0 0.2 0 0.6-0.1 1.2 0 0.1-0.2 0-0.2 0 0-0.7-0.4-1.2-1-1.3-1-0.2-1.6 0.6-1.8 1.8-0.1 0.6-0.1 1.2 0.2 1.8 0.2 0.5 0.7 0.8 1 0.9s0.4 0 0.5-0.1c0-0.1 0.1-0.2 0.1-0.4v-0.3c0.1-0.5 0.1-0.6-0.3-0.7l-0.2-0.1v-0.2c0.2 0.1 0.5 0.1 0.9 0.2 0.3 0.1 0.5 0.1 0.7 0.1 0.1 0 0 0.2 0 0.2h-0.1c-0.2 0-0.3 0.1-0.3 0.5l0.2 0.5z" clip-path="url(#e)"/><path d="m109.5 106c-0.3 0-0.3 0-0.3 0.2v1.1c0 0.8 0 0.8 0.3 0.9h0.2v0.2c-0.3 0-0.6-0.1-0.9-0.1h-0.8s-0.1-0.2 0-0.2h0.1c0.3 0 0.3-0.1 0.4-0.8l0.1-2.7c0-0.8 0-0.8-0.3-0.9h-0.1v-0.2c0.3 0 0.6 0 0.8 0.1h0.8v0.2h-0.1c-0.3 0-0.3 0.1-0.4 0.8v0.9c0 0.2 0 0.2 0.3 0.2l1.4 0.1c0.3 0 0.3 0 0.3-0.2v-0.9c0-0.8 0-0.8-0.3-0.9h-0.1v-0.2c0.3 0 0.6 0 0.8 0.1h0.8v0.2h-0.1c-0.3 0-0.3 0.1-0.4 0.8l-0.1 2.7c0 0.8 0 0.8 0.3 0.9h0.1v0.2c-0.3 0-0.5 0-0.8-0.1h-0.8s-0.1-0.2 0-0.2h0.1c0.3 0 0.3 0 0.4-0.8v-1.1c0-0.2 0-0.2-0.3-0.2l-1.4-0.1z" clip-path="url(#e)"/><path d="m115.7 104.4c0-0.3 0-0.3-0.2-0.3h-0.4c-0.6 0-0.8 0.1-1 0.7 0 0-0.2 0-0.2-0.1 0.1-0.4 0.2-0.9 0.3-1.1h0.1 0.1c0 0.2 0.1 0.2 0.5 0.2h2.6c0.3 0 0.4 0 0.5-0.2h0.1 0.1c-0.1 0.3-0.1 0.9-0.1 1.2 0 0.1-0.1 0.1-0.2 0-0.1-0.6-0.2-0.7-0.9-0.7h-0.4c-0.2 0-0.2 0-0.2 0.3l-0.1 3.2c0 0.8 0 0.8 0.3 0.8h0.2v0.2h-0.9-1c-0.1 0-0.1-0.2 0-0.2h0.3c0.3 0 0.4-0.1 0.4-0.8l0.1-3.2z" clip-path="url(#e)"/></g></g><g fill="#ffce00" clip-path="url(#b)"><clipPath id="d"><use xlink:href="#z" height="100%" width="100%" y="0" x="0" overflow="visible"/></clipPath><g fill="#ffce00"><path d="m75.8 15.2c0.3 2.1-1.8 4-4.8 4.4-3.4 0.4-5.5-1.1-5.8-3-0.3-2.2 1.7-4.1 4.9-4.5 3.5-0.5 5.5 1.1 5.7 3.1m-8.6 0.8c0.2 1.5 1.3 3.4 3.9 3.1 1.7-0.2 3-1.3 2.7-3.5-0.2-1.6-1.5-3.4-3.8-3.1-1.5 0.2-3.1 1.2-2.8 3.5" clip-path="url(#d)"/><path d="m83 11.6c1 0 1.8 0 2.1-0.1v1.6c-0.1 0.1-0.3 0.1-0.5 0-0.2-0.6-0.4-1-1-1.1h-1.1-0.8c-0.6 0-0.6 0-0.6 0.6v2c0 0.3 0 0.3 0.4 0.3h0.9c1.3 0 1.5 0 1.7-0.5l0.1-0.4c0.1-0.1 0.4-0.1 0.5 0v1.1c0 0.4 0 0.8 0.1 1.1-0.1 0.1-0.4 0.1-0.5 0l-0.1-0.4c-0.1-0.5-0.4-0.5-1.7-0.5h-0.9c-0.3 0-0.4 0-0.4 0.3v1.5c0 1.2 0.1 1.2 0.9 1.2h0.6c0.1 0.1 0.1 0.3 0 0.3h-2.3c-0.7 0-1.3 0-2 0.1-0.1 0-0.1-0.2 0-0.3h0.3c0.7-0.1 0.8-0.1 0.8-1.3v-4.1c0-1.2-0.1-1.2-0.9-1.3h-0.2c-0.1-0.1-0.1-0.3 0-0.3h1.9l2.7 0.2z" clip-path="url(#d)"/><path d="m50.9 23.4c-0.3-0.5-0.4-0.7-1.1-1l-2.8-1.4c-0.5-0.3-0.7-0.3-1.3-0.1l-0.4 0.1c-0.1 0-0.2-0.2-0.1-0.3 0.6-0.3 1.1-0.6 1.7-0.8 0.6-0.3 1.4-0.7 1.7-0.9 0.1 0 0.2 0.1 0.2 0.3l-0.4 0.3c-0.2 0.1-0.3 0.2-0.2 0.3 0 0.1 0.2 0.2 0.5 0.4 1 0.6 1.9 1.1 2.8 1.5 0.2-1 0.3-2 0.4-3 0.1-0.4 0.1-0.7 0-0.8s-0.2-0.1-0.4 0h-0.4c-0.1 0-0.2-0.2-0.1-0.3l1.4-0.7c0.4-0.2 0.8-0.4 1.3-0.7 0.1 0 0.2 0.1 0.2 0.3l-0.4 0.3c-0.6 0.4-0.6 0.7-0.9 1.9-0.2 0.8-0.3 1.5-0.4 2.3-0.1 0.7-0.1 1 0.2 1.6l0.3 0.6c0.5 1 0.7 1 1.4 0.7l0.5-0.2c0.1 0 0.2 0.2 0.1 0.3l-2 1c-0.6 0.3-1.2 0.6-1.9 1-0.1 0-0.2-0.2-0.2-0.3l0.4-0.3c0.6-0.4 0.7-0.5 0.2-1.5l-0.3-0.6z" clip-path="url(#d)"/><path d="m30.1 43.2c-0.4 0.1-1.1-0.3-1.6-0.7 0-0.1 0.1-0.3 0.3-0.4 0.6 0.2 2 0.3 3-0.8 0.7-0.9 0.8-1.7 0.3-2.1s-1.1-0.4-2.2 0.1l-0.6 0.3c-1.1 0.6-2.2 0.9-3 0.3-0.8-0.7-0.8-2.2 0.6-3.8 0.5-0.6 1-1 1.5-1.4 0.3 0 0.9 0.4 1.3 0.7 0 0.1-0.1 0.3-0.3 0.4-0.6-0.2-1.5-0.3-2.3 0.7-0.8 0.9-0.7 1.7-0.2 2 0.4 0.3 1 0.3 1.9-0.2l0.9-0.5c0.9-0.5 2.1-0.9 3-0.2 1 0.8 0.8 2.4-0.6 4.1-0.9 0.9-1.7 1.3-2 1.5" clip-path="url(#d)"/><path d="m37.1 33.8c0.8 0.8 0.9 0.8 1.5 0.3l0.3-0.2c0.1 0 0.3 0.1 0.2 0.3-0.5 0.4-1 0.9-1.5 1.4l-1.4 1.4c-0.1 0.1-0.3-0.1-0.2-0.2l0.2-0.3c0.5-0.5 0.5-0.7-0.3-1.5l-2.9-3c-0.8-0.8-0.9-0.8-1.5-0.3l-0.3 0.2c-0.1 0-0.3-0.1-0.2-0.3 0.5-0.4 1-0.9 1.5-1.4s1-0.9 1.4-1.4c0.1-0.1 0.3 0.1 0.2 0.2l-0.1 0.3c-0.5 0.5-0.5 0.7 0.3 1.5l2.8 3z" clip-path="url(#d)"/><path d="m39.6 25.5c-0.3-0.4-0.3-0.4-0.6-0.2l-0.7 0.5c-1.1 0.8-1.4 1.1-1.3 2.2 0 0.1-0.3 0.3-0.4 0.2-0.1-0.6-0.3-1.3-0.5-1.7 0 0 0-0.1 0.1-0.1l0.1-0.1c0.2 0.2 0.4 0.1 1.2-0.5l5-3.5c0.6-0.4 0.8-0.6 0.8-0.9 0-0.1 0.1-0.1 0.1-0.1 0.1-0.1 0.1-0.1 0.2-0.1 0.1 0.5 0.6 1.3 0.8 1.6 0 0.1-0.2 0.3-0.4 0.3-0.7-0.6-1-0.6-2.3 0.3l-0.7 0.5c-0.3 0.2-0.3 0.3-0.1 0.6l2.7 3.9c0.7 0.9 0.8 0.9 1.4 0.5l0.5-0.3c0.1 0 0.2 0.2 0.2 0.3-0.7 0.5-1.3 0.9-1.8 1.3s-1.1 0.8-1.9 1.4c-0.1 0-0.3-0.1-0.2-0.2l0.5-0.4c0.6-0.4 0.6-0.5 0-1.5l-2.7-4z" clip-path="url(#d)"/><path d="m23.1 110.2c0.7-0.4 0.9-1.2 0.6-1.9-0.4-0.7-1.3-1-1.9-0.6s-0.9 1.2-0.5 1.9c0.3 0.7 1.2 1 1.8 0.6" clip-path="url(#d)"/><path d="m60.1 141.4c-0.4-0.1-0.4-0.1-0.6 0.1l-0.9 1.1c-0.5 0.5-0.4 0.6 0.1 0.8l0.4 0.2c0.1 0.1 0 0.3-0.1 0.3-0.5-0.1-0.9-0.3-1.5-0.5-0.5-0.1-0.9-0.2-1.4-0.4-0.1-0.1-0.1-0.2 0.1-0.3l0.4 0.1c0.4 0.1 0.6 0 0.9-0.3l1.1-1.1 3-3.2c0.3-0.3 0.5-0.5 0.5-0.7 0.5 0.1 1.1-0.2 1.2-0.2s0.2 0.1 0.2 0.2c0.1 0.5 0.2 1.1 0.3 1.6l0.9 5c0.1 0.8 0.2 0.9 0.9 1.2l0.2 0.1c0.1 0.1 0 0.3-0.1 0.3-0.6-0.2-1.1-0.3-1.9-0.5-0.6-0.2-1.3-0.3-1.8-0.5-0.1-0.1-0.1-0.3 0-0.3l0.3 0.1c0.5 0.1 0.6 0 0.5-0.5l-0.3-1.6c-0.1-0.3-0.1-0.3-0.5-0.5l-1.9-0.5zm1.8 0c0.4 0.1 0.5 0.1 0.4-0.2l-0.3-1.4c-0.1-0.6-0.1-0.9-0.2-0.9l-0.7 0.7-0.9 1.1c-0.2 0.3-0.2 0.3 0.1 0.4l1.6 0.3z" clip-path="url(#d)"/><path d="m53 134.6c0.2-0.4 0.2-0.4-0.2-0.6l-0.8-0.4c-1.2-0.6-1.7-0.7-2.6-0.1-0.1 0-0.4-0.2-0.4-0.3 0.5-0.4 1-0.9 1.2-1.2h0.2c0.1 0 0.1 0.1 0.1 0.1-0.1 0.3 0.1 0.4 1.1 0.8l5.5 2.7c0.7 0.3 0.9 0.4 1.2 0.2h0.2c0.1 0 0.1 0.1 0.2 0.1-0.3 0.3-0.8 1.1-1 1.5-0.1 0-0.3 0-0.4-0.2 0.2-0.9 0-1.2-1.4-1.9l-0.8-0.4c-0.4-0.2-0.4-0.2-0.6 0.3l-2.1 4.3c-0.5 1.1-0.4 1.1 0.2 1.5l0.5 0.3c0.1 0.1 0 0.3-0.2 0.3l-2-1c-0.6-0.3-1.2-0.6-2.1-1-0.1-0.1 0-0.3 0.1-0.3l0.6 0.2c0.7 0.3 0.8 0.3 1.3-0.8l2.2-4.1z" clip-path="url(#d)"/><path d="m44.2 135c-0.2 0.3-1 1.4-1.1 1.6-0.2 0-0.4-0.1-0.5-0.2-0.1-0.3-0.2-0.9-0.6-2.2l-1.2-4.4c-0.3-1.2-0.5-1.8-0.6-2.1 0 0-0.1 0.1-0.4 0.5l-1.2 1.8c-0.5 0.7-1 1.5-1 1.9 0 0.2 0.2 0.4 0.5 0.7l0.3 0.2c0.1 0.1-0.1 0.3-0.2 0.2-0.4-0.3-0.9-0.7-1.4-1-0.5-0.4-0.9-0.6-1.3-0.9-0.1-0.1 0-0.3 0.2-0.3l0.3 0.1c0.3 0.1 0.5 0.3 0.7 0.2 0.4-0.2 0.9-0.9 1.4-1.7l1.5-2.1c0.5-0.7 0.6-0.8 0.4-1.4-0.1-0.2-0.4-0.5-0.5-0.6l-0.2-0.2c0-0.1 0.1-0.3 0.2-0.2 0.4 0.4 1.1 0.8 1.4 1l0.9 0.6c-0.1 0.5 0.5 2.6 0.7 3.3l0.6 1.8c0.2 0.8 0.7 2.5 0.8 2.7 0.1 0 0.1 0 0.2-0.2l1.2-1.8c0.5-0.7 1-1.5 1-1.9 0-0.2-0.2-0.4-0.5-0.7l-0.3-0.2c-0.1-0.1 0.1-0.3 0.2-0.2 0.5 0.4 0.9 0.7 1.4 1 0.5 0.4 0.9 0.6 1.3 0.9 0.1 0.1 0 0.3-0.2 0.3l-0.3-0.2c-0.3-0.1-0.5-0.2-0.7-0.2-0.4 0.2-0.9 0.9-1.4 1.7l-1.6 2.2z" clip-path="url(#d)"/><path d="m31.5 122.9c-0.3-0.3-0.3-0.3-0.6-0.2l-1.4 0.4c-0.7 0.2-0.7 0.3-0.3 0.7l0.3 0.4c0 0.1-0.1 0.3-0.3 0.2-0.3-0.4-0.6-0.7-1.1-1.2-0.3-0.4-0.7-0.7-1-1.1 0-0.1 0.1-0.2 0.2-0.2l0.3 0.3c0.3 0.3 0.5 0.3 0.9 0.3 0.3-0.1 0.8-0.2 1.5-0.4l4.3-1.1c0.4-0.1 0.7-0.2 0.8-0.3 0.4 0.3 1.1 0.4 1.1 0.4 0.1 0.1 0.1 0.2 0.1 0.2l-0.6 1.5-1.9 4.7c-0.3 0.8-0.3 0.9 0.1 1.5l0.1 0.2c0 0.1-0.1 0.3-0.2 0.2-0.4-0.5-0.8-0.9-1.3-1.5-0.4-0.5-0.9-0.9-1.3-1.3 0-0.1 0.1-0.3 0.2-0.2l0.2 0.2c0.4 0.4 0.5 0.4 0.7-0.1l0.6-1.5c0.1-0.3 0.1-0.3-0.2-0.7l-1.2-1.4zm1.6 0.9c0.3 0.3 0.3 0.3 0.5 0.1l0.5-1.4c0.3-0.6 0.3-0.8 0.4-0.9-0.1 0-0.4 0.1-0.9 0.3l-1.4 0.4c-0.3 0.1-0.3 0.1-0.1 0.4l1 1.1z" clip-path="url(#d)"/><path d="m22.8 115.7c0-0.4 0.6-0.9 1.1-1.3 0.1 0 0.3 0.2 0.3 0.4-0.3 0.5-0.8 1.9 0 3.1 0.6 0.9 1.4 1.2 2 0.8 0.5-0.4 0.7-1 0.5-2.2l-0.1-0.7c-0.3-1.2-0.3-2.4 0.6-2.9 0.9-0.6 2.3-0.2 3.5 1.6 0.4 0.6 0.7 1.2 1 1.8-0.1 0.3-0.6 0.8-1 1.1-0.1 0-0.3-0.2-0.3-0.4 0.3-0.5 0.7-1.4-0.1-2.4-0.7-1-1.4-1.1-1.9-0.8-0.4 0.3-0.5 0.9-0.3 1.9l0.2 1c0.2 1 0.3 2.3-0.6 2.9-1 0.7-2.5 0.1-3.7-1.7-1-1-1.1-1.8-1.2-2.2" clip-path="url(#d)"/><path d="m17.3 76.5c1.2 0 1.2-0.1 1.3-0.8v-0.3c0.1-0.1 0.3-0.1 0.3 0v2 2c0 0.1-0.2 0.1-0.3 0v-0.3c-0.1-0.7-0.1-0.8-1.3-0.8h-4.1c-1.2 0-1.2 0.1-1.3 0.8v0.3c-0.1 0.1-0.3 0.1-0.3 0v-2-2c0-0.1 0.2-0.1 0.3 0v0.3c0.1 0.7 0.1 0.8 1.3 0.8h4.1z" clip-path="url(#d)"/><path d="m18 104c-1.1 0.3-1.1 0.5-1 1.2v0.3c0 0.1-0.2 0.2-0.3 0.1-0.1-0.6-0.3-1.2-0.5-1.9s-0.4-1.3-0.6-1.9c0-0.1 0.2-0.2 0.3-0.1l0.1 0.3c0.3 0.7 0.3 0.8 1.5 0.4l2.4-0.7c1.5-0.4 2.5-1.4 1.9-3.4-0.6-1.9-1.8-2.4-3.4-1.9l-1.3 0.4c-0.8 0.2-1.8 0.5-2 0.9-0.1 0-0.1 0.3 0 0.7l0.1 0.3c0 0.2-0.2 0.2-0.3 0.1-0.1-0.5-0.3-1-0.4-1.6-0.2-0.6-0.3-1-0.5-1.5 0-0.1 0.2-0.2 0.3-0.1l0.1 0.3c0.1 0.3 0.2 0.5 0.4 0.6 0.4 0.1 1.3-0.2 2.1-0.4l1.3-0.4c1-0.3 1.9-0.3 2.7 0.2 0.8 0.6 1.3 1.6 1.6 2.6 0.4 1.4 0.5 2.4 0.2 3.2s-0.9 1.3-2 1.6l-2.7 0.7z" clip-path="url(#d)"/><path d="m17.4 83c0.3 0 1.7-0.2 1.9-0.3 0.1 0.1 0.2 0.3 0.2 0.5-0.2 0.3-0.5 0.7-1.3 1.9l-2.4 3.9c-0.7 1.1-1 1.6-1.2 1.9h0.7l2.1-0.3c0.8-0.1 1.8-0.2 2.1-0.5 0.1-0.2 0.2-0.4 0.2-0.8v-0.3c0.1-0.1 0.3-0.2 0.3 0 0 0.6 0.1 1.1 0.2 1.7s0.1 1 0.2 1.6c0 0.1-0.2 0.2-0.3 0.1l-0.1-0.5c-0.1-0.3-0.1-0.5-0.3-0.6-0.4-0.2-1.3 0-2.2 0.1l-2.5 0.2c-0.9 0.1-1 0.1-1.3 0.7-0.1 0.2-0.1 0.6-0.1 0.8v0.2c-0.1 0.1-0.3 0.1-0.3 0 0-0.6-0.1-1.4-0.2-1.8 0-0.3-0.1-0.7-0.2-1 0.4-0.3 1.6-2.1 2-2.7l1-1.6c0.4-0.7 1.4-2.2 1.5-2.4h-0.3l-2.1 0.3c-0.8 0.1-1.8 0.2-2.1 0.5-0.1 0.2-0.2 0.4-0.2 0.8v0.3c-0.1 0.1-0.3 0.2-0.3 0 0-0.6-0.1-1.1-0.2-1.7s-0.1-1-0.2-1.6c0-0.1 0.2-0.2 0.3-0.1l0.1 0.3c0.1 0.3 0.1 0.5 0.3 0.6 0.4 0.2 1.3 0.1 2.2-0.1l2.5-0.1z" clip-path="url(#d)"/><path d="m17.5 67.4c0.9 0.7 2.1 1.6 2.6 1.9v0.3c0 0.1-0.1 0.2-0.1 0.3-0.5 0.1-1 0.3-1.5 0.5l-4.9 2c-0.8 0.3-1 0.4-1.1 1l-0.1 0.3c-0.1 0.1-0.3 0.1-0.3-0.1l0.3-1.8c0.1-0.7 0.2-1.2 0.2-2 0.1-0.1 0.3-0.1 0.3 0v0.4c0 0.3 0 0.5 0.1 0.5s0.4-0.1 1.6-0.5l2.1-0.8c0.5-0.2 1.2-0.5 1.5-0.6-1.3-1-2.6-2.1-4-3.1-0.4-0.3-0.5-0.3-0.6 0.2l-0.1 0.4c-0.1 0.1-0.3 0.1-0.3-0.1 0.1-0.6 0.2-1.1 0.3-1.6s0.1-1 0.2-1.5c0.1-0.1 0.2-0.1 0.3 0v0.4c0 0.4 0 0.7 0.3 1 0.5 0.5 1.1 1 2.1 1.8l1.1 1.1z" clip-path="url(#d)"/><path d="m15.9 59.9c-1.1-0.4-1.2-0.2-1.5 0.4l-0.1 0.2c-0.1 0.1-0.3 0-0.3-0.1 0.2-0.5 0.4-1.2 0.6-1.8l0.9-2.7c0.3-0.9 0.6-1.7 0.6-1.9 0.2 0 1 0.2 1.5 0.2 0.1 0.1 0 0.4-0.1 0.5-0.7 0-1 0.2-1.2 0.6-0.2 0.3-0.3 0.7-0.5 1.1l-0.3 1c-0.2 0.6-0.2 0.6 0.4 0.8l1.8 0.6c0.3 0.1 0.3 0.1 0.4-0.2l0.2-0.7c0.4-1.2 0.5-1.5 0.1-1.7l-0.3-0.2c0-0.1 0.1-0.4 0.2-0.5 0.3 0.1 0.6 0.3 1 0.4s0.8 0.2 1.1 0.3c0 0.1 0 0.4-0.1 0.5h-0.5c-0.5 0-0.6 0.2-1 1.4l-0.2 0.7c-0.1 0.3-0.1 0.3 0.2 0.4l1.3 0.4c0.5 0.2 0.9 0.3 1.2 0.1 0.2-0.1 0.4-0.3 0.8-1.5 0.6-1.8 0.4-2.2-0.3-3 0-0.2 0.1-0.4 0.2-0.4 0.4 0.2 1.1 0.8 1.3 1.1-0.2 0.6-0.6 1.8-1.2 3.5l-0.5 1.6c-0.2 0.6-0.5 1.5-0.7 2.2-0.1 0.1-0.3 0.1-0.3-0.1l0.1-0.5c0.2-0.7 0.2-0.8-0.9-1.2l-3.9-1.5z" clip-path="url(#d)"/><path d="m19.9 49.7c-0.9-0.5-1-0.6-1.4 0l-0.2 0.3c-0.1 0.1-0.3 0-0.3-0.2 0.4-0.9 1-2 1.6-3.1 0.6-1 1.2-1.9 1.7-2.3 0.6-0.5 1.4-0.8 2-0.4 0.9 0.5 0.8 1.7 0.6 2.4 0 0.1 0.1 0.1 0.2 0.1 1.9-0.3 3.1-0.5 3.8-0.9 0.4-0.2 0.7-0.6 0.8-0.7 0.1 0 0.2 0 0.2 0.1-0.1 0.2-0.2 0.4-0.4 0.9-0.7 1.3-1.5 1.7-2.8 2-0.6 0.1-1.3 0.2-1.9 0.3-0.4 0.1-0.5 0.2-0.8 0.6-0.2 0.4-0.2 0.4 0 0.5l1.2 0.7c1 0.6 1.1 0.5 1.5-0.1l0.2-0.3c0.1-0.1 0.3 0.1 0.3 0.2-0.3 0.6-0.7 1.1-1 1.7s-0.7 1.2-1 1.8c-0.1 0.1-0.3 0-0.3-0.1l0.1-0.3c0.3-0.6 0.3-0.8-0.7-1.4l-3.4-1.8zm2.3-0.7c0.3 0.2 0.3 0.2 0.7-0.4 0.7-1.3 0.6-2.1-0.3-2.6-0.8-0.4-1.8-0.1-2.4 1-0.4 0.7-0.4 0.7 0.1 1l1.9 1z" clip-path="url(#d)"/><path d="m137.1 108.2c0.7-0.3 1-1.1 0.7-1.9-0.3-0.7-1.1-1-1.8-0.7s-1 1.1-0.7 1.8c0.3 0.8 1.1 1.1 1.8 0.8" clip-path="url(#d)"/><path d="m106.5 19c-0.1 0-0.4 0-0.5-0.2 0-0.7-0.3-1.8-2.1-2.6-1.8-0.7-3.9-0.5-4.8 1.6-0.8 2.2 0.6 4 2.4 4.7s2.9 0.1 3.5-0.4c0.2 0 0.4 0.1 0.4 0.2-0.4 0.6-1 1.2-1.3 1.3-0.2 0-0.4-0.1-0.5-0.1-0.3 0-1.4-0.2-2.3-0.6-1.4-0.5-2.5-1.2-3.3-2.1-0.9-1-1.4-2.2-0.9-3.6 0.5-1.2 1.6-1.8 2.8-2 1.3-0.2 2.8 0.1 4.2 0.6 0.8 0.3 1.7 0.8 2.3 1.2 0.2 0.1 0.3 0.1 0.4 0.2 0 0.4-0.2 1-0.3 1.8" clip-path="url(#d)"/><path d="m110.2 24.2c-0.3-0.2-0.3-0.2-0.6 0l-1.2 0.8c-0.6 0.4-0.6 0.5-0.1 0.8l0.3 0.3c0.1 0.1-0.1 0.3-0.2 0.3-0.4-0.3-0.8-0.5-1.4-0.8-0.4-0.3-0.8-0.5-1.3-0.7-0.1-0.1 0-0.3 0.1-0.3l0.4 0.2c0.4 0.2 0.6 0.2 1 0 0.3-0.2 0.7-0.4 1.3-0.8l3.8-2.3c0.3-0.2 0.6-0.4 0.7-0.5 0.5 0.2 1.1 0.1 1.2 0.1 0.1 0.1 0.2 0.1 0.2 0.2 0 0.5-0.1 1.1-0.2 1.6l-0.5 5.1c-0.1 0.8 0 0.9 0.6 1.4l0.2 0.1c0.1 0.1 0 0.3-0.1 0.3-0.5-0.3-1-0.6-1.7-1-0.6-0.3-1.1-0.6-1.6-0.9-0.1-0.1 0-0.3 0.1-0.3l0.3 0.1c0.5 0.2 0.6 0.2 0.6-0.3l0.1-1.6c0-0.3 0-0.4-0.4-0.6l-1.6-1.2zm1.8 0.5c0.4 0.2 0.4 0.2 0.5-0.1l0.1-1.5c0.1-0.6 0.1-0.9 0.1-1-0.1 0-0.3 0.2-0.8 0.5l-1.2 0.8c-0.3 0.2-0.3 0.2 0 0.4l1.3 0.9z" clip-path="url(#d)"/><path d="m119.7 31.6c-0.4 0.4-0.6 0.7-0.6 1 0 0.2 0.1 0.5 1 1.3 1.2 1.2 1.4 1.3 2.7 0.9 0.1 0.1 0.3 0.3 0.3 0.4-0.4 0.3-1.2 0.6-1.6 0.7-0.4-0.5-1.4-1.4-2.6-2.5l-1.1-1.1c-0.6-0.5-1.1-1-1.6-1.5-0.1-0.1 0.1-0.3 0.2-0.3l0.4 0.3c0.6 0.4 0.7 0.5 1.5-0.3l2.8-3c0.8-0.8 0.7-0.9 0.3-1.5l-0.3-0.3c0-0.1 0.1-0.3 0.2-0.2l1.5 1.5c0.5 0.5 1 0.9 1.5 1.4 0.1 0.1-0.1 0.3-0.2 0.3l-0.3-0.2c-0.6-0.4-0.7-0.5-1.5 0.3l-2.6 2.8z" clip-path="url(#d)"/><path d="m127.1 39.4c-0.9 0.7-0.9 0.8-0.5 1.4l0.2 0.3c0 0.1-0.2 0.2-0.3 0.2-0.4-0.5-0.8-1.1-1.2-1.6s-0.9-1.1-1.3-1.6c0-0.1 0.1-0.3 0.2-0.2l0.2 0.2c0.5 0.5 0.6 0.6 1.5-0.1l3.2-2.5c0.9-0.7 0.9-0.8 0.5-1.4l-0.2-0.3c0-0.1 0.2-0.2 0.3-0.2 0.4 0.5 0.8 1.1 1.2 1.6s0.8 1 1.3 1.6c0 0.1-0.1 0.3-0.2 0.2l-0.2-0.2c-0.5-0.5-0.6-0.6-1.5 0.1l-3.2 2.5z" clip-path="url(#d)"/><path d="m137.4 44.1c0.5 0.8 1 1.5 1.2 1.8-0.2 0.1-0.9 0.6-1.3 0.9-0.1 0-0.3-0.2-0.3-0.4 0.5-0.5 0.6-0.8 0.4-1.4-0.2-0.4-0.3-0.7-0.6-1.1l-0.4-0.7c-0.3-0.5-0.4-0.5-0.9-0.2l-1.7 1c-0.2 0.1-0.2 0.2-0.1 0.5l0.5 0.8c0.7 1.1 0.8 1.3 1.3 1.2l0.4-0.1c0.1 0 0.3 0.3 0.2 0.4l-1 0.5c-0.3 0.2-0.7 0.5-0.9 0.6-0.1 0-0.3-0.3-0.2-0.4l0.3-0.3c0.3-0.4 0.2-0.6-0.5-1.7l-0.5-0.8c-0.2-0.3-0.2-0.3-0.4-0.1l-1.3 0.8c-1 0.6-0.9 0.8-0.6 1.4l0.3 0.6c0 0.1-0.2 0.2-0.3 0.1-0.5-0.8-0.8-1.4-1.2-2s-0.7-1.1-1.1-1.7c0-0.1 0.1-0.2 0.3-0.2l0.2 0.3c0.4 0.6 0.5 0.7 1.5 0l3.5-2.2c1-0.6 0.9-0.7 0.6-1.4l-0.1-0.2c0-0.1 0.2-0.2 0.3-0.1 0.3 0.5 0.6 1 1 1.6l1.4 2.5z" clip-path="url(#d)"/><path d="m140.1 59.5c-2 0.7-4.3-0.8-5.4-3.7-1.2-3.2-0.2-5.6 1.6-6.3 2.1-0.8 4.4 0.8 5.5 3.7 1.3 3.3 0.2 5.6-1.7 6.3m-2.7-8.2c-1.4 0.5-3.1 2.1-2.2 4.5 0.6 1.6 1.9 2.6 4 1.8 1.6-0.6 3-2.2 2.2-4.4-0.5-1.4-1.8-2.7-4-1.9" clip-path="url(#d)"/><path d="m143.3 62.8c1-0.2 1.2-0.2 1.1-0.9v-0.4c0.1-0.1 0.2-0.1 0.3 0 0.2 0.9 0.5 2.2 0.7 3.4s0.3 2.2 0.1 2.9c-0.2 0.8-0.6 1.4-1.4 1.6-1 0.2-1.7-0.8-2-1.5 0-0.1-0.1 0-0.2 0-1.3 1.4-2 2.3-2.3 3.1-0.2 0.5-0.2 0.9-0.2 1.1 0 0.1-0.1 0.1-0.2 0.1-0.1-0.2-0.1-0.4-0.2-1-0.3-1.4 0-2.3 0.9-3.3 0.4-0.5 0.9-1 1.3-1.4 0.3-0.3 0.3-0.5 0.2-1-0.1-0.4-0.1-0.5-0.3-0.4l-1.4 0.2c-1.1 0.2-1.2 0.3-1.1 1v0.3c-0.1 0.1-0.3 0.1-0.3 0-0.1-0.7-0.2-1.3-0.3-2s-0.2-1.3-0.4-2c0-0.1 0.2-0.2 0.3-0.1l0.1 0.3c0.2 0.7 0.2 0.8 1.4 0.6l3.9-0.6zm-1.3 2c-0.3 0.1-0.4 0.1-0.2 0.8 0.3 1.5 0.9 2 1.9 1.9 0.9-0.1 1.5-1 1.2-2.3-0.1-0.8-0.2-0.8-0.7-0.7l-2.2 0.3z" clip-path="url(#d)"/><path d="m141.3 83c-0.3 0-1.7 0-1.9 0.1-0.1-0.1-0.2-0.3-0.2-0.5 0.2-0.2 0.6-0.7 1.5-1.8l2.9-3.5c0.8-1 1.2-1.5 1.4-1.7h-0.7-2.1c-0.8 0-1.8 0-2.2 0.3-0.2 0.1-0.2 0.4-0.3 0.8v0.3c-0.1 0.1-0.3 0.1-0.3 0v-1.7-1.6c0.1-0.1 0.2-0.2 0.3 0l0.1 0.3c0 0.3 0.1 0.6 0.3 0.7 0.3 0.2 1.3 0.2 2.2 0.2h2.6c0.9 0 1 0 1.3-0.5 0.1-0.2 0.2-0.6 0.2-0.8v-0.2c0.1-0.1 0.3-0.1 0.3 0.1v1.8 1c-0.5 0.3-1.8 1.9-2.3 2.4l-1.2 1.5c-0.5 0.6-1.7 2-1.7 2.2h0.3 2.1c0.8 0 1.8 0 2.2-0.3 0.2-0.1 0.2-0.4 0.3-0.8v-0.3c0.1-0.1 0.3-0.1 0.3 0v1.7 1.6c-0.1 0.1-0.2 0.2-0.3 0l-0.1-0.3c0-0.3-0.1-0.5-0.3-0.6-0.3-0.2-1.3-0.2-2.2-0.2l-2.5-0.2z" clip-path="url(#d)"/><path d="m140.4 89.2c-1.1-0.2-1.2-0.1-1.4 0.6l-0.1 0.3c-0.1 0.1-0.3 0-0.3-0.1 0.1-0.6 0.3-1.3 0.4-2s0.2-1.4 0.3-2c0.1-0.1 0.3-0.1 0.3 0v0.3c-0.1 0.7-0.1 0.8 1.1 1.1l4 0.7c1.1 0.2 1.2 0.1 1.4-0.6l0.1-0.3c0.1-0.1 0.3 0 0.3 0.1-0.1 0.6-0.3 1.3-0.4 2s-0.2 1.3-0.3 2c-0.1 0.1-0.3 0.1-0.3 0v-0.3c0.1-0.7 0.1-0.8-1.1-1.1l-4-0.7z" clip-path="url(#d)"/><path d="m140 95.7c0.1-0.4 0.1-0.4-0.1-0.6l-1-1c-0.5-0.5-0.6-0.4-0.8 0.1l-0.2 0.4c-0.1 0.1-0.3 0-0.3-0.1 0.2-0.4 0.3-0.9 0.5-1.5 0.2-0.5 0.3-0.9 0.5-1.4 0.1-0.1 0.2 0 0.3 0.1l-0.1 0.4c-0.1 0.4-0.1 0.6 0.2 0.9 0.2 0.3 0.6 0.6 1 1.1l3 3.2c0.3 0.3 0.5 0.5 0.7 0.5-0.1 0.5 0.2 1.1 0.2 1.2s-0.1 0.2-0.2 0.2c-0.5 0.1-1.1 0.1-1.6 0.2l-5.1 0.6c-0.8 0.1-0.9 0.1-1.2 0.8l-0.1 0.2c-0.1 0.1-0.3 0-0.3-0.1 0.2-0.6 0.4-1.1 0.7-1.8l0.6-1.8c0.1-0.1 0.3 0 0.3 0.1l-0.1 0.3c-0.1 0.5-0.1 0.6 0.4 0.6l1.6-0.2c0.3 0 0.3-0.1 0.5-0.5l0.6-1.9zm-0.1 1.9c-0.1 0.4-0.1 0.5 0.2 0.4l1.5-0.2c0.6-0.1 0.9-0.1 1-0.1l-0.7-0.7-1-1c-0.2-0.3-0.3-0.2-0.4 0.1l-0.6 1.5z" clip-path="url(#d)"/><path d="m59.6 19.3c0.7-0.4 1-1.2 0.7-1.9s-1.1-1-1.9-0.7c-0.7 0.4-1 1.2-0.7 1.9 0.4 0.7 1.3 1 1.9 0.7" clip-path="url(#d)"/><path d="m91.9 17.2c0.7-0.4 1-1.2 0.7-1.9s-1.1-1-1.9-0.7c-0.7 0.4-1 1.2-0.7 1.9 0.4 0.7 1.3 1 1.9 0.7" clip-path="url(#d)"/><path d="m132.5 117.2c-0.2 0.3-0.2 0.3 0 0.6l0.7 1.2c0.4 0.6 0.4 0.6 0.8 0.2l0.3-0.3c0.1 0 0.3 0.1 0.2 0.2-0.3 0.4-0.6 0.8-0.9 1.3-0.3 0.4-0.5 0.8-0.8 1.2-0.1 0.1-0.2 0-0.3-0.2l0.2-0.4c0.2-0.4 0.2-0.6 0-1-0.1-0.3-0.4-0.8-0.7-1.4l-2.1-3.9c-0.2-0.4-0.3-0.6-0.5-0.7 0.2-0.5 0.1-1.1 0.2-1.2l0.2-0.2c0.5 0.1 1.1 0.2 1.6 0.3l5 0.8c0.8 0.1 0.9 0.1 1.4-0.5l0.2-0.2c0.1-0.1 0.3 0 0.3 0.2-0.4 0.5-0.7 1-1.1 1.6-0.4 0.5-0.7 1.1-1 1.5-0.1 0.1-0.3 0-0.3-0.1l0.2-0.3c0.3-0.5 0.2-0.5-0.3-0.6l-1.6-0.3c-0.3 0-0.4 0-0.6 0.3l-1.1 1.9zm0.6-1.8c0.2-0.3 0.3-0.4 0-0.5l-1.4-0.2c-0.6-0.1-0.8-0.2-1-0.1 0 0.1 0.2 0.3 0.5 0.9l0.7 1.2c0.2 0.3 0.2 0.3 0.4 0l0.8-1.3z" clip-path="url(#d)"/><path d="m85.7 143.8c-0.4 0-0.4 0-0.5 0.4l-0.4 1.4c-0.2 0.7-0.2 0.7 0.4 0.7h0.4c0.1 0.1 0.1 0.3 0 0.3-0.5 0-1 0.1-1.6 0.2-0.5 0.1-1 0.1-1.5 0.2-0.1 0-0.1-0.2-0.1-0.3l0.4-0.1c0.4-0.1 0.6-0.2 0.8-0.6 0.1-0.3 0.3-0.8 0.6-1.4l1.6-4.1c0.2-0.4 0.3-0.7 0.2-0.8 0.5-0.1 1-0.7 1-0.7 0.1 0 0.2 0 0.3 0.1 0.3 0.5 0.6 0.9 0.9 1.4l2.7 4.3c0.4 0.7 0.5 0.8 1.3 0.8h0.2c0.1 0.1 0.2 0.2 0.1 0.3-0.6 0.1-1.2 0.1-1.9 0.2-0.6 0.1-1.3 0.2-1.8 0.3-0.1 0-0.2-0.2-0.1-0.3l0.3-0.1c0.5-0.1 0.6-0.2 0.3-0.6l-0.9-1.4c-0.2-0.3-0.2-0.3-0.6-0.2h-2.1zm1.7-0.7c0.4-0.1 0.5-0.1 0.3-0.3l-0.8-1.2c-0.3-0.5-0.4-0.7-0.5-0.8-0.1 0.1-0.1 0.4-0.3 0.9l-0.5 1.4c-0.1 0.3-0.1 0.3 0.3 0.3l1.5-0.3z" clip-path="url(#d)"/><path d="m94.7 139.5c-0.3-1-0.4-1.1-1.1-1l-0.4 0.1c-0.1 0-0.2-0.2-0.1-0.3 0.9-0.3 2.1-0.7 3.3-1.1 1.1-0.3 2.1-0.5 2.8-0.5 0.8 0.1 1.5 0.4 1.7 1.1 0.3 1-0.6 1.8-1.2 2.2-0.1 0.1 0 0.1 0.1 0.2 1.6 1.1 2.6 1.7 3.4 1.9 0.5 0.1 0.9 0.1 1.1 0 0.1 0 0.1 0.1 0.1 0.2-0.2 0.1-0.4 0.2-0.9 0.4-1.4 0.4-2.3 0.2-3.4-0.5-0.5-0.3-1.1-0.8-1.6-1.1-0.4-0.2-0.5-0.2-1-0.1-0.4 0.1-0.4 0.1-0.4 0.4l0.4 1.3c0.3 1.1 0.5 1.1 1.2 1l0.3-0.1c0.1 0 0.2 0.2 0.1 0.3-0.6 0.2-1.3 0.4-1.9 0.6s-1.3 0.4-1.9 0.6c-0.1 0-0.2-0.2-0.1-0.3l0.3-0.1c0.7-0.3 0.8-0.3 0.4-1.5l-1.2-3.7zm2.1 1c0.1 0.3 0.1 0.4 0.8 0.1 1.4-0.4 1.9-1.1 1.6-2.1-0.3-0.8-1.2-1.3-2.5-0.9-0.7 0.2-0.8 0.3-0.6 0.7l0.7 2.2z" clip-path="url(#d)"/><path d="m105.2 135.8c-0.4-1-0.5-1.1-1.2-0.8l-0.4 0.1c-0.1 0-0.2-0.2-0.1-0.3 0.6-0.3 1.6-0.8 3.1-1.5 1.2-0.5 2.1-0.8 2.8-0.8 0.8 0 1.3 0.3 1.5 0.9 0.3 0.6-0.1 1.3-1 2-0.1 0-0.1 0.1-0.1 0.1h0.1c1.1-0.3 2.5-0.4 3 0.8 0.2 0.5 0.2 1.1-0.3 1.7-0.5 0.7-1.3 1.2-2.9 1.9-0.6 0.3-1.2 0.5-1.7 0.7-0.6 0.3-1.2 0.6-1.8 0.8-0.1 0-0.2-0.2-0.2-0.3l0.3-0.2c0.6-0.3 0.7-0.4 0.3-1.5l-1.4-3.6zm3.1 2.8c0.4 0.9 0.7 1.2 1.9 0.7 0.9-0.4 1.6-1.2 1.2-2.1-0.5-1-1.7-1.2-3.2-0.6-0.6 0.3-0.6 0.3-0.5 0.5l0.6 1.5zm-1-2.4c0.1 0.3 0.2 0.3 0.7 0 1.3-0.6 1.7-1.2 1.3-2.1s-1.4-0.8-2.3-0.5c-0.7 0.3-0.7 0.3-0.5 0.7l0.8 1.9z" clip-path="url(#d)"/><path d="m116.5 132.7c-0.3 0.2-0.3 0.2-0.2 0.5l0.3 1.4c0.1 0.7 0.2 0.7 0.7 0.4l0.4-0.2c0.1 0 0.2 0.2 0.2 0.3-0.4 0.3-0.8 0.6-1.3 0.9l-1.2 0.9c-0.1 0-0.2-0.1-0.2-0.2l0.3-0.3c0.3-0.3 0.4-0.5 0.4-0.9 0-0.3-0.1-0.9-0.2-1.5l-0.6-4.4c0-0.4-0.1-0.7-0.2-0.8 0.4-0.4 0.5-1 0.5-1 0.1-0.1 0.2-0.1 0.3-0.1 0.5 0.3 0.9 0.6 1.4 0.8l4.5 2.4c0.7 0.4 0.8 0.4 1.5 0l0.2-0.1c0.1 0 0.3 0.1 0.2 0.2-0.5 0.3-1 0.7-1.6 1.1-0.5 0.4-1 0.8-1.5 1.1-0.1 0-0.3-0.1-0.2-0.2l0.2-0.2c0.4-0.4 0.4-0.4 0-0.7l-1.4-0.8c-0.3-0.2-0.3-0.1-0.7 0.1l-1.8 1.3zm1.1-1.5c0.3-0.2 0.4-0.3 0.1-0.4l-1.3-0.7c-0.5-0.3-0.7-0.4-0.8-0.5 0 0.1 0.1 0.4 0.1 1l0.2 1.4c0.1 0.4 0.1 0.3 0.4 0.1l1.3-0.9z" clip-path="url(#d)"/><path d="m121.7 124.6c-0.8-0.7-0.9-0.8-1.4-0.3l-0.3 0.3c-0.1 0-0.3-0.1-0.2-0.2 0.6-0.7 1.5-1.7 2.3-2.6 0.8-0.8 1.6-1.5 2.3-1.8s1.5-0.4 2.1 0.2c0.7 0.7 0.3 1.8 0 2.5 0 0.1 0 0.1 0.1 0.1 1.9 0.2 3.1 0.3 3.9 0.1 0.5-0.1 0.8-0.4 1-0.5 0.1 0 0.2 0.1 0.2 0.1-0.1 0.2-0.3 0.4-0.6 0.8-1 1-1.9 1.3-3.2 1.3-0.6 0-1.3-0.1-1.9-0.2-0.4 0-0.6 0.1-0.9 0.4s-0.3 0.3-0.2 0.5l1 1c0.8 0.8 1 0.7 1.5 0.3l0.3-0.2c0.1 0 0.3 0.1 0.2 0.2-0.5 0.5-1 0.9-1.4 1.4-0.5 0.5-0.9 1-1.4 1.5-0.1 0.1-0.3 0-0.2-0.2l0.2-0.3c0.4-0.6 0.5-0.7-0.3-1.5l-3.1-2.9zm2.3-0.1c0.3 0.2 0.3 0.3 0.8-0.3 1-1.1 1.1-1.9 0.4-2.6-0.6-0.6-1.7-0.6-2.6 0.4-0.5 0.6-0.5 0.6-0.2 0.9l1.6 1.6z" clip-path="url(#d)"/><path d="m74 141c0.1-1.1 0-1.2-0.7-1.3l-0.4-0.1c-0.1-0.1-0.1-0.3 0-0.3 0.7 0 1.8 0 3.4 0.1 1.3 0.1 2.3 0.2 2.9 0.5 0.7 0.3 1 0.8 1 1.5 0 0.6-0.7 1.1-1.8 1.3-0.1 0-0.1 0-0.1 0.1l0.1 0.1c1.1 0.2 2.4 0.8 2.3 2 0 0.5-0.3 1-1 1.4s-1.7 0.5-3.4 0.4c-0.7 0-1.3-0.1-1.9-0.1-0.7 0-1.4-0.1-2-0.1-0.1 0-0.1-0.2 0-0.3h0.3c0.7 0 0.8-0.1 0.9-1.2l0.4-4zm1.6 3.9c-0.1 1 0.1 1.4 1.4 1.5 1 0.1 2-0.4 2-1.4 0.1-1.1-1-1.9-2.6-1.9-0.7 0-0.7 0-0.7 0.3l-0.1 1.5zm0.1-2.6c0 0.3 0 0.3 0.6 0.3 1.4 0.1 2.1-0.3 2.1-1.3s-0.9-1.4-1.8-1.4c-0.8 0-0.8 0-0.8 0.4l-0.1 2z" clip-path="url(#d)"/></g></g><g style="" clip-path="url(#b)"><clipPath><use xlink:href="#y" height="100%" width="100%" y="0" x="0" overflow="visible"/></clipPath></g><polygon clip-path="url(#b)" stroke="#000" points="77.8 25.4 69.7 26.2 81.5 29.3" stroke-width=".2"/><polygon clip-path="url(#b)" transform="translate(-.10614)" stroke="#000" points="75.2 32 74.2 39.3 81.5 29.3 69.7 26.2" stroke-miterlimit="10" stroke-width=".1" fill="#ffce34"/><polygon points="81 35.9 88.4 40.2 81.5 29.3" fill="#ffc638" clip-path="url(#b)"/><polygon clip-path="url(#b)" stroke="#000" points="81 35.9 88.4 40.2 81.5 29.3" stroke-miterlimit="10" stroke-width=".29970" fill="#ffce34"/><polygon clip-path="url(#b)" points="87.4 31.7 92.6 26.7 85.5 25.6 81.3 18.7 81.5 29.3" fill="#ffce34"/><polygon clip-path="url(#b)" stroke="#000" points="87.4 31.7 92.6 26.7 85.5 25.6 81.3 18.7 81.5 29.3" stroke-miterlimit="10" stroke-width=".29970" fill="none"/><polygon clip-path="url(#b)" points="85.5 25.6 81.3 18.7 81.5 29.5"/><g stroke-miterlimit="10" fill="none"><polygon clip-path="url(#b)" points="85.5 25.6 81.3 18.7 81.5 29.5"/><g stroke="#000" stroke-width=".22480"><line y2="29.3" clip-path="url(#b)" x2="83.7" y1="29.3" x1="89.8"/><line y2="28.6" clip-path="url(#b)" x2="85.5" y1="28.6" x1="90.4"/><line y2="28" clip-path="url(#b)" x2="88.9" y1="28" x1="91.2"/><line y2="27.5" clip-path="url(#b)" x2="89.8" y1="27.5" x1="91.8"/><line y2="27" clip-path="url(#b)" x2="90.1" y1="27" x1="92.2"/><line y2="30" clip-path="url(#b)" x2="84.4" y1="30" x1="89.3"/></g></g><g><polygon clip-path="url(#b)" points="88.4 40.2 87.4 31.7 81.5 29.3"/><polygon clip-path="url(#b)" points="74.2 39.3 81 35.9 81.5 29.3"/><polygon clip-path="url(#b)" transform="translate(-.21229 -.21229)" stroke="#000" points="81.3 18.7 81.5 29.3 77.8 25.4" stroke-miterlimit="10" stroke-width=".1498" fill="#ffce34"/></g></g></svg>
