<?xml version="1.0" encoding="utf-8"?>
<!-- Generator: Adobe Illustrator 22.0.0, SVG Export Plug-In . SVG Version: 6.00 Build 0)  -->
<svg version="1.1" id="Layer_1" xmlns="http://www.w3.org/2000/svg" xmlns:xlink="http://www.w3.org/1999/xlink" x="0px" y="0px"
	 viewBox="0 0 300 300" style="enable-background:new 0 0 300 300;" xml:space="preserve">
<style type="text/css">
	.st0{fill:#FEFEFE;}
	.st1{fill:#C1B39B;}
	.st2{fill:#C2B49B;}
	.st3{fill:#C4B7A0;}
	.st4{fill:#C5B8A1;}
	.st5{fill:#FDFDFD;}
	.st6{fill:#CBBFAC;}
	.st7{fill:#F5F3E4;}
	.st8{fill:#C6B9A3;}
	.st9{fill:#C5B8A2;}
	.st10{fill:#C8BCA7;}
	.st11{fill:#CABFAA;}
	.st12{fill:#CABEA8;}
	.st13{fill:#217750;}
	.st14{fill:#3D4D93;}
	.st15{fill:#F0EEDE;}
	.st16{fill:#F4F1E2;}
	.st17{fill:#EFEDDD;}
	.st18{fill:#E9E5D5;}
	.st19{fill:#F2F0E0;}
	.st20{fill:#F0ECDD;}
	.st21{fill:#F2EFDF;}
	.st22{fill:#F3F1E2;}
	.st23{fill:#C9BDA6;}
	.st24{fill:#C3B6A0;}
	.st25{fill:#C9BCA6;}
	.st26{fill:#365799;}
	.st27{fill:#3D4D94;}
	.st28{fill:#F5F2E3;}
	.st29{fill:#E8E4D4;}
	.st30{fill:#375799;}
	.st31{fill:#365699;}
	.st32{fill:#C5B9A4;}
	.st33{fill:#3F4E94;}
	.st34{fill:#3A5999;}
	.st35{fill:#415094;}
	.st36{fill:#C6B9A2;}
	.st37{fill:#BAAD9A;}
	.st38{fill:#E8E3D3;}
	.st39{fill:#C2B39B;}
	.st40{fill:#C1B49C;}
	.st41{fill:#BEB49C;}
	.st42{fill:#065B3F;}
	.st43{fill:#C2B49C;}
	.st44{fill:#03583D;}
	.st45{fill:#075C40;}
	.st46{fill:#065B40;}
	.st47{fill:#085C40;}
	.st48{fill:#0A5F42;}
	.st49{fill:#055B3F;}
	.st50{fill:#075B40;}
	.st51{fill:#085D40;}
	.st52{fill:#055A3F;}
	.st53{fill:#04593E;}
	.st54{fill:#03583E;}
	.st55{fill:#3E4E94;}
	.st56{fill:#F4F2E3;}
	.st57{fill:#F2EFE0;}
	.st58{fill:#C3B59D;}
	.st59{fill:#C2B49D;}
	.st60{fill:#375699;}
	.st61{fill:#F4F2E2;}
	.st62{fill:#F3F0E0;}
	.st63{fill:#F3F0E1;}
	.st64{fill:#C5B7A0;}
	.st65{fill:#EFECDC;}
	.st66{fill:#F0EDDD;}
	.st67{fill:#EDEADA;}
	.st68{fill:#F5F3E5;}
	.st69{fill:#CABFA8;}
	.st70{fill:#EEEADA;}
	.st71{fill:#C2B59E;}
	.st72{fill:#F1EEDE;}
	.st73{fill:#DFDACB;}
	.st74{fill:#F5F2E4;}
	.st75{fill:#CDC2AC;}
	.st76{fill:#C4B69F;}
	.st77{fill:#C8BCA6;}
	.st78{fill:#C3B59E;}
	.st79{fill:#EFEBDB;}
	.st80{fill:#F1EEDF;}
	.st81{fill:#C7BAA3;}
	.st82{fill:#C6BAA2;}
	.st83{fill:#E8E3D2;}
	.st84{fill:#C8BBA5;}
	.st85{fill:#EDE9D9;}
	.st86{fill:#ECE9D8;}
	.st87{fill:#ECE8D7;}
	.st88{fill:#EBE7D6;}
	.st89{fill:#ECE7D7;}
	.st90{fill:#F7F5E6;}
	.st91{fill:#E9E4D3;}
	.st92{fill:#E8E2D1;}
	.st93{fill:#BEAF97;}
	.st94{fill:#EDEAD9;}
	.st95{fill:#EAE5D5;}
	.st96{fill:#364994;}
	.st97{fill:#EBE7D7;}
	.st98{fill:#EBE6D6;}
	.st99{fill:#EAE5D4;}
	.st100{fill:#ECE8D8;}
	.st101{fill:#E3E1D5;}
	.st102{fill:#E0D9C7;}
	.st103{fill:#F8F6E8;}
	.st104{fill:#F6F4E5;}
	.st105{fill:#C1B39C;}
	.st106{fill:#CABEA7;}
	.st107{fill:#F3F1E1;}
	.st108{fill:#BEB19D;}
	.st109{fill:#D1C6B2;}
	.st110{fill:#AFA59B;}
	.st111{fill:#BEB29C;}
	.st112{fill:#C5B8A0;}
	.st113{fill:#C0B39B;}
	.st114{fill:#C8BCA5;}
	.st115{fill:#E5DFCE;}
	.st116{fill:#EEEBDB;}
	.st117{fill:#B5AA9B;}
	.st118{fill:#DFD9C8;}
	.st119{fill:#A09C9A;}
	.st120{fill:#B9AE9D;}
	.st121{fill:#E6E2D2;}
	.st122{fill:#DED7C7;}
	.st123{fill:#EDE9D8;}
	.st124{fill:#F7F5E7;}
	.st125{fill:#CCC1AB;}
	.st126{fill:#D1C7B1;}
	.st127{fill:#C4B79F;}
	.st128{fill:#B7AFA3;}
	.st129{fill:#395297;}
	.st130{fill:#D3C9B4;}
	.st131{fill:#AEA59B;}
	.st132{fill:#C3B69E;}
	.st133{fill:#C0B29A;}
	.st134{fill:#C7BBA4;}
	.st135{fill:#BEB098;}
	.st136{fill:#C6BAA3;}
	.st137{fill:#CBBFA9;}
	.st138{fill:#CFC4AF;}
	.st139{fill:#D1C7B2;}
	.st140{fill:#CBBFA8;}
	.st141{fill:#DFD8C5;}
	.st142{fill:#CDC1AC;}
	.st143{fill:#C1B29A;}
	.st144{fill:#CCC0AA;}
	.st145{fill:#D5CBB7;}
	.st146{fill:#F0ECDC;}
	.st147{fill:#F2F0E1;}
	.st148{fill:#C6BAA4;}
	.st149{fill:#C7BAA4;}
	.st150{fill:#EDE9DA;}
	.st151{fill:#EFEBDC;}
	.st152{fill:#F8F6E7;}
	.st153{fill:#E2DCC9;}
	.st154{fill:#E7E1D0;}
	.st155{fill:#F6F4E6;}
	.st156{fill:#EEEBDC;}
	.st157{fill:#E5DFD0;}
	.st158{fill:#D3C9B5;}
	.st159{fill:#EAE6D5;}
	.st160{fill:#E5DECD;}
	.st161{fill:#E2DCCA;}
	.st162{fill:#E8E4D3;}
	.st163{fill:#E9E4D6;}
	.st164{fill:#E1DAC8;}
</style>
<g>
	<g>
		<path class="st0" d="M150,301c-36.3,0-72.6-0.1-108.9,0.1c-3.9,0-4.2-1.1-4.2-4.5C37,212.1,37,127.6,37,43
			c2.7-0.4,3.8,1.6,5.1,3.3c4.4,5.7,6,12.6,7.1,19.5c2.2,13.8,1.2,27.8,0.9,41.7c-0.9,2.4-0.7,4.9-0.7,7.4c0,1.6,0,3.3-0.4,4.9
			c-0.7,2-0.6,4.2-0.6,6.3c0,1.6,0,3.2-0.4,4.7c-0.7,2-0.6,4-0.6,6.1c0,1.2-0.1,2.5-0.4,3.7c-0.5,1.8-0.8,3.5-0.7,5.4
			c0.1,0.7,0.2,1.3,0.3,2c0,0.4,0,0.9-0.1,1.3c-0.2,0.6-0.5,1.2-0.8,1.8c-0.6,1.8-0.3,3.6-0.3,5.5c-0.9,7.6-1.3,15.2-1.6,22.9
			c-0.8,19.6,3.7,37.5,20.3,50.1c9,6.8,19.3,8.6,30.3,5.6c5.6-1.5,6.4-1.2,7.7,4.3c2.2,9.3,8.7,15.1,15.8,20.5
			c3.2,2.4,6.4,4.8,9.2,7.6c2.2,2.2,1.8,3.5-1,4.8c-5.8,2.6-7.5,6.1-5.4,11.4c2.1,5.3,6.9,7.5,12.7,5.7c1.6-0.5,2.9-1.7,4.6-1.8
			c3.9,1,1.3,5.4,3.7,7.2C145.2,295.6,149.2,296.1,150,301z"/>
		<path class="st0" d="M265,43c0,84.7,0,169.3,0.1,254c0,3.4-0.7,4.1-4.1,4.1c-36-0.2-72-0.1-108-0.1c-0.3-5.4,4-5.4,7.5-6.3
			c2.2-1.9,0.3-5.3,2.6-7.1c2-0.8,3.4,0.9,5.1,1.4c4.2,1.2,8.3,1.4,11.5-2.2c2.7-2.9,3.7-6.2,2.1-10.1c-0.9-2.1-2.3-3.5-4.5-4.3
			c-4.1-1.5-4.4-2.6-1.3-5.7c3.7-3.6,7.8-6.7,12-9.8c6.5-4.7,10.5-11.1,12.5-18.7c0.9-3.6,2.5-4.7,6-3.7c24,7.3,42.7-9.7,49.1-30
			c3.3-10.7,3.9-21.8,2.4-33c-1-8-1.2-16.2-2.3-24.2c-0.1-0.8-0.1-1.6-0.1-2.3c0-2,0.1-4.1-0.6-6.1c-0.3-1.3-0.4-2.6-0.4-3.9
			c0-2.1,0.1-4.2-0.6-6.2c-0.4-1.6-0.4-3.2-0.4-4.7c0-1.9,0-3.7-0.7-5.5c-0.4-2.2-0.3-4.4-0.4-6.6c0-2.5,0.2-5-0.7-7.4
			c-0.5-14.3-1.1-28.5,1.8-42.7c1.1-5.6,3.4-10.8,6.3-15.6C261.1,44.5,262.3,42.6,265,43z"/>
		<path class="st1" d="M257,147c2,19.1,6,38.5,0,57.4c-5.5,17.5-16.3,30.3-36,33.2c-5.3,0.8-10.2-0.5-15.2-1.8
			c-1.6-0.4-3.2-1.5-3.7,1.3c-1.7,10.7-8.6,17.7-16.8,23.8c-3.7,2.8-7.6,5.4-11.1,9.5c2.8,0.8,5.8,0.8,7.5,3.3c1.6,2.4,2.6,5,2.1,8
			c-1.2,7.9-9.5,12-16.9,8.4c-1.3-0.6-2.3-2-4-2c-0.9,0.5-0.4,2.6-2.2,2.1c-1.7-1.4-2.3-3.5-3.4-6.2c1.1,3.9-0.1,7.6,3.1,10.1
			c0.5,0.6,0.8,1.1,0.5,1.9c-3.5,0.3-6.9,0.9-8,5c-1,0-2,0-3,0c-2.2-3.1-5.1-5-9-5c-0.4-0.8,0-1.4,0.5-1.9c2.4-2,2.3-4.8,2.5-7.7
			c-1.3,1-1.5,2.6-2.5,3.5c-2.6,1.7-1.3-3-3.5-2.1c-6.4,4.8-13.9,4.3-17.6-1c-4.8-6.9-1.6-14.4,7.4-16.5
			c-4.4-5.5-10.4-8.9-15.5-13.2c-6.1-5.1-10.3-11.3-12.1-19c-0.4-1.9-0.4-3.6-3.3-2.6c-22.9,7.5-39.2-5.7-48.2-22.3
			c-5.8-10.5-6.3-22-6.3-33.4c0-7.9,1.1-15.9,1.8-23.8c1-1.9-0.2-4.2,0.8-6.1c0.4-0.3,0.7-0.6,1.1-0.9c2.2,2.6,1.3,5.5,1.1,8.4
			c-0.7,2.1-0.8,4.2-0.7,6.4c-0.1,9.2-0.5,18.4,0.1,27.5c1.1,17.6,8.8,31.6,25,39.9c7.7,3.9,15.8,3.3,23.9,1.1
			c6.7-1.8,6.9-1.8,8.1,4.9c1.2,6.5,4.7,11.7,9.6,16c5.2,4.7,11,8.7,16.3,13.2c2.8,2.4,5.1,5.3,6.3,8.8c1.6,4.9-0.5,9.3-4.8,10.5
			c-3.2,0.9-6.7-1-7.5-4.1c-0.5-2,0.1-3.6,1.6-5c1-0.9,2.3-1.5,3.7-0.9c2.1,0.8,1.9,2.6,1.4,4.5c1.8-1.5,1.6-2.8,0.3-4.3
			c-1.1-1.3-2.4-1.6-4-1.2c-2.6,0.6-4,2.4-4.2,4.9c-0.3,3.3,1.1,5.9,4.2,7.2c3.4,1.4,6.6,0.7,9.3-1.7c2.7-2.5,3.4-5.7,2.3-9.1
			c-1.5-4.5-4.7-7.6-8.2-10.5c-4.4-3.5-9-6.8-13.5-10.4c-7.1-5.7-12.7-12.3-13.3-21.9c-0.3-4.4-3.1-3.4-5.8-2.5
			c-7.4,2.5-14.9,3.7-22.5,1.2c-1-0.3-1.9-0.6-2.8-1c-1.8-0.8-4.2-1.4-4.1-3.8c0.1-2.7,2.8-2.3,4.6-2.9c1.7-0.6,3.6-0.8,5.9-2
			c-10.8,2.4-18.2-1.9-23.9-9.7c-6.9-9.5-8.5-20.3-7.4-31.8c1.3-13.9,2.1-27.9,3.8-41.7c1.3-10.9,0.9-21.9,3.6-32.7
			c0.3-0.5,0.7-0.8,1.2-0.9c0.5-0.1,1,0,1.5,0.2c2.6,3.4,6.6,4.3,10.2,5.9c2.8,1.2,3.1,0.1,3.6-2.5c1.3-6.5,4.6-12.3,7.1-18.4
			c0.4-1.1,1.4-1.9,2.7-1.8c2,2.1-0.1,3.9-0.5,5.8c-0.6,2.6-3,4.8-1.4,7.8c0.4,0.6,0.6,1.2,0.2,1.9c-4.5,3.4-4.8,4.6-2.1,8.3
			c0.3,0.3,0.5,0.7,0.6,1.1c-2.4,2.6,1.7,2.1,1.7,3.5c-0.3,1.4-1.3,1.9-2.6,2.2c-5-0.8-9.3-3.4-14-5.1c-4.2-1.5-5.2-1-5.3,3.4
			c-0.1,3.7-0.5,7.2-1.4,10.2c1.3-3.4,1.1-8.3,6.2-10c2.5-0.8,5.2-2,7.5,0.4c2.1,2.4,3,5.2,1.7,8.3c-1.5,3.7-3.2,7.3-4,11.3
			c-0.4,0.7-0.9,1.2-1.6,1.5c-2.4,0.5-4.6-0.5-6.6-1.5c-3-1.4-3.8-0.2-3.9,2.6c0,2.1,0.2,4.3-0.4,6.4c-1.4,5.6-1.4,10.5,5.3,12.7
			c0.4,0.1,0.7,0.7,0.9,1.1c0.1,0.8-0.3,1.4-1,1.7c-6.4,0.1-6.2,0.2-7.5,6.8c-0.9,4.5,0,8.1,3.6,10.9c0.1,0.8-0.3,1.4-0.9,1.8
			c-0.9,0.6-2.6,0.2-2.7,1.7c-0.1,1.2,1.1,1.6,2,2c2.5,1.2,5.3,1.8,7.9,3c1.6,0.8,3.7,0.9,4,3.2c-0.1,0.5-0.3,0.9-0.7,1.2
			c-3.8,1.2-6.7-1.5-9.9-2.4c-2.8-0.8-3.8,0-3.6,2.7c0.8,9.8,5,17.6,13.5,22.6c4.1,2.5,8.7,1.4,13.2,0.7c2.5-0.4,4.8,0.1,5.7,2.8
			c0.9,2.6-0.2,4.5-2.5,5.9c-1,0.6-2.1,0.9-3.6,2.1c6.6,0.8,12.5,0.2,18.2-2.2c6.4-2.7,10.4-0.9,10.9,6c0.7,9.1,5.6,14.9,12.2,20.2
			c5.6,4.4,11.7,8.3,16.7,13.5c3.5,3.7,6.3,7.7,6.7,13.5c5.1-2.5,10.2-3,15.3,0.3c1.1-8.4,5.9-13.9,12.1-18.5c4-3,8-6,11.9-9.1
			c6.6-5.1,11.1-11.2,12.1-19.8c0.9-7.3,4.2-8.7,11.1-5.9c5.4,2.2,11.1,2.7,17.5,2.4c-1.7-1.9-3.6-2.3-4.8-3.8
			c-1.3-1.5-1.8-3.2-1-5.1c0.8-1.7,2.3-2.3,4.1-2.4c0.8,0,1.7,0.1,2.5,0.2c12.3,2.5,18.8-3.6,23.5-13.7c1-2.1,1.2-4.6,3.4-5.9
			c0.8-0.2,1.5-0.2,2.2,0.3c0.7,0.9,0.8,1.9,0.5,2.8c-2.7,8.5-6.7,16-15.2,20c-5.7,2.7-7.5,2.9-14.4,1.6c2.3,1.1,4.5,1.6,6.8,2.2
			c1.5,0.5,3.6,0.4,3.6,2.7c-0.1,1.9-1.7,2.8-3.3,3.4c-5.7,2.3-11.5,3.3-17.6,2.2c-3.1-0.5-6.3-1.1-9.2-2.4c-3-1.3-5.1-0.4-5.2,2.9
			c-0.3,10.3-7,16.5-14.2,22.4c-4.6,3.8-9.5,7.3-14.2,11c-3.4,2.7-5.8,6-6.8,10.2c-0.9,3.9,1.3,8.1,5.2,9.8c3.6,1.6,8,0.3,10.2-3
			c1.4-2.2,1.4-4.4,0.3-6.6c-0.9-1.8-2.5-2.6-4.4-2.7c-3.7-0.2-4.9,2-2.7,6.3c0.2-2.1-1.6-4,0.6-5.1c1.6-0.8,2.9-0.1,4.1,0.8
			c1.6,1.3,2.1,3,1.5,4.9c-0.9,3.1-3.2,4.6-6.4,4.3c-3.3-0.3-6.1-3.2-6.3-6.7c-0.2-3.6,1.5-6.5,3.7-9c3.4-3.9,7.3-7.3,11.4-10.4
			c4.5-3.4,9.2-6.6,12.5-11.4c2.7-3.9,4.9-8,5.4-12.7c0.4-3.9,2.4-4.9,5.8-3.8c4.5,1.4,9.1,1.8,13.8,2c9,0.3,16.5-3.2,22.4-9.4
			c8.5-8.8,13.6-19.3,14.9-31.9c1.5-14.1-1.4-27.9-1.2-41.8C255,149.2,254.6,147.2,257,147z"/>
		<path class="st2" d="M56.9,106h-0.4l-0.4,0c-1.6-1.8-1.3-4-1.4-6.1C54.4,93,55,86.1,54.2,79.2c-1.7-11.6-3-23.3-9.2-33.7
			c-2-3.3-0.8-4.9,3.3-5.8c6.4-1.4,12.2-3.9,17.1-8.4c2.9-2.7,3.9-5.3,0.7-8.4c-0.7-0.8-1.1-1.7-1.2-2.8c-0.2-2-0.2-4,0.4-5.9
			c1.3-4,4.5-5.9,8.5-5.2c3.9,0.7,6,3.2,5.4,7.5c-0.5,3.4,1,3.2,3.3,2.7c3.1-0.7,5.8-2.3,8.4-4.2C99.2,9,107.8,3.4,118,1
			c1,0,2,0,3,0c2.3,0.8,4.7,0.8,7,0c1,0,2,0,3,0c5.2,1.2,10.4,2.2,15.5,3.3c8.1,1.6,15.7-1.6,23.5-3.3c1,0,2,0,3,0
			c2.3,0.8,4.7,0.8,7,0c1,0,2,0,3,0c11.4,1.3,19.9,8.6,29,14.5c3.4,2.2,6.7,4.3,10.9,4.1c1.1-1.1,0.1-2.2,0.1-3.3
			c-0.1-3.4,1.1-5.9,4.4-6.9c3.6-1.1,6.6-0.2,8.5,3.2c0.9,1.5,1.2,3.1,1.5,4.7c1.6,8.3,6.5,13.5,14.5,16.1c2.9,0.9,6.4,0.6,8.3,3.9
			c-0.1,1.3-1.1,1.6-2.1,1.9c-9.7-0.8-17.8-4.6-23.4-13.9c-1.3,3.3,0.5,4.5,1.7,5.9c4.4,4.6,10,6.9,16.1,8.3
			c6.5,1.4,7.1,2.6,3.6,8.3c-6.5,10.7-6.9,22.7-7.8,34.6c-0.4,4.8,0,9.6-0.1,14.4c0,2,0.3,4-1.3,5.6c-0.9,0.3-1.6,0.3-2.3-0.4
			c-1-1.5-1-3.3-1.1-5.1c0-3.2-0.1-6.4,0-9.6c0.2-1.4,0-2.9,0-4.3c-0.1-8.2,0.9-16.3,2.9-24.2c0.7-3.4,1.9-6.7,3.7-9.7
			c1.9-3.2,1.6-5.1-2.4-6c-3.4-0.8-6.6-2.3-9.5-4.3c-6.7-5-11.9-7.2-20.5-9c-3.8-0.8-7.4-1.9-10.8-3.8c-4.6-2.7-8.9-5.7-13.7-7.9
			c-2.1-1.1-4.3-1.7-6.6-2.3c-4.1-1.1-6.4,0.3-6.8,4.6c1.7,0.9,3.7,0,5.2,1.4c0.5,0.6,0.5,1.3,0.4,2c-1.9,2.7-5.2,3.1-7.9,4.3
			c-1.6,0.7-2.7,1.4-2.5,3.3c-0.7,0.7-1.5,1.1-2.5,1.2c-2.2-0.2-4.6-0.7-4.8-3.4c-0.2-2.5,2.4-2.9,4.2-3.6c1.7-0.7,3.4-1.2,5.3-1.5
			c-3.9,0.4-7.8,0.5-11.7-0.2c-1-0.2-2-0.1-2.9-0.4c-7.6-3.9-15.2-4-22.9-0.1c-0.9,0.4-1.9,0.4-2.9,0.4c-1.5,0.3-3,0.6-4.5,0.6
			c-3.2-0.1-6.4,0.5-9.5-0.5c-0.5-0.2-0.8-0.6-1-1.1c1.5-5.8-0.6-8.2-6.3-7c-2.1,0.4-4.2,1-6,2c-3.7,1.7-7,4-10.4,6.1
			c-7.4,3.8-14.7,7.9-23.5,5.9c-1.6-0.4-2.4,0.7-3.4,1.6c-2,1.7-3.7,3.6-5.6,5.4c-3.6,3.3-8.1,4.8-12.5,6.4
			c-1.4,0.5-4.1,0.3-2.8,3.3c3,5.8,4.7,11.9,5.9,18.3c0.5,4.5,1.6,8.9,1.3,13.5c0.1,7.6,1.5,15.2,0,22.8
			C58.4,102.8,58.5,104.7,56.9,106z"/>
		<path class="st0" d="M118,1c-9.9,4.8-19.7,9.8-28.6,16.5c-3.7,2.8-8.1,4.3-13.4,3c2.4-3.6,4.2-7.2-0.5-9.8c-3-1.7-6.1-1.4-8.3,1.9
			c-1.5,2.2-1.3,4.7-1.3,7.2c-0.6,6.3-3.9,10.7-9.6,13.4C50.2,36.1,43.7,38.1,37,39c0-11.5,0.2-22.9-0.1-34.4
			c-0.1-3.3,1-3.7,3.9-3.7C66.5,1,92.3,1,118,1z"/>
		<path class="st0" d="M260,37c-3.2-1-6.3-2-9.5-3c-8.6-2.6-13.1-8.6-14.4-17.3c-0.5-3.2-1.4-5.9-4.9-6.7c-2.4-0.5-4.7,0-6.2,2.2
			c-2.1,3-0.9,5.6,1.7,8.3c-4.7,1.2-8.7,0.3-12.1-1.9C204.4,12,194.7,4.8,183,1c26.3,0,52.7,0,79-0.1c2.5,0,3.1,0.6,3.1,3.1
			c-0.2,12-0.1,24-0.1,36C262.8,39.9,261.7,38,260,37z"/>
		<path class="st3" d="M37,39c2.3-2.2,5.3-2.3,8.2-3c9.4-2.2,17.5-6.1,20.8-16.2c0.1,0.9,0.3,1.8,1.3,2.3c0.3,6-3.8,9.2-8.1,12.1
			c-4,2.7-8.7,4.1-13.4,5.2c-3.8,0.8-4,2.3-2,5.5c6.5,9.9,8.6,21,8.1,32.7c-0.8,7-0.7,13.9,0,20.9c0.2,0.8,0.2,1.7,0.1,2.5
			c-0.8,3-0.5,6-0.4,9c0,1.9,0,3.9-0.4,5.8c-0.8,2.3-0.7,4.8-0.6,7.2c0,1.6-0.1,3.3-0.4,4.9c-0.6,1.9-0.6,3.8-0.5,5.7
			c0.1,3.8-0.9,7.5-1.2,11.3c-0.1,1.4-0.3,3.1-2.3,3.3c-0.3-0.4-0.6-0.8-0.9-1.2c1.1-1.9-0.2-4.2,0.9-6.2c0.1-1.3,0.1-2.6,0.2-3.9
			c1-1.9-0.2-4.2,0.8-6.1c0.1-1.6,0.1-3.3,0.2-4.9c0.9-1.9-0.3-4.1,0.8-6.1c0.1-1.6,0.1-3.3,0.2-4.9c1.1-2.3-0.2-4.9,0.8-7.1
			c0-10.6,0.4-21.2-0.1-31.8c-0.5-10.1-1.8-20.1-7.7-28.9C40,45.5,39,43.8,37,43C37,41.7,37,40.3,37,39z"/>
		<path class="st4" d="M260,37c2.7-0.8,3.8,1.2,5,3c0,1,0,2,0,3c-7.9,6.8-9.5,16.3-11,25.9c-1.8,11.9-0.6,23.9-0.9,35.9
			c1,2.3-0.2,4.9,0.8,7.2c0.1,2.3,0.1,4.6,0.2,6.8c0.9,1.6-0.1,3.5,0.8,5.2c0.1,1.6,0.1,3.3,0.2,4.9c1,1.9-0.2,4.2,0.8,6.1
			c0.1,1.3,0.1,2.6,0.2,3.8c1,2-0.3,4.2,0.8,6.2c0,0.7,0,1.4,0,2c-1.4,1.1-0.8,2.7-1,4.1c-2-0.2-2.2-1.9-2.2-3.3
			c-0.3-5.4-1.6-10.7-1.2-16.1c0.1-2,0.2-3.9-0.5-5.8c-0.3-1.6-0.4-3.3-0.4-4.9c0.1-2.5,0.2-4.9-0.6-7.3c-0.4-2.2-0.4-4.5-0.4-6.7
			c0-3.9,0.5-7.8-0.4-11.7c-0.3-1.4-0.3-2.7-0.1-4.1c0.8-2.8,0.9-5.6,0-8.3c-0.8-13.1,0.9-25.8,7.9-37.2c1.8-3,1.9-5.1-0.1-7.6
			C258.7,38,259.5,37.8,260,37z"/>
		<path class="st5" d="M170,1c-7.5,4.3-15.6,6.2-24.1,4.7C140.8,4.8,135.6,3.6,131,1C144,1,157,1,170,1z"/>
		<path class="st6" d="M180,1c-2.3,1.6-4.7,1.6-7,0C175.3,1,177.7,1,180,1z"/>
		<path class="st6" d="M128,1c-2.3,1.6-4.7,1.6-7,0C123.3,1,125.7,1,128,1z"/>
		<path class="st7" d="M49.9,116c0-2,0.1-3.9,0.1-5.9c1.2-2.9-0.3-6.1,0.8-9.1c0-0.7,0-1.4,0-2.1c-0.6-7.3-0.7-14.6,0-21.9
			c-0.5-12-2-23.8-9.9-33.7c-2.1-2.6-1.4-4,2-4.6c3.1-0.6,6-1.7,9-2.6c7.3-2.2,12.4-6.8,15.1-14c4.4,3.6,3.1,6.5-0.5,9.9
			c-5.2,4.8-11.2,7.8-18,8.8c-3.6,0.5-4.5,1.5-2.5,4.6c6.5,9.9,7.8,21.2,8.9,32.6c0.7,9.3,0.7,18.7,0,28c-2,20.5-4.3,40.9-5.7,61.5
			c-0.7,10-2.9,20.2-0.3,30.3c2.6,10.2,7.3,18.9,17.8,23.1c4,1.6,7.8,0.9,11.7-0.2c1-0.3,2.4-1.4,3,0.2c0.5,1.4-1.2,1.7-2.1,2.3
			c-2.5,1.5-5.3,1.9-8,2.7c-1,0.3-2.7-0.5-2.9,1.1c-0.2,1.7,1.6,1.7,2.8,2.3c8.7,4.2,17.5,3.2,26.1,0c5.5-2.1,6.1-2,6.7,4.1
			c1.1,11.8,9.5,18.1,17.9,24.6c4.3,3.4,9,6.3,12.8,10.3c2.5,2.6,4.4,5.5,5,9c1.1,5.5-3.1,11-8.9,11.7c-5.6,0.7-10-2.6-10.4-8.1
			c-0.3-3.5,1.1-6.4,4.4-7.6c2.9-1.1,5.7-0.3,7.3,2.6c1.3,2.5,1.3,4.8-1.6,6.3c-1.2,0.6-2.3,0.7-3.1-0.4c-0.8-1.1-0.8-2.2,0.7-2.8
			c1-0.4,2-0.8,1-2.1c-0.7-0.9-1.8-0.7-2.7-0.2c-1.8,1-2.9,2.6-2.2,4.5c1,2.5,2.8,4.2,5.8,3.6c4.5-0.9,6.3-6,3.8-10.9
			c-2.7-5.2-7.6-8.3-11.9-11.9c-6.7-5.4-14.1-10.1-17.7-18.5c-1.1-2.6-2.3-5.2-2.3-8.1c0.1-2.9-0.7-3.8-3.8-2.7
			c-28.1,10-46.9-11.1-52-32.8c-2.8-11.8-0.8-23.9-1.1-35.9c1.1-1.9-0.1-4.1,0.8-6.1c0-3,0.1-6,0.1-9c0-0.3,0-0.5,0-0.8
			c1.7-4.9,1.7-10,2.1-15.1c1-1.6-0.1-3.5,0.8-5.1c0-1.6,0.1-3.3,0.1-4.9C50.2,120.9,48.8,118.3,49.9,116z"/>
		<path class="st8" d="M142.2,294.9c-0.4,0.4-0.8,0.7-1.1,1.1c-3.9-1.7-0.6-5.9-3-8.2c3.8-3.1,0.8,2.9,2.9,2.2
			C142.5,291.3,142.5,293.1,142.2,294.9z"/>
		<path class="st9" d="M48.9,107.8c-0.2,2.4,0.9,4.9-0.8,7.1C48.2,112.6,47.5,110.1,48.9,107.8z"/>
		<path class="st10" d="M45.9,140.8c-0.2,2.1,0.8,4.3-0.9,6.2C45.1,144.9,44.6,142.7,45.9,140.8z"/>
		<path class="st11" d="M44.9,149.9c-0.2,2,0.8,4.2-0.8,6.1C44.1,153.9,43.6,151.8,44.9,149.9z"/>
		<path class="st9" d="M46.9,130.8c-0.2,2,0.8,4.3-0.8,6.1C46.2,134.9,45.6,132.7,46.9,130.8z"/>
		<path class="st9" d="M47.9,119.9c-0.2,2,0.8,4.2-0.8,6.1C47.1,123.9,46.6,121.7,47.9,119.9z"/>
		<path class="st8" d="M161.1,290c0.7-0.7,1.3-1.3,2-2c-0.5,2.7,1.4,6-2.1,8c-0.4-0.4-0.8-0.7-1.2-1.1
			C159.5,293.1,159.5,291.3,161.1,290z"/>
		<path class="st9" d="M253.9,112c-1.7-2.2-0.6-4.8-0.8-7.2C254.6,107,253.8,109.5,253.9,112z"/>
		<path class="st12" d="M256.9,145c-1.7-1.9-0.7-4.1-0.8-6.2C257.5,140.7,256.9,142.9,256.9,145z"/>
		<path class="st9" d="M255.9,135c-1.7-1.9-0.6-4.1-0.8-6.1C256.4,130.7,255.8,132.9,255.9,135z"/>
		<path class="st9" d="M254.9,123.9c-1.5-1.5-0.7-3.4-0.8-5.2C255.3,120.4,254.9,122.2,254.9,123.9z"/>
		<path class="st13" d="M251.1,198c-1.8,5-3.7,10-7.2,14.1c-5.1,5.9-11.4,8.5-19.2,6.5c-2.4-0.6-5.2-2-6.4,1.3
			c-1.4,3.5,1.8,4.5,4.1,5.7c1.4,0.7,2.9,1.3,5.4,2.5c-8.8,2.6-16.3,1.7-23.6-1.6c-4.6-2.1-8.1-0.6-8.2,4.4c-0.1,9.3-5,15.6-11.7,21
			c-4.1,3.3-8.4,6.5-12.7,9.7c-6.6,5-11.9,10.7-11.6,20.2c-6.1-5.4-11.8-5-17.8-0.1c0.8-9.6-5-15-11.1-20c-4.6-3.8-9.7-7.1-14.2-11
			c-5.5-4.7-10-10-10.1-18.1c-0.1-7.1-3.1-8.4-9.7-5.6c-6.9,2.9-14,3.5-22.4,1.2c3.1-1.5,5.2-2.5,7.3-3.6c1.9-0.9,2.8-2.4,2.2-4.5
			c-0.7-2.3-2.5-2.7-4.4-2.1c-7,2.2-13.5,1.7-19-3.7c-6.6-6.4-9.7-14.1-9.9-23.2c-0.1-3.3,1.3-3,3.6-2.1c3.8,1.5,7.8,2.8,11.7,4.2
			c4.2,0.1,8.1-1.4,12.1-2.1c1.8-0.2,3.2,0.6,4.4,1.8c0.9,0.8,2,1.1,3.1,1.5c6,1.7,11.7,4.1,17.6,5.8c5.4,1.9,10.9,3.7,16.5,5
			c2.3,0.7,4.6,0.4,6.9,0.4c3.2,0,6.4-0.2,8,3.6c0.4,1,1.5,1.4,2.5,1.3c9.8-0.3,19.6,0.8,29.3-0.5c1.8-3.5,4.8-4.7,8.6-4.4
			c1.9,0.1,4,0.5,5.8-0.6c0.5-0.6,0.6-1.3,0.7-2.1c0.7-5.8,1-6.3,6.7-6.2c4.1,0.1,7.4-1.2,10.5-3.8c4.5-3.7,9.6-4.9,15.5-5.6
			c8.7-1.1,16.8-5.5,25.8-5.7c1.8,0,3.4-2,5.1-3c5.2-3.3,6-3,8,2.7c0.5,4,0.5,8,0,12C252.6,195,252.2,196.7,251.1,198z"/>
		<path class="st1" d="M251.9,181.2c-1.1-1.1-0.1-3-1.7-4.2c-1.7,1.1-3.7,2.1-5.3,3.4c-3.5,2.9-7.5,4.1-12,3.5c-0.3,0-0.7-0.1-1,0
			c-10.5,5.1-23.4,2.7-33,10.6c-2.9,2.4-5.9,4.3-9.9,3.5c-5-1-6.4,1.5-6,5.9c-3,0-1.4-3.7-3.6-4.3c-3-0.5-6-0.8-8.9,0.3
			c-2.1,3.2-0.8,4.3,2.5,4.6c3.3,0.3,6.8-1,9.9,1.3c-2.6,1.9-5.7,1-8.4,0.8c-3.5-0.2-5.7,0.6-6.7,4c-1.2,0.2-1.4-0.7-1.7-1.5
			c-0.6-3.1-0.3-6.2-0.4-9.3c0-0.9,0-1.7,0-2.6c-0.6-6.6,0.9-13.2-0.9-19.7c-1.5-1.8-3.6-1.2-5.5-1.3c-8.2-0.4-16.4,0.8-24.6-0.7
			c-0.6-0.3-0.9-0.8-0.8-1.5c0.4-0.4,0.9-0.8,1.4-1.1c8.2-1.3,16.5-0.2,24.8-0.7c1.8-0.1,4.1,0.9,5.4-1.3c0.1-0.5,0.2-1.1,0.2-1.6
			c0-0.6,0-1.1,0-1.7c-0.2-13.8,1.9-12.3-12.5-12.5c-5.8-0.1-11.6,0.8-17.3-0.7c-0.6-0.3-0.9-0.8-0.9-1.4c1.7-2.3,4.1-1.6,6.4-1.7
			c7.7-0.4,15.5,0.6,23.2-0.6c1.7-1.3,1.4-3.1,1.3-4.8c-0.2-1.6-1.8-3.4,0.8-4.5c0.2-0.1,0.4-0.1,0.6-0.2c0.5,0,0.9,0.1,1.3,0.4
			c0.6,0.7,1,1.5,1.1,2.4c0,0.5,0,0.9-0.1,1.4c-0.1,1.5-0.9,3.1,1.3,3.8c2.9,0.2,5.8,0.3,8.7-0.1c2.1-1.3,1.3-2.9,0.5-4.5
			c-0.4-0.6-0.8-1.1-1.2-1.7c-1.3-2.1-2.1-4.4-2-6.9c0-2.3-1-4.1-2.4-5.7c-0.5-0.9-1.1-1.8-0.2-2.8c4.9-0.4,6.9,1.1,8.4,6.2
			c0.9,3,0.5,7.6,5.4,6.6c4.9-1,2.4-5.4,2.5-8.3c0.1-3.1-0.7-6.3-1.9-9.2c-2.3-5.7-6.3-7-11.4-3.5c-2.5,1.7-4.5,3.9-6.2,6.4
			c-0.9,1.3-1.6,3-3.5,3.3c-1.2-0.4-1.5-1.4-1.8-2.5c0.1-3.1-1.2-4.5-4.5-4.4c-6.8,0.2-13.6,0.2-20.5,0c-3.2-0.1-4.6,0.9-4.5,4.3
			c0.2,5-0.2,10,0.5,15c0.1,0.6,0,1.1-0.1,1.7c-0.1,0.6-0.4,1.1-0.7,1.5c-0.4,0.4-0.8,0.7-1.3,1c-0.7,0.3-1.5,0.5-2.3,0.5
			c-2.9,0.2-5.8-0.1-8.7,0.2c-1.7,1.2-1.7,2.2,0.3,3.1c3,0.5,6.2-0.8,9,1.4c0.3,0.5,0.3,1-0.2,1.4c-2.2,1.5-4.8,1-7.2,1
			c-2.9,0-4.4,1-4.2,4c0.1,1,0,2,0,3c0,6.2,0,6.1,6.4,6.3c2.2,0.1,4.7-0.6,6.4,1.6c0.1,0.6-0.1,1-0.6,1.3c-1.3,0.8-2.8,0.7-4.3,0.8
			c-1.4,0.1-2.9-0.3-4.4,0.3c2.8,0.2,5.7-0.4,8.4,0.7c1,0.7,1.5,1.5,0.8,2.6c-0.4,0.4-0.9,0.7-1.3,0.9c-0.3,0.1-0.6,0.2-0.9,0.3
			c-2.9,0.9-7.4-1.3-8.6,1.9c-1.9,4.9-0.9,10.4-0.3,15.6c0.2,1.6,1.8,1.7,3.1,1.8c2.3,0.2,4.6-0.2,6.9,0.6c1.2,0.5,1.8,1.3,1.5,2.7
			c-0.3,0.5-0.7,0.8-1.2,1.1c-1.6,0.6-3.3,0.4-4.9,0.6c-2,0.2-5.2-0.9-5.3,2c-0.1,3.1,3.1,2,5,2.2c1.8,0.2,3.7-0.1,5.3,0.9
			c0.7,0.6,1.3,1.3,0.1,2c-4.9-0.1-9.9,0.4-14.8-0.3c-5.5-0.9-10.6-2.8-15.7-4.9c-0.2-0.3-0.3-0.6-0.3-0.8c0-0.3,0.1-0.5,0.2-0.5
			c2.5-1.7,4.8,0,7.1,0.6c2,0.5,3.9,1.6,6.2,1.2c-10-3.9-20.1-7.4-30.3-11c-0.6,2.4,3.3,2.2,2,4.6c-1,0.1-2,0.3-2.9-0.3
			c-1.1-0.1-2.3,0.4-3-0.9c-0.5-2.1-1.4-3.6-3.9-2.2c-4,0.9-7.7,4-12.1,1.3c0-0.4,0-0.8,0.1-1.2c2.3-2.7,0.9-3.9-1.7-5.1
			c-3.2-1.4-7.3-1.4-9.3-5c0.4-0.3,0.8-0.6,1.2-0.9c3-1.9,5.3,0.5,7.8,1.3c2.7,0.9,3.8,0.1,3.6-2.6c-0.3-4.8,1.2-9.9-1.9-14.4
			c-0.3-1.1,0.5-1.9,1.1-2.7c1.2-5.5,1.2-11.2,1.8-16.7c0.3-2.8-1.8-4.5-2.6-6.8c0.3-0.3,0.7-0.7,1-1c5.8-5.1,9.3-11.4,10-19.2
			c0.7-0.6,1.3-1.2,2-1.8c0-2.6,1.9-2.4,3.5-2.1c1.8,0.3,2.9,1.6,3.4,3.3c0.6,2.1,0.3,4.3,0.9,6.6c0-0.9,0.1,0.2,0-0.5
			c-0.4-3,1-6.4-0.6-8.8c-2-3.1-5.5,0.2-8.3-0.7c-0.3-0.1-0.6-0.3-0.8-0.6c0-0.4,0-0.8,0-1.1c2.6-4.6,7-3.1,11-3.2
			c1.2,0.3,2.2,0.8,2.8,2c1.5,6.6,0.1,13.2,0.9,19.7c-0.1-3.1-0.2-6.3,0.1-9.5c0.5-5.1,3.9-8.9,7.9-8.8c4,0.1,7.2,3.9,7.7,9
			c0.2,2.3,0.1,4.7,0.1,7c0.1,2.2-0.2,4.3,0.7,6.5c0.5-7.7,0.5-15.5,0.3-23.2c0.1-1.6,1.2-2.2,2.6-2.5c1.2-0.2,2.4-0.2,3.6-0.5
			c0.5,0,0.9,0,1.4,0.1c1.6,0.8,3.2,1.4,4.9,1.8c1.5,0.5,3,1,4.4,1.7c0.4,0.2,0.8,0.5,1.2,0.8c0.5,0.5,0.9,1.1,1.2,1.8
			c0.7,2.6,0.1,5.3,0.4,7.9c0.3,2.2,1,3.8,3.3,4.6c0.5-1.9,0.6-4-0.8-5.1c-3.6-2.9-1.8-5,0.5-7.3c1.6-1.7,3.3-3.3,4.9-4.9
			c1.2-1.2,2.5-2.4,3.6-3.6c3.4-3.5,7.2-6.5,7.4-12.1c0.1-3.3,3.1-3.2,5.7-2.7c1.4,0.5,2.2,1.7,2.2,3.1c-0.2,5.6,3.9,8.4,7.8,12.2
			c-1-8.7-1.7-16.6,6.3-21.9c6,3.7,7.7,9.6,7.4,16.1c-0.2,3.7-0.4,7.5,0.4,11.2c3.2-3.4,0.5-7.4,1.6-11c0.3-1.7,0.8-3.4,1.5-5.1
			c1.3-2,2.2-5,5-4.7c2.6,0.3,3.5,3.1,4.7,5.2c0.5,0.8,0.8,1.8,1.1,2.7c1,2.4,1,4.8,0.5,7.3c-0.6,3.9,0.5,6.8,4.4,8.3
			c1.8,0.7,3.3,2.1,4.6,3.6c0.6,0.5,1.5,1.3,2.1,0.4c3.2-4.5,8.1-8.4,6.2-15c-0.9-4.5,0.6-8.5,2.7-12.4c3.7-3.7,5-3.5,7.6,1
			c1.7,3.1,2.5,6.4,2.4,9.9c0,2.8-0.1,5.6,0.1,8.4c2.4,3.9,6.2,6.9,7.2,12.2c1.1-2.5,1.7-4.5,2.7-6.5c1.6-2.6,4.3-3.6,6.8-4.7
			c3.7-1.5,6.2-3.6,5.8-8c-0.1-1,0.3-1.9,1.2-2.5c0.6,0,1.2,0,1.8,0c2.1,2.1,2.1,4.9,2.3,7.5c1.2,19.1,3.4,38,5.2,57.1
			c0.3,3,0.2,6,0,9C254,177.6,253.7,179.7,251.9,181.2z"/>
		<path class="st7" d="M253,175.9c-0.1-15-2.4-29.8-3.7-44.6c-0.9-9.7-1.6-19.5-2.4-29.3c0.2-12.5-0.3-24.9,1.9-37.3
			c1.2-6.9,3.3-13.2,7.1-19c2.2-3.3,1.7-4.2-2.3-4.9c-8.3-1.3-15.4-4.9-20.7-11.8c-1.9-2.5-1.1-3.9,0.9-5.2c2.7-1.7,2.5,1.3,3.2,2.4
			c4.7,8,12.5,10.4,20.9,11.9c5.4,2.1,5.3,2,1.9,6.9c-4.3,6.3-6.7,13.4-7.6,20.8c-0.7,5.7-1.8,11.5-1.1,17.3c0.7,2.6,0.7,5.3,0,7.9
			c0,1.4,0,2.7,0,4.1c1.1,4-0.4,8.1,0.9,12.1c0,2.3,0.1,4.6,0.1,6.9c1.1,2.3-0.3,4.8,0.9,7.1c0,1.6,0.1,3.3,0.1,4.9
			c0.9,1.6-0.2,3.5,0.8,5.1c-0.1,6.7,0.5,13.4,2,19.9c0.6,8.6,1.3,17.2,1.8,25.8c0.9,17.3-1.9,33.6-14.1,46.9
			c-10.6,11.5-23.7,14-38.3,9.4c-3.5-1.1-4.8-0.9-5.3,3.3c-1.2,10.6-8.4,17.4-16.5,23.3c-4.3,3.1-8.4,6.5-12.1,10.4
			c-1.8,1.8-3.1,3.9-3.9,6.3c-1.3,4.1,1.3,8.3,5.2,8.5c2.7,0.2,4.5-1.2,5.2-3.7c0.6-2-0.1-3.6-2.2-4.4c-1-0.4-2-0.8-2.7,0.2
			c-0.9,1.3,0.3,1.7,1.3,2c1.6,0.4,1.9,1.2,0.9,2.5c-0.9,1.2-2,1.7-3.5,0.9c-1.8-1-2.8-2.6-2.3-4.5c0.6-2.3,1.8-4.4,4.5-4.7
			c2.4-0.3,4.9,0,6.3,2.1c1.7,2.4,2.4,5.1,1.2,8c-1.9,4.7-7,7.1-11.9,5.5c-5-1.6-8-6.9-6.9-11.7c1.7-7.6,7.7-11.4,13.2-15.7
			c5.5-4.3,11.3-8.2,16-13.5c3.7-4.1,6-8.7,6.2-14.3c0.3-5.9,1.2-6.4,6.5-4.3c8.1,3.2,16.4,4,24.8,0.8c1.7-0.6,3.6-0.9,4.5-3.2
			c-3.6-1.1-7.1-2.2-10.6-3.4c-1.1-0.4-3.1-0.9-2.7-2.4c0.6-1.9,2.2-0.6,3.3-0.2c10.2,3.5,19.7-2.8,24.9-11.7
			c2-3.4,3.7-7.1,4.1-11.1c-0.5-0.7-0.7-1.6-0.5-2.5C253.6,189,252.9,182.4,253,175.9z"/>
		<path class="st14" d="M56.9,106c0.2-1.7,0.4-3.4,0.6-5.1c0.3-1.6,1.7-2.3,2.9-3.2c6.4-4.7,13-9,19.3-13.7c1.2-0.9,2.3-1.9,4-1.4
			c1.5,2.8-0.8,4.2-2.1,6c-0.2,0.1-0.4,0.2-0.7,0.3c-1.7,1-2.5,2.8-2.9,4.5c-1.4,6.6-7,11.8-5.9,19.2c0.2,1.1-0.2,2.1-1.6,1.6
			c-4.3-1.7-8.6-3.5-12.8-5.4C57.1,108.4,57.1,106.9,56.9,106z"/>
		<path class="st15" d="M115.2,110c-0.8,1.2-2,0.9-3.1,1c-3.4-1-6.7,0.7-10.1,0.5c-4.7-0.3-9.4-0.1-14-0.6c-3.8,0-7.5,0.2-10.9,2.1
			c-1-0.3-3.1,1.4-2.9-1c0.2-2.4-1.8-5.4,1.6-7c1-0.5,2.2-0.8,3.2-1.2c2.9-2.8,6.7-2.9,10.4-3.2c6.8-0.8,13.7-2.1,20.4,0.8
			C111.3,104.4,112.5,107.7,115.2,110z"/>
		<path class="st7" d="M66,139c3.2,1,4.4,3.2,3.9,6.5c-0.8,6.2,0,12.5-1.9,18.5c-2.4-0.9-5.6,0.2-7.1-2.9c-0.1-0.1-0.3-0.2-0.4-0.2
			c-8.6-3.6-8.7-3.8-7-13.1c0.1-0.3,0.2-0.6,0.2-1c0.8-3.7-1.5-8.8,1.7-10.7C58.4,134.4,62.2,138.6,66,139z"/>
		<path class="st7" d="M66.1,164.9c2,0.8,3.2,2,3,4.5c-0.2,4.1-0.2,8.3-0.1,12.4c0.1,2.8-0.8,3.5-3.5,2.4c-3-1.3-5.9-3-9.3-3.3
			c-5.9-1.7-5.6-6.3-4.9-10.9c0.1-0.8,0.4-1.6,0.6-2.4c1-7.2,1-7.2,8-5.4C62,162.8,64.6,162.6,66.1,164.9z"/>
		<path class="st16" d="M77,118.8c2.4,0.5,2.8,1.7,1.6,3.9c-2.4,4.3-4.8,8.7-6.9,13.2c-1.1,2.3-2.4,2.9-4.6,2.1
			c-1.8-3.8,1.6-6.4,2.4-9.6c0.4-1.7,2.1-3.2,1.5-5.1c-0.6-2-1.1-5-3.4-5c-2.9,0-6.4,0.1-8.2,3.5c-1.9,3.6-2.2,7.5-2.4,11.4
			c-1.3-0.1-1.8-0.8-1.8-1.7c0.4-5.8,0.9-11.6,1.4-17.3c0.2-2.6,1.2-3.3,3.9-2.1C65.8,114.5,71.5,116.6,77,118.8z"/>
		<path class="st17" d="M55,181.8c3.9,1.5,7.9,3.1,11.8,4.6c1.6,0.6,2.2,1.6,2.2,3.3c-0.1,2.2-1.4,2.2-3,2.2
			c-3.9-2.5-8.5-3.3-12.6-5.3c-1.6-0.8-3.3-1.3-2.6-3.9C51.7,179.7,53.5,181.6,55,181.8z"/>
		<path class="st18" d="M77.9,103c-2.2-1.7-0.8-3.6-0.2-5.3c1-2.9,2.8-5.6,3.1-8.7c0,0,0,0,0,0c2.1-2.1,3.6-4.8,5.8-6.7
			c0.9-0.8,2.1-2.1,3.4-0.9c1.2,1.1,0.6,2.5-0.1,3.6c-0.7,1.1-1.6,2.1-2.1,3.3c-1.3,2.1-2,4.4-2.6,6.8
			C84.2,98.9,83.9,103.5,77.9,103z"/>
		<path class="st19" d="M152.1,281.1c3.7,4.9,3.2,10.1,1.1,15.4c-0.4,0.9-0.9,1.9-2,2c-1.4,0.2-1.9-1-2.4-2.1
			c-2.4-4.8-1.4-9.6,0.2-14.4c2.4-0.2,1.8,1.8,1.9,3c0.2,1.8,0,3.6,0,4.9C151.6,287.4,149.9,284.1,152.1,281.1z"/>
		<path class="st20" d="M77,114.2c0.2,0,0.3,0,0.5,0c3.4-0.1,7.5-3.2,9.8-1c2.2,2.1,0.5,6.6,0.7,10c0.1,1.6,0,3.2,0,5.3
			c-3.1-2.6-2.8-5.6-3-8.5c-0.3-4.3-2.2-5.1-6-2.9c-1.3,0-2.7,0.1-3.3-1.2C75.6,115.6,76.6,114.7,77,114.2z"/>
		<path class="st21" d="M61.5,122.7c1.9,3.3,3,6.5,2.5,10.1c-0.2,1.2,0.5,3-1.6,3c-1.7-0.1-3.3-0.8-3.3-2.9
			C59,129.4,58.6,125.9,61.5,122.7z"/>
		<path class="st16" d="M161.1,290c-0.1,1.7,0,3.5-1.3,4.9c-2-0.9-3.1-2.5-2.9-4.7c0.2-2.6-0.4-5.2-1.9-8.4
			C159.4,283.8,160,287,161.1,290z"/>
		<path class="st22" d="M142.2,294.9c-1.2-1.4-1.2-3.2-1.2-4.9c0.9-2.6,1.5-5.2,4.6-6.6C144,287.2,147.2,292.1,142.2,294.9z"/>
		<path class="st23" d="M152.1,281.1c0,4.3,0,8.6,0,13c-3.6-3.6-0.5-8.3-3-11.9C149.8,281.1,150.6,280,152.1,281.1z"/>
		<path class="st4" d="M77.9,103c5.3-0.8,5.2-5.1,6.2-8.9c1.3-0.3,1.5,0.7,1.8,1.5c0.4,1.5,0,3.4,1.8,4.3c0.7,0.5,1.6,0.8,1.2,2
			c-3.3,0.7-6.7,1.3-10,2C78.6,103.6,78.3,103.3,77.9,103z"/>
		<path class="st24" d="M55.1,106c0-9.3,0-18.7,0-28c2,3.4,0.7,7.1,0.9,10.6c0.2,5.8,0.1,11.6,0.1,17.4C55.7,106,55.4,106,55.1,106z
			"/>
		<path class="st25" d="M66.1,164.9c-2.1-0.9-4.5-1.1-6.2-2.8c0.4-0.4,0.7-0.7,1.1-1.1c2.3,1,5,1.2,7.1,2.9
			C67.2,164,66.5,164.1,66.1,164.9z"/>
		<path class="st1" d="M253.1,196.1c0,0.6-0.1,1.3-0.1,1.9c-0.6,0-1.2,0-1.8,0c0-1.5-0.1-2.9,0.8-4.2
			C252.9,194.3,253.6,194.9,253.1,196.1z"/>
		<path class="st9" d="M45.9,158c-0.1,2.1,0.6,4.2-0.8,6.1C45.3,162.1,44.3,159.9,45.9,158z"/>
		<path class="st14" d="M244.6,86.9c0,3.3,0,6.7,0,10c-2.1,0.3-3.5-1-4.8-2.1c-19.1-15.2-38.3-30.2-57.3-45.5
			c-0.9-0.7-1.8-1.5-2.5-2.4c-2.2-3-5.7-4.6-7.8-7.5c-2.1-2.8-1.6-4.1,1.9-4.5c3.6-0.4,7.3-0.1,10.9-0.1c10.2,1.8,19.5,6.5,29.2,9.9
			c9.6,3.3,19,6.9,28.5,10.5c1.9,0.7,3.8,1.3,5.1,3c-1.6,8.2-2.6,16.5-3,24.9c-2.3,0.7-3.8-0.9-5.4-1.9c-12.9-8-25.3-16.6-38-24.8
			c-1.1-0.7-2.1-1.5-3.1-2.4c-0.1,0.5,0.4,0.4,0.6,0.5c0.7,0.7,1.5,1.2,2.3,1.7c13.1,8.6,26.2,17.3,39.1,26.3
			C242,83.6,244.1,84.5,244.6,86.9z"/>
		<path class="st26" d="M181.1,47c16.1,12.6,32.3,25.3,48.4,37.9c5.1,4,10.1,8,15.2,12c0.2,1.7,0.3,3.4,0.5,5.1c0,0.5-0.2,1-0.1,1.5
			c1.4,5.7-1.3,8.7-6.6,10.4c-2.4,0.8-5.1,1.6-6.5,4.1c-5.6-2.5-7.5-8.2-11.1-12.5c-0.5-0.8-0.2-1.8-0.9-2.5c0.4-3.3-0.7-6.2-2.1-9
			c-1.4-2.9-3.2-5.2-5.9-1c-5.4-4.5-9-10.5-13.3-16c-6.4-8.3-12.9-16.5-19.1-24.9c-1.2-1.6-3.3-3.1-1.4-5.6
			C179.3,46.1,180.2,46.2,181.1,47z"/>
		<path class="st26" d="M55.9,64c-1.6-6.1-3.4-12.2-6.3-17.9c3.2-2.5,7.2-2.4,10.8-3.1c16.9-3.3,33.9-6.7,50.8-9.9
			c1.8-0.3,3.6-0.6,5.4,0.1c3.3,2.6,7.5,0.4,10.9,2.2c1.2,3.4-1.9,3.3-3.5,4C105,46.7,85.9,54,66.7,60.9C63.2,62.2,60,64.8,55.9,64z
			"/>
		<path class="st14" d="M55.9,64c14.5-5.6,29-11.1,43.5-16.7c9.5-3.7,19.1-7.4,28.6-11.1c0.6-1,1.6-1.1,2.5-0.6
			c1.1,0.7,0.6,1.7,0.1,2.5c-1.2,1.9-3,3.4-4.6,5c-0.6,0.6-1.4,1.1-2,1.7c-1.1,1.1,0.6,2,0.2,3c-6.3,4.4-12.9,8-20.7,9
			c-1.7-0.4-2.4-2.2-4-3c-3,2.3-2.5,6.8-5.7,8.9c-10.2,4.6-20.4,9.5-30.6,14.1c-1.9,0.8-3.6,2.6-5.9,1.2
			C56.8,73.3,56.4,68.7,55.9,64z"/>
		<path class="st26" d="M247.7,58c-10.3-3.7-20.5-7.5-30.9-11c-10.7-3.6-20.8-8.7-31.9-11c-1-1.1-2.6-1.2-3.8-2
			c-1.2-0.8-2.1-1.7-0.3-2.8c7.7-1,15.2,0.9,22.7,1.6c8.1,0.8,16.2,1.6,24.3,2.6c3.8,0.5,7.5,1.1,11,2.7c1.6,0.8,3.2,1.6,4.9,2.3
			c3.3,1.3,6.6,2.5,9.9,3.7c-1.5,3.3-3,6.5-4.5,9.8C248.6,55.2,248.2,56.6,247.7,58z"/>
		<path class="st26" d="M57.2,78c10.4-4.7,20.8-9.4,31.1-14.2c1.8-0.8,3.5-2,5.6-1.8c2,4.4,1.4,9,1,13.6c-0.2,1.9-1.6,3.4-3.4,4
			c-2.7,0.8-4.6,3.3-7.6,3.5c-7,3.6-12.9,9-19.6,13.2c-2.4,1.5-4.6,3.1-6.9,4.7C57.4,93.2,57.3,85.6,57.2,78z"/>
		<path class="st27" d="M117.1,34c-10.5,1-20.7,3.6-31.1,5.5c-12.1,2.1-24.1,5.3-36.4,6.6c-1.2-1.3-2.6-2.6,0.6-3.2
			c5.8-1.1,10.9-3.7,15.8-6.9c3.4-3.3,7.8-2.5,11.8-2.9c11.9-1.1,23.8-1.9,35.8-2.6c1.5-0.1,3.1-0.4,3.8-0.1
			c-9.2-0.3-19,1.6-28.9,1.7C82.7,32.2,76.7,34,71,31c0.9-1.6,1.8-3.4,4.1-2.8c7.9,2.2,14.6-1,21.3-4.4c0.7-0.4,1.5-0.6,2.3-0.9
			c5.7-2.1,11.6-1.6,17.5-0.7c4.1,1.4,7.9,3.4,12.2,4.3c1,0.3,1.9,0.9,2.2,1.9c0.1,2.9-2.5,2.8-4.2,3.7
			C123.2,32.6,120.7,35.6,117.1,34z"/>
		<path class="st7" d="M131.1,16.8c3.3,0.2,4-1.4,3.9-3.6c-0.1-2.7-1.6-4.3-4.1-4.9c-0.6-0.1-1.4-0.2-2,0
			C118.4,13.6,105.8,13,96.1,21c-5.6,4.7-12.8,6.9-20.6,5c-4.3-1.1-6.3-4.2-7.3-8c-0.9-3.5,2.1-6.7,5.3-5.9c1.7,0.4,2.5,1.5,2.5,3.3
			c0,1.1-0.4,2.1-1.6,2.2c-2,0.2-0.8-2.3-2.1-2.8C70,19,71.7,22.5,76.6,23c4.8,0.5,9.2-0.5,13.3-3.2c6.5-4.3,12.6-9.4,19.8-12.5
			c7-3.1,14.2-5.9,22.1-3c4,1.5,6.2,4.3,7,8.3c0.6,3-0.8,5.2-2.9,7c-2.3,2-5,1.8-7.5,0.9c-1-0.4-1.9-1.4-2.5-2.3
			c-1.3-2-1.2-4.1,0.5-5.9c1.6-1.7,3.7-1.9,5.5-0.8C134.2,13,131.9,14.8,131.1,16.8z"/>
		<path class="st7" d="M230.5,15.4c-2-0.1-1.1,2.8-3,2.2c-0.9-0.2-1.4-1-1.4-1.9c-0.1-1.7,1-2.8,2.4-3.4c2.9-1.2,5.7,1.4,5.4,5
			c-0.5,6.1-6.8,10.2-13.6,9.3c-7.5-1-13.7-4.9-19.9-8.7c-5.7-3.5-11.5-6.8-18.6-5.9c-2.4,0.3-3.5-1.5-5.2-2.5
			c-2.6-1.5-5.3-2-7.9,0.2c-1.5,1.3-2.2,3-1.4,4.9c0.4,1.1,0.9,2.5,2.3,2.1c2.1-0.6,0.5-1.7,0.1-2.6c-1.1-2.3,0.3-3.1,2.2-3.3
			c2.7-0.3,4.6,0.9,5,3.7c0.4,3-0.8,5.4-3.8,6.1c-3.3,0.8-6.7,0.3-8.3-2.9c-1.7-3.2-1.8-6.9,0.7-9.9c4-4.9,9.5-5.7,15.4-4.6
			c9.6,1.8,17.7,6.6,25.4,12.2c5.5,4,11,8.2,18.5,7.4C229.5,22.6,231.2,20.5,230.5,15.4z"/>
		<path class="st14" d="M238.9,38c-11.1-1.2-22.3-2.5-33.4-3.7c-8.5-0.9-17.1-1.6-25.6-2.3c-1.9,1.2-3.4,0.4-4.8-1.1
			c-0.8-0.5-2.1-0.9-2.3-1.6c-0.3-1.2,1.2-1.2,2-1.5c3.4-1.3,6.7-2.6,10.1-3.8c6.1-3.3,12.3-0.9,18.4-0.1c1.3,0.2,2.6,0.5,3.8,1.1
			c6.6,2.6,13.1,5.5,20.5,3.2c1.6-0.5,2.2,1.1,3.1,2C233.5,32.8,236.2,35.4,238.9,38z"/>
		<path class="st28" d="M139,23c5.5-5.2,18.6-5.3,24.1,0c3,3.6,3.1,9.3,0.3,13.7c-1,1.5-2.1,3-3.6,4c-5.1,3.5-10.5,4-16.1,1
			c-3.5-3-7.1-5.9-7.6-11C135.8,27.7,136,24.8,139,23z"/>
		<path class="st7" d="M139.2,6.8c7.9,1.3,15.2,2.3,23.1-0.3c-0.1,3.8-1.9,6.8-0.9,10.1c0.5,1.6-1.6,1.4-2.5,1.2
			c-5.3-1.3-10.5-1.3-15.8,0c-1.8,0.5-2.8-0.1-2.3-2.3C141.5,12.8,140.6,10.1,139.2,6.8z"/>
		<path class="st29" d="M129.7,28.2c-0.6-0.3-1.1-0.7-1.7-1c-1.7-1-4.2-0.4-5.2-2.8c3.2-2.1,6.8,0.1,10.1-1.2c1.3-0.4,2.6-0.7,4-1.1
			c0.4,0.3,0.7,0.8,0.6,1.3c-2.5,7.4-0.1,13.2,5.6,18c0.3,0.4,0.5,0.9,0.6,1.4c0,0.5-0.1,1-0.3,1.4c-3,2.7-6,5.3-9.6,7.2
			c-2-0.8-1.2-2.2-0.9-3.6c0.7-1.8,2-3.4,2.5-5.4c-1.1-0.7-1.8,0.4-2.8,0.6c-1.8,0.5-3.7,1.6-5.6,0.4c-0.2-3.7,3.8-4.2,5.2-7.1
			c-3.7-1.6-7.8,0.2-11.8-1.4c1.6-2,3.5-2.4,5.3-3.1c1.5-0.5,3.2-0.7,4.5-1.6C131.7,29.2,130.6,28.7,129.7,28.2z"/>
		<path class="st30" d="M71,31c16.3,0.8,32.5-1.5,48.8-0.5c-8.4,0.2-16.7,1.9-25.1,2.6c-9.5,0.8-19.1,2-28.6,3
			C67.7,34.3,69.4,32.7,71,31z"/>
		<path class="st31" d="M201,56c4.9,1.3,8.6,4.8,12.8,7.3c10.4,6.4,20.6,13,30.9,19.6c-0.1,1.3-0.1,2.6-0.2,4
			c-13.3-9.2-26.7-18.4-40-27.6C203.2,58.4,201.7,57.6,201,56L201,56z"/>
		<path class="st32" d="M175.2,30.9c1.6,0.4,3.2,0.7,4.8,1.1c1.3,1.8,4.9,0.6,5,3.9c-4.4,0-8.8,0-13.6,0c2.2,5.1,8.1,6.2,9.7,11
			c-1-0.1-2-0.1-3-0.2c-2.8,1-5-0.7-7.3-1.8c-1.7-0.8-1.9-0.1-1.8,1.3c-0.1,0.7-0.3,1.4-0.9,1.9c-3.6-1.5-4.8-4.6-5.3-8.1
			c4.1-2.7,6.8,1.1,9.9,1.9c-1.9-2.3-6.1-3.1-6.1-7.4c0.6-1.3,1.8-1.4,3.1-1.4c1.4,0.3,2.9,0.5,4.4,0.6c1.1,0.1,2.2,0.3,3.3,0.2
			c-1.8-0.1-3.5-0.4-4.3-2.2C173.7,31.5,174.4,31.2,175.2,30.9z"/>
		<path class="st33" d="M184.9,22.1c-2.3,0-4.6,0-6.9,0c2.8-9.5,6-10.4,16-5C192,20.7,189,22.5,184.9,22.1z"/>
		<path class="st30" d="M184.9,22.1c3.3-1.2,6.2-3,9.1-5c4.7,2.1,9,4.9,13.2,7.8c-7.4,0.5-14.7-1.7-22.2-0.9
			C185,23.3,184.9,22.7,184.9,22.1z"/>
		<path class="st22" d="M173,31.8c1.6,0.4,3.3,0.8,4.9,1.2c-2.3,3-5.3,1-8,1c-1.1,0-2.2-0.2-3,0.9c-1.1,0.2-1.5-0.6-1.8-1.4
			c0.1-3.8-0.8-7.7,0-11.5c4.8,2.2,10,0.4,15.1,2.1c-2.4,0.8-4.9,1.4-7.2,2.4c-1.7,0.7-4.7,0.3-4.6,2.9
			C168.6,31.5,171.5,30.9,173,31.8z"/>
		<path class="st34" d="M117,24c-6-2.1-12.3-0.4-18.3-1.1c3.1-2.5,6.4-4.7,10.1-6c4.4,0,8.4,1.2,11.4,4.5
			C120,23.3,117.8,22.8,117,24z"/>
		<path class="st35" d="M120,21.9c-3.4-2.5-7.5-3.1-11.2-5c2.2-2,5.1-2.3,7.9-2.7c4.7-0.7,8,2.4,7.7,7c-0.1,1.3-1.6,0.6-2.4,1
			C121.3,22.6,120.6,22.5,120,21.9z"/>
		<path class="st36" d="M165.1,22c1.1,3.9,1,7.9,0.8,11.9c-0.1,2.7-1.6,4.7-3.6,6.4c-0.6,0.8-1.4,1.2-2.5,1.2
			c-0.7-0.3-1.3-0.6-0.9-1.6c5.5-4.7,6.3-10.4,4.1-17C163.8,22.7,164.5,22.3,165.1,22z"/>
		<path class="st25" d="M143,42c-7.7-4.9-8-12.1-6.1-20c0.7,0.3,1.4,0.6,2.1,0.9c-4.2,7.7-0.1,13,5.2,17.9
			C144,41.5,143.6,41.9,143,42z"/>
		<path class="st37" d="M120,21.9c0.7,0.1,1.3,0.2,2,0.3c0,0.3,0,0.5,0,0.8c0.2,0.7,0.7,1.3,1.1,1.9c1.6,0.8,3.7,0.7,5,2.3
			c-4.1,0.5-7.2-2.5-11-3.2C116.9,21.7,118.7,22.2,120,21.9z"/>
		<path class="st38" d="M123.1,24.9c-0.8-0.4-2.2-0.4-1.1-1.9c3.6,0.1,7.3,0.1,10.9,0.2C129.9,25.4,126.1,22.6,123.1,24.9z"/>
		<path class="st1" d="M50.9,77c0,7.3,0,14.6,0,21.9C49.4,91.6,49.4,84.3,50.9,77z"/>
		<path class="st9" d="M50.9,101c-0.2,3,0.8,6.2-0.8,9.1C50.4,107.1,49.1,103.9,50.9,101z"/>
		<path class="st9" d="M49.9,116c-0.2,2.4,0.7,4.9-0.9,7.1C49.3,120.8,48.1,118.2,49.9,116z"/>
		<path class="st9" d="M48.9,128c0,1.7,0.5,3.6-0.8,5.1C48.2,131.4,47.4,129.5,48.9,128z"/>
		<path class="st9" d="M251.9,107.1c-1.7-3.9-0.6-8.1-0.9-12.1C253,99,251.6,103.1,251.9,107.1z"/>
		<path class="st39" d="M251.1,91c0-2.6,0-5.3,0-7.9C252.5,85.7,252.5,88.3,251.1,91z"/>
		<path class="st9" d="M253,121.1c-1.6-2.2-0.7-4.7-0.9-7.1C253.8,116.2,252.7,118.8,253,121.1z"/>
		<path class="st9" d="M253.9,131.2c-1.4-1.5-0.8-3.4-0.8-5.1C254.6,127.5,253.8,129.4,253.9,131.2z"/>
		<path class="st40" d="M166.8,209.7c0.3,0.4,0.6,0.8,0.9,1.2c-0.6,1.5-2,1-3,1c-9.2,0-18.3,0-27.5,0c-1.3,0-3.5,0.3-3.6-0.8
			c-0.7-6.5-5.5-3.4-8.7-4.1c-2.1-0.4-4.3,0.6-6.3-0.8c5.1,0,10.2-0.1,15.4-0.1c1,0.6,1.1,2.1,2.3,2.5c1.6,0.4,3.3,0.2,5,0.2
			c0.4-0.1,0.8-0.1,1.3-0.3c0.4-0.3,0.7-0.6,0.9-1c0.7-7-0.4-14.1,0.6-21.2c1-3.3,2.5-6.2,6.5-6.4c3.9-0.2,6.1,2,7.4,5.3
			c1.2,7.4-0.1,14.9,0.8,22.3c0.3,0.4,0.6,0.7,1,1c0.5,0.1,0.9,0.2,1.4,0.2C163,208.9,165.1,208.4,166.8,209.7z"/>
		<path class="st1" d="M253.1,196.1c-0.4-0.8-0.8-1.5-1.2-2.3c0-4.2,0-8.4,0-12.6c0.4-1.8,0.8-3.5,1.1-5.3
			C254.5,182.6,254.6,189.4,253.1,196.1z"/>
		<path class="st41" d="M85,195c1.1,0,2.1-0.1,3.2-0.1c5.7-0.8,10.7,0.8,14.9,4.9c0,0.5-0.1,0.9-0.1,1.4
			C96.9,199.1,90.9,197.1,85,195z"/>
		<path class="st42" d="M150.8,222.2c4.9-4.2,10-4.4,14.2-0.4C159.8,220.3,155.3,221.3,150.8,222.2z"/>
		<path class="st43" d="M181,198c2.1,1.5-0.1,4.5,2,6c-0.1,0.7-0.1,1.3-0.2,2c-3,0-5.9,0-8.9,0c-6.6,0-7.4-1.5-4.9-8
			c1.3,3.1,2.1,6.2,7,5.8C180.2,203.4,179.2,199.7,181,198z"/>
		<path class="st42" d="M155.4,232.5c-4.2-1.6-7.8,0.2-11.9,1.3C146.8,229.4,152.6,228.8,155.4,232.5z"/>
		<path class="st42" d="M244.4,191.6c-3.2,0.4-6.5,0.8-9.7,1.3C237.7,190.3,240.8,189.3,244.4,191.6z"/>
		<path class="st44" d="M183.5,215.9c-3.6-0.2-7.1,1.3-10.7,1.5C176,214.6,179.6,213.8,183.5,215.9z"/>
		<path class="st42" d="M131.3,213.4c-3-0.5-5.8-0.8-9.3,0.8C124.7,210.1,127.6,210,131.3,213.4z"/>
		<path class="st45" d="M134.2,258.5c3.8-3.4,6.5-3.4,10.3-0.5c-1.8,0-3.5-0.1-5.3,0C137.7,258.1,136.1,258.3,134.2,258.5z"/>
		<path class="st46" d="M155.4,272.1c-3.3-1-6.4,0.8-10.7,0.7C148.9,270,152,269,155.4,272.1z"/>
		<path class="st42" d="M146.1,246.4c-2.9-0.1-5.7-1.2-8.6-0.2C140.5,243.5,143.4,243.2,146.1,246.4z"/>
		<path class="st42" d="M118.7,241.2c2.8-2.8,5.8-2.9,9.9,0.1C124.6,241.3,121.6,240.4,118.7,241.2z"/>
		<path class="st47" d="M173.5,237.5c2.7-2.3,5.4-3.6,8.7,0C178.8,237.5,176.2,237.5,173.5,237.5z"/>
		<path class="st48" d="M225.6,210c-2.7-0.6-5.2,1.9-7.9-0.1C220.3,209.3,222.8,206.6,225.6,210z"/>
		<path class="st49" d="M179,228c2.7-2.7,5.7-3.9,10.3-1.6C185.1,227,182.1,227.5,179,228z"/>
		<path class="st50" d="M221.4,197.7c-2.9,0.2-5.8,0.4-8.7,0.6c-0.1-0.5-0.1-0.9-0.2-1.4C215.3,195.4,218.2,195.7,221.4,197.7z"/>
		<path class="st45" d="M108.3,212c-2.7,1.5-5.8,0.3-8.6,1.2C102.2,210.3,105.2,210.8,108.3,212z"/>
		<path class="st51" d="M139.2,227.3c-3.6,2.6-6.6,1.3-9.4,1.5C132.1,225.9,135.2,227.2,139.2,227.3z"/>
		<path class="st52" d="M120.2,221.8c-2.9,0.1-5.8,0.3-9.5,0.5C114.1,218.8,117.1,220,120.2,221.8z"/>
		<path class="st44" d="M156.7,242.2c2.8-3.2,5.7-2.6,9.5,0.6C162.4,242.5,159.6,241.3,156.7,242.2z"/>
		<path class="st53" d="M88.8,203.7c2.2-3.2,4.8-3.2,8.5-0.8C93.8,203.2,91.3,203.5,88.8,203.7z"/>
		<path class="st46" d="M171.4,250.9c-2.9,1-6,0.1-9,1.1C165,248.7,168.2,250.2,171.4,250.9z"/>
		<path class="st45" d="M88.2,210.5c-3.4,0.7-6,0.9-8.5-0.6C82.3,209.1,84.9,208.1,88.2,210.5z"/>
		<path class="st45" d="M64.6,212.7c3.6-2.7,3.6-2.7,8-0.3C69.7,213.8,67.1,211,64.6,212.7z"/>
		<path class="st42" d="M193.3,218.3c3.4-3.3,6.1-2.3,8.7-1.9c0,0.4,0.1,0.9,0.1,1.3C199.6,217.9,197.1,218.1,193.3,218.3z"/>
		<path class="st42" d="M154.4,262c2.6-2.7,4.9-2.4,7.5,0.4C159.1,263.3,156.8,261,154.4,262z"/>
		<path class="st52" d="M203.4,202.4c-3.7,0.8-6.2,0.6-9.9,0.2C197.2,200.5,199.6,200.6,203.4,202.4z"/>
		<path class="st51" d="M213.4,223.7c-2.2,0.2-4.4,0.4-7.8,0.8C208.7,221.7,210.9,221.7,213.4,223.7z"/>
		<path class="st52" d="M239.2,204.2c-2.5-0.1-4.5-0.2-6.8,0.7C235.2,201.3,235.3,201.2,239.2,204.2z"/>
		<path class="st52" d="M66.9,202c2-2.7,4.1-1.9,6.1-1.6c0,0.4,0.1,0.8,0.1,1.3C71.1,201.8,69,201.9,66.9,202z"/>
		<path class="st52" d="M61.1,194.3c-2.6,1-4.3,0.8-6.6,0.4C56.5,192.2,58.3,192.9,61.1,194.3z"/>
		<path class="st54" d="M94.1,224.4c-2.2,0-3.8,0-5.5,0C90.1,222.9,91.7,221.6,94.1,224.4z"/>
		<path class="st41" d="M78,191.9c2.8-1.9,4-1.1,3.9,2.2C81,192.8,80.1,191.4,78,191.9z"/>
		<path class="st14" d="M153,92.8c-3.9-0.3-5.4,1.1-5.2,5.3c0.2,5.1-4.8,7-7.7,10.1c-2.9-4.6,0.1-9.2,0.2-13.8
			c0-2.5,0.6-5.2,1.2-7.7c1-7.4,2.1-14.8,3.3-22.7c-0.7,1-0.2,1.7-0.3,2.3c-0.9,5.7-1.9,11.4-2.5,17.1c-1.1,7.4-2.6,14.8-3.2,22.3
			c-0.1,2-0.9,3.8-1.8,5.6c-2.2,2.3-4.3,4.6-6.5,6.9c-0.7,0.7-1.8,2.2-1.1,2.4c6.1,1.5,2.3,6.3,3.6,9.6c-5.4-1.3-7-4.5-6.2-9.3
			c0.3-2,0.1-4,0.2-6c-0.9-2.5,0-5,0.6-7.4c3.6-14.9,6-30,10.3-44.7c1-1.7,2.5-3,3.2-4.9c0.4-0.9,0.9-1.8,1.4-2.6
			c1.6-1.8,2.1-5.6,4.8-5.1c2.9,0.6,1.9,4.5,2.8,6.9c0.3,2.7,1.2,5.2,2,7.8c2.1,7.8,0.8,15.9,2.1,23.8
			C154.6,90.1,154.3,91.6,153,92.8z"/>
		<path class="st26" d="M209.9,105c2.9,7.9-4.6,11.6-7.3,17.2c-0.9,1.9-2-0.9-2.7-1.9c-4.2-6.8-7-14.2-10.2-21.4
			c-5.6-10.7-10.5-21.7-15.8-32.6c-1.6-3.2-3.8-6.3-3.2-10.2c0.8-1.1,2-1.4,3.3-1.6c2.3,0.2,3.3,2.1,4.4,3.7
			c9.6,13.7,19.3,27.2,28.8,41C208.3,101,209.2,103,209.9,105z"/>
		<path class="st26" d="M139,62.3c-3.9,17.5-7.3,35.1-11.9,52.5c-0.4-0.3-0.8-0.5-1.3-0.8c-0.7-3.6,0.8-7.6-2.5-10.6
			c-1.3-7.9-6-14.2-9.8-21c0.1-2.1,1.4-3.7,2.6-5.3c5.2-7.4,9.7-15.3,14.8-22.8c0.8-1.3,1.9-2.4,3.3-3c2-1,3.2-4.5,5.6-3.1
			c2.4,1.4,1.3,4.5,0.9,6.9C140.3,57.6,140.2,60.1,139,62.3z"/>
		<path class="st26" d="M153,92.8c-0.7-9.4-1.3-18.9-2-28.3c0.1-3.3,0.6-6.6,1.3-9.8c0.4-1.6,0-4.2,2.1-4.6c2.4-0.4,2.9,2.2,4,3.7
			c1.2,1.8,2.1,3.9,3.3,5.7c0.6,0.8,1.1,1.7,1.6,2.5c3,6.6,4.1,13.8,6.2,20.6c0.3,1.1,0.3,2.3-0.6,3.2c-6.4,6.6-6.2,14.8-5.5,23.3
			c-4.6-4.2-10.9-7-9.6-14.8C154,93.9,153.3,93.3,153,92.8z"/>
		<path class="st55" d="M169,85.9c-2.1-8-3.7-16.1-7-23.7c0.5-4.2-1.4-8-1.4-12.1c0-1.1-0.5-2.4,0.8-3.1c1-0.5,2,0.2,2.7,0.9
			c2.5,2.4,6.5,3.5,7.1,7.8c0.6,3.6,2.3,6.8,3.8,10.1c4.6,9.7,9.3,19.3,14,29c0.7,1.4,1.3,2.7,1.1,4.2c0.5,0.5,0.4,0.9-0.2,1.3
			c-1.3-2.8-2.6-5.6-5.2-8.1c-1.3,1.6-2.5,3.2-3.8,4.7c-1.6,0.2-2-1-2.4-2.1c-4.6-11.8-8.4-24-12.1-34c1.1,4.3,3.7,10.2,5.6,16.4
			c2.5,8.2,6.3,16.1,7.6,24.7c-1.1,2.9,0.4,5.8,0.3,8.7c-0.1,3-1,4.7-4.6,5.1C173.9,105.6,178.8,94.1,169,85.9z"/>
		<path class="st14" d="M209.9,105c-11.3-16-22.6-32-33.9-48.1c-0.6-0.8-1.2-1.6-2.2-1.9c-3.8-1.9-4.4-5.8-5.7-9.3
			c-0.3-1.4-1.7-3.7,1.8-2.3c2.7,1.1,5.4,2.2,8.2,3.3c2.4,6.3,7.6,10.7,11.4,16c7.3,10.2,15.7,19.6,22.6,30.2
			C210.7,96.9,208.9,100.7,209.9,105z"/>
		<path class="st7" d="M107.9,177.1c-7-2.4-14-5-21.1-7.3c-2.7-0.9-4.1-2.1-3.9-5.2c0.3-4.1,0.2-8.3,0-12.4
			c-0.1-2.8,0.9-3.4,3.6-2.5c9.8,3.5,19.7,6.9,29.6,10.2c2.1,0.7,2.9,1.8,2.9,4c-0.1,4.3-0.3,8.7,0.1,12.9c0.3,3.7-1.4,3.7-4,3.2
			C112.4,179.7,109.8,179.4,107.9,177.1z"/>
		<path class="st56" d="M135.1,154.1c9.3,0,18.6,0,27.9-0.1c2.9,0,4.3,0.7,4.1,3.9c-0.2,3.6-0.1,7.3-0.1,10.9
			c-0.8,0.9-1.8,1.4-3,1.4c-8.9,0.2-17.7,0.3-26.6-0.1c-0.8,0-1.6-0.4-2.3-0.9C133.1,164.2,132.6,159.2,135.1,154.1z"/>
		<path class="st7" d="M167.9,129c2.5-5.2,5.9-9.6,11.3-12.1c3.8-1.7,6.8-0.9,9,2.6c3.9,6.2,3.9,13.3,3.8,20.3c0,2.5-2,2.3-3.6,2.2
			c-2.4,0-5.2,0.8-6.1-2.6c-0.5-1.7-0.9-3.5-1.1-5.3c-0.5-4.4-3.2-5.9-7.1-5.9c-2.4,2.4-3.9,5.1-3.9,8.7c0,2.2-0.9,4.2-3.1,5.2l0,0
			c-1.6,0.2-1.8-1-2.1-2.1C164.8,136,164.3,131.9,167.9,129z"/>
		<path class="st56" d="M96.9,191c-4.2-0.4-7.8-2.7-11.7-3.8c-1.8-0.5-2.1-1.7-2.2-3.3c-1.2-13.9-1.2-13.9,11.7-9.6
			c3.8,1.3,7.5,2.4,11.3,3.6c2.8,0.7,5.8,0.7,8.1,2.9c4.6,0.8,5.2,3.9,5,8c-0.3,10-0.1,10-9.6,6.7c-2.5-0.9-5-1.8-7.4-2.7
			c-0.4-0.7-0.1-1.4,0.2-2c0.8-2.4,0.5-4.9,0.4-7.4c0-1.3-0.5-2.4-2-2.3c-1.5,0-1.2,1.3-1.3,2.2c-0.3,2.3,0.3,4.6,0,7
			C98.8,191.5,98,191.7,96.9,191z"/>
		<path class="st7" d="M167,176.1c0,7.3,0,14.5-0.1,21.8c-2.2,2-4.5,1.8-6.9,0.6c-2.5-3.7-0.9-7.8-1.4-11.7c0.1-2.4-0.4-4.6-2.7-5.9
			c-1-0.8-2.1-1.6-3.3-2.1c-1.5-0.7-3.1-0.6-4.6,0.1c-2.4,1.1-3.8,3.1-4.5,5.6c-1,4.6,1.3,9.6-1.7,14c-2.5,1.1-4.9,1.4-7.1-0.5
			c-1.6-7.4-2.2-14.7,0.1-22.1C145.6,175.4,156.3,175,167,176.1z"/>
		<path class="st56" d="M136,143c-2.3-6.5-0.6-13.2-1-19.8c-0.1-1.8,1.2-2.2,2.7-2.2c8.8,0,17.7-0.1,26.5,0c4.7,0,2.4,3.7,2.9,5.9
			c-2,0.7-2-2.5-4.3-1.9c-0.6,3.4-0.8,6.8,0.2,10.3c2.4,2.3,2.7,5,1.3,7.9c-1.5,1-3,1-4.6,0.4c-2.7-2.1-1.5-5.2-1.8-7.8
			c-0.2-2.3,0.2-4.6-1.5-6.6c-4.1-4.7-6.1-4.6-10.9,0.8c-1.5,2.4-0.7,5-0.9,7.5c-0.2,2.1,0.3,4.2-1.5,5.9
			C140.5,144.6,138.2,144.7,136,143z"/>
		<path class="st7" d="M109.1,111.9c2,5.6,0.5,11.5,0.9,17.2c0.2,2.5,0.1,5,0,7.5c-0.1,1.1,0.8,3.1-1.5,2.9
			c-1.7-0.1-2.5-1.3-2.5-3.1c0.1-4.7,0-9.3,0-14c0-2.4-0.5-4.7-2.3-6.3c-1.6-1.5-3.5-2.6-5.9-1.5c-2.9,1.2-4.5,3.4-4.6,6.5
			c-0.2,4.3,0,8.6,0,13.1c-3.8-2-3.9-2.6-3.1-22.2C96.3,110.3,102.7,110.5,109.1,111.9z"/>
		<path class="st7" d="M167,145.2c0,2.3,0,4.5,0,6.8c-10.6,1.1-21.3,0.4-31.9,0.3c-1.9-2.4-1.9-4.8,0-7.2l0,0
			c7.5-2.1,15.1-1.6,22.7-1.3C160.8,143.9,164.1,143.3,167,145.2z"/>
		<path class="st57" d="M141,118.9c-2.4,0-4.8,0-7.4,0c4.7-8.9,16.7-11.9,17.4-23.9c-0.2,8.5,7.3,11.4,11.2,16.9
			c-0.4,0.4-0.8,0.4-1.2,0.1c-0.3,0-0.6-0.1-0.9-0.1c-1.7-0.7-3.3-0.7-5,0l0.1,0.2c-0.4,2.3,1,4.9-1.1,6.9c-1.7,0-3.3,0-5-0.1
			c-1.3-2.2,0.4-4.8-1-6.9l0,0c-2-0.8-4-0.8-6,0l0,0C140.6,114.2,142.3,116.8,141,118.9z"/>
		<path class="st7" d="M211.3,135c-5.2,0-8.2-4.2-7.2-9.9c0.2-1,0.5-1.9,0.9-2.8c1.2-2.8,2.5-6,5.8-6.1c3.7-0.1,4.1,3.8,5,6.5
			c0.7,2,1,4.2,1.1,6.3C217.3,135,217.2,135,211.3,135z"/>
		<path class="st22" d="M217,176.5c0,1.5-0.2,3,0,4.5c0.9,5.1-1.3,6.6-6.3,6.3c-3.5-0.2-5.1-0.9-4.9-4.8c0.3-4.8,0.2-9.6,0.1-14.4
			c-0.1-4.3,3-3.2,5.2-3.1c2.2,0.1,5.8-1.7,5.8,3C217,170.8,217,173.6,217,176.5z"/>
		<path class="st7" d="M169.1,174c3.9,0,7.9,0,11.8,0c1.2,6.7,0.8,13.5,0.3,20.2c-0.3,4.5-4.8,1.7-7.3,2.1c-1.7,0.2-5.4,1.9-5.4-2.1
			C168.6,187.5,167.8,180.7,169.1,174z"/>
		<path class="st58" d="M167,145.2c-10.6,0-21.3-0.1-31.9-0.1c0.3-0.4,0.7-0.7,1-1.1c1.8-1,3.8-0.2,5.7-0.5c0.5,0,0.9,0,1.4-0.1
			c0.6-0.3,1-0.9,1.3-1.5c0.7-2.5,0.4-5,0.3-7.5c-0.1-0.8-0.5-1.5-0.9-2.2c-0.5-1.4,0.7-2.1,1.2-3.2c0.6-2.8,3.6-3.3,5-5.3
			c0.4-0.5,1.2-0.6,1.8,0c3.6,3.5,9.1,5.9,7.4,12.7c-0.5,2-0.1,4.3-0.1,6.5c1.6,1.1,3.3,1,5,0.1c0-2.7,0.7-5.6-2.8-6.9
			c5-2.8,3.7,1.9,4.7,4c0.2,0.8,0.2,1.7,1.1,2.1C165.4,143.1,165.9,144.1,167,145.2z"/>
		<path class="st7" d="M133,196c-12.1,0.3-12.1,0.3-12.1-11.6c0-10.4,0-10.4,11.9-10.3C134.8,181.4,134.6,188.7,133,196z"/>
		<path class="st56" d="M239,132.1c0,6-0.2,12,0.1,18c0.2,4.4-2.5,3.8-5.2,3.8c-2.8,0.1-5.3,0.2-5.1-4c0.3-6,0.1-12,0.2-18
			C232.3,130,235.7,130,239,132.1z"/>
		<path class="st56" d="M192,173c0,6.5-0.1,12.9,0.1,19.4c0.2,3.8-2.1,3.7-4.7,3.8c-2.6,0-4.5-0.1-4.4-3.6
			c0.2-6.5,0.1-12.9,0.1-19.4C186,170.9,189,171.1,192,173z"/>
		<path class="st56" d="M103,199.8c-4.8-2.1-9.7-3.9-14.9-4.9c-1.5-1.8-6.6-1-4.7-4.8c1.3-2.7,4.4,0.1,6.5,0.8
			c8.5,2.7,16.9,5.7,25.4,8.7c1.6,0.6,4.3,0.7,3.4,3.2c-1,2.5-3.1,0.6-4.7,0.2C110.3,202.1,106.7,200.9,103,199.8z"/>
		<path class="st59" d="M123.8,103c5.4,2.8,3.1,7,2,11c-0.3,0-0.6,0-0.9,0c-0.7-1.6-2.4-1.8-3.8-2.4c-1.8-0.2-3.7-0.6-5.2-1.6
			c-0.2,0-0.5,0-0.7,0c-4.7-0.6-6.1-3.6-5.2-7.9c-0.4-1.4,0.7-1.7,1.6-2c1.4-0.3,2.8-0.4,4.3-0.6c0.5,0,0.9,0.1,1.4,0.2
			c1.7,1.3,3.8,1.4,5.7,2.4C123.2,102.4,123.5,102.7,123.8,103z"/>
		<path class="st19" d="M239,163.1c0,5.1-0.1,10.3,0.1,15.4c0.2,4.6-3,3.4-5.4,3.5c-2.6,0.2-5,0.2-4.8-3.7
			c0.3-5.1,0.1-10.3,0.2-15.4C232.3,161,235.7,160.9,239,163.1z"/>
		<path class="st16" d="M104,128.2c0,2,0.1,4,0,6c-0.1,1.4,1,3.9-1.9,3.5c-1.9-0.3-4.8-0.3-4.9-3.3c-0.1-4.8-0.1-9.6,0.1-14.4
			c0.1-1.7,1.2-3.4,3.1-3.4c2.2,0,3.2,1.7,3.4,3.6C104.1,122.8,103.9,125.5,104,128.2C103.9,128.2,104,128.2,104,128.2z"/>
		<path class="st56" d="M180.8,168c-3.8,0-7.7,0-11.5,0c-1.6-4.5-0.4-9.1-0.7-13.7c-0.1-1.2,0.8-1.7,1.9-1.7c3,0,6,0,9,0
			c1.2,0,2,0.5,2,1.7C181.1,158.8,182.4,163.5,180.8,168z"/>
		<path class="st57" d="M216.9,143.2c0,2.7-0.2,5.4,0.2,8c0.6,4.8-1.2,6.3-6,6.1c-3.8-0.2-5.6-0.9-5.1-5c0.3-3,0.1-6,0.1-9
			C209.7,140.8,213.3,140.9,216.9,143.2z"/>
		<path class="st7" d="M166.9,171.1c0.3,3.2-1.9,2.8-3.9,2.8c-9.3,0-18.6,0-27.9,0c-0.9-1.2-1-2.3,0.2-3.4c10-1.1,19.9-0.4,29.9-0.3
			C165.9,170.2,166.4,170.7,166.9,171.1z"/>
		<path class="st55" d="M221,105c4.4,3.7,6.9,9,11,13c-0.9,2.6-1.9,5.1-3.2,8.8c-1.8-6.2-4.5-10.5-8.6-13.8
			C221.2,110.4,219.7,107.5,221,105z"/>
		<path class="st19" d="M175,129.9c2.2,1.2,3.2,3.1,3,5.6c-0.2,2.7,0.6,5.1,2,7.4c-3.7,2.2-7.4,2.3-11,0c0-3.2,1.2-6.3,1.4-9.6
			C170.5,131.1,171.8,128.8,175,129.9z"/>
		<path class="st56" d="M125.8,143c-3.8,0.6-5.5-0.3-3.9-4.4c0.7-1.6,0.7-3.5,1-5.3c0.3-1.8,1-3.3,3.1-3c1.8,0.3,2.8,1.6,3,3.4
			c0.2,1.5,0.1,3,0.6,4.4C131,142,130.4,144.1,125.8,143z"/>
		<path class="st60" d="M179.7,101.9c-3.7-7.3-5.4-15.2-7.9-22.9c-2.2-6.9-4.6-13.8-6.4-20.8c5.7,12.8,9.7,26.2,15.5,38.8
			C180.5,98.6,180.1,100.3,179.7,101.9z"/>
		<path class="st61" d="M110.6,142.5c-4.1,1.9-5.2,5.1-5.4,8.7c-0.1,2.4-1,2.9-3.1,2c-1.6-0.7-4.3-0.3-3-3.7c1-2.7,3-5,2.3-8.4
			c-0.3-1.6,1.7-1.2,2.6-0.9C106.3,140.9,108.4,141.7,110.6,142.5z"/>
		<path class="st62" d="M183.1,165.9c0-3.1,0.3-6.3-0.1-9.4c-0.5-4.3,0.9-6.2,5.4-5.4c1.1,0.2,2.3,0,3.4,0c1.4,4.4,0.5,8.9,0.6,13.3
			c0.1,2.8-2.3,2.9-4.3,3C186.3,167.4,184.5,167.3,183.1,165.9z"/>
		<path class="st56" d="M132.9,205c-2.8,0-5.6-0.1-8.4,0.1c-2.8,0.2-3.7-1-3.7-3.7c0-2.7,1.2-3.4,3.6-3.3c2.8,0.1,5.6,0,8.4,0
			C134.7,200.3,134.8,202.6,132.9,205z"/>
		<path class="st56" d="M181,198c-0.1,2.2,1.3,5.4-0.9,6.5c-2.9,1.4-6.7,1.2-9.7,0.2c-2.9-1-1-4.3-1.3-6.6C173,198,177,198,181,198z
			"/>
		<path class="st63" d="M83.3,146.6c6-10.3,6.8-10.8,14.1-8.2c-3.6,1.8-5.8,4.2-5.5,8.2c0.1,2-0.9,2.7-2.8,2
			C87.3,148,85.5,147.3,83.3,146.6z"/>
		<path class="st55" d="M189.8,100.3c0.1-0.4,0.1-0.9,0.2-1.3c4.2,6.7,7.8,13.6,9.9,21.3c-1.6-1.2-2.9-3-4.7-3.6
			c-5.7-1.8-6-6.1-5-10.6C190.6,104,189.6,102.2,189.8,100.3z"/>
		<path class="st22" d="M171,116.6c-7.2-3.3-6-9.1-5.9-14.4c0-2.1,1.5-2.2,3.1-2.2c1.8-0.1,2.8,0.6,2.8,2.5
			C171,107,171,111.6,171,116.6z"/>
		<path class="st7" d="M181,151c-4,0-8,0-12,0c-0.8-2-0.8-4,0-6l0,0c3.9-1.8,7.9-1.2,11.9-0.3C181.9,146.8,181.7,148.9,181,151z"/>
		<path class="st16" d="M119,152.2c0,0.8,0.1,1.7,0,2.5c-0.2,1.2,0.8,3.1-0.7,3.5c-1.9,0.5-3.9-0.5-5.5-1.6c-1.5-1-0.1-2.4,0.3-3.5
			c0.8-2.1,2.3-4,1.9-6.5c-0.2-1-1.2-2.4,1-2.4c1.4,0,2.7,0.6,2.9,2.2C119.1,148.2,118.9,150.2,119,152.2
			C118.9,152.2,119,152.2,119,152.2z"/>
		<path class="st61" d="M166.8,209.7c-2.2,0.1-4.5,0.2-6.7,0.3c-2.3-3.3-1.9-6.6-0.4-10.1c2.5-1.2,4.9-1.4,7.3,0.2
			C166.9,203.3,166.9,206.5,166.8,209.7z"/>
		<path class="st64" d="M135.1,154.1c0,4.9,0,9.9,0,14.8c-0.4,0.3-0.7,0.3-1.1,0.1c-3.2-2-6.8-0.8-10.2-0.9
			c-2.7-0.1-3.8-0.8-3.9-3.7C119.3,152,119.2,152,133,152c0.3,0.6,0.2,1-0.3,1.3c-2.1,1.5-4.5,1.1-6.8,1c-2.5,0-3.7,0.9-3.5,3.5
			c0.1,1,0,2,0,3c-0.2,3,0.2,5,4.1,4.9c3.6-0.1,5.2-1.1,5.1-4.8c-0.1-2.4-0.5-5,0.9-7.3c1-1.3,1.8-0.7,2.5,0.3L135.1,154.1z"/>
		<path class="st43" d="M165.9,140c-1.1-1.9-1.2-4.9-4.7-4c-0.1-2.9-0.3-5.9-0.2-8.8c0-1.5-0.8-3.5,1.7-3.9c2-0.3,3,0.8,3.3,2.7
			c0.1,0.4,0.6,0.7,0.9,1c0,0.8,0.1,1.5,0.9,2C166.7,132.5,165.8,136.2,165.9,140z"/>
		<path class="st65" d="M229.1,155c1.3,0,2.7,0.2,3.9,0c4.7-0.7,6.8,1.1,5.9,5.9c-2.5,1.8-5.5,1.4-8.1,0.8
			C226.9,160.8,228.5,157.6,229.1,155z"/>
		<path class="st66" d="M187.2,149.9c-1.7-0.2-4.4,0.8-4.1-2.8c0.3-3.2,2.4-3.9,5.2-4c2.6-0.1,3.9,0.6,3.9,3.6
			C192.2,150.4,189.8,149.9,187.2,149.9z"/>
		<path class="st43" d="M169.1,174c-0.1,6.2,0,12.3-0.2,18.5c-0.1,3,1.2,3.8,3.9,3.6c1.5-0.1,3-0.1,4.5,0c2.7,0.2,4-0.6,3.9-3.6
			c-0.2-6.2-0.2-12.3-0.2-18.5c2.3,6.9,0.6,14,1,21.1c0.1,1.2-0.8,1.7-1.9,1.9c-0.3,0-0.7,0-1,0.1c-10.8,1.2-11.2,1-10.9-9.9
			C168.2,182.7,166.7,178.2,169.1,174z"/>
		<path class="st57" d="M206.1,141.8c-1.2-5.8,2.9-4.6,6.2-4.9c4-0.4,5.4,1.2,4.6,5C213.3,142.8,209.7,142.9,206.1,141.8z"/>
		<path class="st60" d="M137.1,111.2c0.4-8.2,2.2-16.2,3.5-24.3c0.2-1.3,0.3-2.6,0.5-3.9c2.5,0.3,1.3,1.8,1,3
			c0.1,7.4-2.5,14.7-2,22.2C139.1,109.2,138.1,110.2,137.1,111.2z"/>
		<path class="st67" d="M229.1,129.8c1.4-3.1,2.7-6.2,4.3-9.7c2.8,3.1,3.5,6.6,4.6,9.9C235,131.5,232,131.6,229.1,129.8z"/>
		<path class="st7" d="M122.1,150.9c-1.7-1.9-1.7-3.8,0-5.8c2.6,0.9,5.2,0.3,7.8,0.4c1.7,0.1,2.9,0.6,2.9,2.5c0,1.9-1.2,2.4-2.9,2.5
			C127.3,150.6,124.6,150.1,122.1,150.9z"/>
		<path class="st68" d="M212.1,162.9c-1.8,0-2.9,0-4.1,0c-1.1,0-1.8-0.6-1.8-1.8c0-1.2,0.6-1.8,1.8-1.9c1.1-0.1,2.4-0.3,3.4,0
			c1.9,0.5,5.5-1.6,5.4,2.1C216.6,164.6,213.1,161.9,212.1,162.9z"/>
		<path class="st43" d="M180.8,168c0.1-3,0-6,0.4-9c0.6-4.7-1-6.5-5.9-6.2c-6.3,0.4-6.4,0.1-6.3,6.7c0,2.8,0.2,5.6,0.3,8.5
			c-2.6-4.7-0.9-9.6-1-14.5c0-1.5,1.6-1.3,2.7-1.5c11-1.2,11.1-1.2,10.9,9.9C181.9,164,183,166.3,180.8,168z"/>
		<path class="st64" d="M133,196c0-7.3-0.1-14.6-0.1-21.9c0.4,0,0.8,0,1.2-0.1c0,0.3,0,0.7,0,1c0.3,0.3,0.9,0.4,1,1
			c0,7.3,0.1,14.6,0.1,21.9c-0.4,0.3-0.7,0.3-1.1,0.1C134,197.2,133.8,196.4,133,196z"/>
		<path class="st69" d="M109.1,111.9c-6.3,0-12.7,0.1-19,0.1c-0.5-0.8-1.3-1-2.1-1.1c8.1-1.6,16.1-1.6,24.2,0
			C111,111.1,109.8,110.8,109.1,111.9z"/>
		<path class="st70" d="M118.5,140.9c0-6.8,0-13.5,0-20.3c0.4,0,0.9,0,1.3,0C119.9,127.5,120.6,134.2,118.5,140.9z"/>
		<path class="st71" d="M134,169c0.4,0,0.7,0,1.1-0.1c10.6,0,21.2-0.1,31.8-0.1c0,0.4,0,0.8,0.1,1.2c-8.9,1.1-17.8,0.2-26.7,0.5
			c-1.8,0.1-3.6-0.6-5.3,0.6c0,1,0.1,1.9,0.1,2.9c-0.4,0-0.8,0-1.1,0.1c0-0.8-0.2-1.6-1-2c-0.8-0.9-1-1.9-0.2-2.9
			C133.2,169.1,133.6,169,134,169z"/>
		<path class="st18" d="M171.1,94.6c0.4,2.7-0.9,3.6-3.4,3.4c-1.3-0.1-2.2-0.2-1.9-1.9c0.5-2.5,0.7-5.7,3.2-6.1
			C171.3,89.7,170.8,92.8,171.1,94.6z"/>
		<path class="st72" d="M132.8,169.1c0.1,1,0.1,2,0.2,2.9c-2.6,0-5.3,0.2-7.9,0.1c-1.4-0.1-3.9,0.9-3.8-1.6c0-2,2.3-1.3,3.6-1.4
			C127.6,169,130.2,169.1,132.8,169.1z"/>
		<path class="st73" d="M212,107.3c0-1.9-0.1-3.2,0-4.5c0.1-1.2,0.9-1.7,2.1-1.7c1.2,0,1.9,0.7,1.9,1.8c0.1,1.2,0.2,2.3,0,3.5
			c-0.3,2.2,1.2,6-2.4,5.9C210.3,112.2,212.8,108.6,212,107.3z"/>
		<path class="st43" d="M133,153c0-0.3,0-0.7,0-1c0-0.4,0-0.7,0-1.1c0.2-0.1,0.4-0.1,0.6-0.2c0.7,0.2,1,0.7,1.4,1.2
			c10.7,0,21.3,0,32-0.1c-1.2,1.6-3,1-4.6,1c-7.6,0.1-15.2,0-22.7,0c-1.6,0-3.3-0.5-4.7,0.9C134.3,153.6,133.7,153.3,133,153
			L133,153z"/>
		<path class="st72" d="M169.1,169c3.9,0,7.8,0,11.8,0c1.2,2.2,0.6,3.4-2,3.5c-2.6,0-5.2,0-7.9,0C168.5,172.4,167.9,171.2,169.1,169
			z"/>
		<path class="st74" d="M160.9,112c0.4,0,0.8,0,1.2-0.1c2.2,2,4.3,4,6.6,6.2C161.4,120.2,161.1,119.9,160.9,112z"/>
		<path class="st43" d="M134,198c0.4,0,0.8,0,1.1-0.1c2.3,0,4.5,0,6.7,0c0.5-0.4,1-0.3,1.4,0.1c0.3,0.8,0.3,1.5-0.3,2.2
			c-0.4,0.3-0.9,0.6-1.4,0.7c-3.4,0.1-5.8,1.2-5.4,5.3c0.1,1.3-0.3,2.6-1.2,3.7c-1.5-1-0.9-2.6-1-4c-0.4-0.3-0.7-0.7-1.1-1
			c0-2.3,0-4.6,0-6.9C133.3,198,133.6,198,134,198z"/>
		<path class="st43" d="M183.1,165.9c9,0.6,9.1,0.6,9-8.4c0-2.1-0.2-4.3-0.2-6.4c2.1,5.6,1.6,11.3,0.2,17c-2.9,1.9-5.9,2-8.9,0.2
			C183.1,167.4,183.1,166.6,183.1,165.9z"/>
		<path class="st43" d="M135,176c-0.3-0.3-0.7-0.7-1-1c9.3,0,18.6,0,27.9,0c1.7,0,3.7-0.7,5.1,1C156.3,176,145.7,176,135,176z"/>
		<path class="st75" d="M135,171.1c1.4-1.8,3.4-1,5.1-1.1c9-0.1,17.9,0,26.9,0c0,0.4,0,0.7-0.1,1.1
			C156.3,171.1,145.7,171.1,135,171.1z"/>
		<path class="st43" d="M175,129.9c-3,0.5-4,2.4-4,5.2c0,2.5-0.4,4.9-2,6.9c-0.4,0.5-0.7,0.5-1.1,0c-0.3,0-0.6,0-1,0
			c1.3-2.3,1.9-4.8,2.1-7.5c0.2-3.1,1.3-5.8,4.9-6.4C174.3,128.7,174.7,129.3,175,129.9z"/>
		<path class="st19" d="M183.1,168.2c3-0.1,5.9-0.1,8.9-0.2c0,1,0,2,0,3c-3,1.4-6,1.6-8.9-0.2C183.1,170,183.1,169.1,183.1,168.2z"
			/>
		<path class="st76" d="M229.1,155c-1.2,4.7,0.5,6.7,5.4,6c1.4-0.2,2.9-0.1,4.4-0.1c0,0.7,0,1.4,0,2.2c-3.3,0-6.6-0.1-10-0.1
			C227.9,160.3,227,157.6,229.1,155z"/>
		<path class="st19" d="M122.1,150.9c2.2-1.7,4.7-0.6,7.1-0.9c1.4-0.2,2.7-0.2,2.7-2c0-1.8-1.4-1.8-2.7-2c-2.4-0.3-4.9,0.9-7.1-0.9
			c3.6,0,7.3,0,10.9-0.1c1.4,2,1.5,3.9,0,5.9c0,0,0,0,0,0C129.3,150.9,125.7,150.9,122.1,150.9z"/>
		<path class="st77" d="M154,119c0.5-2.3-1-4.9,1.1-6.9c1.9,1.4,5.9,0.4,5,5c-0.6,3.1-1.6,3.7-4.1,2c0.5-0.5,1-1,1.3-1.7
			c-0.5,0.5-0.7,1.2-1.3,1.6C155.3,119,154.6,119,154,119z"/>
		<path class="st78" d="M168,142c0.4,0,0.7,0,1.1,0c3.5,2.1,7.2,0.7,10.9,0.8c0.4,0.4,0.7,0.8,1.1,1.1c0.3,0.2,0.3,0.4,0.3,0.6
			c-0.1,0.2-0.2,0.3-0.2,0.3c-4,0-8,0-12,0C168.7,144,168.3,143,168,142z"/>
		<path class="st65" d="M110.1,152.1c-0.4,1,0.8,3.2-1.2,3c-2.3-0.1-1.8-2.4-1.8-4c0-1.4-0.4-3.7,1.6-3.4
			C110.6,148.1,109.9,150.5,110.1,152.1z"/>
		<path class="st70" d="M94.5,142.9c2.9,2.6,2.8,5,1.8,7.5c-0.1,0.2-1.1,0.4-1.2,0.2C93,148.4,93.9,146,94.5,142.9z"/>
		<path class="st79" d="M214.6,93.2c1.7,2.4,2.3,4.4,0.4,6.4c-0.4,0.4-2,0.3-2.2-0.1C211.3,96.9,213.5,95.4,214.6,93.2z"/>
		<path class="st22" d="M184.3,102c-1.2,0-2.3-0.2-2.1-1.5c0.2-1.6,0.3-3.6,2.1-4.2c1.6-0.5,1.7,1.2,1.7,2.3
			C186,100.1,186.5,101.8,184.3,102z"/>
		<path class="st80" d="M145.4,119c-2.4-0.1-2.3-1.5-2.3-2.8c0-1.3,0.5-2.2,2-2.2c1.9,0.1,1.8,1.5,1.8,2.8
			C146.9,118.2,146.4,119,145.4,119z"/>
		<path class="st43" d="M169.1,169c-0.1,1-0.5,2.4,0.6,2.6c3.5,0.8,7.1,0.9,10.6,0c1.1-0.3,0.7-1.7,0.6-2.6c1.7,2.1,1.7,3.7-1.4,3.9
			c-3,0.2-6,0.2-9,0C167.3,172.7,167.4,171.1,169.1,169z"/>
		<path class="st81" d="M229.1,129.8c3,0,5.9,0.1,8.9,0.1c0.3,0.7,0.7,1.4,1,2.2c-3.3,0-6.6-0.1-10-0.1
			C229,131.3,229.1,130.6,229.1,129.8z"/>
		<path class="st82" d="M183.1,170.9c3,0.1,6,0.1,8.9,0.2c0,0.7,0,1.3,0,2c-3,0-5.9,0.1-8.9,0.1
			C183.1,172.4,183.1,171.6,183.1,170.9z"/>
		<path class="st83" d="M199.5,185.8c0.4-3.7,0.7-6,0.9-8.3C202.1,180.1,202.7,182.6,199.5,185.8z"/>
		<path class="st84" d="M114,180.9c-2.8-0.7-5.6-1.3-8.1-2.9c0.8,0,1.5-0.1,2-0.9c2.6,0.4,4.9,1.6,7.1,2.8
			C114.7,180.3,114.4,180.6,114,180.9z"/>
		<path class="st43" d="M167,200.1c-2.3,0-4.6,0-7-0.1c-0.4,0.3-0.9,0.3-1.3,0c-0.4-0.7-0.4-1.4,0.1-2.1c0.5-0.3,0.9-0.3,1.3,0.1
			c2.3,0,4.5-0.1,6.8-0.1C166.9,198.6,167,199.3,167,200.1z"/>
		<path class="st85" d="M72.8,163.2c2.4-1.4,4.7-2.3,7.4-1.6C78,163.1,75.6,164.1,72.8,163.2z"/>
		<path class="st86" d="M247.4,148.8c-1.5,1.8-2.9,3.6-5.5,3.8C243,150.3,244.9,149.2,247.4,148.8z"/>
		<path class="st64" d="M132.9,150.9c0-2,0-3.9,0-5.9c0.7,0,1.4,0,2.1,0c0,2.3,0,4.6-0.1,7C134.3,151.6,133.6,151.3,132.9,150.9z"/>
		<path class="st87" d="M218.5,142c2.4-2.8,4.4-3.7,7.6-4.1C224,140.5,221.9,141.2,218.5,142z"/>
		<path class="st88" d="M80,137.9c-2.3,0.5-4.6,1.1-8.2,2c2.2-3,4.2-2.9,6.1-3C78.9,136.5,80,136,80,137.9z"/>
		<path class="st89" d="M196.9,138.9c1.9-1.4,3.5-3.2,6.9-3.5c-1.8,2.7-3.8,3.6-5.9,4.4C197.5,139.7,197.1,139.4,196.9,138.9z"/>
		<path class="st90" d="M185.9,105c0,2,0,4,0.1,5.9c0.1,1.8-1.3,2.1-2.6,2.3c-2,0.3-1.4-1.3-1.5-2.3c0.3-0.2,0.6-0.4,1-0.7
			c1.3-1.3,0.6-3.2,1.4-4.6C184.7,105.1,185.1,104.7,185.9,105z"/>
		<path class="st91" d="M80,137.9c-0.5-0.8-1.3-0.9-2.1-1c1.9-1.3,4.1-1.4,6.2-1.8c0.5,0.6,1.6,0.1,2,1
			C84.3,137.4,82,137.4,80,137.9z"/>
		<path class="st92" d="M200.1,157c0.1-1.8-0.5-3.8,0.9-6.2c1.1,2.6,1.5,4.4,0,6.2C200.7,157.4,200.4,157.4,200.1,157z"/>
		<path class="st57" d="M185.9,105c-0.3,0.3-0.6,0.7-0.9,1c-0.3,0.3-0.6,0.6-0.8,1c-0.4,1.2,0,2.6-0.8,3.7c-0.2,0.1-0.4,0.2-0.6,0.3
			l-0.4,0c0,0-0.4,0-0.4,0c0-1.5-0.2-3,0-4.5C182.2,103.4,183.8,103.5,185.9,105z"/>
		<path class="st93" d="M206.1,141.8c3.6,0,7.2,0,10.9,0.1c0,0.4,0,0.9,0,1.3c-3.6,0-7.2,0-10.9,0.1
			C206.1,142.7,206.1,142.3,206.1,141.8z"/>
		<path class="st85" d="M198,146.9c1.6-1.2,3-3,6-2.8c-2,2.1-3.8,3.4-6,3.9c-0.3-0.2-0.4-0.5-0.3-0.7
			C197.8,147.1,197.9,146.9,198,146.9z"/>
		<path class="st94" d="M198,167.9c1.6-1.2,3-3,6-2.8c-2,2.1-3.8,3.4-6,3.9c-0.3-0.2-0.4-0.5-0.3-0.7
			C197.8,168.1,197.9,167.9,198,167.9z"/>
		<path class="st95" d="M200.1,163.1c-1.7,1-3,3-5.6,2.7c0.7-2.5,2.8-2.9,4.5-3.8C199.4,162.4,200,162.4,200.1,163.1z"/>
		<path class="st96" d="M221,105c-0.4,2.6,0.9,5.5-0.9,7.9c0-3.3-0.1-6.6-0.1-9.9C220.8,103.4,221,104.2,221,105z"/>
		<path class="st89" d="M246.1,158.1c-1.1,1.5-2.5,2.6-4.9,2.6c0.6-2.1,2.4-2.7,3.8-3.6C245.4,157.4,246,157.4,246.1,158.1z"/>
		<path class="st87" d="M96.9,191c0.7-0.3,1.4-0.6,2-0.9c1.9-0.8,3.5-0.7,4.1,1.8c-0.4,0.3-0.7,0.7-1.1,1
			C100.2,192.6,98.4,192.3,96.9,191z"/>
		<path class="st97" d="M83.5,121.5c-1.4-0.9-2.3-1.9-1.6-3.6c0.1-0.2,0.7-0.4,0.8-0.3C84.1,118.6,84.4,119.9,83.5,121.5z"/>
		<path class="st88" d="M241.2,129.4c0.4-1.6,1.5-1.9,2.6-2c0.2,0,0.7,0.9,0.6,1C243.7,129.1,242.9,130,241.2,129.4z"/>
		<path class="st79" d="M200.1,163.1c-0.4-0.3-0.7-0.7-1.1-1c1.3-0.7,2.6-1.4,4.5-2.3C203,162.1,201.7,162.7,200.1,163.1z"/>
		<path class="st98" d="M219.3,162.8c1.1-1.8,2.2-2.5,4-2.1C222.9,162.8,221.4,162.8,219.3,162.8z"/>
		<path class="st22" d="M115.9,110c2,0.4,4,0.8,6,1.2c0.2,0.9,0,1.4-1,1C119,112,116.9,112.3,115.9,110z"/>
		<path class="st99" d="M198,146.9c0,0.4,0,0.8,0,1.1c-0.8,1-1.8,1.7-3.5,1.5C195.1,147.8,196.4,147.1,198,146.9z"/>
		<path class="st43" d="M181,145c0-0.3,0-0.7,0-1c1.6,2.3,1.6,4.7,0,7C181,149,181,147,181,145z"/>
		<path class="st8" d="M143,144c-2.3,0-4.7,0-7,0c0-0.3,0-0.7,0-1c2.3-0.1,4.6-0.1,6.9-0.2c0.3,0.2,0.4,0.5,0.3,0.8
			C143.2,143.9,143.1,144,143,144z"/>
		<path class="st7" d="M86.1,136.1c-0.7-0.3-1.4-0.6-2-1c0.8-0.1,1.6-0.3,2.4-0.5c0.7-0.2,1.8-0.8,1.9,0.3
			C88.4,136.4,87,135.9,86.1,136.1z"/>
		<path class="st100" d="M148,112c2,2.1,0.6,4.6,1,6.9C147.1,116.8,148.6,114.3,148,112z"/>
		<path class="st100" d="M141,118.9c0.4-2.3-0.9-4.9,1-6.9C141.5,114.3,142.9,116.8,141,118.9z"/>
		<path class="st99" d="M198,167.9c0,0.4,0,0.8,0,1.1c-0.8,1-1.8,1.7-3.5,1.5C195.1,168.8,196.4,168.2,198,167.9z"/>
		<path class="st95" d="M75.9,182.9c1.3-1.2,2.8-1.2,4.5-0.7c-0.2,1.6-1.3,1.6-2.4,1.6C77.4,183.3,76.3,183.7,75.9,182.9z"/>
		<path class="st7" d="M75.9,182.9c0.7,0.3,1.3,0.6,2,0.9c-1.5,0.3-3,0.5-4.6,0.8C73.5,182.6,74.9,183.2,75.9,182.9z"/>
		<path class="st43" d="M169,145c0,2,0,4,0,6C167.5,149,167.5,147,169,145z"/>
		<path class="st101" d="M120.9,112.1c0.3-0.3,0.7-0.7,1-1c1.4,0.5,3.2,0.7,3.1,2.8C123.6,113.4,122.2,112.7,120.9,112.1z"/>
		<path class="st100" d="M142,112c2-1.5,4-1.5,6,0C146,112,144,112,142,112z"/>
		<path class="st100" d="M246.1,158.1c-0.4-0.3-0.7-0.7-1.1-1c1.1-0.2,2-2.6,3.1-1C249,157.3,246.9,157.4,246.1,158.1z"/>
		<path class="st68" d="M223,133.1c-1,1.2-2.1,1-3.5,0.6c1-1.1,2.2-1.6,3.5-1.7c0.3,0.2,0.4,0.5,0.3,0.7
			C223.2,133,223.1,133.1,223,133.1z"/>
		<path class="st102" d="M200.1,157c0.3,0,0.6,0,1,0c-0.1,1.3-0.7,2-2,2.3c-0.2,0-0.7-0.2-0.7-0.4
			C198.2,157.7,199.2,157.4,200.1,157z"/>
		<path class="st103" d="M196.9,138.9c0.3,0.3,0.7,0.6,1,0.9c-0.8,0.3-1.7,1.6-2.4,0.5C195,139.5,196.2,139.1,196.9,138.9z"/>
		<path class="st100" d="M155,111.9c1.7-1.3,3.3-1.4,5,0C158.3,111.9,156.7,111.9,155,111.9z"/>
		<path class="st104" d="M223,133.1c0-0.4,0-0.7,0-1.1c0.7-0.7,1.9-1.5,2.3-0.5C225.7,132.8,224,132.8,223,133.1z"/>
		<path class="st105" d="M116.9,100c-0.3,0-0.6,0-0.8,0c-6.8-0.1-7.3-0.4-8.9-6.2c1-3.6-0.4-6.8-1.4-8.8c0.4,0.6,0.5,2.3,0.3,4.1
			c-0.2,0.9-0.6,1.8-1.6,2.1c-2.1-1.2-2-3.5-2.8-5.4c-0.7-1.6-1.1-3.5-3.4-3.4c-1.1,0.7-1.2-2.1-2.4-0.6c-3.3,1.8-4.5,5.8-7.9,7.5
			c-0.8-0.2-1.4-0.4-0.9-1.4c0.1-2.4,3.1-3.4,3-6.5c-4.1,1.7-5.5,5.9-9.1,7.5c0.1-2.5,2.7-3.6,3.1-5.9c0.8-1.9,2.9-2.3,4.4-2.9
			c5.8-2.1,6.4-6.4,5.5-11.4c-0.4-2.3-0.1-4.5,0-6.7c1-2.4,2-4.7,3.1-7.1c1.4-3,2.9-4.8,5-0.4c0.3,0.6,0.8,1,1.2,1.5
			c3.2,2.6,3.3,6.5,4.3,10c-0.7,5.6-1.1,11,5.2,13.9c0.7,0.3,1.1,1.2,1.2,2.1c4.9,6.2,9.6,12.6,9.9,21c-0.3,0-0.7,0-1-0.1
			C121.4,101,118.6,101.6,116.9,100z"/>
		<path class="st4" d="M104.1,91c0.3-0.7,0.6-1.4,1-2.1c2.3,0.4,2,2.2,2,3.8c-1.4,4.6,2.8,5.9,5,8.3c-0.9,0.1-1.7,0.2-2.1,1.1
			c-7-1.5-14-1.1-21-0.2c-0.7-0.3-1.4-0.6-2.1-1c0.6-2.9,6.2-1.9,4.8-6.3c0.3-3.8,0.3-7.7,3.2-10.7c1.5-0.2,1.8,0.8,2.1,1.9
			c0.1,2.8-0.8,5.6-0.6,8.4c0.1,2.3,0.3,4.4,3.4,4.4c2.9,0,3.2-1.7,3.1-4C102.8,93.3,102.8,91.9,104.1,91z"/>
		<path class="st36" d="M63.9,152.1c-1,1.5,2,5.3-2,5.6c-4.2,0.3-4.2-3.2-4-6.3c0.1-1.3-0.2-2.7,0.1-4c0.2-1.4-1.2-3.9,1.6-3.8
			c2,0.1,4.4,0.6,4.4,3.7C63.9,148.7,63.9,150.2,63.9,152.1z"/>
		<path class="st4" d="M63.9,174.7c-0.7,1.7,1.6,5.5-2.1,5.7c-4,0.3-4.2-3.3-4-6.5c0.1-1.2-0.1-2.3,0-3.5c0.3-1.5-1.1-4.2,1.8-4.1
			c2.4,0.1,4.4,1.5,4.1,4.5C63.9,172,63.9,173.2,63.9,174.7z"/>
		<path class="st106" d="M86.9,87.9c0.3,0.3,0.7,0.7,1,1c0.9,1.4,0.1,2.8-0.2,4.2c-0.6,1.2-0.7,3-2.7,3c-0.1-0.8-0.2-1.6-1-2
			C85,92,85.1,89.6,86.9,87.9z"/>
		<path class="st107" d="M85.1,96.1c0.6-1.1,1.2-2.1,1.8-3.2c0.3-0.3,0.7-0.4,1.2-0.3c0.9,1,1.9,1.3,2.9,0.1
			c1.7-0.3,1.3,1.4,1.9,2.2c1.6,5.7-3.4,4.6-6,6C83.6,100.3,85.5,97.8,85.1,96.1z"/>
		<path class="st31" d="M201,56c-2.3-0.3-3.7-1.9-5.2-3.5C198.1,52.8,199.9,53.9,201,56C201,56,201,56,201,56z"/>
		<path class="st108" d="M126,32.1c-1,1.4-3.2,0.7-4.2,2.8c4.3,0.3,8.5,0.1,13-0.7c-1.1,4.7-6.4,5.1-7.8,8.8
			c-0.8,0.6-1.6,0.6-2.3-0.2c1.7-1.6,3.3-3.2,5-4.8c0.5-0.5,1.6-1.1,0.3-1.8c-0.5-0.3-1.3,0-1.9,0.1c-2.8-0.1-5.6-0.2-8.3-0.2
			c-1.4,0-2.7,0-2.5-2c3-1,5.9-1.9,8.9-2.9c0.4,0.2,0.5,0.4,0.4,0.6C126.3,31.9,126.1,32.1,126,32.1z"/>
		<path class="st26" d="M106.8,66c-1.2-3.3-2.4-6.7-3.5-10c7.5-1.7,14.2-5,20.7-9.1c-0.3-0.5-0.2-0.9,0.1-1.4c2.6-2.1,6-1.8,8.9-3.1
			c1.8-0.2,2.5,0.4,1.8,2.2c-0.4,1.1-1,2-1.4,3.1c-0.8,0.9-1,2.2-1.9,3c-6.7,4.1-12.7,9-19.4,13.1C110.5,65,109.2,66.8,106.8,66z"/>
		<path class="st109" d="M132.9,42.9c-2.9,1.1-5.9,2.1-8.8,3.2c-1.7,0.2-1.9-0.6-1-1.8c0.5-0.5,1.1-1,1.6-1.4
			c0.8,0.1,1.5,0.1,2.3,0.2c2-0.3,4-0.7,6-1c0.2,0.2,0.3,0.4,0.2,0.6C133.1,42.8,133,42.9,132.9,42.9z"/>
		<path class="st110" d="M123.1,44.3c0,0.8,0.3,1.4,1,1.8c0,0.3-0.1,0.6-0.2,0.8c-1-0.2-2.5,0.8-2.7-0.9
			C121.1,45,122.1,44.4,123.1,44.3z"/>
		<path class="st111" d="M126,32.1c0-0.3,0-0.6,0-0.9c1-1.3,3.7-0.4,3.7-2.9c1.2,0,2.6-0.6,4,0.8C131.6,31.3,128.7,31.5,126,32.1z"
			/>
		<path class="st36" d="M143,42c0.4-0.4,0.8-0.7,1.2-1.1c5.1,2.1,10.1,2.3,14.8-1c0.4,0.4,0.8,0.7,1.2,1.1c0.3,1.2-0.3,2-1.2,2.6
			c-1.6,0.9-3.4,1.3-5.2,1.6c-1.9,0.1-3.7,0.1-5.6,0.1c-2,0-3.8-0.7-5-2.4C143,42.6,143,42.3,143,42z"/>
		<path class="st112" d="M161.8,24.9c-2.8,2.3-5.4,1.6-7.9-0.4C157.5,21.5,158.5,21.5,161.8,24.9z"/>
		<path class="st112" d="M140.3,24.7c3.5-2.9,3.5-2.9,8-0.6C144.9,26.3,144.9,26.3,140.3,24.7z"/>
		<path class="st113" d="M149,36.1c-0.3-0.1-0.9-0.2-0.9-0.2c0-1.8,1.6-1.6,2.5-1.6c1,0,3.3-0.8,2.5,1.9
			C151.7,37.1,150.3,37.1,149,36.1z"/>
		<path class="st114" d="M153,38c0.7,2.1-0.9,2-2,2c-1.1,0-2.7,0.1-2-2C150.3,36.9,151.7,36.9,153,38z"/>
		<path class="st105" d="M155.6,31.5c-2.9,0.6-4.3,2.1-6.2,0C151.1,30.8,152.6,30.9,155.6,31.5z"/>
		<path class="st115" d="M153,38c-1.3,0-2.7,0-4,0c0-0.6,0-1.3,0-1.9c1.4,0,2.7,0,4.1,0C153,36.7,153,37.3,153,38z"/>
		<path class="st116" d="M143,42.9c1.7,0.4,3.4,0.8,5,1.2c2,0.6,3.9,0.6,5.9,0c1.7-0.5,3.3-0.9,5-1.4c0.5,0.3,0.8,0.8,1,1.3
			c-0.1,3.5,1.8,6.8,0.7,10.4c-0.2,0.5-0.6,0.8-1.1,0.9c-2-1.1-2.2-3.5-3.5-5.1c-0.5-0.6-0.9-1.5-1.9-1.2c-0.9,0.3-1.1,1.1-1.1,2
			c-0.1,1.8,0,3.6-0.9,5.2c-0.6,0.4-1.3,0.4-2,0.1c-1.8-2.1-0.4-5.3-2.5-7.5c-2.4,1.1-2.6,4.1-4.6,5.5c-0.5,0.1-1,0.1-1.5-0.1
			c-1-3.6-0.9-7.1,1.5-10.2C143,43.7,143,43.3,143,42.9z"/>
		<path class="st117" d="M142.9,44.1c0.1,3.4-2.5,6.5-1.1,10c1,0.8,0.5,1.7-0.1,2.4c-0.7,0.8-0.7,1.2,0.3,1.5
			c-0.5,1.9-1.1,3.6-3.2,4.3c-1-4.5,1.9-8.9,0.8-13.5c-2.6,0.2-3.4,3.1-5.8,3.4c-0.3-0.3-0.4-0.5-0.3-0.8c0-0.3,0.1-0.4,0.2-0.4
			C136.3,47.8,139.3,45.6,142.9,44.1z"/>
		<path class="st118" d="M133.9,51c0,0.4,0.1,0.8,0.1,1.2c-0.7,0.8-1.4,1.6-2.2,2.5c-0.8,1-1.8,2.1-3.1,0.9
			c-0.9-0.8-0.7-2.1,0.1-3.1c0.7-0.9,1.6-1.6,2.2-2.5c0.6-0.7,1.1-1.4,1.7-2.2c0.3-0.4,0.7-0.4,1.1-0.1
			C133.9,48.9,132.4,49.9,133.9,51z"/>
		<path class="st119" d="M133.9,47.8c-0.4,0-0.7,0.1-1.1,0.1c-0.8-1.7,3.5-3.2,0.1-5c0.1-0.3,0.1-0.6,0.1-0.9c1.2-1.1,2.6-2,4.9-1.6
			C136.4,43.1,135.2,45.4,133.9,47.8z"/>
		<path class="st120" d="M160.2,55.1c-0.4-3.7-0.8-7.3-1.1-11c2.7-1.7,3.6,1.1,5.2,2c1.2,0.6,1.4,3.4,3.7,1.9c0-0.7,0.1-1.5,0.1-2.2
			c1.9,3.1,3.8,6.2,5.7,9.3c-0.6,1.6-1.7,0.9-2.7,0.6c-3-2.7-6.1-5.4-9.8-8.8c0.7,4.1,1.3,7.3,1.6,10.4c0.2,1.7,1.1,3.6-0.9,4.9
			c-0.3-0.7-0.7-1.4-1-2.2C160.9,58.4,160,56.8,160.2,55.1z"/>
		<path class="st121" d="M161.9,39.9c1.3-2,2.7-4,4-6c0.3,0.4,0.7,0.7,1,1.1c1.7,3.6,6.3,4.3,8,8.2c-4.6,0.5-7.5-3.9-11.9-3.2
			C162.7,40.3,162.3,40.3,161.9,39.9z"/>
		<path class="st116" d="M161.9,39.9c0.4,0,0.8,0.1,1.2,0.1c1.6,2.6,3.3,5.3,4.9,7.9c0.2,0.7,0.9,1.8,0.6,2.2
			c-0.6,0.9-1.4-0.1-2-0.4c-2.9-1.4-3.9-5.2-7.6-5.6c0-0.4-0.1-0.9-0.1-1.3c0.4-0.6,0.8-1.2,1.2-1.8
			C160.7,40.7,161.3,40.3,161.9,39.9z"/>
		<path class="st122" d="M170,34.1c2.6-0.6,5.5,0.9,8-1c1,0.4,2,0.8,3.1,1.2C177.3,34.7,173.6,35.8,170,34.1z"/>
		<path class="st123" d="M135,210c0-1-0.1-2-0.1-2.9c0-7.2,0-7.2,7.1-7c1.9,3.3,2,6.7-0.1,10C139.6,210,137.3,210,135,210z"/>
		<path class="st65" d="M156.8,185c-4.5-6.1-8.2-5.8-11.8,1c-0.9-0.5-1.4-1.4-1.5-2.4c0.1-0.5,0.2-1,0.4-1.4
			c3.9-5.1,6.5-5.5,12.2-1.7c1.5,1.1,3,2.2,2.1,4.5C157.8,185.4,157.3,185.4,156.8,185z"/>
		<path class="st124" d="M144.1,184c0.3,0.7,0.6,1.4,0.9,2.1c0,6.6,0.1,13.1,0,19.7c0,1.4,0.5,3-0.9,4.1c-1.2-1.2-1.2-2.7-1.1-4.1
			c0.6-6.7-0.4-13.4,0.1-20.2C143.3,185,143.6,184.4,144.1,184z"/>
		<path class="st125" d="M143.9,185c0.1,8.3,0.1,16.6,0.2,24.9c-0.4,0-0.7,0-1.1,0.1c-0.8-3.3-0.8-6.7,0-10c0-0.7,0-1.3,0-2
			c-1-4-0.3-8-0.4-12C142.6,185.3,143.2,185,143.9,185z"/>
		<path class="st124" d="M156.8,185c0.4,0,0.7,0,1.1,0c0.5,0.4,0.8,1,0.9,1.6c0.5,6.4-0.4,12.8,0.1,19.1c0.1,1.5,0.1,3-1.1,4.1
			c-2-4-0.6-8.3-0.9-12.5C156.7,193.3,156.9,189.2,156.8,185z"/>
		<path class="st126" d="M157.9,209.9c0.1-8,0.2-16,0.2-23.9c0.7-0.3,1.1-0.1,1.3,0.6c-0.1,3.8,0.6,7.6-0.4,11.4c0,0.7,0,1.3,0,2
			c0.7,3.3,0.8,6.7,0,10C158.6,210,158.2,209.9,157.9,209.9z"/>
		<path class="st127" d="M159,210c0-3.3,0-6.7,0-10c0.3,0,0.7,0,1,0c0,3.3,0.1,6.6,0.1,9.9C159.8,210,159.4,210,159,210z"/>
		<path class="st36" d="M143,200c0,3.3,0,6.7,0,10c-0.4,0-0.7,0-1.1,0c0-3.3,0.1-6.7,0.1-10C142.3,200,142.7,200,143,200z"/>
		<path class="st128" d="M151.9,56c0.4-3.2-0.4-6.6,2-9.7c2.6,2.5,4.2,5.4,5,8.8c-0.3,0.4-0.7,0.4-1.1,0c-1.5-1.1-1.3-3.4-3.3-4.3
			c-1.9,4.4-0.8,9.5-3.6,13.6c-1.5-2.3-1.8-4.8-1.9-7.5c0.3-0.3,0.6-0.4,1-0.2C151,57.3,151.4,56.6,151.9,56z"/>
		<path class="st24" d="M150,57c-0.3,0-0.6,0-0.9,0c-0.5-2.1-1-4.1-1.5-6.3c-2.5,1-2.3,4.3-4.5,5.6c-0.7-0.7-0.7-1.5-0.1-2.3
			c1.4-2.7,2.2-5.7,4.9-7.6c1.8,2.6,1.9,5.7,2.2,8.6c0,0.3,0.1,0.7,0.1,1C150.4,56.4,150.3,56.7,150,57z"/>
		<path class="st129" d="M142,86c0-1.1,0.2-2.3-1-3c1.1-6.6,2.2-13.3,3.3-19.9C144.6,70.9,143.8,78.5,142,86z"/>
		<path class="st130" d="M143,54c0,0.8,0.1,1.5,0.1,2.3c-0.3,0.6-0.6,1.2-1,1.8c-1.5,0.5-2.8,0.7-1.6-1.5c0.4-0.8,1.5-1.2,1.4-2.4
			C142.2,54.1,142.6,54,143,54z"/>
		<path class="st55" d="M131.1,50c-0.5,1-1,2.1-1.4,3.1c-0.3,0.8-1.4,1.8,0,2.4c0.5,0.2,1.5-0.5,2.2-0.8c-5.7,9.3-11.3,18.7-18,27.4
			c-1.1-0.7-2.1-1.5-3.2-2.2c-5.4-3.6-6.3-7.1-3.9-13.8C115.3,61.2,122.5,54.6,131.1,50z"/>
		<path class="st131" d="M157.8,55.1c0.4,0,0.7,0,1.1,0c0.4,0,0.8,0.1,1.2,0.1c1.5,1.5,2,3.1,0.8,4.9
			C159.9,58.4,158.9,56.7,157.8,55.1z"/>
		<path class="st4" d="M94,162.3c-0.7,1.3,1.6,4.6-2.2,4.6c-4.4,0-4.1-3.6-3.8-6.5c0.2-1.9-1.6-5.3,2.4-5.2
			C94.9,155.4,94,159,94,162.3z"/>
		<path class="st81" d="M104.1,165.5c-1.2,1.2,2,4.9-2.1,4.8c-4.6,0-4.2-3.8-3.9-6.9c0.2-1.7-1.5-4.8,2.3-4.7
			C105.2,158.7,104,162.4,104.1,165.5z"/>
		<path class="st132" d="M114.8,169.4c-0.6,1.2,1.7,4.7-2.4,4.5c-4.5-0.3-3.6-4-3.4-6.8c0.1-1.7-1.7-4.9,2.1-4.8
			C115.3,162.4,115.2,165.7,114.8,169.4z"/>
		<path class="st4" d="M161.1,161.5c-0.3,2.3,0.7,5.3-2.6,5.2c-3.2-0.1-2.4-3-2.3-5c0-1.9-1.1-4.8,2.5-4.7
			C162.3,157.1,160.4,160.1,161.1,161.5z"/>
		<path class="st133" d="M146,161.5c-0.3,1.9,0.9,4.8-2.8,4.6c-3.2-0.2-2.2-2.8-2.2-4.5c0-1.9-1-4.7,2.7-4.5
			C147,157.2,145.6,159.8,146,161.5z"/>
		<path class="st36" d="M94.1,182.7c-1.1,1.4,1.8,5-2.2,5c-3.8,0-4.4-3-3.8-6c0.4-2-1.8-5.6,2.5-5.6
			C95.1,176.1,93.8,179.7,94.1,182.7z"/>
		<path class="st81" d="M103.1,191.9c-1.4-0.6-2.8-1.2-4.1-1.8c-1.8-2.4-0.7-5.1-0.9-7.6c-0.1-1.3-0.6-3.4,1.7-3.2
			c1.6,0.1,4.1,0.2,4.1,2.6C104,185.2,105,188.7,103.1,191.9z"/>
		<path class="st36" d="M114.9,190.1c-0.7,1.3,1.7,4.9-2.4,4.7c-4.4-0.3-3.7-3.9-3.5-6.8c0.1-1.8-1.5-4.9,2.2-4.9
			C115.6,183.2,115,186.7,114.9,190.1z"/>
		<path class="st84" d="M156,181c-6.2-3-7.7-2.7-12,2c-0.4,0.4-0.7,0.3-1,0c0.6-2.7,2.2-4.5,5-5c1.7-0.7,3.5-0.6,5.2-0.1
			c1.4,0,2.3,0.8,2.9,2c0.3,0.3,0.3,0.5,0.2,0.7C156.2,180.9,156.1,181,156,181z"/>
		<path class="st134" d="M143,183c0.3,0,0.7,0,1,0c0,0.3,0.1,0.7,0.1,1c-0.1,0.3-0.2,0.7-0.2,1c-2,4.2-0.4,8.7-0.9,13
			c-0.4,0-0.7,0-1.1-0.1C142.6,193,140.9,187.8,143,183z"/>
		<path class="st112" d="M159,198c0-4,0-8,0-12c-0.5-1,0.1-1.1,0.9-1c0.1,4.3,0.2,8.6,0.3,12.9C159.8,198,159.4,198,159,198z"/>
		<path class="st69" d="M159.9,185c-0.3,0.3-0.6,0.6-0.9,1c-0.3,0-0.6,0-0.9,0c-0.1-0.3-0.1-0.6-0.2-1c0.2-1.7-1.3-2.7-1.9-4
			c0-0.4,0-0.7,0-1.1C158.9,180.4,159.6,182.6,159.9,185z"/>
		<path class="st12" d="M153.2,177.9c-1.7,0-3.5,0-5.2,0.1C149.7,176.6,151.4,176.6,153.2,177.9z"/>
		<path class="st134" d="M136.9,130c0-1-0.1-2,0-3c0.1-1.5-0.6-3.6,2-3.8c2.5-0.2,3,1.5,3,3.6c0,2,0.1,4,0.1,6
			c0,1.9-0.1,3.9-2.6,4.1c-2.9,0.2-2.4-2.1-2.5-3.8C136.9,132,136.9,131,136.9,130z"/>
		<path class="st135" d="M143,144c0-0.4-0.1-0.8-0.1-1.2c0-3.4,0-6.8,0-10.2c0-1.5-0.4-3.4,2.1-3.6c1.2,1.5-1.1,1.9-1,3
			c1.6,4,1.4,8,0,11.9C143.7,144,143.3,144,143,144z"/>
		<path class="st8" d="M164,142.9c-1.7,1.5-3.3,1.6-5-0.1C160.7,142.9,162.3,142.9,164,142.9z"/>
		<path class="st136" d="M214.1,181c-1.7,1.4-3.8,1.7-3.8-0.9c-0.1-2.6-2.1-6.2,1.9-7.8c1.4-0.6,2.7,0.5,2.7,2.1
			C214.9,176.6,215.8,179,214.1,181c-0.6-0.6-1.3-1.2-0.8-2.1c-0.5,0.5,0,0.9,0.1,1.3C213.5,180.6,213.8,180.8,214.1,181z"/>
		<path class="st66" d="M178,180c0.3,0.2,0.7,0.5,1,0.7c-0.1,1.3,0.1,2.6-0.6,3.8c-2.5,3.1-4.8,3-7.1-0.3c-0.7-1.7-0.1-3.1,1.1-4.4
			C174.4,178,176.2,178.5,178,180z"/>
		<path class="st137" d="M171.9,184c2,2.8,4.1,2.8,6.1,0c0.9-0.2,1.4,0,1,1c-2.7,3.5-5.4,3.6-8.1,0C170.5,184,171,183.8,171.9,184z"
			/>
		<path class="st138" d="M171.9,184c-0.3,0.3-0.7,0.7-1,1c-1.8-2.8-1.1-4.9,2-6.1c0.3,0.2,0.4,0.4,0.3,0.5c-0.1,0.2-0.2,0.3-0.3,0.3
			C172.3,181.1,171.8,182.5,171.9,184z"/>
		<path class="st43" d="M173,179.8c0-0.3,0-0.6,0-0.8c2.1-1.7,3.8-1.2,5,1.1C176.3,179.7,174.7,178.8,173,179.8z"/>
		<path class="st139" d="M179.1,185.1c-0.3-0.3-0.7-0.7-1-1c0-1.2-0.2-2.4,0.9-3.3C180.3,182.2,180.4,183.6,179.1,185.1z"/>
		<path class="st140" d="M153.9,133c1.7,3.3,1.6,6.7,0.1,10c-0.2-0.2-0.3-0.3-0.5-0.5c-0.8-1,0-2.7-1.6-3.2c-0.8-0.2-1.5-0.2-2.2,0
			c-1.3,0.8-0.3,2.3-1.2,3.3c-0.2,0.1-0.3,0.3-0.5,0.4c-1.6-3.4-1.6-6.7,0-10.1c1.1,2.1,4.3-0.3,5.2,2.3
			C153.4,134.5,153.3,133.6,153.9,133z"/>
		<path class="st19" d="M153.9,131.1c-2.4-0.4-4.3,1.1-5.1-1.2c-0.2-0.6,0.7-2.1,1.4-2.3C152.6,126.9,152.5,129.2,153.9,131.1z"/>
		<path class="st66" d="M153.9,133c-0.2,1,0.6,2.2-0.5,3c-0.4-3.5-5.7,1.7-5.5-3.1C150,133,152,133,153.9,133z"/>
		<path class="st141" d="M144,144c0-4,0-8,0-11.9c0.8,0,1.6,0.1,1.9,1.1c-1.3,3.2,0.4,6.7-0.9,9.9C144.7,143.3,144.3,143.7,144,144z
			"/>
		<path class="st68" d="M145,143c0.4-3.3-1-6.8,0.9-9.9C145.6,136.4,147,139.9,145,143z"/>
		<path class="st8" d="M154,143.1c-2,1.4-4,1.4-6,0c0,0,0-0.1,0-0.1c2-1.5,4-1.6,5.9,0L154,143.1z"/>
		<path class="st75" d="M129,180c2.3-1.1,2.7,0.8,2.8,2.1c0.2,2.1-0.8,3.8-2.7,4.9c-1.9,1.1-3.7,1.5-5.1-0.8
			c-0.2-0.2-0.3-0.5-0.3-0.8c0-0.3,0.1-0.4,0.1-0.4c1.3-0.9,3,0.3,4.3-0.8c1-1.1,0.4-2.4,0.6-3.6C128.8,180.4,128.9,180.2,129,180z"
			/>
		<path class="st142" d="M122.2,181.1c0.4-1.5,1.4-2.5,2.9-2.9c0.5,0.3,1.1,0.5,1.2,1.2c-0.1,0.6-0.4,1.1-0.9,1.6
			c-0.6,0.6-1.2,1.2-2,1.4C122.6,182.3,122.5,181.6,122.2,181.1z"/>
		<path class="st3" d="M122.2,181.1c0.3,0.3,0.6,0.6,0.8,0.9c0.9,0.8,1.8,1.6,1,3c0,0.4,0,0.8,0,1.1
			C121.9,185,121.8,183.1,122.2,181.1z"/>
		<path class="st143" d="M126,179c-0.3-0.3-0.6-0.6-0.9-0.9c1.6,0,3.6-1,3.9,1.9c0,0,0,0,0,0C127.7,180.7,126.8,179.9,126,179z"/>
		<path class="st136" d="M235,149c-6.1,0.7-3.7-4-3.9-6.6c-0.2-2.6,1.1-4.1,4-2.5c0.6,0.8,0.3,1.7,0,2.5c-0.9,1.6-1,3.2-0.2,4.8
			C235.1,147.8,235.4,148.3,235,149z"/>
		<path class="st144" d="M233.9,142.1c0.9-0.5,1.1-1.3,1.2-2.2c1.5,3,1.6,6.1-0.1,9.1c-0.4-0.4-0.7-0.7-1.1-1.1
			C233.3,146,233.3,144,233.9,142.1z"/>
		<path class="st114" d="M190,184.2c0,1.1,0,2.3,0,3.4c0,1.3-0.5,2.2-2,2.2c-1.3,0-2.5-0.3-2.7-1.6c-0.2-2.8-0.2-5.6-0.1-8.3
			c0.1-1.3,1.3-1.8,2.6-1.8c1.4,0,2.1,0.7,2.1,2.1C190,181.6,190,182.9,190,184.2z"/>
		<path class="st70" d="M112.1,101c-5-0.4-7.2-2.9-5.9-8c0.6-0.6,1.3-0.5,1.9,0c0.2,5.3,4.5,5.7,8.1,7
			C115,101.4,113.5,100.9,112.1,101z"/>
		<path class="st67" d="M116.9,100c2.2,0.4,5-0.2,5.9,2.9C120.9,101.9,117.8,103.2,116.9,100z"/>
		<path class="st36" d="M235,177c-6.1,0.7-3.7-4-3.9-6.6c-0.2-2.6,1.1-4.2,3.9-2.5c0.6,0.9,0.3,1.7-0.1,2.5c-0.9,1.6-1,3.2-0.2,4.8
			C235.1,175.8,235.4,176.3,235,177z"/>
		<path class="st144" d="M235,177c-0.4-0.4-0.7-0.7-1.1-1.1c-0.6-1.9-0.6-3.9,0-5.8c0.9-0.5,1.1-1.3,1.2-2.2
			C236.5,170.9,236.7,174,235,177z"/>
		<path class="st84" d="M173,155.9c1.3-1.2,3.1-1.4,3.7,0.1c1,2.6,1,5.5,0,8.1c-0.6,1.5-2.4,1.3-3.7,0.1
			C172.2,161.4,172.3,158.6,173,155.9z"/>
		<path class="st114" d="M173,155.9c0,2.7,0,5.5,0,8.2C171.6,161.4,171.6,158.6,173,155.9z"/>
		<path class="st137" d="M214,146.1c2.1,2.4,0.7,5.3,0.9,8c0.1,1.4-1.1,1.8-2.4,1.8c-1.3,0-2.5-0.4-2.4-1.8c0.2-2.7-1.2-5.5,0.9-8
			c1.7,1.7,0.7,3.8,1,5.7c0-1,0-1.9,0.3-2.9C212.7,147.9,213.1,146.9,214,146.1z"/>
		<path class="st1" d="M214,146.1c0,1.1,0.2,2.2-1,2.9c-1.2,1.5,0.1,3.4-0.9,4.9c-2.3-2.3-0.5-5.2-1-7.8
			C212,146.1,213,146.1,214,146.1z"/>
		<path class="st134" d="M190.1,158.9c-0.6,1.7,1.3,4.9-2.4,4.9c-3.3,0-2.7-2.9-2.6-4.9c0.1-1.9-1.2-4.8,2.4-4.9
			C191.2,154,189.6,157.1,190.1,158.9z"/>
		<path class="st23" d="M167.7,101.2c1.8,3.3,1.4,5.2,0.7,8.5C166.5,106.5,166.9,104.5,167.7,101.2z"/>
		<path class="st16" d="M133,153c0,2.8-0.3,5.7,0.1,8.4c0.6,4.6-1.2,6.5-5.7,5.7c-2.1-0.4-5.4,1.4-6.1-1.5
			c-0.9-3.8-0.8-7.9,0.2-11.8c0.3-1.2,2-0.8,3.1-0.9C127.4,153,130.2,153,133,153C133,153,133,153,133,153z"/>
		<path class="st89" d="M163.2,133.9c0-2.3,0-4.5,0-6.8c0.2,0,0.3,0,0.5,0c0,2.3,0,4.5,0,6.8C163.5,133.9,163.4,133.9,163.2,133.9z"
			/>
		<path class="st36" d="M213.9,103c1.4,1.9,1.1,3.2,0.3,5C212.8,106.3,212.8,105,213.9,103z"/>
		<path class="st70" d="M155.9,119c0-0.3-0.1-0.7,0-1c0.3-1.4-0.9-3.6,1.7-3.9c1-0.1,1.3,0.8,1.4,1.7
			C159.4,118.2,158.3,119.3,155.9,119C156,119.1,155.9,119,155.9,119z"/>
		<path class="st145" d="M184,106c0.3,0,0.7,0,1,0c0,1.3,0.1,2.7,0,4c-0.1,1.4-0.6,2.3-2.1,1c0,0,0.3,0,0.3,0
			C184.1,109.4,182.9,107.5,184,106z"/>
		<path class="st1" d="M184,106c-0.2,1.7,0.7,3.5-0.9,4.9C183.2,109.3,182.2,107.4,184,106z"/>
		<path class="st56" d="M104.1,91c0,1.2-0.3,2.4,0,3.5c1.6,5.3-1.3,5.7-5.4,5.5c-2.6-0.1-4-0.6-3.8-3.6c0.3-3.4-0.1-6.9,1.1-10.3
			c0.9-1.2-0.3-3.5,1.9-4.2c1.7-2.9,3-1.2,3.7,0.6C102.6,85.3,103.3,88.2,104.1,91z"/>
		<path class="st22" d="M88,93c-0.4,0-0.8,0-1.1-0.1c0.4-1.3,0.7-2.6,1.1-4c2.4-2.9,3.7-7,8.1-8c1.1,1.4,0.2,2.2-0.9,3
			c-1.1,3.6-2.3,7.1-2.2,10.9c-0.6-0.7-1.2-1.3-1.8-2C90.1,93.6,89.1,93.4,88,93z"/>
		<path class="st146" d="M96,66c2.1,0.5,5.8-1.8,5.7,2.3c0,2.6,2.9,7-2.8,7.9c-2.2,0.7-3.6,0.2-3.4-2.4C95.7,71.2,95,68.5,96,66z"/>
		<path class="st72" d="M101.7,60.9c0.3,2.2-0.5,3.2-2.4,3.1c-1.4-0.1-3.4,0.5-3.2-1.9c0.3-2.4,0.9-5.9,3.3-6.1
			C102,55.7,100.5,59.5,101.7,60.9z"/>
		<path class="st147" d="M108,93c-0.6,0-1.3,0-1.9,0c-0.3-1.4,0.2-3-1.1-4.1c0.4-2.6-1.2-4.7-0.9-7.4C106.5,84.9,110.3,87.8,108,93z
			"/>
		<path class="st148" d="M96,66c0,2.4,0.1,4.9,0,7.3c-0.1,2.2,1.1,2.8,3,2.8c-1.8,1.2-3.7,1.4-3.8-1.2C95,72,94,68.8,96,66z"/>
		<path class="st149" d="M95.1,84.1c0.3-1,0.6-2,0.9-3c1.3-1.1,1.1,1.1,1.9,0.9c-0.6,1.4-1.2,2.8-1.9,4.2
			C95.7,85.4,95.4,84.7,95.1,84.1z"/>
		<path class="st150" d="M61,147.6c1.3,2.5,1,5,0.7,8.2C59.1,152.8,60.1,150.2,61,147.6z"/>
		<path class="st151" d="M61.1,178.6c-1.4-3.5-1.3-5.8-0.1-9.3C62.3,172.9,62.3,175.2,61.1,178.6z"/>
		<path class="st112" d="M88,93c1-0.7,2.1-0.7,3.1,0c-0.2,1.2,0.3,3-1.8,2.8C87.7,95.6,88.1,94.1,88,93z"/>
		<path class="st116" d="M153.9,44.2c-2,1.3-3.9,1.3-5.9,0C150,44.1,152,44.2,153.9,44.2z"/>
		<path class="st116" d="M150,57c0.1-0.3,0.1-0.7,0.2-1c0.6,0,1.2,0,1.8,0c-0.1,1.1,0.5,2.7-0.5,3.1C150.2,59.5,150.3,57.8,150,57z"
			/>
		<path class="st152" d="M91.9,159.2c0,1.6,0,3.2,0,6.1C90.7,162.3,90.9,160.6,91.9,159.2z"/>
		<path class="st7" d="M101.2,167.7c0-1.9,0-3.8,0-7.2C102.4,164,102.2,166,101.2,167.7z"/>
		<path class="st97" d="M111.8,164.3c1.7,3.2,1.2,5.2,0.8,8.2C110.5,169.7,111,167.6,111.8,164.3z"/>
		<path class="st153" d="M159,165c-1.2-2-1.1-3.3-0.1-5.2C160.2,161.8,160.3,163.1,159,165z"/>
		<path class="st23" d="M143,160c2.5,0.2,2.7,1.2,0.9,4.9C142.9,163.5,144.2,161.5,143,160z"/>
		<path class="st154" d="M143,160c1.8,1.4,0.8,3.2,0.9,4.9C142.3,163.6,143.2,161.7,143,160z"/>
		<path class="st90" d="M91.4,179.1c0.9,2.6,0.7,4.3,0.3,6.7C90.7,183.4,90.8,181.7,91.4,179.1z"/>
		<path class="st155" d="M101.4,183.1c0.9,1.6,0.9,3.3,0.2,5.4C100.5,186.5,101.2,184.8,101.4,183.1z"/>
		<path class="st79" d="M112.1,192.4c-1.4-1.9-1.3-3.9-0.4-6.4C113.6,188.3,113,190.3,112.1,192.4z"/>
		<path class="st156" d="M139.8,127.2c0,2.2,0,4.5,0,6.7c-0.2,0-0.3,0-0.5,0c0-2.2,0-4.5,0-6.7C139.5,127.2,139.6,127.2,139.8,127.2
			z"/>
		<path class="st137" d="M212.9,175.1c2.1,1.7,0.7,4,1.2,6c0,0,0,0,0,0c-0.4-0.1-0.8-0.1-1.2-0.2C212.3,179,212.3,177,212.9,175.1z"
			/>
		<path class="st157" d="M212.9,175.1c0,1.9,0,3.8,0,5.8C211.5,179,211.5,177,212.9,175.1z"/>
		<path class="st75" d="M176.6,183c-0.2,0.9-0.7,1.6-1.6,1.6c-1.2,0-1.9-0.8-1.7-2c0.1-0.8,0.8-1.5,1.8-1.3
			C176,181.5,176.6,182,176.6,183z"/>
		<path class="st56" d="M154,142.9c-2,0-4,0-5.9,0c0.6-1.3-1.4-3.3,1.1-4.1c0.9,0.9,2-0.3,2.9,0.3C156,138.7,153.1,141.8,154,142.9z
			"/>
		<path class="st158" d="M152,139.2c-1.1,1.1-2.1,1.2-2.9-0.3C150.1,138.4,151.4,135.4,152,139.2z"/>
		<path class="st91" d="M124,185c-0.3-1-0.6-2-1-3c0.7-0.7,1.3-1.4,2-2c0.5,0.3,1.1,0.5,1.4,1.1c0.3,1,0.8,1.8,1.7,2.3
			c0.5,0.4,0.8,0.9,0.9,1.5C127.3,187,125.7,185.7,124,185z"/>
		<path class="st159" d="M126.1,181.1c-0.4-0.4-0.7-0.7-1.1-1.1c0.3-0.3,0.7-0.7,1-1c1,0.3,2,0.6,3,0.9c0.8,1.7,1.9,3.4,0,5
			c-0.3-0.3-0.6-0.7-1-1C127,183.3,126.8,182,126.1,181.1z"/>
		<path class="st160" d="M233.9,142.1c0,1.9,0,3.9,0,5.8C232.5,146,232.5,144,233.9,142.1z"/>
		<path class="st161" d="M188.1,181.5c1.1,2.7,1.2,4.3,0,6.5C186.7,185.8,186.8,184.2,188.1,181.5z"/>
		<path class="st160" d="M233.9,170.1c0,1.9,0,3.9,0,5.8C232.5,174,232.5,172,233.9,170.1z"/>
		<path class="st114" d="M175,163c-1.5-1.7-1.6-3.3,0.1-5C175.7,159.7,175.8,161.4,175,163z"/>
		<path class="st162" d="M175,163c0-1.7,0-3.3,0.1-5C176.4,159.7,176.5,161.4,175,163z"/>
		<path class="st163" d="M212,153.9c0.2-1.6-0.7-3.5,0.9-4.9C212.8,150.7,213.8,152.5,212,153.9z"/>
		<path class="st153" d="M188.2,162c-1.4-1.8-1.4-3.1-0.3-4.8C189.3,158.7,189.2,160,188.2,162z"/>
		<path class="st134" d="M129.1,160c-0.5,1.8,1.1,4.8-2.5,4.9c-3.6,0.1-2.6-2.9-2.5-4.7c0.1-2-1.4-5.2,2.6-5.1
			C130.3,155.2,128.5,158.3,129.1,160z"/>
		<path class="st59" d="M98.3,69c0.9,1.6,1,3.3,0.2,5.4C97.4,72.4,98.1,70.7,98.3,69z"/>
		<path class="st3" d="M126.1,181.1c2,0.1,1.9,1.5,1.9,2.9C125.6,184.2,124.4,183.5,126.1,181.1z"/>
		<path class="st164" d="M127,158c1.3,1.8,1.2,3.1,0,4.9C125.7,161.2,125.7,159.9,127,158z"/>
	</g>
</g>
</svg>
