<?xml version="1.0" encoding="UTF-8" standalone="no"?>
<svg xmlns:rdf="http://www.w3.org/1999/02/22-rdf-syntax-ns#" xmlns="http://www.w3.org/2000/svg" version="1.1" xmlns:cc="http://creativecommons.org/ns#" xmlns:dc="http://purl.org/dc/elements/1.1/" viewBox="0 0 301 301">
 <g style="" transform="matrix(1.7647 0 0 1.7647 -25.939 -1530.2)">
  <g style="" transform="matrix(.79070 0 0 .79070 11.708 863.81)">
   <path style="" d="m111.66 4.496c-59.275 0-107.5 48.225-107.5 107.5 0 59.276 48.225 107.5 107.5 107.5 59.276 0 107.5-48.224 107.5-107.5 0-59.275-48.224-107.5-107.5-107.5zm0 213.53c-58.461-0.01-106.02-47.57-106.02-106.03-0.005-58.469 47.559-106.03 106.02-106.03 58.464 0 106.03 47.564 106.03 106.03 0 58.464-47.565 106.03-106.03 106.03z"/>
   <path style="" d="m111.66 7.806c-57.451 0-104.19 46.739-104.19 104.19 0 57.45 46.739 104.19 104.19 104.19s104.19-46.739 104.19-104.19-46.739-104.19-104.19-104.19zm0 207.64c-57.041 0-103.45-46.41-103.45-103.45 0-57.049 46.409-103.46 103.45-103.46 57.044 0 103.46 46.41 103.46 103.46 0 57.044-46.411 103.45-103.46 103.45z"/>
   <path style="" d="m86.095 191.17c-0.666-0.235-2.086-0.663-2.197-0.702-0.11-0.039-1.485-0.6-2.706-1.031-0.244-0.087-0.378-0.06-0.417 0.052-0.023 0.066-0.002 0.149 0.13 0.195 0.2 0.071 0.672 0.288 0.967 0.442 0.634 0.324 0.595 0.86 0.434 1.526-0.219 0.971-0.838 2.724-1.591 4.854l-3.318 9.386-2.779-1.032c-2.114-0.798-2.467-1.497-2.297-2.186l0.064-0.252c0.087-0.319 0.066-0.401-0.045-0.441-0.089-0.03-0.187 0.034-0.257 0.233-0.086 0.244-0.695 1.752-0.93 2.418-0.047 0.133-0.095 0.265 0.017 0.305 0.088 0.031 0.312 0.035 0.66 0.107 0.379 0.06 0.904 0.196 1.614 0.446l8.32 2.942c0.267 0.094 1.094 0.437 1.713 0.729 0.583 0.257 0.727 0.557 0.882 0.612 0.089 0.031 0.28-0.227 0.371-0.343 0.107-0.163 1.226-1.914 1.304-2.135 0.047-0.134 0.026-0.216-0.041-0.239-0.089-0.031-0.17-0.011-0.3 0.144-0.122 0.132-0.243 0.264-0.621 0.555-0.542 0.406-1.13 0.373-2.514-0.091l-3.299-1.117 3.318-9.385c0.752-2.129 1.373-3.882 1.813-4.775 0.317-0.611 0.6-1.06 1.075-0.992 0.216 0.025 0.498 0.076 0.698 0.146 0.133 0.046 0.201-0.004 0.224-0.07 0.048-0.131-0.048-0.215-0.292-0.301z"/>
   <path style="" d="m69.473 196.42 2.13-3.551c1.162-1.938 2.119-3.531 2.729-4.318 0.432-0.536 0.799-0.919 1.25-0.759 0.206 0.069 0.472 0.174 0.655 0.283 0.121 0.072 0.197 0.037 0.234-0.024 0.072-0.12-0.004-0.222-0.228-0.354-0.604-0.363-1.912-1.066-2.013-1.126s-1.335-0.884-2.445-1.55c-0.222-0.133-0.359-0.133-0.419-0.032-0.037 0.061-0.033 0.146 0.088 0.218 0.182 0.109 0.601 0.416 0.86 0.626 0.557 0.444 0.412 0.961 0.121 1.582-0.408 0.907-1.364 2.502-2.527 4.439l-1.272 2.118c-0.06 0.101-0.134 0.085-0.194 0.048l-8.556-5.133c-0.06-0.037-0.097-0.113-0.048-0.194l1.272-2.119c1.162-1.937 2.119-3.531 2.728-4.317 0.433-0.537 0.799-0.92 1.251-0.759 0.206 0.068 0.473 0.173 0.654 0.282 0.122 0.073 0.199 0.037 0.234-0.024 0.073-0.12-0.004-0.221-0.226-0.354-0.605-0.363-1.914-1.066-2.014-1.126-0.1-0.061-1.335-0.885-2.445-1.55-0.222-0.134-0.359-0.134-0.419-0.033-0.037 0.061-0.032 0.146 0.088 0.22 0.182 0.108 0.602 0.414 0.859 0.625 0.557 0.444 0.412 0.961 0.122 1.582-0.408 0.907-1.364 2.502-2.527 4.438l-2.131 3.551c-1.889 3.147-2.228 3.714-2.656 4.335-0.464 0.682-0.831 0.928-1.437 0.701-0.266-0.105-0.399-0.157-0.54-0.241-0.082-0.048-0.187-0.057-0.234 0.024-0.073 0.12 0.005 0.222 0.227 0.354 0.605 0.359 1.913 1.061 2.014 1.122 0.101 0.06 1.336 0.883 2.244 1.428 0.221 0.138 0.347 0.157 0.419 0.037 0.048-0.081-0.008-0.17-0.089-0.219-0.181-0.108-0.512-0.334-0.649-0.473-0.582-0.54-0.549-0.961-0.178-1.669 0.348-0.671 0.687-1.236 2.576-4.384l0.254-0.423c0.061-0.102 0.134-0.085 0.194-0.049l8.555 5.135c0.061 0.035 0.109 0.092 0.048 0.192l-0.254 0.424c-1.889 3.148-2.228 3.714-2.656 4.335-0.464 0.682-0.831 0.928-1.436 0.702-0.267-0.105-0.4-0.158-0.541-0.243-0.08-0.047-0.185-0.056-0.234 0.024-0.073 0.121 0.004 0.223 0.226 0.355 0.606 0.358 1.914 1.062 2.014 1.122 0.102 0.06 1.335 0.883 2.244 1.428 0.223 0.138 0.348 0.157 0.419 0.037 0.048-0.081-0.007-0.17-0.088-0.219-0.182-0.109-0.512-0.334-0.65-0.473-0.581-0.54-0.549-0.961-0.177-1.67 0.347-0.668 0.684-1.234 2.574-4.381z"/>
   <path style="" d="m50.161 183.26 2.804-3.047c1.53-1.662 2.789-3.03 3.544-3.678 0.532-0.438 0.969-0.74 1.379-0.49 0.188 0.107 0.427 0.265 0.583 0.409 0.104 0.095 0.188 0.075 0.234 0.023 0.096-0.104 0.041-0.219-0.149-0.394-0.26-0.238-0.69-0.57-1.037-0.89-0.38-0.318-0.674-0.589-0.708-0.62-0.26-0.238-0.659-0.64-1.303-1.295-0.659-0.64-1.579-1.55-2.878-2.744-0.675-0.623-0.813-0.75-1.349-0.412-0.421 0.285-1.643 1.334-1.771 1.474-0.111 0.12-0.238 0.26-0.135 0.354 0.086 0.079 0.185 0.042 0.395-0.116 0.774-0.599 1.302-0.754 1.926-0.53 0.626 0.225 1.388 0.925 1.838 1.34 1.697 1.562 1.749 2.025 0.702 3.269-0.318 0.379-2.184 2.372-2.725 2.96l-1.402 1.523c-0.064 0.069-0.146 0.089-0.232 0.01-0.294-0.271-1.977-1.884-2.397-2.365-0.612-0.69-0.496-1.129-0.342-1.435 0.138-0.289 0.297-0.462 0.456-0.635 0.079-0.086 0.108-0.188 0.021-0.268-0.121-0.111-0.296 0.079-0.423 0.218-0.112 0.121-0.736 0.729-1.089 1.045-0.578 0.523-0.935 0.738-1.031 0.842s-0.093 0.171-0.042 0.219c0.07 0.063 0.219 0.041 0.468 0.015 0.314-0.03 0.589 0.159 1.036 0.506 0.431 0.331 2.56 2.292 2.786 2.499 0.087 0.079 0.056 0.146-0.056 0.269l-4.398 4.778c-0.111 0.122-0.194 0.142-0.262 0.078-0.191-0.176-2.063-1.931-2.325-2.235-0.84-0.965-0.821-1.332-0.688-1.721 0.104-0.287 0.357-0.598 0.47-0.719 0.127-0.139 0.172-0.258 0.068-0.353-0.07-0.063-0.199 0.009-0.296 0.079-0.226 0.176-0.961 0.904-1.138 1.063-0.499 0.437-0.776 0.565-0.888 0.687-0.08 0.086-0.126 0.172-0.075 0.22 0.087 0.079 0.22 0.075 0.322 0.137 0.17 0.094 0.479 0.313 0.824 0.599 0.415 0.35 3.86 3.52 3.982 3.632l0.678 0.688c0.365 0.368 0.833 0.799 1.231 1.165 0.19 0.175 0.309 0.22 0.404 0.116 0.064-0.069 0.026-0.168-0.043-0.231-0.156-0.143-0.435-0.432-0.541-0.594-0.459-0.646-0.343-1.052 0.164-1.673 0.476-0.586 0.922-1.07 3.408-3.772z"/>
   <path style="" d="m46.694 165.05c0.124 0.143 0.327 0.404 0.419 0.54 0.065 0.098 0.157 0.149 0.234 0.098 0.118-0.078 0.077-0.222-0.092-0.477-0.616-0.918-1.396-1.952-1.54-2.167-0.145-0.216-0.649-1.094-0.963-1.563-0.119-0.177-0.236-0.267-0.353-0.189-0.078 0.053-0.077 0.138 0.015 0.274l0.131 0.196c0.223 0.332 0.322 0.86-0.069 1.122-0.352 0.235-0.886 0.452-1.492 0.604l-4.244 1.149c-0.124 0.025-0.221 0.007-0.288-0.092l-2.818-4.2c-0.066-0.098-0.053-0.162 0-0.255l3.586-5.041c0.234-0.326 0.488-0.327 0.606-0.236 0.072 0.065 0.151 0.098 0.229 0.045 0.118-0.077-0.026-0.292-0.256-0.678-0.866-1.373-1.822-2.801-2.019-3.093-0.144-0.216-0.301-0.365-0.418-0.287-0.098 0.065-0.065 0.158 0.014 0.274 0.132 0.196 0.309 0.502 0.408 0.86 0.158 0.489 0.226 1.266-1.042 3.136-2.17 3.185-8.182 11.664-8.728 12.456-0.448 0.641-0.494 0.784-0.415 0.902 0.079 0.116 0.249 0.115 1.051-0.081l15.108-3.705c1.211-0.305 2.216-0.411 2.936 0.408zm-9.188-0.098-6.428 1.82c-0.359 0.1-0.424 0.001-0.197-0.293l4.03-5.396c0.065-0.071 0.124-0.111 0.188-0.014l2.503 3.731c0.042 0.06 0.028 0.126-0.096 0.152z"/>
   <path style="" d="m34.794 149.47c0.827-2.359 0.716-4.888-0.642-8.147-0.542-1.301-1.312-2.767-1.991-3.543-0.233-1.039-0.545-2.176-0.597-2.416-0.055-0.253-0.201-1.257-0.322-1.809-0.045-0.206-0.121-0.334-0.259-0.304-0.092 0.02-0.124 0.1-0.088 0.26l0.05 0.231c0.085 0.391-0.016 0.917-0.477 1.019-0.414 0.09-0.991 0.095-1.61 0.014l-4.37-0.494c-0.125-0.02-0.209-0.076-0.234-0.19l-1.076-4.943c-0.025-0.115 0.011-0.171 0.092-0.237l5.192-3.37c0.337-0.218 0.574-0.125 0.65 0.003 0.043 0.087 0.104 0.146 0.197 0.126 0.138-0.03 0.083-0.283 0.011-0.726-0.299-1.596-0.664-3.275-0.74-3.62-0.026-0.118-0.06-0.221-0.103-0.297 0.122-0.016 0.164-0.131 0.16-0.374-0.005-0.353-0.061-0.894-0.069-1.364-0.032-0.494-0.038-0.894-0.04-0.941-0.001-0.117 0.056-0.919 0.11-1.956 0.054-1.013 0.104-2.261 0.088-3.274-0.065-4-1.747-6.091-2.822-7.085-1.41-1.295-3.712-2.482-6.677-2.434-2.802 0.045-4.736 1.183-5.941 2.379-2.848 2.848-2.566 7.15-2.529 9.48 0.023 1.414 0.118 2.895 0.122 3.177 0.002 0.118-0.045 1.602-0.027 2.66 0.004 0.259 0.053 0.375 0.195 0.372 0.094-0.001 0.139-0.096 0.138-0.189-0.003-0.213 0.014-0.613 0.059-0.802 0.151-0.779 0.525-0.973 1.324-1.034 0.752-0.059 1.412-0.07 5.082-0.129l4.142-0.067c2.259-0.037 4.119-0.067 5.109 0.035 0.684 0.083 1.204 0.193 1.305 0.662 0.05 0.211 0.103 0.493 0.105 0.705 0 0.031 0.014 0.042 0.021 0.064-0.012-0.001-0.022-0.01-0.035-0.007-0.115 0.026-0.119 0.122-0.088 0.261 0.049 0.23 0.103 0.58 0.063 0.95-0.033 0.513-0.256 1.26-2.122 2.533-3.19 2.163-11.9 7.839-12.699 8.375-0.654 0.432-0.749 0.549-0.719 0.687 0.03 0.139 0.188 0.2 1.007 0.311l15.416 2.111c1.125 0.149 2.026 0.392 2.458 1.202-0.11-0.033-0.237-0.032-0.457-0.013-0.829 0.09-2.829 0.618-2.98 0.682-0.173 0.069-0.308 0.175-0.262 0.284 0.054 0.131 0.16 0.138 0.417 0.081 0.417-0.093 1.491-0.209 2.16 0.047 1.253 0.498 1.983 1.698 2.663 3.327 1.938 4.648-0.533 9.428-4.683 11.157-2.216 0.924-4.304 1.36-6.485 0.409-1.056-0.452-2.465-1.446-3.668-4.337-0.797-1.912-0.908-3.829-0.573-4.861 0.243-0.764 0.989-1.483 1.836-1.836 0.304-0.126 0.446-0.212 0.383-0.363-0.054-0.131-0.202-0.12-0.537-0.006s-1.531 0.613-2.265 0.869c-0.8 0.283-1.088 0.325-1.263 0.398-0.13 0.054-0.199 0.135-0.121 0.382 0.246 0.713 0.406 1.463 0.598 2.353 0.249 1.146 0.691 2.389 1.053 3.258 1.395 3.346 3.239 4.897 5.086 5.657 2.739 1.128 5.49 0.567 6.945-0.039 2.063-0.865 4.323-2.419 5.334-5.314zm-7.744-32.39c-0.256 0.192-1.196 0.255-1.784 0.288-0.446 0.031-2.611 0.09-5.106 0.13l-2.918 0.047c-1.813 0.03-4.213 0.068-5.013 0.058-0.259 0.004-0.378-0.064-0.475-0.274-0.097-0.187-0.182-1.057-0.189-1.527-0.046-2.801 0.241-5.489 2.534-7.738 0.996-0.981 2.905-2.307 5.894-2.356 2.165-0.035 4.435 0.587 5.654 1.792 1.412 1.366 2.245 3.377 2.28 5.565 0.045 2.777-0.434 3.702-0.877 4.015zm-3.823 17.046-6.649-0.672c-0.37-0.04-0.395-0.155-0.075-0.345l5.733-3.536c0.087-0.044 0.156-0.059 0.181 0.056l0.956 4.393c0.015 0.068-0.021 0.124-0.146 0.104z"/>
   <path style="" d="m11.716 98.188c0.093 0.018 0.156-0.066 0.173-0.159 0.041-0.208 0.138-0.597 0.218-0.773 0.307-0.732 0.712-0.847 1.507-0.745 0.75 0.094 1.396 0.216 5.004 0.9l4.071 0.77c2.221 0.42 4.048 0.767 4.997 1.066 0.653 0.219 1.14 0.431 1.146 0.911 0.007 0.217 0 0.503-0.039 0.711-0.026 0.138 0.035 0.198 0.104 0.211 0.139 0.026 0.207-0.081 0.256-0.335 0.065-0.348 0.12-0.888 0.207-1.351 0.069-0.49 0.144-0.883 0.152-0.93 0.066-0.347 0.194-0.898 0.411-1.792 0.194-0.897 0.481-2.161 0.809-3.896 0.171-0.902 0.206-1.087-0.365-1.363-0.464-0.208-2.001-0.69-2.187-0.726-0.163-0.029-0.348-0.064-0.374 0.075-0.021 0.115 0.062 0.179 0.308 0.274 0.917 0.34 1.328 0.705 1.469 1.355 0.14 0.649-0.052 1.667-0.167 2.268-0.429 2.267-0.795 2.557-2.405 2.324-0.49-0.069-3.169-0.599-3.955-0.749l-2.036-0.385c-0.093-0.017-0.154-0.077-0.131-0.192 0.074-0.394 0.554-2.674 0.742-3.286 0.263-0.884 0.695-1.019 1.037-1.049 0.317-0.036 0.548 0.008 0.78 0.052 0.116 0.022 0.217-0.006 0.239-0.123 0.031-0.162-0.223-0.21-0.409-0.245-0.163-0.031-1.009-0.239-1.462-0.372-0.75-0.214-1.121-0.404-1.261-0.43-0.139-0.027-0.194 0.011-0.207 0.081-0.017 0.092 0.081 0.207 0.235 0.404 0.192 0.252 0.177 0.585 0.118 1.149-0.054 0.541-0.593 3.385-0.649 3.686-0.022 0.115-0.096 0.125-0.258 0.095l-6.384-1.208c-0.161-0.031-0.223-0.091-0.204-0.183 0.047-0.254 0.548-2.771 0.668-3.156 0.376-1.223 0.696-1.401 1.097-1.493 0.3-0.063 0.697-0.012 0.859 0.019 0.185 0.034 0.311 0.011 0.336-0.128 0.017-0.092-0.112-0.165-0.224-0.21-0.269-0.099-1.277-0.337-1.504-0.404-0.635-0.192-0.891-0.36-1.053-0.391-0.115-0.022-0.212-0.016-0.226 0.053-0.021 0.115 0.053 0.225 0.054 0.345 0.012 0.194-0.013 0.573-0.073 1.016-0.077 0.537-0.949 5.139-0.979 5.301l-0.226 0.939c-0.119 0.504-0.238 1.129-0.339 1.661-0.043 0.257-0.018 0.381 0.12 0.408z"/>
   <path style="" d="m15.605 80.3 13.513 7.469c0.789 0.431 1.609 0.849 1.441 1.621-0.071 0.354-0.134 0.506-0.206 0.679-0.046 0.108-0.047 0.235 0.018 0.263 0.152 0.063 0.259-0.071 0.349-0.289 0.245-0.587 0.615-1.657 0.696-1.853 0.073-0.173 0.572-1.19 0.907-1.994 0.109-0.26 0.12-0.408-0.032-0.472-0.066-0.027-0.145 0.042-0.181 0.129-0.054 0.13-0.212 0.447-0.453 0.78-0.201 0.298-0.583 0.42-0.908 0.285-0.369-0.154-0.761-0.317-1.099-0.484l-9.718-5.071 0.036-0.087c0.687 0.005 6.915-0.255 7.388-0.287 0.262-0.018 4.799-0.319 6.099-0.441 0.956-0.087 1.217-0.105 1.28-0.257 0.081-0.196-0.087-0.342-0.853-1.196l-9.079-10.033 0.027-0.064 11.646 3.63c0.409 0.12 0.769 0.295 0.746 0.414-0.023 0.117 0.001 0.179 0.089 0.215 0.107 0.045 0.219-0.036 0.471-0.518 0.4-0.777 1.443-3.096 1.642-3.574 0.109-0.26 0.125-0.483-0.006-0.538-0.086-0.036-0.135 0.02-0.181 0.128-0.09 0.217-0.326 0.782-0.783 1.332-0.694 0.808-1.974 0.452-2.792 0.213l-13.947-4.104c-0.431-0.129-0.632-0.136-0.695 0.016-0.064 0.152 0.052 0.302 0.212 0.471l10.981 12.074-16.438 0.953c-0.285 0.009-0.408 0.06-0.462 0.19s0.061 0.278 0.292 0.4z"/>
   <path style="" d="m26.222 58.838c0.09-0.137 0.279-0.379 0.48-0.557 0.383-0.367 0.847-0.343 1.541 0.058 0.655 0.375 1.204 0.738 4.268 2.76l3.456 2.281c1.886 1.244 3.438 2.268 4.197 2.911 0.518 0.455 0.885 0.837 0.704 1.283-0.077 0.202-0.193 0.464-0.311 0.641-0.077 0.118-0.045 0.195 0.015 0.234 0.118 0.078 0.223 0.005 0.365-0.211 0.388-0.59 1.146-1.866 1.21-1.963 0.064-0.099 0.94-1.297 1.653-2.377 0.142-0.215 0.148-0.353 0.05-0.417-0.059-0.039-0.143-0.038-0.221 0.08-0.117 0.176-0.441 0.583-0.662 0.832-0.467 0.537-0.977 0.37-1.585 0.053-0.889-0.446-2.44-1.47-4.327-2.714l-3.456-2.281c-3.064-2.022-3.613-2.385-4.215-2.839-0.661-0.493-0.892-0.871-0.64-1.465 0.117-0.262 0.174-0.393 0.265-0.53 0.052-0.079 0.065-0.183-0.015-0.234-0.117-0.078-0.221-0.006-0.364 0.21-0.389 0.588-1.146 1.864-1.211 1.962-0.065 0.099-0.939 1.297-1.368 1.945-0.143 0.216-0.168 0.341-0.05 0.418 0.078 0.052 0.169-0.001 0.221-0.08z"/>
   <path style="" d="m37.942 55.885c1.656 1.503 4.023 2.889 7.074 2.575 2.487-0.253 4.73-1.428 7.103-4.043 1.013-1.116 2.094-2.55 2.447-3.5 0.146-0.44 0.143-0.507-0.094-0.912-0.435-0.712-1.761-2.298-1.883-2.409-0.139-0.128-0.293-0.204-0.372-0.117-0.095 0.104-0.058 0.203 0.104 0.412 0.266 0.338 0.828 1.261 0.877 1.976 0.082 1.346-0.695 2.517-1.882 3.823-3.386 3.73-8.762 3.522-12.09 0.5-1.777-1.614-3.059-3.319-3.124-5.698-0.039-1.148 0.262-2.845 2.367-5.164 1.393-1.534 3.082-2.449 4.158-2.583 0.795-0.105 1.762 0.265 2.442 0.881 0.244 0.222 0.381 0.315 0.493 0.193 0.095-0.104 0.022-0.235-0.224-0.489-0.246-0.255-1.205-1.125-1.748-1.682-0.597-0.605-0.757-0.847-0.896-0.973-0.105-0.095-0.206-0.124-0.398 0.052-0.542 0.526-1.152 0.989-1.875 1.54-0.933 0.712-1.871 1.64-2.502 2.337-2.438 2.684-3.058 5.013-2.961 7.008 0.142 2.96 1.817 5.212 2.984 6.273z"/>
   <path style="" d="m60.519 35.626 1.363 0.144c2.609 0.279 3.697 0.69 4.592 2.044 0.829 1.257 0.8 3.221-1.085 4.466-1.315 0.868-2.975 1.173-4.229-0.085-0.241-0.236-0.422-0.511-0.539-0.688-0.104-0.157-0.163-0.203-0.28-0.125-0.098 0.065-0.072 0.189 0.05 0.417 0.188 0.328 0.628 1.164 1.275 2.147 0.351 0.53 0.421 0.596 0.787 0.552 1.064-0.138 2.059-0.597 2.982-1.207 1.06-0.7 1.965-1.636 2.42-2.782 0.72-1.856 0.049-3.556-0.481-4.362-1.037-1.571-2.392-2.426-5.913-2.723l-0.836-0.069c-2.858-0.229-3.834-0.599-4.574-1.718-0.946-1.433-0.443-2.978 0.912-3.873 1.806-1.192 2.881-0.717 3.142-0.579s0.729 0.59 0.904 0.813c0.123 0.144 0.207 0.229 0.325 0.152 0.099-0.065 0.047-0.229-0.16-0.543-0.881-1.335-1.231-2.036-1.295-2.134-0.065-0.099-0.131-0.111-0.288-0.008-0.157 0.104-0.327 0.188-0.752 0.355-0.568 0.206-1.189 0.503-1.956 1.009-2.495 1.646-3.119 4.116-1.731 6.218 0.882 1.338 2.159 2.245 5.367 2.579z"/>
   <path style="" d="m64.634 22.927c0.192-0.091 0.564-0.239 0.755-0.276 0.772-0.181 1.103 0.079 1.485 0.784 0.362 0.662 0.642 1.258 2.202 4.581l1.76 3.749c0.96 2.044 1.75 3.727 2.064 4.672 0.204 0.659 0.317 1.177-0.068 1.461-0.172 0.132-0.408 0.295-0.599 0.385-0.128 0.06-0.14 0.144-0.109 0.208 0.06 0.128 0.187 0.121 0.421 0.01 0.319-0.15 0.788-0.423 1.215-0.623 0.437-0.23 0.798-0.401 0.842-0.421 0.319-0.15 0.841-0.368 1.691-0.716 0.842-0.368 2.032-0.876 3.63-1.625 0.701-0.328 0.928-0.44 0.917-0.84 0.042-0.009 0.083-0.016 0.133-0.031 1.064-0.301 2.29-0.72 2.54-0.791 0.249-0.071 1.241-0.277 1.785-0.431 0.204-0.057 0.327-0.141 0.289-0.276-0.026-0.09-0.106-0.117-0.265-0.072l-0.227 0.064c-0.384 0.109-0.918 0.039-1.046-0.414-0.115-0.407-0.156-0.983-0.111-1.607l0.228-4.392c0.013-0.126 0.062-0.213 0.175-0.245l4.868-1.375c0.113-0.032 0.171 0 0.243 0.078l3.679 4.976c0.239 0.324 0.161 0.567 0.037 0.65-0.084 0.048-0.139 0.112-0.113 0.203 0.039 0.136 0.288 0.065 0.724-0.033 1.576-0.396 3.229-0.863 3.568-0.959 0.25-0.071 0.441-0.173 0.402-0.309-0.032-0.114-0.129-0.111-0.265-0.072-0.226 0.064-0.572 0.138-0.944 0.12-0.514-0.001-1.272-0.178-2.658-1.964-2.353-3.052-8.551-11.4-9.133-12.165-0.47-0.625-0.592-0.712-0.729-0.674-0.135 0.039-0.188 0.199-0.249 1.024l-1.168 15.515c-0.088 1.247-0.298 2.236-1.302 2.666-0.133 0.056-0.342 0.134-0.505 0.188-0.129-0.553-0.599-1.958-0.675-2.122-0.069-0.149-0.149-0.32-0.278-0.261-0.106 0.05-0.109 0.155-0.042 0.41 0.261 0.944 0.206 1.489-0.238 1.984-0.443 0.494-1.38 0.934-1.935 1.194-2.087 0.98-2.537 0.853-3.292-0.586-0.231-0.438-1.37-2.918-1.709-3.643l-0.88-1.874c-0.04-0.085-0.027-0.169 0.08-0.219 0.362-0.17 2.491-1.118 3.096-1.323 0.871-0.305 1.231-0.032 1.456 0.226 0.215 0.237 0.316 0.449 0.416 0.663 0.049 0.107 0.133 0.171 0.239 0.122 0.148-0.07 0.039-0.305-0.042-0.475-0.069-0.149-0.396-0.958-0.555-1.403-0.265-0.733-0.329-1.145-0.389-1.272-0.061-0.127-0.123-0.151-0.188-0.121-0.084 0.04-0.12 0.186-0.189 0.427-0.091 0.303-0.369 0.486-0.86 0.768-0.47 0.272-3.09 1.502-3.367 1.633-0.106 0.05-0.158-0.004-0.228-0.153l-2.76-5.878c-0.07-0.149-0.058-0.233 0.028-0.273 0.234-0.11 2.566-1.179 2.948-1.306 1.21-0.413 1.543-0.257 1.853 0.015 0.227 0.205 0.417 0.558 0.488 0.707 0.08 0.17 0.172 0.257 0.3 0.197 0.085-0.04 0.067-0.188 0.039-0.305-0.076-0.276-0.474-1.232-0.553-1.456-0.216-0.626-0.23-0.932-0.299-1.081-0.049-0.106-0.111-0.182-0.175-0.152-0.107 0.05-0.151 0.175-0.248 0.247-0.151 0.123-0.472 0.325-0.867 0.536-0.479 0.251-4.719 2.241-4.868 2.312l-0.894 0.368c-0.478 0.199-1.053 0.468-1.543 0.699-0.234 0.11-0.321 0.203-0.261 0.33 0.039 0.079 0.144 0.082 0.23 0.042zm19.875-4.55c0.018-0.372 0.13-0.404 0.34-0.096l3.878 5.507c0.048 0.084 0.067 0.152-0.046 0.184l-4.325 1.222c-0.068 0.019-0.126-0.013-0.113-0.139l0.266-6.678z"/>
   <path style="" d="m96.086 12.47c0.211-0.022 0.61-0.042 0.803-0.016 0.79 0.08 1.019 0.434 1.151 1.224 0.128 0.744 0.2 1.398 0.597 5.048l0.449 4.118c0.245 2.246 0.445 4.095 0.436 5.09-0.02 0.688-0.081 1.216-0.539 1.36-0.205 0.07-0.481 0.147-0.691 0.17-0.14 0.015-0.179 0.09-0.171 0.16 0.016 0.141 0.138 0.174 0.395 0.146 0.352-0.039 0.863-0.118 1.329-0.192 0.467-0.051 0.863-0.118 0.957-0.128 0.679-0.073 1.407-0.129 2.395-0.189 0.985-0.083 2.207-0.169 3.892-0.353 1.24-0.135 1.3-0.236 1.405-0.792 0.113-0.699 0.124-2.121 0.096-2.378s-0.062-0.348-0.178-0.336c-0.141 0.016-0.175 0.138-0.178 0.328-0.021 0.452-0.192 1.063-0.455 1.47-0.488 0.74-1.515 0.875-2.755 1.01-1.823 0.198-2.45 0.102-2.865-0.232-0.467-0.376-0.724-1.863-1.099-5.302l-0.452-4.165c-0.398-3.65-0.47-4.306-0.505-5.06-0.042-0.824 0.103-1.242 0.767-1.433 0.276-0.077 0.601-0.137 0.765-0.154 0.094-0.01 0.182-0.067 0.171-0.161-0.015-0.141-0.137-0.174-0.394-0.146-0.702 0.079-2.403 0.335-2.52 0.348-0.117 0.012-1.599 0.103-2.651 0.218-0.258 0.026-0.369 0.085-0.354 0.226 0.007 0.095 0.105 0.132 0.199 0.121z"/>
   <path style="" d="m124.42 30.147c5.604 0.879 9.952-2.846 10.77-8.055 0.85-5.418-2.539-9.332-7.771-10.153-6.418-1.007-9.997 3.888-10.587 7.654-0.657 4.185 1.216 9.554 7.588 10.554zm-5.278-10.858c0.799-5.092 4.107-7.194 7.99-6.585 3.674 0.576 6.598 4.108 5.723 9.689-1.062 6.766-5.576 7.297-7.669 6.969-4.185-0.656-6.894-4.655-6.044-10.073z"/>
   <path style="" d="m135.84 32.312c0.664 0.239 2.083 0.674 2.195 0.713 0.11 0.04 1.482 0.608 2.701 1.045 0.243 0.088 0.378 0.061 0.417-0.05 0.024-0.066 0.004-0.149-0.129-0.197-0.199-0.071-0.671-0.291-0.966-0.446-0.632-0.327-0.59-0.863-0.425-1.529 0.223-0.97 0.852-2.72 1.614-4.847l0.677-1.883c0.056-0.155 0.116-0.184 0.228-0.144 0.376 0.135 2.791 1.002 3.321 1.268 0.656 0.335 0.867 0.861 0.866 1.211-0.007 0.297-0.096 0.616-0.154 0.845-0.04 0.111-0.027 0.216 0.083 0.255 0.155 0.056 0.235-0.166 0.307-0.365 0.055-0.155 0.418-1.025 0.621-1.453 0.33-0.707 0.575-1.043 0.624-1.177 0.04-0.111 0.041-0.186-0.047-0.217-0.088-0.032-0.194 0.055-0.322 0.134-0.303 0.216-0.615 0.18-1.162 0.032-0.319-0.09-0.628-0.201-1.005-0.336l-2.843-0.997c-0.134-0.048-0.131-0.122-0.083-0.255l2.196-6.114c0.064-0.177 0.154-0.22 0.287-0.172l3.388 1.292c0.856 0.332 1.222 0.914 1.252 1.25 0.029 0.336-0.041 0.736-0.104 0.914-0.056 0.155-0.051 0.282 0.06 0.322 0.11 0.04 0.202-0.077 0.264-0.18 0.14-0.25 0.535-1.208 0.636-1.422 0.29-0.597 0.495-0.822 0.551-0.978 0.04-0.111 0.027-0.215-0.061-0.247-0.089-0.032-0.209 0.025-0.358 0.021-0.224-0.005-0.578-0.133-1.006-0.262-0.519-0.161-5.023-1.753-5.458-1.936l-0.892-0.371c-0.48-0.197-1.078-0.412-1.587-0.595-0.243-0.088-0.371-0.083-0.418 0.05-0.032 0.089 0.042 0.165 0.13 0.196 0.199 0.072 0.568 0.23 0.729 0.337 0.676 0.418 0.726 0.836 0.5 1.605-0.21 0.724-0.433 1.345-1.675 4.801l-1.399 3.899c-0.764 2.127-1.393 3.876-1.838 4.767-0.319 0.61-0.604 1.058-1.079 0.987-0.216-0.027-0.497-0.078-0.697-0.149-0.134-0.048-0.201 0.002-0.226 0.069-0.052 0.137 0.043 0.222 0.287 0.309z"/>
   <path style="" d="m153.07 39.65c0.586 0.395 1.854 1.166 1.875 1.179 0.098 0.066 1.287 0.953 2.359 1.678 0.216 0.145 0.354 0.152 0.419 0.054 0.04-0.059 0.04-0.143-0.078-0.222-0.175-0.119-0.577-0.448-0.824-0.671-0.533-0.473-0.36-0.981-0.037-1.586 0.455-0.886 1.495-2.427 2.759-4.301l0.315-0.469c0.066-0.097 0.145-0.129 0.242-0.064l2.374 1.659c0.117 0.079 0.149 0.157 0.175 0.288 0.048 0.771 0.083 2.697 0.179 4.323 0.125 2.214 0.163 3.631 0.699 4.646 0.323 0.616 0.746 1.042 1.838 1.779l1.386 0.935c0.128 0.086 0.221 0.138 0.3 0.174-0.171 0.046-0.336 0.035-0.496-0.061-0.189-0.107-0.429-0.263-0.587-0.406-0.104-0.095-0.187-0.075-0.233-0.022-0.095 0.104-0.039 0.218 0.152 0.393 0.521 0.475 1.666 1.421 1.754 1.5 0.086 0.08 1.135 1.129 2.093 2.001 0.192 0.174 0.326 0.202 0.404 0.115 0.049-0.052 0.061-0.137-0.043-0.231-0.157-0.143-0.508-0.526-0.721-0.783-0.458-0.544-0.214-1.022 0.192-1.575 0.579-0.81 1.83-2.186 3.352-3.856l2.789-3.063c2.472-2.715 2.916-3.203 3.458-3.728 0.589-0.578 0.998-0.747 1.547-0.406 0.239 0.155 0.36 0.232 0.482 0.344 0.07 0.063 0.171 0.092 0.234 0.022 0.095-0.104 0.039-0.218-0.152-0.393-0.521-0.479-1.667-1.425-1.754-1.505-0.086-0.079-1.135-1.129-1.71-1.652-0.192-0.17-0.31-0.215-0.404-0.11-0.065 0.07-0.026 0.167 0.043 0.231 0.123 0.111 0.333 0.334 0.477 0.561 0.303 0.436 0.208 0.89-0.295 1.514-0.474 0.588-0.917 1.076-3.388 3.791l-2.788 3.064c-1.521 1.671-2.774 3.046-3.526 3.698-0.216 0.18-0.414 0.333-0.604 0.44-0.016-0.046-0.046-0.095-0.1-0.13-0.116-0.079-0.391-0.264-0.721-0.572-0.436-0.407-1.13-1.188-1.433-3.011-0.316-1.974-0.472-4.605-0.69-7.734 2.85-0.435 4.429-1.471 5.402-2.916 0.908-1.347 0.695-2.882 0.444-3.563-0.534-1.439-1.762-2.438-2.992-3.268-0.604-0.41-2.128-1.352-2.342-1.497-0.099-0.066-1.288-0.954-2.166-1.547-0.214-0.143-0.339-0.169-0.417-0.052-0.053 0.078-0.001 0.169 0.076 0.222 0.176 0.119 0.494 0.362 0.625 0.506 0.552 0.571 0.497 0.989 0.089 1.679-0.383 0.65-0.751 1.197-2.805 4.242l-2.317 3.434c-1.264 1.873-2.304 3.416-2.953 4.168-0.46 0.513-0.848 0.877-1.29 0.691-0.202-0.079-0.463-0.199-0.639-0.316-0.116-0.079-0.195-0.047-0.234 0.011-0.079 0.119-0.008 0.223 0.206 0.368zm7.644-5.606 4.304-6.381c0.079-0.117 0.19-0.156 0.314-0.128 0.234 0.072 0.802 0.37 1.388 0.765 2.088 1.408 2.389 3.741 0.743 6.18-1.001 1.483-2.219 2.194-3.218 2.202-0.658 0.01-1.244-0.301-1.714-0.616-0.858-0.58-1.664-1.321-1.838-1.694-0.059-0.125-0.046-0.23 0.021-0.328z"/>
   <path style="" d="m175.25 54.864c-0.148 2.495 0.652 4.897 2.853 7.657 0.938 1.178 2.182 2.474 3.063 2.976 0.411 0.214 0.478 0.222 0.915 0.053 0.772-0.315 2.55-1.37 2.678-1.473 0.147-0.12 0.247-0.26 0.174-0.352-0.088-0.11-0.19-0.089-0.422 0.036-0.376 0.212-1.376 0.618-2.09 0.554-1.341-0.135-2.372-1.088-3.473-2.469-3.138-3.938-2.074-9.21 1.441-12.012 1.878-1.496 3.765-2.489 6.123-2.172 1.14 0.146 2.767 0.715 4.718 3.163 1.291 1.619 1.923 3.432 1.884 4.517-0.022 0.802-0.543 1.698-1.261 2.269-0.257 0.205-0.371 0.327-0.269 0.455 0.088 0.11 0.229 0.06 0.518-0.143 0.291-0.201 1.304-1.008 1.94-1.455 0.691-0.492 0.956-0.612 1.104-0.73 0.109-0.088 0.154-0.184 0.012-0.4-0.433-0.619-0.791-1.295-1.22-2.098-0.554-1.033-1.319-2.108-1.906-2.844-2.259-2.834-4.459-3.82-6.442-4.044-2.943-0.333-5.435 0.96-6.667 1.943-1.748 1.394-3.495 3.508-3.673 6.569z"/>
   <path style="" d="m197.8 62.705c-0.642 0.396-1.223 0.707-4.462 2.437l-3.653 1.951c-1.993 1.064-3.634 1.94-4.561 2.302-0.646 0.238-1.159 0.378-1.463 0.008-0.142-0.165-0.316-0.392-0.416-0.579-0.067-0.125-0.15-0.133-0.213-0.099-0.125 0.066-0.11 0.192 0.013 0.42 0.165 0.312 0.462 0.766 0.684 1.182 0.254 0.425 0.442 0.778 0.464 0.82 0.168 0.311 0.412 0.82 0.804 1.652 0.411 0.821 0.979 1.985 1.812 3.542 0.432 0.81 0.521 0.976 1.138 0.833 0.491-0.129 1.992-0.717 2.159-0.805 0.146-0.08 0.311-0.168 0.245-0.293-0.057-0.104-0.162-0.101-0.412-0.021-0.929 0.311-1.478 0.284-1.994-0.134-0.517-0.417-1.003-1.332-1.293-1.871-1.087-2.035-0.982-2.49 0.416-3.317 0.425-0.254 2.844-1.519 3.551-1.896l1.826-0.976c0.083-0.045 0.168-0.036 0.224 0.068 0.188 0.353 1.244 2.43 1.481 3.024 0.35 0.854 0.097 1.229-0.149 1.468-0.226 0.228-0.435 0.338-0.641 0.449-0.105 0.055-0.166 0.141-0.109 0.245 0.077 0.146 0.306 0.024 0.473-0.065 0.145-0.078 0.935-0.446 1.373-0.627 0.718-0.304 1.126-0.388 1.251-0.455 0.123-0.067 0.143-0.13 0.109-0.192-0.045-0.083-0.192-0.11-0.436-0.168-0.308-0.076-0.504-0.344-0.812-0.821-0.296-0.456-1.66-3.009-1.804-3.279-0.057-0.104-0.006-0.158 0.141-0.235l5.729-3.06c0.146-0.077 0.229-0.069 0.273 0.014 0.122 0.229 1.31 2.502 1.458 2.878 0.474 1.188 0.334 1.528 0.08 1.851-0.194 0.236-0.536 0.446-0.681 0.523-0.167 0.089-0.248 0.186-0.182 0.31 0.045 0.083 0.191 0.059 0.307 0.024 0.271-0.092 1.206-0.538 1.425-0.628 0.614-0.248 0.919-0.277 1.064-0.355 0.104-0.055 0.175-0.121 0.142-0.183-0.055-0.104-0.183-0.143-0.26-0.235-0.13-0.144-0.349-0.454-0.58-0.837-0.276-0.466-2.482-4.598-2.56-4.744l-0.412-0.874c-0.225-0.468-0.524-1.028-0.779-1.505-0.122-0.229-0.219-0.31-0.343-0.244-0.083 0.045-0.081 0.15-0.036 0.232 0.1 0.187 0.268 0.551 0.314 0.739 0.223 0.763-0.022 1.107-0.705 1.526z"/>
   <path style="" d="m198.31 84.307c-3.344 0.792-4.741 2.043-5.552 3.421-1.149 1.99-0.691 4.325-0.507 5.104 0.32 1.351 0.956 3.015 2.813 4.317 2.061 1.446 4.875 1.07 7.348 0.483l2.45-0.581c3.573-0.847 4.215-1 4.959-1.127 0.813-0.144 1.222-0.048 1.507 0.538 0.11 0.264 0.166 0.396 0.204 0.556 0.021 0.092 0.089 0.172 0.181 0.151 0.138-0.033 0.155-0.158 0.096-0.411-0.162-0.689-0.486-1.749-0.524-1.909-0.032-0.137-0.263-1.414-0.507-2.444-0.06-0.25-0.133-0.354-0.27-0.322-0.092 0.022-0.116 0.125-0.095 0.215 0.049 0.207 0.119 0.602 0.116 0.795 0.019 0.794-0.305 1.064-1.071 1.294-0.723 0.219-1.364 0.371-4.938 1.218l-2.862 0.679c-2.359 0.56-4.371 0.747-5.927 0.002-1.181-0.59-2.171-1.808-2.503-3.204-0.31-1.306-0.347-2.385 0.44-3.758 0.706-1.207 1.952-2.277 5.25-3.059l3.206-0.761c3.573-0.847 4.215-0.999 4.958-1.127 0.813-0.144 1.269-0.059 1.507 0.538 0.11 0.264 0.167 0.396 0.205 0.556 0.021 0.092 0.089 0.172 0.18 0.151 0.139-0.033 0.157-0.158 0.098-0.41-0.163-0.688-0.559-2.045-0.607-2.252-0.049-0.207-0.312-1.62-0.556-2.65-0.06-0.251-0.134-0.355-0.271-0.323-0.091 0.021-0.114 0.124-0.094 0.215 0.048 0.206 0.118 0.601 0.116 0.795 0.019 0.793-0.305 1.063-1.072 1.294-0.721 0.22-1.363 0.372-4.936 1.219l-3.342 0.797z"/>
   <path style="" d="m212.68 115.33c-0.006-0.279-0.031-0.467-0.173-0.465-0.094 0.003-0.165 0.027-0.162 0.191 0.003 0.189-0.012 0.731-0.099 1.156-0.177 0.731-0.691 0.905-2.221 0.954l-11.95 0.452c0.764-0.765 3.594-3.377 6.051-5.747 3.823-3.687 7.556-7.255 7.95-7.615 0.231-0.239 0.743-0.647 0.74-0.836-0.004-0.188-0.264-0.254-1.181-0.24l-13.485 0.195c-2.141 0.035-2.825-0.072-2.999-0.657-0.124-0.352-0.154-0.774-0.157-0.963-0.003-0.117-0.05-0.188-0.145-0.186-0.164 0.002-0.186 0.144-0.183 0.379 0.018 1.059 0.104 2.045 0.107 2.257s-0.052 1.154-0.03 2.495c0.005 0.284 0.054 0.425 0.195 0.422 0.094-0.001 0.14-0.073 0.139-0.19-0.004-0.212 0.011-0.73 0.122-1.179 0.177-0.638 0.785-0.884 2.715-0.961l11.267-0.489c-0.836 0.766-3.757 3.474-6.655 6.251-2.642 2.538-6.047 5.982-6.276 6.245-1.229 1.268-1.482 1.555-1.479 1.743 0.003 0.165 0.121 0.209 1.675 0.185l13.79-0.176c1.412-0.023 1.932 0.062 2.108 0.836 0.076 0.281 0.077 0.446 0.079 0.564 0.004 0.165 0.076 0.258 0.169 0.256 0.141-0.002 0.162-0.167 0.158-0.426-0.016-0.968-0.1-1.745-0.104-2.004-0.003-0.258 0.051-1.388 0.034-2.447z"/>
   <path style="" d="m211.61 125.1c-0.094-0.014-0.155 0.072-0.169 0.165-0.025 0.163-0.097 0.461-0.207 0.706-0.197 0.493-0.629 0.662-1.426 0.584-0.751-0.071-1.402-0.175-5.027-0.749l-4.091-0.648c-2.231-0.353-4.067-0.644-5.024-0.915-0.659-0.199-1.152-0.396-1.173-0.875-0.014-0.217-0.015-0.503 0.019-0.713 0.021-0.139-0.041-0.197-0.11-0.207-0.14-0.022-0.205 0.087-0.245 0.342-0.11 0.697-0.272 2.172-0.291 2.289-0.019 0.115-0.32 1.569-0.523 2.848-0.04 0.255 0.012 0.383 0.128 0.401 0.069 0.011 0.146-0.024 0.168-0.165 0.033-0.21 0.161-0.713 0.259-1.031 0.204-0.683 0.737-0.742 1.423-0.704 0.994 0.038 2.83 0.328 5.062 0.682l4.091 0.648c3.626 0.575 4.276 0.677 5.013 0.842 0.806 0.175 1.171 0.424 1.188 1.069 0.002 0.287 0.003 0.43-0.022 0.593-0.016 0.093 0.017 0.193 0.109 0.207 0.14 0.023 0.204-0.086 0.245-0.342 0.11-0.697 0.272-2.173 0.291-2.288 0.019-0.116 0.32-1.57 0.442-2.337 0.037-0.256 0.01-0.38-0.13-0.402z"/>
   <path style="" d="m210.55 133.65c-0.09-0.027-0.171-0.004-0.214 0.13-0.043 0.136-0.165 0.516-0.361 0.824-0.475 0.713-0.829 0.971-2.241 1.063l-15.495 1.112c-1.212 0.083-1.563 0.095-1.647 0.363-0.071 0.226 0.259 0.429 1.403 1.486 0.935 0.867 3.034 2.648 5.871 5.059 2.394 2.022 4.727 4.001 5.275 4.448 1.332 1.092 1.606 1.549 1.715 1.905 0.134 0.512-0.024 1.006-0.074 1.162-0.057 0.18-0.042 0.284 0.071 0.32 0.111 0.035 0.2-0.085 0.278-0.331 0.208-0.65 0.447-1.635 0.49-1.769 0.086-0.27 0.482-1.28 0.769-2.176 0.114-0.359 0.111-0.508-0.022-0.551-0.111-0.036-0.17 0.069-0.213 0.203-0.078 0.247-0.187 0.583-0.362 0.824-0.182 0.188-0.429 0.184-0.607 0.127-0.201-0.064-0.487-0.255-0.787-0.473-1.458-1.008-8.324-6.508-10.914-8.767l12.852-0.645c0.981-0.057 1.763-0.104 2.055-0.012 0.156 0.05 0.321 0.152 0.354 0.435 0.026 0.231-0.08 0.642-0.159 0.888-0.05 0.158-0.026 0.239 0.085 0.274 0.111 0.036 0.222-0.151 0.351-0.555 0.271-0.852 0.526-1.882 0.599-2.106 0.085-0.269 0.561-1.525 0.903-2.601 0.111-0.362 0.16-0.593 0.025-0.637z"/>
   <path style="" d="m203.5 153.76c-0.084-0.044-0.168 0.018-0.212 0.102-0.098 0.188-0.303 0.532-0.431 0.679-0.505 0.613-0.926 0.607-1.657 0.282-0.689-0.307-1.275-0.609-4.535-2.299l-3.678-1.906c-2.006-1.038-3.656-1.894-4.48-2.454-0.562-0.398-0.968-0.741-0.835-1.202 0.056-0.21 0.144-0.483 0.241-0.67 0.065-0.126 0.023-0.199-0.039-0.232-0.125-0.064-0.222 0.018-0.341 0.247-0.163 0.315-0.369 0.816-0.586 1.235-0.207 0.449-0.391 0.804-0.413 0.847-0.162 0.313-0.443 0.804-0.907 1.597-0.443 0.804-1.08 1.931-1.893 3.499-0.422 0.814-0.508 0.982-0.041 1.409 0.384 0.332 1.718 1.236 1.885 1.322 0.146 0.077 0.314 0.163 0.379 0.038 0.054-0.104-0.008-0.189-0.216-0.351-0.781-0.592-1.068-1.059-1.018-1.721 0.052-0.663 0.529-1.581 0.812-2.126 1.06-2.047 1.495-2.22 2.969-1.535 0.449 0.206 2.862 1.483 3.572 1.852l1.839 0.953c0.084 0.044 0.125 0.118 0.071 0.223-0.186 0.355-1.298 2.402-1.653 2.934-0.506 0.771-0.959 0.775-1.294 0.707-0.316-0.057-0.525-0.165-0.734-0.273-0.104-0.054-0.209-0.055-0.263 0.049-0.076 0.146 0.154 0.265 0.322 0.353 0.146 0.076 0.897 0.519 1.294 0.776 0.657 0.42 0.958 0.709 1.084 0.774 0.125 0.064 0.188 0.045 0.221-0.018 0.044-0.084-0.018-0.222-0.108-0.455-0.112-0.296-0.003-0.61 0.216-1.133 0.208-0.502 1.54-3.073 1.681-3.345 0.054-0.104 0.128-0.093 0.274-0.017l5.767 2.989c0.146 0.076 0.188 0.149 0.144 0.232-0.119 0.23-1.32 2.497-1.547 2.831-0.711 1.063-1.069 1.143-1.479 1.116-0.305-0.025-0.671-0.189-0.817-0.265-0.166-0.087-0.293-0.101-0.357 0.026-0.044 0.083 0.061 0.19 0.153 0.265 0.23 0.172 1.127 0.69 1.326 0.819 0.552 0.366 0.749 0.6 0.895 0.676 0.105 0.055 0.2 0.077 0.231 0.014 0.054-0.104 0.015-0.23 0.047-0.347 0.045-0.188 0.176-0.544 0.361-0.952 0.229-0.491 2.383-4.649 2.459-4.796l0.485-0.834c0.26-0.449 0.552-1.015 0.801-1.494 0.117-0.23 0.13-0.357 0.005-0.421z"/>
   <path style="" d="m195.88 167.41c-0.128 0.169-0.388 0.474-0.538 0.597-0.601 0.518-1.015 0.442-1.681-0.005-0.628-0.416-1.154-0.813-4.081-3.03l-3.303-2.501c-1.801-1.363-3.283-2.485-4-3.176-0.487-0.487-0.829-0.894-0.62-1.325 0.09-0.198 0.224-0.45 0.352-0.62 0.085-0.112 0.058-0.194 0.001-0.235-0.112-0.085-0.221-0.019-0.378 0.187-0.426 0.563-1.265 1.787-1.279 1.806-0.071 0.093-1.021 1.232-1.803 2.265-0.156 0.207-0.171 0.344-0.077 0.414 0.057 0.044 0.142 0.048 0.227-0.064 0.128-0.168 0.478-0.553 0.715-0.787 0.501-0.506 0.999-0.306 1.585 0.05 0.859 0.503 2.342 1.625 4.144 2.988l0.45 0.341c0.093 0.071 0.122 0.151 0.05 0.245l-1.785 2.279c-0.085 0.113-0.165 0.141-0.297 0.159-0.771 0.006-2.696-0.064-4.325-0.057-2.218 0.004-3.633-0.036-4.676 0.443-0.632 0.29-1.082 0.688-1.878 1.738l-0.298 0.395c-0.058 0.007-0.117 0.018-0.192 0.041-1.022 0.326-1.918 0.956-2.718 1.721-0.92 0.877-1.643 1.96-1.886 3.17-0.377 1.955 0.586 3.509 1.253 4.206 1.302 1.361 2.785 1.961 6.305 1.624l0.835-0.08c2.853-0.286 3.88-0.097 4.806 0.873 1.188 1.241 0.969 2.852-0.205 3.974-1.565 1.495-2.708 1.221-2.988 1.13-0.279-0.089-0.821-0.45-1.034-0.639-0.146-0.119-0.245-0.188-0.348-0.091-0.084 0.08-0.005 0.232 0.255 0.506 1.106 1.156 1.575 1.784 1.656 1.868 0.082 0.085 0.147 0.087 0.284-0.044s0.289-0.243 0.677-0.484c0.522-0.304 1.081-0.707 1.744-1.342 2.161-2.065 2.335-4.607 0.596-6.428-1.106-1.156-2.522-1.822-5.741-1.578l-1.366 0.103c-2.618 0.19-3.762-0.019-4.884-1.191-1.041-1.089-1.363-3.028 0.27-4.588 1.141-1.09 2.718-1.687 4.177-0.672 0.279 0.189 0.507 0.428 0.653 0.581 0.13 0.136 0.196 0.17 0.298 0.073 0.085-0.082 0.038-0.199-0.124-0.402-0.243-0.288-0.826-1.034-1.64-1.885-0.065-0.07-0.112-0.113-0.165-0.166 0.505-0.335 1.274-0.678 2.519-0.814 1.987-0.208 4.623-0.22 7.758-0.266 0.279 2.867 1.227 4.5 2.616 5.552 1.294 0.98 2.839 0.85 3.533 0.638 1.465-0.455 2.529-1.628 3.424-2.809 0.441-0.583 1.464-2.052 1.62-2.258 0.071-0.094 1.023-1.233 1.662-2.077 0.157-0.205 0.189-0.327 0.076-0.414-0.079-0.061-0.173-0.014-0.231 0.061zm-3.662 4.135c-1.521 2.008-3.866 2.182-6.21 0.404-1.427-1.079-2.07-2.335-2.023-3.332 0.026-0.659 0.369-1.228 0.709-1.677 0.626-0.825 1.411-1.589 1.793-1.743 0.128-0.051 0.23-0.031 0.323 0.04l6.136 4.645c0.113 0.085 0.146 0.2 0.112 0.322-0.086 0.229-0.414 0.778-0.84 1.341z"/>
   <path style="" d="m173.52 191.36c-0.132 0.098-0.392 0.261-0.642 0.358-0.486 0.215-0.914 0.032-1.427-0.583-0.486-0.577-0.878-1.105-3.063-4.057l-2.465-3.328c-1.345-1.813-2.451-3.308-2.945-4.173-0.33-0.604-0.543-1.09-0.222-1.446 0.143-0.163 0.341-0.369 0.512-0.495 0.112-0.084 0.108-0.168 0.067-0.226-0.084-0.113-0.206-0.081-0.415 0.072-0.567 0.42-1.716 1.359-1.811 1.429s-1.328 0.896-2.368 1.666c-0.208 0.154-0.261 0.281-0.19 0.376 0.042 0.057 0.121 0.085 0.234 0.001 0.17-0.125 0.614-0.396 0.907-0.554 0.624-0.345 1.045-0.014 1.507 0.493 0.684 0.725 1.791 2.219 3.135 4.033l2.466 3.328c2.185 2.95 2.576 3.479 2.986 4.112 0.453 0.689 0.54 1.124 0.1 1.596-0.2 0.206-0.298 0.31-0.431 0.407-0.076 0.056-0.123 0.149-0.068 0.226 0.085 0.113 0.207 0.081 0.415-0.073 0.566-0.417 1.716-1.355 1.811-1.426s1.328-0.896 1.952-1.357c0.208-0.157 0.274-0.266 0.19-0.379-0.056-0.073-0.16-0.055-0.235 0z"/>
   <path style="" d="m164.92 195.03c-0.067-0.124-0.143-0.164-0.205-0.13-0.082 0.045-0.122 0.119-0.095 0.319 0.016 0.178 0.032 0.356-0.006 0.832-0.063 0.676-0.481 1.088-1.754 1.802l-3.043 1.696-4.728-8.759c-1.073-1.986-1.956-3.623-2.322-4.548-0.241-0.646-0.383-1.156-0.015-1.464 0.165-0.142 0.39-0.317 0.576-0.418 0.125-0.067 0.133-0.15 0.1-0.214-0.067-0.123-0.192-0.108-0.421 0.015-0.621 0.335-1.892 1.101-1.995 1.157-0.104 0.056-1.442 0.697-2.581 1.313-0.228 0.123-0.297 0.241-0.241 0.345 0.033 0.062 0.108 0.102 0.232 0.034 0.187-0.1 0.664-0.305 0.977-0.42 0.665-0.252 1.036 0.137 1.422 0.704 0.573 0.813 1.456 2.448 2.529 4.437l4.728 8.758-2.631 1.366c-2.01 1.031-2.765 0.823-3.162 0.236l-0.143-0.217c-0.177-0.279-0.253-0.318-0.356-0.262-0.081 0.044-0.1 0.161 0.002 0.347 0.122 0.228 0.832 1.69 1.166 2.312 0.067 0.124 0.136 0.249 0.238 0.193 0.082-0.046 0.235-0.208 0.523-0.417 0.298-0.24 0.752-0.539 1.415-0.897l7.765-4.191c0.248-0.134 1.058-0.517 1.691-0.779 0.581-0.261 0.9-0.165 1.045-0.244 0.083-0.044 0.021-0.357-0.006-0.505-0.046-0.189-0.593-2.193-0.705-2.401z"/>
   <path style="" d="m152.13 204.49c-0.199 0.068-0.668 0.081-1.079-0.026-0.493-0.129-1.241-0.494-2.081-1.126-1.177-0.888-5.845-4.758-6.124-5.059-0.511-0.546-0.903-0.96-1.315-2.161l-0.66-1.914c-0.123-0.355-0.444-1.292-0.699-2.249-0.178-0.66-0.146-1.219 0.268-1.462 0.186-0.112 0.437-0.25 0.637-0.318 0.134-0.046 0.155-0.128 0.132-0.195-0.046-0.134-0.172-0.14-0.417-0.055-0.667 0.229-2.047 0.78-2.159 0.817-0.111 0.038-1.536 0.454-2.76 0.875-0.245 0.084-0.333 0.19-0.293 0.301 0.022 0.067 0.09 0.118 0.224 0.072 0.199-0.069 0.704-0.193 1.031-0.256 0.698-0.141 1.066 0.279 1.333 0.909 0.389 0.912 0.71 1.847 0.833 2.202l0.658 1.915c0.254 0.733 0.491 1.425 0.433 2.34-0.07 1.095-1.385 7.398-1.813 8.54-0.283 0.77-0.435 1.121-0.788 1.542-0.279 0.345-0.672 0.58-0.917 0.664-0.178 0.063-0.267 0.168-0.228 0.279 0.03 0.089 0.179 0.087 0.334 0.035 0.422-0.146 2.002-0.765 2.135-0.812 0.178-0.062 0.913-0.239 1.492-0.439 0.223-0.078 0.34-0.169 0.311-0.258-0.039-0.111-0.188-0.11-0.411-0.107-0.291 0.024-0.464-0.189-0.57-0.501-0.101-0.29-0.142-0.698-0.013-1.266 0.192-0.888 1.339-6.734 1.44-7.815 0.623 0.508 5.938 5.101 6.516 5.623 0.293 0.274 0.497 0.503 0.588 0.771 0.062 0.178-0.003 0.35-0.15 0.5-0.17 0.156-0.296 0.225-0.266 0.313 0.032 0.089 0.099 0.14 0.344 0.056 0.868-0.297 1.69-0.655 1.846-0.708 0.111-0.039 1.804-0.547 2.227-0.692 0.199-0.071 0.265-0.169 0.234-0.257-0.035-0.11-0.161-0.116-0.273-0.078z"/>
   <path style="" d="m191.95 112c0-44.271-36.016-80.288-80.286-80.288s-80.287 36.017-80.287 80.288 36.017 80.286 80.287 80.286c44.271 0 80.286-36.015 80.286-80.286zm-80.286 79.551c-43.865 0-79.552-35.686-79.552-79.551 0-43.866 35.687-79.552 79.552-79.552s79.551 35.687 79.551 79.552-35.686 79.551-79.551 79.551z"/>
   <path style="" d="m111.66 34.282c-42.852 0-77.714 34.862-77.714 77.714s34.862 77.713 77.714 77.713 77.713-34.861 77.713-77.713-34.861-77.714-77.713-77.714zm-39.776 120.34c-0.305 0-0.552 0.247-0.552 0.552 0 0.16-0.044 1.563-1.563 1.563-1.329 0-1.992-2.643-2.12-3.568-0.026-0.193-0.153-0.356-0.332-0.434-0.18-0.076-0.385-0.051-0.542 0.063-0.17 0.125-4.19 3.079-5.901 4.789-0.252 0.252-0.475 0.516-0.668 0.79-0.621-0.085-3.347-0.589-5.831-3.073-1.116-1.116-1.631-2.124-1.573-3.08 0.112-1.886 2.351-3.78 5.754-6.452 3.957-3.111 4.857-2.723 6.351-2.09 0.358 0.153 0.765 0.326 1.239 0.468 0.782 0.235 1.418 0.268 1.911 0.106 0.04 0.085 0.081 0.172 0.121 0.258 0.011 0.022 0.019 0.044 0.03 0.066l0.096 0.204 0.35 0.742 0.011-0.01c0.073 0.146 0.141 0.291 0.215 0.438-1.063 0.623-2.765 0.45-3.679 0.251-0.013-0.555 0.359-0.936 0.382-0.958 0.219-0.209 0.229-0.555 0.022-0.776-0.209-0.223-0.558-0.233-0.78-0.025-0.035 0.032-0.841 0.802-0.72 1.967 0.107 1.023 0.874 1.974 2.282 2.828 0.645 0.393 1.299 0.764 1.938 1.128 2.692 1.532 5.016 2.856 5.312 4.796 0.259 1.7 0.016 1.944-2.318 4.286-0.356 0.357-0.758 0.761-1.208 1.221l-0.299 0.305c-2.427 2.479-4.343 4.438-5.934 4.445-0.004 0.002-0.007 0.002-0.01 0.002-0.608 0-1.196-0.293-1.798-0.896-1.116-1.116-1.677-2.267-1.666-3.42 0.012-1.242 0.688-2.176 1.251-2.741 1.235-1.235 3.832-3.226 5.078-4.16 0.324 1.318 1.161 3.632 3.036 3.632 2.109 0 2.666-1.743 2.666-2.665 0.001-0.305-0.246-0.552-0.551-0.552zm-13.984-83.251c-0.233-0.195-0.583-0.163-0.776 0.071-0.195 0.233-0.163 0.582 0.07 0.776 0.006 0.004 0.565 0.496 0.548 1.409-0.008 0.395-0.126 0.909-0.485 1.534-0.523-0.314-2.615-1.68-3.813-4.101-1.739-3.513 5.238-9.861 10.353-13.27 1.032-0.688 2.054-0.912 3.035-0.659 2.125 0.544 3.479 3.095 3.493 3.121 0.072 0.138 0.199 0.24 0.351 0.279 0.026 0.006 2.304 0.558 3.882-1.762 1.644 4.174 3.759 7.694 8.913 7.694 0.383 0 0.545 0.085 0.562 0.095 0 0.004 0.008 0.25-0.502 0.805-1.129 0.237-2.185 0.387-3.124 0.387-1.667 0-3.375-0.08-5.016-0.203-1.596-1.138-3.261-2.602-4.706-4.048-2.729-2.73-2.281-4.325-2.264-4.381 0.104-0.28-0.034-0.594-0.313-0.705-0.281-0.112-0.604 0.025-0.717 0.308-0.089 0.223-0.774 2.271 2.513 5.559 0.821 0.821 2.041 1.98 3.417 3.089-4.396-0.429-7.866-1.067-7.917-1.077l-0.87-0.162v9.123c-0.946-1.067-1.955-2.147-3.012-3.204-3.186-3.187-5.856-1.907-5.969-1.851-0.271 0.135-0.379 0.462-0.247 0.734 0.133 0.272 0.462 0.385 0.735 0.256 0.086-0.041 2.104-0.955 4.701 1.641 1.342 1.343 2.631 2.745 3.791 4.106v5.155 5.908c-0.925 0.452-1.5 0.453-1.756 0.198-0.046-0.046-0.093-0.113-0.092-0.254 0.008-0.668 0.957-1.82 1.553-2.388 0.113-0.108 0.175-0.259 0.17-0.416-0.005-0.156-0.076-0.304-0.196-0.404-1.96-1.656-5.415-4.455-8.458-6.308 2.013-1.66 3.061-3.267 3.087-4.779 0.031-1.451-0.901-2.244-0.941-2.276zm94.627-10.84c0.15-0.039 0.278-0.141 0.352-0.279 0.014-0.026 1.366-2.577 3.492-3.121 0.981-0.254 2.002-0.03 3.036 0.659 5.113 3.409 12.091 9.756 10.353 13.27-1.198 2.421-3.291 3.787-3.813 4.101-0.352-0.614-0.473-1.119-0.484-1.509-0.025-0.916 0.521-1.411 0.552-1.438 0.23-0.195 0.261-0.541 0.067-0.773-0.196-0.235-0.544-0.265-0.777-0.071-0.04 0.033-0.971 0.826-0.944 2.276 0.027 1.512 1.072 3.118 3.085 4.778-3.017 1.838-6.438 4.606-8.406 6.268v-2.602-5.583c1.062-1.226 2.221-2.476 3.424-3.679 2.597-2.596 4.615-1.681 4.695-1.643 0.272 0.136 0.604 0.026 0.739-0.247 0.137-0.273 0.026-0.604-0.247-0.74-0.11-0.056-2.78-1.336-5.968 1.851-0.918 0.919-1.806 1.855-2.644 2.786v-8.706l-0.87 0.162c-0.054 0.01-3.746 0.689-8.34 1.117 1.396-1.122 2.639-2.298 3.471-3.129 3.287-3.288 2.602-5.336 2.512-5.559-0.109-0.277-0.419-0.409-0.698-0.306-0.281 0.103-0.426 0.417-0.33 0.701 0.006 0.016 0.503 1.617-2.264 4.383-1.458 1.458-3.139 2.936-4.747 4.078-1.515 0.106-3.079 0.173-4.607 0.173-1.064 0-2.276-0.186-3.581-0.484-0.416-0.475-0.417-0.688-0.421-0.688 0.026-0.03 0.188-0.115 0.571-0.115 5.154 0 7.268-3.52 8.912-7.693 1.578 2.321 3.854 1.768 3.88 1.762zm0.904 97.31c1.875 0 2.712-2.313 3.036-3.632 1.246 0.935 3.842 2.925 5.077 4.16 0.564 0.565 1.24 1.498 1.252 2.741 0.011 1.153-0.55 2.305-1.666 3.42-0.602 0.602-1.189 0.896-1.798 0.896-0.003 0-0.006 0-0.011-0.002-1.59-0.008-3.507-1.966-5.934-4.445l-0.298-0.305c-0.45-0.46-0.852-0.863-1.209-1.221-2.334-2.342-2.577-2.587-2.318-4.286 0.297-1.942 2.621-3.265 5.312-4.796 0.64-0.364 1.292-0.735 1.938-1.128 1.408-0.854 2.175-1.805 2.282-2.828 0.12-1.165-0.687-1.936-0.721-1.967-0.223-0.209-0.57-0.197-0.779 0.025s-0.197 0.57 0.025 0.779c0.004 0.005 0.391 0.391 0.378 0.955-0.832 0.181-2.318 0.343-3.385-0.097l0.369-0.748c0.03-0.061 0.056-0.121 0.085-0.182 0.138-0.282 0.277-0.564 0.406-0.845 0.438 0.062 0.964 0.002 1.578-0.183 0.475-0.142 0.881-0.315 1.239-0.468 1.493-0.635 2.395-1.017 6.352 2.09 3.402 2.673 5.642 4.566 5.754 6.453 0.057 0.956-0.458 1.965-1.574 3.081-2.484 2.482-5.208 2.987-5.832 3.072-0.192-0.274-0.415-0.538-0.667-0.79-1.71-1.711-5.731-4.664-5.901-4.789-0.156-0.116-0.362-0.139-0.541-0.063s-0.305 0.24-0.331 0.433c-0.126 0.927-0.785 3.569-2.119 3.569-1.47 0-1.561-1.304-1.563-1.563 0-0.305-0.247-0.552-0.552-0.552s-0.552 0.247-0.552 0.552c0.002 0.921 0.559 2.664 2.668 2.664zm-26.158 17.713h-6.662c0-0.851-0.745-1.654-1.532-1.654-0.366 0-0.996-0.462-0.998-0.915 0.056-0.255 0.901-1.115 1.458-1.685 0.773-0.788 1.343-1.385 1.647-1.861 1.159 1.207 3.997 4.031 5.123 4.031 0.233 0 0.444-0.1 0.609-0.286 0.504-0.568 0.554-2.075 0.5-3.291l0.322 0.545c0.058 0.101 0.16 0.166 0.273 0.179 0.015 0.002 0.029 0.003 0.044 0.003 0.099 0 0.195-0.041 0.265-0.113 0.052-0.055 0.673-0.718 1.123-1.814h5.408c-2.344 2.247-4.865 4.533-7.58 6.861zm-15.121-5.131c-0.074-0.605-0.102-1.226-0.105-1.793v-0.001-0.001c-0.008-1.266 0.104-2.273 0.106-2.287 0.016-0.133-0.043-0.262-0.151-0.341-4.809-3.456-6.217-9.904-6.54-11.846 0.588 0.163 1.208 0.256 1.852 0.256 0.032 0 0.063-0.006 0.095-0.006 0.009 0 0.018 0.006 0.028 0.006 0.018 0 0.034-0.009 0.051-0.011 0.949-0.024 1.883-0.245 2.733-0.644l0.606 1.755c0.049 0.143 0.182 0.241 0.333 0.248h0.015c0.146 0 0.278-0.087 0.337-0.22l0.868-1.979c0.187 0.103 0.375 0.201 0.569 0.286 0.083 0.998 0.589 4.926 3.495 7.596 1.365 1.256 3.061 2.03 5.05 2.333-0.013 0.22 0.016 0.498 0.166 0.814 0.097 0.206 0.238 0.399 0.41 0.587-0.637 0.682-2.928 2.595-7.811 1.5-0.2-0.042-0.395 0.08-0.439 0.278s0.08 0.395 0.278 0.439c0.345 0.076 0.672 0.136 0.994 0.187 0.041 0.321 0.122 0.878 0.25 1.483l-0.484 1.341c-0.348 0.212-1.392 0.869-1.981 1.458-0.764 0.763-0.84 1.906-0.842 1.954-0.001 0.03 0.006 0.058 0.012 0.085-0.708 0.238-1.316 0.54-1.652 0.965 0 0-0.001 0-0.001-0.002-0.143-0.143-0.376-0.143-0.52 0-0.087 0.087-0.109 0.096-0.413 0.012-0.192-0.052-0.433-0.118-0.735-0.118-0.216 0-0.416 0.055-0.594 0.137-0.019-0.037-0.045-0.071-0.077-0.101-0.104-0.096-0.252-0.124-0.386-0.07l-0.622 0.248c0.272-0.712 1.101-1.072 2.475-1.072 0.48 0 1.28-0.354 1.878-1.028 0.418-0.477 0.892-1.287 0.752-2.448zm-40.835-23h5.761l-3.585 3.563c-0.789-1.2-1.514-2.386-2.176-3.563zm-6.552-14.209c0.008 0.057 0.019 0.116 0.026 0.173-0.343-0.156-0.728-0.245-1.177-0.245-0.264 0-1.069 0-1.444 0.657-0.21 0.369-0.21 0.81-0.21 1.274v0.146c-0.001-0.139-0.055-0.277-0.161-0.383-0.215-0.215-0.564-0.215-0.78 0-0.383 0.384-0.677 0.335-0.912 0.238-0.427-0.178-0.891-0.657-1.365-1.385 1.105-0.674 4.039-2.26 5.928-1.46 0.019 0.207 0.033 0.413 0.057 0.621l-0.006 0.006 0.044 0.358zm-6.069-42.552c0.949 0.726 2.063 1.093 3.348 1.093 0.771 0 1.602-0.133 2.493-0.393v5.072 6.987 14.581c-0.108 0.064-0.184 0.177-0.184 0.312s0.076 0.247 0.184 0.312v7.042 3.861c0 0.507 0.015 1.016 0.042 1.527-2.323-0.575-5.224 0.967-6.389 1.679-2.064-3.97-4.135-12.392-4.135-21.96 0.001-8.8 2.631-15.94 4.641-20.113zm34.026-24.587c5.792-2.03 12.355-4.33 18.577-4.33h0.979c6.221 0 12.785 2.3 18.577 4.33 2.442 0.856 4.713 1.65 6.795 2.228h-51.724c2.083-0.578 4.354-1.373 6.796-2.228zm-5.613 0.34c0.028-2.45-0.721-4.152-1.174-4.954 8.507-4.988 25.476-4.927 25.673-4.925 0.201-0.001 17.16-0.064 25.665 4.925-0.445 0.79-1.177 2.453-1.172 4.84-1.526-0.482-3.126-1.042-4.761-1.615-5.901-2.068-12.592-4.413-19.063-4.413h-0.98c-6.471 0-13.161 2.345-19.063 4.413-1.766 0.62-3.49 1.222-5.125 1.729zm-6.699 2.807c0.677 0 1.397-0.074 2.142-0.184h58.474c0.744 0.11 1.464 0.184 2.142 0.184 5.821 0 12.136-0.955 14.403-1.333v6.848h-9.367c-0.664-2.803-3.302-4.904-6.452-4.904-1.526 0-2.998 0.502-4.18 1.419-1.023-0.793-2.264-1.275-3.566-1.391h-0.001c-0.203-0.018-0.407-0.029-0.612-0.029-3.151 0-5.789 2.101-6.453 4.904h-37.847c-0.665-2.803-3.304-4.904-6.454-4.904-0.294 0-0.586 0.024-0.874 0.061-0.003 0-0.006-0.001-0.009-0.001-0.013 0-0.024 0.006-0.037 0.007-1.191 0.16-2.317 0.622-3.259 1.353-1.023-0.793-2.264-1.275-3.568-1.391-0.203-0.018-0.408-0.029-0.613-0.029-3.15 0-5.789 2.101-6.453 4.904h-1.82v-6.848c2.268 0.379 8.582 1.334 14.404 1.334zm78.63 16.409c0.598 0.588 1.472 1.671 1.479 2.313 0.002 0.142-0.046 0.208-0.092 0.254-0.22 0.221-0.675 0.252-1.388-0.032v-2.535zm5.475 5.03c2.009 4.168 4.639 11.304 4.639 20.114 0 9.568-2.07 17.99-4.135 21.96-1.102-0.671-3.756-2.083-6.02-1.738 0.025-0.491 0.041-0.981 0.041-1.468v-33.095-4.979c0.752 0.192 1.463 0.3 2.125 0.3 1.285 0 2.4-0.368 3.35-1.094zm-96.11-14.391h3.695c0.04 0.429 0.167 0.83 0.368 1.185l-2.462 2.462c-0.959-0.958-1.56-2.237-1.601-3.647zm71.517 26.783-0.05-0.168c-0.03-0.097-0.099-0.177-0.188-0.223-0.09-0.044-0.196-0.05-0.291-0.015l-0.756 0.276c-0.005-0.016-0.013-0.031-0.021-0.046-0.077-0.143-0.236-0.22-0.399-0.184l-0.337 0.072c0.606-0.252 1.392-0.451 2.004-0.606 1.003-0.255 1.583-0.412 1.856-0.686 0.609-0.608 1.528-1.528 0.873-2.985-0.373-0.827-0.592-2.135-0.688-2.822 0.429 0.044 0.842 0.067 1.228 0.067 1.196 0 2.175-0.194 2.97-0.47 0.268 0.381 0.66 1.038 0.66 1.503-0.027 0.313-1.067 1.373-1.688 2.007-1.185 1.208-1.667 1.743-1.667 2.18 0 0.884 0.967 1.67 1.731 1.67 0.191 0 0.414 0.134 0.573 0.335l-1.04-0.346c-0.106-0.036-0.222-0.031-0.319 0.033-0.094 0.063-0.152 0.155-0.162 0.268-0.013 0.058-0.121 0.079-0.218 0.079-0.536 0-2.776-0.121-2.799-0.122-0.05-0.003-0.09 0.002-0.133 0.017l-0.519 0.167h-0.62zm-1.693-4.64c-0.236-1.954-0.002-4.061 0-4.083 0.016-0.132-0.043-0.262-0.15-0.341-4.81-3.456-6.217-9.904-6.54-11.846 0.587 0.164 1.208 0.255 1.852 0.255 0.031 0 0.063-0.005 0.094-0.006 0.011 0.001 0.018 0.006 0.028 0.006 0.017 0 0.033-0.008 0.05-0.01 0.949-0.024 1.884-0.245 2.733-0.644l0.607 1.755c0.049 0.143 0.181 0.241 0.332 0.247h0.016c0.145 0 0.278-0.086 0.337-0.22l0.868-1.978c0.187 0.103 0.375 0.201 0.57 0.286 0.083 0.999 0.588 4.925 3.495 7.597 1.365 1.255 3.061 2.033 5.05 2.334-0.013 0.22 0.017 0.498 0.166 0.813 0.096 0.206 0.237 0.398 0.41 0.586-0.638 0.68-2.929 2.594-7.811 1.5-0.2-0.045-0.395 0.081-0.44 0.278-0.043 0.198 0.081 0.395 0.28 0.438 0.343 0.077 0.672 0.136 0.994 0.187 0.041 0.321 0.122 0.878 0.25 1.483l-0.484 1.342c-0.348 0.212-1.392 0.87-1.981 1.458-0.763 0.764-0.839 1.906-0.842 1.954-0.002 0.03 0.007 0.058 0.012 0.086-0.707 0.238-1.316 0.54-1.652 0.965 0 0 0-0.001-0.001-0.001-0.143-0.144-0.376-0.144-0.52 0-0.086 0.086-0.108 0.095-0.414 0.011-0.193-0.053-0.433-0.119-0.736-0.119-0.217 0-0.416 0.055-0.594 0.138-0.019-0.038-0.045-0.072-0.076-0.101-0.104-0.096-0.255-0.124-0.385-0.071l-0.623 0.249c0.272-0.711 1.101-1.072 2.475-1.072 0.479 0 1.279-0.353 1.877-1.029 0.421-0.476 0.895-1.288 0.753-2.447zm-10.713-22.143h3.696c0.04 0.429 0.167 0.83 0.368 1.185l-2.462 2.462c-0.961-0.958-1.562-2.237-1.602-3.647zm4.501 1.787c0.313 0.321 0.703 0.555 1.133 0.697 0 0.01-0.006 0.018-0.006 0.028v2.869c-1.315-0.051-2.522-0.506-3.478-1.244l2.351-2.35zm5.425-5.891 1.43 1.745c-0.445 0.448-0.737 1.047-0.82 1.716h-1.266c-0.078-0.625-0.339-1.187-0.738-1.624l1.394-1.837zm3.393 1.652c1.15 0 2.084 0.977 2.084 2.176s-0.935 2.175-2.084 2.175-2.083-0.976-2.083-2.175c-0.001-1.199 0.934-2.176 2.083-2.176zm2.792 2.452h3.999c-0.044 1.477-0.696 2.812-1.736 3.783l-2.619-2.619c0.194-0.349 0.317-0.742 0.356-1.164zm3.86 20.222c-0.091-0.558-0.415-1.133-0.665-1.506 0.972-0.454 1.576-1.003 1.882-1.337 0.65 0.462 1.567 0.857 2.761 1.176-0.239 0.472-0.751 1.273-1.612 1.668-0.685 0.313-1.483 0.304-2.366-0.001zm0.928-4.2c-0.087-0.176-0.108-0.325-0.108-0.441 0.539 0.049 1.092 0.075 1.671 0.056l1.224 2.077c-1.97-0.6-2.593-1.3-2.787-1.692zm1.752 4.866c0.942-0.435 1.525-1.229 1.845-1.799l0.633 1.073c0.176 1.504 0.23 3.771-0.256 4.291-0.551 0-2.359-1.545-4.078-3.278 0.662 0.073 1.284-0.023 1.856-0.287zm2.132-2.76-1.677-2.847c0.168 0.022 0.334 0.046 0.505 0.046 0.412 0 0.828-0.081 1.246-0.231 0.85 0.724 1.629 1.215 2.215 1.26 0.033 0.002 0.065 0.003 0.098 0.003 0.091 0 0.171-0.026 0.253-0.046 0.817 2.397-0.197 4.247-0.753 5.017l-1.887-3.202zm3.218-2.384c0-0.252-0.037-1.005-0.398-2.199h2.451v6.251h-1.83c0.316-1.082 0.407-2.467-0.223-4.052zm2.052-2.935h-2.698c-0.595-1.627-1.737-3.869-3.919-6.619h6.617v6.619zm-2.795 2.8c-0.036 0.009-0.073 0.018-0.132 0.014-1.53-0.116-5.583-4.918-7.932-8.119-0.122-0.164-0.353-0.198-0.514-0.079-0.164 0.12-0.2 0.35-0.079 0.514 0.427 0.582 3.179 4.285 5.616 6.582-3.549 0.739-7.263-5.45-7.301-5.515-0.104-0.176-0.331-0.233-0.503-0.13-0.175 0.104-0.233 0.329-0.13 0.503 0.133 0.226 2.521 4.203 5.497 5.52-0.422-0.007-0.837-0.028-1.235-0.075-0.015-0.002-0.029-0.007-0.045-0.007-1.989-0.241-3.664-0.974-4.992-2.194-2.43-2.229-3.065-5.508-3.225-6.784 0.456 0.135 0.926 0.215 1.404 0.253 0.047 0.022 0.099 0.036 0.154 0.036 0.035 0 0.065-0.011 0.097-0.019 0.099 0.004 0.197 0.019 0.296 0.019 2.342 0 4.398-1.165 5.576-2.911 6.745 6.87 7.39 11.447 7.448 12.392zm-15.06-13.213c0.342 0.152 0.717 0.238 1.112 0.238 0.053 0 0.102-0.013 0.155-0.016v2.724c-0.79-0.098-1.549-0.349-2.237-0.736l0.97-2.21zm3.114-0.626 2.478 2.478c-0.99 0.715-2.224 1.145-3.564 1.145-0.009 0-0.017-0.001-0.025-0.001v-2.879c0-0.013-0.007-0.024-0.007-0.038 0.425-0.147 0.809-0.384 1.118-0.705zm-6.05-1.679h1.266c0.095 0.771 0.479 1.443 1.042 1.904l-1.803 4.106-1.45-4.189c0.51-0.458 0.855-1.096 0.945-1.821zm-1.573 2.251 0.842 2.437c-0.676 0.327-1.417 0.524-2.175 0.585v-2.742c0.042 0.002 0.08 0.013 0.123 0.013 0.435-0.001 0.841-0.111 1.21-0.293zm6.728 20.178c0.415 0.923-0.037 1.479-0.721 2.163-0.143 0.143-0.937 0.345-1.518 0.492-0.274 0.07-0.554 0.142-0.833 0.219 0.049-0.295 0.195-0.886 0.604-1.294 0.632-0.633 1.936-1.407 1.949-1.415 0.073-0.043 0.129-0.111 0.159-0.191l0.168-0.467c0.06 0.174 0.124 0.341 0.192 0.493zm3.217 3.097c-0.366 0-0.996-0.461-0.997-0.915 0.055-0.254 0.901-1.114 1.458-1.685 0.773-0.788 1.343-1.385 1.647-1.861 1.159 1.206 3.997 4.03 5.123 4.03 0.234 0 0.445-0.098 0.609-0.286 0.504-0.568 0.554-2.075 0.5-3.29l0.321 0.545c0.059 0.099 0.16 0.165 0.274 0.179 0.014 0.001 0.028 0.002 0.043 0.002 0.099 0 0.195-0.041 0.264-0.113 0.051-0.052 0.628-0.672 1.072-1.695h2.098v6.251h-10.968c-0.216-0.642-0.812-1.162-1.444-1.162zm12.411-20.163h-7.216c-0.763-0.915-1.638-1.88-2.643-2.896 0.417-0.823 0.659-1.741 0.659-2.713 0-0.217-0.012-0.431-0.035-0.643h9.236v6.252zm-13.95-6.187c-0.006 0-0.01 0.003-0.016 0.003-0.074-0.477-0.258-0.912-0.527-1.282l2.389-2.39c0.008-0.008 0.012-0.019 0.019-0.027 1.157 0.901 1.945 2.212 2.109 3.696h-3.974zm-1.049-1.812c-0.382-0.312-0.839-0.522-1.341-0.598v-2.532c0.171-0.015 0.342-0.022 0.515-0.022 1.148 0 2.217 0.316 3.124 0.855l-2.298 2.297zm-2.077-0.604c-0.375 0.046-0.724 0.167-1.039 0.351l-1.374-1.676c0.711-0.538 1.536-0.909 2.413-1.089v2.414zm-5.013 0.41c-0.333-0.214-0.71-0.353-1.116-0.408v-2.47c0.91 0.146 1.775 0.492 2.524 1.019l-1.408 1.859zm0.6 2.466c0 1.199-0.935 2.175-2.083 2.175s-2.083-0.976-2.083-2.175c0-1.2 0.935-2.176 2.083-2.176s2.083 0.977 2.083 2.176zm-2.451-2.873c-0.508 0.069-0.97 0.276-1.356 0.587l-2.184-2.184c0.94-0.602 2.074-0.954 3.294-0.954 0.081 0 0.163 0.007 0.245 0.011l0.001 2.54zm-4.136-1.154 2.271 2.271c-0.276 0.374-0.465 0.813-0.54 1.296h-3.69c0.157-1.415 0.885-2.671 1.959-3.567zm-2.712 3.858c-0.006 0.026-0.015 0.05-0.015 0.078 0 0.015 0.007 0.029 0.009 0.044-0.002 0.057-0.009 0.112-0.009 0.169 0 1.793 0.8 3.409 2.074 4.555 0.006 0.007 0.009 0.016 0.016 0.023 0.015 0.015 0.033 0.021 0.049 0.032 0.451 0.396 0.961 0.733 1.516 0.998h-39.183c-0.763-0.915-1.638-1.88-2.642-2.896 0.417-0.823 0.658-1.741 0.658-2.713 0-0.217-0.012-0.431-0.035-0.643h37.582c-0.014 0.117-0.014 0.235-0.02 0.353zm-31.708 21.774-0.864-1.467c-0.001-0.001-0.001-0.003-0.002-0.004l-2.695-4.577c0.168 0.022 0.334 0.046 0.504 0.046 0.412 0 0.829-0.081 1.247-0.231 0.85 0.725 1.629 1.216 2.215 1.26 0.032 0.002 0.065 0.003 0.097 0.003 0.091 0 0.171-0.027 0.254-0.046 0.816 2.398-0.199 4.247-0.756 5.016zm-6.697-1.107c-0.091-0.558-0.415-1.133-0.665-1.506 0.972-0.454 1.575-1.003 1.881-1.337 0.65 0.462 1.568 0.857 2.761 1.176-0.24 0.472-0.752 1.273-1.612 1.668-0.684 0.313-1.482 0.304-2.365-0.001zm-2.33 6.132c0.191 0 0.414 0.134 0.574 0.335l-1.041-0.346c-0.108-0.036-0.224-0.03-0.318 0.033s-0.153 0.155-0.162 0.268c-0.013 0.058-0.121 0.079-0.218 0.079-0.535 0-2.776-0.121-2.799-0.122-0.045-0.003-0.09 0.002-0.131 0.017l-0.52 0.167h-0.621l-0.051-0.168c-0.029-0.097-0.098-0.177-0.188-0.223-0.09-0.044-0.195-0.05-0.291-0.015l-0.756 0.276c-0.006-0.016-0.013-0.031-0.021-0.046-0.078-0.144-0.24-0.218-0.4-0.184l-0.337 0.072c0.606-0.252 1.392-0.451 2.004-0.606 1.003-0.255 1.584-0.412 1.858-0.686 0.608-0.608 1.527-1.528 0.872-2.985-0.372-0.827-0.593-2.135-0.689-2.822 0.43 0.044 0.843 0.067 1.228 0.067 1.196 0 2.175-0.194 2.971-0.47 0.268 0.381 0.659 1.038 0.659 1.503-0.027 0.313-1.067 1.373-1.688 2.007-1.185 1.208-1.668 1.743-1.668 2.18 0.002 0.883 0.97 1.669 1.733 1.669zm-20.04-5.823h11.951c0.141 0 0.258-0.081 0.32-0.196 0.004 0.596 0.033 1.25 0.111 1.896 0.107 0.888-0.253 1.507-0.575 1.87-0.49 0.552-1.106 0.782-1.328 0.782-1.864 0-3.019 0.687-3.259 1.9h-7.22v-6.252zm0-6.986h7.722c0.203 0 0.368-0.165 0.368-0.368 0-0.035-0.011-0.067-0.02-0.099 0.995 1.844 2.375 3.688 4.291 5.113-0.03 0.326-0.079 0.995-0.087 1.804-0.061-0.117-0.18-0.199-0.322-0.199h-11.952v-6.251zm12.318-17.64 1.371 1.808c-0.408 0.438-0.675 1.01-0.754 1.644h-1.266c-0.077-0.625-0.339-1.187-0.738-1.624l1.387-1.828zm2.093 2.15c0.019-0.015 0.031-0.034 0.046-0.052 0.351-0.282 0.785-0.456 1.26-0.456 1.149 0 2.084 0.977 2.084 2.176 0 1.2-0.935 2.176-2.084 2.176s-2.083-0.976-2.083-2.176c0-0.669 0.296-1.26 0.753-1.66 0.008-0.004 0.016-0.001 0.024-0.008zm4.099 1.945h3.998c-0.043 1.477-0.696 2.812-1.736 3.783l-2.618-2.619c0.195-0.349 0.317-0.742 0.356-1.164zm-4.874 4.606 0.97-2.209c0.342 0.153 0.717 0.238 1.113 0.238 0.053 0 0.102-0.013 0.154-0.016v2.724c-0.79-0.098-1.549-0.349-2.237-0.737zm2.964-2.131c0.426-0.146 0.811-0.383 1.119-0.704l2.478 2.478c-0.99 0.715-2.224 1.145-3.564 1.145-0.009 0-0.017-0.001-0.025-0.001v-2.879c-0.001-0.015-0.006-0.026-0.008-0.039zm-4.931-2.383h1.265c0.096 0.771 0.48 1.443 1.043 1.905l-1.802 4.106-1.451-4.19c0.51-0.458 0.855-1.096 0.945-1.821zm-1.574 2.251 0.844 2.437c-0.676 0.327-1.417 0.524-2.176 0.585v-2.742c0.042 0.002 0.081 0.013 0.123 0.013 0.435-0.001 0.841-0.111 1.209-0.293zm-1.822 3.786c0.032 0 0.063-0.005 0.094-0.006 0.01 0 0.018 0.006 0.028 0.006 0.018 0 0.033-0.008 0.051-0.011 0.95-0.024 1.884-0.245 2.734-0.643l0.607 1.755c0.049 0.143 0.182 0.241 0.333 0.247h0.015c0.146 0 0.278-0.086 0.337-0.22l0.869-1.979c0.187 0.103 0.375 0.202 0.57 0.286 0.083 0.999 0.587 4.925 3.494 7.597 1.367 1.256 3.057 2.034 5.05 2.334-0.013 0.22 0.017 0.498 0.166 0.813 0.097 0.205 0.238 0.398 0.41 0.585-0.637 0.68-2.926 2.594-7.812 1.501-0.198-0.045-0.395 0.08-0.438 0.278-0.045 0.198 0.08 0.395 0.278 0.438 0.344 0.077 0.673 0.136 0.994 0.187 0.041 0.321 0.123 0.878 0.25 1.483l-0.484 1.341c-0.348 0.212-1.392 0.87-1.98 1.458-0.764 0.764-0.84 1.905-0.843 1.954-0.001 0.03 0.007 0.058 0.013 0.086-0.708 0.239-1.317 0.54-1.653 0.965v-0.001c-0.144-0.143-0.377-0.143-0.52 0-0.087 0.087-0.109 0.095-0.414 0.011-0.192-0.053-0.433-0.118-0.736-0.118-0.216 0-0.416 0.054-0.593 0.137-0.019-0.038-0.046-0.071-0.077-0.101-0.104-0.096-0.253-0.124-0.386-0.071l-0.622 0.249c0.272-0.712 1.101-1.072 2.475-1.072 0.479 0 1.279-0.353 1.877-1.029 0.422-0.476 0.896-1.287 0.755-2.447-0.237-1.954-0.002-4.061 0-4.082 0.016-0.132-0.042-0.263-0.151-0.341-4.809-3.457-6.217-9.904-6.541-11.846 0.587 0.164 1.207 0.256 1.85 0.256zm15.025 9.893c-0.088-0.176-0.109-0.325-0.109-0.442 0.538 0.048 1.091 0.074 1.671 0.056l1.224 2.077c-1.968-0.599-2.591-1.299-2.786-1.691zm-6.473 6.499c0.416 0.923-0.037 1.479-0.721 2.163-0.144 0.143-0.938 0.345-1.518 0.492-0.275 0.07-0.555 0.142-0.833 0.219 0.05-0.295 0.195-0.886 0.603-1.294 0.632-0.633 1.936-1.407 1.95-1.415 0.073-0.043 0.129-0.111 0.159-0.191l0.168-0.467c0.059 0.174 0.122 0.34 0.192 0.493zm8.224-1.633c0.942-0.435 1.526-1.228 1.846-1.798l0.633 1.073c0.175 1.504 0.229 3.771-0.255 4.291-0.551 0-2.36-1.545-4.079-3.278 0.664 0.072 1.284-0.024 1.855-0.288zm4.609-5.279c-0.036 0.008-0.072 0.018-0.131 0.015-1.53-0.116-5.582-4.918-7.933-8.119-0.12-0.164-0.352-0.199-0.514-0.079-0.164 0.12-0.199 0.35-0.079 0.514 0.427 0.582 3.179 4.285 5.616 6.583-3.554 0.743-7.263-5.451-7.301-5.516-0.104-0.175-0.33-0.234-0.504-0.13-0.175 0.104-0.233 0.329-0.13 0.503 0.133 0.226 2.521 4.204 5.499 5.52-0.421-0.006-0.835-0.027-1.231-0.073-0.018-0.003-0.036-0.007-0.053-0.007-1.99-0.241-3.661-0.975-4.988-2.194-2.43-2.229-3.065-5.508-3.225-6.785 0.456 0.135 0.926 0.215 1.404 0.253 0.047 0.022 0.099 0.036 0.154 0.036 0.034 0 0.065-0.011 0.097-0.019 0.1 0.004 0.197 0.019 0.296 0.019 2.342 0 4.399-1.165 5.576-2.911 6.743 6.867 7.388 11.444 7.447 12.39zm-11.15-16.345c-0.005 0-0.01 0.003-0.015 0.003-0.074-0.477-0.258-0.912-0.528-1.282l2.39-2.39c0.008-0.008 0.011-0.019 0.019-0.027 1.158 0.901 1.945 2.212 2.11 3.696h-3.976zm-1.049-1.812c-0.382-0.312-0.838-0.522-1.342-0.598v-2.532c0.171-0.015 0.342-0.022 0.515-0.022 1.148 0 2.217 0.316 3.124 0.855l-2.297 2.297zm-2.077-0.604c-0.408 0.051-0.789 0.186-1.124 0.398l-1.301-1.715c0.714-0.542 1.542-0.916 2.425-1.098v2.415zm-5.013 0.41c-0.333-0.214-0.71-0.353-1.115-0.408v-2.47c0.911 0.146 1.776 0.492 2.524 1.019l-1.409 1.859zm0.601 2.466c0 1.199-0.935 2.175-2.083 2.175s-2.083-0.976-2.083-2.175c0-1.2 0.935-2.176 2.083-2.176s2.083 0.977 2.083 2.176zm-2.452-2.873c-0.508 0.069-0.971 0.276-1.356 0.587l-2.185-2.184c0.94-0.602 2.075-0.954 3.295-0.954 0.083 0 0.164 0.007 0.245 0.011v2.54zm-4.136-1.154 2.27 2.271c-0.276 0.373-0.465 0.813-0.541 1.296h-3.689c0.158-1.415 0.886-2.671 1.96-3.567zm2.518 6.09c0.313 0.321 0.703 0.554 1.133 0.697 0 0.01-0.006 0.018-0.006 0.028v2.869c-1.315-0.051-2.522-0.506-3.477-1.244l2.35-2.35zm-1.175 4.403c0.223 1.308 0.82 4.003 2.259 6.73-0.066-0.068-0.159-0.111-0.262-0.111h-7.722v-6.619h5.725zm-5.725 36.221h12.918l-6.631 6.619h-6.287v-6.619zm0-0.736v-6.251h19.918l-6.263 6.251h-13.655zm0-6.986v-7.17h7.278c0.019 0.02 0.031 0.044 0.054 0.06 0.101 0.068 0.229 0.082 0.342 0.037l0.242-0.096h0.245c-0.027 0.159 0.048 0.321 0.198 0.393 0.051 0.024 0.105 0.036 0.158 0.036 0.119 0 0.234-0.058 0.306-0.162 0.043-0.063 0.133-0.165 0.242-0.267h3.169c0.009 0.025 0.004 0.052 0.019 0.076 0.093 0.146 0.275 0.207 0.437 0.147l0.608-0.223h0.962l0.004 0.015c0.028 0.094 0.094 0.173 0.181 0.219 0.053 0.028 0.112 0.042 0.171 0.042 0.037 0 0.076-0.006 0.111-0.017l0.812-0.26h5.236l0.312 0.104c0.111 0.037 0.235 0.018 0.332-0.05 0.02-0.015 0.03-0.037 0.046-0.054h6.374l-7.184 7.171-20.655-0.001zm21.483-7.906c-0.214-0.645-0.811-1.165-1.443-1.165-0.366 0-0.996-0.461-0.997-0.915 0.057-0.254 0.9-1.114 1.459-1.685 0.772-0.788 1.343-1.385 1.647-1.861 1.159 1.206 3.996 4.03 5.123 4.03 0.233 0 0.444-0.098 0.61-0.286 0.503-0.568 0.553-2.075 0.499-3.29l0.321 0.545c0.058 0.099 0.16 0.165 0.273 0.179 0.015 0.001 0.029 0.002 0.043 0.002 0.099 0 0.195-0.041 0.265-0.113 0.051-0.053 0.641-0.685 1.086-1.729 0.046 0.021 0.096 0.034 0.151 0.034h4.318l-6.263 6.251h-7.093v0.003zm9.138-6.987c0.317-1.082 0.408-2.467-0.222-4.052 0-0.252-0.037-1.005-0.398-2.199h11.838l-6.263 6.251h-4.955zm-0.836-6.978c-0.01 0-0.018 0.005-0.028 0.006-0.595-1.627-1.737-3.871-3.922-6.625h39c0.22 1.291 0.805 3.93 2.202 6.619h-19.199l-2.637-2.621-2.625 2.621h-12.791zm37.655 0.736c0.97 1.686 2.276 3.342 4.03 4.646-0.029 0.3-0.074 0.889-0.088 1.615-0.015-0.002-0.028-0.01-0.045-0.01h-16.468l-6.292-6.251h18.863zm3.898 6.986c0.016 0 0.03-0.007 0.046-0.01 0.01 0.545 0.039 1.129 0.108 1.709 0.107 0.888-0.253 1.507-0.575 1.87-0.488 0.552-1.106 0.782-1.327 0.782-1.864 0-3.018 0.687-3.259 1.9h-4.428l-6.292-6.251h15.727zm-4.95 6.987c0.019 0.02 0.032 0.044 0.054 0.06 0.102 0.068 0.23 0.082 0.343 0.037l0.243-0.096h0.244c-0.027 0.159 0.049 0.321 0.199 0.393 0.051 0.024 0.104 0.036 0.159 0.036 0.118 0 0.234-0.058 0.305-0.162 0.042-0.063 0.133-0.165 0.241-0.267h3.169c0.01 0.025 0.004 0.052 0.02 0.076 0.093 0.146 0.276 0.208 0.436 0.147l0.608-0.223h0.962l0.006 0.015c0.028 0.094 0.093 0.173 0.181 0.219 0.053 0.028 0.111 0.042 0.17 0.042 0.037 0 0.075-0.006 0.111-0.017l0.812-0.26h5.237l0.312 0.104c0.112 0.038 0.236 0.018 0.331-0.05 0.02-0.015 0.029-0.037 0.047-0.054h10.986v7.171h-21.702l-7.217-7.171h3.743zm25.174 7.906v6.251h-14.668l-6.293-6.251h20.961zm0 6.987v6.619h-7.267l-6.662-6.619h13.929zm0 7.354v3.494c0 0.548-0.019 1.1-0.052 1.655h-1.292l-5.183-5.148h6.527zm-0.113 5.884c-0.014 0.15-0.022 0.299-0.039 0.449l-0.451-0.449h0.49zm1.457 0.202c1.898-0.472 4.52 0.942 5.552 1.571-0.475 0.728-0.937 1.208-1.363 1.384-0.236 0.097-0.529 0.145-0.912-0.238-0.216-0.215-0.564-0.215-0.781 0-0.106 0.107-0.159 0.246-0.161 0.386v-0.148c0-0.465 0-0.905-0.211-1.274-0.375-0.657-1.18-0.657-1.444-0.657-0.291 0-0.554 0.039-0.799 0.107 0.047-0.379 0.086-0.755 0.119-1.131zm-92.906-56.648h1.689c-0.013 0.116-0.013 0.234-0.019 0.352-0.005 0.026-0.015 0.05-0.015 0.078 0 0.015 0.007 0.029 0.009 0.044-0.002 0.057-0.009 0.112-0.009 0.169 0 1.793 0.8 3.409 2.074 4.555 0.006 0.007 0.008 0.016 0.015 0.023 0.015 0.015 0.033 0.021 0.05 0.032 0.451 0.396 0.96 0.732 1.515 0.998h-5.308v-6.251zm0.052 55.711c-0.033-0.555-0.052-1.106-0.052-1.655v-3.494h5.55l-5.158 5.148h-0.34zm45.151-42.65 45.968 45.67c-0.51 3.083-1.54 6.299-3.067 9.579l-42.902-42.892-42.1 42.11c-1.458-3.291-2.411-6.517-2.835-9.613l44.937-44.85zm38.212 63.428-4.509-4.537h7.345c-0.841 1.491-1.793 3.005-2.836 4.537zm3.233-5.272h-8.472l-6.456-6.497h10.711l5.002 5.001c-0.25 0.496-0.511 0.994-0.785 1.496zm-69.652-15.506 5.147-5.148h10.457l-5.181 5.148h-10.423zm9.683 0.735-7.587 7.538h-10.367l7.537-7.538h10.417zm-3.8-6.619 6.617-6.619h10.506l-6.662 6.619h-10.461zm7.352-7.355 6.25-6.251h17.445l6.253 6.251h-10.568l-4.407-4.434-4.462 4.434h-10.511zm15.787-14.157 7.173 7.17h-15.975l7.168-7.17h1.634zm-0.897-0.735 0.081-0.081 0.081 0.081h-0.162zm15.793 15.628 6.621 6.619h-10.616l-6.577-6.619h10.572zm7.356 7.354 5.149 5.148h-10.653l-5.115-5.148h10.619zm5.886 5.884 7.54 7.538h-10.707l-7.492-7.538h10.659zm-66.166 8.273h10.362l-6.539 6.497h-6.9c-0.413-0.757-0.802-1.51-1.162-2.258l4.239-4.239zm37.209-24.601 37.339 37.575c-1.587 2.227-3.409 4.525-5.422 6.847l-31.918-31.604-31 31.315c-2.201-2.556-4.163-5.079-5.846-7.52l36.847-36.613zm10.21 52.95c-0.091-0.557-0.416-1.132-0.665-1.507 0.971-0.453 1.575-1.001 1.881-1.336 0.65 0.462 1.567 0.855 2.761 1.176-0.239 0.473-0.75 1.273-1.611 1.669-0.687 0.313-1.484 0.303-2.366-0.002zm-2.33 6.133c0.191 0 0.413 0.135 0.574 0.334l-1.04-0.346c-0.107-0.037-0.224-0.031-0.319 0.033-0.095 0.063-0.154 0.155-0.162 0.267-0.015 0.058-0.122 0.078-0.218 0.078-0.536 0-2.777-0.12-2.8-0.121-0.05-0.005-0.089 0.003-0.132 0.016l-1.085 0.348-0.106-0.349c-0.03-0.098-0.099-0.178-0.188-0.223-0.09-0.046-0.197-0.051-0.291-0.016l-0.756 0.277c-0.005-0.017-0.014-0.031-0.021-0.047-0.077-0.142-0.236-0.215-0.399-0.184l-0.339 0.072c0.606-0.252 1.393-0.451 2.006-0.606 1.003-0.256 1.583-0.412 1.856-0.686 0.608-0.608 1.528-1.528 0.873-2.985-0.373-0.828-0.592-2.135-0.688-2.821 0.429 0.043 0.842 0.067 1.228 0.067 1.196 0 2.175-0.195 2.97-0.471 0.268 0.382 0.66 1.036 0.66 1.503-0.027 0.314-1.067 1.374-1.688 2.007-1.185 1.209-1.667 1.744-1.667 2.181 0 0.886 0.968 1.672 1.732 1.672zm-3.577-3.859 0.169-0.467c0.059 0.172 0.122 0.339 0.191 0.492 0.415 0.923-0.037 1.479-0.72 2.162-0.144 0.144-0.938 0.346-1.518 0.493-0.274 0.069-0.555 0.142-0.833 0.22 0.049-0.296 0.195-0.887 0.603-1.295 0.633-0.633 1.936-1.406 1.95-1.415 0.072-0.042 0.13-0.11 0.158-0.19zm1.443-9.872c-2.43-2.229-3.065-5.508-3.225-6.785 0.455 0.135 0.926 0.216 1.404 0.254 0.047 0.021 0.099 0.036 0.154 0.036 0.035 0 0.065-0.011 0.097-0.02 0.099 0.004 0.197 0.02 0.296 0.02 2.342 0 4.398-1.164 5.576-2.911 6.75 6.873 7.391 11.451 7.448 12.394-0.035 0.009-0.074 0.018-0.131 0.012-1.53-0.116-5.582-4.919-7.933-8.117-0.121-0.166-0.352-0.198-0.514-0.079-0.165 0.12-0.199 0.351-0.078 0.514 0.426 0.582 3.177 4.284 5.615 6.582-3.549 0.736-7.261-5.45-7.3-5.516-0.105-0.176-0.332-0.231-0.504-0.13-0.175 0.104-0.232 0.329-0.13 0.504 0.133 0.227 2.521 4.203 5.499 5.52-0.422-0.007-0.837-0.027-1.234-0.073-0.016-0.003-0.031-0.008-0.046-0.008-1.991-0.243-3.667-0.977-4.994-2.197zm-4.272-8.017 0.97-2.21c0.342 0.152 0.718 0.239 1.113 0.239 0.053 0 0.102-0.014 0.154-0.016v2.724c-0.503-0.062-0.993-0.191-1.462-0.373-0.014-0.007-0.028-0.012-0.044-0.017-0.251-0.098-0.495-0.214-0.731-0.347zm-0.017-20.97 7.614 7.538h-17.938l7.463-7.538h2.861zm-2.134-0.735 0.688-0.695 0.703 0.695h-1.391zm10.49 9.008 6.562 6.497h-5.466c-0.688-2.772-3.31-4.843-6.437-4.843-0.262 0-0.522 0.02-0.78 0.049-0.034-0.011-0.067-0.021-0.104-0.021-0.068 0-0.128 0.023-0.184 0.056-1.136 0.178-2.209 0.633-3.113 1.334-1.023-0.793-2.263-1.274-3.567-1.391-0.203-0.017-0.408-0.029-0.613-0.029-3.127 0-5.748 2.071-6.437 4.843h-5.702l6.432-6.497 19.409 0.002zm0.62 10.65c0.417-0.823 0.659-1.741 0.659-2.713 0-0.239-0.017-0.473-0.045-0.704h6.072l6.437 6.374h-10.428c-0.776-0.933-1.668-1.92-2.695-2.957zm-8.96-2.835c0-0.669 0.296-1.261 0.752-1.661 0.007-0.004 0.016-0.003 0.023-0.009 0.02-0.014 0.031-0.034 0.047-0.052 0.351-0.281 0.784-0.455 1.261-0.455 1.149 0 2.084 0.976 2.084 2.176 0 1.199-0.935 2.175-2.084 2.175-1.149 0.001-2.083-0.975-2.083-2.174zm-4.748 2.175c-1.15 0-2.084-0.976-2.084-2.175 0-1.2 0.935-2.176 2.084-2.176s2.084 0.976 2.084 2.176c0 1.199-0.934 2.175-2.084 2.175zm-4.885 1.749c-0.96-0.959-1.562-2.238-1.603-3.648h3.695c0.04 0.431 0.167 0.831 0.369 1.185l-2.461 2.463zm4.517-6.798c-0.508 0.069-0.97 0.275-1.356 0.586l-2.184-2.184c0.94-0.601 2.075-0.954 3.295-0.954 0.082 0 0.163 0.007 0.245 0.011v2.541zm-4.136-1.154 2.27 2.271c-0.276 0.374-0.466 0.813-0.541 1.297h-3.688c0.157-1.416 0.886-2.671 1.959-3.568zm18.101 3.568h-3.975c-0.006 0-0.011 0.003-0.015 0.003-0.075-0.477-0.258-0.911-0.527-1.282l2.389-2.39c0.008-0.008 0.011-0.019 0.019-0.027 1.157 0.902 1.945 2.212 2.109 3.696zm-5.023-1.813c-0.381-0.313-0.838-0.523-1.342-0.598v-2.532c0.17-0.015 0.343-0.022 0.515-0.022 1.148 0 2.217 0.317 3.124 0.854l-2.297 2.298zm-2.078-0.604c-0.409 0.051-0.789 0.186-1.124 0.398l-1.301-1.715c0.715-0.542 1.542-0.916 2.425-1.098v2.415zm-5.013 0.411c-0.333-0.214-0.71-0.352-1.115-0.408v-2.469c0.911 0.146 1.776 0.493 2.524 1.019l-1.409 1.858zm0.563 0.474 1.386-1.828 1.371 1.807c-0.408 0.439-0.675 1.011-0.754 1.645h-1.265c-0.077-0.625-0.339-1.187-0.738-1.624zm5.668 4.743c0.425-0.146 0.811-0.383 1.119-0.704l2.478 2.478c-0.99 0.715-2.224 1.145-3.564 1.145-0.009 0-0.017-0.002-0.025-0.002v-2.879c-0.001-0.014-0.007-0.025-0.008-0.038zm4.172 1.309-2.619-2.619c0.195-0.351 0.319-0.743 0.357-1.165h3.998c-0.044 1.476-0.696 2.811-1.736 3.784zm-19.073-4.642c-0.016 0.137-0.022 0.274-0.029 0.414-0.005 0.024-0.016 0.049-0.016 0.076 0 0.016 0.007 0.03 0.009 0.045-0.002 0.057-0.009 0.112-0.009 0.169 0 1.792 0.8 3.409 2.074 4.555 0.006 0.007 0.008 0.016 0.016 0.023 0.015 0.014 0.033 0.021 0.049 0.032 0.489 0.427 1.043 0.785 1.649 1.059h-16.346l6.31-6.374 6.293 0.001zm2.852 4.994 2.35-2.348c0.313 0.321 0.704 0.554 1.134 0.696 0 0.011-0.006 0.019-0.006 0.028v2.868c-1.316-0.051-2.523-0.506-3.478-1.244zm4.213-1.515c0.042 0.003 0.08 0.014 0.123 0.014 0.434 0 0.841-0.11 1.209-0.293l0.843 2.438c-0.676 0.326-1.417 0.523-2.175 0.584v-2.743zm1.961-0.708c0.51-0.457 0.854-1.095 0.945-1.821h1.265c0.096 0.771 0.48 1.443 1.043 1.905l-1.803 4.105-1.45-4.189zm12.572 14.109c-0.087-0.178-0.108-0.327-0.108-0.444 0.54 0.048 1.093 0.075 1.671 0.058l1.224 2.077c-1.969-0.598-2.591-1.301-2.787-1.691zm1.751 4.866c0.943-0.436 1.526-1.229 1.846-1.799l0.633 1.073c0.175 1.503 0.23 3.771-0.256 4.291-0.551 0-2.36-1.546-4.079-3.278 0.663 0.07 1.286-0.023 1.856-0.287zm2.134-2.761v-0.002l-1.676-2.845c0.167 0.022 0.334 0.046 0.504 0.046 0.412 0 0.829-0.081 1.245-0.23 0.851 0.725 1.63 1.216 2.215 1.26 0.034 0.003 0.067 0.005 0.099 0.005 0.091 0 0.17-0.027 0.254-0.046 0.483 1.416 0.327 2.642 0.001 3.565-0.011 0.023-0.018 0.048-0.025 0.075-0.222 0.604-0.511 1.072-0.729 1.375l-1.888-3.203zm-1.297-11.876h10.573l6.314 6.252h-13.133c-0.617-1.586-1.738-3.698-3.754-6.252zm-37.516 0h17.367c0.219 1.262 0.772 3.712 2.036 6.252h-25.592l6.189-6.252zm21.314 20.961c0.153 0 0.286 0.028 0.414 0.061h-0.671c0.084-0.035 0.169-0.061 0.257-0.061zm4.481-0.012 0.022 0.073h-0.22l0.198-0.073zm5.482-0.059 0.396 0.132h-0.54c0.055-0.042 0.104-0.085 0.144-0.132zm16.934-7.465h-5.927c0.291-1.064 0.353-2.405-0.255-3.933 0-0.273-0.044-1.134-0.495-2.505h12.895c-1.897 2.11-3.97 4.254-6.218 6.438zm18.471-20.867c0.686 0.307 1.461 0.41 2.18 0.41 0.396 0 0.771-0.032 1.103-0.073-0.285 0.293-0.66 0.586-1.133 0.874-0.636 0.386-1.28 0.752-1.909 1.111-0.854 0.485-1.691 0.965-2.457 1.461 0.807-1.274 1.547-2.535 2.216-3.783zm13.174-0.63c-0.598-0.494-1.245-1.01-1.94-1.555-4.263-3.351-5.553-3.05-7.463-2.237-0.349 0.148-0.708 0.302-1.124 0.426-0.3 0.09-0.555 0.134-0.777 0.149 0.098-0.226 0.196-0.451 0.289-0.675 0.114-0.277 0.22-0.553 0.327-0.83 0.123-0.319 0.247-0.637 0.362-0.954 0.153-0.422 0.3-0.845 0.437-1.266 0.059-0.181 0.11-0.36 0.166-0.539 0.109-0.356 0.216-0.71 0.313-1.063 0.048-0.174 0.092-0.348 0.138-0.521 0.096-0.368 0.185-0.734 0.268-1.099 0.034-0.153 0.068-0.306 0.101-0.458 0.083-0.396 0.158-0.79 0.226-1.182 0.006-0.032 0.013-0.063 0.018-0.094 0.284-0.204 0.602-0.316 0.989-0.316 0.317 0 0.459 0.055 0.486 0.101 0.065 0.114 0.065 0.425 0.065 0.726 0 0.86 0 2.16 1.265 3.424 1.648 1.647 4.966 3.406 7.839 4.336-0.678 0.673-1.565 1.852-1.985 3.627zm-5.078-8.743c-0.88-0.881-0.937-1.728-0.94-2.486 0.002 0.139 0.055 0.279 0.161 0.384 0.415 0.415 0.892 0.628 1.387 0.628 0.24 0 0.484-0.05 0.728-0.151 3.523-1.46 6.733-13.528 6.733-25.32 0-9.412-2.942-16.977-5.036-21.17-0.013-0.038-0.033-0.073-0.053-0.108-1.113-2.213-1.974-3.458-1.998-3.493-0.174-0.249-0.519-0.309-0.769-0.134s-0.309 0.52-0.135 0.769c0.022 0.031 0.758 1.095 1.737 2.997-1.236 1.029-2.894 1.263-4.963 0.678v-0.978c0.923 0.278 1.648 0.162 2.167-0.356 0.276-0.276 0.419-0.64 0.414-1.049-0.013-0.979-0.905-2.114-1.468-2.731 5.744-4.79 11.334-8.266 12.102-7.497 0.041 0.041 0.088 0.076 0.14 0.101 8.11 4.125 10.547 28.956 10.547 31.501 0 6.736-2.688 33.095-10.297 33.095-2.645 0-8.313-2.537-10.457-4.68zm-14.12-80.46c-1.945 5.252-3.846 8.097-8.309 8.097-1.181 0-1.522 0.557-1.62 0.889-0.06 0.202-0.044 0.422 0.016 0.651-0.302-0.083-0.609-0.171-0.92-0.263-0.079-2.292 0.595-3.863 0.995-4.585 0.942 0.647 1.755 1.366 2.379 2.175 0.109 0.141 0.273 0.215 0.438 0.215 0.118 0 0.236-0.037 0.337-0.116 0.241-0.186 0.285-0.532 0.099-0.773-6.345-8.212-28.905-8.133-29.85-8.121-0.957-0.008-23.513-0.092-29.858 8.121-0.187 0.241-0.143 0.587 0.099 0.773 0.24 0.186 0.588 0.143 0.774-0.099 0.625-0.808 1.438-1.527 2.381-2.175 0.406 0.734 1.093 2.346 0.988 4.698-0.318 0.092-0.627 0.172-0.937 0.253 0.09-0.269 0.107-0.521 0.039-0.753-0.098-0.333-0.439-0.889-1.621-0.889-4.462 0-6.363-2.846-8.308-8.097-1.62-4.373-0.466-5.465 5.592-8.621 12.858-5.768 30.675-6.078 30.839-6.081 0.179 0.002 17.991 0.31 30.825 6.066 6.088 3.17 7.24 4.263 5.622 8.635zm-84.989 27.935c-0.561 0.617-1.455 1.752-1.467 2.731-0.005 0.41 0.138 0.772 0.414 1.049 0.586 0.585 1.436 0.656 2.536 0.227v0.241 0.742c-2.236 0.715-4.023 0.535-5.329-0.552 0.979-1.901 1.713-2.967 1.735-2.998 0.175-0.25 0.115-0.594-0.134-0.768-0.25-0.175-0.594-0.116-0.768 0.134-0.025 0.035-0.885 1.279-1.998 3.493-0.021 0.036-0.041 0.07-0.053 0.108-2.093 4.192-5.036 11.757-5.036 21.169 0 11.792 3.209 23.86 6.734 25.321 0.244 0.101 0.488 0.15 0.728 0.15 0.494 0 0.971-0.213 1.387-0.628 0.105-0.107 0.159-0.244 0.16-0.383-0.003 0.758-0.06 1.605-0.94 2.484-2.145 2.143-7.813 4.68-10.458 4.68-7.609 0-10.296-26.359-10.296-33.095 0-2.544 2.436-27.375 10.546-31.5 0.052-0.026 0.1-0.061 0.14-0.101 0.764-0.768 6.355 2.706 12.099 7.496zm-1.253 53.3c1.265-1.264 1.265-2.563 1.264-3.424 0-0.301 0-0.612 0.065-0.726 0.027-0.046 0.17-0.101 0.487-0.101 0.602 0 1.04 0.255 1.432 0.746 0.158 0.862 0.352 1.73 0.585 2.605 0.039 0.147 0.083 0.295 0.125 0.443 0.102 0.367 0.209 0.734 0.324 1.103 0.063 0.203 0.131 0.407 0.198 0.612 0.104 0.314 0.213 0.629 0.327 0.945 0.083 0.23 0.167 0.462 0.255 0.694 0.108 0.284 0.222 0.569 0.337 0.855 0.104 0.259 0.208 0.518 0.319 0.779 0.028 0.067 0.058 0.134 0.086 0.2-0.265 0.05-0.649 0.012-1.135-0.134-0.416-0.124-0.776-0.278-1.124-0.426-1.913-0.813-3.203-1.11-7.464 2.237-0.694 0.545-1.342 1.061-1.939 1.555-0.42-1.775-1.308-2.955-1.982-3.627 2.874-0.93 6.192-2.688 7.84-4.336zm7.077 10.914c-0.629-0.358-1.274-0.725-1.911-1.112-0.471-0.287-0.847-0.579-1.133-0.873 0.333 0.042 0.707 0.074 1.104 0.074 0.82 0 1.717-0.135 2.467-0.557 0.768 1.439 1.623 2.896 2.573 4.368-0.925-0.659-2-1.274-3.1-1.9zm38.321 12.109c0.988 1.79 2.344 3.568 4.203 4.952-0.03 0.323-0.08 0.986-0.088 1.789h-23.041c-2.368-2.286-4.549-4.534-6.536-6.741h25.462zm4.121 7.476c0.013 0.489 0.042 1.004 0.104 1.516 0.108 0.888-0.252 1.507-0.574 1.87-0.49 0.554-1.106 0.781-1.328 0.781-2.104 0-3.31 0.872-3.31 2.391h-9.91c-2.592-2.222-5.01-4.407-7.265-6.558h22.283zm15.088 7.293c-2.429 2.062-5.001 4.154-7.719 6.281h-13.799c-2.718-2.127-5.291-4.22-7.72-6.281h29.238zm-8.659 7.017c-1.917 1.487-3.901 2.989-5.96 4.511-2.059-1.52-4.042-3.022-5.96-4.511h11.92zm-4.032 4.906c15.642-11.645 27.164-22.37 34.672-32.321-0.047 1.564 0.665 2.285 2.714 4.341 0.354 0.356 0.753 0.756 1.2 1.212l0.3 0.307c2.708 2.767 4.665 4.766 6.716 4.777h0.017c0.915 0 1.758-0.397 2.577-1.218 1.315-1.314 2.003-2.771 1.989-4.211-0.006-0.581-0.128-1.149-0.349-1.693 1.137-0.218 3.678-0.945 6.051-3.319 1.354-1.354 1.974-2.637 1.896-3.927-0.1-1.646-1.308-3.144-3.272-4.878 0.383-2.443 1.777-3.711 2.277-4.092 0.798 0.195 1.532 0.311 2.142 0.311 9.273 0 11.399-29.714 11.399-34.198 0-2.727-2.414-27.921-11.084-32.45-0.803-0.667-2.505-0.118-4.499 0.982-0.824-0.647-1.431-1.239-1.874-1.77 0.715-0.435 2.87-1.904 4.161-4.515 2.769-5.593-10.177-14.309-10.729-14.677-1.308-0.873-2.631-1.145-3.926-0.809-2.189 0.563-3.615 2.692-4.053 3.43-0.528 0.039-1.955-0.058-2.89-2.073 1.87-5.278-0.579-6.833-6.25-9.785-13.069-5.863-31.111-6.175-31.306-6.177-0.181 0.002-18.222 0.314-31.32 6.191-5.642 2.939-8.09 4.493-6.221 9.771-0.934 2.018-2.356 2.117-2.889 2.074-0.437-0.737-1.863-2.866-4.052-3.43-1.3-0.335-2.621-0.062-3.927 0.809-0.552 0.368-13.498 9.083-10.729 14.677 1.292 2.611 3.447 4.08 4.162 4.515-0.443 0.532-1.051 1.124-1.876 1.771-1.994-1.099-3.695-1.648-4.498-0.983-8.669 4.529-11.083 29.724-11.083 32.45 0 4.485 2.125 34.198 11.399 34.198 0.608 0 1.343-0.115 2.14-0.31 0.495 0.38 1.896 1.659 2.279 4.092-1.965 1.733-3.174 3.232-3.272 4.877-0.077 1.29 0.542 2.575 1.896 3.928 2.374 2.373 4.914 3.102 6.052 3.318-0.222 0.544-0.343 1.112-0.349 1.695-0.014 1.439 0.674 2.896 1.989 4.21 0.819 0.819 1.662 1.218 2.577 1.218 0.006 0 0.012 0 0.017-0.001 2.051-0.011 4.008-2.01 6.716-4.776l0.299-0.306c0.447-0.457 0.847-0.857 1.202-1.213 2.267-2.276 2.9-2.915 2.674-4.876 7.499 10.103 19.161 21.006 35.086 32.862-41.213-0.96-74.445-34.782-74.445-76.221 0-42.041 34.203-76.243 76.244-76.243 42.04 0 76.242 34.202 76.242 76.243 0 41.354-33.095 75.122-74.192 76.213z"/>
   <path style="" d="m52.402 129.2c0.021 0.057 0.077 0.06 0.158 0.042 0.194-0.036 0.471-0.025 0.67 0.045 0.365 0.132 0.526 0.556 0.71 1.069 0.269 0.756 0.292 1.033 0.192 1.242-0.112 0.237-0.719 0.498-2.145 1.006l-1.726 0.615c-1.513 0.539-1.784 0.636-2.101 0.728-0.346 0.101-0.539 0.082-0.687-0.182-0.062-0.108-0.119-0.242-0.144-0.31-0.014-0.039-0.047-0.07-0.086-0.057-0.057 0.021-0.06 0.077-0.021 0.184 0.104 0.291 0.385 0.988 0.402 1.037s0.206 0.669 0.361 1.106c0.038 0.106 0.075 0.147 0.133 0.126 0.039-0.014 0.045-0.059 0.03-0.098-0.031-0.087-0.08-0.256-0.088-0.34-0.046-0.345 0.08-0.477 0.404-0.614 0.303-0.13 0.574-0.227 2.087-0.766l1.706-0.608c0.931-0.331 1.697-0.604 2.122-0.702 0.294-0.061 0.526-0.089 0.633 0.092 0.05 0.08 0.111 0.189 0.142 0.277 0.021 0.058 0.057 0.066 0.086 0.056 0.058-0.02 0.061-0.076 0.022-0.183-0.052-0.145-0.138-0.355-0.216-0.546-0.069-0.194-0.138-0.354-0.151-0.394-0.101-0.281-0.198-0.586-0.324-0.999-0.135-0.412-0.295-0.922-0.544-1.62-0.183-0.514-0.232-0.529-0.479-0.517-0.309 0.022-0.915 0.162-1.022 0.2-0.105 0.038-0.142 0.062-0.124 0.111z"/>
   <path style="" d="m52.558 123.72c-0.093-0.391-0.112-0.471-0.389-0.479-0.223-0.001-0.923 0.081-1.003 0.101-0.07 0.014-0.149 0.033-0.136 0.093 0.012 0.05 0.056 0.061 0.171 0.054 0.428-0.025 0.657 0.047 0.829 0.282 0.172 0.234 0.277 0.675 0.339 0.935 0.232 0.982 0.138 1.164-0.546 1.358-0.208 0.06-1.373 0.325-1.713 0.407l-0.882 0.208c-0.041 0.01-0.075-0.003-0.087-0.053-0.041-0.169-0.256-1.167-0.291-1.445-0.052-0.399 0.097-0.531 0.228-0.603 0.121-0.072 0.221-0.095 0.321-0.119 0.05-0.012 0.085-0.042 0.074-0.092-0.016-0.071-0.126-0.044-0.207-0.025-0.071 0.016-0.445 0.085-0.651 0.112-0.338 0.048-0.52 0.039-0.581 0.053-0.06 0.014-0.076 0.04-0.068 0.069 0.01 0.04 0.07 0.068 0.167 0.119 0.122 0.067 0.175 0.202 0.252 0.438 0.076 0.227 0.368 1.458 0.399 1.589 0.012 0.05-0.016 0.067-0.086 0.083l-2.766 0.657c-0.07 0.017-0.105 0.004-0.114-0.036-0.025-0.111-0.276-1.206-0.295-1.381-0.069-0.554 0.028-0.684 0.171-0.792 0.108-0.079 0.277-0.129 0.347-0.146 0.08-0.02 0.125-0.051 0.11-0.111-0.009-0.041-0.075-0.046-0.126-0.044-0.125 0.009-0.57 0.093-0.673 0.107-0.288 0.038-0.419 0.016-0.49 0.032-0.05 0.012-0.088 0.032-0.08 0.062 0.012 0.05 0.061 0.081 0.083 0.129 0.04 0.075 0.098 0.23 0.152 0.418 0.065 0.229 0.538 2.222 0.555 2.292l0.077 0.416c0.042 0.223 0.106 0.493 0.162 0.724 0.026 0.11 0.058 0.155 0.118 0.141 0.041-0.01 0.05-0.055 0.041-0.094-0.021-0.09-0.051-0.264-0.05-0.349-0.009-0.347 0.133-0.465 0.47-0.567 0.315-0.095 0.597-0.162 2.16-0.534l1.764-0.418c0.963-0.229 1.754-0.417 2.187-0.466 0.3-0.028 0.533-0.031 0.621 0.16 0.042 0.085 0.09 0.2 0.111 0.291 0.015 0.06 0.049 0.073 0.079 0.066 0.061-0.014 0.069-0.069 0.043-0.179-0.036-0.151-0.11-0.377-0.158-0.577-0.06-0.208-0.101-0.379-0.106-0.399-0.035-0.15-0.082-0.393-0.156-0.789-0.088-0.39-0.199-0.947-0.377-1.698z"/>
   <path style="" d="m45.6 122.74c-0.005-0.042-0.029-0.07-0.114-0.091-0.075-0.022-0.15-0.045-0.337-0.138-0.264-0.137-0.364-0.373-0.447-1.006l-0.195-1.513 4.329-0.499c0.983-0.112 1.792-0.205 2.227-0.204 0.301 0.007 0.533 0.033 0.598 0.231 0.03 0.09 0.065 0.211 0.077 0.303 0.007 0.062 0.041 0.078 0.07 0.075 0.062-0.007 0.077-0.061 0.063-0.173-0.036-0.307-0.141-0.948-0.146-0.999s-0.048-0.699-0.113-1.263c-0.013-0.112-0.05-0.16-0.102-0.153-0.031 0.003-0.059 0.027-0.052 0.088 0.011 0.092 0.016 0.319 0.012 0.466-0.005 0.312-0.224 0.399-0.517 0.464-0.424 0.101-1.233 0.194-2.215 0.306l-4.33 0.499-0.128-1.292c-0.093-0.985 0.114-1.258 0.417-1.324l0.111-0.022c0.141-0.026 0.17-0.051 0.165-0.103-0.004-0.041-0.048-0.067-0.141-0.056-0.112 0.014-0.822 0.063-1.129 0.099-0.061 0.007-0.123 0.015-0.117 0.065 0.004 0.041 0.046 0.13 0.083 0.281 0.05 0.161 0.098 0.394 0.136 0.721l0.442 3.837c0.015 0.123 0.039 0.514 0.042 0.813 0.012 0.279-0.079 0.393-0.071 0.466 0.004 0.041 0.142 0.066 0.206 0.079 0.084 0.012 0.988 0.115 1.09 0.104 0.061-0.007 0.089-0.031 0.086-0.061z"/>
   <path style="" d="m44.679 114.75c0.062 0 0.093-0.02 0.094-0.05 0-0.041-0.019-0.072-0.102-0.104-0.072-0.032-0.143-0.065-0.316-0.18-0.244-0.168-0.313-0.417-0.312-1.056l0.004-1.523 4.352 0.071c0.989 0.017 1.801 0.03 2.232 0.088 0.298 0.046 0.523 0.102 0.562 0.308 0.019 0.093 0.038 0.217 0.036 0.309-0.001 0.062 0.03 0.083 0.061 0.083 0.062 0.001 0.083-0.05 0.084-0.163 0.006-0.31-0.016-0.959-0.015-1.011 0.001-0.051 0.042-0.7 0.052-1.266 0.001-0.112-0.028-0.164-0.08-0.165-0.031 0-0.062 0.02-0.063 0.082-0.001 0.092-0.025 0.318-0.048 0.462-0.046 0.308-0.274 0.366-0.573 0.392-0.432 0.045-1.246 0.031-2.233 0.016l-4.354-0.072 0.043-1.296c0.036-0.988 0.277-1.23 0.586-1.256l0.113-0.009c0.145-0.008 0.175-0.028 0.177-0.079 0-0.042-0.041-0.073-0.133-0.074-0.112-0.001-0.822-0.044-1.131-0.049-0.062-0.001-0.124-0.002-0.125 0.049 0 0.041 0.029 0.134 0.047 0.289 0.027 0.166 0.045 0.402 0.039 0.731l-0.063 3.859c-0.001 0.124-0.028 0.514-0.065 0.812-0.024 0.277-0.129 0.379-0.13 0.451-0.001 0.042 0.132 0.084 0.194 0.106 0.082 0.022 0.964 0.244 1.067 0.245z"/>
   <path style="" d="m43.94 106.07c0.042 0.006 0.067-0.033 0.072-0.073 0.012-0.092 0.045-0.264 0.076-0.343 0.115-0.329 0.29-0.389 0.639-0.364 0.329 0.022 0.616 0.06 2.208 0.266l1.797 0.233c0.98 0.127 1.787 0.232 2.209 0.338 0.291 0.08 0.508 0.16 0.523 0.369 0.009 0.094 0.013 0.22 0.001 0.312-0.009 0.061 0.02 0.085 0.05 0.089 0.062 0.008 0.089-0.041 0.104-0.153 0.019-0.153 0.03-0.39 0.056-0.595 0.017-0.216 0.041-0.389 0.043-0.41 0.02-0.153 0.062-0.397 0.134-0.793 0.062-0.397 0.155-0.956 0.254-1.722 0.051-0.399 0.063-0.48-0.194-0.586-0.207-0.079-0.892-0.251-0.973-0.261-0.071-0.011-0.153-0.021-0.162 0.04-0.006 0.05 0.032 0.076 0.142 0.111 0.41 0.127 0.598 0.277 0.675 0.557 0.077 0.281 0.02 0.73-0.015 0.995-0.13 1.001-0.283 1.137-0.992 1.076-0.216-0.018-1.398-0.182-1.747-0.227l-0.899-0.116c-0.041-0.005-0.069-0.03-0.063-0.081 0.023-0.174 0.174-1.182 0.241-1.454 0.093-0.394 0.278-0.463 0.426-0.485 0.138-0.023 0.24-0.01 0.343 0.003 0.05 0.007 0.094-0.009 0.101-0.06 0.009-0.071-0.104-0.086-0.185-0.097-0.071-0.009-0.447-0.079-0.649-0.125-0.333-0.074-0.5-0.147-0.561-0.156s-0.084 0.01-0.088 0.041c-0.005 0.04 0.041 0.088 0.113 0.17 0.089 0.105 0.092 0.25 0.081 0.499-0.011 0.237-0.174 1.494-0.191 1.626-0.006 0.052-0.038 0.057-0.109 0.048l-2.819-0.366c-0.072-0.009-0.1-0.033-0.094-0.074 0.015-0.113 0.169-1.225 0.212-1.395 0.133-0.543 0.268-0.629 0.442-0.681 0.129-0.035 0.304-0.022 0.375-0.014 0.082 0.011 0.136-0.003 0.144-0.064 0.006-0.042-0.053-0.069-0.104-0.086-0.119-0.036-0.566-0.115-0.667-0.139-0.282-0.067-0.398-0.134-0.47-0.144-0.051-0.006-0.093-0.001-0.098 0.029-0.006 0.051 0.029 0.097 0.033 0.15 0.01 0.084 0.009 0.25-0.006 0.445-0.02 0.236-0.285 2.268-0.292 2.34l-0.075 0.417c-0.04 0.223-0.076 0.498-0.107 0.734-0.009 0.114 0.005 0.169 0.066 0.176z"/>
   <path style="" d="m54.332 93.277c-0.029-0.008-0.069 0.024-0.082 0.074-0.016 0.06-0.052 0.199-0.131 0.381-0.105 0.239-0.325 0.639-1.032 1.03-0.767 0.417-1.83 0.866-3.088 1.412-0.595-1.111-1.251-1.611-1.989-1.802-0.688-0.178-1.29 0.133-1.533 0.337-0.516 0.43-0.749 1.082-0.91 1.709-0.08 0.311-0.247 1.076-0.275 1.185-0.013 0.05-0.205 0.67-0.322 1.118-0.028 0.108-0.02 0.164 0.039 0.179 0.041 0.01 0.07-0.024 0.08-0.064 0.023-0.09 0.077-0.257 0.118-0.331 0.155-0.311 0.335-0.349 0.68-0.281 0.323 0.063 0.603 0.135 2.158 0.538l1.754 0.455c0.957 0.248 1.744 0.452 2.149 0.61 0.279 0.115 0.485 0.221 0.474 0.431-0.002 0.095-0.015 0.22-0.037 0.309-0.016 0.061 0.009 0.088 0.039 0.096 0.061 0.016 0.093-0.029 0.121-0.139 0.077-0.297 0.21-0.933 0.213-0.943 0.013-0.05 0.206-0.67 0.348-1.217 0.028-0.111 0.012-0.168-0.039-0.182-0.029-0.008-0.065 0.004-0.08 0.064-0.023 0.09-0.1 0.304-0.156 0.438-0.118 0.288-0.353 0.291-0.649 0.246-0.431-0.059-1.218-0.262-2.175-0.51l-0.24-0.062c-0.049-0.013-0.074-0.041-0.062-0.091l0.338-1.22c0.015-0.06 0.043-0.084 0.093-0.114 0.311-0.132 1.1-0.428 1.757-0.705 0.895-0.375 1.473-0.597 1.813-0.965 0.207-0.223 0.322-0.459 0.465-1.017l0.184-0.708c0.041-0.181 0.036-0.246-0.023-0.261zm-4.649 3.868c-0.114 0.438-0.302 0.879-0.431 1.005-0.042 0.042-0.087 0.052-0.138 0.039l-3.258-0.844c-0.06-0.015-0.092-0.056-0.099-0.111-0.004-0.107 0.036-0.383 0.113-0.683 0.276-1.066 1.194-1.53 2.439-1.208 0.756 0.196 1.228 0.595 1.377 1.005 0.101 0.271 0.059 0.557-0.003 0.797z"/>
   <path style="" d="m48.958 90.221c-0.701-0.273-0.912-0.952-0.654-1.614 0.343-0.882 0.847-0.985 0.975-1.001s0.41 0.027 0.529 0.062c0.08 0.02 0.133 0.029 0.155-0.029 0.018-0.048-0.042-0.094-0.195-0.153-0.652-0.254-0.954-0.416-1.001-0.435-0.048-0.019-0.075-0.006-0.104 0.07-0.03 0.077-0.07 0.15-0.18 0.317-0.15 0.217-0.297 0.481-0.443 0.855-0.475 1.219-0.073 2.259 0.954 2.659 0.653 0.254 1.337 0.256 2.568-0.436l0.523-0.293c1.002-0.56 1.495-0.689 2.158-0.431 0.613 0.239 1.1 0.948 0.742 1.869-0.25 0.643-0.766 1.171-1.531 1.04-0.146-0.024-0.281-0.076-0.367-0.11-0.077-0.03-0.108-0.032-0.132 0.026-0.018 0.048 0.021 0.086 0.124 0.137 0.15 0.069 0.519 0.257 0.998 0.444 0.26 0.101 0.302 0.106 0.421-0.001 0.345-0.319 0.584-0.734 0.759-1.185 0.202-0.519 0.289-1.081 0.162-1.606-0.212-0.845-0.881-1.283-1.275-1.436-0.768-0.299-1.467-0.262-2.8 0.522l-0.316 0.186c-1.08 0.641-1.523 0.756-2.07 0.543z"/>
   <path style="" d="m90.199 52.898-0.347-0.118c-1.189-0.399-1.566-0.659-1.762-1.212-0.25-0.708 0.127-1.312 0.796-1.548 0.894-0.316 1.3 0 1.396 0.085 0.096 0.086 0.247 0.328 0.297 0.441 0.037 0.074 0.064 0.119 0.122 0.099 0.048-0.017 0.045-0.092-0.011-0.247-0.233-0.66-0.308-0.994-0.325-1.043s-0.043-0.061-0.121-0.033c-0.077 0.027-0.159 0.045-0.357 0.071-0.262 0.028-0.558 0.088-0.936 0.222-1.233 0.436-1.759 1.419-1.392 2.458 0.233 0.66 0.68 1.18 2.007 1.66l0.563 0.205c1.079 0.394 1.498 0.683 1.734 1.353 0.22 0.622 0 1.453-0.932 1.782-0.65 0.23-1.387 0.185-1.788-0.481-0.076-0.125-0.125-0.262-0.156-0.349-0.027-0.078-0.047-0.104-0.106-0.083-0.048 0.017-0.051 0.073-0.022 0.183 0.046 0.159 0.143 0.56 0.316 1.046 0.092 0.262 0.116 0.297 0.276 0.317 0.467 0.053 0.937-0.037 1.394-0.198 0.525-0.186 1.007-0.488 1.322-0.926 0.501-0.712 0.396-1.505 0.256-1.903-0.274-0.779-0.758-1.284-2.224-1.781z"/>
   <path style="" d="m100.67 52.725c-0.061 0.014-0.072 0.059-0.066 0.173 0.013 0.188-0.015 0.66-0.175 0.93-0.305 0.505-0.876 0.733-1.629 0.908-2.146 0.499-4.03-0.913-4.476-2.83-0.237-1.024-0.275-1.957 0.294-2.828 0.271-0.423 0.803-0.959 2.137-1.27 0.882-0.206 1.719-0.115 2.139 0.105 0.312 0.16 0.569 0.534 0.659 0.925 0.033 0.14 0.059 0.208 0.129 0.192 0.061-0.014 0.066-0.079 0.042-0.232-0.025-0.153-0.154-0.705-0.21-1.041-0.064-0.366-0.063-0.493-0.081-0.574-0.014-0.06-0.043-0.095-0.156-0.08-0.325 0.054-0.661 0.069-1.058 0.087-0.512 0.024-1.082 0.125-1.483 0.218-1.545 0.36-2.348 1.044-2.811 1.786-0.686 1.101-0.642 2.329-0.486 3 0.223 0.953 0.729 2.041 1.906 2.688 0.958 0.528 2.058 0.664 3.563 0.313 0.642-0.149 1.389-0.397 1.753-0.651 0.162-0.123 0.176-0.146 0.192-0.352 0.021-0.364-0.061-1.265-0.077-1.335-0.02-0.079-0.056-0.144-0.106-0.132z"/>
   <path style="" d="m105.15 53.895c-0.092 0.012-0.319 0.021-0.465 0.019-0.312-0.001-0.402-0.217-0.472-0.51-0.107-0.422-0.212-1.229-0.34-2.209l-0.235-1.798c-0.208-1.593-0.246-1.879-0.268-2.208-0.027-0.36 0.032-0.544 0.302-0.631 0.119-0.037 0.179-0.055 0.25-0.064 0.042-0.005 0.08-0.031 0.075-0.072-0.009-0.061-0.062-0.075-0.174-0.06-0.307 0.044-0.946 0.158-0.996 0.166-0.052 0.007-0.699 0.06-1.036 0.104-0.111 0.011-0.161 0.038-0.152 0.099 0.004 0.041 0.048 0.056 0.089 0.051 0.072-0.01 0.205-0.017 0.322 0 0.231 0.022 0.356 0.182 0.422 0.526 0.063 0.324 0.101 0.61 0.309 2.204l0.236 1.797c0.128 0.98 0.232 1.788 0.238 2.223-0.003 0.302-0.024 0.533-0.223 0.6-0.089 0.032-0.209 0.069-0.301 0.081-0.061 0.008-0.077 0.041-0.074 0.072 0.008 0.061 0.062 0.075 0.174 0.061 0.307-0.041 0.946-0.155 0.997-0.162 0.05-0.007 0.698-0.061 1.26-0.134 0.112-0.015 0.159-0.053 0.153-0.103-0.004-0.033-0.029-0.061-0.091-0.052z"/>
   <path style="" d="m111.23 52.26c-0.051 0.002-0.07 0.045-0.085 0.158-0.051 0.425-0.166 0.636-0.428 0.762-0.261 0.126-0.714 0.147-0.981 0.16-1.007 0.047-1.168-0.079-1.232-0.787-0.02-0.215-0.066-1.408-0.082-1.757l-0.043-0.905c-0.001-0.041 0.017-0.073 0.069-0.076 0.175-0.008 1.194-0.036 1.473-0.018 0.403 0.022 0.503 0.193 0.551 0.335 0.047 0.132 0.052 0.235 0.057 0.337 0.002 0.052 0.025 0.092 0.077 0.089 0.072-0.003 0.066-0.116 0.063-0.199-0.003-0.072 0-0.453 0.01-0.66 0.016-0.34 0.059-0.518 0.056-0.58s-0.024-0.082-0.056-0.079c-0.041 0.001-0.079 0.055-0.148 0.14-0.087 0.107-0.23 0.135-0.476 0.167-0.235 0.032-1.5 0.091-1.633 0.098-0.052 0.002-0.063-0.028-0.067-0.1l-0.133-2.837c-0.004-0.072 0.015-0.104 0.056-0.106 0.114-0.005 1.234-0.048 1.411-0.035 0.558 0.036 0.667 0.154 0.746 0.315 0.057 0.122 0.076 0.295 0.079 0.368 0.004 0.083 0.027 0.132 0.089 0.13 0.042-0.001 0.059-0.065 0.066-0.117 0.015-0.124 0.015-0.578 0.02-0.681 0.017-0.29 0.063-0.415 0.059-0.487-0.001-0.052-0.015-0.092-0.045-0.091-0.051 0.002-0.091 0.045-0.142 0.058-0.081 0.024-0.244 0.053-0.44 0.072-0.235 0.021-2.281 0.118-2.353 0.122l-0.423-0.001c-0.227 0-0.504 0.014-0.74 0.025-0.114 0.005-0.165 0.028-0.162 0.089 0.002 0.041 0.045 0.06 0.085 0.059 0.093-0.005 0.268-0.003 0.352 0.014 0.342 0.056 0.433 0.217 0.47 0.565 0.036 0.329 0.048 0.616 0.124 2.22l0.085 1.809c0.046 0.987 0.084 1.799 0.053 2.234-0.027 0.3-0.069 0.529-0.271 0.58-0.092 0.025-0.214 0.051-0.308 0.056-0.061 0.003-0.08 0.035-0.079 0.065 0.003 0.062 0.055 0.08 0.168 0.075 0.155-0.007 0.39-0.039 0.597-0.048 0.215-0.021 0.389-0.029 0.41-0.03 0.154-0.007 0.401-0.008 0.804-0.007 0.401-0.008 0.967-0.015 1.738-0.051 0.401-0.018 0.483-0.023 0.543-0.293 0.042-0.218 0.09-0.92 0.086-1.003-0.005-0.075-0.009-0.157-0.07-0.154z"/>
   <path style="" d="m121.05 46.364c-0.42-0.029-0.762-0.022-0.874-0.03-0.113-0.008-0.604-0.074-1.066-0.107-0.124-0.011-0.206-0.006-0.21 0.055-0.003 0.042 0.005 0.073 0.077 0.078 0.081 0.006 0.317 0.033 0.499 0.087 0.313 0.105 0.369 0.336 0.33 1.004l-0.263 5.225c-0.304-0.362-1.333-1.696-2.271-2.857-1.458-1.808-2.87-3.571-3.012-3.757-0.095-0.111-0.253-0.349-0.335-0.354-0.082-0.006-0.121 0.104-0.15 0.505l-0.435 5.883c-0.067 0.935-0.14 1.229-0.402 1.282-0.158 0.041-0.343 0.038-0.425 0.031-0.052-0.003-0.084 0.015-0.087 0.056-0.005 0.072 0.055 0.087 0.159 0.094 0.462 0.033 0.896 0.034 0.987 0.04 0.093 0.007 0.502 0.067 1.087 0.11 0.124 0.009 0.187-0.008 0.191-0.069 0.003-0.042-0.026-0.064-0.078-0.067-0.092-0.007-0.317-0.033-0.508-0.099-0.271-0.102-0.354-0.376-0.315-1.22l0.222-4.928c0.301 0.394 1.368 1.771 2.466 3.14 1.004 1.25 2.375 2.865 2.479 2.977 0.505 0.583 0.62 0.705 0.702 0.711 0.073 0.005 0.096-0.045 0.145-0.722l0.455-6.016c0.044-0.616 0.102-0.839 0.445-0.887 0.125-0.022 0.197-0.016 0.249-0.013 0.072 0.005 0.115-0.022 0.118-0.064 0.004-0.064-0.067-0.08-0.18-0.088z"/>
   <path style="" d="m130.04 48.278c-0.319-0.089-0.627-0.218-0.996-0.369-0.474-0.196-1.031-0.346-1.434-0.432-1.55-0.33-2.566-0.052-3.299 0.424-1.087 0.705-1.568 1.833-1.712 2.507-0.204 0.957-0.206 2.156 0.583 3.239 0.644 0.884 1.58 1.473 3.09 1.794 0.645 0.138 1.424 0.23 1.861 0.154 0.199-0.042 0.224-0.058 0.324-0.236 0.173-0.321 0.48-1.171 0.496-1.242 0.017-0.08 0.012-0.154-0.039-0.166-0.061-0.013-0.089 0.023-0.133 0.129-0.07 0.175-0.294 0.589-0.553 0.766-0.49 0.328-1.104 0.292-1.858 0.13-2.155-0.459-3.259-2.535-2.85-4.458 0.219-1.027 0.581-1.887 1.466-2.435 0.425-0.267 1.133-0.527 2.472-0.242 0.885 0.189 1.603 0.626 1.89 1.002 0.215 0.277 0.289 0.725 0.204 1.117-0.03 0.141-0.035 0.213 0.036 0.229 0.061 0.014 0.094-0.043 0.137-0.191 0.042-0.149 0.159-0.703 0.25-1.031 0.098-0.358 0.153-0.473 0.17-0.553 0.016-0.058 0.005-0.102-0.105-0.136z"/>
   <path style="" d="m136.31 50.132c-0.085-0.006-0.248-0.04-0.437-0.092-0.229-0.065-2.171-0.72-2.239-0.743l-0.394-0.155c-0.211-0.083-0.475-0.17-0.699-0.246-0.107-0.036-0.163-0.033-0.183 0.025-0.014 0.039 0.02 0.072 0.059 0.085 0.087 0.029 0.25 0.095 0.322 0.141 0.299 0.177 0.325 0.359 0.232 0.698-0.086 0.319-0.178 0.593-0.691 2.115l-0.578 1.718c-0.316 0.937-0.576 1.708-0.763 2.102-0.134 0.27-0.255 0.469-0.464 0.442-0.094-0.01-0.218-0.03-0.306-0.06-0.059-0.02-0.087 0.003-0.098 0.033-0.02 0.059 0.022 0.094 0.13 0.131 0.146 0.049 0.377 0.105 0.571 0.17 0.208 0.06 0.375 0.115 0.395 0.122 0.146 0.049 0.377 0.139 0.75 0.286 0.379 0.138 0.907 0.338 1.64 0.584 0.381 0.128 0.459 0.155 0.613-0.076 0.118-0.188 0.418-0.827 0.445-0.905 0.023-0.067 0.049-0.146-0.009-0.165-0.049-0.016-0.082 0.016-0.137 0.117-0.204 0.377-0.387 0.533-0.677 0.555s-0.719-0.123-0.974-0.208c-0.957-0.322-1.059-0.499-0.862-1.182 0.059-0.208 0.45-1.338 0.562-1.669l0.289-0.859c0.014-0.039 0.044-0.062 0.092-0.046 0.166 0.056 1.125 0.401 1.379 0.52 0.367 0.167 0.399 0.362 0.392 0.512-0.003 0.14-0.037 0.238-0.069 0.335-0.017 0.048-0.011 0.094 0.038 0.111 0.069 0.023 0.105-0.084 0.131-0.162 0.023-0.068 0.164-0.423 0.25-0.612 0.138-0.313 0.243-0.462 0.262-0.521 0.02-0.059 0.007-0.084-0.022-0.094-0.04-0.014-0.095 0.022-0.189 0.077-0.121 0.067-0.264 0.041-0.505-0.018-0.231-0.056-1.432-0.46-1.559-0.503-0.049-0.016-0.049-0.049-0.026-0.118l0.908-2.695c0.022-0.068 0.052-0.091 0.09-0.078 0.108 0.036 1.169 0.405 1.329 0.479 0.507 0.236 0.565 0.386 0.58 0.565 0.01 0.134-0.036 0.303-0.059 0.372-0.026 0.078-0.023 0.134 0.035 0.153 0.039 0.013 0.079-0.039 0.106-0.084 0.059-0.11 0.223-0.534 0.265-0.628 0.122-0.263 0.21-0.364 0.232-0.433 0.016-0.048 0.019-0.091-0.01-0.102-0.044-0.013-0.096 0.014-0.147 0.006z"/>
   <path style="" d="m172.34 102.54c0.184-0.024 0.437-0.005 0.703 0.053l1.888 0.374c0.054 0.014 0.089 0.041 0.097 0.091l0.289 2.195c0.007 0.051-0.011 0.074-0.048 0.1l-2.388 1.281c-0.155 0.082-0.256 0.033-0.284-0.025-0.016-0.039-0.04-0.066-0.081-0.062-0.062 0.008-0.046 0.121-0.031 0.316 0.073 0.708 0.171 1.453 0.191 1.606 0.016 0.112 0.047 0.201 0.108 0.193 0.051-0.006 0.056-0.048 0.048-0.11-0.015-0.102-0.023-0.256 0.007-0.416 0.033-0.223 0.158-0.54 1.019-1.027 1.47-0.828 5.476-2.987 5.844-3.191 0.3-0.165 0.346-0.212 0.338-0.274-0.008-0.061-0.074-0.094-0.428-0.172l-6.647-1.482c-0.535-0.116-0.949-0.27-1.073-0.731-0.021-0.081-0.05-0.222-0.059-0.293-0.008-0.051-0.033-0.09-0.074-0.084-0.062 0.008-0.073 0.072-0.057 0.205 0.063 0.479 0.169 1.038 0.184 1.149 0.015 0.113 0.042 0.555 0.074 0.8 0.013 0.092 0.041 0.151 0.103 0.143 0.041-0.005 0.057-0.039 0.048-0.11l-0.015-0.102c-0.024-0.173 0.041-0.4 0.244-0.427zm3.137 0.543 2.876 0.535c0.16 0.031 0.166 0.082 0.02 0.153l-2.628 1.333c-0.041 0.016-0.071 0.02-0.078-0.031l-0.257-1.95c-0.005-0.031 0.012-0.055 0.067-0.04z"/>
   <path style="" d="m177.44 110.07-1.813 0.03c-0.988 0.016-1.801 0.029-2.232-0.015-0.301-0.036-0.527-0.083-0.571-0.29-0.022-0.092-0.046-0.215-0.047-0.308-0.001-0.062-0.032-0.082-0.063-0.082-0.061 0.001-0.08 0.053-0.079 0.167 0.006 0.309 0.047 0.958 0.047 0.967 0.001 0.052-0.02 0.701-0.011 1.267 0.002 0.113 0.034 0.163 0.085 0.163 0.031-0.001 0.062-0.022 0.061-0.083-0.002-0.093 0.016-0.319 0.034-0.464 0.036-0.309 0.261-0.375 0.56-0.41 0.431-0.059 1.243-0.072 2.231-0.088l0.248-0.003c0.051-0.001 0.082 0.019 0.082 0.07v1.267c0.002 0.062-0.019 0.092-0.059 0.134-0.265 0.21-0.946 0.705-1.505 1.147-0.762 0.599-1.26 0.967-1.49 1.415-0.139 0.27-0.187 0.527-0.177 1.104l0.012 0.731c0.003 0.185 0.024 0.246 0.086 0.246 0.032 0 0.062-0.042 0.061-0.094-0.001-0.062-0.004-0.205 0.024-0.401 0.037-0.258 0.143-0.702 0.72-1.268 0.629-0.607 1.532-1.322 2.6-2.184 0.869 0.912 1.637 1.219 2.397 1.207 0.711-0.011 1.208-0.473 1.389-0.732 0.383-0.552 0.433-1.243 0.422-1.891-0.006-0.318-0.049-1.1-0.051-1.213-0.001-0.051 0.019-0.7 0.012-1.164-0.002-0.113-0.023-0.165-0.085-0.164-0.042 0-0.061 0.042-0.061 0.084 0.002 0.092-0.006 0.268-0.024 0.35-0.067 0.34-0.229 0.426-0.579 0.452-0.332 0.022-0.62 0.027-2.224 0.053zm2.606 0.863c0.033 0.103 0.069 0.38 0.074 0.689 0.018 1.102-0.743 1.793-2.029 1.814-0.781 0.013-1.342-0.246-1.596-0.602-0.168-0.234-0.203-0.521-0.207-0.769-0.008-0.453 0.057-0.927 0.146-1.083 0.029-0.052 0.071-0.074 0.123-0.074l3.363-0.055c0.063-0.001 0.104 0.029 0.126 0.08z"/>
   <path style="" d="m175.17 119.9 4.325 0.522-0.176 1.286c-0.139 0.979-0.403 1.196-0.715 1.189l-0.112-0.003c-0.145-0.008-0.178 0.009-0.184 0.06-0.005 0.041 0.032 0.076 0.124 0.087 0.112 0.015 0.814 0.131 1.12 0.167 0.062 0.007 0.122 0.015 0.13-0.036 0.005-0.041-0.016-0.137-0.017-0.292-0.011-0.168-0.003-0.405 0.036-0.733l0.463-3.833c0.016-0.122 0.082-0.508 0.149-0.802 0.053-0.273 0.168-0.363 0.177-0.435 0.006-0.041-0.124-0.098-0.182-0.125-0.08-0.031-0.935-0.341-1.037-0.354-0.06-0.008-0.095 0.01-0.098 0.041-0.006 0.041 0.012 0.075 0.09 0.115 0.068 0.039 0.136 0.078 0.296 0.211 0.226 0.194 0.267 0.448 0.2 1.083l-0.162 1.515-4.324-0.522c-0.981-0.119-1.789-0.216-2.213-0.32-0.291-0.076-0.51-0.155-0.527-0.363-0.009-0.095-0.015-0.22-0.003-0.312 0.008-0.062-0.021-0.085-0.051-0.089-0.063-0.008-0.088 0.041-0.103 0.154-0.037 0.308-0.083 0.955-0.091 1.005-0.005 0.052-0.113 0.692-0.182 1.255-0.014 0.11 0.011 0.166 0.062 0.171 0.031 0.004 0.064-0.013 0.072-0.075 0.011-0.092 0.059-0.314 0.097-0.455 0.076-0.301 0.31-0.336 0.61-0.331 0.438 0.003 1.245 0.1 2.226 0.219z"/>
  </g>
 </g>
</svg>
