<?xml version="1.0" encoding="utf-8"?>
<!-- Generator: Adobe Illustrator 22.0.0, SVG Export Plug-In . SVG Version: 6.00 Build 0)  -->
<svg version="1.1" id="Layer_1" xmlns="http://www.w3.org/2000/svg" xmlns:xlink="http://www.w3.org/1999/xlink" x="0px" y="0px"
	 viewBox="0 0 300 300" style="enable-background:new 0 0 300 300;" xml:space="preserve">
<style type="text/css">
	.st0{fill:#FFFFFF;}
</style>
<g>
	<g>
		<path class="st0" d="M268.5,269.2c-78.8,0-157.5,0-236.2,0c0-79.2,0-158.5,0-237.8c78.8,0,157.5,0,236.2,0
			C268.5,110.8,268.5,190,268.5,269.2z M251.9,183.5c8.3,3.4,10.2,2.4,12.2-5.6c2.4-9.6,3.3-19.4,3.2-29.3
			c-0.4-30.8-11.2-57.4-32.5-79.4c-25.4-26.4-56.9-38.2-93.4-35.4c-29.7,2.3-55.1,14.6-75.2,36.7c-27.7,30.4-36.8,66.1-28.5,106.2
			c1.9,9.4,3.3,10,12.9,6.9c1.8,4,3.8,8.2,5.6,12.3c0.9,2.2,0.2,3.5-2.1,4.6c-5.7,2.9-6.4,4.7-2.7,9.8c5.4,7.6,10.7,15.4,17.3,22
			c26.9,27.1,59.8,38.2,97.6,33.6c26.5-3.2,49.5-14.7,67.8-34.2c6.5-6.9,11.8-15.1,17.4-22.9c1.8-2.5,2.1-5.2-1.3-7.3
			c-5.5-3.3-5.6-3.5-3-9.5C248.5,189.2,250.3,186.5,251.9,183.5z"/>
		<path d="M251.9,183.5c-1.6,3-3.4,5.8-4.7,8.7c-2.6,6-2.6,6.1,3,9.5c3.4,2.1,3.1,4.7,1.3,7.3c-5.6,7.8-10.9,15.9-17.4,22.9
			c-18.4,19.5-41.3,31-67.8,34.2c-37.7,4.5-70.7-6.5-97.6-33.6c-6.5-6.6-11.9-14.4-17.3-22c-3.7-5.2-3-7,2.7-9.8
			c2.2-1.1,3-2.4,2.1-4.6c-1.8-4.2-3.7-8.3-5.6-12.3c-9.6,3.2-10.9,2.5-12.9-6.9c-8.3-40.1,0.7-75.8,28.5-106.2
			c20.1-22.1,45.5-34.4,75.2-36.7c36.5-2.8,67.9,9,93.4,35.4c21.3,22.1,32.1,48.7,32.5,79.4c0.1,9.9-0.8,19.7-3.2,29.3
			C262.1,185.9,260.2,186.9,251.9,183.5z M73.4,77.9c-1.2,1.1-2.3,2.1-3.1,2.8c3.3,2.9,6.5,5.7,9.8,8.6c0.7-0.7,1.5-1.6,1.9-2
			c-1.7-1.7-3.3-3.3-4.9-4.8c8.7,0.6,8.7,0.6,10-1.1c-2.4-0.4-4.8-0.8-6.2-1c-1.4-2.2-2.3-3.8-3.2-5.3C76.2,76,74.8,77,73.4,77.9z
			 M217.5,204.9c-19.3,23-44.1,33.7-73.8,31.2c-30.1-2.5-52.5-17.9-67.9-44c-3,1.9-1.6,4.5-0.1,6.4c5.4,6.7,10.4,13.9,16.8,19.5
			c40.5,35.3,101.9,27.2,132.3-17.2c1.1-1.6,2.3-3.4,2.8-5.2c0.3-1.1-0.8-2.5-1.1-3.5c-3.3,4.7-6.2,8.8-9.1,13
			c0.2-0.8,0.4-1.6,0.7-2.8c-4.7-1.6-9.3-3.6-14-4.8c-7.9-2-14.8-0.5-19.7,6.9c-0.5,0.8-2.6,1.3-3.7,0.9c-7-2.2-13.9-4.7-20.9-7
			c-10.8-3.6-17-1.6-24.2,8.1c-6.8-2.4-13.8-4.9-20.8-7.4c-9.1-3.2-17.8-4.2-24.7,4.4c-2.1-1.2-4-2.2-5.8-3.3
			c-0.4,0.5-0.8,1-1.2,1.5c2.7,2.2,5.2,4.6,8,6.6c2.6,1.9,5.7,2.4,8.5,0.7c1.2-0.7,1.6-2.7,2.4-4.1c-1.3-0.6-2.6-1.3-3.9-1.8
			c-0.7-0.2-1.6,0-2.9,0.1c3-3.2,6.4-4,9.9-3.2c5.2,1.1,10.3,2.9,15.4,4.4c6.7,1.9,13.4,3.9,20.2,5.3c2.4,0.5,5.2-0.3,7.6-1.2
			c1-0.4,1.5-2.5,2.2-3.8c-1.3-0.7-2.5-1.7-3.9-2c-1.1-0.3-2.4,0.3-4.1,0.6c2.9-3.3,6.4-4.1,9.9-3.4c5.3,1.1,10.5,3,15.8,4.5
			c6.7,1.9,13.4,4,20.2,5.2c2.6,0.5,5.7-0.9,8.4-1.9c0.7-0.2,1.2-2.3,0.9-3.2c-0.3-0.9-1.8-1.7-2.8-1.9c-1.3-0.2-2.8,0.2-4.5,0.4
			c3.8-3.5,8.1-4.4,14.2-2.6C208.8,201.8,213.1,203.4,217.5,204.9z M45.5,183.8c-0.9-1.8-2-3.2-2.3-4.8c-1.3-6.2-2.8-12.5-3.3-18.8
			c-2.6-37.5,9.4-69.7,37.9-94.4c33.9-29.3,73-36,114.5-19.7c53,20.9,80.2,75.8,67,131.3c-0.5,2.1-1.8,4.1-2.7,6.1
			c3.2,1.2,4.7,0.3,5.8-4.3c4.4-17.1,5-34.2,1.5-51.5c-12-61-70.2-103-133.4-91.4C69.5,47.6,29.1,103.9,37,165.5
			c0.6,4.9,1.8,9.8,2.9,14.7C40.6,182.9,42,185.4,45.5,183.8z M153.3,92.7c-0.1,0.9-0.2,1.8-0.1,2.6c0.5,26,1,52,1.5,77.9
			c0.1,5.9-0.9,6.7-7.4,6.6c0.5-29,1-58,1.5-87.2c-1.7,0-2.7,0-3.9,0c-0.2,1.2-0.5,2.3-0.6,3.4c-0.6,12-1.1,23.9-1.7,35.9
			c-0.7,15.1-1.3,30.2-2,45.3c-0.2,4.6-0.6,5-5.2,4c-6.7-1.4-13.3-3.2-20-4.7c-9.7-2.2-19.1-0.8-28.1,3.3c-2.1,0.9-2.6,2-0.9,3.9
			c8-3.8,16.4-5.7,25.1-4.4c5.7,0.9,11.3,2.3,16.8,3.9c11.5,3.3,22.6,1.4,32.7-3.9c10.5-5.5,20.6-5.2,31-1.4
			c4.8,1.8,9.7,2.7,14.6,1.4c6.2-1.5,12.6-2.9,16.7-10.2c-3.9,1.8-6.9,3.3-9.9,4.7c-6.5,2.9-13.2,3.7-20,1.2
			c-10.5-4-21-5.2-31.9,0.6c-1.4-28.1-2.7-55.8-4-83.4C155.9,92.3,154.7,92.5,153.3,92.7z M232.7,174.2c0.2,0.4,0.4,0.8,0.6,1.1
			c1.1-0.6,2.7-1,3.4-2c0.9-1.4,1.4-3.2,1.8-4.9c2.4-12.1,2.5-24.3,0.1-36.4c-9.4-47.1-56-78.9-102.9-70.3
			c-46.9,8.7-78.5,51.2-73.2,98.8c0.5,4.2,1.7,8.3,2.8,12.3c0.6,2.2,2.1,3,4.2,1.5c-10.5-26.4-2.7-68.3,29-92.4
			c32.9-25,76.9-24.1,107.7,1.7C238.2,110.6,242,152.9,232.7,174.2z M248.8,202.5c-9.1,22.5-40.2,54-85.1,59
			c-22.1,2.5-43.4-1.1-63.2-11.4c-20.7-10.8-37.1-26.3-47.8-47.5c-3.4,1.6-2.1,4.2-0.8,6.2c4.8,6.8,9.3,14,15,20
			c26,27.8,58.6,39.8,96.2,36.2c28.8-2.7,53.3-15.3,72.7-37c5.4-6,9.8-12.9,14.4-19.5C251.7,206.6,252.8,203.9,248.8,202.5z
			 M192.3,138.9c-7.2-5.2-13.7-9.9-20.1-14.6c-0.5-0.3-1.4-0.7-1.7-0.4c-2.7,2.2-4.5,0-6.5-1.2c-1-0.6-2.1-0.8-3.7-1.5
			c0.5,11.5,1,22.3,1.6,34.1C172.2,149.8,181.8,144.6,192.3,138.9z M99.4,146.5c0,0.4,0.1,0.9,0.1,1.3c1,0,2,0.2,2.8-0.2
			c2.2-1.1,4.4-2.4,6.5-3.8c7.4-4.7,14.6-4.4,21.7,0.6c3.2,2.3,6.3,4.8,10,7.6c0.4-9.7,0.9-18.9,1.3-28c-7.1-1.7-12.3,0.3-16.1,5.5
			c-1.7,0.2-2.9,0-3.6,0.5C114.5,135.5,107,141,99.4,146.5z M166.2,219.2c-8.2,0-16.2,0.2-24.1-0.1c-6.5-0.2-6.4-0.5-7.8,5.9
			c-0.7,3.1,0.1,4.5,3.3,4.6c7.1,0.2,14.1,0.9,21.2,0.7C169.3,229.9,169.6,229.2,166.2,219.2z M160.3,112.6c-0.2,0.3-0.4,0.7-0.6,1
			c24.6,17.9,49.2,35.8,73.8,53.7c2.2-4.4,1-6.7-2.7-9c-22.5-14.4-44.8-29.1-67.2-43.6C162.6,114,161.4,113.3,160.3,112.6z
			 M68.7,167.3c24.7-18,49.3-35.9,73.9-53.8c-0.2-0.3-0.4-0.6-0.6-0.9c-1,0.6-2,1.2-3,1.8c-22.7,14.8-45.4,29.6-68.1,44.4
			C66.6,161.5,66.5,161.8,68.7,167.3z M235.3,145.7c0.2-6.9,0.2-6.9-5.2-9.3c-22.5-9.9-44.9-19.8-67.4-29.7c-0.9-0.4-1.8-0.7-2.7-1
			c-0.1,0.3-0.2,0.7-0.4,1C184.8,119.7,209.9,132.6,235.3,145.7z M67,145.6c25.3-13.1,50.5-26,75.6-39c-0.1-0.3-0.3-0.6-0.4-0.9
			c-1,0.4-2,0.7-3,1.1c-22.4,9.8-44.7,19.8-67.2,29.4C67.6,138.1,65.9,140.5,67,145.6z M68.6,132.4c3.7-0.2,7.5,0.3,10.7-0.8
			c8-3,15.8-6.7,23.6-10.2c0.8-0.4,1.5-0.9,2.5-1.5c-5.1-3.2-9.7-2.3-14.2-0.6c-1.4-0.6-2.8-1.1-4.1-0.8c-2.9,0.6-5.7,2-8.6,2.3
			c-6.5,0.8-9.5,4.4-9.9,10.7C68.4,131.5,68.5,131.7,68.6,132.4z M160,104.2c23,10.1,45.2,19.9,68.4,30c-2.9-5.8-6.8-7.9-11.8-8.4
			c-1.2-0.1-2.9-0.5-3.5-1.4c-4.1-6.6-9.9-9.1-17.5-8.2c-0.8,0.1-1.9-0.4-2.4-1c-2.5-3.6-5.8-4.9-10-3.7
			C181.3,108.1,164.5,102.5,160,104.2z M143.1,97.9c-0.1-0.5-0.2-1-0.2-1.5c-5.8,0.8-11.7,1.4-17.5,2.3c-2.4,0.4-4.9,2.3-7.1,2.1
			c-8.1-1-15.3,0.4-21.1,6.4c-6.4-6-17.3-4.6-20.2,2.2c2.4,0.3,4.8,0.7,7.3,0.9c2,0.2,4.2,0.5,6.1,0.1c16.4-3.7,32.7-7.6,49.1-11.4
			C140.7,98.7,141.9,98.3,143.1,97.9z M142.7,100.7c-0.1-0.3-0.1-0.5-0.2-0.8c-0.6,0-1.2-0.1-1.7,0c-21.5,5-42.9,10.2-64.4,15.1
			c-3.6,0.8-4.1,3.2-4.5,6.4C95.7,114.5,119.2,107.6,142.7,100.7z M230.2,121.4c-0.2-3.9-1.7-5.8-5.2-6.6
			c-15.3-3.4-30.6-7.1-45.9-10.7c-6.5-1.5-13-3.1-19.5-4.6c-0.1,0.4-0.2,0.7-0.3,1.1C182.8,107.6,206.3,114.4,230.2,121.4z
			 M67.2,159.6c7.4-4.8,14.5-9.5,21.6-14.1c-0.1-0.2-0.2-0.4-0.4-0.7c-1,0.1-2,0.2-2.8,0.3c-0.9-2.3-1.7-4.2-2.5-6.3
			c-2.6,1.3-4.7,2.8-7,3.5c-8.3,2.6-11.9,7.6-9.4,16.3C66.9,158.7,66.9,158.8,67.2,159.6z M86.6,143.5c5.5-0.1,5.5-0.2,10-3.1
			c5.6-3.7,11.3-7.3,16.9-11c1.3-0.8,2.5-1.7,4-2.7c-3.2-1.5-6.4,2.9-8.9-1.2c-8.1,4.2-16.2,8.4-24.2,12.5
			C85.2,140,85.8,141.7,86.6,143.5z M142.6,95c0-0.3-0.1-0.6-0.1-0.9c-0.6-0.1-1.2-0.2-1.8-0.2c-17.9,1.1-35.9,2.3-53.8,3.4
			c-3.7,0.2-4.5,3-6.3,5.9C101.8,100.5,122.2,97.8,142.6,95z M221.4,103.4c-1.8-4-4-6.5-8.4-6.1c-2.3,0.2-4.7-0.3-7.1-0.5
			c-14.4-0.9-28.8-1.8-43.2-2.7c-1.1-0.1-2.2,0-3.3,0c0,0.3,0,0.6,0,1C179.9,97.8,200.4,100.5,221.4,103.4z M142.8,103.3
			c-0.2-0.4-0.3-0.7-0.5-1.1c-16.8,4.9-33.7,9.8-50.5,14.7c5.2-0.9,10.1-1.3,14.7,2c0.5,0.4,1.9-0.1,2.7-0.4
			c10.4-4.5,20.8-9,31.1-13.6C141.2,104.5,142,103.9,142.8,103.3z M159,87.8c0,0.5,0.1,1.1,0.1,1.6c16.1-0.5,32.3-1.1,48.7-1.6
			c-2.4-3.7-5.2-4.6-8.9-4.1c-9.4,1.2-18.8,1.8-28.3,2.8C166.8,86.8,162.9,87.3,159,87.8z M143.1,89.4c0.1-0.5,0.1-1,0.2-1.5
			c-1.3-0.2-2.6-0.6-3.8-0.7c-12.4-1.2-24.8-2.2-37.2-3.6c-3.7-0.4-5.7,1.1-8,4.2C110.9,88.3,127,88.8,143.1,89.4z M142.7,109.5
			c-0.3-0.3-0.6-0.7-0.8-1c-10.5,5.4-20.9,10.8-31.4,16.3c6.5,1,11.9-0.2,16.9-4.2c4-3.2,8.5-5.6,12.8-8.5
			C141.1,111.4,141.8,110.3,142.7,109.5z M194,127c0.1-0.3,0.2-0.7,0.3-1c-11.4-5.9-22.8-11.7-34.2-17.6c-0.2,0.3-0.5,0.6-0.7,0.8
			c0.6,0.8,1.1,1.8,1.8,2.3C171.3,118.6,181.8,124.8,194,127z M152.8,157.5c0-7.3,0.1-14.3-0.1-21.4c0-0.9-1-1.9-1.5-2.8
			c-0.6,0.9-1.8,1.8-1.9,2.8c-0.2,6.3-0.2,12.7-0.3,19C149,157.8,150.5,157.8,152.8,157.5z M227.6,167.9c-6.1,3.1-12.6,18.3-10.6,25
			c3.4-7,6.7-13.7,10-20.5c0.3-0.7,0.8-1.3,0.9-2C228,169.8,227.7,169,227.6,167.9z M84.4,193.3c2.8-7.3-4.2-23.4-10-25.1
			c3,7.6,5.8,15.1,8.7,22.5C83.4,191.6,83.9,192.4,84.4,193.3z M236.2,86.4c-3.6,2.5-7.1,4.8-10.6,7.3c0.3,0.5,1.1,1.7,1.6,2.4
			c3.3-2.3,6.4-4.5,10.6-7.4c0,2.1,0.4,4-0.1,4.3c-1.3,0.7-3,0.7-4.9,1.1c-0.1,2.3-4.5,5-0.9,8.7c1.1-2.7,1.9-4.9,2.4-6.2
			c2.5-0.7,5.1-0.8,5.4-1.7c0.5-1.4-0.3-3.4-1-5C237.9,88.3,236.6,87.1,236.2,86.4z M90.7,78.8c1.9-1.7,4.1-3.2,5.8-5.1
			c2.3-2.7,1.9-6.5-0.6-9.1c-2.6-2.7-5.3-2.1-8-0.1c-1.8,1.3-3.5,2.7-5.1,3.9C85.3,71.8,87.8,75.1,90.7,78.8z M192,76.2
			c-2.6-2.4-4.8-2.7-7.6-1.8c-7.6,2.6-15.4,5-23.1,7.5c-1,0.3-2,0.8-3,1.2c0.1,0.3,0.2,0.5,0.3,0.8C169.6,81.4,180.6,78.9,192,76.2z
			 M110.1,76.3c11.4,2.6,22.4,5.1,33.4,7.6c0.1-0.3,0.1-0.6,0.2-0.9c-8.7-2.8-17.4-5.5-26-8.4C115,73.6,112.7,73.7,110.1,76.3z
			 M122.5,61.5c0.2-0.3,0.4-0.7,0.6-1c-1.3-4.1-2.7-8.1-4-12.2c-0.5,0.2-1.5,0.6-2,0.7c1.3,2.6,2.5,5.1,3.8,7.9
			c-5.3-0.5-7.9-6.5-12.9-4.5c1.6,4.2,3.1,8.1,4.6,12.3c0.2-0.1,1.2-0.5,1.5-0.7c-1.2-2.9-2.3-5.5-3.9-9
			C115.1,57.5,118.8,59.5,122.5,61.5z M184.7,62.7c1.1-2.9,2.2-5.6,3.6-9.2c1.6,5.2,2.9,9.3,4.1,13.4c0.4-0.1,0.7-0.2,1.1-0.3
			c1.9-3.8,3.7-7.6,5.7-11.6c-0.4-0.2-1.3-0.5-1.6-0.7c-1.1,2.7-2.1,5.3-3.2,8.1c-3.5-3.9-0.9-10.5-6-12.2
			c-1.8,4.2-3.5,7.9-5.3,11.9C183.4,62.2,184.4,62.6,184.7,62.7z M130,51.5c-0.2-2-0.3-3.3-0.4-4.8c1.9,0,3.5,0,5,0
			c-1.3-2.2-1.8-2.2-8.4-0.1c0.9,4.2,1.8,8.3,2.6,12.4c7.8-1.4,7.8-1.4,7.8-3.3c-1.6,0.5-3.3,1.1-5.2,1.7c-0.4-1.9-0.7-3.2-1.1-5
			c1.7,0,3.1,0,4.6,0c-0.2-0.9-0.4-1.7-0.6-2.3C133,50.6,131.8,50.9,130,51.5z M127.8,221.7c2,0.6,3.6,1,5.7,1.6
			c-0.1-4.3,1.9-6.7,6.2-7c-0.1-0.4-0.3-0.7-0.4-1.1c-2.8-0.8-5.6-1.7-8.6-2.6C129.8,215.9,128.9,218.5,127.8,221.7z M236.2,104.7
			c-0.2-0.2-0.4-0.4-0.6-0.5c-0.7,0.8-2.1,2-1.9,2.4c0.8,2,1.8,4.1,3.4,5.4c0.8,0.7,3.7,0.5,4.3-0.3c0.9-1.2,0.7-3.3,0.9-5
			c0-0.4-0.3-0.8-0.2-1.1c0.3-0.7,0.6-2,1.1-2c0.8-0.1,2.3,0.2,2.5,0.7c0.5,1.2,0.4,2.7,0.6,5.2c0.7-1.5,1.6-2.6,1.4-3.4
			c-0.6-2.5-1.9-5-4.9-4.6c-1.3,0.2-2.5,1.9-3.4,3.2c-0.3,0.5,0.6,1.7,0.3,2.5c-0.4,1.3-1.2,2.5-1.9,3.7c-0.9-1.2-2.1-2.2-2.6-3.6
			C235,106.7,235.9,105.5,236.2,104.7z M57.7,147c-3.3,0-6.4,0.1-9.4-0.1c-0.7,0-1.4-1.1-2.1-1.7c1-0.6,1.9-1.6,2.9-1.6
			c0.9,0,1.8,1.2,2.8,1.9c0.2-2.8-0.9-4.6-3.6-4.7c-2.9-0.1-3.2,2.2-3.1,4.5c0,1.7,0,3.4,0,5.1c4.4,0,8.5,0,12.7,0
			C57.7,149.4,57.7,148,57.7,147z M174.4,221.7c-1.2-3.4-2.2-6.2-3.3-9.1c-3.2,1-5.8,1.8-8.4,2.6c-0.1,0.4-0.3,0.7-0.4,1.1
			c4.4,0.3,6.3,2.7,6.3,7C170.7,222.7,172.3,222.3,174.4,221.7z M62.5,121.1c-3.9-1.1-7.6-2.2-11.4-3.3c-0.1-0.3-0.1-0.7-0.2-1
			c0.9-0.6,2.1-1.9,2.7-1.7c1.2,0.4,2.2,1.7,3.4,2.7c1.1-2.2,0.3-4.2-2.2-5.3c-2.6-1.1-3.5,0.9-4.2,2.9c-0.6,1.8-1.1,3.6-1.4,4.7
			c4.1,1.4,8.1,2.7,12.2,4.1C61.7,123.4,62.2,121.9,62.5,121.1z M168.8,44.9c-0.4,2.5-0.7,4.4-1.1,6.2c-1.1,5.2-0.4,7,3.3,7.9
			c4.2,1.1,5.9-0.3,7.2-5.7c0.5-2,1.1-4,1.7-6c-0.5-0.1-1.2-0.1-1.7-0.2c-0.6,2.9-1,5.8-1.9,8.4c-0.4,1-2.2,2.2-3.3,2.1
			c-1.2-0.1-3.3-1.6-3.2-2.3c0.3-3.2,1.2-6.3,2-9.7C171.3,45.5,169.9,45.2,168.8,44.9z M66,111.8c0.4-0.9,1-2.2,1.2-2.7
			c-3.8-1.8-7.2-3.5-10.5-5.1c0-0.4,0.1-0.8,0.1-1.2c1-0.3,2.3-1.2,3-0.8c1.1,0.6,1.8,2,2.7,3.1c1.2-2.2,1.1-4.5-1.6-5.7
			c-2.7-1.2-3.7,1-4.6,3c-0.7,1.6-1.4,3.1-1.8,3.9C58.4,108,62.1,109.8,66,111.8z M52.4,132.6c-5-0.1-5.6-1.3-3.6-5.7
			c-2.6,2.1-1.9,5.6-2.7,7.9c4.3,0.7,8.4,1.5,12.5,2.2c2-7.1,2-7.6-0.3-8.5c0,1.6,0,3.3,0,5.4c-1.8-0.2-3.2-0.4-5.2-0.7
			c0.6-1.5,1.1-2.8,1.6-4.2c-0.5-0.1-1.4-0.3-2.3-0.5C52.4,129.9,52.4,131.1,52.4,132.6z M222.6,89.9c0.3-0.3,0.6-0.6,0.9-0.9
			c-1.4-1.1-2.8-2.3-4.3-3.5c1.7-1.6,2.8-2.7,4.3-4c0.9,1.5,1.5,2.6,2.2,3.7c0.5-0.3,1.2-0.7,1.7-1c-1.3-1.3-2.3-2.1-3.3-3.2
			c1.3-1.2,2.3-2.1,3.6-3.2c1.2,1.5,2.2,2.8,3.2,4c0.3-0.3,0.7-0.6,1-0.9c-2-2.2-4.1-4.4-5.5-6c-3.4,3.1-6.4,6-9.5,8.9
			C218.6,85.8,220.6,87.8,222.6,89.9z M198.7,128.3c2,2.7,2.3,6.2,6.6,7.4c7.9,2.3,7.7,2.9,10.3,1.3
			C209.8,134,204.2,131.1,198.7,128.3z M98.9,149.4c-0.2-0.4-0.3-0.8-0.5-1.3c-4.8,1.6-8.4,5.6-12.6,8.4c-4.4,3-8.7,6.3-13,9.4
			c1,0.6,1.7,0.8,2.1,0.5C83,160.7,90.9,155,98.9,149.4z M212.3,62.9c-1.1,4.9-2.2,9.6-3.6,15.1c5.2-2.8,9.2-4.9,13.4-7.2
			c-0.7-0.6-1.5-1.3-2-1.6c-1.8,3.1-4.9,3.8-8.1,5c1.1-2.9,2.2-5.7,3.4-8.9C214.6,64.7,213.4,63.8,212.3,62.9z M256.2,138.9
			c-3.4,3.5-6.8,6.7-12.3,4.7c0.1,1.7,0.2,3,0.3,4.7c5.2-3.7,8.7,1,13.2,1.4c-2-1.2-4-2.4-5.9-3.5
			C253.5,143.7,258.5,143.7,256.2,138.9z M72.8,98c-1.7-2.1-2.6-3.7-4-4.7c-1.3-0.9-3-1.2-4.6-1.7c-0.2-0.6-0.4-1.2-0.7-1.8
			c1.2-1.1,2.3-2.1,3.1-2.9c-1.2-0.3-3,1.6-4.8,6.2c3.5,2.4,6.8,4.7,10.2,7.1c4.6-5.9,4.6-5.9,3.4-7.7C74.8,93.9,74.1,95.4,72.8,98z
			 M253.9,127.6c-4.4,0.8-8.1,1.5-11.9,2.2c0.3,1.3,0.5,2.6,0.6,3c4-0.9,7.6-1.8,11.5-2.6c0,2,0,3.3,0,4.6c1.5-1,1.4-7.9-0.2-11
			c-0.3-0.5-1.4-0.5-2.4-0.9C252.5,124.7,253.1,125.9,253.9,127.6z M154.8,78.1c0.1,0.2,0.2,0.4,0.3,0.6c7.3-2.9,14.5-5.9,21.8-8.8
			c-0.1-0.4-0.1-0.8-0.2-1.2c-1.6,0-3.6-0.6-4.9,0.1C166.1,71.7,160.5,75,154.8,78.1z M243.6,197.7c2.3-5.1,4.6-10,6.8-14.9
			c-2.5-0.7-4.2,1.1-6.8,7.7C241.5,195.6,241.6,196.7,243.6,197.7z M51.6,182.5c2.5,5.5,4.8,10.5,7.1,15.4c2.1-1.8,1.8-4.3-1.6-10.3
			C55.8,185.5,55.5,181.9,51.6,182.5z M125.8,68.2c-0.1,0.6-0.2,1.2-0.3,1.7c6.8,2.7,13.5,5.4,20.3,8.2c-4.3-3.3-8.9-6-13.7-8.4
			C130.2,68.8,127.9,68.7,125.8,68.2z M252,117.3c-0.3-0.8-0.8-2.1-0.9-2.6c-4.2,1.4-8.1,2.7-12.2,4.1c0.2,0.6,0.8,2.1,1,2.9
			C243.9,120.3,247.7,118.9,252,117.3z M201.5,71.4c2.3-3.7,4.5-7.3,6.8-11.1c-0.6-0.3-1.8-1.1-2.6-1.5c-2.3,3.7-4.6,7.3-6.8,10.9
			C199.6,70.2,200.9,71.1,201.5,71.4z M98.7,57.4c2.2,3.9,4.2,7.6,6.3,11.3c0.9-0.5,2.2-1.2,3.3-1.9c-3.6-3.1-5.3-6.9-6.4-11.2
			c-1,0.5-2,1-2.9,1.6C98.6,57.4,98.4,57.7,98.7,57.4z M188.2,129.5c0.8,0.3,1.3,0.5,1.7,0.7c2.2,1.4,4.3,2.9,6.6,4.2
			c0.7,0.4,1.8,0.3,2.7,0.4c-0.1-1,0.2-2.2-0.3-3C197,128.1,193.3,127.2,188.2,129.5z M148.9,80.3c-3.3,2.8-5.1,5.7-3.8,9.8
			c1.2-0.1,2.4-0.2,3.8-0.3C148.9,86.7,148.9,83.8,148.9,80.3z M153.2,89.8c1.4,0,2.6,0,3.7,0c1.2-4.1-0.8-6.8-3.7-9.7
			C153.2,83.7,153.2,86.7,153.2,89.8z M133,122.1c3.5,0,6,0,8.7,0c0.1-2.1,0.2-4,0.4-6.6C138.9,117.8,136.3,119.7,133,122.1z
			 M169.6,122.4c-3.1-2.3-6.1-4.4-9.5-6.9C160,119.8,166.1,123.9,169.6,122.4z M222.1,197.9c0.8-2.9,1.4-4.9,1.9-7
			c-0.4-0.2-0.8-0.5-1.2-0.7c-1.7,1.2-3.4,2.4-5.3,3.8C219,195.4,220.1,196.3,222.1,197.9z M80.1,197.8c1.8-1.6,3-2.6,4.6-4
			c-2.2-1.4-3.9-2.5-5.6-3.6c-0.4,0.3-0.8,0.6-1.2,0.9C78.6,193.1,79.2,195,80.1,197.8z M148.5,74.4c-3.1-2.8-3.4-9.1-10.4-8.3
			C142.1,69.3,145.3,71.8,148.5,74.4z M153.6,74.4c3.2-2.6,6.4-5.1,9.6-7.7C157.1,65.6,156.5,71.4,153.6,74.4z M234,168.7
			c-2-0.3-3.3-0.6-5.2-0.9c0.4,2.5,0.7,4.3,0.9,6.1c0.4,0.1,0.9,0.1,1.3,0.2C231.9,172.4,232.8,170.8,234,168.7z M74,114.4
			c3.7-0.9,6.5-1.6,9.3-2.2C80,111.1,76.8,109.9,74,114.4z M68,168.7c1.3,2.1,2.3,3.7,3.3,5.4c0.4-0.1,0.8-0.3,1.2-0.4
			c0.1-1.8,0.3-3.7,0.4-5.9C71.2,168.1,69.9,168.3,68,168.7z M160.6,249.1c3.9-0.7,2.9,2.4,3.9,4.2c0.4-1.5,0.7-3.6,0-4
			c-1.5-0.9-3.6-0.8-5.9-1.3c0.4,2.7,0.7,4.7,1,6.7c0.3,0,0.6-0.1,0.9-0.1C160.6,252.9,160.6,251.1,160.6,249.1z M130.1,92.3
			c0,0.4,0,0.7,0.1,1.1c3.8-0.2,7.6-0.4,11.4-0.6c0-0.4-0.1-0.9-0.1-1.3C137.6,91.7,133.9,92,130.1,92.3z"/>
		<path class="st0" d="M45.5,183.8c-3.5,1.5-4.9-0.9-5.6-3.7c-1.2-4.8-2.3-9.7-2.9-14.7c-7.9-61.6,32.6-117.9,93.6-129.1
			C193.8,24.9,252,66.9,264,127.9c3.4,17.3,2.8,34.5-1.5,51.5c-1.2,4.6-2.6,5.5-5.8,4.3c0.9-2,2.2-4,2.7-6.1
			c13.2-55.5-14-110.4-67-131.3c-41.4-16.3-80.6-9.6-114.5,19.7c-28.5,24.6-40.5,56.9-37.9,94.4c0.4,6.3,2,12.5,3.3,18.8
			C43.5,180.6,44.6,182.1,45.5,183.8z"/>
		<path class="st0" d="M153.3,92.7c1.4-0.2,2.6-0.4,4.2-0.6c1.3,27.6,2.7,55.3,4,83.4c10.9-5.8,21.4-4.6,31.9-0.6
			c6.8,2.6,13.5,1.7,20-1.2c3-1.3,6-2.8,9.9-4.7c-4.1,7.3-10.6,8.7-16.7,10.2c-4.9,1.2-9.8,0.3-14.6-1.4c-10.5-3.8-20.6-4-31,1.4
			c-10.1,5.3-21.2,7.2-32.7,3.9c-5.5-1.6-11.1-3-16.8-3.9c-8.7-1.4-17.1,0.6-25.1,4.4c-1.7-1.9-1.2-2.9,0.9-3.9
			c9.1-4,18.4-5.5,28.1-3.3c6.7,1.5,13.3,3.3,20,4.7c4.6,1,5,0.6,5.2-4c0.7-15.1,1.3-30.2,2-45.3c0.5-12,1.1-23.9,1.7-35.9
			c0.1-1.1,0.4-2.2,0.6-3.4c1.2,0,2.2,0,3.9,0c-0.5,29.2-1,58.2-1.5,87.2c6.4,0.2,7.5-0.7,7.4-6.6c-0.5-26-1-52-1.5-77.9
			C153.1,94.5,153.2,93.6,153.3,92.7z"/>
		<path class="st0" d="M232.7,174.2c9.3-21.3,5.5-63.5-26.7-90.5C175.3,57.9,131.3,57,98.4,82c-31.7,24.1-39.5,66-29,92.4
			c-2.1,1.6-3.6,0.8-4.2-1.5c-1.1-4.1-2.3-8.2-2.8-12.3c-5.3-47.6,26.3-90.2,73.2-98.8c46.9-8.7,93.6,23.2,102.9,70.3
			c2.4,12.2,2.3,24.3-0.1,36.4c-0.3,1.7-0.8,3.5-1.8,4.9c-0.7,1-2.2,1.4-3.4,2C233.1,174.9,232.9,174.5,232.7,174.2z"/>
		<path class="st0" d="M248.8,202.5c4,1.4,2.9,4,1.5,6c-4.6,6.6-9,13.5-14.4,19.5c-19.4,21.7-44,34.3-72.7,37
			c-37.7,3.6-70.2-8.4-96.2-36.2c-5.7-6.1-10.2-13.2-15-20c-1.4-1.9-2.6-4.5,0.8-6.2c10.7,21.2,27.1,36.7,47.8,47.5
			c19.8,10.3,41.1,13.9,63.2,11.4C208.6,256.6,239.7,225,248.8,202.5z"/>
		<path class="st0" d="M217.5,204.9c-4.4-1.5-8.7-3.1-13.1-4.3c-6.2-1.7-10.5-0.9-14.2,2.6c1.7-0.2,3.2-0.7,4.5-0.4
			c1.1,0.2,2.5,1,2.8,1.9c0.3,0.9-0.3,2.9-0.9,3.2c-2.7,1-5.8,2.4-8.4,1.9c-6.8-1.2-13.5-3.3-20.2-5.2c-5.3-1.5-10.4-3.4-15.8-4.5
			c-3.4-0.7-6.9,0.1-9.9,3.4c1.7-0.3,3-0.8,4.1-0.6c1.4,0.3,2.6,1.3,3.9,2c-0.7,1.3-1.1,3.4-2.2,3.8c-2.4,0.9-5.2,1.6-7.6,1.2
			c-6.8-1.4-13.5-3.5-20.2-5.3c-5.1-1.4-10.2-3.3-15.4-4.4c-3.4-0.7-6.9,0-9.9,3.2c1.3-0.1,2.1-0.3,2.9-0.1c1.4,0.4,2.6,1.2,3.9,1.8
			c-0.8,1.4-1.2,3.4-2.4,4.1c-2.8,1.6-5.9,1.2-8.5-0.7c-2.8-2.1-5.3-4.4-8-6.6c0.4-0.5,0.8-1,1.2-1.5c1.9,1,3.7,2.1,5.8,3.3
			c6.9-8.7,15.6-7.7,24.7-4.4c7,2.5,14,5,20.8,7.4c7.2-9.7,13.4-11.7,24.2-8.1c7,2.3,13.9,4.8,20.9,7c1.1,0.3,3.1-0.1,3.7-0.9
			c4.8-7.4,11.8-8.9,19.7-6.9c4.8,1.2,9.4,3.2,14,4.8c-0.3,1.2-0.5,2-0.7,2.8C217.4,205,217.5,204.9,217.5,204.9z"/>
		<path class="st0" d="M217.4,205c2.9-4.1,5.8-8.2,9.1-13c0.3,1,1.4,2.4,1.1,3.5c-0.5,1.9-1.7,3.6-2.8,5.2
			c-30.4,44.4-91.8,52.5-132.3,17.2c-6.4-5.6-11.4-12.8-16.8-19.5c-1.5-1.9-3-4.4,0.1-6.4c15.4,26.2,37.8,41.5,67.9,44
			c29.8,2.5,54.6-8.2,73.8-31.2C217.5,204.9,217.4,205,217.4,205z"/>
		<path class="st0" d="M192.3,138.9c-10.4,5.6-20.1,10.9-30.4,16.5c-0.5-11.8-1-22.6-1.6-34.1c1.6,0.6,2.7,0.9,3.7,1.5
			c2,1.2,3.8,3.4,6.5,1.2c0.3-0.2,1.2,0.1,1.7,0.4C178.6,129,185,133.7,192.3,138.9z"/>
		<path class="st0" d="M99.4,146.5c7.6-5.5,15.1-11,22.7-16.5c0.7-0.5,1.9-0.3,3.6-0.5c3.8-5.2,8.9-7.2,16.1-5.5
			c-0.4,9.1-0.8,18.2-1.3,28c-3.7-2.8-6.8-5.3-10-7.6c-7.1-5-14.3-5.3-21.7-0.6c-2.1,1.3-4.2,2.7-6.5,3.8c-0.8,0.4-1.9,0.2-2.8,0.2
			C99.5,147.4,99.5,146.9,99.4,146.5z"/>
		<path class="st0" d="M166.2,219.2c3.4,10,3.1,10.7-7.5,11.1c-7,0.3-14.1-0.4-21.2-0.7c-3.1-0.1-4-1.6-3.3-4.6
			c1.4-6.3,1.3-6.1,7.8-5.9C150,219.4,158,219.2,166.2,219.2z"/>
		<path class="st0" d="M160.3,112.6c1.1,0.7,2.2,1.3,3.3,2c22.4,14.6,44.7,29.2,67.2,43.6c3.6,2.3,4.8,4.6,2.7,9
			c-24.7-17.9-49.2-35.8-73.8-53.7C159.9,113.3,160.1,113,160.3,112.6z"/>
		<path class="st0" d="M68.7,167.3c-2.2-5.6-2.1-5.8,2.2-8.5c22.7-14.8,45.4-29.6,68.1-44.4c1-0.6,2-1.2,3-1.8
			c0.2,0.3,0.4,0.6,0.6,0.9C118,131.4,93.4,149.3,68.7,167.3z"/>
		<path class="st0" d="M235.3,145.7c-25.5-13.1-50.5-26-75.6-39c0.1-0.3,0.2-0.7,0.4-1c0.9,0.3,1.8,0.6,2.7,1
			c22.5,9.9,44.9,19.8,67.4,29.7C235.6,138.8,235.6,138.8,235.3,145.7z"/>
		<path class="st0" d="M67,145.6c-1-5.1,0.6-7.5,5-9.4c22.5-9.6,44.8-19.6,67.2-29.4c1-0.4,2-0.7,3-1.1c0.1,0.3,0.3,0.6,0.4,0.9
			C117.4,119.6,92.3,132.6,67,145.6z"/>
		<path class="st0" d="M68.6,132.4c-0.1-0.8-0.1-0.9-0.1-1c0.4-6.2,3.4-9.9,9.9-10.7c2.9-0.3,5.7-1.7,8.6-2.3
			c1.3-0.3,2.7,0.2,4.1,0.8c4.6-1.7,9.2-2.6,14.2,0.6c-1,0.6-1.7,1.2-2.5,1.5c-7.8,3.5-15.6,7.2-23.6,10.2
			C76.1,132.8,72.3,132.2,68.6,132.4z"/>
		<path class="st0" d="M160,104.2c4.5-1.7,21.2,3.9,23.2,7.3c4.2-1.2,7.5,0.1,10,3.7c0.4,0.6,1.6,1.1,2.4,1
			c7.6-0.9,13.4,1.6,17.5,8.2c0.5,0.9,2.2,1.2,3.5,1.4c5.1,0.6,9,2.7,11.8,8.4C205.3,124,183,114.3,160,104.2z"/>
		<path class="st0" d="M143.1,97.9c-1.2,0.4-2.5,0.8-3.7,1.1c-16.4,3.8-32.7,7.7-49.1,11.4c-1.9,0.4-4.1,0.1-6.1-0.1
			c-2.5-0.2-4.9-0.6-7.3-0.9c2.8-6.8,13.8-8.1,20.2-2.2c5.8-6,13-7.4,21.1-6.4c2.3,0.3,4.7-1.7,7.1-2.1c5.8-0.9,11.7-1.6,17.5-2.3
			C143,96.9,143.1,97.4,143.1,97.9z"/>
		<path class="st0" d="M142.7,100.7c-23.5,6.9-47,13.7-70.8,20.7c0.3-3.2,0.8-5.5,4.5-6.4c21.5-4.9,43-10.1,64.4-15.1
			c0.5-0.1,1.1,0,1.7,0C142.6,100.2,142.7,100.5,142.7,100.7z"/>
		<path class="st0" d="M230.2,121.4c-24-7-47.5-13.9-71-20.7c0.1-0.4,0.2-0.7,0.3-1.1c6.5,1.5,13,3.1,19.5,4.6
			c15.3,3.6,30.6,7.2,45.9,10.7C228.5,115.6,230,117.6,230.2,121.4z"/>
		<path class="st0" d="M67.2,159.6c-0.3-0.8-0.4-0.9-0.4-1c-2.5-8.7,1.1-13.7,9.4-16.3c2.3-0.7,4.4-2.2,7-3.5
			c0.9,2.2,1.6,4.1,2.5,6.3c0.7-0.1,1.8-0.2,2.8-0.3c0.1,0.2,0.2,0.4,0.4,0.7C81.7,150.1,74.6,154.8,67.2,159.6z"/>
		<path class="st0" d="M86.6,143.5c-0.8-1.9-1.4-3.5-2.2-5.4c8.1-4.2,16.1-8.3,24.2-12.5c2.4,4.1,5.6-0.3,8.9,1.2
			c-1.5,1-2.8,1.9-4,2.7c-5.6,3.7-11.3,7.3-16.9,11C92.1,143.4,92.1,143.4,86.6,143.5z"/>
		<path class="st0" d="M142.6,95c-20.4,2.7-40.8,5.5-62,8.4c1.8-2.9,2.6-5.7,6.3-5.9c17.9-1.1,35.9-2.3,53.8-3.4
			c0.6,0,1.2,0.1,1.8,0.2C142.6,94.5,142.6,94.8,142.6,95z"/>
		<path class="st0" d="M221.4,103.4c-21.1-2.8-41.5-5.6-61.9-8.3c0-0.3,0-0.6,0-1c1.1,0,2.2-0.1,3.3,0c14.4,0.9,28.8,1.8,43.2,2.7
			c2.4,0.2,4.7,0.6,7.1,0.5C217.4,96.9,219.6,99.3,221.4,103.4z"/>
		<path class="st0" d="M142.8,103.3c-0.8,0.5-1.6,1.2-2.4,1.6c-10.4,4.6-20.7,9.1-31.1,13.6c-0.8,0.4-2.2,0.8-2.7,0.4
			c-4.6-3.3-9.5-2.9-14.7-2c16.8-4.9,33.7-9.8,50.5-14.7C142.4,102.6,142.6,103,142.8,103.3z"/>
		<path class="st0" d="M159,87.8c3.9-0.5,7.8-1,11.7-1.4c9.4-0.9,18.9-1.6,28.3-2.8c3.8-0.5,6.5,0.4,8.9,4.1
			c-16.5,0.5-32.6,1.1-48.7,1.6C159.1,88.8,159,88.3,159,87.8z"/>
		<path class="st0" d="M143.1,89.4c-16.1-0.5-32.2-1-48.9-1.6c2.4-3.1,4.4-4.6,8-4.2c12.4,1.4,24.8,2.4,37.2,3.6
			c1.3,0.1,2.6,0.5,3.8,0.7C143.2,88.4,143.2,88.9,143.1,89.4z"/>
		<path class="st0" d="M142.7,109.5c-0.9,0.9-1.6,1.9-2.6,2.6c-4.2,2.9-8.8,5.3-12.8,8.5c-4.9,4-10.4,5.2-16.9,4.2
			c10.5-5.4,20.9-10.8,31.4-16.3C142.1,108.8,142.4,109.1,142.7,109.5z"/>
		<path class="st0" d="M194,127c-12.2-2.3-22.7-8.4-32.8-15.5c-0.8-0.5-1.2-1.5-1.8-2.3c0.2-0.3,0.5-0.6,0.7-0.8
			c11.4,5.9,22.8,11.7,34.2,17.6C194.2,126.4,194.1,126.7,194,127z"/>
		<path class="st0" d="M152.8,157.5c-2.3,0.4-3.8,0.3-3.7-2.4c0.2-6.3,0.1-12.7,0.3-19c0-1,1.2-1.9,1.9-2.8c0.5,0.9,1.4,1.9,1.5,2.8
			C152.9,143.1,152.8,150.2,152.8,157.5z"/>
		<path class="st0" d="M227.6,167.9c0.2,1.1,0.4,1.8,0.3,2.5c-0.1,0.7-0.6,1.3-0.9,2c-3.3,6.7-6.6,13.4-10,20.5
			C215,186.2,221.5,171,227.6,167.9z"/>
		<path class="st0" d="M84.4,193.3c-0.4-0.9-1-1.7-1.3-2.6c-2.9-7.4-5.8-14.9-8.7-22.5C80.1,169.8,87.2,186,84.4,193.3z"/>
		<path class="st0" d="M236.2,86.4c0.5,0.7,1.7,1.9,2.4,3.5c0.7,1.6,1.5,3.6,1,5c-0.3,0.9-2.9,1-5.4,1.7c-0.5,1.3-1.4,3.5-2.4,6.2
			c-3.6-3.7,0.8-6.3,0.9-8.7c1.9-0.4,3.6-0.4,4.9-1.1c0.5-0.3,0.1-2.1,0.1-4.3c-4.2,2.9-7.3,5.1-10.6,7.4c-0.5-0.7-1.3-1.9-1.6-2.4
			C229.1,91.2,232.5,88.9,236.2,86.4z"/>
		<path class="st0" d="M90.7,78.8c-2.8-3.7-5.4-7.1-7.9-10.4c1.5-1.2,3.3-2.6,5.1-3.9c2.7-2,5.4-2.6,8,0.1c2.5,2.6,3,6.4,0.6,9.1
			C94.8,75.7,92.6,77.2,90.7,78.8z M84.9,66.6c3,4,5.1,6.7,7.9,10.5c1.3-2.7,3.2-4.6,2.9-6.3c-0.3-2-2.1-4.4-3.9-5.3
			C90.3,64.7,87.9,66,84.9,66.6z"/>
		<path class="st0" d="M192,76.2c-11.4,2.6-22.4,5.1-33.4,7.6c-0.1-0.3-0.2-0.5-0.3-0.8c1-0.4,2-0.8,3-1.2
			c7.7-2.5,15.5-4.8,23.1-7.5C187.3,73.5,189.5,73.9,192,76.2z"/>
		<path class="st0" d="M110.1,76.3c2.6-2.5,4.8-2.7,7.6-1.8c8.6,2.9,17.3,5.6,26,8.4c-0.1,0.3-0.1,0.6-0.2,0.9
			C132.5,81.4,121.5,78.9,110.1,76.3z"/>
		<path class="st0" d="M122.5,61.5c-3.7-2-7.4-4-12.2-6.6c1.5,3.6,2.6,6.1,3.9,9c-0.3,0.1-1.3,0.6-1.5,0.7c-1.5-4.1-3-8.1-4.6-12.3
			c4.9-1.9,7.6,4.1,12.9,4.5c-1.3-2.8-2.5-5.3-3.8-7.9c0.5-0.2,1.5-0.6,2-0.7c1.3,4.1,2.7,8.2,4,12.2
			C122.9,60.8,122.7,61.1,122.5,61.5z"/>
		<path class="st0" d="M184.7,62.7c-0.3-0.1-1.3-0.5-1.5-0.6c1.8-4,3.4-7.8,5.3-11.9c5.1,1.7,2.5,8.3,6,12.2
			c1.1-2.8,2.1-5.4,3.2-8.1c0.3,0.1,1.2,0.5,1.6,0.7c-1.9,4-3.8,7.8-5.7,11.6c-0.4,0.1-0.7,0.2-1.1,0.3c-1.3-4.1-2.5-8.2-4.1-13.4
			C186.9,57,185.9,59.8,184.7,62.7z"/>
		<path class="st0" d="M130,51.5c1.8-0.6,3-1,4.3-1.4c0.2,0.7,0.4,1.5,0.6,2.3c-1.5,0-2.9,0-4.6,0c0.4,1.8,0.7,3.1,1.1,5
			c1.9-0.6,3.6-1.2,5.2-1.7c0,1.9,0,1.9-7.8,3.3c-0.9-4.1-1.8-8.2-2.6-12.4c6.6-2.1,7.1-2.1,8.4,0.1c-1.6,0-3.1,0-5,0
			C129.7,48.3,129.8,49.6,130,51.5z"/>
		<path class="st0" d="M127.8,221.7c1.1-3.2,2-5.9,3-9.1c3,0.9,5.8,1.7,8.6,2.6c0.1,0.4,0.3,0.7,0.4,1.1c-4.3,0.3-6.4,2.7-6.2,7
			C131.5,222.7,129.8,222.3,127.8,221.7z"/>
		<path class="st0" d="M236.2,104.7c-0.4,0.9-1.2,2-1,2.6c0.5,1.3,1.7,2.4,2.6,3.6c0.6-1.2,1.5-2.4,1.9-3.7c0.2-0.7-0.7-2-0.3-2.5
			c0.9-1.3,2.1-3,3.4-3.2c3-0.4,4.3,2.2,4.9,4.6c0.2,0.8-0.7,1.9-1.4,3.4c-0.2-2.5-0.1-4-0.6-5.2c-0.2-0.5-1.7-0.9-2.5-0.7
			c-0.5,0.1-0.8,1.3-1.1,2c-0.1,0.3,0.2,0.7,0.2,1.1c-0.2,1.7,0,3.8-0.9,5c-0.6,0.8-3.5,1-4.3,0.3c-1.6-1.3-2.6-3.5-3.4-5.4
			c-0.2-0.5,1.2-1.6,1.9-2.4C235.8,104.3,236,104.5,236.2,104.7z"/>
		<path class="st0" d="M57.7,147c0,1,0,2.4,0,3.4c-4.2,0-8.2,0-12.7,0c0-1.6,0-3.3,0-5.1c0-2.3,0.2-4.6,3.1-4.5
			c2.7,0.1,3.8,1.9,3.6,4.7c-1-0.7-1.9-1.9-2.8-1.9c-0.9,0-1.9,1-2.9,1.6c0.7,0.6,1.4,1.6,2.1,1.7C51.3,147.1,54.4,147,57.7,147z"/>
		<path class="st0" d="M174.4,221.7c-2.1,0.6-3.7,1-5.8,1.6c0.1-4.2-1.9-6.7-6.3-7c0.1-0.4,0.3-0.7,0.4-1.1c2.6-0.8,5.2-1.6,8.4-2.6
			C172.2,215.6,173.2,218.4,174.4,221.7z"/>
		<path class="st0" d="M62.5,121.1c-0.3,0.8-0.8,2.3-1,3.1c-4.1-1.4-8.2-2.7-12.2-4.1c0.4-1.2,0.9-3,1.4-4.7c0.7-2,1.6-4,4.2-2.9
			c2.6,1.1,3.3,3.1,2.2,5.3c-1.2-1-2.2-2.3-3.4-2.7c-0.6-0.2-1.8,1.1-2.7,1.7c0.1,0.3,0.1,0.7,0.2,1C54.9,118.9,58.6,120,62.5,121.1
			z"/>
		<path class="st0" d="M168.8,44.9c1.1,0.3,2.5,0.6,3.1,0.7c-0.7,3.4-1.7,6.5-2,9.7c-0.1,0.7,2,2.2,3.2,2.3c1.1,0.1,2.9-1.1,3.3-2.1
			c1-2.6,1.3-5.5,1.9-8.4c0.5,0.1,1.2,0.1,1.7,0.2c-0.6,2.1-1.2,4-1.7,6c-1.3,5.3-3.1,6.7-7.2,5.7c-3.7-0.9-4.5-2.8-3.3-7.9
			C168.1,49.3,168.4,47.4,168.8,44.9z"/>
		<path class="st0" d="M66,111.8c-4-1.9-7.7-3.8-11.6-5.7c0.4-0.8,1.1-2.3,1.8-3.9c0.9-2,2-4.2,4.6-3c2.7,1.2,2.8,3.5,1.6,5.7
			c-0.9-1.1-1.6-2.5-2.7-3.1c-0.6-0.4-2,0.5-3,0.8c0,0.4-0.1,0.8-0.1,1.2c3.4,1.7,6.8,3.3,10.5,5.1C67,109.6,66.4,110.9,66,111.8z"
			/>
		<path class="st0" d="M52.4,132.6c0-1.5,0-2.7,0-4.1c0.9,0.2,1.8,0.4,2.3,0.5c-0.5,1.4-1,2.6-1.6,4.2c2,0.2,3.4,0.4,5.2,0.7
			c0-2,0-3.7,0-5.4c2.3,0.8,2.3,1.4,0.3,8.5c-4.1-0.7-8.2-1.4-12.5-2.2c0.8-2.3,0-5.8,2.7-7.9C46.8,131.3,47.3,132.4,52.4,132.6z"/>
		<path class="st0" d="M222.6,89.9c-2-2.1-3.9-4.1-5.8-6.1c3.1-2.9,6.1-5.7,9.5-8.9c1.5,1.6,3.5,3.8,5.5,6c-0.3,0.3-0.7,0.6-1,0.9
			c-1-1.3-2-2.5-3.2-4c-1.2,1.1-2.2,2-3.6,3.2c1.1,1,2,1.9,3.3,3.2c-0.5,0.3-1.2,0.7-1.7,1c-0.6-1.1-1.3-2.2-2.2-3.7
			c-1.4,1.4-2.6,2.4-4.3,4c1.6,1.3,2.9,2.4,4.3,3.5C223.2,89.2,222.9,89.6,222.6,89.9z"/>
		<path class="st0" d="M198.7,128.3c5.6,2.9,11.1,5.7,16.9,8.7c-2.6,1.6-2.4,1-10.3-1.3C200.9,134.5,200.6,131,198.7,128.3z"/>
		<path class="st0" d="M98.9,149.4c-8,5.7-15.9,11.4-24,17c-0.4,0.3-1.2,0.1-2.1-0.5c4.3-3.2,8.6-6.4,13-9.4
			c4.2-2.8,7.8-6.7,12.6-8.4C98.6,148.5,98.8,148.9,98.9,149.4z"/>
		<path class="st0" d="M212.3,62.9c1.1,0.9,2.4,1.8,3.1,2.4c-1.2,3.2-2.3,6.1-3.4,8.9c3.2-1.2,6.4-1.9,8.1-5c0.5,0.4,1.3,1.1,2,1.6
			c-4.2,2.2-8.2,4.4-13.4,7.2C210,72.5,211.1,67.8,212.3,62.9z"/>
		<path class="st0" d="M256.2,138.9c2.3,4.8-2.7,4.8-4.7,7.4c1.9,1.1,3.9,2.3,5.9,3.5c-4.5-0.5-8-5.2-13.2-1.4
			c-0.1-1.6-0.2-3-0.3-4.7C249.4,145.6,252.8,142.4,256.2,138.9z"/>
		<path class="st0" d="M72.8,98c1.3-2.6,2-4.1,2.7-5.5c1.2,1.7,1.2,1.7-3.4,7.7c-3.4-2.3-6.8-4.7-10.2-7.1c1.8-4.5,3.6-6.5,4.8-6.2
			c-0.8,0.7-2,1.8-3.1,2.9c0.2,0.6,0.4,1.2,0.7,1.8c1.6,0.6,3.3,0.8,4.6,1.7C70.2,94.2,71.1,95.9,72.8,98z"/>
		<path class="st0" d="M253.9,127.6c-0.9-1.7-1.5-2.9-2.3-4.6c1,0.3,2.1,0.4,2.4,0.9c1.6,3.1,1.7,9.9,0.2,11c0-1.3,0-2.6,0-4.6
			c-3.9,0.9-7.5,1.7-11.5,2.6c-0.1-0.5-0.4-1.7-0.6-3C245.8,129.1,249.5,128.4,253.9,127.6z"/>
		<path class="st0" d="M154.8,78.1c5.7-3.1,11.3-6.4,17-9.3c1.3-0.7,3.2-0.1,4.9-0.1c0.1,0.4,0.1,0.8,0.2,1.2
			c-7.3,2.9-14.5,5.9-21.8,8.8C155,78.5,154.9,78.3,154.8,78.1z"/>
		<path class="st0" d="M243.6,197.7c-2-1.1-2-2.2,0-7.2c2.6-6.5,4.3-8.4,6.8-7.7C248.1,187.7,245.9,192.6,243.6,197.7z"/>
		<path class="st0" d="M51.6,182.5c3.9-0.6,4.2,3,5.4,5.1c3.5,6,3.7,8.5,1.6,10.3C56.4,192.9,54.1,188,51.6,182.5z"/>
		<path class="st0" d="M125.8,68.2c2.1,0.5,4.4,0.6,6.3,1.5c4.8,2.4,9.4,5.1,13.7,8.4c-6.8-2.7-13.5-5.4-20.3-8.2
			C125.6,69.4,125.7,68.8,125.8,68.2z"/>
		<path class="st0" d="M252,117.3c-4.3,1.5-8.2,2.9-12.1,4.4c-0.3-0.7-0.8-2.2-1-2.9c4.1-1.4,8-2.7,12.2-4.1
			C251.3,115.2,251.7,116.6,252,117.3z"/>
		<path class="st0" d="M201.5,71.4c-0.5-0.3-1.9-1.2-2.6-1.6c2.3-3.6,4.5-7.2,6.8-10.9c0.7,0.4,2,1.2,2.6,1.5
			C206,64.1,203.8,67.7,201.5,71.4z"/>
		<path class="st0" d="M98.7,57.4c-0.3,0.2,0,0,0.3-0.2c1-0.5,1.9-1.1,2.9-1.6c1.1,4.3,2.8,8.2,6.4,11.2c-1.2,0.7-2.4,1.4-3.3,1.9
			C102.9,65,100.8,61.3,98.7,57.4z"/>
		<path class="st0" d="M73.4,77.9c1.4-1,2.8-1.9,4.2-2.9c0.9,1.5,1.9,3.1,3.2,5.3c1.4,0.2,3.8,0.6,6.2,1c-1.3,1.7-1.3,1.7-10,1.1
			c0,0,0.1,0.1,0.1,0.1c0.1-1.4,0.2-2.9,0.3-4.3c-1.3,0-2.6-0.1-3.9-0.1L73.4,77.9z"/>
		<path class="st0" d="M188.2,129.5c5.1-2.3,8.8-1.4,10.7,2.3c0.4,0.8,0.2,2,0.3,3c-0.9-0.1-2,0.1-2.7-0.4c-2.3-1.3-4.4-2.8-6.6-4.2
			C189.5,130,189,129.8,188.2,129.5z"/>
		<path class="st0" d="M77.1,82.4c1.6,1.6,3.2,3.1,4.9,4.8c-0.4,0.4-1.2,1.3-1.9,2c-3.3-2.9-6.5-5.7-9.8-8.6
			c0.7-0.6,1.9-1.7,3.1-2.8c0,0,0.2,0.2,0.2,0.2c1.2,1.5,2.4,2.9,3.6,4.4C77.3,82.6,77.1,82.4,77.1,82.4z"/>
		<path class="st0" d="M148.9,80.3c0,3.5,0,6.4,0,9.5c-1.4,0.1-2.6,0.2-3.8,0.3C143.8,86,145.6,83.1,148.9,80.3z"/>
		<path class="st0" d="M153.2,89.8c0-3.2,0-6.2,0-9.7c2.9,2.9,4.9,5.5,3.7,9.7C155.8,89.8,154.6,89.8,153.2,89.8z"/>
		<path class="st0" d="M133,122.1c3.3-2.4,6-4.3,9.1-6.6c-0.2,2.6-0.3,4.5-0.4,6.6C139,122.1,136.4,122.1,133,122.1z"/>
		<path class="st0" d="M169.6,122.4c-3.4,1.5-9.6-2.6-9.5-6.9C163.5,118,166.5,120.2,169.6,122.4z"/>
		<path class="st0" d="M222.1,197.9c-2-1.6-3.1-2.6-4.6-3.9c2-1.4,3.7-2.6,5.3-3.8c0.4,0.2,0.8,0.5,1.2,0.7
			C223.4,193,222.9,195,222.1,197.9z"/>
		<path class="st0" d="M80.1,197.8c-0.9-2.8-1.5-4.7-2.2-6.7c0.4-0.3,0.8-0.6,1.2-0.9c1.7,1.1,3.4,2.2,5.6,3.6
			C83.1,195.3,81.9,196.3,80.1,197.8z"/>
		<path class="st0" d="M148.5,74.4c-3.2-2.6-6.4-5.1-10.4-8.3C145.1,65.3,145.5,71.6,148.5,74.4z"/>
		<path class="st0" d="M153.6,74.4c2.9-3,3.4-8.8,9.6-7.7C160,69.3,156.8,71.8,153.6,74.4z"/>
		<path class="st0" d="M234,168.7c-1.2,2.2-2.1,3.8-3,5.4c-0.4-0.1-0.9-0.1-1.3-0.2c-0.3-1.8-0.5-3.6-0.9-6.1
			C230.6,168.1,232,168.3,234,168.7z"/>
		<path class="st0" d="M74,114.4c2.8-4.5,6-3.3,9.3-2.2C80.5,112.8,77.7,113.5,74,114.4z"/>
		<path class="st0" d="M68,168.7c1.9-0.4,3.2-0.6,4.9-0.9c-0.2,2.2-0.3,4.1-0.4,5.9c-0.4,0.1-0.8,0.3-1.2,0.4
			C70.3,172.4,69.3,170.8,68,168.7z"/>
		<path class="st0" d="M160.6,249.1c0,2,0,3.8,0,5.6c-0.3,0-0.6,0.1-0.9,0.1c-0.3-2-0.6-4-1-6.7c2.3,0.4,4.3,0.4,5.9,1.3
			c0.7,0.4,0.3,2.5,0,4C163.5,251.5,164.5,248.3,160.6,249.1z"/>
		<path class="st0" d="M130.1,92.3c3.8-0.3,7.6-0.5,11.3-0.8c0,0.4,0.1,0.9,0.1,1.3c-3.8,0.2-7.6,0.4-11.4,0.6
			C130.1,93,130.1,92.6,130.1,92.3z"/>
		<path d="M84.9,66.6c3-0.6,5.5-1.9,6.9-1.1c1.8,0.9,3.5,3.3,3.9,5.3c0.3,1.6-1.6,3.6-2.9,6.3C89.9,73.3,87.9,70.6,84.9,66.6z"/>
		<path d="M77.3,82.6c-1.2-1.5-2.4-2.9-3.6-4.4c1.3,0,2.6,0.1,3.9,0.1C77.5,79.7,77.4,81.1,77.3,82.6z"/>
	</g>
</g>
</svg>
