<?xml version="1.0" encoding="UTF-8" standalone="no"?>
<svg xmlns:rdf="http://www.w3.org/1999/02/22-rdf-syntax-ns#" xmlns="http://www.w3.org/2000/svg" xml:space="preserve" height="197.33" viewBox="0 0 201.66132 197.3291" width="201.66" version="1.1" xmlns:cc="http://creativecommons.org/ns#" xmlns:dc="http://purl.org/dc/elements/1.1/"><g transform="matrix(1.25 0 0 -1.25 -293.43 275.35)"><g><path d="m313.44 219.48c6.22 0.296 12.817-0.586 18.102-1.685 5.519-1.147 10.501-2.789 15.014-4.701 18.511-7.837 32.062-20.72 40.694-38.307 2.175-4.433 4.092-9.016 5.472-14.243 1.398-5.292 2.228-10.872 2.526-17.189 0.619-13.099-2.155-24.162-6.245-33.117-4.154-9.097-9.696-16.781-16.207-23.293-6.624-6.624-14.153-12.111-23.293-16.207-9.127-4.091-19.632-7.141-31.994-7.438-12.985-0.311-24.139 2.26-33.396 6.105-9.331 3.875-17.08 9.258-23.925 15.576-6.808 6.282-12.431 13.747-16.839 22.662-4.326 8.747-7.425 19.476-7.718 31.712-0.157 6.553 0.411 12.6 1.543 18.102 2.233 10.837 6.587 19.948 11.787 27.713 2.625 3.918 5.536 7.57 8.841 10.875 9.876 9.877 21.743 17.427 37.957 21.259 5.364 1.268 11.332 2.176 17.54 2.176 0.047 0 0.094-0.003 0.141 0"/><path d="m313.34 217.92c-6.0838 0-11.933-0.88984-17.189-2.1325-15.89-3.7554-27.519-11.154-37.198-20.834-3.2399-3.2389-6.0927-6.8179-8.6642-10.658-5.096-7.6097-9.3639-16.538-11.551-27.159-1.1103-5.392-1.666-11.318-1.5121-17.74 0.28714-11.991 3.3242-22.506 7.5636-31.078 4.3198-8.7367 9.8304-16.052 16.502-22.209 6.7071-6.1916 14.301-11.467 23.446-15.264 9.0719-3.7681 20.004-6.2877 32.729-5.9829 12.114 0.29106 22.409 3.2801 31.353 7.2892 8.9582 4.0141 16.337 9.3913 22.828 15.883 6.3808 6.3818 11.812 13.912 15.883 22.827 4.0082 8.7759 6.7257 19.618 6.1191 32.455-0.29204 6.1907-1.1054 11.659-2.4745 16.845-1.3524 5.1225-3.2311 9.6138-5.3635 13.958-8.4594 17.235-21.738 29.861-39.879 37.541-4.4237 1.8738-9.3051 3.4829-14.715 4.607-5.1783 1.077-11.644 1.9414-17.739 1.6513-0.0461-0.003-0.0921 0-0.13818 0" fill="#fff"/><path d="m312.53 213.8c5.735 0.273 11.857-0.258 16.979-1.403 5.159-1.155 9.874-2.465 14.102-4.21 8.744-3.608 15.923-8.606 22.241-14.383 6.587-6.022 11.513-12.556 15.927-20.768 4.205-7.822 7.233-17.893 7.718-28.906 0.536-12.169-1.658-22.622-5.473-31.082-3.85-8.536-8.828-15.499-14.804-21.819-2.876-3.042-6.372-5.833-9.963-8.35-7.172-5.026-15.249-9.067-25.048-11.577-7.433-1.903-16.119-2.741-24.696-2.105-2.735 0.204-5.419 0.712-7.999 1.194-15.451 2.88-27.153 9.277-36.764 18.172-12.62 11.676-21.831 27.443-23.293 50.024-0.773 11.922 2.062 22.626 5.543 30.871 3.618 8.574 8.579 15.914 14.523 22.101 11.986 12.477 27.63 21.128 51.007 22.241"/><path d="m313.02 212.25c-11.507 0-21.216-2.859-29.257-6.595-8.176-3.798-15.178-8.847-20.838-15.014-5.878-6.404-10.674-12.931-14.313-21.539-3.54-8.374-5.955-18.241-5.543-30.17 0.381-11.01 3.397-20.589 7.367-28.486 8.033-15.977 20.243-27.539 37.186-34.518 8.379-3.453 18.735-5.875 30.379-5.473 11.093 0.383 20.805 3.038 28.977 6.875 8.304 3.899 14.899 8.796 20.978 14.875 5.89 5.89 10.933 12.99 14.454 21.399 1.756 4.197 3.451 8.51 4.42 13.471 0.972 4.977 1.472 10.591 1.122 16.558-0.654 11.131-3.432 20.45-7.437 28.415-4.035 8.025-9.149 14.5-15.365 20.487-5.984 5.764-13.269 10.597-21.75 14.103-8.052 3.327-18.754 6.159-30.239 5.612-0.047-0.002-0.094 0-0.141 0" fill="#fff"/><path d="m313.65 211.06c5.387 0.257 11.495-0.494 16.207-1.473 14.496-3.014 25.784-9.716 34.729-18.172 6.058-5.726 11.103-12.285 15.085-20.206 3.874-7.706 6.851-17.44 7.016-28.205 0.179-11.734-1.811-21.366-5.613-29.538-7.438-15.988-19.192-27.983-35.291-35.221-4.118-1.851-8.364-3.38-13.05-4.561-4.754-1.197-10.15-1.631-15.716-1.893-10.713-0.507-21.14 2.064-29.187 5.402-16.609 6.887-28.721 18.448-36.554 34.028-3.948 7.852-6.589 17.226-7.016 28.205-0.228 5.844 0.255 11.382 1.263 16.277 1.016 4.938 2.575 9.219 4.279 13.331 2.627 6.334 6.006 11.584 10.033 16.418 6.535 7.842 14.874 14.641 24.768 19.294 7.921 3.724 17.574 6.314 28.906 6.314 0.047 0 0.094-0.002 0.141 0"/><path d="m313.51 209.45c-11.083-0.001-20.258-2.886-28.064-6.385-12.003-5.38-21.199-13.391-28.065-23.644-6.7-10.006-12.241-22.96-11.647-40.132 0.374-10.798 3.198-19.712 7.016-27.434 3.805-7.693 8.682-14.298 14.664-19.855 5.908-5.489 12.567-10.194 20.908-13.541 8.069-3.239 17.964-5.861 29.046-5.332 5.52 0.262 10.574 0.802 15.226 1.964 13.704 3.423 24.46 10.146 33.046 18.733 5.747 5.748 10.427 12.525 13.962 20.487 3.631 8.177 5.683 17 5.682 28.836 0 10.63-3.279 19.877-7.015 27.433-1.933 3.908-4.178 7.548-6.526 10.735-7.295 9.905-16.812 17.671-29.046 22.662-7.752 3.163-18.013 5.998-29.046 5.473-0.047-0.003-0.094 0-0.141 0" fill="#fff"/><path d="m96.498 20.826c-0.651-0.05-1.723 1.502-2.076 1.744-0.423 0.29-0.961 0.409-1.402 0.701-3.38 2.255-3.969 7.292-7.893 8.596-0.396-1.447 0.562-2.57 0.701-3.945 0.028-0.269-0.097-0.568-0.088-0.877 0.03-0.988 0.548-2.266-0.527-2.193-0.568 0.038-1.341 1.646-1.666 2.105-0.611 0.863-1.272 1.434-1.666 2.104-1.526 2.607 0.192 7.447-2.629 8.419-0.404-0.968 0.067-2.083 0.262-2.982-0.508-0.642-0.685-1.561-1.666-1.578-0.795-0.014-1.78 0.794-1.756 1.578 0.04 1.215 1.973 1.516 2.107 2.982 0.085 0.935-0.404 2.098-0.613 2.807-0.258 0.871-0.531 1.747-1.141 2.193-0.511-2.125-1.725-3.64-2.457-5.437-0.227-0.56-0.145-1.619-1.138-1.49-0.479 0.412-0.24 1.132-0.264 1.666-0.13 2.772-0.598 6.23 0.35 8.33 0.337 0.746 1.036 1.279 1.228 2.017 0.793 3.045-2.224 5.083-3.07 6.491-0.892 1.483-1.406 3.766-1.227 6.226 0.066 0.895 0.637 1.969 0.526 2.807-0.215 1.621-3.061 1.98-3.159 3.945-0.032 0.659 0.191 1.149 0.616 1.317 1.642 0.642 1.988-2.373 2.982-2.456 1.099 2.592 1.841 5.976 3.947 7.456 2.505 1.76 6.064-0.145 8.33-0.791 0.322 1.357-1.018 2.163-0.877 3.419 0.125 1.113 1.915 1.618 2.106 2.897 0.076 0.509-0.19 0.855-0.088 1.227 0.428 1.541 3.623 0.955 3.682 2.63 0.02 0.534-0.672 1.545-1.051 2.368-0.79 1.717-1.888 3.918-2.106 5.877-0.168 1.521 0.479 1.877 0.616 2.894 0.108 0.814-0.119 1.966-0.178 2.982-0.168 2.952-0.278 6.315-0.438 9.115-0.601 10.56 0.296 21.13-0.175 31.49-0.137 3.03-1.154 6.53 0.703 8.07 1.182 0.22 2.224-0.93 2.629 0.26-1.168 1.27-2.5 2.19-4.034 3.33-0.916 0.69-3.555 2.4-3.945 3.42-0.217 0.57-0.249 1.75-0.351 2.55-0.257 1.98-0.338 5.2 1.226 5.61 0.285 0.08 0.953-0.07 1.404-0.09 9.188-0.38 19.878-0.7 29.908-0.7 1.34 0 3.55 0.29 4.21 0s0.62-1.26 0.96-2.01c0.86 2.23 3.82 2.68 5.53 1.14 0.43-0.39 0.67-1.26 1.14-1.32 0.9-0.12 1.58 1.73 2.28 2.1 1.63 0.88 3.74-0.48 4.3-1.57 0.63-1.26 0.28-2.88 2.01-3.07 0.37-0.81 0.7-1.69 0.44-2.46-0.17-0.5-1.01-1.16-1.31-1.58-0.5-0.69-0.82-1.38-1.14-2.19-0.33-0.82-0.4-1.78-0.79-2.63-0.43-0.94-1.28-1.84-2.02-2.46-1.09-0.91-2.53-1.39-3.6-2.28-0.93-0.78-1.17-1.81-1.58-3.16-0.27-0.9-0.72-1.66-0.78-2.28-0.25-2.34 0.98-3.75 0.96-6.13 0.71-0.57 0.5-1.58 0.79-2.55 0.14-0.46 0.52-0.83 0.61-1.23 0.2-0.88 0.21-1.84 0.36-2.71 0.74-4.44 1.77-9.67-0.53-12.81-1.1-1.5-2.94-2.19-3.25-4.38-3.79-3.25-4.65-9.44-6.22-14.912-0.52-1.789-1.44-3.372-2.02-5.088-0.03-0.099-0.07-0.197-0.09-0.264-0.91-3.82-1.08-8.036-1.84-11.839-0.35-1.765-0.85-3.682-1.49-5.348-1.03-2.684-2.03-4.3-3.86-5.965-1.16-1.056-2.15-2.048-4.12-2.018-0.64-0.503-0.69-1.59-0.79-2.63 0.42-0.875 2.19-0.72 2.63-1.842 0.37-0.935-0.43-2.875 0-4.209 0.23-0.721 0.86-0.817 0.96-1.317 0.13-0.627-0.29-1.848-0.43-2.718-0.16-0.917-0.36-1.86-0.53-2.631-0.37-1.625-0.55-3.759-1.23-5.174-0.4-0.851-1.41-1.527-2.102-1.842-0.624-0.281-1.276-0.214-1.754-0.615-1.002-0.84 0.253-3.794-1.578-3.772-0.56 0.008-1.271 0.74-1.754 1.231-0.917 0.924-1.51 1.818-1.756 3.068-1.879 1.512-3.616 3.284-4.121 5.526-0.39 1.728 1.01 3.053 0.965 4.734-0.012 0.463-0.393 1.015-0.438 1.58-0.13 1.618 1.018 3.127 0.787 4.561-0.09 0.555-0.595 0.967-0.701 1.578-0.324 1.859 0.309 4.057-0.176 5.875-0.353 0.185-0.697-0.024-1.052-0.086-1.935 2.039-5.016 2.96-7.366 4.736-0.546 0.413-1.736 1.854-2.455 1.666-0.582-0.152-1.709-3.205-1.929-3.597-0.578-1.03-1.881-2.374-2.018-3.506-0.231-1.884 1.466-3.607 1.49-5.789 0.025-2.159-1.668-5.121 1.053-5.086 0.502 0.49 0.17 1.817 0.701 2.279 2.306 1.001 2.379-2.311 1.141-3.158 2.391-0.868 4.413-2.71 5.701-4.735 0.396-0.621 1.106-1.501 0.703-2.281-4.202 0.565-7.363 2.93-9.211 6.141 0.133-2.199 0.536-3.777 1.93-4.737 1.764-1.213 4.351-1.429 5.701-3.07 0.507-0.615 0.854-1.367 1.314-2.017 0.473-0.665 1.042-1.432 0.877-2.543-2.462-0.174-3.674 1.639-5.699 2.193 0.909-1.131 1.329-1.76 2.367-2.719 0.807-0.745 2.313-1.817 3.42-1.666 0.701 0.095 1.061 0.934 1.842 0.875 0.866-0.064 1.804-1.145 1.666-2.015-0.137-0.872-1.335-0.797-1.402-1.58 2.521 0.84 8.746 2.045 9.998-1.051-1.934-0.465-3.938-0.858-5.789-1.405 0.525-0.806 1.777-1.005 2.894-1.404 1.001-0.355 2.259-1.035 3.244-1.139 0.899-0.092 1.837 0.156 2.717 0.088 2.61-0.201 4.99-1.477 6.67-2.631 0.51-0.348 1.56-0.813 1.31-1.666-1.3-0.275-2.73 0.008-4.03 0.174-1.29 0.167-3.22 0.298-4.03 0.791-0.944 0.569-1.7 1.504-2.81 2.104-1.168 0.632-2.288 1.026-3.684 1.316 0.36-0.732 0.944-1.454 1.49-2.457 0.415-0.76 1.278-1.996 1.141-2.806-0.082-0.481-0.252-0.675-0.469-0.692zm48.212 9.131c-0.27 0.01-0.54 0.032-0.83 0.068-2.85 0.37-4.94 2.94-5.17 5.528-0.77 8.755 12.37 7.901 12.46 0.611 0.04-3.576-2.44-6.354-6.46-6.207zm-91.423 0.025c-0.079 0.001-0.14 0.015-0.17 0.043-0.799 0.785-2.323 1.78-2.633 2.807 1.368 0.303 1.566 2.6 1.141 4.121-1.466 0.244-2.749-0.389-3.771-0.875-0.017-0.541 0.484-0.896 0.087-1.316-1.046-0.197-1.758 1.028-2.457 1.666-0.685 0.627-2.122 1.27-1.666 2.369 0.742 0.16 0.97-0.379 1.58-0.527 1.979-0.484 3.851 0.922 5.788 0.964 0.778 1.408 2.976 2.255 3.07 4.121 0.019 0.407-0.515 1.028 0.088 1.317 0.566 0.096 1.104-0.515 1.578-0.877 0.791-0.606 1.572-1.231 1.842-2.191-0.418 0.05-0.809 0.125-1.315 0.085-1.085-0.381-1.65-1.991-2.369-2.892-0.326-0.41-0.754-0.529-0.877-0.965-0.092-0.326 0.016-0.725 0-1.053-0.07-1.38-0.176-2.905-0.176-4.562 0.359-0.663 1.183-0.862 1.053-2.016-0.158-0.117-0.555-0.222-0.793-0.219zm92.783 1.137c2.51-0.041 3.79 2.699 2.64 5.221-0.87 1.905-3.42 4.203-4.83 4.387-1.32 0.173-2.62-0.61-3.06-1.668-0.86-2.058 0.69-4.685 1.84-5.963 0.62-0.694 1.81-1.755 2.89-1.93 0.18-0.028 0.35-0.044 0.52-0.047zm8.83 5.391c-0.8 0.194 0.3 1.741 0.39 1.935-2.2 2.308-4.31 4.701-6.67 6.84-0.37-0.254-0.85-0.716-1.49-0.437 0.45 1.772 2.24 2.202 2.99 3.683 0.19 0.034 0.93 0.28 0.96-0.088 0.38-0.763-0.62-0.903-0.62-1.578 1.02-0.862 1.78-3.291 3.51-2.894 1.6 0.365-0.23 2.088 0.18 3.244 1.57 0.127 2.16-1.396 2.98-2.104 0.49-0.43 1.41-0.766 0.96-1.666-0.15 0.003-0.22-0.068-0.26-0.175-1.01-0.17-1.13 0.847-1.93 0.875-0.61 0.022-1.35-0.504-1.4-1.051-0.08-0.858 1.29-1.649 1.84-2.194 0.19-0.187 0.54-0.838 0.88-0.877 0.85-0.097 1.63 1.468 2.28 2.106 0.33 0.329 0.99 0.589 1.05 1.141 0.11 1.007-1.2 1.836-0.35 2.806 0.84-0.252 2.19-0.894 2.19-1.931 0-0.593-0.98-1.533-1.49-2.104-1.22-1.364-2.54-2.343-3.77-3.596-0.42-0.43-1.3-1.847-1.75-1.927-0.21-0.036-0.36-0.036-0.48-0.008zm-112.59 2.691c-0.204-0.006-0.405 0.079-0.592 0.297-1.729 2.015-4.558 4.983-6.139 6.754-0.124 0.576-0.402 1.001-0.527 1.578 0.825 0.81 1.352 1.921 2.631 2.279 1.486-0.886-0.572-2.129-0.614-3.158-0.038-0.971 0.819-1.618 1.579-2.103 1.567 1.343 3.582 3.377 5.437 4.912 0.499 0.414 1.62 1.215 1.668 1.84 0.038 0.502-0.464 0.83-0.352 1.316 0.993 0.493 1.709-0.773 2.192-1.404 0.59-0.77 1.371-1.615 1.492-2.367-0.735-0.56-1.119 0.515-1.754 0.615-1.174-1.144-2.468-2.141-3.683-3.246-1.192-1.082-2.49-2.167-3.42-3.508 0.55-0.585 0.973-1.768 1.839-1.754 0.9 0.015 1.842 2.298 2.895 0.877-0.003-0.816-0.579-1.111-1.053-1.666-0.358-0.421-0.989-1.245-1.599-1.262zm-9.354 10.67c-0.192 0.013-0.446 0.213-0.623 0.238-0.357 1.72-1.968 2.648-2.191 4.209 0.072 0.22 0.305 0.279 0.437 0.44 0.743-0.076 0.768-0.868 1.403-1.051 2.668 1.774 5.714 3.171 7.982 5.348-0.054 0.467-0.257 1.285 0.174 1.49 1.607-0.789 2.18-2.614 3.07-4.121-0.246-0.164-0.396-0.422-0.789-0.44-0.509 0.28-0.514 1.065-1.141 1.229-2.65-1.851-5.232-3.769-7.804-5.699 0.15-0.467 0.212-1.542-0.352-1.58-0.045-0.051-0.102-0.067-0.166-0.063zm135.49 1.203c-0.2 0.028-0.19 0.271-0.35 0.35-0.09 0.565 0.56 1.017 0.53 1.58-0.04 0.694-1.16 1.889-1.58 2.543-1.18 1.849-2.24 3.361-3.51 4.912-0.6 0.729-1.61 1.709-0.96 2.719 2.46 0.02 5.75-0.342 8.33-0.526 0.94-0.067 2.21-0.351 2.89-0.177 0.94 0.237 0.91 1.861 2.2 1.49 0.03-1.456-0.72-2.204-1.14-3.156-0.24-0.528-0.41-1.486-1.23-1.317-0.39 0.348-0.02 1.449-0.27 1.932-1.88 0.425-4.5 0.263-6.48 0.613-0.63 0.111-1.41 0.541-1.76-0.088 1.64-2.309 3.28-4.612 5-6.84 0.55 0.304 0.72 1.433 1.75 0.963-0.1-0.852-0.79-1.57-1.31-2.455-0.58-0.972-0.97-2.434-2.11-2.543zm-140.17 6.242c-0.068-0.016-0.227 0.108-0.235 0.161-0.311 0.126-0.261 0.617-0.351 0.964-1.379 1.497-4.13 3.967-2.805 7.018 0.357 0.825 1.345 1.896 2.455 2.016 1.748 0.188 2.884-1.187 4.033-2.194 0.959-0.837 2.705-2.522 3.86-2.367 0.695 0.095 1.503 1.381 1.492 2.191-0.014 0.934-1.308 2.488-2.457 2.633-1.146 0.144-1.904-0.726-3.069-0.176-0.762 1.38 0.805 1.635 1.666 2.104 0.817 0.445 1.655 0.886 2.368 0.527 0.583-2.427 2.953-2.991 2.894-5.701-0.039-1.811-1.38-3.485-2.455-3.859-4.025-1.396-6.637 4.442-8.332 4.472-0.624 0.012-1.183-0.499-1.316-1.05-0.395-1.642 0.972-3.715 2.193-3.948 1.431-0.272 2.37 0.98 3.332-0.349-0.584-1.288-1.817-1.926-3.244-2.369 0.007-0.045-0.007-0.067-0.029-0.073zm148.24 7.44c-0.51 0.222-0.14 1.319-0.35 1.842-2.63 1.49-6.02 2.222-8.68 3.683-0.7-0.24-0.83-1.049-1.23-1.58-0.39-0.036-0.68 0.027-0.87 0.178 0.11 0.896 0.71 1.715 1.05 2.629 0.29 0.807 0.37 2.218 1.57 2.193 0.48-0.374 0.05-0.915 0.09-1.578 2.85-1.221 5.94-2.187 8.86-3.332 0.58 0.179 0.6 0.916 1.49 0.787 0.33-0.897-0.41-1.724-0.7-2.543-0.29-0.796-0.22-2.112-1.23-2.279zm-152.59 5.943c-0.158 0.01-0.31 0.045-0.451 0.108-2.6 1.163-3.148 4.114-3.948 7.191-0.381 1.473-1.149 2.24-0.261 3.158 1.2 0.149 0.751-1.354 1.402-1.754 2.905 1.194 9.214 0.747 9.91 3.946 0.266 0.126 0.524 0.016 0.789-0.088-0.23-1.489 1.369-3.127 0.526-4.647-0.73-0.331-0.797 0.708-1.315 0.875-1.206-0.665-3.537-0.203-4.033-1.576 1.092-2.224 5.745-1.756 7.365-3.598 0.285-0.323 1.611-2.487 0.09-2.804-0.892 2.265-5.026 1.754-6.666 2.98-0.499-0.667-0.256-1.213-0.527-1.842-0.381-0.882-1.779-2.017-2.881-1.949zm155.83 1.774c-0.13 0.009-0.27 0.065-0.43 0.175-0.26 0.592 0.09 1.151 0.09 1.756-1.35 0.763-3.01 1.104-4.56 1.576-1.6 0.485-3.19 0.942-4.74 1.405-0.53-0.234-0.41-1.108-1.32-0.965-0.49 0.371 0.08 0.903 0.27 1.49 0.28 0.885 0.22 2.423 1.23 2.545 0.49-0.124 0.28-0.94 0.61-1.228 1.2-0.342 2.37-1.099 3.86-0.877 1.52 3.317-3.57 4.587-3.86 7.367-0.04 0.382-0.2 2.348 1.23 2.015 0.19-2.133 1.71-2.884 2.8-4.033 0.54-0.567 0.85-1.231 1.41-1.754 1.3 0.737 1.42 2.096 3.15 2.104 1.44 0.007 2.63-1.395 2.81-3.069 0.26-2.403-0.76-3.42-1.4-5.437-0.31-0.978-0.28-3.139-1.15-3.07zm-156.03 0.783c2.056 0.186 3.041 3.529 1.064 4.656-0.897-0.68-2.869-0.29-3.508-1.228 0.312-1.458 0.682-3.263 2.018-3.42 0.146-0.018 0.289-0.021 0.426-0.008zm156.3 3.515c0.94 1.505 1.26 4.791-0.79 5.086-2.06 0.294-2.78-1.865-3.07-3.771 0.95-0.78 2.25-1.201 3.86-1.315zm-160.88 6.508c-0.168 0.011-0.334 0.033-0.493 0.069-1.22 2.982-1.743 7.443-1.929 11.666-0.071 1.636-0.135 3.55 0.439 4.47 1.249 0.255 0.776-1.213 1.404-1.578 1.943 0.638 3.921 1.507 5.7 2.194 0.571 0.22 1.398 0.33 1.666 0.96-1.202 0.67-2.426 1.36-3.684 2.02-1.221 0.65-2.434 1.49-3.769 1.76-0.144-0.72-0.397-2.02-1.405-1.32 0.154 0.95 0.153 2.46 0.262 3.77 0.073 0.87 0.276 1.8 0.879 2.1 0.784-2.77 3.247-3.21 5.787-4.64 0.763-0.43 1.374-1.03 2.545-1.41 1.34-0.42 3.26-0.72 2.629-2.63-3.444-1.377-6.844-2.798-10.348-4.118-0.922-0.856-0.978-2.983-0.176-4.033 3.094 0.237 6.056 0.609 9.209 0.787 0.367 0.54 0.458 1.355 1.053 1.668 0.93-0.32 0.567-1.208 0.613-2.018 0.055-0.984 0.259-2.15 0.44-3.246 0.184-1.12 0.598-2.463 0.439-3.244-0.331-1.608-2.605-1.401-3.949-2.106-0.754 1.898 2.087 1.969 2.369 3.332 0.238 1.155-0.2 2.96-0.965 3.596-1.322-0.552-3.899 0.218-3.947-1.314-0.027-0.92 1.058-1.285 1.842-1.668-0.015-1.855-2.884-0.857-3.857-1.754-0.345 0.24-0.858 0.313-0.965 0.791 0.39 0.994 1.87 0.873 1.927 2.015 0.032 0.594-0.447 1.206-0.875 1.317-1.03 0.269-2.032-0.822-3.158-0.613-0.477-1.509-0.145-3.608 0.614-4.649 0.694-0.376 1.747-0.05 1.929-0.789 0.234-0.948-1.051-1.461-2.226-1.385zm159.34 5.014c-1.31-0.001-2.69 0.393-3.63 0.932-1.5 0.853-3.55 3.291-3.16 5.789 0.21 1.385 1.79 2.431 1.14 4.121 0.59 1.085 1.94 0.228 3.07 0.525 0.67 0.178 0.86 1.31 1.66 0.79 0.06-1.43 0.8-4.196-0.61-4.559-0.45 0.727-0.36 1.814-1.23 1.927-1.32 0.174-2.5-1.812-2.98-2.804 0.19-4.933 9.62-5.562 10.88-1.317 0.77 2.615-1.54 3.742-2.9 4.91 0.56 0.86 2 0.832 3.33 0.704 0.43-0.679 0.19-1.301 0.27-1.93 0.14-1.126 0.68-2.069 0.61-3.334-0.12-2.423-2.88-5.063-5.17-5.611-0.41-0.098-0.84-0.143-1.28-0.143zm-5.3 14.787c-0.37-0.04-0.6 0.05-0.79 0.18 0.17 1.86-0.51 2.88-0.35 4.73 1.24 0.57 0.94-1.08 1.49-1.49 2.95 0.56 6.44 0.58 9.38 1.14 0.38 0.6 0.44 2.01 1.49 1.4-0.46-1.89 0.94-3.52 0.18-5.17-1.13-0.13-0.72 1.27-1.32 1.67-1.21-0.02-2.89-0.18-4.55-0.35-2.29-0.24-5.51 0.09-5.53-2.11zm-143.22 5.18c-1.098-0.11-0.728 1.26-1.053 1.93-3.215 0.47-6.336 1.03-9.472 1.57-0.38-0.46-0.386-1.61-1.227-1.4-0.8 0.21-0.095 1.76 0.088 2.81 0.227 1.29 0.393 2.5 0.789 2.98 0.32 0.03 0.569-0.01 0.789-0.09 0.232-0.6-0.136-1.25 0.088-1.84 1.912-0.47 4.725-1.14 6.754-1.67 0.743-0.19 1.835-0.64 2.365-0.52 0.727 0.16 0.678 1.36 1.58 1.22 0.755-0.84-0.117-1.95-0.264-2.98-0.108-0.76 0.004-1.48-0.437-2.01zm141.9 2.62c-0.19 0-0.37 0.05-0.43 0.18 0.3 1.22-1.21 2.97 0.26 3.6 0.51-0.25 0.56-1.1 1.31-1.23 0.96-0.17 2.31 0.63 3.6 0.79 1.45 0.18 2.92 0.1 3.42 0.96-2.94 2.27-7.01 3.4-10.52 5.09-0.09 0.58 0.09 0.9 0.26 1.23 1.92 0.63 4.52 1.64 6.58 2.28 1.73 0.54 3.28 0.74 3.07 2.89h0.87c0.25-1.36 1.06-2.61 0.88-4.12-1.14-0.26-0.87 0.89-1.58 1.05-1.2-0.33-2.46-0.56-3.59-0.96s-2.26-0.79-3.16-1.41c3.12-1.85 6.87-3.07 9.91-4.99 0.5-1.17 1.18-2.61 0.96-4.21-1.63-0.23-1.05 1.75-1.92 2.28-2.22-0.25-5.33-1.26-7.46-1.58-0.29-0.05-0.72 0.04-0.97-0.09-0.62-0.33-0.51-1.25-0.96-1.67-0.13-0.04-0.34-0.09-0.53-0.09zm-140.22 6.48c-0.246-0.02-0.48 0.05-0.623 0.1-2.53 1-6.652 1.37-9.207 2.46-0.73-0.33-0.586-1.98-1.842-1.49-0.126 0.81 0.198 1.81 0.439 2.72 0.213 0.8 0.269 2.14 1.403 2.02 0.492-0.27 0.107-1.42 0.349-1.93 1.112-0.33 2.256-0.76 3.422-1.14 1.106-0.37 2.32-0.97 3.42-0.8-0.501 3.66-5.873 6.29-5.262 11.23 0.123 0.99 0.667 2.75 1.842 2.11 0.353-0.87-0.447-1.3-0.264-2.28 1.317-0.78 2.862-1.19 4.297-1.76 1.462-0.58 2.893-1.2 4.387-1.66 0.659 0.23 0.662 1.33 1.666 0.96 0.399-0.66-0.069-1.72-0.352-2.45-0.268-0.7-0.472-1.93-1.492-1.5-0.37 0.25-0.015 1.22-0.263 1.58-0.9 0.7-2.162 1.09-3.332 1.58-1.159 0.49-2.427 1.26-3.506 1.14 0.91-2.69 2.483-4.78 3.945-6.84 0.805-1.13 1.797-2.09 1.666-3.68-0.191-0.26-0.448-0.36-0.693-0.37zm136.01 7.65c-0.99 1.19-1.25 3.13-2.1 4.47 0.26 0.24 0.34 0.65 0.88 0.61 0.56-0.27 0.48-1.51 1.31-1.57 0.45-0.04 1.54 0.78 2.11 1.05 2.14 1.03 5.08 2.01 6.49 3.24-0.02 0.57 0.02 1.08 0.35 1.32 0.95-0.13 1.18-1.37 1.49-2.19 0.35-0.95 0.74-1.81 1.05-2.46-0.95-1.25-1.3 0.9-2.1 1.14-2.81-1.46-5.96-2.58-8.69-4.12 0.04-0.66-0.01-1.22-0.35-1.49h-0.44zm-2.8 6.14c-0.82-0.05-1.12 1.43-1.41 2.1-0.46 1.08-0.9 1.39-0.26 2.02 0.79-0.09 0.85-0.9 1.67-0.97 0.86 1.04 1.86 1.94 2.54 3.16-0.63 0.74-1.01 1.73-1.75 2.37-1.29-0.29-2.91-0.25-3.95-0.79-0.33-0.46 0.46-1.38-0.09-1.75-0.73 0.03-1.32 0.9-1.75 1.57-0.46 0.73-0.93 1.69-0.97 2.46 0.86 0.23 1.17-0.51 1.58-0.44 2.62 0.61 5.86 1.39 8.51 2.02 1.27 0.3 4.11 1.42 3.68-0.88-0.15-0.8-1.31-1.8-1.75-2.37-1.85-2.38-3.92-4.79-5.61-6.84 0.27-0.81 0.21-1.63-0.44-1.66zm-128.31 1.49c-0.111-0.02-0.256 0.04-0.35 0.08-1.397 0.6-2.485 0.9-4.123 1.58-0.642 0.27-3.32 1.9-3.945 1.76-0.67-0.16-0.865-2.12-2.017-1.14 0.103 0.64 0.573 1.43 0.964 2.37 0.505 1.2 0.741 3 2.016 2.19 0.3-0.66-0.21-1.09-0.174-1.76 2.33-1.7 5.038-3.03 8.156-3.94 1.514 0.67 2.939 2.12 2.719 4.03-0.19 1.62-2.587 2.4-4.033 3.25-1.476 0.86-2.779 1.77-3.861 2.19-0.545-0.36-0.538-1.28-1.666-1.05-0.259 1.03 0.613 2.03 1.14 2.98 0.469 0.83 1.103 2.25 2.192 2.1 0.507-0.68-0.251-1.38-0.35-2.01 1.256-1.15 2.759-1.75 4.297-2.64 1.49-0.86 3.805-2.22 3.949-4.03 0.261-3.32-2.238-5.48-4.914-5.96zm131.82 6.05c0.68 0.51 1.26 1.14 1.58 2.02-1.13 0.04-2.01-0.16-2.46-0.79 0.16-0.54 0.4-1.01 0.88-1.23zm-52 24.35c-3.38 0.09-5.61 3.48-3.87 6.34 0.45 0.75 1.73 1.82 2.8 1.93 1.2 0.13 2.98-0.55 2.99-1.58-1.04-0.49-1.19 0.4-1.93 0.36-1.71-0.1-2.67-3.36-1.76-5.09 0.85-1.61 2.89-1.3 3.69 0.09 1.75 3.06 0.23 7.78-2.11 9.64-0.76 0.61-1.72 0.49-1.75 1.84 0.47 0 1.07-0.08 1.49-0.26 3.23-1.32 7.15-6.99 4.47-11.22-0.62-0.98-1.86-1.87-3.33-2.02-0.24-0.03-0.47-0.03-0.69-0.03zm-10.17 0.19c-0.68 0.01-1.3 0.21-1.42 0.72 0.31 0.5 1.22 0.42 1.49 0.96 0.04 3.23-0.04 6.33-0.08 9.47-0.32 0.27-1.02 0.16-1.23 0.53-0.07 1.19 0.88 0.48 1.66 0.44 1.02-0.06 3.14 1.03 3.16-0.53-0.31-0.39-1.21-0.19-1.4-0.7-0.19-3.47-0.15-7.16-0.44-10.52-0.34-0.21-1.07-0.38-1.74-0.37zm-9.311 0.01c-2.139 0.01-4.48 1.34-4.209 3.86 0.464 1.03 1.399 1.59 2.191 2.28-0.966 1.32-2.728 1.58-2.543 3.69 0.152 1.73 2.41 2.87 3.948 2.98 2.353 0.16 4.954-1.31 4.994-3.6 0.01-0.43-0.07-1.35-0.43-1.93-0.37-0.57-1.742-0.92-1.67-1.66 0.058-0.6 1.09-0.88 1.31-1.41 1.07-2.51-1.54-4.21-3.591-4.21zm-11.871 0.45c-0.404 0.03-0.719 0.2-0.846 0.69 0.314 0.42 1.099 0.37 1.404 0.79 0.124 3.01 0.15 6.57 0.086 9.48-0.43 0.36-1.36 0.21-1.49 0.87 0.185 0.38 0.561 0.63 1.051 0.62 0.427-0.02 0.75-0.42 1.142-0.44 0.833-0.05 2.851 1.1 2.807-0.53-0.237-0.32-1.038-0.07-1.23-0.44-0.41-3.39 0.166-7.76-0.614-10.78-0.715 0.05-1.637-0.3-2.31-0.26zm11.863 0.66c1.175 0.05 2.091 0.98 2.025 2.23-0.035 0.68-0.62 1.57-1.14 1.66-0.674 0.12-3.055-1.41-2.895-2.63 0.082-0.62 0.523-1.06 1.493-1.23 0.176-0.03 0.349-0.04 0.517-0.03zm-0.432 5.74c0.847 0.18 2.666 1.74 2.721 2.71 0.059 1.07-0.745 1.57-1.404 2.11-1.709 0.09-3.203-0.55-3.332-1.93-0.086-0.92 1.169-3.07 2.015-2.89z" transform="matrix(.8 0 0 -.8 234.75 220.28)"/><path d="m105.04 23.273c-1.43 0.155-2.53 0.637-3.6 1.139 1.18-0.042 2.95-0.267 3.6-1.139zm-10.528 0.965c-1.8 0.802-2.764 2.44-3.774 4.033 1.768-0.835 3.001-2.204 3.774-4.033zm9.048 0.641c-0.3-0.003-0.68 0.158-0.72 0.412 0.25 0.114 0.87-0.039 0.97-0.352-0.07-0.039-0.15-0.059-0.25-0.06zm-0.81 0.324c-0.66 0.039-1.53-0.129-1.57 0.526 0.67-0.028 1.22-0.185 1.57-0.526zm-18.764 2.631c-0.727 0.627-1.514 2.096-1.226 3.156 0.277-1.077 1.748-1.861 1.226-3.156zm8.332 2.367c-0.007 0.153 0.02 0.272 0.086 0.35 0.224-0.01 0.343-0.126 0.354-0.35h-0.44zm-2.121 0.533c-0.229 0.035-0.435 0.161-0.597 0.432 0.873 0.06 2.071 1.175 2.806 0.264-0.618-0.086-1.521-0.8-2.209-0.696zm-6.654 0.981c-0.427-0.161-0.829 0.938-0.258 1.117 0.216-0.251 0.47-0.467 0.44-0.965-0.06-0.081-0.121-0.129-0.182-0.152zm2.098 0.666c-0.77 0.086-1.009 0.924-0.953 1.504 0.961 0.025 1.308-0.562 1.316-1.49-0.132-0.022-0.253-0.026-0.363-0.014zm2.205 0.291c-0.577-0.077-0.91 0.471-0.877 1.125 0.24 0.222 0.611 0.178 0.963 0.088 0.217-0.345 0.292-0.655 0.177-1.141-0.092-0.038-0.181-0.061-0.263-0.072zm-9.996 1.738c-0.11-0.006-0.237 0.002-0.354 0.002-0.026 0.436 0.122 0.698 0.615 0.611v-0.525c-0.057-0.06-0.151-0.081-0.261-0.088zm17.295 2.369c-0.713-0.005-0.983 1.271-0.457 1.754 0.891 0.101 0.925-1.017 0.787-1.666-0.119-0.059-0.229-0.087-0.33-0.088zm1.47 2.28c-3.65-0.079-6.292 2.619-6.576 6.052-0.041 0.489-0.226 1.283 0.438 1.578 1.073-2.588 2.926-4.753 5-6.314 0.488-0.367 1.248-0.903 1.138-1.316zm-23.064 0.087c0.005 0.152-0.067 0.225-0.176 0.264 0.589 0.83 0.802 1.906 1.051 3.069 0.141 0.657 0.141 1.708 0.965 1.753 0.111-2.068-0.525-4.149-1.84-5.086zm24.556 0.088c0.625 0.924 1.522 1.58 2.543 2.106-0.33-1.215-1.048-2.052-2.543-2.106zm-15.086 0.088c-1.38 0.463-2.509 1.933-3.507 3.071 1.22-0.627 3.18-1.263 3.507-3.071zm-3.011 0.823c-0.494-0.028-1.039 0.609-0.584 1.019 0.236-0.35 0.755-0.415 0.789-0.965-0.066-0.033-0.135-0.051-0.205-0.054zm17.131 0.406c-3.12 2.375-5.575 5.415-6.225 10.261 0.485-0.41 1.115-0.156 1.93-0.263 0.87-0.115 1.912-0.797 2.804-1.404 0.74-0.503 2.299-1.232 2.457-1.752 0.102-0.339-0.089-2.844-0.175-3.422-0.157-1.035-1.129-2.196 0.261-2.367 1.572 2.375 0.441 7.454 4.037 7.804-0.02-1.239-0.38-2.136-0.79-2.982-1.551 0.05-2.889-2.512-1.4-3.332 0.57 0.132 0.82 1.048 1.31 0.965-1.01-1.559-2.526-2.619-4.209-3.508zm-0.649 2.439c0.269-0.02 0.55 0.061 0.826 0.28-0.161 1.505-0.648 2.685-2.193 2.806-0.736-0.996 0.201-2.997 1.367-3.086zm-22.941 0.455c-0.429 0.554 0.056 1.451 0.525 1.666-0.212-0.518-0.008-1.453-0.525-1.666zm8.506 1.227c-1.999 0.341-3.877 2.025-4.471 3.771 0.951-0.142 1.57-1.109 2.279-1.754 0.746-0.68 1.658-1.206 2.192-2.017zm-0.264 1.404c-0.66 0.539-1.624 0.773-1.666 1.928 0.85-0.29 1.863-0.882 1.666-1.928zm17.143 3.092c-0.578 0.025-1.17 0.305-1.532 0.766 0.909-0.153 1.458 0.905 0.965 1.58-0.794-0.025-1.23-0.778-2.015-0.528 0.475 0.474 1.211 0.261 1.314 0.965 0.259 1.774-3.396 1.585-2.631-0.527-1.047 0.106-0.686 0.993-0.615 1.668 0.09 0.827-0.257 1.841-0.35 3.068-0.102 1.343 0.217 2.736 0 3.686-0.3 1.312-1.597 1.997-1.842 3.068 0.609 0.546 1.565 0.909 2.631 1.316 0.875 0.332 2.01 1.024 2.895 1.051 0.466 0.015 1.421-0.35 2.103-0.525 1.441-0.368 2.511-0.77 2.901-1.93-2.52 0.589-3.179-2.049-3.864-3.859-2.211-0.216-3.668-1.186-4.474-2.807 0.719-0.88 1.549 0.609 1.756 0.791 1.301 1.155 3.576 0.5 4.472-0.703 0.31-0.41 1.29-2.8 0.35-3.068-1.08-0.307-0.79 1.692-1.666 1.84 1.426 1.525-2.34 3.325-2.104 0.615 0.175-0.293 0.472-0.463 0.877-0.526-0.055-0.356-0.302-0.516-0.263-0.964 2.084-0.168 0.566-3.936 2.546-4.211-0.31-0.56-0.876-0.791-1.454-0.766zm2.094 2.113c-0.07 0.008-0.14 0.028-0.2 0.057-0.01 0.299 0.32 0.258 0.61 0.262-0.02-0.261-0.21-0.342-0.41-0.319zm-8.975 0.057c-0.768 0.031-1.197 0.835-1.053 1.49 0.702-0.086 0.933-0.644 1.228-1.14-0.118-0.058-0.163-0.188-0.175-0.35zm0.527 1.578c-0.639 0.764-1.47 1.805-1.49 2.895 0.559-0.805 2.066-1.532 1.49-2.895zm-18.506 0.701c-2.191 0.306-2.795 3.559-2.892 5.789-0.04 0.905-0.098 2.077 0.263 2.28 0.379 0.215 1.02-1.032 1.225-1.579 0.312-0.825 0.49-1.805 0.791-2.281 0.286-0.452 0.705-0.645 0.789-1.053 0.202-1.002-0.372-2.085-0.176-3.156zm18.418 2.281c-0.674 0.882-2.03 1.896-1.58 3.332 0.733-0.847 1.681-1.944 1.58-3.332zm0.088 3.069c-0.507 1.014-1.635 1.407-1.668 2.894 0.98-0.425 2.072-1.668 1.668-2.894zm-19.031 3.947c-0.945 0.313-1.079 1.436-1.492 2.279 0.571 1.432 0.942 2.953 1.666 4.473 0.572 1.2 1.681 2.984 3.07 3.158 0.635 0.08 1.556-0.214 2.281-0.351 2.36-0.445 4.323-1.192 5.963-2.192 0.098-1.497 0.765-2.837 0.44-4.472-0.918 0.202-1.632 0.428-2.37 0.877-1.161 0.708-3.314 3.521-5.086 3.244-0.976-0.153-1.999-1.961-2.544-3.069-0.72-1.467-1.153-3.179-1.928-3.947zm17.803 0.877c0.9 1.14 1.907 1.984 3.334 3.156 0.64 0.528 2.654 2.622 3.507 2.631 0.838 0.01 2.075-1.316 2.635-1.928 0.83-0.915 1.28-1.777 1.84-2.718-1.42 0.352-3.194 1.743-4.826 1.666-0.423-0.02-0.982-0.341-1.49-0.526-1.858-0.672-3.277-1.648-4.825-2.281h-0.175zm13.246 0.088c-1.25 3.342-3.52 5.668-6.844 6.928-2.95-1.932-5.326-4.441-7.895-6.754-0.867 0.623-1.744 1.238-2.629 1.843-0.141 1-0.262 2.02-0.441 2.983 0.98 0.511 0.836 2.146 1.055 3.42 1.213 0.556 0.946 2.213 1.492 3.244 0.275 0.522 1.335 1.509 1.93 1.578 1.505 0.171 2.167-1.441 3.681-0.877-0.287 1.263-1.511 1.588-2.631 2.018 0.282 0.461 0.707 0.862 0.877 1.314 0.372 0.991 0.93 3.737 0.176 3.772-0.489 0.023-0.743-1.069-0.877-1.491-0.372-1.171-0.588-2.232-0.351-3.419-1.467-0.259-2.39-1.06-3.596-1.579-0.005 0.823-0.004 1.64 0.437 2.016 0.134-0.453 0.18-0.991 0.791-0.965 0.758 1.581 1.093 3.586 1.666 5.35 2.482 0.742 4.88 2.744 8.157 1.842 1.082-1.754 0.401-5.269 1.492-7.016h0.79c0.06 2.55-0.58 4.388-0.53 6.928 1.25 0.253 2.11-0.553 3.07-0.875 0.06-2.147 1.35-3.955 0.7-6.229-0.99 0.189-2.97 0.821-2.8-1.139 0.82-0.768 1.59 0.25 2.28 0.262 1.43 0.026 2.01-1.324 1.93-2.631-0.08-1.288-1.42-2.731-0.18-3.42 0.7 0.873 1.37 1.737 1.4 3.071 0.04 1.456-0.9 3.084-0.35 4.472 0.63-0.14 0.62-1.027 0.79-1.58 0.2-0.636 0.41-1.31 0.62-1.841-0.87-2.844-1.87-5.811-2.81-8.506-0.31-0.899-0.51-2.122-1.23-2.633-0.02-0.069-0.07-0.101-0.17-0.086zm-14.649 0.527c0.493-0.066 1.654 1.719 1.84 1.928 1.819 2.044 3.772 3.752 5.789 5.437 2.041-0.912 3.25-2.661 5.44-3.419 0.05 0.833-0.52 1.408-1.06 1.929-1.06 1.04-3.192 1.499-3.327 2.719-0.076 0.694 0.445 0.745 0.263 1.402-1.242 0.435-1.889-1.103-2.542-1.841-1.417-1.597-3.09-3.135-4.649-4.823-0.636-0.69-2.105-1.919-2.193-2.543-0.083-0.58-0.163-0.711 0.439-0.789zm-3.597 7.19c-0.3 2.525-0.925 5.397-0.438 8.156 0.704 0.204 1.206 0.607 1.93 0.789-0.919-2.209-0.625-6.393-1.492-8.945zm-1.666 0.877c-0.037 1.241-1.617 3.454-0.174 3.773 0.108-1.149 0.332-2.65 0.174-3.773zm24.912 3.947c-0.35 1.259-0.45 2.774-1.32 3.508-0.51-0.01-0.87 0.129-1.14 0.351 0.75 3.852 2.28 7.26 3.51 11.051 1.51 4.679 4.8 9.03 3.5 14.91 0.43-0.79 1.01-1.81 1.85-1.84 0.92-0.04 1.45 1.26 2.45 1.31-3.38-4.28-4.21-11.243-6.31-16.923-0.3-0.809-0.83-1.573-1.05-2.369-0.43-1.554-0.47-3.3-0.71-4.912-0.24-1.66-0.41-3.694-0.78-5.086zm-6.85 2.543c1.79-0.128 1.25 3.683 0.36 4.209-1.04-0.528-0.49-3.022-0.36-4.209zm-4.555 1.578c1.363 0.094 1.269 3.134 0.787 3.947-1.036-0.496-1.507-2.781-0.787-3.947zm-2.369 1.141c1.243 0.162 1.082 1.725 1.317 2.894-0.277 0.104-0.464 0.297-0.789 0.352-0.452-0.815-1.15-2.153-0.528-3.246zm10.174 0.703c-0.11 3.261 2.04 5.188 2.81 8.242 0.34 1.349 0.3 2.969 0.44 4.561 0.13 1.522 0.26 3.152 0.43 4.648 0.81 7.124 2.32 14.504 1.93 22.014-1.17 0.52-0.82-1.21-1.14-1.84-0.02 1.13 0.2 2.02 0.44 2.89 1.14-0.73 2.43-2.11 3.68-3.51 1.15-1.27 2.68-2.77 2.99-4.38 0.33-1.72 0.25-4.1-0.53-5.18-0.47-0.64-1.23-0.65-1.67-1.31-0.72-0.03-0.76 0.71-1.49 0.52-0.77-0.19-0.87-2.2-0.96-3.42-0.13-1.68 0.01-2.99-0.09-4.38-0.12-1.674-0.8-2.934-1.4-4.211-2.18-4.646-3.43-10.527-5.35-14.558-0.01-0.054-0.01-0.102-0.09-0.086zm-16.066 1.756c-0.144 0-0.271 0.07-0.334 0.259-0.285 1.259-0.393 2.307-0.702 4.036-0.132 0.74-0.415 3.543-1.052 3.595-0.767 0.064-0.765-1.314-0.701-2.193 0.072-1.025 0.524-1.95 0.349-2.719-0.664 1.388-1.484 2.972-1.14 5.088 1.296-0.242 1.723 1.384 2.894 1.49 0.579 0.053 1.11-0.348 1.666-0.351 1.929-0.012 2.548 1.39 4.211 1.754 0.885-0.81 2.943-0.448 4.297-0.789-0.39-2.33-0.259-5.937-1.227-7.981-0.442-0.004-0.574 0.304-0.879 0.438-0.06 1.037 0.045 2.044 0.09 3.07 0.046 1.074 0.264 4.07-0.527 4.299-1.33 0.383-0.811-2.658-0.877-4.123-0.078-1.703-0.152-2.683-0.44-3.948-0.304-0.107-0.749-0.431-1.138-0.173-0.553 0.885-0.302 3.646-0.44 5.525-0.097 1.341-0.576 3.06-1.578 1.666 0.103-2.021 0.081-4.335 0.352-6.139 0.122-0.816 0.414-2.038-0.703-1.843-0.514 1.768-0.737 4.353-1.051 6.402-0.101 0.664-0.097 1.534-0.965 1.58-1.099-2.709 0.182-5.966 0.525-8.596-0.108-0.154-0.392-0.348-0.63-0.347zm12.556 1.752c-1 1.71 0.54 4.292 0.7 6.226 0.05 0.5 0.14 1.353-0.61 1.578-0.68-0.781-1.13-1.999-1.32-3.508-0.16-1.352-0.03-3.197-1.05-3.597-0.14 2.281 0.52 5.264 0.7 7.806 1.06-0.516 3.03 0.211 4.56 0.088 1.76-0.14 3.09-2.276 1.23-2.806-0.27-0.937-0.57-1.98-0.88-2.981-0.28-0.966-0.4-2.244-1.14-2.72 0.28 1.706 0.93 3.807 1.23 5.527 0.09 0.534 0.39 1.552-0.44 1.666-1.58-1.66-1.2-5.29-2.54-7.193-0.1-0.074-0.23-0.115-0.44-0.086zm-15.433 8.242c-0.588 1.452-0.588 4.165-0.703 6.315-0.704 13.26 0.365 28.09-0.526 41.4-0.031 0.46-0.186 2.29 0.701 2.45 1.082 0.19 0.965-1.27 0.965-2.1 0-1.7-0.059-2.19-0.088-2.99-0.356-10.32-0.086-20.96-0.088-31.04 0-4.15-0.242-8.311 0.088-12.367 0.078-0.929 0.636-1.201 0.088-1.491-0.112-0.06-0.254-0.182-0.437-0.177zm3.58 0.427c-0.525-0.052-1.078-0.004-1.653 0.188-0.015 13.82-0.53 29.58 0 43.76 0.124 3.3-0.467 7.84 2.633 7.72 0.526-0.75 0.005-1.55-0.088-2.37-0.426-3.74-0.33-7.86-0.527-12.01-0.533-11.18-0.464-22.69-0.525-33.944-0.005-0.865-0.226-1.857 0.613-2.367 0.942 0.401 0.862 1.421 0.877 2.367 0.186 12.234 0.166 23.934 0.701 35.254 0.202 4.28 0.062 8.51 0.703 12.46 0.839-0.26 2.196-0.21 3.156-0.09 0.719-16.69-1.336-32.78-2.105-48.85-0.894-0.885-2.212-1.959-3.785-2.118zm16.723 0.338c-0.69 0.067-1.19 0.933-2.15 0.991-1.13 0.067-2.29-1.007-3.33-0.352 0.03 0.405 0.38 0.553 0.52 1.053 0.32 1.139 0.34 2.58 0.53 3.858 1.12 7.69 2.31 15.66 2.98 23.5 0.13 1.45 0.46 2.95 0.35 4.13-0.03 0.35-0.31 1.75-0.88 1.66-0.43-0.07-0.46-1.23-0.52-1.75-0.95-7.7-1.78-15.25-2.72-22.72-0.38-3.05-1.04-6.559-0.88-9.379-1.283 0.116-1.938-0.399-3.153-0.352 1.483 16.041 3.393 32.431 5.093 48.231 0.09 0.91-0.09 2.19 0.87 2.72 3.4-0.52 0.89-4.02 0.79-6.22-0.06-1.33 0.09-3.2 0.18-4.65 0.14-2.5 1.02-4.89 1.84-6.84 0.26-0.62 0.77-1.52 1.22-2.19 0.42-0.62 1.38-1.39 1.5-1.93 0.19-0.9-0.09-2.47-0.18-3.69-0.56-7.3-1.78-13.55-2.28-20.96-0.08-1.158-0.47-2.826-0.26-3.682 0.12-0.49 0.94-0.645 0.79-1.402-0.11-0.028-0.21-0.035-0.31-0.026zm-11.231 0.938c-0.09 0.005-0.19 0.047-0.303 0.139-0.499 0.271 0.009 1.058 0.088 1.58 0.283 1.866 0.322 3.963 0.44 5.963 0.596 10.08 1.362 20.13 1.839 30.17 0.199 4.18 0.082 8.29 0.176 12.28 0.871-0.16 2.201-0.6 3.421-0.7-1.11-7.56-1.62-16.05-2.63-24.82-0.461-4.01-0.917-8.08-1.404-12.37-0.34-3-0.408-6.09-0.789-9.471-0.103-0.916-0.209-2.804-0.838-2.771zm9.081 0.754h0.17c0.75 2.09 0.73 4.728 0.97 7.188 0.65 6.7 1.95 13 2.28 20.09 0.02 0.41 0.15 1.53-0.44 1.58-0.7 0.05-0.83-2.51-0.87-2.81-1.04-7.12-1.94-16.09-2.55-22.892-0.09-1.026-0.57-2.38 0.18-2.982 0.06-0.082 0.16-0.13 0.26-0.174zm12.05 10.558c-0.36 0.01-0.71 0.11-1 0.32 0.66 0.88 2.04 1.96 3.6 1.14-0.33-0.78-1.53-1.5-2.6-1.46zm2.42 2.7c-0.25 0-0.52 0.03-0.79 0.07 0.02 0.62 0.38 0.91 0.7 1.23 1.47-0.3 2.28 0.82 3.51 1.05-0.47-1.37-1.67-2.36-3.42-2.35zm-0.26 2.35c-1.61 2.7 1.97 1.67 3.77 2.46 0.53 0.23 0.38 0.54 0.88 0.52-0.53-2.02-2.39-2.7-4.65-2.98zm0.61 3.22c-0.9 0.02-1.55 0.34-1.4 1.17 0.78 0.56 1.84 0.06 2.72 0.17 1.17 0.15 1.68 1.13 2.54 1.14 0.2-0.21 0.03-0.79 0.09-1.14-0.3-0.61-2.46-1.38-3.95-1.34zm-1 2.17c-0.22 0-0.41 0.01-0.58 0.05-0.67 0.13-1.31 0.84-1.4 1.32 2.73-0.16 4.54 1.07 6.58 1.31 0.14-0.35 0.01-1.01-0.26-1.31-0.49-0.54-2.86-1.35-4.34-1.37zm-1.2 2.71c-1.07-0.03-2.03 0.21-2.71 1.02 2.46 0.15 4.49 0.19 6.23 0.97 0.71 0.32 1.12 1.03 2.02 0.88 0.17-0.59 0.06-1.33-0.27-1.67-1.45-0.29-3.5-1.13-5.27-1.2zm-1.71 2.15c-2.52 0.1-4.58 1.15-4.86 3 2.53-0.43 5.28-1.03 7.72-0.27 1.3 0.41 2.16 1.31 3.68 1.14 0.13-0.42 0.32-1.12 0.09-1.66-0.41-0.97-3.36-2.05-5.53-2.2-0.37-0.02-0.74-0.03-1.1-0.01zm-0.03 3.52c-3.22 0.07-7.25 0.49-7.55 3.33 3.33-1.74 9.57-1.26 13.33-0.52 0.09-0.34 0.29-0.69 0.09-1.06-1.39-0.54-3.39-1.8-5.87-1.75zm-0.51 3.33c-3 0.1-5.95 0.82-7.91 1.85-0.22 0.61-0.73 1.31-0.36 2.01 2.72-1.05 7.69-2.78 11.49-1.49 0.59 0.2 1.41 0.81 1.85 0.62 0.78-0.34 0.66-2.03 0.17-2.46-1.63-0.44-3.45-0.6-5.24-0.53zm0.51 3.08c-0.24 0.01-0.44 0.04-0.62 0.08-2.91 0.71-7.09 1.18-8.77 2.55-0.16 0.62-0.47 1.64-0.09 2.28 0.9 0.06 1.26-0.67 2.02-0.97 2.86-1.1 8.74-1.45 11.84-0.7 0.1-0.43 0.35-0.94 0.26-1.41-0.22-1.15-3.02-1.89-4.64-1.83zm0.87 4.11c-3.45 0-7.52 0.69-9.21 1.76-1.13 0.72-1.95 2.75-0.61 3.86 1.4-0.54 3.12-1.66 5.17-2.28 1.65-0.5 4.76-1.21 6.84-0.79 0.62 0.12 1.26 0.93 2.2 0.7-0.09-0.51-0.08-1.37-0.35-1.93-0.69-1.39-1.82-1.32-4.04-1.32zm0.3 3.99c-3.75 0.02-7.75 1.41-9.68 3.38-0.07 1.1-0.55 1.79-0.62 2.9 2.77-1.91 6.76-4.08 11.67-4.3 2.43-0.11 4.85 0.51 6.75 1.05-0.26-0.11-0.47-0.28-0.87-0.26-1.55-1.99-4.33-2.8-7.25-2.77zm2.86 3.9c-0.62 0.05-1.2 0.47-1.23 1.15-0.02 0.41 0.49 1.27 1.06 1.31 0.79 0.07 1.24-0.86 1.66-1.4-0.2-0.79-0.86-1.11-1.49-1.06zm-6.32 0.27c-0.49 0.33-1.34 0.29-1.58 0.88 0.07 0.39 0.66 0.97 0.45 1.93 1.43 1.15 2.36-2.32 1.13-2.81zm11.06 0.07c-0.65 0.06-1.26 0.54-1.23 1.51 0.36 0.66 0.98 1.06 1.75 1.32 0.59-0.3 1.09-1.09 0.97-1.76-0.14-0.75-0.84-1.12-1.49-1.07zm-4.84 0.24c0.32 0.01 0.63 0.25 0.54 0.75-0.35 0.37-1.21 0.14-1.05-0.53 0.11-0.16 0.31-0.23 0.51-0.22zm7.82 1.1c-0.34 0.62-0.52 1.41-0.88 2.01 0.61-0.15 1.3-0.22 1.67-0.61-0.14-0.6-0.25-1.22-0.79-1.4zm-11.17 0.25c-0.67-0.07-1.28 0.19-1.2 0.97 0.05 0.45 0.83 0.75 1.23 1.32 0.29 0.41 0.54 1.03 0.53 1.66-0.01 0.39-0.32 0.97-0.27 1.32 1.94-0.08 1.23-2.39 1.32-4.21-0.19-0.58-0.93-0.99-1.61-1.06zm-15.67 0.1c-0.75-0.04-1.125 0.49-1.928 0.7-0.656 1.03-1.484 1.91-2.633 2.72-0.92 0.64-2.542 1.75-3.683 1.66-2.415-0.18-1.54-3.67-3.242-4.73-1.905 1.08-3.827 2.61-5.44 4.03-0.507 0.45-1.432 0.97-1.314 1.49 8.079 0.16 15.351-0.49 23.42-0.35-0.51-0.88-1.42-3.29-0.44-4.65-0.75 0.2-0.82 0.45-1.41 0.53-1.83 0.24-2.21-1.36-3.33-1.4zm-6.26 0.07c-0.989-0.19-2.276 0.83-2.07 1.85 0.601-0.14 1.232-0.29 1.578 0.18 0.566-0.34 1.054-0.76 1.314-1.4-0.197-0.38-0.492-0.57-0.822-0.63zm27.48 0.72c-0.51 0.42-1.51 0.35-2.19 0.61-0.02 0.07 0 0.17-0.08 0.17 0.13 0.8 0.72 1.15 1.4 1.41 0.42-0.56 1.27-1.36 0.87-2.19zm-11.88 0.36c-0.09 0.01-0.2 0.03-0.31 0.07 0.13 0.61 0.79 0.68 0.62 1.58-0.7 0.72-1.11-0.39-1.76-0.52-1.16 1.72 1.69 2.06 1.93 3.51 0.54 0.07 0.87 0.07 1.32-0.09-0.15-0.78-1.33-1.96-0.7-3.25-0.22-0.51-0.45-1.33-1.1-1.3zm3.57 0.9c-1.92 0.01-0.78 3.35 0.86 3.12 0.47-0.07 0.88-0.57 0.79-1.4-0.43-0.24-1.49 0.14-1.67-0.35-0.21-0.77 0.57-0.93 0.44-1.32-0.15-0.03-0.29-0.05-0.42-0.05zm14.34 0.38c-0.21-0.02-0.41 0.07-0.59 0.28 0.68 0.03 1.16 0.74 0.62 1.23-0.74 0.15-0.72-0.45-1.15-0.61-0.22 0.71-0.25 1.7 0.27 2.1 0.54-0.65 2.04-0.59 2.1-1.58 0.03-0.5-0.63-1.38-1.25-1.42zm1.6 2.83c-1.56 0.12-1.63 3.34-0.17 3.59 1.22 0.22 1.64-0.99 2.11-1.75-0.63-0.77-0.84-1.93-1.94-1.84zm-10.94 0.3c-0.86-0.09-1.74 0.34-1.86 1.28-0.07 0.56 0.18 1.36 0.61 1.66 0.48 0.14 0.8-0.59 1.06-0.96-2.06-0.37 0.96-2.55 0.52-0.26 0.57-0.03 0.96 0.5 1.41 0.08-0.04-1.11-0.88-1.71-1.74-1.8zm11.45 1.02c0.26 0.04 0.52 0.17 0.63 0.34 0.07 0.46-0.07 0.69-0.26 0.88-0.78 0.11-0.94-0.4-1.05-0.96 0.13-0.22 0.41-0.29 0.68-0.26zm-5.46 0.08c-0.19 0.02-0.38 0.13-0.57 0.35 1-0.11 1.21 1.18 0.44 1.32-0.49 0.09-0.91-0.54-0.7-1.14-1.43 0.35-0.88 2.3 0.26 2.63 0.3-0.99 1.5-1.08 1.84-2.02-0.23-0.58-0.72-1.23-1.27-1.14zm-10.12 0.08c-0.55-0.02-0.99 0.38-1.59 0.45-1.02 0.11-2.28-0.14-3.51-0.18-8.14-0.25-17.935 0.59-25.518 0.44-0.954-0.02-2.424-0.22-2.807 0.26-0.358 0.46-0.319 1.72-0.349 2.46-0.04 1.01 0.058 1.94 0.349 2.46 11.489-0.15 23.005-0.28 34.295-0.62 0.17-1.64 0.1-3.71-0.27-5.09-0.22-0.12-0.42-0.18-0.6-0.18zm5.58 1.79c-0.17 0-0.34 0.02-0.5 0.06-2.26 0.52-1.65 3.85 0.35 3.95 1.04 0.05 2.4-1 2.36-2.11-0.03-0.98-1.06-1.89-2.21-1.9zm7.28 0.53c-0.16 0-0.33 0.02-0.51 0.06-0.7 0.35-1.55 0.75-1.48 1.66 0.05 0.84 1.25 1.73 1.92 1.76 2.09 0.09 2.39-3.53 0.07-3.48zm-7.72 0.17c0.28 0.03 0.57 0.16 0.73 0.32 0.13 0.44 0.19 1.38-0.18 1.58-1 0.07-1.15-0.72-1.23-1.58 0.13-0.26 0.4-0.34 0.68-0.32z" transform="matrix(.8 0 0 -.8 234.75 220.28)" fill="#fff"/><path d="m96.49 42.99c-1.166 0.089-2.101 2.09-1.365 3.086 1.545-0.121 2.032-1.301 2.193-2.806-0.276-0.219-0.559-0.3-0.828-0.28zm-6.541 21.414c-0.601 0.079-0.521 0.209-0.437 0.789 0.087 0.624 1.557 1.857 2.193 2.545 1.559 1.689 3.232 3.226 4.649 4.823 0.653 0.738 1.3 2.278 2.542 1.841 0.18-0.656-0.341-0.709-0.263-1.404 0.134-1.219 2.267-1.677 3.337-2.717 0.53-0.521 1.11-1.096 1.05-1.929-2.19 0.758-3.399 2.507-5.44 3.419-2.017-1.686-3.97-3.392-5.787-5.437-0.186-0.209-1.35-1.995-1.844-1.93zm12.801 14.559c-0.13 1.187-0.68 3.68 0.36 4.209 0.89-0.526 1.43-4.338-0.36-4.209zm-4.557 1.58c-0.718 1.165-0.245 3.449 0.791 3.945 0.482-0.813 0.573-3.851-0.791-3.945zm-2.367 1.139c-0.622 1.093 0.076 2.43 0.528 3.244 0.325-0.055 0.512-0.246 0.789-0.35-0.234-1.17-0.074-2.733-1.317-2.894zm9.384 14.91c-0.1 0.042-0.2 0.093-0.26 0.176-0.75 0.602-0.27 1.955-0.18 2.98 0.61 6.802 1.51 15.772 2.55 22.892 0.04 0.3 0.17 2.86 0.87 2.81 0.59-0.05 0.46-1.17 0.44-1.58-0.33-7.09-1.63-13.39-2.28-20.09-0.24-2.46-0.22-5.098-0.97-7.188h-0.17zm14.81 48.368c-0.2-0.01-0.4 0.06-0.51 0.22-0.16 0.67 0.7 0.9 1.05 0.53 0.09-0.5-0.22-0.74-0.54-0.75zm10.34 8.03c-0.27-0.03-0.55 0.04-0.68 0.26 0.11 0.56 0.27 1.07 1.05 0.96 0.19-0.19 0.34-0.42 0.26-0.88-0.11-0.17-0.37-0.3-0.63-0.34zm-10.44 2.65c-0.28-0.02-0.55 0.06-0.68 0.32 0.08 0.86 0.23 1.65 1.23 1.58 0.37-0.2 0.31-1.14 0.18-1.58-0.16-0.16-0.45-0.29-0.73-0.32z" transform="matrix(.8 0 0 -.8 234.75 220.28)"/></g></g></svg>